<svg width="39" height="39" viewBox="0 0 39 39" fill="none" xmlns="http://www.w3.org/2000/svg">
<path d="M38.9767 6.65095C38.9767 6.31504 38.6408 6.04632 38.3049 6.04632C26.2123 6.04632 23.525 0.470269 23.4578 0.403088C23.3907 0.134363 23.1219 0 22.8532 0H16.1351C15.8663 0 15.6648 0.134363 15.5304 0.403088C15.4633 0.470269 12.776 6.04632 0.68337 6.04632C0.347463 6.04632 0.0115564 6.31504 0.0115564 6.65095C0.0115564 6.91968 -1.13052 33.4563 19.2926 38.898C19.3598 38.898 19.427 38.898 19.4941 38.898C19.5613 38.898 19.6285 38.898 19.6957 38.898C40.1188 33.5235 38.9767 6.91968 38.9767 6.65095ZM19.4941 37.6215C2.027 32.7845 1.288 11.3536 1.35518 7.38995C12.1042 7.1884 15.6648 2.75443 16.5382 1.34363H22.4501C23.3235 2.75443 26.8841 7.1884 37.6331 7.38995C37.7003 11.3536 36.9613 32.7845 19.4941 37.6215Z" fill="white"/>
<path d="M20.0337 2.95598C19.8994 2.75444 19.6978 2.68726 19.4963 2.68726C19.2947 2.68726 19.0932 2.75444 18.9588 2.95598C18.9588 2.95598 14.1218 8.73357 4.04457 8.73357C3.70866 8.73357 3.37275 9.0023 3.37275 9.33821C3.37275 9.53975 2.43222 31.0378 19.2947 35.5389C19.3619 35.5389 19.4291 35.5389 19.4963 35.5389C19.5635 35.5389 19.6306 35.5389 19.6978 35.5389C36.5603 31.105 35.6198 9.60693 35.6198 9.33821C35.6198 9.0023 35.2839 8.73357 34.948 8.73357C24.938 8.73357 20.0337 2.95598 20.0337 2.95598ZM19.4963 34.2625C5.38819 30.366 4.71638 13.5706 4.71638 10.0772C13.1812 9.87566 18.0183 5.84478 19.4963 4.36679C21.0414 5.91196 25.8113 9.87566 34.2762 10.0772C34.2762 13.5706 33.6044 30.366 19.4963 34.2625Z" fill="white"/>
<path d="M19.4958 20.1545C17.6147 20.1545 16.1367 21.6325 16.1367 23.5136C16.1367 25.3947 17.6147 26.8727 19.4958 26.8727C21.3769 26.8727 22.8549 25.3947 22.8549 23.5136C22.8549 21.6325 21.3769 20.1545 19.4958 20.1545ZM19.4958 25.529C18.3537 25.529 17.4803 24.6557 17.4803 23.5136C17.4803 22.3715 18.3537 21.4982 19.4958 21.4982C20.6379 21.4982 21.5112 22.3715 21.5112 23.5136C21.5112 24.6557 20.6379 25.529 19.4958 25.529Z" fill="white"/>
<path d="M19.4934 17.4668C17.6795 17.4668 16 18.3402 14.9923 19.8853C14.7907 20.2212 14.8579 20.6243 15.1938 20.8259C15.5297 21.0274 15.9328 20.9602 16.1344 20.6243C16.8734 19.4822 18.1498 18.8104 19.4934 18.8104C20.8371 18.8104 22.1135 19.4822 22.8525 20.6243C22.9869 20.8259 23.1884 20.893 23.3899 20.893C23.5243 20.893 23.6587 20.8259 23.793 20.7587C24.1289 20.5571 24.1961 20.154 23.9946 19.8181C22.9869 18.3402 21.3073 17.4668 19.4934 17.4668Z" fill="white"/>
<path d="M19.4963 14.7798C16.9434 14.7798 14.6593 15.9219 13.1141 17.9373C12.9126 18.206 12.9126 18.6763 13.2485 18.8778C13.5172 19.0794 13.9875 19.0794 14.189 18.7435C15.4655 17.0639 17.4137 16.1234 19.4963 16.1234C21.579 16.1234 23.5272 17.0639 24.8037 18.7435C24.938 18.945 25.1396 19.0122 25.3411 19.0122C25.4755 19.0122 25.6098 18.945 25.7442 18.8778C26.0129 18.6763 26.0801 18.206 25.8786 17.9373C24.3334 15.9219 22.0492 14.7798 19.4963 14.7798Z" fill="white"/>
<path d="M11.2297 15.9886C10.9609 16.2573 11.0281 16.7276 11.2968 16.9291C11.5656 17.1978 12.0358 17.1306 12.2374 16.8619C14.0513 14.7121 16.6714 13.4357 19.493 13.4357C22.3146 13.4357 24.9347 14.7121 26.7486 16.8619C26.8829 16.9963 27.0845 17.1306 27.286 17.1306C27.4204 17.1306 27.6219 17.0635 27.6891 16.9963C27.9578 16.7276 28.025 16.3245 27.7563 16.0557C25.7408 13.5028 22.7177 12.092 19.493 12.092C16.2683 12.092 13.2451 13.5028 11.2297 15.9886Z" fill="white"/>
</svg>
