<svg width="22" height="60" viewBox="0 0 22 60" fill="none" xmlns="http://www.w3.org/2000/svg">
<g clip-path="url(#clip0_1_725)">
<path d="M16.4667 59.4793C16.5037 59.4463 16.5408 59.4082 16.5754 59.3726L16.5902 59.3549C16.6601 59.2756 16.7237 59.1906 16.7804 59.1009L16.7927 59.0831C16.8509 58.9939 16.9029 58.9005 16.9484 58.8037V58.7885C16.995 58.6876 17.0363 58.5842 17.0719 58.4786C17.1647 58.1902 17.2309 57.8935 17.2695 57.5923C17.2695 57.5338 17.2917 57.4348 17.3115 57.2976V57.2875C17.7462 54.1585 20.7698 32.2909 21.0514 30.2463C21.1601 29.4692 21.3256 28.4685 21.4862 27.3891V27.3383C21.4862 27.2646 21.5084 27.1884 21.5183 27.1148L21.5331 27.0233L21.5776 26.7084L21.5924 26.6119C21.5924 26.5357 21.6147 26.4595 21.6245 26.3859C21.6344 26.3122 21.6245 26.3071 21.6418 26.2665C21.6591 26.2259 21.6591 26.1243 21.669 26.0531C21.6789 25.982 21.6813 25.977 21.6863 25.9389C21.6912 25.9008 21.6863 25.883 21.6863 25.855C21.6863 25.7941 21.7011 25.7331 21.711 25.6722V25.5985V25.5401C21.711 25.4715 21.7308 25.4004 21.7382 25.3318V25.2861C21.7382 25.2506 21.7382 25.2125 21.7505 25.1769C21.7629 25.1414 21.7629 25.0829 21.7678 25.0372V24.9763C21.7678 24.9356 21.7678 24.8975 21.7802 24.8569C21.7925 24.8163 21.7802 24.801 21.7802 24.7731C21.7802 24.7452 21.7802 24.7045 21.7925 24.6715C21.7925 24.6334 21.7925 24.5953 21.8049 24.5547C21.8172 24.514 21.8049 24.5318 21.8049 24.5191C21.8049 24.5064 21.8049 24.4505 21.8049 24.415L21.916 24.2702V24.1864V24.1585C21.916 24.1102 21.916 24.0594 21.9284 24.0112C21.9407 23.9629 21.9284 23.9883 21.9284 23.9756V23.8664V23.7673C21.9284 23.7419 21.9284 23.7191 21.9284 23.6962C21.9284 23.6734 21.9284 23.6226 21.9284 23.5845C21.9284 23.5464 21.9284 23.5489 21.9284 23.5311C21.9284 23.5134 21.9284 23.4803 21.9284 23.4549C21.9296 23.4372 21.9296 23.4194 21.9284 23.4016C21.9284 23.3737 21.9284 23.3457 21.9284 23.3178V23.3026C21.9284 23.2797 21.9284 23.2543 21.9284 23.2314V23.0841V23.0714C21.9284 23.0435 21.9284 23.0181 21.9284 22.9927C21.9284 22.9673 21.9284 22.9114 21.9284 22.8733V22.8302C21.9284 22.7997 21.9284 22.7717 21.9284 22.7413V22.6752C21.9296 22.6515 21.9296 22.6278 21.9284 22.6041V22.472V22.307C21.9253 22.2372 21.9187 22.1677 21.9086 22.0987C21.9086 22.0784 21.9086 22.0606 21.9086 22.0403C21.9086 22.02 21.8913 21.9336 21.879 21.8803C21.8666 21.8269 21.879 21.8447 21.879 21.8269C21.8441 21.6831 21.8012 21.5415 21.7505 21.4028L21.7332 21.3571C21.711 21.2987 21.6863 21.2402 21.6616 21.1844L21.6443 21.1387C21.5801 20.9964 21.5084 20.8542 21.4294 20.712L21.4072 20.6739L21.2985 20.4885L21.3232 20.4605C21.2342 20.3132 21.1379 20.1685 21.0366 20.0237L21.0218 20.0008L20.8736 19.7976V19.7824C20.1498 18.8046 19.2235 17.8395 18.5367 16.8997C18.4774 16.8185 18.4231 16.7372 18.3712 16.6458L18.349 16.6127L18.3021 16.5315L18.2032 16.3639C18.1835 16.3258 18.1662 16.2877 18.1464 16.2521C18.1267 16.2165 18.0946 16.1505 18.0723 16.0997C18.0501 16.0489 18.0377 16.021 18.0204 15.9803C18.0032 15.9397 17.9785 15.8838 17.9587 15.833L17.9142 15.7137L17.8648 15.5689C17.8525 15.5308 17.8401 15.4902 17.8302 15.4521C17.8204 15.414 17.8031 15.3556 17.7907 15.3073C17.7784 15.259 17.7709 15.2311 17.7611 15.1905C17.7512 15.1498 17.7388 15.0965 17.729 15.0482C17.7191 15 17.7141 14.972 17.7092 14.9365C17.7043 14.9009 17.6919 14.84 17.6845 14.7917C17.6771 14.7435 17.6697 14.6952 17.6647 14.647C17.6647 14.647 17.6647 14.6317 17.6647 14.6266C17.6647 14.5555 17.6499 14.4844 17.645 14.4158C17.645 14.4006 17.645 14.3854 17.645 14.3701C17.645 14.2431 17.6326 14.1161 17.6326 13.9968C17.6326 13.8774 17.6326 13.8114 17.6326 13.7225C17.6314 13.6996 17.6314 13.6767 17.6326 13.6539C17.6326 13.5752 17.6326 13.4964 17.6474 13.4228C17.6462 13.4008 17.6462 13.3787 17.6474 13.3567C17.6474 13.3339 17.6474 13.3085 17.6474 13.2831V13.2602C17.6474 13.2272 17.6474 13.1942 17.6474 13.1637C17.6474 13.1332 17.6474 13.0926 17.6598 13.057C17.6721 13.0215 17.6598 12.9885 17.6721 12.9555C17.6845 12.9224 17.6721 12.9021 17.6845 12.8767C17.6968 12.8513 17.6845 12.8183 17.6968 12.7904C17.7092 12.7624 17.6968 12.6964 17.7166 12.6532V12.605C17.7166 12.5796 17.7166 12.5542 17.7166 12.5288C17.7166 12.5034 17.7166 12.4729 17.729 12.445C17.8179 11.8125 18.4157 7.58888 18.6948 5.60276C18.7541 5.18624 18.7986 4.8713 18.8233 4.70368C18.8233 4.68082 18.8233 4.6605 18.8233 4.64526C18.8267 4.61648 18.8378 4.58923 18.8554 4.56653C18.8697 4.54807 18.8873 4.53256 18.9073 4.52081C18.9181 4.51422 18.9297 4.50909 18.9418 4.50557C18.9674 4.49658 18.9921 4.48554 19.016 4.47256L19.0703 4.44716C19.0942 4.43667 19.1166 4.42301 19.137 4.40652C19.1434 4.40125 19.1492 4.39529 19.1543 4.38874C19.1647 4.37623 19.1738 4.36261 19.1815 4.34811C19.1879 4.33253 19.1928 4.31638 19.1963 4.29985C19.1963 4.22111 19.263 3.81729 19.2827 3.6776C19.2852 3.66247 19.2852 3.64702 19.2827 3.63189C19.2827 3.63189 19.2827 3.61919 19.2827 3.61411C19.2827 3.61411 19.2827 3.61411 19.2827 3.59887C19.2827 3.58363 19.2827 3.58109 19.2704 3.57347C19.2644 3.56371 19.2578 3.55437 19.2506 3.54553L19.2309 3.52013L19.2136 3.49982V3.48458C19.2117 3.47881 19.2117 3.47257 19.2136 3.4668C19.2125 3.46178 19.2125 3.45658 19.2136 3.45156H19.2309L19.2976 3.40585C19.299 3.39574 19.299 3.38547 19.2976 3.37536C19.2971 3.36691 19.2971 3.35843 19.2976 3.34997V3.31695C19.3124 3.21536 19.3445 3.01472 19.3766 2.80899C19.3766 2.7582 19.3939 2.70486 19.4013 2.6566C19.431 2.47882 19.4557 2.32136 19.4655 2.25532V2.22992C19.4681 2.21907 19.4681 2.20776 19.4655 2.1969C19.4664 2.19016 19.4664 2.18333 19.4655 2.17658L19.4532 2.15881L19.4359 2.14103V2.12325C19.435 2.11651 19.435 2.10967 19.4359 2.10293V2.06991C19.4352 2.06061 19.4352 2.05128 19.4359 2.04198C19.4878 1.95308 19.51 2.0115 19.6039 1.90991C19.6255 1.84409 19.6436 1.77711 19.6582 1.70926C19.6654 1.68252 19.6712 1.65539 19.6755 1.62799C19.6755 1.60005 19.6755 1.57212 19.6755 1.54418C19.6755 1.51624 19.6755 1.49084 19.6755 1.46545V1.4502C19.6768 1.42567 19.6768 1.40108 19.6755 1.37655C19.6744 1.37154 19.6744 1.36632 19.6755 1.36131C19.6728 1.34321 19.6687 1.32537 19.6632 1.30798C19.594 1.08447 18.8702 0.853356 18.0155 0.690809C17.7487 0.640014 16.9113 0.462229 16.5556 0.421592C16.1999 0.380956 15.3526 0.281903 15.0734 0.253965C14.2089 0.159993 13.4505 0.170152 13.322 0.360636C13.3099 0.380998 13.2992 0.402216 13.2899 0.424131L13.2677 0.490164C13.2666 0.496889 13.2666 0.503758 13.2677 0.510483C13.2604 0.532739 13.2554 0.555726 13.2529 0.579058C13.2517 0.587483 13.2517 0.596033 13.2529 0.604457V0.655252C13.2515 0.671308 13.2515 0.687453 13.2529 0.703509C13.2529 0.703509 13.2529 0.726365 13.2529 0.736524C13.2484 0.805022 13.2484 0.873748 13.2529 0.942246V0.967646C13.3146 1.08956 13.3517 1.04384 13.3789 1.14289C13.3814 1.15289 13.3814 1.16337 13.3789 1.17337V1.19115L13.364 1.20639L13.3443 1.22162L13.3245 1.23432H13.3072C13.3072 1.23432 13.3072 1.23432 13.2924 1.24956C13.2901 1.25872 13.2901 1.26834 13.2924 1.2775C13.2924 1.2775 13.2924 1.2902 13.2924 1.3029C13.2924 1.3156 13.2924 1.32322 13.2924 1.33591C13.2924 1.39941 13.2702 1.50608 13.2553 1.62545C13.2553 1.67371 13.2553 1.72196 13.238 1.77022C13.2133 1.96832 13.1886 2.18166 13.1714 2.31119V2.35691C13.1703 2.37043 13.1703 2.38402 13.1714 2.39755C13.1714 2.39755 13.1714 2.41786 13.1714 2.42294C13.1676 2.43707 13.1676 2.45199 13.1714 2.46612V2.47882V2.49406L13.1961 2.52454L13.2183 2.54993L13.2306 2.56517V2.57787C13.2319 2.58019 13.2326 2.58282 13.2326 2.58549C13.2326 2.58817 13.2319 2.59079 13.2306 2.59311C13.2281 2.59937 13.2238 2.60469 13.2183 2.60835H13.2035L13.1788 2.62359L13.1565 2.63883H13.1417L13.117 2.66168C13.1092 2.66711 13.1025 2.674 13.0972 2.682V2.69724V2.70994C13.0905 2.72431 13.0863 2.73979 13.0849 2.75566C13.0651 2.8928 13.0083 3.29663 12.996 3.37536C12.9935 3.3922 12.9935 3.40932 12.996 3.42616C12.9986 3.44371 13.0036 3.46081 13.0108 3.47696L13.0231 3.49982C13.0377 3.52168 13.0552 3.54134 13.075 3.55823L13.1219 3.59887H13.1047C13.122 3.61926 13.142 3.63719 13.1639 3.6522C13.1936 3.66784 13.2177 3.69272 13.2328 3.72328C13.2479 3.75384 13.2532 3.78852 13.2479 3.82237C13.2479 3.83761 13.2479 3.85793 13.2479 3.88078C13.2257 4.04587 13.1788 4.36334 13.1219 4.77987C12.8403 6.76598 12.245 10.9897 12.1536 11.6221C12.1536 11.65 12.1536 11.6779 12.1536 11.7059C12.1536 11.7338 12.1536 11.7643 12.1413 11.7973V11.8202C12.1413 11.8676 12.1338 11.9184 12.119 11.9726C12.119 11.998 12.119 12.0259 12.119 12.0538C12.1135 12.0807 12.1094 12.1078 12.1067 12.1351L12.0919 12.2291C12.0919 12.2672 12.0795 12.3027 12.0721 12.3408C12.0647 12.3789 12.0597 12.417 12.0523 12.4551L12.0375 12.5313C12.0322 12.5522 12.0281 12.5734 12.0252 12.5948C12.0079 12.6685 11.993 12.7446 11.9733 12.8208L11.9585 12.8869C11.9338 12.9834 11.9091 13.0799 11.8769 13.179C11.8229 13.3638 11.7585 13.5452 11.6843 13.7225C11.6719 13.7555 11.6571 13.7885 11.6423 13.8215L11.6275 13.8545C11.6151 13.8825 11.6027 13.9104 11.5879 13.9384L11.5657 13.9891C11.5533 14.0171 11.5385 14.0425 11.5262 14.0679L11.4965 14.1263L11.457 14.1999L11.42 14.266L11.3829 14.332L11.3384 14.4031L11.3014 14.4666C11.2847 14.4947 11.2665 14.5218 11.247 14.5479L11.2149 14.5987C11.1853 14.6444 11.1532 14.6876 11.1235 14.7308L11.0963 14.7638L11.0222 14.8628C11.0099 14.8781 10.9951 14.8933 10.9827 14.9111L10.916 14.9924L10.8691 15.0432C10.8473 15.0706 10.8243 15.0969 10.7999 15.1219C10.7851 15.1397 10.7678 15.1549 10.7505 15.1727L10.6789 15.2489L10.627 15.2997L10.548 15.3759L10.4961 15.4216L10.4022 15.5029L10.3577 15.541C10.3083 15.5816 10.2614 15.6197 10.2095 15.6578L10.049 15.7797L10.0045 15.8127L9.81182 15.8889L9.77477 15.9168L9.64137 16.0083L9.61667 16.0286L9.46845 16.1277H9.45117C8.99417 16.4375 8.50753 16.7474 8.03571 17.0623L7.83315 17.1969L7.76893 17.2426L7.6306 17.3366L7.55155 17.3925L7.42556 17.4814L7.35146 17.5347L7.20324 17.6439L7.15878 17.6769C7.11678 17.7074 7.07479 17.7379 7.03527 17.7709L7.0155 17.7861L6.97598 17.8166L6.91175 17.8674L6.84753 17.9207L6.82282 17.9411L6.76107 17.9919C6.73693 18.0099 6.71383 18.0294 6.6919 18.0503L6.66473 18.0706L6.5758 18.1468L6.51651 18.1976L6.40041 18.3043L6.37077 18.3322L6.34854 18.3525C6.3189 18.3779 6.29172 18.4084 6.26208 18.4363L6.22996 18.4668L6.19291 18.5049L6.14104 18.5557V18.5709L6.10645 18.6039L6.05211 18.6649C6.03437 18.6823 6.01786 18.701 6.0027 18.7208L5.98047 18.7436L5.90389 18.8325L5.85943 18.8884L5.78038 18.99L5.74826 19.0306V19.0433C5.72876 19.0685 5.71062 19.0948 5.69392 19.1221L5.66428 19.1652L5.63463 19.211L5.60005 19.2668L5.57041 19.3151L5.53089 19.3862L5.50124 19.4395L5.48642 19.4675L5.43702 19.5716C5.43702 19.5894 5.41972 19.6097 5.40984 19.6275C5.39996 19.6453 5.38267 19.6935 5.37032 19.7265C5.35797 19.7595 5.37032 19.7545 5.35303 19.7672L5.33574 19.8129C5.31597 19.8662 5.29868 19.9221 5.27892 19.9805L5.25916 20.0465L5.2468 20.0821C5.24136 20.1053 5.23476 20.1282 5.22705 20.1507V20.1735L5.20481 20.2573V20.2726C5.20481 20.2954 5.19246 20.3183 5.18505 20.3437V20.3793C5.18505 20.4097 5.16776 20.4428 5.16035 20.4758C5.15294 20.5088 5.148 20.5215 5.14059 20.5469C5.13735 20.564 5.13323 20.581 5.12824 20.5977C5.12824 20.6307 5.11341 20.6637 5.10353 20.6993L5.08871 20.7602C5.08871 20.7805 5.08871 20.8034 5.07636 20.8237C5.06401 20.844 5.05907 20.8974 5.05166 20.9329C5.04425 20.9685 5.05166 20.9659 5.05166 20.9837C5.05166 21.0015 5.05166 21.0345 5.03437 21.0599C5.01707 21.0853 5.01954 21.1361 5.00966 21.1742V21.2148C5.00966 21.2453 5.00966 21.2758 4.99237 21.3037C4.97508 21.3317 4.97508 21.385 4.96767 21.4257V21.4561C4.96767 21.4866 4.95532 21.5196 4.95038 21.5526C4.95038 21.5958 4.93309 21.6365 4.92568 21.6796V21.6999L4.91085 21.7838C4.91085 21.8066 4.91085 21.8295 4.8985 21.8523C4.8985 21.9184 4.87627 21.9819 4.86392 22.0479C4.85157 22.1139 4.84415 22.1546 4.83674 22.2079C4.82933 22.2612 4.82192 22.2866 4.81698 22.3247C4.81204 22.3628 4.79723 22.4314 4.78981 22.4873C4.78981 22.5228 4.78981 22.5584 4.77252 22.594C4.75523 22.6295 4.75276 22.7159 4.74534 22.7768C4.73793 22.8378 4.74535 22.8403 4.72806 22.8708C4.72806 22.9419 4.7083 23.0105 4.69594 23.0791C4.69714 23.1027 4.69714 23.1265 4.69594 23.1502L4.65889 23.4041V23.427L4.64406 23.5286C4.64406 23.5769 4.63172 23.6251 4.62431 23.6734C4.61689 23.7216 4.62431 23.7343 4.61196 23.7648L4.5749 24.0188C4.38716 25.3547 4.23153 26.6881 4.09567 27.6481C3.80665 29.68 0.637329 51.606 0.200095 54.6791C0.185274 54.7832 0.172924 54.8671 0.163043 54.9331V54.9814C0.117559 55.282 0.0993652 55.5864 0.108697 55.8906C0.108697 55.9465 0.108697 56.0023 0.108697 56.0557C0.108697 56.1116 0.121049 56.1649 0.12846 56.2182V56.2411C0.14509 56.3458 0.168192 56.4493 0.197626 56.5509V56.5738C0.229299 56.6719 0.267257 56.7678 0.311255 56.8608C0.314809 56.8679 0.318942 56.8747 0.323607 56.8811C0.345891 56.9273 0.370631 56.9723 0.397716 57.0157C0.422612 57.0579 0.449829 57.0986 0.479234 57.1376L0.494055 57.158C0.526168 57.1986 0.55828 57.2392 0.592863 57.2773L0.607688 57.2951L0.708965 57.3967L0.728727 57.4145C0.768251 57.45 0.807775 57.4856 0.85224 57.5186L0.876944 57.5389L1.00292 57.6253L1.02269 57.6405L1.17584 57.7294L1.2129 57.7497L1.36852 57.8259H1.38581L1.56861 57.8996L1.61555 57.9173L1.81811 57.9834C3.57692 58.5091 5.37032 58.9637 7.17606 59.3142C9.2493 59.6804 11.3471 59.8799 13.4505 59.9111C13.9445 59.9263 14.4304 59.9356 14.9079 59.939H15.1228H15.1698L15.3674 59.9212H15.3872L15.5576 59.8933H15.5971C15.6546 59.8819 15.7115 59.8675 15.7676 59.8501H15.7923L15.9356 59.8019H15.9652C16.0158 59.7838 16.0653 59.7626 16.1134 59.7384H16.1381L16.2616 59.6698H16.2814C16.3259 59.6444 16.3678 59.6139 16.4098 59.586L16.4296 59.5708C16.3926 59.5428 16.4321 59.5123 16.4667 59.4793Z" fill="#CE6A02"/>
</g>
<defs>
<clipPath id="clip0_1_725">
<rect width="22" height="60" fill="white"/>
</clipPath>
</defs>
</svg>
