<svg width="33" height="28" viewBox="0 0 33 28" fill="none" xmlns="http://www.w3.org/2000/svg">
<path d="M31.9738 5.32459C31.5564 5.18004 31.1143 5.11767 30.6726 5.14098H13.7562C13.599 5.14098 13.4309 5.13562 13.2572 5.13008C12.7121 5.1127 12.1118 5.09355 11.6184 5.23279C11.2193 5.32252 10.8632 5.54452 10.6096 5.86186C10.3559 6.1792 10.2199 6.57275 10.2242 6.97705C10.2242 7.464 10.42 7.93101 10.7687 8.27534C11.1173 8.61967 11.5901 8.81311 12.0831 8.81311H28.9066L27.4194 16.5246C27.3254 16.942 27.0898 17.3151 26.7518 17.5823C26.4137 17.8494 25.9934 17.9944 25.5605 17.9934H11.6184C11.1893 17.9806 10.776 17.8304 10.4407 17.5655C10.1055 17.3006 9.86639 16.9353 9.75946 16.5246L6.78515 2.9377C6.60495 2.11599 6.14877 1.37859 5.4907 0.845281C4.83263 0.31197 4.01133 0.0140806 3.16021 0H1.85894C1.36592 0 0.893092 0.193442 0.544472 0.537771C0.195852 0.8821 0 1.34911 0 1.83607C0 2.32302 0.195852 2.79003 0.544472 3.13436C0.893092 3.47869 1.36592 3.67213 1.85894 3.67213H3.16021L6.13452 17.259C6.6922 19.8295 8.92293 21.5738 11.6184 21.5738H25.5605C27.7912 21.5738 30.1149 20.1049 30.7655 17.9934C31.1677 16.7225 31.4306 15.314 31.6748 14.006C31.7128 13.8024 31.7504 13.6012 31.7879 13.4033C31.9437 12.5317 32.1284 11.6602 32.3097 10.8046C32.4531 10.1282 32.5943 9.46169 32.7174 8.81311C32.8238 8.51753 32.8864 8.20833 32.9033 7.89508C32.9802 7.59531 33.0115 7.28592 32.9963 6.97705C32.9963 6.24262 32.6245 5.5082 31.9738 5.32459ZM7.43578 25.2459C7.43578 25.9763 7.72955 26.6768 8.25248 27.1933C8.77541 27.7098 9.48466 28 10.2242 28C10.9637 28 11.673 27.7098 12.1959 27.1933C12.7188 26.6768 13.0126 25.9763 13.0126 25.2459C13.0126 24.5155 12.7188 23.815 12.1959 23.2985C11.673 22.782 10.9637 22.4918 10.2242 22.4918C9.48466 22.4918 8.77541 22.782 8.25248 23.2985C7.72955 23.815 7.43578 24.5155 7.43578 25.2459ZM24.1663 25.2459C24.1663 25.7906 24.3298 26.3231 24.6362 26.776C24.9426 27.2289 25.3781 27.5819 25.8876 27.7904C26.3971 27.9988 26.9578 28.0533 27.4987 27.9471C28.0396 27.8408 28.5364 27.5785 28.9264 27.1933C29.3164 26.8082 29.5819 26.3174 29.6895 25.7832C29.7971 25.249 29.7419 24.6952 29.5309 24.192C29.3198 23.6887 28.9624 23.2586 28.5039 22.956C28.0453 22.6533 27.5062 22.4918 26.9547 22.4918C26.2152 22.4918 25.5059 22.782 24.983 23.2985C24.4601 23.815 24.1663 24.5155 24.1663 25.2459Z" fill="white"/>
<path d="M31.9738 5.32459C31.5564 5.18004 31.1143 5.11767 30.6726 5.14098H13.7562C13.599 5.14098 13.4309 5.13562 13.2572 5.13008C12.7121 5.1127 12.1118 5.09355 11.6184 5.23279C11.2193 5.32252 10.8632 5.54452 10.6096 5.86186C10.3559 6.1792 10.2199 6.57275 10.2242 6.97705C10.2242 7.464 10.42 7.93101 10.7687 8.27534C11.1173 8.61967 11.5901 8.81311 12.0831 8.81311H28.9066L27.4194 16.5246C27.3254 16.942 27.0898 17.3151 26.7518 17.5823C26.4137 17.8494 25.9934 17.9944 25.5605 17.9934H11.6184C11.1893 17.9806 10.776 17.8304 10.4407 17.5655C10.1055 17.3006 9.86639 16.9353 9.75946 16.5246L6.78515 2.9377C6.60495 2.11599 6.14877 1.37859 5.4907 0.845281C4.83263 0.31197 4.01133 0.0140806 3.16021 0H1.85894C1.36592 0 0.893092 0.193442 0.544472 0.537771C0.195852 0.8821 0 1.34911 0 1.83607C0 2.32302 0.195852 2.79003 0.544472 3.13436C0.893092 3.47869 1.36592 3.67213 1.85894 3.67213H3.16021L6.13452 17.259C6.6922 19.8295 8.92293 21.5738 11.6184 21.5738H25.5605C27.7912 21.5738 30.1149 20.1049 30.7655 17.9934C31.1677 16.7225 31.4306 15.314 31.6748 14.006C31.7128 13.8024 31.7504 13.6012 31.7879 13.4033C31.9437 12.5317 32.1284 11.6602 32.3097 10.8046C32.4531 10.1282 32.5943 9.46169 32.7174 8.81311C32.8238 8.51753 32.8864 8.20833 32.9033 7.89508C32.9802 7.59531 33.0115 7.28592 32.9963 6.97705C32.9963 6.24262 32.6245 5.5082 31.9738 5.32459ZM7.43578 25.2459C7.43578 25.9763 7.72955 26.6768 8.25248 27.1933C8.77541 27.7098 9.48466 28 10.2242 28C10.9637 28 11.673 27.7098 12.1959 27.1933C12.7188 26.6768 13.0126 25.9763 13.0126 25.2459C13.0126 24.5155 12.7188 23.815 12.1959 23.2985C11.673 22.782 10.9637 22.4918 10.2242 22.4918C9.48466 22.4918 8.77541 22.782 8.25248 23.2985C7.72955 23.815 7.43578 24.5155 7.43578 25.2459ZM24.1663 25.2459C24.1663 25.7906 24.3298 26.3231 24.6362 26.776C24.9426 27.2289 25.3781 27.5819 25.8876 27.7904C26.3971 27.9988 26.9578 28.0533 27.4987 27.9471C28.0396 27.8408 28.5364 27.5785 28.9264 27.1933C29.3164 26.8082 29.5819 26.3174 29.6895 25.7832C29.7971 25.249 29.7419 24.6952 29.5309 24.192C29.3198 23.6887 28.9624 23.2586 28.5039 22.956C28.0453 22.6533 27.5062 22.4918 26.9547 22.4918C26.2152 22.4918 25.5059 22.782 24.983 23.2985C24.4601 23.815 24.1663 24.5155 24.1663 25.2459Z" stroke="white"/>
</svg>
