<svg width="53" height="45" viewBox="0 0 53 45" fill="none" xmlns="http://www.w3.org/2000/svg">
<path d="M10.8458 44.2509C12.9909 44.2509 15.0878 43.6148 16.8713 42.423C18.6549 41.2313 20.0451 39.5374 20.8659 37.5556C21.6868 35.5738 21.9016 33.3931 21.4831 31.2892C21.0646 29.1853 20.0317 27.2528 18.5149 25.736C16.9981 24.2192 15.0655 23.1862 12.9617 22.7677C10.8578 22.3492 8.67708 22.564 6.69527 23.3849C4.71347 24.2058 3.01959 25.5959 1.82784 27.3795C0.636093 29.1631 0 31.26 0 33.4051C0.0032438 36.2806 1.14696 39.0374 3.18023 41.0706C5.21351 43.1039 7.97029 44.2476 10.8458 44.2509ZM10.8458 26.03C12.3044 26.03 13.7303 26.4625 14.9432 27.2729C16.156 28.0833 17.1013 29.2351 17.6595 30.5828C18.2177 31.9304 18.3637 33.4133 18.0792 34.8439C17.7946 36.2745 17.0922 37.5887 16.0608 38.6201C15.0293 39.6515 13.7152 40.3539 12.2846 40.6385C10.8539 40.9231 9.37106 40.777 8.02343 40.2188C6.6758 39.6606 5.52397 38.7153 4.71358 37.5025C3.90319 36.2897 3.47064 34.8638 3.47064 33.4051C3.47286 31.4498 4.25058 29.5752 5.63321 28.1925C7.01583 26.8099 8.89044 26.0322 10.8458 26.03Z" fill="url(#paint0_linear_1_1154)"/>
<path d="M30.3682 33.4051C30.3682 35.5502 31.0043 37.6471 32.196 39.4307C33.3878 41.2143 35.0816 42.6044 37.0634 43.4253C39.0452 44.2462 41.226 44.4609 43.3298 44.0425C45.4337 43.624 47.3662 42.591 48.883 41.0742C50.3999 39.5574 51.4328 37.6249 51.8513 35.521C52.2698 33.4171 52.055 31.2364 51.2341 29.2546C50.4132 27.2728 49.0231 25.5789 47.2395 24.3872C45.4559 23.1954 43.359 22.5593 41.2139 22.5593C38.3384 22.5626 35.5817 23.7063 33.5484 25.7396C31.5151 27.7728 30.3714 30.5296 30.3682 33.4051ZM41.2139 26.03C42.6726 26.03 44.0985 26.4625 45.3113 27.2729C46.5242 28.0833 47.4694 29.2351 48.0277 30.5828C48.5859 31.9304 48.7319 33.4133 48.4473 34.8439C48.1628 36.2745 47.4604 37.5887 46.4289 38.6201C45.3975 39.6515 44.0834 40.3539 42.6527 40.6385C41.2221 40.9231 39.7392 40.777 38.3916 40.2188C37.044 39.6606 35.8921 38.7153 35.0817 37.5025C34.2714 36.2897 33.8388 34.8638 33.8388 33.4051C33.841 31.4498 34.6187 29.5752 36.0014 28.1925C37.384 26.8099 39.2586 26.0322 41.2139 26.03Z" fill="url(#paint1_linear_1_1154)"/>
<path d="M32.7447 7.39421C34.7866 7.39421 36.4418 5.73896 36.4418 3.6971C36.4418 1.65525 34.7866 0 32.7447 0C30.7029 0 29.0476 1.65525 29.0476 3.6971C29.0476 5.73896 30.7029 7.39421 32.7447 7.39421Z" fill="url(#paint2_linear_1_1154)"/>
<path d="M18.975 22.3748L24.2944 27.6231V37.3095H27.765V27.2603C27.7641 26.9157 27.6952 26.5746 27.5622 26.2567C27.4293 25.9387 27.2349 25.6501 26.9902 25.4074L21.4291 19.9208L28.6365 12.7134L34.9449 19.1722C35.1879 19.4197 35.4776 19.6165 35.7973 19.7511C36.117 19.8857 36.4602 19.9554 36.807 19.9562H39.9123V16.4856H37.1724L27.1415 6.21594L27.09 6.26627L26.1789 5.35522L14.0317 17.5025L18.9398 22.4106L18.975 22.3748Z" fill="url(#paint3_linear_1_1154)"/>
<defs>
<linearGradient id="paint0_linear_1_1154" x1="10.8458" y1="22.5593" x2="10.8458" y2="44.2509" gradientUnits="userSpaceOnUse">
<stop stop-color="#F2AB02"/>
<stop offset="1" stop-color="#CD6802"/>
</linearGradient>
<linearGradient id="paint1_linear_1_1154" x1="41.2139" y1="22.5593" x2="41.2139" y2="44.2509" gradientUnits="userSpaceOnUse">
<stop stop-color="#F2AB02"/>
<stop offset="1" stop-color="#CD6802"/>
</linearGradient>
<linearGradient id="paint2_linear_1_1154" x1="32.7447" y1="0" x2="32.7447" y2="7.39421" gradientUnits="userSpaceOnUse">
<stop stop-color="#F2AB02"/>
<stop offset="1" stop-color="#CD6802"/>
</linearGradient>
<linearGradient id="paint3_linear_1_1154" x1="26.972" y1="5.35522" x2="26.972" y2="37.3095" gradientUnits="userSpaceOnUse">
<stop stop-color="#F2AB02"/>
<stop offset="1" stop-color="#CD6802"/>
</linearGradient>
</defs>
</svg>
