<svg width="581" height="773" viewBox="0 0 581 773" fill="none" xmlns="http://www.w3.org/2000/svg">
<path d="M-20.7384 37.1493C162.683 146.763 290.089 342.517 302.61 571.69C306.271 639.037 299.828 704.557 284.524 766.786L204.712 767.151C218.771 711.284 226.606 636.624 223.237 576.077C212.767 383.467 110.183 217.767 -39.4101 119.122L-20.7384 37.1493Z" fill="#EEF4F4"/>
<path d="M197.317 773L199.147 765.688C213.499 708.797 220.675 634.429 217.526 576.295C207.495 393.922 110.256 224.785 -42.6318 123.947L-46 121.753L-24.6192 28.0074L-17.7363 32.1024C174.325 146.908 296.24 348.512 308.468 571.323C312.129 637.866 305.978 704.044 290.236 768.101L289.137 772.488L197.317 773Z" fill="#EEF4F4"/>
<path d="M290.967 158.388C334.763 158.388 370.267 122.931 370.267 79.1939C370.267 35.4563 334.763 0 290.967 0C247.172 0 211.668 35.4563 211.668 79.1939C211.668 122.931 247.172 158.388 290.967 158.388Z" fill="#EEF4F4"/>
<path d="M297.777 261.933C289.503 267.052 281.668 272.536 274.053 278.313C259.116 287.015 241.25 301.932 220.821 324.893C207.275 340.103 193.216 356.19 177.107 371.766C27.4414 516.187 129.22 688.249 271.71 660.315C284.89 657.756 297.118 653.368 308.468 647.592C310.591 600.28 308.321 561.89 306.344 539.952C301.365 547.777 295.361 555.235 288.039 561.743C230.12 613.662 126.145 535.784 217.965 440.284C239.053 418.419 255.601 383.612 308.175 342.077C316.668 334.984 325.748 328.403 335.413 322.407C401.752 281.091 480.247 275.461 548.416 300.323L581 236.485C491.157 200.874 386.083 206.87 297.777 261.933Z" fill="#EEF4F4"/>
<path d="M331.679 403.063C328.238 416.591 329.629 438.236 329.629 438.236C329.629 438.236 332.924 481.672 315.79 521.744C321.867 576.149 321.428 616.075 319.817 641.01C387.181 598.525 416.836 503.171 410.1 435.531L331.679 403.063Z" fill="#EEF4F4"/>
</svg>
