<svg width="60" height="52" viewBox="0 0 60 52" fill="none" xmlns="http://www.w3.org/2000/svg">
<path d="M40.2024 34.0224C37.4459 31.4917 33.9715 30.1006 30.3805 30.0899C26.7896 30.0792 23.3083 31.4496 20.5394 33.9639V34.0224" stroke="white" stroke-width="3" stroke-linecap="round" stroke-linejoin="round"/>
<path d="M27.5244 42.5421C28.2839 42.0347 29.1767 41.7639 30.0901 41.7639C31.3148 41.7639 32.4894 42.2505 33.3554 43.1165C34.2214 43.9826 34.708 45.1572 34.708 46.3819C34.708 47.2953 34.4371 48.1881 33.9297 48.9475C33.4222 49.707 32.701 50.2989 31.8572 50.6484C31.0133 50.9979 30.0848 51.0894 29.189 50.9112C28.2932 50.733 27.4703 50.2931 26.8245 49.6473C26.1787 49.0014 25.7389 48.1786 25.5607 47.2828C25.3825 46.387 25.474 45.4584 25.8235 44.6146C26.1731 43.7708 26.765 43.0496 27.5244 42.5421Z" stroke="white" stroke-width="2" stroke-linecap="round" stroke-linejoin="round"/>
<path d="M49.1911 23.3483C43.8141 18.9902 37.0607 16.6067 30.09 16.6067C23.1193 16.6067 16.3659 18.9902 10.9888 23.3483" stroke="white" stroke-width="3" stroke-linecap="round" stroke-linejoin="round"/>
<path d="M58.1799 12.1124C50.2814 5.57654 40.3466 2 30.09 2C19.8334 2 9.89855 5.57654 2 12.1124" stroke="white" stroke-width="3" stroke-linecap="round" stroke-linejoin="round"/>
</svg>
