<svg width="70" height="48" viewBox="0 0 70 48" fill="none" xmlns="http://www.w3.org/2000/svg">
<path d="M54.378 40.3736C55.8905 38.8537 55.8905 36.3895 54.378 34.8696C52.8655 33.3497 50.4132 33.3497 48.9007 34.8696C47.3882 36.3895 47.3882 38.8537 48.9007 40.3736C50.4132 41.8935 52.8655 41.8935 54.378 40.3736Z" fill="white"/>
<path d="M68.4228 0H1.2911C0.577464 0 0 0.580277 0 1.29739V19.4595C0 23.0359 2.89476 25.946 6.45505 25.946H41.312V44.1081C41.312 46.2543 43.0493 48 45.1851 48H58.095C60.2308 48 61.968 46.2543 61.968 44.1081V25.946H63.2591C66.8194 25.946 69.7142 23.0359 69.7142 19.4595V1.29739C69.714 0.580277 69.1365 0 68.4228 0ZM59.3861 44.1078C59.3861 44.8235 58.806 45.4052 58.095 45.4052H45.1849C44.4738 45.4052 43.8938 44.8238 43.8938 44.1078V24.6486V12.973C43.8938 12.2573 44.4738 11.6756 45.1849 11.6756H58.095C58.806 11.6756 59.3861 12.257 59.3861 12.973V24.6486V44.1078ZM67.132 19.4592C67.132 21.6055 65.3947 23.3512 63.2589 23.3512H61.9678V19.4592H63.2589C63.9725 19.4592 64.55 18.879 64.55 18.1619C64.55 17.4447 63.9725 16.8645 63.2589 16.8645H61.9678V12.973C61.9678 10.8268 60.2305 9.08104 58.0947 9.08104H45.1846C43.0488 9.08104 41.3116 10.8268 41.3116 12.973V16.8649H6.45458C5.74094 16.8649 5.16348 17.4452 5.16348 18.1623C5.16348 18.8794 5.74094 19.4597 6.45458 19.4597H41.3116V23.3512H6.45458C4.31878 23.3512 2.58151 21.6055 2.58151 19.4592V2.59455H67.1315V19.4592H67.132ZM7.74592 14.2701C9.17064 14.2701 10.3279 13.1059 10.3279 11.6756C10.3279 10.2453 9.17064 9.08104 7.74592 9.08104C6.3212 9.08104 5.16394 10.2453 5.16394 11.6756C5.16394 13.1059 6.32143 14.2701 7.74592 14.2701ZM7.74592 11.673L9.03702 11.6756H7.74592C7.74592 11.6756 7.74592 11.6744 7.74592 11.673ZM55.513 14.2701H47.7671C47.0534 14.2701 46.476 14.8504 46.476 15.5675V20.7566C46.476 21.4738 47.0534 22.054 47.7671 22.054H55.513C56.2266 22.054 56.8041 21.4738 56.8041 20.7566V15.5675C56.8039 14.8504 56.2266 14.2701 55.513 14.2701ZM54.2219 19.4592H49.0579V16.8647H54.2219V19.4592ZM12.9101 28.5403V36.3239C12.9101 37.0411 12.3326 37.6213 11.619 37.6213C10.9054 37.6213 10.3279 37.0411 10.3279 36.3239V28.5403C10.3279 27.8232 10.9054 27.2429 11.619 27.2429C12.3326 27.2429 12.9101 27.8232 12.9101 28.5403ZM18.074 28.5403V41.5133C18.074 42.2304 17.4966 42.8107 16.7829 42.8107C16.0693 42.8107 15.4918 42.2304 15.4918 41.5133V28.5403C15.4918 27.8232 16.0693 27.2429 16.7829 27.2429C17.4966 27.2429 18.074 27.8232 18.074 28.5403ZM23.238 28.5403V33.7294C23.238 34.4465 22.6605 35.0268 21.9469 35.0268C21.2332 35.0268 20.6558 34.4465 20.6558 33.7294V28.5403C20.6558 27.8232 21.2332 27.2429 21.9469 27.2429C22.6605 27.2431 23.238 27.8232 23.238 28.5403ZM51.6399 35.0268C50.2152 35.0268 49.0579 36.1911 49.0579 37.6213C49.0579 39.0516 50.2152 40.2159 51.6399 40.2159C53.0646 40.2159 54.2219 39.0516 54.2219 37.6213C54.2219 36.1911 53.0646 35.0268 51.6399 35.0268ZM51.6399 37.6213C51.6399 37.6213 51.6399 37.6202 51.6399 37.6188L52.931 37.6213H51.6399Z" fill="white"/>
</svg>
