<svg width="47" height="61" viewBox="0 0 47 61" fill="none" xmlns="http://www.w3.org/2000/svg">
<path d="M30.1008 45.9902C31.6708 46.3469 33.2855 46.4639 34.8918 46.4699C36.6755 46.4641 38.477 46.3363 40.2049 45.8652C40.9367 45.6579 42.1162 45.2553 42.5542 44.6131C42.5764 44.5793 42.5966 44.5429 42.6128 44.505L41.3895 56.2905C41.3251 56.9116 40.9483 57.4558 40.3906 57.7286C40.1604 57.8411 39.8741 57.9532 39.518 58.0566C38.4554 58.2051 37.516 58.1023 36.6738 57.9863C37.9708 57.9135 39.0496 57.7601 39.7016 57.5612C38.9696 57.6346 38.1394 57.6881 37.2567 57.7131C34.2749 57.7978 31.8347 57.5282 31.8062 57.1112C31.7805 56.7338 33.7387 56.3649 36.3208 56.2354C35.8881 56.2166 35.4347 56.2065 34.9671 56.2065C31.9804 56.2065 29.5592 56.6153 29.5592 57.1198C29.5592 57.5189 31.0761 57.8583 33.1898 57.9825C32.3401 58.1001 31.3913 58.207 30.3163 58.0568C29.9604 57.9534 29.6739 57.8415 29.4437 57.7288C28.8861 57.456 28.5092 56.9116 28.4448 56.2907L27.2166 44.4571C27.2538 44.5804 27.327 44.6963 27.4177 44.7955C28.0162 45.4372 29.2603 45.7909 30.1008 45.9902ZM32.2967 52.4791C32.3778 51.4298 32.4437 51.3636 33.4853 51.282C32.4435 51.2003 32.3778 51.1339 32.2967 50.0848C32.2156 51.1341 32.1497 51.2003 31.108 51.282C32.1499 51.3636 32.2156 51.43 32.2967 52.4791ZM30.14 50.8941C30.2602 49.3396 30.3576 49.2413 31.901 49.1204C30.3576 48.9993 30.26 48.9013 30.14 47.3468C30.0197 48.9013 29.9224 48.9995 28.3789 49.1204C29.9224 49.2416 30.0197 49.3396 30.14 50.8941ZM27.2418 44.052C27.6559 43.0333 30.9343 42.24 34.9175 42.24C39.181 42.24 42.6374 43.149 42.6374 44.2703C42.6374 44.2935 42.6357 44.3168 42.6329 44.3399C42.6314 44.3468 42.6299 44.3535 42.6282 44.3604C42.6075 44.4414 42.5657 44.5185 42.5129 44.5836C42.1245 45.0631 41.2461 45.3525 40.6626 45.5196C39.4718 45.8463 38.2391 45.9885 37.01 46.0689C34.7234 46.1941 32.4096 46.1544 30.1509 45.7501C29.4869 45.6284 27.2731 45.1592 27.2153 44.2703C27.2106 44.1968 27.2204 44.1205 27.2472 44.0414C27.245 44.0449 27.2436 44.0483 27.2418 44.052ZM39.7072 44.9687C40.6733 44.7618 41.1909 44.5175 41.3709 44.2703C41.7338 43.7722 40.7255 43.2639 39.2499 43.032C36.4532 42.5495 33.5771 42.6102 30.7674 42.9231C33.9045 42.8466 36.6807 42.6257 39.7232 43.3554C40.7784 43.6085 41.0315 43.891 41.0189 44.0558C41.0146 44.1123 40.9598 44.1869 40.8445 44.2701C40.699 44.375 40.4572 44.4937 40.0983 44.6069C39.4279 44.8181 38.7135 45.0209 37.574 45.164C36.7765 45.2642 36.3747 45.301 35.3876 45.3661C36.5602 45.412 38.314 45.2564 39.7072 44.9687ZM38.8699 44.2703C38.866 44.2737 38.8622 44.2772 38.8579 44.2806C38.7372 44.3778 38.4374 44.4052 37.6091 44.5983C37.6521 44.609 38.9172 44.5446 39.3028 44.2703C39.361 44.2289 39.3995 44.1826 39.4102 44.1311C39.5009 43.699 36.2777 42.8787 29.3127 43.5891C34.4568 43.1587 39.4789 43.7225 38.8699 44.2703Z" fill="white"/>
<path d="M25.2553 33.1912L25.2553 33.1912C24.58 33.4701 24.035 33.8751 24.035 34.5095C24.035 34.5673 24.0399 34.6241 24.0494 34.6799L26.5315 57.6498C26.5504 58.0933 26.8415 58.4684 27.2215 58.7643C27.6147 59.0705 28.1644 59.3421 28.8294 59.5699C29.9191 59.9432 31.8458 60.3749 34.9256 60.3749C38.0824 60.3749 40.0175 59.9123 41.1021 59.511C41.7371 59.2761 42.2641 58.9977 42.6524 58.6744M25.2553 33.1912L42.4124 58.3862M25.2553 33.1912C25.8267 32.9553 26.6151 32.7525 27.5862 32.5829L25.2553 33.1912ZM42.6524 58.6744L42.4124 58.3862M42.6524 58.6744C42.6523 58.6744 42.6523 58.6744 42.6523 58.6745L42.4124 58.3862M42.6524 58.6744C43.0262 58.3632 43.3016 57.9773 43.3199 57.5431M42.4124 58.3862C42.754 58.1019 42.938 57.8016 42.9457 57.5162M43.3199 57.5431L43.3185 57.5567L42.9457 57.5162M43.3199 57.5431L45.802 34.6804M43.3199 57.5431C43.3202 57.5375 43.3204 57.5319 43.3205 57.5262L42.9457 57.5162M42.9457 57.5162L45.802 34.6804M45.802 34.6804C45.8011 34.6856 45.8002 34.6907 45.7992 34.6959L45.4306 34.6273L45.8034 34.6678L45.802 34.6804ZM45.802 34.6804C45.8114 34.6255 45.8167 34.5684 45.8167 34.5093C45.8167 33.875 45.2716 33.4701 44.5964 33.1912L44.5963 33.1912C44.025 32.9553 43.2366 32.7525 42.2655 32.5829L42.2009 32.9523L42.2654 32.5829L45.802 34.6804ZM25.6122 34.5093C25.658 34.4872 25.7109 34.4634 25.7718 34.4382C26.2219 34.2523 26.9259 34.068 27.8192 33.912L27.7547 33.5426L27.8192 33.912C29.7043 33.5828 32.2283 33.3995 34.926 33.3995C37.6238 33.3995 40.1477 33.5828 42.0328 33.912C42.9262 34.0682 43.6302 34.2523 44.0802 34.4382L25.6122 34.5093ZM25.6122 34.5093C25.6581 34.5315 25.7109 34.5553 25.7718 34.5804C26.2219 34.7663 26.9259 34.9504 27.8193 35.1066C29.7043 35.436 32.228 35.6192 34.926 35.6192C37.6241 35.6192 40.1478 35.4358 42.0329 35.1066L42.0329 35.1066C42.9261 34.9507 43.6301 34.7663 44.0802 34.5805C44.1411 34.5553 44.194 34.5315 44.2399 34.5093C44.194 34.4872 44.1411 34.4634 44.0803 34.4382L25.6122 34.5093Z" fill="white" stroke="white" stroke-width="0.75"/>
<path d="M14.8411 9.66001e-05L5.58015 0C4.8312 0.000375172 4.22208 0.609489 4.22171 1.35844L4.22175 5.27827C4.22175 5.94179 4.70063 6.49498 5.33044 6.61298L5.33045 7.57608C2.96141 9.43407 1.50376 11.8617 0.692762 13.6021C0.24187 14.5656 0.00321463 15.6486 0.00169373 16.7343C0.00169376 16.7366 0.00092595 16.7389 0.000925974 16.7412L0.00106906 30.1419C0.00106909 30.1442 0.00145103 30.1461 0.00145105 30.1484L0.00150022 34.8934C0.0015062 35.4604 0.223326 35.9764 0.583056 36.3622C0.222568 36.7479 -5.98814e-06 37.2647 1.2072e-10 37.8333L4.03421e-05 41.6405C4.61531e-05 42.1913 0.207306 42.7097 0.580828 43.1108C0.206931 43.5123 -0.000318303 44.0306 7.05985e-05 44.5819L0.000112832 48.3875C0.00011882 48.956 0.222316 49.4717 0.581664 49.8578C0.207384 50.2589 0.000134756 50.7773 0.000140567 51.3289L0.000184691 55.4058C0.000211401 57.9358 2.0586 59.9942 4.58856 59.9942L15.8332 59.9943C17.0981 59.9943 18.2451 59.4795 19.0757 58.6489C19.9066 57.818 20.4211 56.6714 20.4211 55.4064L20.421 51.3295C20.421 50.7779 20.2138 50.2595 19.8395 49.8584C20.1988 49.4723 20.421 48.9559 20.421 48.3881L20.421 44.5825C20.4209 44.0316 20.2141 43.5129 19.8398 43.1117C20.2137 42.711 20.4209 42.1927 20.4205 41.6414L20.4205 37.8342C20.4205 37.2826 20.2132 36.7643 19.8389 36.3631C20.1987 35.9774 20.4209 35.4617 20.4209 34.8947L20.4207 16.7422C20.4206 15.6572 20.1816 14.5723 19.7299 13.6035C18.9181 11.8623 17.4604 9.43461 15.0913 7.57657L15.0913 6.61347C15.3652 6.56175 15.6108 6.42882 15.8004 6.23919C16.0464 5.99325 16.1988 5.65383 16.1988 5.27916L16.1988 1.35933C16.1999 0.609616 15.5904 0.000104519 14.8411 9.66001e-05ZM13.7122 7.22334L6.70997 7.22327L6.70958 6.63675L13.7118 6.63682L13.7122 7.22334ZM19.0417 29.4525L1.38097 29.4523L1.38084 17.4308L19.0415 17.431L19.0417 29.4525ZM19.0421 34.8944C19.0421 35.3219 18.695 35.6705 18.2671 35.6747C18.2648 35.6747 18.2625 35.6747 18.2606 35.6743L10.8692 35.6742C10.4884 35.6742 10.1796 35.983 10.1792 36.3642C10.1792 36.745 10.488 37.0538 10.8692 37.0542L18.2529 37.0542C18.256 37.0542 18.2591 37.0542 18.2617 37.0546C18.692 37.0542 19.0421 37.4044 19.0417 37.8346L19.0418 41.6418C19.0414 42.072 18.6916 42.4218 18.2618 42.4218L10.8688 42.4217C10.488 42.4217 10.1793 42.7305 10.1789 43.1116C10.1789 43.4924 10.4877 43.8012 10.8689 43.8016L18.2618 43.8017C18.692 43.8013 19.0422 44.1522 19.0418 44.5832L19.0419 48.3889C19.0419 48.8195 18.6917 49.1704 18.2619 49.1704L10.8689 49.1703C10.4881 49.1703 10.1793 49.4791 10.179 49.8602C10.179 50.241 10.4877 50.5498 10.8689 50.5502L18.2619 50.5503C18.4703 50.5503 18.6664 50.6315 18.8136 50.7786C18.961 50.9261 19.0419 51.1219 19.0419 51.3303L19.0419 55.4072C19.0416 57.1767 17.6023 58.616 15.8332 58.6159L4.58855 58.6143C2.81942 58.6143 1.38011 57.175 1.3801 55.4058L1.38005 51.3289C1.38005 51.1205 1.46126 50.9244 1.60837 50.7773C1.75548 50.6302 1.95162 50.549 2.16002 50.549L4.19809 50.549C4.30459 50.549 4.40458 50.5226 4.49499 50.4797C4.72676 50.3682 4.88842 50.1337 4.88766 49.8594C4.88765 49.4786 4.57887 49.1699 4.19769 49.1695L2.16001 49.1698C1.72979 49.1694 1.37964 48.8193 1.38002 48.3883L1.37998 44.5826C1.37998 44.3742 1.46119 44.1773 1.60868 44.0298L1.60906 44.0295C1.75655 43.882 1.95231 43.8011 2.15995 43.8011L4.19802 43.8012C4.3888 43.8012 4.56081 43.7242 4.6857 43.5993C4.81058 43.4744 4.88797 43.302 4.88758 43.1116C4.88758 42.7308 4.5788 42.422 4.19762 42.4216L2.15955 42.4216C1.95115 42.4216 1.75539 42.3408 1.6079 42.1933C1.4604 42.0458 1.37957 41.85 1.37956 41.6416L1.37953 37.8344C1.37952 37.4046 1.7289 37.0544 2.1595 37.0544C2.16218 37.0541 2.16486 37.0544 2.16793 37.0544L4.19756 37.0545C4.57836 37.0545 4.8879 36.7457 4.88751 36.3645C4.88751 35.9837 4.57873 35.6749 4.19755 35.6746L2.16102 35.6745C2.15872 35.6745 2.15719 35.6745 2.15489 35.6745C1.72735 35.6707 1.38103 35.3221 1.38103 34.8946L1.38098 30.8322L19.0417 30.8324L19.0421 34.8944ZM18.4806 14.1861C18.7523 14.7681 18.9281 15.4029 19.0021 16.0514L1.42067 16.0516C1.49422 15.4011 1.67043 14.7667 1.94243 14.186C2.69787 12.5647 4.05362 10.2995 6.25181 8.60317L14.1704 8.60326C16.369 10.3 17.7244 12.5649 18.4806 14.1861ZM14.8201 5.25731L14.4063 5.25731C14.4048 5.25731 14.4037 5.25692 14.4021 5.25692L6.02 5.25683C6.01846 5.25683 6.01731 5.25722 6.01578 5.25722L5.60127 5.25721L5.60123 1.37953L14.82 1.37962L14.8201 5.25731Z" fill="white"/>
</svg>
