<svg width="48" height="62" viewBox="0 0 48 62" fill="none" xmlns="http://www.w3.org/2000/svg">
<path fill-rule="evenodd" clip-rule="evenodd" d="M38.1714 55.9145H10.2591C5.15399 55.9145 1 51.7546 1 46.6423V10.2723C1 5.15991 5.15399 1 10.2591 1H38.1714C43.2764 1 47.4304 5.15991 47.4304 10.2723V46.6423C47.4304 51.7546 43.2764 55.9145 38.1714 55.9145ZM10.2591 2.24957C5.84279 2.24957 2.24779 5.84969 2.24779 10.2723V46.6423C2.24779 51.0648 5.84015 54.665 10.2591 54.665H38.1714C42.5876 54.665 46.1826 51.0648 46.1826 46.6423V10.2723C46.1826 5.84969 42.5903 2.24957 38.1714 2.24957H10.2591Z" fill="white" stroke="white" stroke-width="0.5"/>
<path fill-rule="evenodd" clip-rule="evenodd" d="M36.5685 49.0433H11.8618C9.44572 49.0433 7.47999 47.0747 7.47999 44.6552V39.4978C7.47999 39.1529 7.75816 38.8717 8.10521 38.8717C8.45226 38.8717 8.73043 39.1502 8.73043 39.4978V44.6552C8.73043 46.385 10.1372 47.7937 11.8645 47.7937H36.5712C38.2985 47.7937 39.7052 46.385 39.7052 44.6552V12.2567C39.7052 10.527 38.2985 9.11822 36.5712 9.11822H11.8645C10.1372 9.11822 8.73043 10.527 8.73043 12.2567V17.4142C8.73043 17.7591 8.45226 18.0403 8.10521 18.0403C7.76081 18.0403 7.47999 17.7617 7.47999 17.4142V12.2567C7.47999 9.83718 9.44572 7.86865 11.8618 7.86865H36.5685C38.9846 7.86865 40.9504 9.83718 40.9504 12.2567V44.6552C40.9504 47.0747 38.9846 49.0459 36.5685 49.0433ZM8.10256 36.5742C7.75816 36.5742 7.47734 36.2956 7.47734 35.948V20.9612C7.47734 20.6163 7.75551 20.3351 8.10256 20.3351C8.44961 20.3351 8.72778 20.6137 8.72778 20.9612V35.948C8.72778 36.2956 8.44696 36.5742 8.10256 36.5742Z" fill="white" stroke="white" stroke-width="0.5"/>
<path fill-rule="evenodd" clip-rule="evenodd" d="M16.4396 60.9998H11.5597C11.2736 60.9998 11.0246 60.8061 10.9557 60.5302L9.65495 55.4444C9.57017 55.1101 9.77151 54.7705 10.1053 54.683C10.4391 54.5981 10.7782 54.7997 10.8656 55.134L12.0446 59.7502H15.9548L17.1337 55.134C17.2185 54.7997 17.5603 54.5981 17.8941 54.683C18.2279 54.7679 18.4292 55.1101 18.3444 55.4444L17.0436 60.5302C16.9721 60.8061 16.7231 60.9998 16.4396 60.9998Z" fill="white" stroke="white" stroke-width="0.5"/>
<path fill-rule="evenodd" clip-rule="evenodd" d="M36.8706 60.9998H31.9908C31.7046 60.9998 31.4556 60.8061 31.3867 60.5302L30.086 55.4444C30.0012 55.1101 30.2025 54.7705 30.5363 54.683C30.8701 54.5981 31.2092 54.7997 31.2967 55.134L32.4782 59.7502H36.3885L37.57 55.134C37.6548 54.7997 37.9966 54.5981 38.3304 54.683C38.6642 54.7679 38.8655 55.1101 38.7807 55.4444L37.48 60.5302C37.4031 60.8061 37.1568 60.9998 36.8706 60.9998Z" fill="white" stroke="white" stroke-width="0.5"/>
<path fill-rule="evenodd" clip-rule="evenodd" d="M30.1627 41.822H18.265C16.3523 41.822 14.7945 40.262 14.7945 38.3465V29.39C14.7945 27.4745 16.3523 25.9146 18.265 25.9146H30.1627C32.0755 25.9146 33.6332 27.4745 33.6332 29.39V38.3465C33.6332 40.262 32.0781 41.822 30.1627 41.822ZM18.265 27.1641C17.0411 27.1641 16.0423 28.1616 16.0423 29.39V38.3465C16.0423 39.5722 17.0384 40.5724 18.265 40.5724H30.1627C31.3867 40.5724 32.3854 39.5749 32.3854 38.3465V29.39C32.3854 28.1643 31.3893 27.1641 30.1627 27.1641H18.265Z" fill="white" stroke="white" stroke-width="0.5"/>
<path fill-rule="evenodd" clip-rule="evenodd" d="M30.8302 27.2457C30.4858 27.2457 30.205 26.9671 30.205 26.6196V22.3429C30.205 19.0346 27.516 16.3418 24.2124 16.3418C20.9088 16.3418 18.2199 19.0346 18.2199 22.3429V26.6196C18.2199 26.9645 17.9417 27.2457 17.5946 27.2457C17.2502 27.2457 16.9694 26.9671 16.9694 26.6196V22.3429C16.9694 18.3449 20.2174 15.0923 24.2098 15.0923C28.2022 15.0923 31.4501 18.3449 31.4501 22.3429V26.6196C31.4554 26.9645 31.1772 27.2457 30.8302 27.2457Z" fill="white" stroke="white" stroke-width="0.5"/>
<path fill-rule="evenodd" clip-rule="evenodd" d="M28.1439 27.164C27.7995 27.164 27.5187 26.8854 27.5187 26.5378V22.3408C27.5187 20.5155 26.0352 19.0325 24.2151 19.0325C22.3925 19.0325 20.9115 20.5182 20.9115 22.3408V26.5378C20.9115 26.8827 20.6334 27.164 20.2863 27.164C19.9419 27.164 19.6611 26.8854 19.6611 26.5378V22.3408C19.6611 19.8257 21.7037 17.7803 24.2151 17.7803C26.7266 17.7803 28.7692 19.8257 28.7692 22.3408V26.5378C28.7692 26.8854 28.4883 27.164 28.1439 27.164Z" fill="white" stroke="white" stroke-width="0.5"/>
<path fill-rule="evenodd" clip-rule="evenodd" d="M26.7982 38.198H26.7956H21.6375C21.4415 38.198 21.256 38.1051 21.1395 37.9486C21.0229 37.7921 20.9832 37.5878 21.0388 37.3994L22.0561 33.8868C21.7011 33.4173 21.5077 32.8495 21.5077 32.2499C21.5077 30.7537 22.7237 29.5386 24.2152 29.5386C25.7094 29.5386 26.9227 30.7563 26.9227 32.2499C26.9227 32.8495 26.7293 33.4173 26.3743 33.8868L27.3758 37.3384C27.4049 37.41 27.4208 37.4896 27.4208 37.5745C27.4208 37.9194 27.1426 38.198 26.7982 38.198ZM22.4667 36.9484H25.9637L25.0815 33.9081C25.0179 33.6879 25.0789 33.4518 25.2431 33.2899C25.5213 33.014 25.675 32.6452 25.675 32.2499C25.675 31.4434 25.0206 30.7881 24.2152 30.7881C23.4099 30.7881 22.7555 31.4434 22.7555 32.2499C22.7555 32.6426 22.9092 33.0114 23.1873 33.2899C23.3489 33.4518 23.4125 33.6879 23.3463 33.9081L22.4667 36.9484Z" fill="white" stroke="white" stroke-width="0.5"/>
<path fill-rule="evenodd" clip-rule="evenodd" d="M10.267 21.5901H5.93813C4.61616 21.5901 3.54322 20.513 3.54322 19.1918C3.54322 17.8679 4.61881 16.7935 5.93813 16.7935H10.267C11.5889 16.7935 12.6619 17.8706 12.6619 19.1918C12.6645 20.513 11.5889 21.5901 10.267 21.5901ZM5.93813 18.0404C5.30496 18.0404 4.79101 18.5551 4.79101 19.1891C4.79101 19.8232 5.30496 20.3379 5.93813 20.3379H10.267C10.9001 20.3379 11.4141 19.8232 11.4141 19.1891C11.4141 18.5551 10.9001 18.0404 10.267 18.0404H5.93813Z" fill="white" stroke="white" stroke-width="0.5"/>
<path fill-rule="evenodd" clip-rule="evenodd" d="M10.267 40.1238H5.93813C4.61616 40.1238 3.54322 39.0467 3.54322 37.7255C3.54322 36.4043 4.61881 35.3271 5.93813 35.3271H10.267C11.5889 35.3271 12.6619 36.4043 12.6619 37.7255C12.6645 39.0467 11.5889 40.1238 10.267 40.1238ZM5.93813 36.5741C5.30496 36.5741 4.79101 37.0887 4.79101 37.7228C4.79101 38.3569 5.30496 38.8716 5.93813 38.8716H10.267C10.9001 38.8716 11.4141 38.3569 11.4141 37.7228C11.4141 37.0887 10.9001 36.5741 10.267 36.5741H5.93813Z" fill="white" stroke="white" stroke-width="0.5"/>
<path fill-rule="evenodd" clip-rule="evenodd" d="M17.0119 12.2805H15.7031C15.3587 12.2805 15.0779 12.002 15.0779 11.6544C15.0779 11.3069 15.3561 11.0283 15.7031 11.0283H17.0119C17.3563 11.0283 17.6371 11.3069 17.6371 11.6544C17.6371 12.002 17.3563 12.2805 17.0119 12.2805Z" fill="white" stroke="white" stroke-width="0.5"/>
<path fill-rule="evenodd" clip-rule="evenodd" d="M22.2494 12.2805H20.9407C20.5963 12.2805 20.3155 12.002 20.3155 11.6544C20.3155 11.3069 20.5936 11.0283 20.9407 11.0283H22.2494C22.5938 11.0283 22.8746 11.3069 22.8746 11.6544C22.8746 12.002 22.5965 12.2805 22.2494 12.2805Z" fill="white" stroke="white" stroke-width="0.5"/>
<path fill-rule="evenodd" clip-rule="evenodd" d="M27.4895 12.2805H26.1808C25.8364 12.2805 25.5556 12.002 25.5556 11.6544C25.5556 11.3069 25.8337 11.0283 26.1808 11.0283H27.4895C27.8339 11.0283 28.1147 11.3069 28.1147 11.6544C28.1121 12.002 27.8339 12.2805 27.4895 12.2805Z" fill="white" stroke="white" stroke-width="0.5"/>
<path fill-rule="evenodd" clip-rule="evenodd" d="M32.7271 12.2805H31.4184C31.074 12.2805 30.7932 12.002 30.7932 11.6544C30.7932 11.3069 31.0713 11.0283 31.4184 11.0283H32.7271C33.0715 11.0283 33.3523 11.3069 33.3523 11.6544C33.3497 12.002 33.0715 12.2805 32.7271 12.2805Z" fill="white" stroke="white" stroke-width="0.5"/>
<path fill-rule="evenodd" clip-rule="evenodd" d="M17.0119 45.8811H15.7031C15.3587 45.8811 15.0779 45.6026 15.0779 45.255C15.0779 44.9101 15.3561 44.6289 15.7031 44.6289H17.0119C17.3563 44.6289 17.6371 44.9075 17.6371 45.255C17.6371 45.6026 17.3563 45.8811 17.0119 45.8811Z" fill="white" stroke="white" stroke-width="0.5"/>
<path fill-rule="evenodd" clip-rule="evenodd" d="M22.2494 45.8811H20.9407C20.5963 45.8811 20.3155 45.6026 20.3155 45.255C20.3155 44.9101 20.5936 44.6289 20.9407 44.6289H22.2494C22.5938 44.6289 22.8746 44.9075 22.8746 45.255C22.8746 45.6026 22.5965 45.8811 22.2494 45.8811Z" fill="white" stroke="white" stroke-width="0.5"/>
<path fill-rule="evenodd" clip-rule="evenodd" d="M27.4895 45.8811H26.1808C25.8364 45.8811 25.5556 45.6026 25.5556 45.255C25.5556 44.9101 25.8337 44.6289 26.1808 44.6289H27.4895C27.8339 44.6289 28.1147 44.9075 28.1147 45.255C28.1121 45.6026 27.8339 45.8811 27.4895 45.8811Z" fill="white" stroke="white" stroke-width="0.5"/>
<path fill-rule="evenodd" clip-rule="evenodd" d="M32.7271 45.8811H31.4184C31.074 45.8811 30.7932 45.6026 30.7932 45.255C30.7932 44.9101 31.0713 44.6289 31.4184 44.6289H32.7271C33.0715 44.6289 33.3523 44.9075 33.3523 45.255C33.3497 45.6026 33.0715 45.8811 32.7271 45.8811Z" fill="white" stroke="white" stroke-width="0.5"/>
</svg>
