<svg width="54" height="62" viewBox="0 0 54 62" fill="none" xmlns="http://www.w3.org/2000/svg">
<mask id="path-1-outside-1_85_68" maskUnits="userSpaceOnUse" x="0" y="0" width="54" height="62" fill="black">
<rect fill="white" width="54" height="62"/>
<path fill-rule="evenodd" clip-rule="evenodd" d="M8.97314 53.8485C8.9616 53.8485 8.9539 53.8485 8.94236 53.8485C8.60002 53.833 8.33461 53.5396 8.34999 53.1959C8.95775 40.1363 11.3426 28.0884 15.0584 19.2688C16.9086 14.8821 19.0165 11.4454 21.3245 9.04737C23.7825 6.49878 26.3943 5.2129 29.0907 5.2129C31.7949 5.2129 34.4144 6.50264 36.8723 9.04737C39.1841 11.4376 41.2921 14.8744 43.1423 19.2649C46.8504 28.0653 49.2391 40.117 49.8699 53.192C49.8853 53.5357 49.6199 53.8292 49.2776 53.8485C48.9352 53.8639 48.6429 53.5975 48.6236 53.2538C48.0005 40.3217 45.6464 28.4244 41.9921 19.7553C38.3802 11.1751 33.7951 6.4563 29.0869 6.4563C24.3902 6.4563 19.8128 11.1751 16.2009 19.7476C12.5389 28.436 10.1925 40.3294 9.58859 53.2461C9.5809 53.5898 9.30394 53.8485 8.97314 53.8485Z"/>
<path fill-rule="evenodd" clip-rule="evenodd" d="M48.6275 61H9.59628C8.47308 61 7.41143 60.5636 6.62288 59.7643C5.83433 58.9688 5.39197 57.9069 5.39197 56.7794C5.39197 54.4741 7.2768 52.6012 9.59628 52.6012H48.6275C50.9239 52.6012 52.7895 54.4779 52.7895 56.7794C52.7895 59.1079 50.92 61 48.6275 61ZM9.59628 53.8485C7.96533 53.8485 6.63827 55.1614 6.63827 56.7794C6.63827 58.4166 7.96533 59.7489 9.59628 59.7489H48.6275C50.2392 59.7489 51.547 58.4166 51.547 56.7794C51.547 55.1614 50.2392 53.8485 48.6275 53.8485H9.59628Z"/>
<path fill-rule="evenodd" clip-rule="evenodd" d="M46.7965 34.0429C46.7427 34.0429 46.6927 34.0351 46.6388 34.0236C46.308 33.9347 46.108 33.5949 46.1964 33.259L50.5046 16.9712H41.119C40.7766 16.9712 40.4958 16.6893 40.4958 16.3456C40.4958 16.0019 40.7766 15.72 41.119 15.72H51.3162C51.5124 15.72 51.6932 15.8089 51.8086 15.9633C51.924 16.1139 51.9663 16.3186 51.9163 16.5078L47.4004 33.5795C47.3273 33.8614 47.0735 34.0429 46.7965 34.0429Z"/>
<path fill-rule="evenodd" clip-rule="evenodd" d="M30.8025 6.66096C30.7525 6.66096 30.7024 6.65324 30.6524 6.64165C30.3178 6.5567 30.1139 6.21689 30.2024 5.8848L31.114 2.27043C31.091 2.25885 31.064 2.24726 31.0409 2.24726H27.1867C27.1444 2.24726 27.1059 2.26271 27.079 2.27816L27.9868 5.8848C28.0714 6.22075 27.8714 6.56056 27.5367 6.64165C27.2021 6.72661 26.8636 6.52581 26.7828 6.18986L25.8481 2.47895C25.8481 2.47509 25.8442 2.46737 25.8442 2.46351C25.775 2.143 25.8596 1.80319 26.0789 1.52903C26.3443 1.19694 26.7597 1 27.1905 1H31.0448C31.4795 1 31.9257 1.22783 32.1757 1.57923C32.3757 1.85725 32.4373 2.1932 32.3449 2.50212L31.4141 6.19758C31.3371 6.47175 31.0833 6.66096 30.8025 6.66096Z"/>
<path fill-rule="evenodd" clip-rule="evenodd" d="M39.7919 14.5886H18.3896C18.0472 14.5886 17.7664 14.3067 17.7664 13.9631C17.7664 13.6194 18.0472 13.3375 18.3896 13.3375H39.7919C40.1343 13.3375 40.4151 13.6194 40.4151 13.9631C40.4151 14.3067 40.1343 14.5886 39.7919 14.5886Z"/>
<path fill-rule="evenodd" clip-rule="evenodd" d="M3.34175 37.9507C3.18019 37.9507 3.01479 37.9352 2.85324 37.9005H2.84939C1.5954 37.6263 0.787624 36.3829 1.04919 35.1318L4.39571 19.234C4.73036 17.5929 5.68432 16.1911 7.07678 15.2837C8.41154 14.3878 10.1002 14.0712 11.7119 14.411L16.8355 15.4922C17.0394 15.5077 17.1933 15.5733 17.2894 15.6158C17.3087 15.6235 17.3317 15.6351 17.3433 15.6389C17.6702 15.7471 17.8472 16.1023 17.7356 16.4267C17.6279 16.7549 17.2779 16.9326 16.9509 16.8206C16.8932 16.8013 16.8432 16.7781 16.8009 16.7626C16.7817 16.7549 16.7548 16.7433 16.7394 16.7356C16.7048 16.7356 16.6701 16.7318 16.6355 16.724L11.458 15.6312C10.1733 15.3609 8.82697 15.6119 7.76916 16.3224C7.76531 16.3224 7.76531 16.3263 7.76147 16.3263C6.64981 17.0445 5.88818 18.1644 5.62277 19.4811L2.27625 35.3828C2.157 35.9659 2.53397 36.5412 3.1225 36.6725C3.71871 36.7922 4.28031 36.4254 4.40725 35.8269L7.75377 19.9291C7.8961 19.2147 8.32307 18.5891 8.9539 18.1682C9.56936 17.7589 10.3117 17.6122 11.0541 17.7628C11.058 17.7628 11.058 17.7628 11.0618 17.7628L15.8085 18.7783C16.1432 18.8479 16.3624 19.1799 16.2855 19.5198C16.2124 19.8596 15.8854 20.0758 15.5469 19.9986L10.8041 18.983C10.3887 18.9019 9.97709 18.9791 9.6386 19.2031C9.38857 19.373 9.0693 19.6742 8.96929 20.1723C8.96929 20.1762 8.96929 20.1762 8.96929 20.1801L5.62277 36.0779C5.49583 36.6957 5.14195 37.217 4.61881 37.5607C4.23031 37.8233 3.78795 37.9507 3.34175 37.9507Z"/>
<path fill-rule="evenodd" clip-rule="evenodd" d="M29.0907 46.6622C26.8174 46.6622 24.9672 44.801 24.9672 42.5227V24.671C24.9672 23.5627 25.398 22.5163 26.1866 21.7208C26.9674 20.9292 28.0022 20.489 29.0946 20.489C31.391 20.489 33.2566 22.3657 33.2566 24.6671V42.5189C33.2566 44.801 31.3871 46.6622 29.0907 46.6622ZM29.0907 21.7401C27.529 21.7401 26.2096 23.0801 26.2096 24.671V42.5227C26.2096 44.1175 27.5021 45.415 29.0907 45.415C30.7024 45.415 32.0103 44.1175 32.0103 42.5227V24.671C32.0103 23.053 30.7024 21.7401 29.0907 21.7401Z"/>
<path fill-rule="evenodd" clip-rule="evenodd" d="M28.9753 28.8878H25.5903C25.248 28.8878 24.9672 28.6059 24.9672 28.2622C24.9672 27.9185 25.248 27.6366 25.5903 27.6366H28.9753C29.3177 27.6366 29.5985 27.9185 29.5985 28.2622C29.5985 28.6059 29.3177 28.8878 28.9753 28.8878Z"/>
<path fill-rule="evenodd" clip-rule="evenodd" d="M28.9753 34.2012H25.5903C25.248 34.2012 24.9672 33.9193 24.9672 33.5756C24.9672 33.2319 25.248 32.9501 25.5903 32.9501H28.9753C29.3177 32.9501 29.5985 33.2319 29.5985 33.5756C29.5985 33.9193 29.3177 34.2012 28.9753 34.2012Z"/>
<path fill-rule="evenodd" clip-rule="evenodd" d="M28.9753 39.5532H25.5903C25.248 39.5532 24.9672 39.2713 24.9672 38.9277C24.9672 38.584 25.248 38.3021 25.5903 38.3021H28.9753C29.3177 38.3021 29.5985 38.584 29.5985 38.9277C29.5985 39.2713 29.3177 39.5532 28.9753 39.5532Z"/>
<path fill-rule="evenodd" clip-rule="evenodd" d="M20.609 50.9601H9.13085C8.7885 50.9601 8.5077 50.6782 8.5077 50.3345C8.5077 49.9909 8.7885 49.709 9.13085 49.709H20.609C20.9514 49.709 21.2322 49.9909 21.2322 50.3345C21.2322 50.6782 20.9514 50.9601 20.609 50.9601Z"/>
<path fill-rule="evenodd" clip-rule="evenodd" d="M25.0826 50.9601H23.2132C22.8708 50.9601 22.59 50.6782 22.59 50.3345C22.59 49.9909 22.8708 49.709 23.2132 49.709H25.0826C25.4249 49.709 25.7057 49.9909 25.7057 50.3345C25.7057 50.6782 25.4249 50.9601 25.0826 50.9601Z"/>
</mask>
<path fill-rule="evenodd" clip-rule="evenodd" d="M8.97314 53.8485C8.9616 53.8485 8.9539 53.8485 8.94236 53.8485C8.60002 53.833 8.33461 53.5396 8.34999 53.1959C8.95775 40.1363 11.3426 28.0884 15.0584 19.2688C16.9086 14.8821 19.0165 11.4454 21.3245 9.04737C23.7825 6.49878 26.3943 5.2129 29.0907 5.2129C31.7949 5.2129 34.4144 6.50264 36.8723 9.04737C39.1841 11.4376 41.2921 14.8744 43.1423 19.2649C46.8504 28.0653 49.2391 40.117 49.8699 53.192C49.8853 53.5357 49.6199 53.8292 49.2776 53.8485C48.9352 53.8639 48.6429 53.5975 48.6236 53.2538C48.0005 40.3217 45.6464 28.4244 41.9921 19.7553C38.3802 11.1751 33.7951 6.4563 29.0869 6.4563C24.3902 6.4563 19.8128 11.1751 16.2009 19.7476C12.5389 28.436 10.1925 40.3294 9.58859 53.2461C9.5809 53.5898 9.30394 53.8485 8.97314 53.8485Z" fill="white"/>
<path fill-rule="evenodd" clip-rule="evenodd" d="M48.6275 61H9.59628C8.47308 61 7.41143 60.5636 6.62288 59.7643C5.83433 58.9688 5.39197 57.9069 5.39197 56.7794C5.39197 54.4741 7.2768 52.6012 9.59628 52.6012H48.6275C50.9239 52.6012 52.7895 54.4779 52.7895 56.7794C52.7895 59.1079 50.92 61 48.6275 61ZM9.59628 53.8485C7.96533 53.8485 6.63827 55.1614 6.63827 56.7794C6.63827 58.4166 7.96533 59.7489 9.59628 59.7489H48.6275C50.2392 59.7489 51.547 58.4166 51.547 56.7794C51.547 55.1614 50.2392 53.8485 48.6275 53.8485H9.59628Z" fill="white"/>
<path fill-rule="evenodd" clip-rule="evenodd" d="M46.7965 34.0429C46.7427 34.0429 46.6927 34.0351 46.6388 34.0236C46.308 33.9347 46.108 33.5949 46.1964 33.259L50.5046 16.9712H41.119C40.7766 16.9712 40.4958 16.6893 40.4958 16.3456C40.4958 16.0019 40.7766 15.72 41.119 15.72H51.3162C51.5124 15.72 51.6932 15.8089 51.8086 15.9633C51.924 16.1139 51.9663 16.3186 51.9163 16.5078L47.4004 33.5795C47.3273 33.8614 47.0735 34.0429 46.7965 34.0429Z" fill="white"/>
<path fill-rule="evenodd" clip-rule="evenodd" d="M30.8025 6.66096C30.7525 6.66096 30.7024 6.65324 30.6524 6.64165C30.3178 6.5567 30.1139 6.21689 30.2024 5.8848L31.114 2.27043C31.091 2.25885 31.064 2.24726 31.0409 2.24726H27.1867C27.1444 2.24726 27.1059 2.26271 27.079 2.27816L27.9868 5.8848C28.0714 6.22075 27.8714 6.56056 27.5367 6.64165C27.2021 6.72661 26.8636 6.52581 26.7828 6.18986L25.8481 2.47895C25.8481 2.47509 25.8442 2.46737 25.8442 2.46351C25.775 2.143 25.8596 1.80319 26.0789 1.52903C26.3443 1.19694 26.7597 1 27.1905 1H31.0448C31.4795 1 31.9257 1.22783 32.1757 1.57923C32.3757 1.85725 32.4373 2.1932 32.3449 2.50212L31.4141 6.19758C31.3371 6.47175 31.0833 6.66096 30.8025 6.66096Z" fill="white"/>
<path fill-rule="evenodd" clip-rule="evenodd" d="M39.7919 14.5886H18.3896C18.0472 14.5886 17.7664 14.3067 17.7664 13.9631C17.7664 13.6194 18.0472 13.3375 18.3896 13.3375H39.7919C40.1343 13.3375 40.4151 13.6194 40.4151 13.9631C40.4151 14.3067 40.1343 14.5886 39.7919 14.5886Z" fill="white"/>
<path fill-rule="evenodd" clip-rule="evenodd" d="M3.34175 37.9507C3.18019 37.9507 3.01479 37.9352 2.85324 37.9005H2.84939C1.5954 37.6263 0.787624 36.3829 1.04919 35.1318L4.39571 19.234C4.73036 17.5929 5.68432 16.1911 7.07678 15.2837C8.41154 14.3878 10.1002 14.0712 11.7119 14.411L16.8355 15.4922C17.0394 15.5077 17.1933 15.5733 17.2894 15.6158C17.3087 15.6235 17.3317 15.6351 17.3433 15.6389C17.6702 15.7471 17.8472 16.1023 17.7356 16.4267C17.6279 16.7549 17.2779 16.9326 16.9509 16.8206C16.8932 16.8013 16.8432 16.7781 16.8009 16.7626C16.7817 16.7549 16.7548 16.7433 16.7394 16.7356C16.7048 16.7356 16.6701 16.7318 16.6355 16.724L11.458 15.6312C10.1733 15.3609 8.82697 15.6119 7.76916 16.3224C7.76531 16.3224 7.76531 16.3263 7.76147 16.3263C6.64981 17.0445 5.88818 18.1644 5.62277 19.4811L2.27625 35.3828C2.157 35.9659 2.53397 36.5412 3.1225 36.6725C3.71871 36.7922 4.28031 36.4254 4.40725 35.8269L7.75377 19.9291C7.8961 19.2147 8.32307 18.5891 8.9539 18.1682C9.56936 17.7589 10.3117 17.6122 11.0541 17.7628C11.058 17.7628 11.058 17.7628 11.0618 17.7628L15.8085 18.7783C16.1432 18.8479 16.3624 19.1799 16.2855 19.5198C16.2124 19.8596 15.8854 20.0758 15.5469 19.9986L10.8041 18.983C10.3887 18.9019 9.97709 18.9791 9.6386 19.2031C9.38857 19.373 9.0693 19.6742 8.96929 20.1723C8.96929 20.1762 8.96929 20.1762 8.96929 20.1801L5.62277 36.0779C5.49583 36.6957 5.14195 37.217 4.61881 37.5607C4.23031 37.8233 3.78795 37.9507 3.34175 37.9507Z" fill="white"/>
<path fill-rule="evenodd" clip-rule="evenodd" d="M29.0907 46.6622C26.8174 46.6622 24.9672 44.801 24.9672 42.5227V24.671C24.9672 23.5627 25.398 22.5163 26.1866 21.7208C26.9674 20.9292 28.0022 20.489 29.0946 20.489C31.391 20.489 33.2566 22.3657 33.2566 24.6671V42.5189C33.2566 44.801 31.3871 46.6622 29.0907 46.6622ZM29.0907 21.7401C27.529 21.7401 26.2096 23.0801 26.2096 24.671V42.5227C26.2096 44.1175 27.5021 45.415 29.0907 45.415C30.7024 45.415 32.0103 44.1175 32.0103 42.5227V24.671C32.0103 23.053 30.7024 21.7401 29.0907 21.7401Z" fill="white"/>
<path fill-rule="evenodd" clip-rule="evenodd" d="M28.9753 28.8878H25.5903C25.248 28.8878 24.9672 28.6059 24.9672 28.2622C24.9672 27.9185 25.248 27.6366 25.5903 27.6366H28.9753C29.3177 27.6366 29.5985 27.9185 29.5985 28.2622C29.5985 28.6059 29.3177 28.8878 28.9753 28.8878Z" fill="white"/>
<path fill-rule="evenodd" clip-rule="evenodd" d="M28.9753 34.2012H25.5903C25.248 34.2012 24.9672 33.9193 24.9672 33.5756C24.9672 33.2319 25.248 32.9501 25.5903 32.9501H28.9753C29.3177 32.9501 29.5985 33.2319 29.5985 33.5756C29.5985 33.9193 29.3177 34.2012 28.9753 34.2012Z" fill="white"/>
<path fill-rule="evenodd" clip-rule="evenodd" d="M28.9753 39.5532H25.5903C25.248 39.5532 24.9672 39.2713 24.9672 38.9277C24.9672 38.584 25.248 38.3021 25.5903 38.3021H28.9753C29.3177 38.3021 29.5985 38.584 29.5985 38.9277C29.5985 39.2713 29.3177 39.5532 28.9753 39.5532Z" fill="white"/>
<path fill-rule="evenodd" clip-rule="evenodd" d="M20.609 50.9601H9.13085C8.7885 50.9601 8.5077 50.6782 8.5077 50.3345C8.5077 49.9909 8.7885 49.709 9.13085 49.709H20.609C20.9514 49.709 21.2322 49.9909 21.2322 50.3345C21.2322 50.6782 20.9514 50.9601 20.609 50.9601Z" fill="white"/>
<path fill-rule="evenodd" clip-rule="evenodd" d="M25.0826 50.9601H23.2132C22.8708 50.9601 22.59 50.6782 22.59 50.3345C22.59 49.9909 22.8708 49.709 23.2132 49.709H25.0826C25.4249 49.709 25.7057 49.9909 25.7057 50.3345C25.7057 50.6782 25.4249 50.9601 25.0826 50.9601Z" fill="white"/>
<path fill-rule="evenodd" clip-rule="evenodd" d="M8.97314 53.8485C8.9616 53.8485 8.9539 53.8485 8.94236 53.8485C8.60002 53.833 8.33461 53.5396 8.34999 53.1959C8.95775 40.1363 11.3426 28.0884 15.0584 19.2688C16.9086 14.8821 19.0165 11.4454 21.3245 9.04737C23.7825 6.49878 26.3943 5.2129 29.0907 5.2129C31.7949 5.2129 34.4144 6.50264 36.8723 9.04737C39.1841 11.4376 41.2921 14.8744 43.1423 19.2649C46.8504 28.0653 49.2391 40.117 49.8699 53.192C49.8853 53.5357 49.6199 53.8292 49.2776 53.8485C48.9352 53.8639 48.6429 53.5975 48.6236 53.2538C48.0005 40.3217 45.6464 28.4244 41.9921 19.7553C38.3802 11.1751 33.7951 6.4563 29.0869 6.4563C24.3902 6.4563 19.8128 11.1751 16.2009 19.7476C12.5389 28.436 10.1925 40.3294 9.58859 53.2461C9.5809 53.5898 9.30394 53.8485 8.97314 53.8485Z" stroke="white" stroke-width="0.6" mask="url(#path-1-outside-1_85_68)"/>
<path fill-rule="evenodd" clip-rule="evenodd" d="M48.6275 61H9.59628C8.47308 61 7.41143 60.5636 6.62288 59.7643C5.83433 58.9688 5.39197 57.9069 5.39197 56.7794C5.39197 54.4741 7.2768 52.6012 9.59628 52.6012H48.6275C50.9239 52.6012 52.7895 54.4779 52.7895 56.7794C52.7895 59.1079 50.92 61 48.6275 61ZM9.59628 53.8485C7.96533 53.8485 6.63827 55.1614 6.63827 56.7794C6.63827 58.4166 7.96533 59.7489 9.59628 59.7489H48.6275C50.2392 59.7489 51.547 58.4166 51.547 56.7794C51.547 55.1614 50.2392 53.8485 48.6275 53.8485H9.59628Z" stroke="white" stroke-width="0.6" mask="url(#path-1-outside-1_85_68)"/>
<path fill-rule="evenodd" clip-rule="evenodd" d="M46.7965 34.0429C46.7427 34.0429 46.6927 34.0351 46.6388 34.0236C46.308 33.9347 46.108 33.5949 46.1964 33.259L50.5046 16.9712H41.119C40.7766 16.9712 40.4958 16.6893 40.4958 16.3456C40.4958 16.0019 40.7766 15.72 41.119 15.72H51.3162C51.5124 15.72 51.6932 15.8089 51.8086 15.9633C51.924 16.1139 51.9663 16.3186 51.9163 16.5078L47.4004 33.5795C47.3273 33.8614 47.0735 34.0429 46.7965 34.0429Z" stroke="white" stroke-width="0.6" mask="url(#path-1-outside-1_85_68)"/>
<path fill-rule="evenodd" clip-rule="evenodd" d="M30.8025 6.66096C30.7525 6.66096 30.7024 6.65324 30.6524 6.64165C30.3178 6.5567 30.1139 6.21689 30.2024 5.8848L31.114 2.27043C31.091 2.25885 31.064 2.24726 31.0409 2.24726H27.1867C27.1444 2.24726 27.1059 2.26271 27.079 2.27816L27.9868 5.8848C28.0714 6.22075 27.8714 6.56056 27.5367 6.64165C27.2021 6.72661 26.8636 6.52581 26.7828 6.18986L25.8481 2.47895C25.8481 2.47509 25.8442 2.46737 25.8442 2.46351C25.775 2.143 25.8596 1.80319 26.0789 1.52903C26.3443 1.19694 26.7597 1 27.1905 1H31.0448C31.4795 1 31.9257 1.22783 32.1757 1.57923C32.3757 1.85725 32.4373 2.1932 32.3449 2.50212L31.4141 6.19758C31.3371 6.47175 31.0833 6.66096 30.8025 6.66096Z" stroke="white" stroke-width="0.6" mask="url(#path-1-outside-1_85_68)"/>
<path fill-rule="evenodd" clip-rule="evenodd" d="M39.7919 14.5886H18.3896C18.0472 14.5886 17.7664 14.3067 17.7664 13.9631C17.7664 13.6194 18.0472 13.3375 18.3896 13.3375H39.7919C40.1343 13.3375 40.4151 13.6194 40.4151 13.9631C40.4151 14.3067 40.1343 14.5886 39.7919 14.5886Z" stroke="white" stroke-width="0.6" mask="url(#path-1-outside-1_85_68)"/>
<path fill-rule="evenodd" clip-rule="evenodd" d="M3.34175 37.9507C3.18019 37.9507 3.01479 37.9352 2.85324 37.9005H2.84939C1.5954 37.6263 0.787624 36.3829 1.04919 35.1318L4.39571 19.234C4.73036 17.5929 5.68432 16.1911 7.07678 15.2837C8.41154 14.3878 10.1002 14.0712 11.7119 14.411L16.8355 15.4922C17.0394 15.5077 17.1933 15.5733 17.2894 15.6158C17.3087 15.6235 17.3317 15.6351 17.3433 15.6389C17.6702 15.7471 17.8472 16.1023 17.7356 16.4267C17.6279 16.7549 17.2779 16.9326 16.9509 16.8206C16.8932 16.8013 16.8432 16.7781 16.8009 16.7626C16.7817 16.7549 16.7548 16.7433 16.7394 16.7356C16.7048 16.7356 16.6701 16.7318 16.6355 16.724L11.458 15.6312C10.1733 15.3609 8.82697 15.6119 7.76916 16.3224C7.76531 16.3224 7.76531 16.3263 7.76147 16.3263C6.64981 17.0445 5.88818 18.1644 5.62277 19.4811L2.27625 35.3828C2.157 35.9659 2.53397 36.5412 3.1225 36.6725C3.71871 36.7922 4.28031 36.4254 4.40725 35.8269L7.75377 19.9291C7.8961 19.2147 8.32307 18.5891 8.9539 18.1682C9.56936 17.7589 10.3117 17.6122 11.0541 17.7628C11.058 17.7628 11.058 17.7628 11.0618 17.7628L15.8085 18.7783C16.1432 18.8479 16.3624 19.1799 16.2855 19.5198C16.2124 19.8596 15.8854 20.0758 15.5469 19.9986L10.8041 18.983C10.3887 18.9019 9.97709 18.9791 9.6386 19.2031C9.38857 19.373 9.0693 19.6742 8.96929 20.1723C8.96929 20.1762 8.96929 20.1762 8.96929 20.1801L5.62277 36.0779C5.49583 36.6957 5.14195 37.217 4.61881 37.5607C4.23031 37.8233 3.78795 37.9507 3.34175 37.9507Z" stroke="white" stroke-width="0.6" mask="url(#path-1-outside-1_85_68)"/>
<path fill-rule="evenodd" clip-rule="evenodd" d="M29.0907 46.6622C26.8174 46.6622 24.9672 44.801 24.9672 42.5227V24.671C24.9672 23.5627 25.398 22.5163 26.1866 21.7208C26.9674 20.9292 28.0022 20.489 29.0946 20.489C31.391 20.489 33.2566 22.3657 33.2566 24.6671V42.5189C33.2566 44.801 31.3871 46.6622 29.0907 46.6622ZM29.0907 21.7401C27.529 21.7401 26.2096 23.0801 26.2096 24.671V42.5227C26.2096 44.1175 27.5021 45.415 29.0907 45.415C30.7024 45.415 32.0103 44.1175 32.0103 42.5227V24.671C32.0103 23.053 30.7024 21.7401 29.0907 21.7401Z" stroke="white" stroke-width="0.6" mask="url(#path-1-outside-1_85_68)"/>
<path fill-rule="evenodd" clip-rule="evenodd" d="M28.9753 28.8878H25.5903C25.248 28.8878 24.9672 28.6059 24.9672 28.2622C24.9672 27.9185 25.248 27.6366 25.5903 27.6366H28.9753C29.3177 27.6366 29.5985 27.9185 29.5985 28.2622C29.5985 28.6059 29.3177 28.8878 28.9753 28.8878Z" stroke="white" stroke-width="0.6" mask="url(#path-1-outside-1_85_68)"/>
<path fill-rule="evenodd" clip-rule="evenodd" d="M28.9753 34.2012H25.5903C25.248 34.2012 24.9672 33.9193 24.9672 33.5756C24.9672 33.2319 25.248 32.9501 25.5903 32.9501H28.9753C29.3177 32.9501 29.5985 33.2319 29.5985 33.5756C29.5985 33.9193 29.3177 34.2012 28.9753 34.2012Z" stroke="white" stroke-width="0.6" mask="url(#path-1-outside-1_85_68)"/>
<path fill-rule="evenodd" clip-rule="evenodd" d="M28.9753 39.5532H25.5903C25.248 39.5532 24.9672 39.2713 24.9672 38.9277C24.9672 38.584 25.248 38.3021 25.5903 38.3021H28.9753C29.3177 38.3021 29.5985 38.584 29.5985 38.9277C29.5985 39.2713 29.3177 39.5532 28.9753 39.5532Z" stroke="white" stroke-width="0.6" mask="url(#path-1-outside-1_85_68)"/>
<path fill-rule="evenodd" clip-rule="evenodd" d="M20.609 50.9601H9.13085C8.7885 50.9601 8.5077 50.6782 8.5077 50.3345C8.5077 49.9909 8.7885 49.709 9.13085 49.709H20.609C20.9514 49.709 21.2322 49.9909 21.2322 50.3345C21.2322 50.6782 20.9514 50.9601 20.609 50.9601Z" stroke="white" stroke-width="0.6" mask="url(#path-1-outside-1_85_68)"/>
<path fill-rule="evenodd" clip-rule="evenodd" d="M25.0826 50.9601H23.2132C22.8708 50.9601 22.59 50.6782 22.59 50.3345C22.59 49.9909 22.8708 49.709 23.2132 49.709H25.0826C25.4249 49.709 25.7057 49.9909 25.7057 50.3345C25.7057 50.6782 25.4249 50.9601 25.0826 50.9601Z" stroke="white" stroke-width="0.6" mask="url(#path-1-outside-1_85_68)"/>
</svg>
