<svg width="56" height="62" viewBox="0 0 56 62" fill="none" xmlns="http://www.w3.org/2000/svg">
<path fill-rule="evenodd" clip-rule="evenodd" d="M51.0082 39.0799H50.6893C50.4248 39.0799 50.1914 38.9177 50.098 38.6744C49.6935 37.5933 48.3437 36.8403 46.8189 36.8403C45.294 36.8403 43.9443 37.5933 43.5397 38.6744C43.4464 38.9177 43.213 39.0799 42.9485 39.0799H42.6295C42.365 39.0799 42.1316 38.9177 42.0382 38.6744C41.6337 37.5933 40.2839 36.8403 38.7591 36.8403C37.2342 36.8403 35.8845 37.5933 35.4799 38.6744C35.3866 38.9177 35.1532 39.0799 34.8887 39.0799H34.5697C34.3052 39.0799 34.0718 38.9177 33.9784 38.6744C33.5739 37.5933 32.2241 36.8403 30.6993 36.8403C29.1745 36.8403 27.8247 37.5933 27.4201 38.6744C27.3268 38.9177 27.0934 39.0799 26.8289 39.0799H26.5099C26.2454 39.0799 26.012 38.9177 25.9186 38.6744C25.5141 37.5933 24.1643 36.8403 22.6395 36.8403C21.7915 36.8403 20.9746 37.072 20.3445 37.4968C19.8699 37.8172 19.5276 38.2227 19.3565 38.6744C19.2631 38.9177 19.0297 39.0799 18.7652 39.0799H18.4462C18.1817 39.0799 17.9483 38.9177 17.855 38.6744C17.6721 38.1879 17.2754 37.7362 16.7347 37.4118C16.2757 37.1338 15.7311 36.9485 15.1515 36.879C14.8364 36.8403 14.5992 36.5739 14.5992 36.2573V22.4649C14.5992 19.8547 16.7386 17.7349 19.3642 17.7349H50.0669C52.6964 17.7349 54.832 19.8586 54.832 22.4649V36.2573C54.832 36.5739 54.5947 36.8365 54.2835 36.879C52.9882 37.0411 51.9263 37.7477 51.5762 38.6783C51.5061 38.9177 51.2689 39.0799 51.0082 39.0799ZM46.8189 35.5893C47.8224 35.5893 48.7755 35.8403 49.5807 36.3113C50.0941 36.6125 50.5259 37.0025 50.8488 37.4427C51.4517 36.6164 52.4358 35.9986 53.595 35.7322V22.461C53.595 20.542 52.0235 18.9782 50.0863 18.9782H19.3837C17.4504 18.9782 15.875 20.5381 15.875 22.461V35.7322C16.4274 35.8596 16.9486 36.0642 17.4037 36.3422C17.9016 36.6434 18.314 37.0141 18.6174 37.4388C18.8858 37.0682 19.232 36.7399 19.6443 36.4619C20.4806 35.8982 21.5464 35.5893 22.6434 35.5893C23.647 35.5893 24.6 35.8403 25.4052 36.3113C25.9186 36.6125 26.3504 37.0025 26.6733 37.4427C26.9922 37.0025 27.424 36.6125 27.9414 36.3113C28.7466 35.8403 29.6996 35.5893 30.7032 35.5893C31.7068 35.5893 32.6598 35.8403 33.465 36.3113C33.9784 36.6125 34.4102 37.0025 34.7331 37.4427C35.052 37.0025 35.4838 36.6125 36.0012 36.3113C36.8025 35.8403 37.7594 35.5893 38.763 35.5893C39.7665 35.5893 40.7196 35.8403 41.5248 36.3113C42.0382 36.6125 42.47 37.0025 42.7929 37.4427C43.1118 37.0025 43.5436 36.6125 44.061 36.3113C44.8623 35.8364 45.8192 35.5893 46.8189 35.5893Z" fill="white" stroke="white" stroke-width="0.5"/>
<path fill-rule="evenodd" clip-rule="evenodd" d="M24.9462 56.7834C24.6 56.7834 24.316 56.5054 24.316 56.1578V51.5128C24.316 51.1691 24.5961 50.8872 24.9462 50.8872C25.2963 50.8872 25.5764 51.1652 25.5764 51.5128V56.1617C25.5764 56.5054 25.2963 56.7834 24.9462 56.7834ZM24.9462 47.5627C24.6 47.5627 24.316 47.2847 24.316 46.9372V36.7666C24.316 36.423 24.5961 36.1411 24.9462 36.1411C25.2963 36.1411 25.5764 36.4191 25.5764 36.7666V46.9372C25.5764 47.2808 25.2963 47.5627 24.9462 47.5627Z" fill="white" stroke="white" stroke-width="0.5"/>
<path fill-rule="evenodd" clip-rule="evenodd" d="M44.5355 56.7834C44.1893 56.7834 43.9054 56.5054 43.9054 56.1578V51.5128C43.9054 51.1691 44.1854 50.8872 44.5355 50.8872C44.8817 50.8872 45.1657 51.1652 45.1657 51.5128V56.1617C45.1618 56.5054 44.8817 56.7834 44.5355 56.7834ZM44.5355 47.5627C44.1893 47.5627 43.9054 47.2847 43.9054 46.9372V36.7666C43.9054 36.423 44.1854 36.1411 44.5355 36.1411C44.8817 36.1411 45.1657 36.4191 45.1657 36.7666V46.9372C45.1618 47.2808 44.8817 47.5627 44.5355 47.5627Z" fill="white" stroke="white" stroke-width="0.5"/>
<path fill-rule="evenodd" clip-rule="evenodd" d="M51.1522 52.1382H18.3179C16.6997 52.1382 15.3849 50.8331 15.3849 49.2268C15.3849 47.6205 16.6997 46.3154 18.3179 46.3154H51.1522C52.7704 46.3154 54.0851 47.6205 54.0851 49.2268C54.0851 50.8331 52.7704 52.1382 51.1522 52.1382ZM18.3179 47.5626C17.396 47.5626 16.6413 48.3078 16.6413 49.2268C16.6413 50.1419 17.3921 50.891 18.3179 50.891H51.1522C52.0741 50.891 52.8287 50.1458 52.8287 49.2268C52.8287 48.3117 52.078 47.5626 51.1522 47.5626H18.3179Z" fill="white" stroke="white" stroke-width="0.5"/>
<path fill-rule="evenodd" clip-rule="evenodd" d="M24.9462 60.9998C23.4291 60.9998 22.1922 59.7757 22.1922 58.266C22.1922 56.7601 23.4253 55.5322 24.9462 55.5322C26.4632 55.5322 27.7002 56.7562 27.7002 58.266C27.7002 59.7719 26.4632 60.9998 24.9462 60.9998ZM24.9462 56.7833C24.1215 56.7833 23.4525 57.4474 23.4525 58.266C23.4525 59.0846 24.1215 59.7487 24.9462 59.7487C25.7708 59.7487 26.4399 59.0846 26.4399 58.266C26.4399 57.4474 25.7708 56.7833 24.9462 56.7833Z" fill="white" stroke="white" stroke-width="0.5"/>
<path fill-rule="evenodd" clip-rule="evenodd" d="M44.5355 60.9998C43.0185 60.9998 41.7815 59.7757 41.7815 58.266C41.7815 56.7601 43.0146 55.5322 44.5355 55.5322C46.0526 55.5322 47.2895 56.7562 47.2895 58.266C47.2856 59.7719 46.0526 60.9998 44.5355 60.9998ZM44.5355 56.7833C43.7109 56.7833 43.0418 57.4474 43.0418 58.266C43.0418 59.0846 43.7109 59.7487 44.5355 59.7487C45.3602 59.7487 46.0292 59.0846 46.0292 58.266C46.0292 57.4474 45.3563 56.7833 44.5355 56.7833Z" fill="white" stroke="white" stroke-width="0.5"/>
<path fill-rule="evenodd" clip-rule="evenodd" d="M16.8125 19.8737C16.5986 19.8737 16.3924 19.7656 16.2757 19.5725C16.0423 19.1903 15.6689 18.5609 15.1982 17.7655C14.3386 16.3098 13.1599 14.3135 12.098 12.6184C10.4448 9.97347 9.92356 9.41359 9.77575 9.29776C8.19647 8.03899 6.17763 8.15482 3.83593 8.28997C3.12409 8.33244 2.39279 8.37492 1.63427 8.37878H1.63038C1.28418 8.37878 1.00411 8.10077 1.00022 7.75712C0.996333 7.41346 1.2764 7.13159 1.62649 7.12773C2.35 7.12387 3.06963 7.0814 3.76202 7.03892C6.25153 6.89606 8.6049 6.75705 10.5615 8.32086C11.4601 9.03905 13.7823 12.9003 16.2835 17.1361C16.7503 17.9277 17.1198 18.5532 17.3493 18.9239C17.5321 19.2173 17.4349 19.6034 17.1393 19.7811C17.0381 19.8428 16.9253 19.8737 16.8125 19.8737Z" fill="white" stroke="white" stroke-width="0.5"/>
<path fill-rule="evenodd" clip-rule="evenodd" d="M46.0876 15.383H25.8408C25.4947 15.383 25.2107 15.105 25.2107 14.7575C25.2107 11.9194 26.331 9.23973 28.3693 7.2203C30.4075 5.197 33.1032 4.08496 35.9623 4.08496C38.8213 4.08496 41.5209 5.197 43.5553 7.2203C45.5858 9.23587 46.7061 11.9001 46.7138 14.7266C46.7138 14.7382 46.7138 14.7497 46.7138 14.7575C46.7177 15.1011 46.4377 15.383 46.0876 15.383ZM26.4905 14.1319H45.4341C45.1112 9.22429 40.988 5.33215 35.9662 5.33215C30.9405 5.33215 26.8172 9.22429 26.4905 14.1319Z" fill="white" stroke="white" stroke-width="0.5"/>
<path fill-rule="evenodd" clip-rule="evenodd" d="M34.099 5.50608C33.9551 5.50608 33.8112 5.45589 33.6984 5.36322C33.5544 5.24352 33.4689 5.06976 33.4689 4.88056V1.62552C33.4689 1.28187 33.7489 1 34.099 1H37.3665C37.7127 1 37.9967 1.27801 37.9967 1.62552V4.80333C37.9967 4.98481 37.9189 5.15471 37.7788 5.27441C37.6427 5.39411 37.4599 5.44816 37.277 5.42113C36.8414 5.35935 36.3979 5.32846 35.9662 5.32846C35.3827 5.32846 34.7914 5.38252 34.2157 5.49064C34.1768 5.50222 34.1379 5.50608 34.099 5.50608ZM34.7292 2.25491V4.15464C35.3944 4.07742 36.0634 4.06197 36.7364 4.11217V2.25491H34.7292Z" fill="white" stroke="white" stroke-width="0.5"/>
</svg>
