<svg width="59" height="62" viewBox="0 0 59 62" fill="none" xmlns="http://www.w3.org/2000/svg">
<path d="M40.9218 55.6211L40.9594 55.607M29.0312 22.9902C32.9509 22.9902 36.3346 25.4224 37.7734 28.8645H41.7244C40.1734 27.2169 39.2216 24.99 39.2216 22.5385C39.2216 20.0869 40.1734 17.86 41.7244 16.2125H35.3023V11.5431H22.7608V16.2125H16.712C18.263 17.86 19.2144 20.0869 19.2144 22.5385M29.0312 22.9902C25.1115 22.9902 21.7277 25.4224 20.2889 28.8645H16.7116C18.2626 27.2169 19.2144 24.99 19.2144 22.5385M29.0312 22.9902C23.8166 22.9902 19.5507 27.2942 19.5507 32.5544V39.9348M29.0312 22.9902C34.2454 22.9902 38.5124 27.2938 38.5124 32.5544V32.6293M19.2144 22.5385C19.2144 17.4641 15.1376 13.3506 10.1076 13.3506C5.07752 13.3506 1 17.4641 1 22.5385C1 27.6125 5.07752 31.726 10.1076 31.726C15.1373 31.726 19.2144 27.6129 19.2144 22.5385ZM38.512 34.6632V34.7795M38.512 36.813V39.9348M38.512 39.9348H19.5507M38.512 39.9348C39.7847 39.9348 40.8261 40.9853 40.8261 42.2692C40.8261 43.5531 39.7847 44.6036 38.512 44.6036M19.5507 39.9348C18.2781 39.9348 17.2367 40.9853 17.2367 42.2692C17.2367 43.5531 18.2781 44.6036 19.5507 44.6036M19.5507 44.6036H38.512M19.5507 44.6036C19.2167 44.6036 18.8988 44.5314 18.6114 44.4015V47.8592M38.512 44.6036C38.8461 44.6036 39.164 44.5311 39.4514 44.4015V49.1206M20.9319 5.4106V5.29433M20.9319 3.26077V2.73225C20.9319 1.77968 21.7044 1 22.649 1H45.7164C46.948 1 47.9559 2.01678 47.9559 3.25925V5.51851H37.1309V9.81132C37.1309 10.7639 36.3584 11.5436 35.4138 11.5436H22.6486C21.7044 11.5436 20.9315 10.7643 20.9315 9.81132V7.44416M18.6114 50.009V49.8927M39.4514 51.5189V53.5943C39.4514 54.7505 38.5135 55.6966 37.3674 55.6966C36.2213 55.6966 35.2835 54.7505 35.2835 53.5943V51.0212C35.2835 49.865 34.3456 48.9189 33.1995 48.9189C32.0534 48.9189 31.1155 49.865 31.1155 51.0212V53.5943C31.1155 54.7505 30.1777 55.6966 29.0316 55.6966C27.8855 55.6966 26.9476 54.7505 26.9476 53.5943V48.5112C26.9476 47.3549 26.0098 46.4088 24.8637 46.4088C23.7175 46.4088 22.7797 47.3549 22.7797 48.5112V53.5943C22.7797 54.7505 21.8419 55.6966 20.6957 55.6966C19.5496 55.6966 18.6118 54.7505 18.6118 53.5943V52.0425M40.8491 59.2576C41.0973 59.9241 40.7628 60.6669 40.1022 60.9173C39.4416 61.1677 38.7052 60.8303 38.457 60.1642C38.2088 59.4978 38.5433 58.7549 39.2035 58.5045C39.8645 58.2541 40.6012 58.5912 40.8491 59.2576ZM47.0979 52.3845C47.2237 52.722 47.0543 53.0985 46.7198 53.2254C46.3853 53.3523 46.0121 53.1813 45.8863 52.8439C45.7605 52.5065 45.93 52.13 46.2644 52.0031C46.5993 51.8758 46.9721 52.0468 47.0979 52.3845ZM48.3284 13.3506C53.3581 13.3506 57.4356 17.4641 57.4356 22.5385C57.4356 27.6129 53.3581 31.726 48.3284 31.726C43.2984 31.726 39.2209 27.6125 39.2209 22.5385C39.2212 17.4641 43.2988 13.3506 48.3284 13.3506ZM15.4028 24.707C15.4028 26.7029 13.0341 28.3208 10.1117 28.3208C7.18974 28.3208 4.92537 26.6999 4.82066 24.707C4.65532 21.5571 6.81611 17.1552 6.91517 16.7563C8.3385 17.4106 9.46202 18.3001 9.50571 20.0369C10.9388 19.3883 10.9362 18.1314 12.3693 17.4828C12.7682 19.055 15.4028 23.2266 15.4028 24.707ZM47.1921 16.7019C47.1921 16.13 47.6516 15.6665 48.2185 15.6665C48.7853 15.6665 49.2448 16.13 49.2448 16.7019V17.4747L49.983 16.73C50.3838 16.3257 51.0339 16.3257 51.4346 16.73C51.8354 17.1343 51.8354 17.7901 51.4346 18.1944L49.2448 20.4035V21.3921H50.6644L52.6342 19.4049C53.035 19.0007 53.6851 19.0007 54.0858 19.4049C54.4865 19.8092 54.4865 20.465 54.0858 20.8693L53.5675 21.3921H54.114C54.6809 21.3921 55.1404 21.8557 55.1404 22.4275C55.1404 22.9994 54.6809 23.4629 54.114 23.4629H53.348L54.0862 24.2077C54.4869 24.6119 54.4869 25.2677 54.0862 25.672C53.6854 26.0763 53.0354 26.0763 52.6346 25.672L50.4448 23.4629H49.2452V24.6731L51.435 26.8822C51.8357 27.2865 51.8357 27.9423 51.435 28.3466C51.0342 28.7509 50.3842 28.7509 49.9834 28.3466L49.2452 27.6019V28.3751C49.2452 28.9469 48.7857 29.4105 48.2189 29.4105C47.652 29.4105 47.1925 28.9469 47.1925 28.3751V27.8238L46.6742 28.347C46.2735 28.7512 45.6234 28.7512 45.2227 28.347C44.8219 27.9427 44.8219 27.2869 45.2227 26.8826L47.1925 24.8954V23.4633H46.2125L44.0227 25.6724C43.6219 26.0767 42.9719 26.0767 42.5711 25.6724C42.1704 25.2681 42.1704 24.6123 42.5711 24.208L43.3093 23.4633H42.5429C41.976 23.4633 41.5165 22.9998 41.5165 22.4279C41.5165 21.8561 41.976 21.3925 42.5429 21.3925H43.0897L42.5715 20.8697C42.1707 20.4654 42.1707 19.8096 42.5715 19.4053C42.9722 19.001 43.6223 19.001 44.0231 19.4053L45.9929 21.3925H47.1925V20.1823L45.2227 18.1951C44.8219 17.7909 44.8219 17.135 45.2227 16.7308C45.6234 16.3265 46.2735 16.3265 46.6742 16.7308L47.1925 17.2536L47.1921 16.7019Z" stroke="white" stroke-width="1.5" stroke-miterlimit="22.9256" stroke-linecap="round" stroke-linejoin="round"/>
</svg>
