<svg width="57" height="57" viewBox="0 0 57 57" fill="none" xmlns="http://www.w3.org/2000/svg">
<path fill-rule="evenodd" clip-rule="evenodd" d="M54.1903 42.8002H20.2755C19.9591 42.8002 19.7026 42.5437 19.7026 42.2273C19.7026 41.9109 19.9591 41.6544 20.2755 41.6544H54.1903C54.4784 41.6544 54.712 41.4203 54.712 41.1327V8.31246C54.712 8.02442 54.4779 7.79078 54.1903 7.79078H20.2755C19.9591 7.79078 19.7026 7.53429 19.7026 7.2179C19.7026 6.90151 19.9591 6.64502 20.2755 6.64502H54.1903C55.1098 6.64502 55.8582 7.39301 55.8582 8.31246V41.1327C55.8578 42.0522 55.1098 42.8002 54.1903 42.8002ZM6.59029 42.8002H2.66744C1.74799 42.8002 1 42.0522 1 41.1327V8.31246C1 7.39301 1.74799 6.64502 2.66744 6.64502H6.59029C6.90668 6.64502 7.16318 6.90106 7.16318 7.2179C7.16318 7.53429 6.90668 7.79078 6.59029 7.79078H2.66744C2.37986 7.79078 2.14577 8.02488 2.14577 8.31246V41.1327C2.14577 41.4203 2.37986 41.6544 2.66744 41.6544H6.59029C6.90668 41.6544 7.16318 41.9105 7.16318 42.2273C7.16318 42.5437 6.90668 42.8002 6.59029 42.8002Z" fill="white" stroke="white" stroke-width="0.5"/>
<path fill-rule="evenodd" clip-rule="evenodd" d="M17.5382 48.4455H9.32762C7.50244 48.4455 6.01788 46.9605 6.01788 45.1353V4.30974C6.01743 2.48501 7.50244 1 9.32762 1H17.5386C19.3634 1 20.8484 2.48501 20.8484 4.30974V45.1353C20.8479 46.9605 19.3634 48.4455 17.5382 48.4455ZM9.32762 2.14577C8.1343 2.14577 7.16365 3.11642 7.16365 4.30974V45.1353C7.16365 46.3286 8.13476 47.2997 9.32762 47.2997H17.5382C18.7315 47.2997 19.7021 46.3291 19.7021 45.1353V4.30974C19.7021 3.11642 18.7315 2.14577 17.5382 2.14577H9.32762Z" fill="white" stroke="white" stroke-width="0.5"/>
<path fill-rule="evenodd" clip-rule="evenodd" d="M15.0422 51.2396H11.8239C11.3105 51.2396 10.8931 50.8222 10.8931 50.3092V47.8732C10.8931 47.5568 11.1496 47.3003 11.4659 47.3003C11.7823 47.3003 12.0388 47.5568 12.0388 47.8732V50.0943H14.8273V47.8732C14.8273 47.5568 15.0838 47.3003 15.4002 47.3003C15.7166 47.3003 15.9731 47.5568 15.9731 47.8732V50.3092C15.9727 50.8222 15.5552 51.2396 15.0422 51.2396Z" fill="white" stroke="white" stroke-width="0.5"/>
<path fill-rule="evenodd" clip-rule="evenodd" d="M52.133 46.2785H48.7437C48.2302 46.2785 47.8128 45.8611 47.8128 45.3477V42.2277C47.8128 41.9108 48.0693 41.6548 48.3857 41.6548C48.7021 41.6548 48.9586 41.9108 48.9586 42.2277V45.1328H51.9185V42.2277C51.9185 41.9108 52.175 41.6548 52.4914 41.6548C52.8078 41.6548 53.0643 41.9108 53.0643 42.2277V45.3477C53.0638 45.8611 52.6464 46.2785 52.133 46.2785Z" fill="white" stroke="white" stroke-width="0.5"/>
<path fill-rule="evenodd" clip-rule="evenodd" d="M51.9779 39.2081H23.5825C23.2661 39.2081 23.0092 38.9516 23.0092 38.6352V10.3536C23.0092 10.0373 23.2656 9.78076 23.5825 9.78076H51.9779C52.2948 9.78076 52.5508 10.0373 52.5508 10.3536V38.6352C52.5508 38.9516 52.2948 39.2081 51.9779 39.2081ZM24.1554 38.0623H51.405V10.9265H24.1554V38.0623Z" fill="white" stroke="white" stroke-width="0.5"/>
<path fill-rule="evenodd" clip-rule="evenodd" d="M47.9864 22.9006H27.2314C26.915 22.9006 26.6585 22.6441 26.6585 22.3273V14.3453C26.6585 14.029 26.915 13.7725 27.2314 13.7725H47.9864C48.3028 13.7725 48.5593 14.029 48.5593 14.3453V22.3278C48.5593 22.6441 48.3032 22.9006 47.9864 22.9006ZM27.8043 21.7549H47.4135V14.9178H27.8043V21.7549Z" fill="white" stroke="white" stroke-width="0.5"/>
<path fill-rule="evenodd" clip-rule="evenodd" d="M47.7012 55.9997H14.5279C13.6085 55.9997 12.8605 55.2517 12.8605 54.3323V50.6664C12.8605 50.3495 13.117 50.093 13.4334 50.093C13.7497 50.093 14.0062 50.3495 14.0062 50.6664V54.3323C14.0062 54.6203 14.2403 54.854 14.5279 54.854H47.7016C48.8949 54.854 49.8656 53.8828 49.8656 52.69V45.7052C49.8656 45.3888 50.1221 45.1323 50.4385 45.1323C50.7549 45.1323 51.0114 45.3884 51.0114 45.7052V52.69C51.0114 54.5152 49.5263 55.9997 47.7012 55.9997Z" fill="white" stroke="white" stroke-width="0.5"/>
<path fill-rule="evenodd" clip-rule="evenodd" d="M32.2809 26.3323H28.4819C28.1656 26.3323 27.9091 26.0758 27.9091 25.7594C27.9091 25.443 28.1656 25.1865 28.4819 25.1865H32.2809C32.5973 25.1865 32.8538 25.443 32.8538 25.7594C32.8542 26.0758 32.5977 26.3323 32.2809 26.3323Z" fill="white" stroke="white" stroke-width="0.5"/>
<path fill-rule="evenodd" clip-rule="evenodd" d="M32.2809 29.5393H28.4819C28.1656 29.5393 27.9091 29.2833 27.9091 28.9664C27.9091 28.65 28.1656 28.3936 28.4819 28.3936H32.2809C32.5973 28.3936 32.8538 28.65 32.8538 28.9664C32.8542 29.2833 32.5977 29.5393 32.2809 29.5393Z" fill="white" stroke="white" stroke-width="0.5"/>
<path fill-rule="evenodd" clip-rule="evenodd" d="M32.2809 32.7473H28.4819C28.1656 32.7473 27.9091 32.4913 27.9091 32.1744C27.9091 31.8581 28.1656 31.6016 28.4819 31.6016H32.2809C32.5973 31.6016 32.8538 31.8581 32.8538 32.1744C32.8542 32.4908 32.5977 32.7473 32.2809 32.7473Z" fill="white" stroke="white" stroke-width="0.5"/>
<path fill-rule="evenodd" clip-rule="evenodd" d="M32.2809 35.9548H28.4819C28.1656 35.9548 27.9091 35.6983 27.9091 35.3819C27.9091 35.0651 28.1656 34.8086 28.4819 34.8086H32.2809C32.5973 34.8086 32.8538 35.0651 32.8538 35.3819C32.8542 35.6988 32.5977 35.9548 32.2809 35.9548Z" fill="white" stroke="white" stroke-width="0.5"/>
<path fill-rule="evenodd" clip-rule="evenodd" d="M39.5083 26.3323H35.7094C35.3925 26.3323 35.1365 26.0758 35.1365 25.7594C35.1365 25.443 35.393 25.1865 35.7094 25.1865H39.5083C39.8247 25.1865 40.0812 25.443 40.0812 25.7594C40.0812 26.0758 39.8247 26.3323 39.5083 26.3323Z" fill="white" stroke="white" stroke-width="0.5"/>
<path fill-rule="evenodd" clip-rule="evenodd" d="M39.5083 29.5393H35.7094C35.3925 29.5393 35.1365 29.2833 35.1365 28.9664C35.1365 28.65 35.393 28.3936 35.7094 28.3936H39.5083C39.8247 28.3936 40.0812 28.65 40.0812 28.9664C40.0812 29.2833 39.8247 29.5393 39.5083 29.5393Z" fill="white" stroke="white" stroke-width="0.5"/>
<path fill-rule="evenodd" clip-rule="evenodd" d="M39.5083 32.7473H35.7094C35.3925 32.7473 35.1365 32.4913 35.1365 32.1744C35.1365 31.8581 35.393 31.6016 35.7094 31.6016H39.5083C39.8247 31.6016 40.0812 31.8581 40.0812 32.1744C40.0812 32.4908 39.8247 32.7473 39.5083 32.7473Z" fill="white" stroke="white" stroke-width="0.5"/>
<path fill-rule="evenodd" clip-rule="evenodd" d="M39.5083 35.9548H35.7094C35.3925 35.9548 35.1365 35.6983 35.1365 35.3819C35.1365 35.0651 35.393 34.8086 35.7094 34.8086H39.5083C39.8247 34.8086 40.0812 35.0651 40.0812 35.3819C40.0812 35.6988 39.8247 35.9548 39.5083 35.9548Z" fill="white" stroke="white" stroke-width="0.5"/>
<path fill-rule="evenodd" clip-rule="evenodd" d="M46.7355 26.3323H42.9365C42.6201 26.3323 42.3636 26.0758 42.3636 25.7594C42.3636 25.443 42.6201 25.1865 42.9365 25.1865H46.7355C47.0519 25.1865 47.3084 25.443 47.3084 25.7594C47.3084 26.0758 47.0519 26.3323 46.7355 26.3323Z" fill="white" stroke="white" stroke-width="0.5"/>
<path fill-rule="evenodd" clip-rule="evenodd" d="M46.7355 29.5393H42.9365C42.6201 29.5393 42.3636 29.2833 42.3636 28.9664C42.3636 28.65 42.6201 28.3936 42.9365 28.3936H46.7355C47.0519 28.3936 47.3084 28.65 47.3084 28.9664C47.3084 29.2833 47.0519 29.5393 46.7355 29.5393Z" fill="white" stroke="white" stroke-width="0.5"/>
<path fill-rule="evenodd" clip-rule="evenodd" d="M46.7355 32.7473H42.9365C42.6201 32.7473 42.3636 32.4913 42.3636 32.1744C42.3636 31.8581 42.6201 31.6016 42.9365 31.6016H46.7355C47.0519 31.6016 47.3084 31.8581 47.3084 32.1744C47.3084 32.4908 47.0519 32.7473 46.7355 32.7473Z" fill="white" stroke="white" stroke-width="0.5"/>
<path fill-rule="evenodd" clip-rule="evenodd" d="M46.7355 35.9548H42.9365C42.6201 35.9548 42.3636 35.6983 42.3636 35.3819C42.3636 35.0651 42.6201 34.8086 42.9365 34.8086H46.7355C47.0519 34.8086 47.3084 35.0651 47.3084 35.3819C47.3084 35.6988 47.0519 35.9548 46.7355 35.9548Z" fill="white" stroke="white" stroke-width="0.5"/>
<path fill-rule="evenodd" clip-rule="evenodd" d="M16.3421 36.113H10.5236C10.2072 36.113 9.95074 35.8565 9.95074 35.5401V13.9064C9.95074 13.59 10.2072 13.3335 10.5236 13.3335H16.3421C16.6589 13.3335 16.9154 13.59 16.9154 13.9064V35.5401C16.9154 35.8565 16.6585 36.113 16.3421 36.113ZM11.0965 34.9672H15.7696V14.4793H11.0965V34.9672Z" fill="white" stroke="white" stroke-width="0.5"/>
</svg>
