<svg width="57" height="57" viewBox="0 0 57 57" fill="none" xmlns="http://www.w3.org/2000/svg">
<path d="M7.87502 7.875C7.4017 7.875 7.01634 7.48964 7.01634 7.01632C7.01634 6.543 7.4017 6.15625 7.87502 6.15625C8.34833 6.15625 8.73509 6.54161 8.73509 7.01632C8.73509 7.48964 8.34833 7.875 7.87502 7.875ZM7.87502 4.4375C6.44947 4.4375 5.29759 5.59078 5.29759 7.01632C5.29759 8.44187 6.44947 9.59515 7.87502 9.59515C9.30056 9.59515 10.4524 8.44326 10.4524 7.01632C10.4524 5.58938 9.29637 4.4375 7.87502 4.4375Z" fill="white" stroke="white" stroke-width="0.25"/>
<path d="M15.61 7.875C15.1353 7.875 14.75 7.48964 14.75 7.01632C14.75 6.543 15.1353 6.15625 15.61 6.15625C16.0834 6.15625 16.4701 6.54161 16.4701 7.01632C16.4687 7.48964 16.0834 7.875 15.61 7.875ZM15.61 4.4375C14.1845 4.4375 13.0326 5.59078 13.0326 7.01632C13.0326 8.44187 14.1845 9.59515 15.61 9.59515C17.0356 9.59515 18.1875 8.44326 18.1875 7.01632C18.1875 5.58938 17.0356 4.4375 15.61 4.4375Z" fill="white" stroke="white" stroke-width="0.25"/>
<path d="M23.3438 7.875C22.8705 7.875 22.4837 7.48964 22.4837 7.01632C22.4837 6.543 22.8705 6.15625 23.3438 6.15625C23.8171 6.15625 24.2039 6.54161 24.2039 7.01632C24.2039 7.48964 23.8185 7.875 23.3438 7.875ZM23.3438 4.4375C21.9169 4.4375 20.765 5.59078 20.765 7.01632C20.765 8.44187 21.9169 9.59515 23.3438 9.59515C24.7694 9.59515 25.9212 8.44326 25.9212 7.01632C25.9212 5.58938 24.7694 4.4375 23.3438 4.4375Z" fill="white" stroke="white" stroke-width="0.25"/>
<path d="M37.0938 7.875H30.2187V6.15625H37.0938V7.875ZM37.9538 4.4375H29.3601C28.8868 4.4375 28.5 4.82425 28.5 5.29757V8.73507C28.5 9.20839 28.8854 9.59515 29.3601 9.59515H37.9538C38.4271 9.59515 38.8125 9.20979 38.8125 8.73507V5.29757C38.8125 4.82425 38.4271 4.4375 37.9538 4.4375Z" fill="white" stroke="white" stroke-width="0.25"/>
<path d="M22.055 22.485C24.4035 22.485 26.6793 23.285 28.5056 24.7608L29.6477 23.4721C24.4956 19.2723 16.9183 20.0444 12.7185 25.195C8.51866 30.3415 9.29077 37.9202 14.4372 42.1242C19.0909 45.9136 25.8248 45.7042 30.2285 41.616V39.0763C26.7617 43.5931 20.2916 44.4476 15.7804 40.9807C13.4864 39.2229 12.0357 36.5757 11.7816 33.6952C13.432 34.5162 15.2443 34.9463 17.0845 34.9602C19.1649 34.9658 21.2103 34.4129 23.0073 33.3643C23.6998 33.0279 24.4328 32.7779 25.184 32.6118L25.0765 32.5196C24.6464 32.1385 24.3588 31.6302 24.2513 31.069C23.5476 31.2644 22.8635 31.5185 22.21 31.8397L22.1179 31.8927C21.9168 32.0198 17.3232 34.9253 11.7956 31.7657C12.3276 26.4991 16.762 22.4906 22.055 22.485Z" fill="white" stroke="white" stroke-width="0.25"/>
<path d="M2.71875 3.57882C2.71875 3.1055 3.10411 2.71875 3.57882 2.71875H40.5312C41.0046 2.71875 41.3913 3.1055 41.3913 3.57882V11.3125H2.71875V3.57882ZM41.3913 53.4226C41.3913 53.8959 41.0046 54.2812 40.5312 54.2812H3.57882C3.10411 54.2812 2.71875 53.8945 2.71875 53.4226V13.0312H41.3913V20.7663H43.1101V3.57882C43.1101 2.15328 41.9568 1 40.5312 1H3.57882C2.15188 1 1 2.15328 1 3.57882V53.4226C1 54.8481 2.15188 56 3.57882 56H40.5312C41.9568 56 43.1087 54.8481 43.1087 53.4226V49.125H41.3899V53.4226" fill="white"/>
<path d="M41.3913 53.4226C41.3913 53.8959 41.0046 54.2812 40.5312 54.2812H3.57882C3.10411 54.2812 2.71875 53.8945 2.71875 53.4226V13.0312H41.3913V20.7663H43.1101V3.57882C43.1101 2.15328 41.9568 1 40.5312 1H3.57882C2.15188 1 1 2.15328 1 3.57882V53.4226C1 54.8481 2.15188 56 3.57882 56H40.5312C41.9568 56 43.1087 54.8481 43.1087 53.4226V49.125H41.3899V53.4226M2.71875 3.57882C2.71875 3.1055 3.10411 2.71875 3.57882 2.71875H40.5312C41.0046 2.71875 41.3913 3.1055 41.3913 3.57882V11.3125H2.71875V3.57882Z" stroke="white" stroke-width="0.25"/>
<path d="M51.6215 32.5394L49.6528 30.3222C49.3303 29.9703 48.7788 29.9466 48.4325 30.2733C48.2566 30.4283 48.1547 30.6545 48.1491 30.8932V45.689H33.6661V31.0147C33.6507 30.5358 33.2514 30.156 32.7725 30.17C32.5379 30.1742 32.3187 30.2733 32.1624 30.4381L30.3012 32.538L27.9974 30.5065L33.3254 24.5055L40.3959 29.8181C40.6989 30.0429 41.1191 30.0471 41.4207 29.8181L48.5931 24.4999L53.9253 30.5065L51.6215 32.5394ZM46.112 24.2039L40.9125 28.0617L35.7856 24.2039H46.112ZM55.785 30.0136L49.354 22.7728C49.139 22.5285 48.797 22.4307 48.4842 22.5187C48.4116 22.4991 33.5083 22.4991 33.4399 22.5131C33.123 22.4251 32.7809 22.5271 32.5659 22.7714L26.1349 30.0122C25.8221 30.3641 25.857 30.9058 26.2075 31.2227C26.2075 31.2227 26.2075 31.2227 26.2131 31.2227L29.8013 34.3922C30.163 34.7049 30.7005 34.6714 31.0175 34.3196L31.9445 33.2738V46.5449C31.9445 47.0196 32.3313 47.405 32.8046 47.405H49.0064C49.4853 47.405 49.8651 47.0196 49.8651 46.5449V33.1509L50.8997 34.3182C51.218 34.67 51.7597 34.7035 52.1158 34.3908L55.7083 31.2214C56.0643 30.9128 56.0978 30.3711 55.785 30.0136Z" fill="white" stroke="white" stroke-width="0.25"/>
</svg>
