<svg width="561" height="468" viewBox="0 0 561 468" fill="none" xmlns="http://www.w3.org/2000/svg">
<g opacity="0.13" clip-path="url(#clip0_55_24)">
<g style="mix-blend-mode:multiply" opacity="0.5">
<path d="M266.847 384.723C294.169 399.259 320.563 415.958 350.171 424.033C350.27 424.033 350.33 423.854 350.23 423.82C324.392 414.22 302.861 395.013 277.043 386.322C280.268 387.185 283.537 387.876 286.835 388.392C312.852 396.984 340.233 397.846 366.733 404.023C366.978 404.083 367.038 403.658 366.813 403.578C364.428 402.809 362.038 402.046 359.645 401.289C363.178 402.019 366.687 402.767 370.172 403.532C370.364 403.572 370.423 403.207 370.231 403.174C366.303 402.444 362.381 401.668 358.452 400.911C344.394 396.493 330.103 392.465 315.647 389.705C332.561 389.115 349.674 386.872 365.223 386.514C365.276 386.514 365.282 386.408 365.223 386.408C350.078 385.778 334.986 384.537 319.854 383.893C303.895 383.23 287.04 385.393 271.246 382.825C304.279 382.825 337.934 371.858 370.96 372.482C371.013 372.482 371.02 372.376 370.96 372.376C329.057 369.549 286.444 376.469 244.421 377.683L240.254 376.927C278.209 374.645 316.442 363.572 353.775 355.431C354.013 355.385 353.993 354.96 353.775 354.987C312.832 359.949 270.352 361.92 230.257 374.996L226.646 374.333L226.315 374.18C226.125 374.108 225.915 374.108 225.725 374.18C223.142 373.709 220.558 373.232 217.974 372.767C257.108 367.081 294.209 346.614 333.535 343.091C333.661 343.091 333.648 342.865 333.535 342.872C292.095 344.862 253.001 360.686 212.753 371.845C209.958 371.354 207.16 370.87 204.359 370.392C249.635 362.683 291.386 332.854 337.523 327.267C337.768 327.267 337.749 326.796 337.523 326.823C288.882 331.467 239.89 351.371 192.991 368.501C189.983 368.024 186.969 367.579 183.954 367.128C227.958 356.512 268.331 333.019 310.546 314.137C310.838 314.011 310.692 313.514 310.394 313.613C264.581 329.477 218.027 339.687 175.057 365.827C173.301 365.582 171.545 365.336 169.757 365.104C186.319 358.874 202.339 349.042 217.762 340.225C239.857 327.619 261.302 313.321 283.39 300.676C283.45 300.676 283.423 300.543 283.39 300.57C260.904 311.55 237.896 320.825 215.41 331.812C196.76 340.934 176.375 349.964 159.435 363.771C153.592 363.054 147.742 362.391 141.885 361.78C163.344 356.645 183.881 347.118 203.531 335.069C227.607 320.301 247.681 298.805 269.219 279.518C269.378 279.372 269.219 279.087 269.047 279.226C246.945 297.75 221.644 309.559 197.43 323.253C174.924 335.978 151.949 347.516 129.615 360.686C126.965 360.46 124.282 360.234 121.606 360.022C167.279 335.793 209.163 304.239 253.517 276.333C253.67 276.241 253.517 275.922 253.385 276.022C229.177 290.883 204.684 304.391 180.509 318.563C194.658 308.532 208.04 297.459 220.544 285.436C222.101 284.819 223.652 284.176 225.222 283.572C225.268 283.572 225.255 283.452 225.222 283.466L221.644 284.368C227.183 279.025 232.602 273.496 237.902 267.781C238.081 267.589 237.902 267.231 237.69 267.417C231.092 273.786 224.325 279.792 217.391 285.436C188.791 292.734 159.335 300.556 131.861 312.293C103.844 324.262 76.4823 341.021 50.3862 358.563C44.9227 358.731 39.4548 358.967 33.9825 359.272C61.2778 344.63 88.6526 331.48 116.047 316.871C145.641 301.094 174.162 283.698 204.565 270.196C204.624 270.196 204.565 270.07 204.532 270.09C172.731 280.135 140.268 289.689 109.793 305.121C81.1 319.677 55.0568 338.791 29.1263 359.591C19.1225 360.223 9.12523 361.09 -0.865387 362.192C24.5484 349.586 50.8102 338.048 74.8923 322.285C102.307 304.371 129.324 285.396 156.54 266.999C156.586 266.999 156.54 266.879 156.493 266.906C127.86 281.92 98.9877 296.396 70.5198 311.908C44.5561 326.007 20.103 345.267 -4.60192 362.616C-8.1353 363.028 -11.6554 363.47 -15.1623 363.943C6.44868 342.659 32.4322 327.46 56.4613 310.581C82.8225 292.004 108.879 274.091 137.877 262.341C137.936 262.341 137.877 262.215 137.877 262.235C108.594 270.628 78.6553 280.115 51.7509 297.159C24.4888 314.409 4.79904 339.216 -17.2956 364.282C-19.8926 364.64 -22.4962 364.985 -25.0866 365.376C9.78111 324.487 53.1687 283.107 99.6502 264.438C99.8357 264.365 99.743 264.04 99.5508 264.099C73.2029 273.136 47.8156 283.884 24.6279 302.115C3.57343 318.702 -13.3536 340.536 -27.0079 365.688C-30.983 366.305 -34.9116 366.935 -38.8602 367.632C-22.96 347.144 -6.82132 327.652 11.4904 309.958C29.3118 292.668 45.795 274.091 64.1266 257.504C64.3849 257.272 64.1266 256.881 63.8616 257.047C43.4299 270.037 23.0909 284.043 6.27644 303.184C-11.1077 322.995 -27.7963 344.902 -41.8415 368.156L-42.2191 368.229C-34.9315 358.277 -31.3076 344.02 -25.716 332.9C-16.1295 313.852 -2.97878 300.636 8.62834 283.804C8.75423 283.618 8.5356 283.406 8.40309 283.578C-2.30302 297.69 -16.3747 306.202 -26.3057 321.707C-30.2174 327.69 -33.4757 334.076 -36.0246 340.755C-39.304 349.666 -40.1918 360.035 -44.2861 368.621H-44.3457C-42.2257 360.128 -42.1065 351.092 -41.3512 342.361C-40.2514 329.569 -37.29 318.437 -31.1353 307.529C-31.036 307.35 -31.2347 307.144 -31.354 307.317C-42.3516 323.472 -49.5862 348.942 -49.0959 369.523C-75.521 374.637 -101.53 381.711 -126.907 390.687C-127.086 390.747 -126.993 391.052 -126.815 390.999C-99.0295 382.992 -70.6922 377.049 -42.0336 373.218C-33.7655 379.787 -29.9163 390.296 -25.0336 401.084C-20.151 411.872 -14.4799 421.545 -6.25819 428.949C-5.94682 429.234 -5.41018 428.723 -5.69506 428.332C-14.4402 416.39 -15.8844 399.956 -23.5827 387.41C-27.2551 381.46 -32.2271 376.422 -38.1248 372.674C-34.375 372.183 -30.6318 371.746 -26.8622 371.347C-26.9915 371.413 -27.1042 371.507 -27.192 371.623C-27.2797 371.739 -27.3402 371.873 -27.3689 372.015C-27.3976 372.157 -27.3937 372.304 -27.3576 372.445C-27.3215 372.586 -27.254 372.716 -27.1603 372.827C-16.6927 382.626 -11.5185 398.569 -4.30379 411.56C2.62602 424.039 10.4966 435.152 20.739 443.937C20.8317 444.016 20.951 443.857 20.8582 443.757C9.13847 430.647 1.64552 414.121 -6.01969 397.488C-10.9752 386.773 -15.6327 374.34 -26.5574 371.334C-26.5969 371.328 -26.6372 371.328 -26.6767 371.334C-22.9622 370.918 -19.2455 370.527 -15.5267 370.16C-4.40318 381.558 0.651764 397.985 9.78111 411.646C18.8007 425.04 29.5969 437.144 41.873 447.625C42.0187 447.751 42.1976 447.506 42.0585 447.36C27.6821 432.399 18.2082 414.937 9.1716 395.186C4.49429 384.988 -2.68729 374.426 -12.0286 369.848C-8.81548 369.549 -5.60231 369.258 -2.38252 369.005C-2.37078 369.179 -2.3086 369.345 -2.20365 369.483C8.11821 382.235 15.1143 398.549 24.8796 412.024C34.2409 424.942 45.3445 435.511 57.0311 445.33C57.5148 445.741 58.111 444.918 57.6539 444.454C43.6816 430.269 34.0024 411.945 24.0714 393.772C17.7908 382.275 11.4837 372.999 0.419884 368.78C2.54652 368.627 4.67979 368.475 6.80644 368.342C23.9389 379.143 33.2272 402.623 47.4181 417.836C61.609 433.049 78.3837 444.812 95.0524 455.879C95.2379 456.005 95.43 455.647 95.2578 455.501C75.0844 438.629 59.913 416.695 43.6816 394.986C34.7245 383.004 23.8064 373.616 11.3115 368.03C15.4853 367.785 19.6657 367.599 23.8461 367.426C34.6119 373.351 44.9735 379.674 53.8776 389.055C61.8277 397.408 67.7372 407.917 74.9254 417.106C90.4082 436.917 107.05 453.451 126.303 467.994C126.349 468.027 126.409 467.947 126.362 467.901C106.03 449.987 94.4959 422.421 75.6807 402.742C62.3577 388.81 45.7817 373.842 28.2651 367.241C33.9096 367.035 39.5277 366.902 45.212 366.809C80.9211 395.577 99.8224 446.146 146.986 454.612C147.165 454.612 147.212 454.333 147.039 454.28C121.129 446.471 106.13 419.057 89.0965 397.003C78.3506 383.071 65.9087 372.575 50.7505 366.75C55.2291 366.701 59.7054 366.69 64.1796 366.716C80.6495 381.399 93.893 400.367 109.893 415.812C126.839 432.16 146.549 442.61 166.365 453.344C166.59 453.464 166.736 453.066 166.53 452.933C145.456 438.722 126.422 423.217 108.965 403.366C96.3112 388.982 84.1807 375.6 68.413 366.743C71.6902 366.778 74.9762 366.827 78.2711 366.889C119.949 399.067 155.009 444.149 202.796 464.504C203.187 464.676 203.458 463.986 203.081 463.787C160.283 441.986 133.431 388.597 90.7792 367.201C96.521 367.387 102.278 367.608 108.051 367.864C129.914 381.094 148.245 402.192 166.524 421.386C183.822 439.551 204.32 455.388 226.335 464.577C226.56 464.67 226.726 464.285 226.5 464.165C183.404 441.747 162.456 384.769 116.849 368.335L119.313 368.461C123.682 368.709 128.047 368.977 132.411 369.264C167.915 403.552 207.221 431.762 243.997 463.873C245.044 465.054 246.091 466.242 247.157 467.396C247.204 467.443 247.257 467.357 247.217 467.31C246.753 466.713 246.309 466.103 245.892 465.499C246.694 466.202 247.502 466.899 248.297 467.609C248.741 468 249.218 467.27 248.853 466.813C245.157 462.124 241.391 457.48 237.558 452.88C219.968 423.276 209.666 387.191 179.906 373.192C189.181 374.107 198.457 375.107 207.732 376.191C218.332 392.074 222.817 412.309 231.343 430.037C239.87 447.765 254.021 459.03 269.371 467.343C269.537 467.436 269.656 467.138 269.497 467.038C249.768 453.928 241.89 431.118 232.9 407.738C228.084 395.192 221.3 383.854 211.362 376.609C214.388 376.971 217.413 377.347 220.439 377.737C231.184 394.668 238.121 414.784 250.47 430.15C263.144 445.88 278.752 454.983 295.944 462.228C296.057 462.275 296.137 462.082 296.024 462.022C278.308 452.011 263.515 436.088 251.053 418.413C241.672 405.058 233.702 389.739 222.83 378.028L227.971 378.692C252.948 402.895 276.281 430.442 306.717 445.038C306.896 445.117 307.028 444.786 306.849 444.706C278.269 431.868 262.793 397.733 237.14 380.211C254.299 386.979 267.887 403.465 283.151 414.379C297.064 424.331 312.52 429.977 328.646 433.056C328.705 433.056 328.719 432.963 328.646 432.943C305.114 426.103 289.121 409.722 270.471 393.135C265.778 388.849 260.503 385.248 254.803 382.44C258.756 383.002 262.687 383.597 266.595 384.225C266.59 384.323 266.61 384.42 266.655 384.508C266.699 384.595 266.765 384.669 266.847 384.723ZM135.154 324.036C161.694 311.908 187.565 298.904 214.357 287.891C172.367 321.442 124.965 342.839 76.3101 358.291C69.8793 358.242 63.442 358.288 56.998 358.43C82.9881 346.627 109.151 335.919 135.154 324.036ZM91.8326 358.569C111.184 354.588 129.927 347.649 147.927 338.367C137.327 345.114 126.853 352.167 116.531 359.717C114.225 359.571 111.893 359.399 109.608 359.272C103.718 358.961 97.7554 358.742 91.8326 358.569ZM213.628 422.706C216.198 426.766 218.833 430.778 221.532 434.741C195.926 407.121 167.272 383.509 134.279 369.41C147.114 370.295 159.954 371.328 172.798 372.508C190.818 384.225 201.391 403.406 213.628 422.706Z" fill="#C36801"/>
</g>
</g>
<g style="mix-blend-mode:multiply" opacity="0.13" clip-path="url(#clip1_55_24)">
<g style="mix-blend-mode:multiply" opacity="0.5">
<path d="M441.734 284.661C461.016 318.676 477.847 354.358 503.942 383.013C504.034 383.105 504.235 382.929 504.151 382.82C483.123 355.079 473.156 320 451.534 293.246C454.379 296.357 457.393 299.307 460.564 302.083C482.454 328.887 511.008 348.378 535.08 372.945C535.297 373.171 535.649 372.752 535.456 372.518C533.45 370.083 531.423 367.651 529.378 365.222C532.627 368.377 535.86 371.552 539.077 374.746C539.252 374.913 539.562 374.57 539.378 374.402C535.682 370.96 532.028 367.475 528.366 364.008C516.376 349.768 503.867 335.78 490.33 323.04C508.725 333.929 528.5 343.093 545.297 353.261C545.356 353.261 545.44 353.186 545.381 353.144C529.679 342.213 514.444 330.654 498.75 319.715C482.203 308.164 462.796 299.059 447.696 285.616C482.88 308.005 526.15 319.12 560.9 342.196C560.958 342.196 561.042 342.129 560.983 342.087C518.249 310.669 468.173 289.151 422.553 261.962L418.682 258.301C460.656 281.604 508.851 295.717 554.135 312.361C554.428 312.47 554.696 312.001 554.411 311.867C507.463 289.435 460.873 262.741 409.318 249.49L405.923 246.324C405.839 246.198 405.764 246.056 405.672 245.93C405.528 245.72 405.31 245.573 405.062 245.52C402.626 243.258 400.193 241.002 397.762 238.752C443.273 259.248 496.635 262.598 540.924 285.482C541.067 285.557 541.2 285.314 541.067 285.239C495.556 259.273 443.239 249.624 392.821 234.237C390.173 231.819 387.517 229.404 384.852 226.992C438.298 249.473 502.931 245.989 555.883 271.385C556.159 271.519 556.435 271.025 556.159 270.891C501.2 242.881 435.572 230.845 374.024 217.284C371.148 214.771 368.238 212.258 365.329 209.687C419.376 228.231 478.265 230.552 535.991 239.053C536.393 239.112 536.568 238.475 536.192 238.392C476.651 224.236 420.162 203.555 356.717 202.274C355.044 200.828 353.339 199.381 351.599 197.935C373.422 202.508 397.16 202.902 419.543 203.966C451.617 205.49 484.109 204.803 516.192 206.32C516.275 206.32 516.309 206.194 516.234 206.186C484.854 202.642 454.076 196.922 422.696 193.395C396.667 190.464 368.84 186.259 341.466 189.492C335.758 184.779 329.969 180.111 324.099 175.487C350.429 184.533 378.774 188.319 407.838 188.788C443.448 189.366 479.377 180.086 515.356 174.13C515.623 174.088 515.64 173.67 515.356 173.703C479.285 178.461 444.351 173.887 409.309 172.028C376.7 170.353 344.467 167.061 311.775 165.947C309.082 163.903 306.39 161.851 303.672 159.832C368.715 164.95 434.661 159.732 500.765 160.067C500.991 160.067 501.066 159.64 500.84 159.64C465.004 159.062 429.769 156.85 394.418 155.535C416.268 154.449 438.007 151.725 459.452 147.385C461.534 147.788 463.633 148.148 465.698 148.566C465.765 148.566 465.815 148.458 465.748 148.441L461.35 147C470.865 145.068 480.372 142.857 489.87 140.366C490.188 140.283 490.23 139.772 489.87 139.839C478.532 142.15 467.295 143.935 456.066 145.275C420.655 133.682 384.008 122.031 346.808 115.9C308.915 109.66 268.446 108.964 228.789 109.961C222.852 106.438 216.868 102.987 210.837 99.6083C249.809 102.498 287.861 107.055 326.909 110.062C369.1 113.312 411.257 114.074 452.746 120.331C452.83 120.331 452.863 120.222 452.746 120.197C412.102 109.358 371.023 97.4975 328.163 93.3095C287.736 89.356 247.058 92.0698 205.402 96.6599C194.315 90.5454 183.077 84.6821 171.689 79.0702C207.275 82.8813 243.061 88.376 279.358 87.9069C320.688 87.3792 362.277 85.503 403.699 84.3471C403.766 84.3471 403.791 84.2215 403.699 84.2215C363.054 80.804 322.51 76.683 281.724 73.8602C244.516 71.3055 205.444 75.2507 167.408 76.9845C163.378 75.0413 159.326 73.1287 155.251 71.2469C192.668 63.2142 230.62 64.6382 267.644 62.8708C308.263 60.9611 348.155 59.5204 386.976 66.6652C387.06 66.6652 387.093 66.5563 386.976 66.5312C350.111 55.6423 311.808 45.4402 271.59 45.3564C230.887 45.2727 193.153 58.3394 152.676 70.0659C149.666 68.6922 146.664 67.2934 143.637 65.9532C208.42 46.0265 282.577 31.3684 344.726 42.9609C344.986 43.0111 345.094 42.6007 344.852 42.5421C310.679 34.3 276.373 28.5373 239.349 32.2479C205.728 35.5983 172.927 47.4421 141.379 64.99C136.756 62.9629 132.115 60.9527 127.441 59.0262C158.253 47.9865 188.587 38.1363 220.068 31.7034C250.712 25.4381 280.863 16.7521 311.591 11.5338C312.009 11.4668 312.009 10.8721 311.591 10.8721C281.038 10.8721 249.926 11.9861 219.056 20.9988C187.149 30.3214 154.565 42.3494 123.896 57.6106L123.436 57.4347C137.951 51.7976 151.421 39.0074 164.9 30.9747C187.977 17.1793 210.887 12.0113 234.667 1.93483C234.926 1.82594 234.834 1.44902 234.575 1.54115C213.671 9.32253 192.893 8.85347 171.865 18.6367C163.659 22.3642 155.875 26.9609 148.645 32.3484C139.13 39.6188 131.179 50.0722 121.011 56.4548H120.936C128.929 48.8493 135.15 39.3005 141.839 30.4889C151.655 17.6065 162.341 7.74784 176.263 0.293126C176.497 0.175861 176.43 -0.175936 176.179 -0.0754231C153.545 9.68271 128.628 31.9212 115.234 54.1848C83.6323 41.7145 51.1481 31.6185 18.0502 23.9807C17.816 23.9304 17.7073 24.3157 17.9331 24.3744C52.9359 34.6785 87.1318 47.5568 120.242 62.9043C124.607 75.4684 121.605 89.3225 119.515 104.123C117.424 118.924 116.931 133.079 120.677 146.556C120.819 147.076 121.73 146.9 121.689 146.28C120.426 127.66 130.05 109.14 130.267 90.537C130.4 81.7199 128.533 72.9877 124.807 64.9983C129.127 67.0142 133.425 69.0747 137.7 71.1799C137.518 71.1617 137.334 71.1852 137.162 71.2486C136.99 71.312 136.835 71.4136 136.707 71.5458C136.58 71.678 136.485 71.8374 136.428 72.0119C136.371 72.1865 136.354 72.3717 136.379 72.5536C140.911 90.0931 135.644 110.589 134.557 129.318C133.503 147.318 134.373 164.498 139.348 180.798C139.398 180.957 139.624 180.856 139.598 180.697C135.97 158.777 139.189 136.111 142.232 113.169C144.197 98.3854 147.642 81.985 138.052 71.3725C138.012 71.3391 137.97 71.3083 137.926 71.2804C142.168 73.3577 146.391 75.4601 150.594 77.5876C154.774 97.2797 149.022 118.203 149.515 138.959C150.072 159.348 153.394 179.566 159.39 199.057C159.457 199.284 159.816 199.141 159.766 198.898C154.565 173.209 156.296 148.19 160 121.001C161.906 106.971 161.388 90.8469 154.515 79.6146C158.144 81.4825 161.764 83.3503 165.385 85.2685C165.285 85.4591 165.239 85.6733 165.251 85.8883C167.659 106.51 164.072 128.665 165.368 149.639C166.606 169.741 171.296 188.546 177.074 206.931C177.308 207.693 178.495 207.224 178.328 206.42C173.027 181.828 175.101 155.736 176.806 129.645C177.885 113.136 177.425 98.9717 168.495 86.9772C170.87 88.2503 173.239 89.5375 175.602 90.8385C186.556 113.965 180.569 145.283 185.41 171.115C190.251 196.947 200.176 220.86 210.452 243.987C210.561 244.246 211.021 243.987 210.929 243.719C200.828 212.082 199.499 178.385 196.882 144.27C195.435 125.423 190.134 108.009 180.611 93.6026C185.226 96.1741 189.808 98.8042 194.373 101.451C201.84 115.062 208.588 128.824 211.748 144.864C214.549 159.104 213.772 174.356 215.21 189.023C218.32 220.634 224.875 249.532 235.553 278.077C235.553 278.153 235.703 278.077 235.678 278.027C226.121 245.168 232.476 207.953 225.72 174.231C220.946 150.359 213.404 123.137 199.206 104.257C205.338 107.859 211.456 111.533 217.559 115.28C236.146 170.152 222.116 236.85 266.632 277.843C266.799 278.002 267.058 277.701 266.916 277.525C244.591 251.634 247.133 212.258 243.897 177.213C241.849 155.1 235.695 135.45 223.496 118.974C228.295 121.956 233.07 124.977 237.819 128.037C245.444 154.84 246.732 184.048 253.337 211.328C260.336 240.243 274.241 264.734 288.129 289.611C288.288 289.888 288.714 289.569 288.589 289.285C275.729 259.868 265.946 230.443 260.762 197.458C257 173.552 253.145 151.029 242.309 130.935C245.787 133.196 249.254 135.477 252.71 137.778C275.369 200.322 282.251 272.139 319.4 326.24C319.701 326.684 320.479 326.148 320.194 325.67C289.333 273.429 296.783 198.354 265.846 146.615C271.855 150.714 277.833 154.863 283.781 159.062C298.121 187.984 303.397 222.887 309.902 255.738C316.181 286.822 327.343 317.596 344.609 342.314C344.785 342.565 345.22 342.263 345.061 341.987C314.325 288.849 330.512 213.925 293.037 165.503L295.545 167.304C300.005 170.526 304.464 173.773 308.923 177.045C323.581 237.646 346.382 294.361 363.857 353.512C364.175 355.481 364.484 357.449 364.844 359.376C364.844 359.459 364.978 359.376 364.969 359.325C364.877 358.379 364.819 357.424 364.743 356.478C365.12 357.767 365.513 359.057 365.881 360.347C366.09 361.068 367.085 360.615 367.009 359.887C366.24 352.376 365.359 344.882 364.367 337.405C365.697 293.925 379.108 248.493 356.842 213.439C366.112 220.698 375.309 228.053 384.434 235.502C385.028 259.625 376.073 284.217 373.197 308.885C370.32 333.552 377.762 355.154 388.498 374.427C388.615 374.637 388.933 374.427 388.841 374.176C376.683 346.837 383.699 317.219 389.928 286.177C393.272 269.542 393.715 252.857 388.021 238.433C390.998 240.874 393.966 243.322 396.926 245.779C396.926 271.109 390.73 297.25 393.523 322.002C396.399 347.356 406.859 367.643 420.279 387.017C420.371 387.142 420.589 387.017 420.513 386.849C408.406 364.175 403.406 337.171 402.077 309.898C401.073 289.327 402.913 267.599 399.259 247.748C400.931 249.138 402.603 250.534 404.276 251.936C414.527 294.654 420.781 339.809 443.331 376.011C443.465 376.22 443.833 375.96 443.691 375.751C421.951 342.69 428.507 295.826 413.022 259.767C426.726 278.613 430.054 305.392 438.942 327.371C447.035 347.398 459.686 363.907 474.778 378.121C474.837 378.172 474.929 378.071 474.879 378.012C454.552 354.735 448.566 326.449 439.928 296.103C437.828 288.351 434.641 280.937 430.463 274.082C434.259 277.365 438.041 280.66 441.81 283.966C441.738 284.065 441.693 284.181 441.68 284.303C441.666 284.425 441.685 284.549 441.734 284.661ZM342.452 130.7C378.924 135.776 415.271 139.462 451.266 145.895C383.849 153.173 318.89 143.834 256.623 127.308C249.801 122.902 242.911 118.589 235.954 114.367C271.624 119.409 306.724 125.733 342.452 130.7ZM272.97 138.13C296.281 146.992 320.93 152.369 346.374 154.639C330.537 154.639 314.601 155.058 298.505 156.105C296.147 154.379 293.806 152.637 291.431 150.937C285.339 146.587 279.185 142.318 272.97 138.13ZM359.375 289.042C359.375 295.114 359.459 301.179 359.66 307.226C351.056 260.437 336.491 215.843 310.872 178.452C323.96 188.068 336.939 197.874 349.81 207.869C361.073 232.579 359.375 260.194 359.375 289.042Z" fill="#D37F01"/>
</g>
</g>
<defs>
<clipPath id="clip0_55_24">
<rect width="498" height="211" fill="white" transform="translate(-127 257)"/>
</clipPath>
<clipPath id="clip1_55_24">
<rect width="543" height="387" fill="white" transform="translate(18)"/>
</clipPath>
</defs>
</svg>
