<svg width="65" height="45" viewBox="0 0 65 45" fill="none" xmlns="http://www.w3.org/2000/svg">
<path fill-rule="evenodd" clip-rule="evenodd" d="M63.4951 41.9457C65.5016 41.9457 65.5016 45 63.4951 45H60.1665H56.1375H53.4973H25.789H1.50507C-0.501689 45 -0.501689 41.9457 1.50507 41.9457H9.40877C9.20148 39.5057 8.60664 34.8016 6.99531 31.9242C6.35586 32.5383 5.58339 33.583 5.19374 35.2451C4.73692 37.2024 1.77244 36.5061 2.22874 34.5527C2.76454 32.2675 3.87995 30.7374 4.86523 29.7774C4.10613 29.3915 3.01092 29.0497 1.54679 29.0955C-0.447374 29.1541 -0.539998 26.1116 1.46335 26.0533C3.79284 25.9807 5.55216 26.6618 6.73475 27.3676C8.323 24.6458 11.5349 22.0705 12.6839 24.2108C13.082 24.9518 12.8046 25.8761 12.0647 26.2749C11.049 26.8206 10.3513 27.4622 9.87398 28.0608C12.8524 28.2766 16.0302 29.703 14.8547 31.6101C14.4141 32.3246 13.4782 32.5464 12.7647 32.1051C11.7157 31.4537 10.7535 31.1735 9.96608 31.0752C11.6829 34.6218 12.2678 39.4957 12.4604 41.9454H19.3116C19.002 37.0224 17.6284 21.994 12.2557 14.524C10.8616 15.4624 8.35002 17.603 6.72924 21.6128C5.97671 23.4745 3.15392 22.3292 3.90646 20.4678C5.64899 16.1574 8.35921 13.6058 10.1568 12.2935C8.62737 11.0872 5.74397 9.38246 1.40378 9.07726C-0.599298 8.94004 -0.388336 5.89835 1.60635 6.03505C6.54478 6.3823 9.97212 8.33255 11.9096 9.81935C12.9836 7.2298 15.4516 3.12979 20.9009 0.200345C22.6663 -0.749674 24.1052 1.93582 22.3419 2.88479C17.9443 5.2488 15.8622 8.40562 14.9056 10.5167C17.7134 10.1971 22.3503 10.3845 27.436 13.5416C29.1381 14.5963 27.5388 17.1829 25.8401 16.1306C21.4273 13.3912 17.5237 13.2543 15.2501 13.5237C20.7367 21.9979 22.0657 37.0797 22.3566 41.9457H24.2645V20.5655C24.2645 19.722 24.9467 19.0383 25.7887 19.0383H53.497C54.339 19.0383 55.0213 19.722 55.0213 20.5655V41.9454H56.5455V26.0146H60.1662C61.0077 26.0146 61.6904 26.6981 61.6904 27.5416V41.9457H63.4951ZM31.1548 11.6174C30.3128 11.6174 29.6303 12.3011 29.6303 13.1444V17.5112H49.6564V13.1447C49.6564 12.3014 48.9737 11.6177 48.1322 11.6177H31.1548V11.6174ZM34.1172 41.9457H35.642V32.7828H43.6443V41.9457H45.1691V32.0194C45.1691 31.5975 44.8279 31.2555 44.4066 31.2555H34.8795C34.4583 31.2555 34.1169 31.5972 34.1169 32.0194V41.9457H34.1172Z" fill="#79DE90"/>
</svg>
