<svg width="72" height="70" viewBox="0 0 72 70" fill="none" xmlns="http://www.w3.org/2000/svg">
<path d="M36.1125 36.8464C34.7583 36.8464 33.8555 37.7493 33.8555 39.1035V43.6176C33.8555 44.9718 34.7583 45.8746 36.1125 45.8746C37.4668 45.8746 38.3696 44.9718 38.3696 43.6176V39.1035C38.3696 37.7493 37.4668 36.8464 36.1125 36.8464Z" fill="black"/>
<path d="M36.111 21.0471C32.274 21.0471 29.3398 23.9813 29.3398 27.8183V30.0753H42.8822V27.8183C42.8822 23.9813 39.948 21.0471 36.111 21.0471Z" fill="black"/>
<path d="M71.0972 26.2382C70.8715 25.1097 69.7429 24.4326 68.6144 24.4326C65.2288 24.884 62.069 23.3041 60.489 20.3699C58.9091 17.4357 59.1348 14.0502 61.1661 11.3417C61.8433 10.4389 61.8433 9.08464 60.9404 8.40752C56.8777 4.57053 51.6865 1.63636 46.2696 0.0564263C45.1411 -0.169279 44.0125 0.282132 43.5611 1.41066C42.2069 4.57053 39.2727 6.37618 36.1129 6.37618C32.953 6.37618 29.7931 4.34483 28.6646 1.41066C28.2132 0.282132 27.0846 -0.169279 25.9561 0.0564263C20.5392 1.63636 15.348 4.57053 11.2853 8.40752C10.3824 9.31034 10.3824 10.4389 11.0596 11.3417C13.0909 14.0502 13.3166 17.4357 11.7367 20.3699C10.1567 23.3041 6.99687 24.884 3.61129 24.4326C2.48276 24.2069 1.35423 25.1097 1.12853 26.2382C0.451411 28.9467 0 31.8809 0 34.5893C0 37.2978 0.451411 40.232 1.12853 42.9404C1.35423 44.069 2.48276 44.7461 3.61129 44.7461C6.77116 44.2947 9.93103 45.8746 11.511 48.8088C13.0909 51.7429 12.8652 55.1285 10.8339 57.837C10.1567 58.7398 10.1567 60.094 11.0596 60.7712C15.1223 64.6081 20.3135 67.5423 25.7304 69.1223C26.8589 69.348 27.9875 68.8966 28.4389 67.768C29.7931 64.6081 32.7273 62.8025 35.8871 62.8025C39.047 62.8025 42.2069 64.8339 43.3354 67.768C43.7868 68.6708 44.464 69.1223 45.3668 69.1223C45.5925 69.1223 45.8182 69.1223 46.0439 69.1223C51.4608 67.5423 56.4263 64.6081 60.7147 60.7712C61.6176 59.8683 61.6176 58.7398 60.9404 57.837C58.9091 55.1285 58.6834 51.7429 60.2633 48.8088C61.8433 45.8746 65.0031 44.2947 68.3887 44.7461C69.5172 44.9718 70.6458 44.069 70.8715 42.9404C71.5486 40.0063 72 37.2978 72 34.5893C72 31.8809 71.7743 28.9467 71.0972 26.2382ZM49.6552 45.8746C49.6552 49.7116 46.721 52.6458 42.884 52.6458H29.3417C25.5047 52.6458 22.5705 49.7116 22.5705 45.8746V36.8464C22.5705 34.815 23.4734 33.0094 24.8276 31.8809V27.8182C24.8276 21.4984 29.7931 16.5329 36.1129 16.5329C42.4326 16.5329 47.3981 21.4984 47.3981 27.8182V31.8809C48.7524 33.0094 49.6552 34.815 49.6552 36.8464V45.8746Z" fill="black"/>
</svg>
