<svg width="77" height="45" viewBox="0 0 77 45" fill="none" xmlns="http://www.w3.org/2000/svg">
<path d="M25.3448 14.7949C25.3448 14.3758 25.0059 14.0344 24.5843 14.0344C24.1627 14.0344 23.8238 14.3733 23.8238 14.7949V35.2971C23.8238 35.5857 23.9845 35.8392 24.2229 35.9672L38.2173 44.139C38.4884 44.2971 38.8171 44.2695 39.0556 44.0913L52.2569 35.9446C52.4928 35.7991 52.6208 35.5481 52.6183 35.2896V14.7497C52.6183 14.3306 52.2795 13.9893 51.8579 13.9893C51.4362 13.9893 51.0974 14.3281 51.0974 14.7497L25.3448 14.7949Z" fill="#79DE90"/>
<path fill-rule="evenodd" clip-rule="evenodd" d="M9.15679 36.4493H18.3249L16.3422 29.7457H10.1431L9.15679 36.4493ZM8.71005 39.4886L8.50425 40.8891C8.38127 41.7148 7.6158 42.292 6.78758 42.1741C5.95685 42.0561 5.37709 41.2856 5.50007 40.4549L7.0762 29.7482H6.78256C6.09237 29.7482 5.4825 29.2915 5.30431 28.6214L0.0513806 9.01512C-0.164459 8.20948 0.319925 7.37122 1.12556 7.15538C1.93119 6.93955 2.76694 7.42393 2.98278 8.22956L7.93454 26.7089H21.6278C22.466 26.7089 23.1462 27.3891 23.1462 28.2273C23.1462 29.0656 22.466 29.7457 21.6278 29.7457H19.5045L21.811 37.5461L22.594 40.2491C22.8275 41.0522 22.3631 41.8955 21.56 42.1264C20.7569 42.3598 19.9136 41.8955 19.6827 41.0924L19.2184 39.4886H8.71005Z" fill="#79DE90"/>
<path fill-rule="evenodd" clip-rule="evenodd" d="M58.6593 16.1931H17.7854V13.1538H58.6593V16.1931Z" fill="#79DE90"/>
<path fill-rule="evenodd" clip-rule="evenodd" d="M26.9083 41.9629H49.7848C50.6231 41.9629 51.3032 42.643 51.3032 43.4813C51.3032 44.3196 50.6231 44.9997 49.7848 44.9997H26.9083C26.0701 44.9997 25.3899 44.3196 25.3899 43.4813C25.3899 42.643 26.0701 41.9629 26.9083 41.9629Z" fill="#79DE90"/>
<path d="M47.7569 8.01886C47.1069 7.84318 46.5246 7.49683 46.0603 7.03504C45.3726 6.34736 44.946 5.39867 44.946 4.3521V2.8337C44.946 2.41457 45.2848 2.07324 45.7064 2.07324H51.7826C52.2017 2.07324 52.543 2.41206 52.543 2.8337V4.3521C52.543 5.39616 52.1164 6.34736 51.4287 7.03504C50.9644 7.49934 50.3821 7.84318 49.7321 8.01886V10.6867C50.2767 10.6867 50.7184 11.1285 50.7184 11.6731C50.7184 12.2177 50.2767 12.6594 49.7321 12.6594H47.7619C47.2173 12.6594 46.7756 12.2177 46.7756 11.6731C46.7756 11.1285 47.2173 10.6867 47.7619 10.6867L47.7569 8.01886Z" fill="#79DE90"/>
<path d="M41.7159 9.61991C41.2918 6.77886 39.5048 4.91411 37.2962 4.03068C36.7943 3.82989 36.2697 3.68182 35.7377 3.58394V1.5184C35.7377 0.680145 35.0575 0 34.2193 0C33.381 0 32.7009 0.680145 32.7009 1.5184V3.58394C31.4736 3.80731 30.299 4.30675 29.3127 5.07725C27.9951 6.10625 27.0213 7.62214 26.7226 9.61991H25.4276C24.5893 9.61991 23.9092 10.3001 23.9092 11.1383C23.9092 11.9766 24.5893 12.6567 25.4276 12.6567H42.7625C43.6007 12.6567 44.2809 11.9766 44.2809 11.1383C44.2809 10.3001 43.6007 9.61991 42.7625 9.61991H41.7159Z" fill="#79DE90"/>
<path fill-rule="evenodd" clip-rule="evenodd" d="M67.7948 39.4886H57.2865L56.8222 41.0924C56.5888 41.8955 55.748 42.3598 54.9449 42.1264C54.1417 41.893 53.6774 41.0497 53.9108 40.2491L54.6964 37.5436L57.0029 29.7457H54.8796C54.0414 29.7457 53.3612 29.0656 53.3612 28.2273C53.3612 27.3891 54.0414 26.7089 54.8796 26.7089H68.5729L73.5246 8.22956C73.7405 7.42393 74.5762 6.93955 75.3818 7.15538C76.1875 7.37122 76.6719 8.20697 76.456 9.01512L71.2031 28.6214C71.0224 29.2915 70.4125 29.7482 69.7248 29.7482H69.4312L71.0073 40.4549C71.1303 41.2856 70.5506 42.0561 69.7198 42.1741C68.8916 42.292 68.1261 41.7148 68.0032 40.8891L67.7948 39.4886ZM67.3481 36.4493L66.3618 29.7457H60.1627L58.1799 36.4493H67.3481Z" fill="#79DE90"/>
</svg>
