<svg width="239" height="208" viewBox="0 0 239 208" fill="none" xmlns="http://www.w3.org/2000/svg">
<g style="mix-blend-mode:hard-light" opacity="0.12" clip-path="url(#clip0_1_304)">
<path fill-rule="evenodd" clip-rule="evenodd" d="M58.8956 103.678L59.4909 102.767C59.7114 102.433 59.9319 102.056 60.1745 101.7C60.1182 101.614 60.0667 101.525 60.0201 101.434C58.0577 96.8119 63.7466 90.4347 68.8401 88.3239C69.4953 86.6433 70.4189 85.0822 71.5743 83.7022C72.6548 78.1694 77.0207 70.7702 80.7912 69.437C81.4981 69.1801 82.2448 69.0523 82.9962 69.0593C83.6456 68.7105 84.3245 68.4205 85.0248 68.1927C85.2453 67.215 85.4438 66.2596 85.6422 65.2819C85.1783 64.8351 84.7975 64.3084 84.5177 63.7265C81.9378 58.6382 89.7435 49.3503 94.8371 49.8835C95.3075 49.9286 95.741 50.1597 96.0427 50.5262C96.3444 50.8927 96.4897 51.3647 96.4467 51.8389C96.4467 52.2611 96.2703 52.6388 96.1601 53.0165C97.2959 52.7115 98.4687 52.5693 99.644 52.5944L100.35 51.8833C102.809 47.1024 106.804 43.3032 111.683 41.1067C111.917 40.991 112.173 40.9308 112.433 40.9308C112.693 40.9308 112.949 40.991 113.183 41.1067C114.369 40.4865 115.652 40.0733 116.975 39.8846C117.245 39.8433 117.521 39.8643 117.782 39.9459C118.043 40.0275 118.283 40.1678 118.482 40.356C118.682 40.5441 118.836 40.7755 118.934 41.0325C119.032 41.2895 119.071 41.5656 119.048 41.84C118.956 43.6292 118.255 45.3318 117.063 46.6616C116.368 48.9717 115.092 51.0613 113.359 52.7277C113.868 52.9379 114.3 53.303 114.594 53.772C114.974 54.3262 115.209 54.9682 115.277 55.6385H115.917C116.387 55.6944 116.817 55.9317 117.117 56.3004C117.417 56.6692 117.564 57.1407 117.527 57.6161C117.376 58.7535 116.952 59.8366 116.292 60.7713C114.439 63.4436 112.105 65.7424 109.412 67.5483L107.869 68.4815C108.21 68.5033 108.536 68.627 108.807 68.8367C109.078 69.0465 109.281 69.3328 109.39 69.6592C111.595 74.4587 105.972 79.6803 102.775 82.3467C98.9937 85.8587 94.5972 88.6316 89.8097 90.5237C89.3016 90.8168 88.779 91.0837 88.2441 91.3235C88.694 91.418 89.1309 91.5672 89.5451 91.768C89.9532 91.9556 90.2852 92.2784 90.4858 92.6827C90.6864 93.087 90.7435 93.5484 90.6476 93.99C90.9152 94.289 91.1381 94.6258 91.3091 94.9898C92.0808 96.8118 91.0665 98.545 89.3466 100.078C88.9553 100.898 88.434 101.649 87.8031 102.3C85.2585 104.924 82.3554 107.169 79.1816 108.966C79.9981 108.826 80.8233 108.745 81.6512 108.722C81.874 108.729 82.0928 108.783 82.2934 108.881C82.4939 108.979 82.6717 109.119 82.8153 109.291C82.9588 109.463 83.0648 109.663 83.1264 109.879C83.1879 110.095 83.2037 110.321 83.1726 110.544C83.5206 110.639 83.8333 110.836 84.0722 111.108C84.3112 111.38 84.466 111.717 84.5177 112.077C85.2502 111.992 85.9901 111.992 86.7227 112.077C86.9123 112.104 87.0977 112.157 87.2739 112.232C87.6871 112.345 88.0479 112.6 88.2936 112.954C88.5394 113.307 88.6545 113.736 88.619 114.166C88.0457 118.432 83.5475 122.853 78.4098 125.609C78.7238 125.848 78.9562 126.18 79.0748 126.558C79.1933 126.936 79.1921 127.342 79.0713 127.72C78.7393 129.158 77.9681 130.456 76.8663 131.43C76.132 132.251 75.2856 132.961 74.3526 133.541C73.0675 134.387 71.7183 135.13 70.3175 135.763C66.0839 140.563 53.8902 142.762 53.4933 135.474C53.4629 134.607 53.6852 133.75 54.1328 133.008L53.9343 132.652C52.7991 132.442 51.7551 131.887 50.9429 131.06C50.1307 130.234 49.5895 129.177 49.392 128.031C48.7674 125.669 48.685 123.195 49.1511 120.796C49.6172 118.398 50.6196 116.138 52.0821 114.188C53.3314 110.11 55.6922 106.469 58.8956 103.678ZM90.5153 56.8384H90.824C90.8201 56.6534 90.8532 56.4695 90.9214 56.2977C90.9896 56.1259 91.0915 55.9697 91.2209 55.8384C91.3752 55.4607 91.5296 55.1052 91.706 54.7275C91.1433 55.3449 90.6203 55.998 90.1404 56.6828V56.8161L90.5153 56.8384Z" fill="#E8B56B"/>
<path fill-rule="evenodd" clip-rule="evenodd" d="M64.8932 118.076C66.6968 115.833 69.1981 114.267 71.9933 113.632C73.2942 113.232 74.6393 112.899 75.9843 112.61C77.1173 111.9 78.3843 111.434 79.7052 111.243C81.0261 111.051 82.372 111.139 83.6577 111.499C84.0128 111.6 84.3296 111.806 84.5664 112.091C84.8033 112.376 84.9491 112.726 84.9848 113.096C85.0206 113.466 84.9446 113.838 84.7668 114.164C84.589 114.489 84.3177 114.753 83.9885 114.921C82.2754 115.421 80.5176 115.748 78.7406 115.899C77.6381 116.299 76.5355 116.787 75.4551 117.21C74.3746 117.632 73.2501 118.143 72.2799 118.676C70.6258 119.589 69.0213 120.591 67.473 121.676C67.1664 121.902 66.7977 122.026 66.4181 122.031C66.0384 122.036 65.6666 121.922 65.354 121.705C65.0415 121.487 64.8038 121.178 64.6738 120.818C64.5438 120.459 64.528 120.067 64.6285 119.698C64.5252 119.429 64.4953 119.136 64.5418 118.851C64.5883 118.566 64.7097 118.298 64.8932 118.076Z" fill="#BA7542"/>
<path fill-rule="evenodd" clip-rule="evenodd" d="M54.3753 134.563C54.6675 134.387 55.0052 134.302 55.3455 134.319C55.4768 134.102 55.6498 133.914 55.8542 133.765C56.0587 133.616 56.2905 133.51 56.5362 133.452H57.0213C57.0376 133.224 57.0997 133.002 57.2039 132.798C57.3081 132.595 57.4522 132.415 57.6275 132.27C57.8028 132.124 58.0056 132.016 58.2236 131.952C58.4415 131.888 58.6702 131.869 58.8956 131.897C61.3652 132.249 63.7625 133 65.9957 134.119C67.1217 134.253 68.2629 134.085 69.3032 133.63C69.7359 133.433 70.2287 133.417 70.6733 133.585C71.1178 133.754 71.4776 134.094 71.6735 134.53C71.8694 134.966 71.8854 135.463 71.7179 135.911C71.5505 136.359 71.2133 136.721 70.7805 136.919C69.8562 137.351 68.8633 137.614 67.8479 137.696C66.452 138.486 64.8584 138.849 63.2614 138.741C61.9894 139.258 60.5989 139.404 59.2484 139.163C58.0834 139.787 56.7209 139.923 55.4573 139.54C54.1937 139.157 53.1313 138.287 52.501 137.119C52.3615 136.824 52.3042 136.497 52.3352 136.172C52.3661 135.847 52.4842 135.536 52.6767 135.274C52.8693 135.011 53.1291 134.807 53.4283 134.681C53.7275 134.556 54.0549 134.515 54.3753 134.563Z" fill="#BA7542"/>
<path fill-rule="evenodd" clip-rule="evenodd" d="M56.9331 106.655C57.1852 106.552 57.4568 106.505 57.7286 106.52C58.0005 106.534 58.2658 106.609 58.5058 106.738C58.7458 106.867 58.9546 107.049 59.1172 107.269C59.2799 107.488 59.3924 107.742 59.4468 108.011C59.4468 108.011 59.4468 108.233 59.4468 108.344C59.7937 108.321 60.1402 108.395 60.4475 108.559C60.7548 108.723 61.0109 108.969 61.1871 109.271C61.3632 109.573 61.4525 109.919 61.4451 110.269C61.4376 110.619 61.3336 110.961 61.1447 111.255C57.8072 116.333 55.6237 122.092 54.7502 128.12C54.6796 128.471 54.5113 128.794 54.265 129.053C54.265 129.364 54.4635 129.697 54.5958 130.008C54.7888 130.444 54.802 130.94 54.6324 131.386C54.4629 131.832 54.1245 132.191 53.6918 132.386C53.259 132.58 52.7673 132.594 52.3248 132.423C51.8824 132.252 51.5254 131.911 51.3324 131.475C49.1274 126.475 50.6489 121.454 51.7955 116.387C52.6554 113.21 53.361 107.944 56.9331 106.655Z" fill="#BA7542"/>
<path fill-rule="evenodd" clip-rule="evenodd" d="M58.5648 102.1C58.9101 101.227 59.3462 100.393 59.8658 99.6116C60.1524 98.8783 60.3729 98.1228 60.5934 97.3896L60.439 97.2118C58.3884 94.6565 61.8723 92.4345 63.8568 90.6792L64.9152 89.5015L65.2239 89.146C65.3499 89.0008 65.5035 88.8825 65.6756 88.798C65.8477 88.7136 66.0348 88.6648 66.226 88.6544C66.4171 88.6441 66.6084 88.6724 66.7884 88.7378C66.9685 88.8031 67.1338 88.9041 67.2746 89.0349C67.5389 89.0096 67.8055 89.0412 68.0568 89.1276C68.308 89.214 68.5382 89.3531 68.7321 89.5359C68.926 89.7187 69.0791 89.9408 69.1814 90.1877C69.2836 90.4346 69.3326 90.7006 69.3252 90.968C69.3252 93.901 67.4069 96.1231 65.4444 98.3673C65.268 98.9228 65.0695 99.456 64.8711 99.9671C64.3156 101.272 63.8802 102.626 63.5701 104.011C63.5565 104.114 63.5565 104.219 63.5701 104.322C64.4641 104.3 65.3509 104.489 66.159 104.875C66.9671 105.261 67.674 105.833 68.2227 106.544C68.3551 106.834 68.4065 107.155 68.3716 107.472C68.3366 107.789 68.2165 108.09 68.0243 108.344C67.9148 108.537 67.7731 108.71 67.6053 108.855C67.4555 109.101 67.2389 109.299 66.9809 109.425C66.723 109.551 66.4346 109.6 66.15 109.566C65.3112 109.696 64.4624 109.748 63.6142 109.722C63.0352 109.737 62.4625 109.597 61.9548 109.316C61.4472 109.035 61.023 108.623 60.7257 108.122L59.976 107.677C59.7531 107.52 59.5711 107.31 59.4455 107.066C59.3199 106.823 59.2543 106.552 59.2543 106.278C59.2543 106.003 59.3199 105.732 59.4455 105.489C59.5711 105.245 59.7531 105.036 59.976 104.878V104.322C59.7357 104.275 59.5074 104.179 59.305 104.041C59.1025 103.902 58.93 103.724 58.7981 103.516C58.6661 103.308 58.5774 103.075 58.5373 102.832C58.4972 102.589 58.5066 102.34 58.5648 102.1Z" fill="#BA7542"/>
<path fill-rule="evenodd" clip-rule="evenodd" d="M72.3461 87.4795C71.9572 87.2067 71.6884 86.7924 71.5964 86.324C70.7585 81.9911 74.6172 74.4364 78.8949 72.0144C79.2156 71.6823 79.6485 71.484 80.1077 71.4589H80.3061C82.004 70.9701 82.7096 72.9477 81.9599 74.192C81.7126 77.8206 80.7927 81.3704 79.2477 84.6575C78.8904 85.6463 78.4553 86.6048 77.9468 87.5239C78.6958 87.5608 79.437 87.6952 80.1518 87.9239C81.4748 86.8129 83.9444 87.9239 83.0183 89.8348C82.8918 90.0631 82.7441 90.2788 82.5773 90.4791C82.9301 93.3233 80.0195 93.301 77.175 92.7011C75.6207 92.7161 74.0932 92.2928 72.765 91.479C72.2316 91.0066 71.8929 90.3503 71.8153 89.639C71.7378 88.9276 71.9271 88.2128 72.3461 87.635V87.4795Z" fill="#BA7542"/>
<path fill-rule="evenodd" clip-rule="evenodd" d="M85.8627 83.0356C85.9281 82.8107 86.0375 82.6012 86.1845 82.4196C86.3316 82.238 86.5132 82.0878 86.7187 81.978C86.9242 81.8683 87.1495 81.8011 87.3812 81.7805C87.6128 81.7599 87.8463 81.7862 88.0677 81.858C90.5985 82.5958 93.2169 82.9845 95.8514 83.0134C96.135 83.0338 96.4121 83.1092 96.6672 83.2356C97.2622 83.1656 97.8515 83.0541 98.4312 82.9023C100.019 82.4356 101.011 84.5688 100.151 85.7465C98.4533 88.124 94.374 88.0796 91.7942 87.9685C89.5892 87.9685 85.1792 87.6795 84.8705 84.7243C84.8471 84.3747 84.9294 84.0263 85.1066 83.7248C85.2837 83.4233 85.5473 83.1831 85.8627 83.0356Z" fill="#BA7542"/>
<path fill-rule="evenodd" clip-rule="evenodd" d="M76.6017 95.7898L77.0427 95.6565L77.5499 95.5009C77.5785 95.2261 77.6681 94.9613 77.812 94.7261C77.9558 94.4908 78.1503 94.2912 78.3811 94.1418C78.6118 93.9925 78.8729 93.8973 79.145 93.8633C79.4172 93.8294 79.6934 93.8575 79.9533 93.9455C80.3544 94.0739 80.7687 94.1559 81.1881 94.19L83.1065 93.3679C84.8654 92.3222 86.8874 91.8128 88.9277 91.9013C89.241 91.9356 89.5401 92.0519 89.7951 92.2386C90.0501 92.4252 90.2523 92.6759 90.3815 92.9655C90.5108 93.2552 90.5626 93.5739 90.5319 93.8901C90.5013 94.2062 90.3891 94.5088 90.2066 94.7677L89.7656 95.3232C89.8099 95.5499 89.8081 95.7832 89.7605 96.0091C89.7129 96.2351 89.6204 96.4489 89.4885 96.6378C89.3566 96.8268 89.1882 96.9869 88.9933 97.1084C88.7983 97.23 88.581 97.3105 88.3544 97.3452C85.4217 97.834 82.3788 97.9451 79.5344 98.6784C78.927 98.8897 78.3087 99.0678 77.6822 99.2117C75.6536 99.6561 74.7054 96.4564 76.6017 95.7898Z" fill="#BA7542"/>
<path fill-rule="evenodd" clip-rule="evenodd" d="M102.687 64.1264L106.215 62.4155L106.92 61.9489C108.7 60.4934 110.756 59.4197 112.962 58.7937C113.19 58.6794 113.444 58.6313 113.698 58.6549C113.951 58.6784 114.192 58.7727 114.395 58.927C114.826 59.0682 115.204 59.3398 115.476 59.7047C119.092 64.1487 107.185 68.2371 101.298 69.9924C99.6606 70.8932 97.8457 71.4168 95.9836 71.5256C94.3078 71.5256 93.9551 69.3037 95.0355 68.3038C97.3911 66.5761 99.9641 65.1713 102.687 64.1264Z" fill="#BA7542"/>
<path fill-rule="evenodd" clip-rule="evenodd" d="M84.2972 69.7482C84.3138 69.5241 84.3746 69.3056 84.476 69.1055C84.5774 68.9054 84.7175 68.7278 84.8879 68.5829C85.0584 68.4381 85.2558 68.329 85.4686 68.262C85.6814 68.195 85.9053 68.1714 86.1273 68.1927C85.8622 67.2588 85.656 66.3088 85.5099 65.3486C85.1269 65.1414 84.8272 64.8065 84.6623 64.4011C84.4974 63.9957 84.4774 63.5452 84.6059 63.1266C84.7849 62.6123 84.991 62.1079 85.2233 61.6157C85.2233 56.9273 86.9432 52.5722 91.1547 51.0835C91.3973 50.7724 91.6619 50.4836 91.9265 50.1947C93.47 48.506 96.3364 50.6169 94.815 52.4167C94.6857 52.5471 94.5677 52.6882 94.4622 52.8388C93.5571 55.7639 92.0549 58.4659 90.0522 60.7713C89.7929 61.7228 89.4072 62.6347 88.9056 63.4821C89.1213 65.9462 89.8262 68.3416 90.9783 70.5259C92.9187 70.5259 93.4479 73.5477 91.6619 74.0143C91.5483 74.3385 91.3553 74.6287 91.101 74.8578C90.8466 75.087 90.539 75.2478 90.2066 75.3254C90.1822 75.547 90.1139 75.7614 90.0058 75.9559C89.8976 76.1505 89.7519 76.3212 89.5771 76.4579C89.4023 76.5947 89.2021 76.6946 88.9883 76.752C88.7745 76.8094 88.5514 76.8229 88.3323 76.7918C87.4784 76.6638 86.6807 76.286 86.0379 75.7054C85.395 75.1248 84.9355 74.3669 84.7161 73.5256C84.5127 73.3248 84.3712 73.0691 84.3086 72.7892C84.246 72.5093 84.265 72.2172 84.3633 71.9479C84.2691 71.2187 84.2469 70.4818 84.2972 69.7482Z" fill="#BA7542"/>
<path fill-rule="evenodd" clip-rule="evenodd" d="M100.482 54.061C101.018 54.0374 101.551 53.9554 102.069 53.8165C102.282 53.7852 102.497 53.7852 102.709 53.8165C103.885 53.4888 105.013 53.003 106.061 52.3723C109.103 50.2614 111.661 47.1284 114.66 45.2175C114.969 44.9823 115.345 44.8534 115.732 44.8495C116.119 44.8456 116.497 44.967 116.811 45.1958C117.124 45.4247 117.356 45.7489 117.473 46.1208C117.59 46.4927 117.586 46.8926 117.46 47.2617C116.534 50.2392 113.535 52.0168 111.044 53.5277C109.963 54.1943 108.839 54.8609 107.758 55.483C105.935 56.8391 103.806 57.7172 101.562 58.0384C101.3 58.0861 101.031 58.0685 100.777 57.9872C100.523 57.9058 100.293 57.7632 100.107 57.5717C99.7451 57.4173 99.4421 57.1496 99.2429 56.8082C99.0437 56.4668 98.9588 56.0698 99.0009 55.6761C99.0429 55.2823 99.2096 54.9126 99.4764 54.6218C99.7431 54.3309 100.096 54.1343 100.482 54.061Z" fill="#BA7542"/>
<path fill-rule="evenodd" clip-rule="evenodd" d="M143.634 0C143.986 0 144.075 0.311094 144.516 0.155555C144.802 1.84426 143.391 2.37758 142.421 3.11083C142.228 2.53138 142.244 1.9019 142.466 1.333C142.687 0.764107 143.101 0.292128 143.634 0Z" fill="#3F1D1D"/>
<path fill-rule="evenodd" clip-rule="evenodd" d="M96.998 29.8191L97.1302 30.6635C95.5647 32.641 93.911 34.5964 92.3454 36.685C89.4674 40.2488 86.9209 44.072 84.7382 48.1061C83.7018 50.1947 83.5474 52.9277 81.4527 54.4609C82.9521 43.5732 89.942 36.685 96.998 29.8191Z" fill="#3F1D1D"/>
<path fill-rule="evenodd" clip-rule="evenodd" d="M90.6035 62.7932C90.1625 64.8375 90.2727 67.3705 88.5748 68.0593C88.1259 65.9106 88.1499 63.6889 88.6452 61.5506C89.1404 59.4122 90.0949 57.4093 91.4413 55.6829C92.3454 58.0159 91.1106 60.3491 90.6035 62.7932Z" fill="#3F1D1D"/>
<path fill-rule="evenodd" clip-rule="evenodd" d="M5.11559 201.467C4.93918 202.689 2.91058 203.845 3.32954 204.667C15.2806 191.335 25.0929 176.581 34.861 161.716C28.5106 170.071 22.6895 180.136 15.3909 187.002C26.7466 170.382 36.4927 152.606 49.5463 137.208C49.1274 129.697 46.6578 122.698 46.0845 116.032C45.1363 105.144 50.8032 96.212 54.4194 87.9685C58.4986 78.6806 60.7037 69.6593 65.0034 61.3046C65.5106 62.1934 64.1655 62.9711 65.0034 63.3266C65.1357 62.4156 65.5326 60.3936 65.9956 60.5491C61.8282 77.7917 53.6256 92.1013 51.178 110.588C52.8326 107.87 54.8425 105.389 57.1536 103.211C56.9992 95.6787 59.3586 89.8794 61.7179 83.5911C63.7159 78.5533 65.983 73.628 68.5093 68.8371C73.6249 58.7715 78.057 49.1726 82.3567 39.2625C79.9533 59.0826 65.5546 71.5924 61.5195 89.4349C62.843 88.5224 64.2721 87.7762 65.7751 87.2129C68.393 83.2079 70.6089 78.9503 72.3901 74.5032C74.1982 70.0592 75.0361 64.9487 77.638 60.8825C77.9908 64.371 76.0725 68.3483 75.433 71.9924C78.2907 68.7607 80.7967 65.2297 82.908 61.4601C83.6356 54.4164 89.1481 50.8613 92.4115 45.6618C92.4115 44.5509 91.6839 44.3731 91.728 43.1732C93.073 42.5289 93.051 43.8398 93.933 43.9731C98.4753 35.9073 107.516 31.5078 115.101 25.664C122.686 19.8202 130.382 13.9097 137.349 8.59915C135.938 10.2212 133.623 11.0211 134.637 13.0431C124.164 22.8199 109.787 32.7077 100.923 44.462C98.7178 47.4394 95.8954 49.817 98.1666 53.9276C101.107 45.2026 107.913 39.3292 118.585 36.3073C119.555 35.9962 119.687 36.8406 120.172 37.1961C128.529 25.7306 141.451 16.0872 149.367 4.48847C150.359 3.02196 150.998 0.600003 153.005 0.400024C146.853 17.8648 127.714 25.9529 120.503 42.6177C123.91 37.1706 127.911 32.1249 132.432 27.5749C136.975 22.9976 141.252 17.7315 146.677 14.4652C140.745 22.2643 132.344 27.7971 126.589 35.7962C123.224 40.9513 120.161 46.3006 117.416 51.8167C115.983 51.239 115.674 52.1722 114.748 53.1499C116.613 53.1684 118.425 53.7744 119.93 54.8831C120.547 61.9045 115.52 64.7931 111.507 68.4816C112.058 70.7036 111.022 71.9257 110.934 73.7922C115.911 66.8943 121.27 60.2845 126.986 53.9943C131.793 48.4615 135.652 41.5511 139.841 35.9073C140.26 35.3296 140.459 33.8409 141.561 34.1742C136.049 46.1951 126.258 56.394 119.246 66.5929C128.353 56.7051 136.886 46.3062 142.443 34.3075C144.361 30.2635 145.045 25.5751 147.889 21.7977C143.038 46.6839 122.708 63.1489 108.905 82.5468C104.495 88.7017 100.085 97.8118 94.2197 101.811C93.051 102.611 91.6178 102.745 90.4932 103.589C88.2882 105.211 86.9432 107.722 83.8782 108.477C88.7292 109.655 91.309 105.967 94.7929 103.167C97.3728 101.123 99.6219 99.0339 101.408 97.4341C114.506 85.4576 122.973 69.5482 136.688 59.6603C135.74 62.3711 133.27 64.1043 131.396 66.0596C117.46 80.3248 108.376 97.7007 90.6916 109.099C92.1469 109.611 90.868 111.899 91.5075 112.432C102.996 103.678 113.326 93.4774 122.245 82.0801C125.244 78.4139 127.736 74.1254 131.683 71.2368C130.161 76.2585 125.332 78.9472 122.377 82.9245C113.557 94.9454 104.407 107.366 90.2507 115.254C89.3224 117.387 87.9408 119.289 86.2034 120.824C84.466 122.36 82.4152 123.493 80.1959 124.142C81.2102 125.342 79.9974 126.72 80.4384 127.298C90.0081 119.143 101.32 113.21 109.985 104.322C118.576 95.7131 126.391 86.3513 133.336 76.3475C130.255 83.5262 125.982 90.1235 120.702 95.8565C115.527 101.867 109.894 107.461 103.855 112.588C97.902 117.454 90.9562 121.676 83.7679 126.942C75.5653 132.986 70.0749 142.829 56.5803 141.918C55.4998 143.385 52.3687 142.718 50.5386 143.807C48.7084 144.896 47.4516 149.006 45.445 151.317C39.4915 158.205 35.28 166.293 29.8777 173.937C24.9826 180.803 20.1096 187.58 15.3688 194.335C11.5668 199.994 6.52791 204.699 0.639435 208.089C0.374832 207 1.80811 207.111 1.76401 206.178C0.926102 206.334 -0.0441284 206.645 -0.0661774 205.6C1.41475 203.935 3.16725 202.537 5.11559 201.467ZM60.0201 99.2561C61.7841 97.6341 62.7543 93.2789 65.0254 91.1681C61.74 91.6569 61.1667 96.3231 60.0201 99.2117V99.2561ZM59.7114 116.721C58.9325 121.996 57.2303 127.089 54.684 131.764C59.4468 129.92 60.7036 123.454 59.7114 116.676V116.721ZM68.5314 90.0571C64.2757 94.6566 60.3288 100.656 61.1226 108.1C71.7066 111.81 69.7882 98.1007 68.5755 89.9682L68.5314 90.0571ZM61.5415 110.655C61.9944 112.706 62.2382 114.798 62.2692 116.899C63.0409 117.21 64.2096 115.299 64.9813 114.143C65.7531 112.988 66.5469 111.277 67.1863 110.277C65.8854 109.944 63.1953 111.366 61.4754 110.566L61.5415 110.655ZM71.2215 104.678C73.7202 102.941 75.5376 100.379 76.3591 97.4341C74.8818 97.5452 73.5147 99.8782 71.6846 100.545C71.8408 101.907 71.6978 103.288 71.2656 104.589L71.2215 104.678ZM75.8079 94.0567C75.1023 93.0568 73.3824 93.5456 72.6768 92.5457C72.1255 93.2346 72.9634 94.901 72.9414 95.9898C74.2864 95.4343 74.507 94.3233 75.852 93.9678L75.8079 94.0567ZM72.3019 85.1687C77.616 82.369 79.402 77.014 80.0415 70.8369C76.2836 74.7805 73.6285 79.6563 72.346 84.9688L72.3019 85.1687ZM81.9378 73.2144C81.7614 80.6137 77.2411 84.9243 71.7948 88.5239C71.7948 92.1458 78.6744 91.9902 81.4527 91.257C84.3853 87.4574 84.6058 79.5027 81.9378 73.2144ZM77.5278 99.4561C81.7041 96.8494 86.2147 94.8309 90.9342 93.4567C86.7226 91.768 80.7691 95.3009 77.5278 95.9675C77.2852 96.923 77.7924 98.4562 77.616 99.4783L77.5278 99.4561ZM85.135 61.6823C84.9366 65.9708 88.0236 73.0589 91.75 71.9035C93.955 71.1924 94.6827 64.6598 95.0355 62.0601C95.5445 57.8378 95.1383 53.5545 93.8448 49.5058C91.1106 51.5278 85.4438 56.7051 85.2233 61.6601L85.135 61.6823ZM86.3698 76.2586C87.5826 75.6586 87.9134 74.3921 89.1482 73.7699C88.1118 72.5701 86.3257 72.3923 85.7304 70.5703C85.3996 71.9923 86.3699 74.4143 86.458 76.2363L86.3698 76.2586ZM109.985 32.0188H110.294H110.007C108.177 32.3966 104.583 35.6407 102.047 37.6849C99.3008 39.7284 96.8836 42.1867 94.8811 44.973C95.4544 46.0174 96.0278 47.0617 96.557 48.1727C100.435 42.3108 104.938 36.8939 109.985 32.0188ZM117.747 44.062C117.019 41.84 118.012 40.929 118.122 39.3514C111.132 42.0178 104.892 45.2618 102.51 51.239C105.553 49.017 107.825 43.9509 112.852 42.351C112.631 45.173 108.817 46.995 106.81 49.4392C104.804 51.8834 103.238 54.8164 101.474 57.305C107.582 54.3053 116.468 51.2612 117.747 44.062ZM117.504 56.5718C118.1 55.7497 114.836 55.7052 113.337 55.8163C110.561 56.0249 107.868 56.8627 105.459 58.267C103.05 59.6714 100.987 61.6061 99.4235 63.9266C104.032 61.4602 109.875 57.705 117.063 56.3273C117.394 56.2385 117.46 56.394 117.504 56.5718ZM116.931 58.3938C108.718 60.0823 101.179 64.1704 95.256 70.1481C103.613 68.0372 114.77 65.8152 116.931 58.3938ZM109.258 69.5037C100.438 70.6591 92.4556 74.6365 89.545 80.9025C92.3895 84.8354 99.7542 82.9245 103.547 80.3026C107.339 77.6806 108.42 73.0811 109.258 69.5482V69.5037ZM97.8799 91.4125C98.6517 91.4125 98.3651 90.857 99.0045 91.2347C98.7353 92.2291 98.3111 93.1742 97.7476 94.0344C100.35 91.2792 102.753 86.2131 105.046 82.3913C103.811 83.4356 100.636 87.3019 97.4169 88.5906C98.762 89.3016 98.2548 90.2126 97.8799 91.4569V91.4125ZM99.6219 84.4577C94.9914 85.6353 90.0301 85.5464 87.759 82.369C86.2596 84.591 86.0612 87.924 85.091 90.6348C92.147 90.2348 95.6529 87.1907 99.6219 84.5021V84.4577ZM92.2351 95.5676C82.8859 97.7896 73.5808 103.5 70.7805 110.455C79.5121 108.348 87.1572 103.051 92.2351 95.5899V95.5676ZM84.5176 111.655C81.2267 111.09 77.8468 111.388 74.7033 112.52C71.5598 113.652 68.7584 115.581 66.5689 118.121C66.2161 118.587 64.849 119.432 65.731 119.987C70.4497 116.432 77.7042 114.699 84.694 112.766C84.694 112.366 84.5176 111.988 84.8263 111.877C85.135 111.766 84.694 111.655 84.5176 111.677V111.655ZM89.1702 113.766C79.5799 115.476 70.3899 118.972 62.0707 124.076C61.8062 124.876 61.8943 125.942 61.321 126.52C65.731 124.631 71.7286 124.298 77.1088 122.743C81.9931 121.168 86.2301 118.022 89.1702 113.788V113.766ZM77.8585 127.253C74.5259 126.688 71.1142 126.807 67.8287 127.606C64.5433 128.404 61.452 129.863 58.7412 131.897C63.8788 135.786 74.7054 131.386 77.8585 127.275V127.253ZM70.1851 134.919C66.0397 135.497 59.8217 137.141 58.3223 132.83C56.9205 134.806 55.1444 136.483 53.0964 137.763C57.352 139.541 65.8854 137.919 70.1851 134.941V134.919ZM58.7412 110.722C56.0127 117.56 54.0886 124.697 53.0082 131.986C55.5219 125.342 59.2704 119.676 58.7412 110.744V110.722ZM51.7954 129.853C54.0004 122.898 54.7061 114.699 58.0797 108.5C58.0797 108.122 57.9695 107.744 57.9033 107.366C56.2495 108.255 55.103 110.788 53.9123 112.966C52.3798 115.468 51.3978 118.272 51.0326 121.189C50.6674 124.106 50.9276 127.068 51.7954 129.875V129.853ZM52.0821 98.1895C49.8771 103.389 47.5177 108.522 48.3556 115.965C50.2078 110.477 50.4504 103.811 52.0821 98.2118V98.1895Z" fill="#3F1D1D"/>
<path fill-rule="evenodd" clip-rule="evenodd" d="M88.1779 145.118V144.718C87.2935 143.969 86.6586 142.964 86.3589 141.839C86.0592 140.715 86.1092 139.525 86.5022 138.43C87.1169 136.066 88.2587 133.875 89.8406 132.022C91.4225 130.17 93.4028 128.706 95.6309 127.742C98.7094 124.841 102.526 122.856 106.656 122.009L107.604 121.52L108.706 120.92C108.706 120.92 108.706 120.72 108.706 120.632C109.28 115.61 117.35 112.899 122.863 113.655C124.257 112.519 125.829 111.625 127.515 111.01C131.175 106.744 138.54 102.5 142.531 103.211C143.262 103.335 143.964 103.591 144.604 103.967C145.344 103.99 146.081 104.071 146.809 104.211C147.47 103.5 148.132 102.745 148.771 101.989C148.606 101.367 148.539 100.722 148.573 100.078C148.815 94.3899 160.171 90.2126 164.317 93.2123C164.51 93.3477 164.674 93.5201 164.801 93.7197C164.927 93.9193 165.013 94.1421 165.054 94.3754C165.095 94.6087 165.09 94.8478 165.039 95.0791C164.988 95.3103 164.893 95.5292 164.758 95.7231C164.493 96.0342 164.228 96.323 163.942 96.6119C165.078 96.8932 166.164 97.3505 167.161 97.9673L168.131 97.7006C172.617 94.7682 177.959 93.4597 183.28 93.99C183.539 94.0184 183.788 94.1051 184.009 94.2435C184.231 94.3819 184.418 94.5686 184.559 94.7898C185.895 94.8521 187.212 95.1297 188.461 95.612C188.716 95.7111 188.945 95.8672 189.132 96.0685C189.318 96.2697 189.457 96.5109 189.538 96.7739C189.618 97.0369 189.639 97.3149 189.597 97.5871C189.556 97.8592 189.454 98.1183 189.299 98.345C188.338 99.8598 186.89 100.997 185.198 101.567C183.454 103.214 181.321 104.384 179.002 104.967C179.343 105.407 179.543 105.942 179.575 106.5C179.616 107.176 179.503 107.852 179.244 108.477C179.422 108.583 179.592 108.702 179.752 108.833C180.136 109.11 180.398 109.528 180.481 109.998C180.563 110.467 180.46 110.95 180.193 111.344C179.506 112.256 178.604 112.982 177.569 113.455C174.655 114.854 171.506 115.691 168.286 115.921H166.455C166.739 116.112 166.963 116.381 167.099 116.696C167.236 117.011 167.281 117.359 167.227 117.699C166.72 122.92 159.333 124.698 155.298 125.453C150.288 126.618 145.108 126.844 140.017 126.12C139.428 126.116 138.839 126.079 138.254 126.009C138.595 126.328 138.898 126.686 139.158 127.075C139.42 127.43 139.553 127.865 139.532 128.306C139.512 128.748 139.341 129.169 139.047 129.497C139.116 129.894 139.116 130.3 139.047 130.697C138.827 132.675 137.085 133.675 134.858 134.141C134.112 134.623 133.303 134.997 132.454 135.252C128.931 136.299 125.279 136.838 121.606 136.852C122.369 137.127 123.107 137.469 123.811 137.874C124.003 137.988 124.169 138.142 124.298 138.326C124.427 138.51 124.515 138.719 124.557 138.94C124.598 139.161 124.593 139.388 124.54 139.607C124.488 139.825 124.389 140.03 124.252 140.207C124.506 140.464 124.679 140.791 124.749 141.147C124.82 141.502 124.785 141.871 124.649 142.207C125.365 142.478 126.047 142.836 126.677 143.274C126.826 143.389 126.959 143.524 127.074 143.674C127.379 143.978 127.568 144.38 127.609 144.811C127.649 145.241 127.538 145.672 127.295 146.029C124.715 149.451 118.607 151.051 112.808 150.895C112.978 151.268 113.022 151.687 112.935 152.088C112.847 152.489 112.632 152.85 112.323 153.117C111.3 154.183 109.975 154.905 108.53 155.183C107.491 155.536 106.406 155.731 105.311 155.761C103.788 155.824 102.262 155.772 100.746 155.606C94.7268 157.672 83.1064 153.495 86.2816 146.962C86.7124 146.167 87.3741 145.523 88.1779 145.118ZM157.106 97.0785L157.327 97.3007C157.512 96.9796 157.812 96.7413 158.165 96.6341L159.135 95.9231C158.345 96.177 157.571 96.4813 156.82 96.8341H156.665L157.106 97.0785Z" fill="#E8B56B"/>
<path fill-rule="evenodd" clip-rule="evenodd" d="M104.738 137.519C107.417 136.451 110.375 136.318 113.139 137.141C114.462 137.452 115.785 137.83 117.108 138.252C118.438 138.197 119.765 138.423 121.003 138.917C122.241 139.411 123.363 140.161 124.296 141.118C124.607 141.35 124.82 141.691 124.894 142.074C124.967 142.456 124.896 142.853 124.693 143.185C124.589 143.556 124.349 143.873 124.021 144.071C123.693 144.269 123.302 144.334 122.929 144.251C121.192 143.836 119.501 143.248 117.879 142.496C116.711 142.296 115.542 142.163 114.395 141.985C113.249 141.807 112.08 141.74 110.912 141.674C109.02 141.636 107.128 141.711 105.245 141.896C104.868 141.93 104.491 141.848 104.162 141.66C103.834 141.471 103.57 141.187 103.407 140.843C103.244 140.5 103.189 140.114 103.249 139.739C103.31 139.363 103.483 139.015 103.745 138.741C103.796 138.469 103.913 138.215 104.086 138.002C104.26 137.788 104.484 137.622 104.738 137.519Z" fill="#BA7542"/>
<path fill-rule="evenodd" clip-rule="evenodd" d="M87.5165 146.54C87.8575 146.541 88.1921 146.633 88.4867 146.806C88.9323 146.563 89.4555 146.507 89.942 146.651L90.405 146.829C90.5308 146.636 90.6943 146.472 90.8854 146.346C91.0765 146.22 91.2912 146.134 91.5163 146.095C91.7414 146.055 91.9721 146.062 92.1944 146.116C92.4166 146.17 92.6256 146.269 92.8085 146.407C94.7844 147.935 96.5041 149.773 97.902 151.85C98.8094 152.538 99.883 152.967 101.011 153.095C101.464 153.164 101.873 153.405 102.155 153.769C102.436 154.134 102.567 154.593 102.522 155.052C102.477 155.512 102.258 155.936 101.911 156.237C101.564 156.539 101.116 156.694 100.658 156.672C99.651 156.583 98.6665 156.32 97.7477 155.894C96.1769 155.871 94.6459 155.393 93.3377 154.517C91.9737 154.332 90.6895 153.762 89.6333 152.873C88.3193 152.832 87.0744 152.27 86.1699 151.308C85.2655 150.347 84.7746 149.064 84.8043 147.74C84.8514 147.447 84.9705 147.17 85.1508 146.936C85.3311 146.701 85.5669 146.516 85.8365 146.396C86.1062 146.277 86.4012 146.228 86.6946 146.253C86.988 146.278 87.2706 146.377 87.5165 146.54Z" fill="#BA7542"/>
<path fill-rule="evenodd" clip-rule="evenodd" d="M103.37 123.631C103.639 123.666 103.897 123.761 104.125 123.908C104.353 124.056 104.546 124.252 104.69 124.484C104.833 124.716 104.924 124.977 104.955 125.248C104.986 125.52 104.957 125.795 104.87 126.053C104.831 126.159 104.787 126.263 104.737 126.364C105.043 126.523 105.299 126.764 105.478 127.06C105.656 127.356 105.751 127.695 105.751 128.042C105.751 128.388 105.656 128.728 105.478 129.024C105.299 129.32 105.043 129.56 104.737 129.719C99.3465 132.477 94.62 136.39 90.8901 141.185C90.668 141.461 90.3682 141.662 90.0301 141.763C90.0301 142.096 89.8758 142.407 89.8317 142.762C89.7634 143.219 89.5237 143.632 89.1622 143.915C88.8006 144.198 88.3448 144.331 87.889 144.285C87.4331 144.24 87.0122 144.019 86.713 143.67C86.4139 143.32 86.2594 142.868 86.2817 142.407C86.855 136.985 90.6917 133.341 94.1094 129.542C96.4688 127.098 99.7101 122.965 103.37 123.631Z" fill="#BA7542"/>
<path fill-rule="evenodd" clip-rule="evenodd" d="M106.965 123.542L107.185 123.165C106.985 122.994 106.825 122.781 106.715 122.541C106.604 122.301 106.547 122.04 106.547 121.776C106.547 121.512 106.604 121.251 106.715 121.011C106.825 120.771 106.985 120.558 107.185 120.387C107.909 119.802 108.693 119.296 109.522 118.876C110.14 118.387 110.713 117.832 111.286 117.276V117.032C110.779 113.788 114.881 113.61 117.482 113.077C117.968 112.877 118.475 112.721 118.982 112.566L119.423 112.432C119.602 112.367 119.793 112.338 119.983 112.348C120.174 112.359 120.36 112.408 120.531 112.493C120.702 112.579 120.855 112.698 120.979 112.844C121.103 112.99 121.196 113.16 121.253 113.343C121.497 113.453 121.714 113.613 121.892 113.814C122.069 114.014 122.202 114.251 122.281 114.508C122.36 114.764 122.384 115.035 122.352 115.302C122.319 115.568 122.23 115.825 122.091 116.054C120.68 118.61 117.901 119.587 115.101 120.498C114.66 120.898 114.241 121.276 113.822 121.609C112.687 122.458 111.638 123.418 110.691 124.476C110.617 124.549 110.564 124.641 110.537 124.742C111.338 125.193 112.02 125.833 112.523 126.607C113.026 127.381 113.335 128.266 113.425 129.186C113.393 129.503 113.279 129.806 113.093 130.064C112.907 130.321 112.656 130.525 112.367 130.653C112.171 130.757 111.964 130.839 111.749 130.897C111.496 131.025 111.213 131.082 110.93 131.063C110.646 131.043 110.374 130.948 110.14 130.786C109.378 130.464 108.641 130.085 107.935 129.653C107.423 129.376 106.993 128.966 106.691 128.466C106.389 127.966 106.224 127.394 106.215 126.809C106.05 126.56 105.903 126.3 105.774 126.031C105.643 125.794 105.57 125.529 105.562 125.259C105.554 124.988 105.611 124.719 105.728 124.475C105.845 124.231 106.018 124.019 106.233 123.857C106.448 123.694 106.699 123.586 106.965 123.542Z" fill="#BA7542"/>
<path fill-rule="evenodd" clip-rule="evenodd" d="M126.28 114.632C126.103 114.198 126.103 113.711 126.28 113.277C127.692 109.077 134.748 104.389 139.665 104.389C140.108 104.277 140.576 104.324 140.988 104.522H141.186C142.906 104.944 142.553 107.033 141.296 107.744C139.286 110.774 136.737 113.403 133.777 115.499C132.993 116.177 132.152 116.787 131.264 117.321C131.897 117.725 132.469 118.219 132.962 118.787C134.659 118.476 136.225 120.743 134.527 121.854C134.308 122.003 134.071 122.122 133.821 122.209C132.741 124.853 130.205 123.387 128.089 121.365C126.726 120.604 125.602 119.472 124.847 118.099C124.743 117.845 124.69 117.573 124.693 117.299C124.549 117.022 124.479 116.713 124.488 116.401C124.497 116.089 124.585 115.784 124.745 115.517C124.904 115.249 125.129 115.027 125.398 114.872C125.667 114.717 125.971 114.635 126.28 114.632Z" fill="#BA7542"/>
<path fill-rule="evenodd" clip-rule="evenodd" d="M140.194 117.521C140.364 117.35 140.568 117.217 140.793 117.129C141.017 117.041 141.257 117.002 141.497 117.012C141.737 117.022 141.973 117.083 142.189 117.19C142.405 117.296 142.596 117.447 142.752 117.632C144.59 119.534 146.674 121.178 148.948 122.52C149.187 122.667 149.384 122.874 149.521 123.12C150.08 123.353 150.655 123.546 151.241 123.698C152.829 124.098 152.652 126.431 151.241 127.031C148.595 128.253 145.089 126.187 142.84 124.809C140.944 123.72 137.261 121.276 138.43 118.543C138.575 118.203 138.825 117.92 139.143 117.736C139.461 117.552 139.83 117.476 140.194 117.521Z" fill="#BA7542"/>
<path fill-rule="evenodd" clip-rule="evenodd" d="M125.884 123.987H126.325L126.854 124.098C127.012 123.873 127.218 123.687 127.457 123.553C127.695 123.419 127.961 123.34 128.234 123.323C128.507 123.306 128.78 123.351 129.033 123.454C129.287 123.558 129.514 123.717 129.698 123.92C129.989 124.236 130.306 124.526 130.646 124.787L132.741 125.009C134.78 124.991 136.782 125.553 138.518 126.631C138.774 126.818 138.977 127.069 139.107 127.36C139.237 127.65 139.288 127.97 139.257 128.287C139.226 128.604 139.113 128.907 138.929 129.166C138.745 129.425 138.497 129.632 138.209 129.764L137.548 130.031C137.477 130.249 137.362 130.45 137.211 130.622C137.06 130.795 136.875 130.934 136.669 131.032C136.462 131.129 136.238 131.184 136.01 131.191C135.782 131.199 135.555 131.159 135.343 131.075C132.565 130.031 129.875 128.631 127.008 127.809C126.366 127.705 125.733 127.557 125.112 127.364C123.215 126.875 123.877 123.587 125.884 123.987Z" fill="#BA7542"/>
<path fill-rule="evenodd" clip-rule="evenodd" d="M155.386 109.299C158.285 108.97 161.213 109.029 164.096 109.477C165.404 109.581 166.705 109.67 167.999 109.744H168.859C171.117 109.363 173.429 109.454 175.65 110.01C175.903 110.029 176.147 110.115 176.356 110.259C176.565 110.404 176.732 110.602 176.841 110.833C177.132 111.181 177.323 111.604 177.392 112.055C178.296 117.81 165.992 115.343 160.017 113.921C158.15 113.882 156.315 113.435 154.637 112.61C153.159 111.766 154.085 109.544 155.386 109.299Z" fill="#BA7542"/>
<path fill-rule="evenodd" clip-rule="evenodd" d="M144.339 107.033C144.602 106.379 144.943 105.76 145.354 105.189C145.481 105.002 145.645 104.843 145.834 104.721C146.024 104.598 146.235 104.515 146.457 104.476C146.678 104.436 146.905 104.442 147.125 104.492C147.344 104.542 147.552 104.635 147.735 104.767C147.94 103.82 148.22 102.891 148.573 101.989C148.333 101.617 148.233 101.172 148.289 100.732C148.346 100.292 148.556 99.8872 148.882 99.5893C149.301 99.2338 149.72 98.9006 150.161 98.5895C152.498 94.5455 156.092 91.5902 160.48 92.3901L161.582 92.0124C163.787 91.3013 165.243 94.5899 163.038 95.3009L162.531 95.4787C160.306 97.5773 157.659 99.1687 154.769 100.145C154.068 100.841 153.283 101.446 152.432 101.945C151.392 104.188 150.829 106.624 150.778 109.099C152.41 110.144 151.439 112.944 149.631 112.477C149.373 112.698 149.065 112.85 148.734 112.92C148.402 112.99 148.059 112.975 147.735 112.877C147.605 113.055 147.44 113.205 147.251 113.319C147.063 113.432 146.853 113.507 146.636 113.538C146.418 113.569 146.197 113.556 145.984 113.5C145.771 113.443 145.572 113.345 145.398 113.21C144.721 112.675 144.215 111.953 143.941 111.132C143.666 110.31 143.636 109.427 143.854 108.588C143.779 108.31 143.785 108.015 143.871 107.739C143.957 107.463 144.119 107.218 144.339 107.033Z" fill="#BA7542"/>
<path fill-rule="evenodd" clip-rule="evenodd" d="M167.139 99.6338C167.614 99.8852 168.118 100.079 168.638 100.211C168.838 100.283 169.024 100.389 169.19 100.523C170.38 100.813 171.603 100.947 172.828 100.923C176.488 100.611 180.259 99.1671 183.853 99.0116C184.238 98.9588 184.63 99.0327 184.97 99.2221C185.311 99.4115 185.582 99.7064 185.742 100.063C185.903 100.42 185.946 100.819 185.864 101.202C185.781 101.585 185.579 101.931 185.286 102.189C183.081 104.3 179.553 104.411 176.665 104.411C175.364 104.411 174.085 104.411 172.828 104.411C170.586 104.683 168.312 104.385 166.213 103.544C165.965 103.449 165.743 103.297 165.563 103.1C165.383 102.904 165.251 102.668 165.177 102.411C164.984 102.102 164.887 101.742 164.897 101.377C164.908 101.012 165.025 100.658 165.236 100.361C165.446 100.063 165.739 99.8355 166.078 99.7061C166.417 99.5767 166.786 99.5515 167.139 99.6338Z" fill="#BA7542"/>
<path fill-rule="evenodd" clip-rule="evenodd" d="M231.26 74.1698C231.591 74.3254 231.503 74.6587 231.966 74.7476C231.371 76.3696 229.915 76.0808 228.681 76.2807C228.799 75.6809 229.121 75.1416 229.593 74.7562C230.064 74.3707 230.654 74.1633 231.26 74.1698Z" fill="#3F1D1D"/>
<path fill-rule="evenodd" clip-rule="evenodd" d="M176.003 76.8362L175.694 77.6361C173.379 78.5693 170.976 79.4581 168.594 80.4802C164.312 82.1066 160.193 84.1377 156.29 86.5462C154.35 87.8572 152.895 90.1236 150.315 90.4125C157.04 81.7912 166.5 79.2804 176.003 76.8362Z" fill="#3F1D1D"/>
<path fill-rule="evenodd" clip-rule="evenodd" d="M158.495 96.5453C158.076 98.9673 155.916 100.434 154.262 102.3C152.608 104.167 151.748 106.1 149.852 105.855C150.523 103.758 151.645 101.835 153.14 100.226C154.634 98.6161 156.463 97.3593 158.495 96.5453Z" fill="#3F1D1D"/>
<path fill-rule="evenodd" clip-rule="evenodd" d="M6.74724 182.536C5.9314 182.247 4.93915 182.025 5.4463 181.136C7.5061 180.442 9.66934 180.111 11.8408 180.158C11.0911 181.114 8.75378 181.092 8.73174 182.047C25.6441 176.47 41.454 168.493 57.2418 160.449C47.628 164.56 37.6173 170.382 27.9153 172.715C45.9522 163.938 63.1953 153.339 82.048 146.495C85.3776 139.829 86.6565 132.43 89.4348 126.342C93.955 116.432 103.282 111.477 110.47 106.122C118.585 100.078 124.913 93.3455 132.785 88.1905C132.785 89.2126 131.22 89.2349 131.837 89.9681C132.41 89.2349 133.733 87.7461 134.042 88.0572C121.937 100.945 107.78 109.299 96.5569 124.142C99.3272 122.599 102.295 121.448 105.377 120.72C108.927 114.054 113.734 110.255 118.982 105.944C123.227 102.568 127.643 99.4162 132.212 96.5008C141.605 90.3237 150.183 84.191 158.672 77.725C146.831 93.7455 128.177 97.434 115.917 110.921C117.508 110.807 119.108 110.89 120.68 111.166C124.903 108.98 128.899 106.375 132.609 103.389C136.401 100.367 139.599 96.4119 143.854 94.1677C142.443 97.3895 138.827 99.8782 136.49 102.722C140.551 101.321 144.46 99.5048 148.154 97.3007C152.233 91.5457 158.782 91.1902 164.184 88.4127C164.691 87.435 164.184 86.924 164.802 85.9019C166.301 85.9019 165.64 87.1462 166.257 87.6795C174.173 82.9244 184.184 83.6132 193.665 82.3023C203.147 80.9913 212.716 79.7248 221.36 78.5916C219.353 79.3026 216.95 78.8359 216.796 81.169C202.904 84.4353 185.529 85.8796 172.078 91.6568C168.66 93.1233 165.066 93.8788 165.022 98.5005C171.792 92.3456 180.59 90.6569 191.482 93.3678C192.474 93.59 192.166 94.3899 192.43 94.9454C205.308 89.146 221.294 87.2129 233.84 81.0802C235.428 80.3025 237.17 78.5249 239.022 79.347C225.086 91.4569 204.492 88.946 190.027 99.8559C195.664 96.8246 201.617 94.4325 207.777 92.7234C213.973 91.0124 220.302 88.5905 226.608 88.4571C217.611 92.2789 207.535 92.9011 198.648 96.9674C193.195 99.7733 187.909 102.897 182.817 106.322C181.846 105.1 181.119 105.766 179.84 106.122C181.457 107.072 182.738 108.51 183.5 110.233C180.59 116.632 174.68 116.61 169.498 117.832C168.859 120.054 167.293 120.609 166.389 122.276C174.097 118.767 181.996 115.703 190.049 113.099C196.951 110.677 203.698 106.589 210.114 103.789C210.776 103.5 211.68 102.3 212.474 103.144C201.78 110.833 188.219 114.877 177.194 120.187C189.961 116.121 202.397 111.299 213.224 103.7C216.862 101.145 219.839 97.4117 224.094 95.5453C207.645 114.743 181.89 118.898 160.392 128.875C153.556 132.052 145.133 137.763 138.165 138.296C136.754 138.43 135.431 137.807 134.042 137.985C131.418 138.341 128.926 139.807 125.839 138.896C129.478 142.34 133.535 140.429 137.945 139.741C141.186 139.23 144.163 138.541 146.434 138.03C163.699 134.119 178.87 124.542 195.628 122.787C193.423 124.653 190.446 125.009 187.888 125.698C168.771 131.141 152.343 141.718 131.374 142.785C132.388 143.962 130.161 145.318 130.448 146.118C144.73 144.216 158.713 140.482 172.056 135.008C176.466 133.319 180.744 130.83 185.595 130.297C181.802 133.897 176.29 133.83 171.77 135.808C158.121 141.807 144.207 148.006 127.978 147.895C126.119 149.283 123.983 150.246 121.717 150.718C119.451 151.19 117.111 151.159 114.858 150.628C115.145 152.161 113.403 152.85 113.513 153.472C126.126 151.139 138.915 151.562 150.866 148.184C162.559 144.994 173.946 140.755 184.889 135.519C178.69 140.219 171.74 143.818 164.339 146.162C156.894 148.809 149.257 150.867 141.495 152.317C133.91 153.561 125.817 153.761 116.975 154.761C106.876 155.917 97.2846 161.738 86.1052 154.228C84.4294 154.961 82.048 152.806 79.9312 152.85C77.8144 152.895 74.6833 155.828 71.8168 156.828C63.2614 159.85 55.6321 164.782 47.1649 168.715C39.5576 172.248 31.9725 175.692 24.5416 179.203C18.4497 182.205 11.7646 183.785 4.98326 183.825C5.11557 182.536 6.35034 183.38 6.74724 182.536ZM186.212 85.2353H186.521L186.234 85.1242C184.448 84.5242 179.73 85.5464 176.532 86.0574C173.149 86.4676 169.847 87.3967 166.742 88.8127C166.742 90.0125 166.742 91.2124 166.742 92.4345C172.949 89.3189 179.479 86.9045 186.212 85.2353ZM103.37 113.854C98.9604 117.254 94.3519 120.52 91.4413 127.409C95.7411 123.587 99.1588 117.876 103.37 113.854ZM97.7256 127.609C95.1707 129.021 92.9444 130.967 91.1953 133.316C89.4462 135.665 88.2145 138.363 87.5826 141.229C93.0069 136.319 97.5712 129.519 103.525 125.809C103.657 125.453 103.811 125.098 103.922 124.742C101.651 125.161 99.5211 126.147 97.7256 127.609ZM103.018 128.075C97.2839 132.631 92.1031 137.851 87.5826 143.629C93.051 139.163 99.1809 136.141 103.018 128.075ZM89.1922 144.273C94.1976 145.096 98.4973 140.096 100.945 133.697C97.6817 137.91 93.7025 141.506 89.1922 144.318V144.273ZM105.575 129.319C104.949 131.325 104.137 133.267 103.15 135.119C103.657 135.763 105.619 134.697 106.854 134.075C108.089 133.452 109.611 132.364 110.713 131.853C109.544 130.986 106.568 130.83 105.575 129.319ZM104.539 139.607C110.382 138.874 117.526 140.985 124.56 142.785C124.56 142.407 124.781 142.007 125.112 142.096C125.442 142.185 125.112 141.807 124.957 141.718C122.377 139.585 119.294 138.159 116.007 137.579C112.719 136.999 109.339 137.285 106.193 138.407C105.575 138.63 104.032 138.696 104.539 139.607ZM109.787 118.676C112.124 118.165 115.101 114.854 118.1 114.232C114.991 112.988 112.19 116.743 109.787 118.676ZM106.457 126.898C113.756 135.452 118.827 122.587 121.76 114.899C115.807 116.81 109.412 120.032 106.457 126.898ZM116.909 128.964C119.937 128.709 122.779 127.388 124.935 125.231C123.612 124.587 121.275 125.942 119.357 125.609C118.811 126.904 117.973 128.053 116.909 128.964ZM124.141 119.143C123.326 119.476 123.237 121.365 122.686 122.276C124.009 122.565 124.891 121.654 126.126 122.009C125.994 120.809 124.274 120.365 124.141 119.143ZM124.957 127.697C129.866 127.523 134.776 128.016 139.554 129.164C136.71 125.609 129.786 125.698 126.655 124.72C125.928 125.32 125.619 126.897 124.957 127.697ZM127.493 112.477C133.491 112.677 137.68 108.922 141.252 103.856C135.986 105.444 131.236 108.42 127.493 112.477ZM125.288 115.299C123.546 118.454 129.544 121.742 132.322 122.498C136.732 120.631 140.855 113.832 141.627 106.944C137.79 113.388 131.771 114.877 125.266 115.299H125.288ZM142.178 117.921C139.731 119.187 137.945 121.898 135.784 123.787C142.156 126.898 146.677 126.009 151.461 125.653C146.831 124.32 142.553 121.831 142.156 117.921H142.178ZM146.302 106.655C145.243 107.677 144.868 110.277 144.097 111.921C145.442 111.921 146.302 111.055 147.713 111.121C147.47 109.566 145.905 108.544 146.28 106.655H146.302ZM150.16 98.6339C147.955 102.256 147.073 109.966 150.844 110.788C153.049 111.277 156.952 105.944 158.54 103.878C161.057 100.463 162.803 96.5344 163.655 92.3678C160.215 92.7678 152.762 94.4343 150.138 98.6339H150.16ZM187.072 99.5449C187.513 97.3229 188.836 96.9674 189.696 95.6564C182.309 94.4788 175.342 94.2343 170.314 98.1894C174.063 97.7228 178.495 94.5009 183.699 95.5453C182.111 97.9006 177.899 97.5673 174.879 98.7005C171.858 99.8337 169.124 101.589 166.389 102.878C173.181 103.389 182.398 105.167 187.05 99.5449H187.072ZM180.7 110.299C181.626 109.899 178.803 108.211 177.458 107.566C174.945 106.359 172.193 105.741 169.409 105.761C166.624 105.78 163.881 106.435 161.384 107.677C166.588 107.833 173.511 107.477 180.523 109.899C180.766 109.966 180.722 110.144 180.678 110.299H180.7ZM179.311 111.61C171.346 108.978 162.789 108.761 154.703 110.988C162.905 113.343 173.776 116.965 179.289 111.61H179.311ZM167.183 117.476C158.914 114.054 150.05 113.543 144.45 117.476C144.979 122.32 152.321 124.32 156.908 123.942C161.494 123.564 164.669 120.12 167.161 117.476H167.183ZM157.172 126.564C155.585 126.853 150.888 128.608 147.515 128.142C148.352 129.408 147.515 129.919 146.522 130.83C147.25 131.119 147.228 130.586 147.581 131.23C146.858 131.965 146.024 132.58 145.111 133.052C149.31 131.251 153.339 129.072 157.15 126.542L157.172 126.564ZM139.532 131.608C130.338 128.875 119.423 129.186 113.58 133.83C122.211 136.369 131.471 135.577 139.554 131.608H139.532ZM127.934 145.895C118.739 142.622 109.016 141.115 99.2691 141.451C98.6296 142.007 98.1886 142.985 97.4169 143.207C102.268 143.807 107.604 146.384 112.984 147.784C118.045 148.833 123.308 148.169 127.956 145.895H127.934ZM111.485 151.984C108.872 149.826 105.853 148.225 102.608 147.278C99.3638 146.331 95.9624 146.057 92.61 146.473C95.1898 152.384 106.7 153.939 111.507 151.984H111.485ZM101.055 154.806C97.1523 153.25 91.0224 151.473 91.7721 147.073C89.5809 148.088 87.2139 148.662 84.8043 148.762C87.6708 152.406 95.8513 155.228 101.165 154.806H101.055Z" fill="#3F1D1D"/>
</g>
<defs>
<clipPath id="clip0_1_304">
<rect width="239" height="208" fill="white" transform="matrix(-1 0 0 1 239 0)"/>
</clipPath>
</defs>
</svg>
