<svg width="67" height="45" viewBox="0 0 67 45" fill="none" xmlns="http://www.w3.org/2000/svg">
<path d="M34.3326 9.92477C27.1055 9.92477 21.2246 15.803 21.2246 23.0301C21.2246 30.2572 27.1055 36.1354 34.3326 36.1354C41.5597 36.1354 47.4379 30.2572 47.4379 23.0301C47.4379 15.803 41.5597 9.92477 34.3326 9.92477ZM8.02747 0C7.5105 0 7.09325 0.419874 7.09325 0.93422V7.67582H5.41638V0.944717C5.41638 0.430371 4.9965 0.0104969 4.48216 0.0104969C3.96519 0.0104969 3.54794 0.430371 3.54794 0.944717V7.67582H1.87106V0.93422C1.87106 0.419874 1.45119 0 0.93422 0C0.41725 0 0 0.419874 0 0.93422V13.0292C0 14.8321 1.06543 16.3803 2.60059 17.0915V43.1158C2.60059 44.155 3.44297 44.9974 4.48216 44.9974C5.51872 44.9974 6.36109 44.155 6.36109 43.1158V17.0915C7.89363 16.3803 8.96169 14.8321 8.96169 13.0292V0.93422C8.96169 0.419874 8.54181 0 8.02747 0ZM34.3326 1.89731C22.6627 1.89731 13.2024 11.3576 13.2024 23.0275C13.2024 34.6973 22.6627 44.1576 34.3326 44.1576C46.0025 44.1576 55.4627 34.6973 55.4627 23.0275C55.4601 11.3576 46.0025 1.89731 34.3326 1.89731ZM34.3326 39.2504C25.3866 39.2504 18.1097 31.9734 18.1097 23.0275C18.1097 14.0841 25.3866 6.80721 34.3326 6.80721C43.2759 6.80721 50.5555 14.0841 50.5555 23.0275C50.5528 31.9734 43.2759 39.2504 34.3326 39.2504ZM66.0226 1.64276C66.0226 1.64276 66.0777 0.0577327 64.9991 0.0577327C63.4955 0.0577327 61.3593 4.13838 61.3279 8.15343C61.3016 11.1398 61.383 24.4865 61.383 24.4865C61.383 24.4865 61.6454 25.5441 62.3146 26.313C61.9209 26.6777 61.669 27.1921 61.669 27.772V43.0082C61.669 44.1078 62.5586 45 63.6582 45C64.7577 45 65.6473 44.1078 65.6473 43.0082V27.772C65.6473 27.2866 65.4662 26.8483 65.1776 26.5019C65.6027 26.0794 65.9806 25.3578 66.0199 24.1165C66.117 21.1302 66.0226 1.64276 66.0226 1.64276Z" fill="#79DE90"/>
</svg>
