<svg width="167" height="173" viewBox="0 0 167 173" fill="none" xmlns="http://www.w3.org/2000/svg">
<g clip-path="url(#clip0_1_731)">
<g style="mix-blend-mode:multiply">
<path d="M120.886 158.931C124.526 165.16 -1.84949 177.892 0.488471 171.019C-8.99317 164.58 122.929 152.487 120.886 158.931Z" fill="#BCBEC0"/>
</g>
<g style="mix-blend-mode:multiply">
<path d="M79.1386 168.069C86.4389 167.136 93.7137 166.086 100.94 164.813C104.658 164.154 107.965 163.497 110.755 162.859C107.336 162.887 103.451 162.993 99.1952 163.183C93.4527 158.107 83.3046 158.791 78.2915 164.517C65.6609 165.512 48.2781 167.328 38.0871 168.66C31.6635 163.691 21.0537 165.513 16.6253 172.147C15.4583 172.405 14.4007 172.659 13.4523 172.908C14.2981 172.916 15.192 172.916 16.1034 172.908C24.6683 172.84 32.6899 172.417 41.3713 171.816C51.9704 171.079 64.704 169.849 75.5266 168.522C76.7431 168.37 77.9395 168.221 79.1386 168.069Z" fill="#BCBEC0"/>
</g>
<path d="M52.6636 131.477L56.6141 131.201L62.4584 131.776L58.3793 133.284L52.6636 131.477Z" fill="#F466BA"/>
<path d="M58.6577 133.499L52.6636 132.904V131.478L58.6577 132.074V133.499Z" fill="#FFB617"/>
<path d="M62.4584 133.202L58.6631 133.499V132.073L62.4584 131.776V133.202Z" fill="#B10069"/>
<path d="M63.7311 143.922C63.6468 143.977 63.5507 144.011 63.4507 144.021C63.3508 144.031 63.2498 144.018 63.156 143.982C63.0622 143.946 62.9783 143.888 62.9113 143.814C62.8442 143.739 62.7959 143.65 62.7702 143.553L59.9598 132.739C59.743 131.954 60.9916 131.624 61.187 132.423C61.0652 132.803 64.6973 143.932 63.7311 143.922Z" fill="url(#paint0_linear_1_731)"/>
<path d="M60.8457 132.025C60.7214 132.09 60.6225 132.195 60.565 132.322C60.5075 132.449 60.4946 132.593 60.5286 132.728L63.339 143.542C63.3378 143.61 63.3538 143.677 63.3856 143.736C63.4174 143.796 63.464 143.847 63.5208 143.884C63.5777 143.921 63.6431 143.943 63.7109 143.948C63.7786 143.953 63.8465 143.941 63.9082 143.913C63.97 143.884 64.0235 143.841 64.0637 143.786C64.104 143.732 64.1297 143.668 64.1385 143.601C64.1473 143.534 64.1388 143.465 64.1139 143.402C64.089 143.339 64.0484 143.284 63.996 143.241L61.1857 132.428C61.1623 132.34 61.1197 132.258 61.0609 132.189C61.0022 132.119 60.9287 132.063 60.8457 132.025Z" fill="black"/>
<path d="M65.254 144.265C63.8047 144.257 63.7485 141.957 65.254 141.89L87.0437 140.643C88.1746 140.578 88.6028 139.062 87.6861 138.365L69.9005 124.82C68.684 123.949 69.8898 121.93 71.1812 122.86C101.002 146.925 105.995 141.469 65.254 144.265Z" fill="black"/>
<path d="M94.7535 143.656L63.5718 148.589C62.7984 148.71 62.0083 148.668 61.2519 148.467C60.4956 148.266 59.7898 147.91 59.1797 147.421C58.5696 146.932 58.0687 146.322 57.7091 145.629C57.3494 144.936 57.139 144.176 57.0912 143.398C57.0435 142.619 57.1595 141.84 57.4318 141.108C57.7041 140.377 58.1267 139.71 58.6726 139.151C59.2184 138.592 59.8755 138.153 60.6016 137.862C61.3277 137.57 62.1069 137.433 62.8893 137.459L94.4403 138.581C95.1032 138.604 95.7311 138.883 96.1916 139.359C96.6522 139.834 96.9095 140.469 96.9095 141.13C96.9113 141.738 96.6951 142.327 96.2998 142.79C95.9044 143.253 95.3561 143.56 94.7535 143.656Z" fill="#7E5820"/>
<path d="M57.8092 143.655C57.8087 142.903 57.9605 142.158 58.2556 141.465C58.5506 140.772 58.9828 140.145 59.5263 139.622C60.0698 139.1 60.7135 138.692 61.419 138.422C62.1244 138.153 62.8771 138.028 63.632 138.055L95.1831 139.177C95.5643 139.192 95.9371 139.294 96.2738 139.473C96.7221 137.739 63.6133 137.872 62.884 137.464C57.2793 137.155 54.9146 144.844 59.5985 147.74C59.0338 147.219 58.5833 146.587 58.2754 145.884C57.9674 145.181 57.8087 144.422 57.8092 143.655Z" fill="#FBB040"/>
<path d="M95.1978 128.499C79.8706 123.365 70.9684 150.183 86.1524 155.376C101.478 160.51 110.38 133.694 95.1978 128.499ZM101.41 145.4C95.9432 160.746 76.1636 153.883 81.1018 138.475C86.5673 123.13 106.347 129.993 101.41 145.4Z" fill="black"/>
<path d="M96.52 128.087C80.612 122.782 71.1919 150.371 87.0852 155.788C102.993 161.093 112.419 133.504 96.52 128.087ZM102.275 145.273C96.9938 160.005 77.6651 153.515 82.4682 138.606C87.749 123.87 107.078 130.36 102.269 145.273H102.275Z" fill="url(#paint1_linear_1_731)"/>
<g style="mix-blend-mode:multiply">
<path d="M96.52 128.087C80.612 122.782 71.1919 150.371 87.0852 155.788C102.993 161.093 112.419 133.504 96.52 128.087ZM102.275 145.273C96.9938 160.005 77.6651 153.515 82.4682 138.606C87.749 123.87 107.078 130.36 102.269 145.273H102.275Z" fill="#FFF200"/>
</g>
<path d="M93.2894 137.508C88.0702 137.48 87.0665 146.593 92.7086 146.709C97.9479 146.701 99.036 137.655 93.2894 137.508Z" fill="black"/>
<path d="M97.0152 142.338C96.797 146.082 91.5015 146.457 91.6193 142.397C91.8093 138.55 97.1731 138.159 97.0152 142.338Z" fill="url(#paint2_linear_1_731)"/>
<path d="M96.785 142.346C96.6351 145.054 92.8023 145.325 92.896 142.389C93.0419 139.625 96.8947 139.345 96.785 142.346Z" fill="url(#paint3_linear_1_731)"/>
<path d="M97.4167 123.42C76.351 116.416 63.7057 152.716 84.8784 159.915C105.943 166.917 118.589 130.617 97.4167 123.42ZM106.028 146.366C98.5716 167.078 71.0461 158.054 77.8766 136.966C85.3321 116.255 112.858 125.278 106.028 146.366Z" fill="#231F20"/>
<path d="M77.8766 136.967C81.3668 126.566 93.2225 121.538 101.402 127.938C101.131 126.815 100.734 125.725 100.219 124.689C86.7453 116.422 70.0878 133.432 74.365 147.954C75.492 148.288 76.6426 148.537 77.807 148.7C76.5611 145.157 76.4848 141.015 77.8766 136.967Z" fill="#414042"/>
<path d="M75.5132 134.875C76.3854 135.336 77.3059 135.699 78.258 135.959C80.6669 130.056 85.7202 126.056 91.1683 125.253C89.8926 124.482 88.4969 123.928 87.0384 123.614C82.1296 125.369 77.8204 129.388 75.5132 134.875Z" fill="#808285"/>
<path d="M97.3953 124.676C77.3854 118.009 65.515 152.677 85.5235 159.494C105.532 166.164 117.404 131.492 97.3953 124.676ZM87.7838 155.123C72.6613 149.965 81.6278 123.709 96.7649 128.76C111.89 133.922 102.917 160.17 87.7838 155.123Z" fill="black"/>
<path d="M75.6966 143.188L72.0377 143.097C71.924 124.738 95.155 112.403 106.799 127.812C106.054 128.371 105.14 128.661 104.208 128.635C103.276 128.609 102.38 128.269 101.667 127.669C91.2579 118.67 75.5453 129.836 75.6966 143.188Z" fill="#FBB040"/>
<path opacity="0.5" d="M98.403 121.709C91.4721 119.377 83.9389 121.741 78.6929 127.152C86.3452 119.411 99.511 119.371 106.079 128.235C106.333 128.118 106.574 127.977 106.799 127.812C104.686 124.977 101.758 122.849 98.403 121.709Z" fill="white"/>
<g style="mix-blend-mode:multiply">
<path d="M86.8377 121.874C78.6943 124.474 72.0524 133.911 72.0377 143.097L75.6966 143.188C75.6832 135.054 81.9249 126.632 89.2131 124.958C88.7702 123.705 87.9382 122.625 86.8377 121.874Z" fill="#A7A9AC"/>
</g>
<path d="M64.5407 144.93C62.9134 144.917 62.8612 142.471 64.5407 142.397L88.924 141.07C89.2014 141.055 89.4673 140.954 89.6852 140.782C89.903 140.61 90.0621 140.375 90.1407 140.11C90.2193 139.844 90.2135 139.561 90.1241 139.299C90.0347 139.037 89.866 138.809 89.6413 138.646L69.7412 124.233C68.3602 123.235 69.756 121.181 71.1745 122.146C106.014 148.47 108.538 141.759 64.5407 144.93Z" fill="#FFDE17"/>
<g style="mix-blend-mode:multiply">
<path d="M97.2855 142.759C97.1879 142.513 97.0223 142.299 96.8078 142.142L70.9497 123.416C70.6943 123.231 70.3788 123.147 70.065 123.182C69.7513 123.217 69.462 123.368 69.2541 123.605C69.3498 123.858 69.5166 124.078 69.7346 124.238L89.6346 138.651C92.3112 140.651 89.6627 142.287 88.6978 142.339L64.3159 143.666C64.1349 143.676 63.9577 143.721 63.7944 143.799C63.631 143.878 63.4849 143.987 63.3644 144.122C63.4613 144.369 63.6339 144.579 63.8575 144.723C64.0812 144.866 64.3446 144.936 64.6103 144.922L96.3982 143.189C96.5675 143.18 96.7332 143.138 96.8856 143.064C97.0381 142.99 97.1741 142.887 97.2855 142.759Z" fill="#BCBEC0"/>
</g>
<g style="mix-blend-mode:multiply">
<path d="M74.4011 124.494L71.1665 122.152C71.0229 122.048 70.859 121.975 70.6854 121.938C70.5118 121.901 70.3324 121.901 70.1588 121.938C69.9852 121.975 69.8213 122.047 69.6777 122.151C69.5341 122.255 69.4139 122.388 69.325 122.541C68.9905 123.112 69.1979 123.849 69.7346 124.238L73.194 126.744C73.9287 126.136 74.2619 125.377 74.4011 124.494Z" fill="#A7A9AC"/>
</g>
<path d="M63.7538 145.974C63.5573 145.973 63.3637 145.927 63.1882 145.838C63.0127 145.75 62.8601 145.623 62.7423 145.466C62.6245 145.309 62.5447 145.127 62.5092 144.935C62.4736 144.742 62.4832 144.544 62.5373 144.356L71.3164 114.508C71.7835 112.935 74.2111 113.622 73.7494 115.219L64.9703 145.065C64.8932 145.327 64.733 145.557 64.5138 145.721C64.2945 145.885 64.0279 145.974 63.7538 145.974Z" fill="#FFDE17"/>
<g style="mix-blend-mode:multiply">
<path d="M64.9703 145.065L73.7494 115.218C73.8784 115.184 73.9954 115.115 74.0872 115.018C74.1791 114.922 74.2421 114.802 74.2693 114.671C74.2966 114.541 74.2869 114.406 74.2413 114.281C74.1958 114.156 74.1163 114.046 74.0116 113.964C73.9069 113.881 73.7812 113.829 73.6487 113.814C73.5161 113.799 73.3819 113.821 73.261 113.877C73.1401 113.933 73.0374 114.022 72.9644 114.133C72.8913 114.245 72.8508 114.374 72.8474 114.507L64.0683 144.355C63.9392 144.389 63.8222 144.459 63.7304 144.555C63.6385 144.652 63.5755 144.772 63.5483 144.902C63.5211 145.032 63.5309 145.167 63.5765 145.292C63.6221 145.418 63.7018 145.527 63.8066 145.61C63.9114 145.692 64.0372 145.744 64.1698 145.759C64.3025 145.774 64.4367 145.752 64.5576 145.696C64.6784 145.639 64.781 145.55 64.8539 145.439C64.9268 145.327 64.9671 145.198 64.9703 145.065Z" fill="#BCBEC0"/>
</g>
<g style="mix-blend-mode:multiply">
<path d="M72.8889 113.654C72.5664 113.56 72.2196 113.597 71.9247 113.757C71.6299 113.918 71.4111 114.189 71.3164 114.51L69.95 119.155C70.8819 118.788 71.8479 118.513 72.834 118.334L73.7494 115.221C73.7961 115.061 73.811 114.895 73.7931 114.73C73.7751 114.565 73.7248 114.405 73.6449 114.26C73.565 114.114 73.4571 113.986 73.3273 113.882C73.1976 113.778 73.0486 113.7 72.8889 113.654Z" fill="#A7A9AC"/>
</g>
<path d="M95.7104 143.893C95.54 143.846 95.3815 143.763 95.2451 143.651C95.1086 143.539 94.9972 143.4 94.918 143.243C94.8388 143.085 94.7937 142.913 94.7854 142.737C94.7771 142.561 94.8059 142.385 94.87 142.221C94.9373 142.058 95.038 141.911 95.1658 141.789C95.2935 141.668 95.4454 141.574 95.6116 141.514C95.7779 141.455 95.9549 141.43 96.1312 141.443C96.3074 141.456 96.4791 141.505 96.6351 141.587C98.1447 142.197 97.2253 144.489 95.7104 143.893Z" fill="#BF8920"/>
<path d="M97.3283 143.199C96.7555 144.608 94.8793 143.866 95.4387 142.447C95.9981 141.029 97.8864 141.789 97.3283 143.199Z" fill="#FFB72B"/>
<g style="mix-blend-mode:multiply">
<path d="M97.1397 142.93C97.0272 143.894 95.6287 143.911 95.709 142.87C95.7893 141.829 97.2802 141.802 97.1397 142.93Z" fill="black"/>
</g>
<path d="M66.2136 106.635C30.3934 98.8341 45.5962 128.789 49.7274 133.959C51.1995 135.795 63.074 131.775 61.1322 129.505C57.5509 125.32 48.8843 113.599 72.2264 117.551C77.2222 118.398 69.5137 107.352 66.2136 106.635Z" fill="black"/>
<path d="M62.5574 145.766L32.9241 121.11L35.701 116.292L66.0771 141.566L62.5574 145.766Z" fill="#FFDE17"/>
<g style="mix-blend-mode:multiply">
<path d="M62.7341 144.919L33.3122 120.438L32.9241 121.11L62.5574 145.766L66.0771 141.566L65.7626 141.306L62.7341 144.919Z" fill="#939598"/>
</g>
<path opacity="0.5" d="M35.6502 117.219L65.5993 142.137L66.0771 141.566L35.701 116.292L32.9241 121.11L33.2506 121.382L35.6502 117.219Z" fill="white"/>
<g style="mix-blend-mode:multiply">
<path d="M35.701 116.292L32.9254 121.11L36.3166 123.932C36.3802 123.985 36.457 124.019 36.5389 124.032C36.6208 124.045 36.7046 124.035 36.7813 124.004C36.8581 123.973 36.9249 123.922 36.9746 123.855C37.0243 123.789 37.055 123.711 37.0634 123.629L37.5626 118.771C37.7767 117.677 36.3688 116.903 35.701 116.292Z" fill="#A7A9AC"/>
</g>
<path d="M67.9265 143.15C67.6348 148.182 60.5326 148.684 60.6918 143.229C60.9501 138.055 68.138 137.536 67.9265 143.15Z" fill="url(#paint4_linear_1_731)"/>
<path d="M67.6174 143.161C67.4167 146.8 62.2777 147.161 62.3981 143.218C62.5989 139.505 67.7593 139.122 67.6174 143.161Z" fill="url(#paint5_linear_1_731)"/>
<g style="mix-blend-mode:multiply">
<path d="M67.9265 143.15C67.6348 148.182 60.5326 148.684 60.6918 143.229C60.9501 138.055 68.138 137.536 67.9265 143.15Z" fill="#FFDE17"/>
</g>
<path d="M65.0974 145.229C64.0081 144.909 63.3778 143.738 63.8127 142.674C64.7495 140.333 68.5127 141.831 67.5732 144.171C67.4804 144.403 67.3427 144.614 67.168 144.792C66.9933 144.971 66.7851 145.113 66.5552 145.211C66.3253 145.309 66.0782 145.361 65.8281 145.364C65.578 145.368 65.3297 145.321 65.0974 145.229Z" fill="#939598"/>
<path d="M67.5719 144.17C66.6672 146.325 63.8462 145.201 64.6812 143.019C65.5859 140.866 68.4056 141.99 67.5719 144.17Z" fill="#E6E7E8"/>
<g style="mix-blend-mode:multiply">
<path d="M67.2842 143.76C67.0848 145.238 64.9944 145.276 65.0947 143.666C65.1951 142.057 67.4983 142.033 67.2842 143.76Z" fill="black"/>
</g>
<path d="M69.3785 154.835C69.2942 154.889 69.1982 154.923 69.0983 154.933C68.9984 154.943 68.8975 154.93 68.8038 154.894C68.7101 154.858 68.6263 154.8 68.5592 154.726C68.4921 154.651 68.4436 154.562 68.4177 154.465L65.6073 143.652C65.3905 142.865 66.6391 142.535 66.8345 143.335C66.7127 143.71 70.3461 154.839 69.3785 154.835Z" fill="url(#paint6_linear_1_731)"/>
<path d="M66.4946 142.933C66.37 142.997 66.2708 143.102 66.2131 143.229C66.1553 143.357 66.1422 143.5 66.1761 143.636L68.9864 154.448C69.0115 154.536 69.0557 154.618 69.1159 154.687C69.176 154.756 69.2506 154.811 69.3344 154.848C69.4589 154.783 69.5574 154.678 69.6136 154.549C69.6698 154.421 69.6804 154.277 69.6436 154.142L66.8332 143.329C66.8087 143.243 66.7657 143.162 66.7073 143.094C66.6488 143.026 66.5763 142.971 66.4946 142.933Z" fill="black"/>
<path d="M66.6204 154.16L70.5723 153.884L76.4165 154.459L72.3361 155.967L66.6204 154.16Z" fill="#F466BA"/>
<path d="M72.6158 156.183L66.6204 155.587V154.16L72.6158 154.756V156.183Z" fill="#FFB617"/>
<path d="M76.4165 155.884L72.6212 156.183V154.756L76.4165 154.459V155.884Z" fill="#EC008C"/>
<path d="M71.8691 122.15L69.1926 121.664C68.5315 121.552 68.2558 120.864 68.4471 120.266C68.47 120.139 68.5178 120.018 68.5878 119.91C68.6577 119.802 68.7485 119.708 68.8548 119.635C68.9611 119.561 69.0809 119.51 69.2073 119.483C69.3337 119.455 69.4642 119.454 69.5914 119.477L72.2679 119.962C73.5674 120.178 73.1619 122.405 71.8691 122.15Z" fill="black"/>
<path d="M80.1115 117.394C80.7137 120.63 62.4745 122.194 62.5173 118.897C61.9151 115.662 80.153 114.104 80.1115 117.394Z" fill="#3C2415"/>
<path d="M62.5374 117.149C64.3748 114.386 68.1808 113.242 75.1773 113.252C77.2489 113.519 80.1543 113.252 80.6294 116.026C80.8676 117.213 80.0205 118.345 78.9285 118.293C78.9285 118.293 72.7216 116.826 67.4274 118.546L66.0222 119.079C65.3477 119.33 61.0117 119.387 62.5374 117.149Z" fill="#8B5E3C"/>
<path d="M80.422 115.375C79.6779 113.222 76.9425 113.524 75.1773 113.252C70.1347 112.903 65.6609 114.67 65.6609 114.67C64.4564 114.847 60.8297 117.781 62.8264 118.827C68.4779 110.02 75.718 118.166 80.422 115.375Z" fill="#A97C50"/>
<path d="M66.1145 119.045C68.9784 117.767 72.7363 117.558 75.3218 117.787C77.3092 115.882 66.3461 114.663 66.1145 119.045Z" fill="#603913"/>
<path d="M45.2937 84.8866C41.5586 95.4126 29.5798 92.5444 29.5798 92.5444L31.3864 96.986C47.1405 100.553 54.2187 94.6992 55.4753 86.44C52.7318 84.6106 48.7451 84.0919 45.2937 84.8866Z" fill="#FEB89B"/>
<g style="mix-blend-mode:multiply">
<path d="M53.86 85.5894C52.2246 93.1898 45.3058 98.3901 30.7079 95.3233L31.3864 96.9861C47.1406 100.553 54.2187 94.6992 55.4753 86.4401C54.9635 86.1089 54.4229 85.8242 53.86 85.5894Z" fill="#FDDFD8"/>
</g>
<g style="mix-blend-mode:multiply">
<path d="M54.1424 90.7802C54.8111 89.4121 55.2626 87.9488 55.4807 86.4426C52.7278 84.6105 48.7451 84.0918 45.2937 84.8865C44.9657 85.8205 44.5339 86.715 44.0063 87.5534C47.613 87.16 51.858 88.2321 54.1424 90.7802Z" fill="#939598"/>
</g>
<path d="M54.9748 88.7735C56.9661 89.8469 56.2154 76.5941 55.0457 74.9273C53.8145 71.1937 45.1987 69.1256 45.5681 73.6872C45.9963 78.9875 45.4517 82.8144 44.3101 85.8213C44.2852 85.8939 44.2797 85.9717 44.2944 86.047C44.309 86.1223 44.3433 86.1925 44.3936 86.2505C44.444 86.3086 44.5088 86.3524 44.5815 86.3777C44.6542 86.403 44.7323 86.4088 44.808 86.3947C48.8174 85.8893 52.2327 86.1106 54.9748 88.7735Z" fill="#770E12"/>
<g style="mix-blend-mode:multiply">
<path d="M55.0457 74.9273C54.5653 73.4605 52.9527 72.2604 51.1915 71.6084C53.5924 76.4847 53.5228 82.4424 53.0102 87.3267C53.7291 87.716 54.3903 88.2029 54.9748 88.7735C56.9675 89.8442 56.2114 76.5967 55.0457 74.9273Z" fill="#D1D3D4"/>
</g>
<path d="M45.5279 26.767L85.7697 0C167.234 2.84684 137.846 -11.1767 166.619 82.4517C167.394 85.4055 166.994 88.5437 165.501 91.21C164.008 93.8763 161.538 95.8642 158.608 96.758L104.691 113.203L72.3469 104.169L45.5279 26.767Z" fill="#F15A29"/>
<g style="mix-blend-mode:multiply">
<path d="M45.5279 26.7671L81.795 32.1728C84.3433 32.553 86.7222 33.6741 88.6336 35.3957C90.5451 37.1174 91.904 39.3628 92.54 41.8507L107.582 100.7C108.103 102.865 108.113 105.12 107.612 107.29C107.11 109.459 106.111 111.483 104.691 113.203L72.3469 104.169L45.5279 26.7671Z" fill="#BCBEC0"/>
</g>
<g style="mix-blend-mode:multiply">
<path d="M83.951 65.3255C77.9756 55.5489 86.3719 41.16 77.6544 31.5567L45.5279 26.7671L72.3469 104.169L93.3001 110.022C100.313 95.3606 94.0844 78.7903 83.951 65.3255Z" fill="#BCBEC0"/>
</g>
<path d="M136.074 1.35342L85.7697 0L45.5279 26.767L79.4303 30.2112C83.5752 30.6333 87.7521 29.8134 91.4266 27.8564C105.47 20.3733 140.486 1.47209 136.074 1.35342Z" fill="#F79C7F"/>
<g style="mix-blend-mode:multiply">
<path d="M165.92 79.8236C130.028 90.1349 89.1033 82.7571 57.9484 62.6145L72.3469 104.169L104.691 113.203L158.601 96.7579C165.92 94.6058 168.633 86.544 165.92 79.8236Z" fill="#E6E7E8"/>
</g>
<path d="M152.575 29.0591C131.148 36.1262 97.1142 39.1357 96.769 39.1664L96.8479 40.0744C97.1945 40.0451 131.272 37.0369 152.808 29.9405L152.575 29.0591Z" fill="black"/>
<g style="mix-blend-mode:multiply">
<path d="M99.2059 39.4143C98.403 39.4863 97.604 39.5548 96.8091 39.6197C96.7431 38.8321 96.6779 38.044 96.6137 37.2555C97.4068 37.1897 98.1995 37.1217 98.9918 37.0515C99.0623 37.84 99.1337 38.6276 99.2059 39.4143Z" fill="#BCBEC0"/>
<path d="M99.4615 42.252C98.6586 42.324 97.852 42.3929 97.0419 42.4587C96.9777 41.6711 96.913 40.883 96.8479 40.0945C97.6508 40.0278 98.4511 39.9594 99.2488 39.8892L99.4615 42.252Z" fill="#BCBEC0"/>
<path d="M102.06 39.1449C101.263 39.2232 100.465 39.2992 99.6663 39.3729C99.5922 38.5844 99.5195 37.7968 99.4482 37.0101C100.24 36.9368 101.033 36.8635 101.824 36.7834L102.06 39.1449Z" fill="#BCBEC0"/>
<path d="M102.344 41.9799C101.541 42.0581 100.735 42.1346 99.9259 42.2092L99.7051 39.8464C100.508 39.7726 101.307 39.6966 102.103 39.6184L102.344 41.9799Z" fill="#BCBEC0"/>
<path d="M104.911 38.8489C104.114 38.9378 103.317 39.0209 102.519 39.0983C102.44 38.3115 102.36 37.5248 102.28 36.7381C103.071 36.6568 103.862 36.5754 104.653 36.4888C104.739 37.2755 104.825 38.0622 104.911 38.8489Z" fill="#BCBEC0"/>
<path d="M105.223 41.6799C104.42 41.7688 103.615 41.8532 102.807 41.9332C102.729 41.1465 102.649 40.3593 102.568 39.5717C103.371 39.4899 104.169 39.4064 104.963 39.321C105.051 40.1078 105.137 40.894 105.223 41.6799Z" fill="#BCBEC0"/>
<path d="M107.76 38.525C106.963 38.6183 106.167 38.7095 105.371 38.7983C105.282 38.0116 105.193 37.2254 105.104 36.4395C105.893 36.3506 106.683 36.2617 107.474 36.1729L107.76 38.525Z" fill="#BCBEC0"/>
<path d="M108.097 41.3532C107.294 41.4492 106.491 41.5412 105.688 41.6292C105.599 40.8425 105.51 40.0562 105.421 39.2704C106.218 39.1815 107.016 39.0904 107.814 38.9971L108.097 41.3532Z" fill="#BCBEC0"/>
<path d="M110.604 38.1743C109.809 38.2756 109.014 38.3743 108.219 38.4703L107.934 36.1141C108.724 36.019 109.512 35.9213 110.3 35.8208C110.402 36.6048 110.503 37.3893 110.604 38.1743Z" fill="#BCBEC0"/>
<path d="M110.968 40.9997C110.165 41.1019 109.362 41.2015 108.559 41.2984L108.27 38.9423C109.068 38.8463 109.864 38.7476 110.66 38.6462C110.762 39.4303 110.864 40.2148 110.968 40.9997Z" fill="#BCBEC0"/>
<path d="M113.445 37.7969C112.651 37.9049 111.857 38.0129 111.063 38.1155C110.96 37.3306 110.858 36.5461 110.755 35.7621C111.543 35.6589 112.331 35.5536 113.119 35.446C113.227 36.2292 113.335 37.0128 113.445 37.7969Z" fill="#BCBEC0"/>
<path d="M113.836 40.6184C113.033 40.7295 112.23 40.8366 111.427 40.9397C111.325 40.1557 111.223 39.3712 111.121 38.5863C111.915 38.484 112.711 38.3778 113.507 38.2676L113.836 40.6184Z" fill="#BCBEC0"/>
<path d="M116.281 37.3928C115.489 37.5093 114.696 37.6226 113.903 37.7328C113.793 36.9497 113.683 36.1665 113.572 35.3834C114.361 35.274 115.148 35.1611 115.933 35.0447C116.05 35.8278 116.166 36.6106 116.281 37.3928Z" fill="#BCBEC0"/>
<path d="M116.701 40.2104C115.898 40.3278 115.097 40.4425 114.299 40.5545L113.97 38.205C114.765 38.0939 115.559 37.9796 116.353 37.8623C116.467 38.6455 116.583 39.4282 116.701 40.2104Z" fill="#BCBEC0"/>
<path d="M119.11 36.961C118.319 37.0863 117.527 37.2077 116.735 37.325C116.617 36.5418 116.5 35.7596 116.383 34.9782C117.168 34.8617 117.953 34.7417 118.739 34.6182C118.865 35.3995 118.989 36.1805 119.11 36.961Z" fill="#BCBEC0"/>
<path d="M119.56 39.7824C118.757 39.9064 117.954 40.0304 117.161 40.1477C117.044 39.3663 116.926 38.5845 116.81 37.8023C117.603 37.6831 118.396 37.5618 119.189 37.4382C119.315 38.2143 119.438 38.9957 119.56 39.7824Z" fill="#BCBEC0"/>
<path d="M121.942 36.5035C121.152 36.635 120.362 36.7635 119.57 36.8888C119.446 36.1083 119.321 35.3274 119.196 34.546C119.982 34.4207 120.766 34.2931 121.55 34.1633C121.681 34.9438 121.812 35.7239 121.942 36.5035Z" fill="#BCBEC0"/>
<path d="M122.414 39.3129C121.617 39.4463 120.819 39.576 120.02 39.7023C119.894 38.9209 119.769 38.1395 119.645 37.3581C120.438 37.2328 121.229 37.1039 122.021 36.9714L122.414 39.3129Z" fill="#BCBEC0"/>
<path d="M124.766 36.0194C123.977 36.1581 123.188 36.2941 122.398 36.4274L121.997 34.0873C122.781 33.9548 123.564 33.8215 124.347 33.6873C124.489 34.462 124.628 35.2394 124.766 36.0194Z" fill="#BCBEC0"/>
<path d="M125.266 38.8237C124.47 38.9633 123.673 39.1006 122.876 39.2357L122.474 36.8956C123.266 36.7622 124.056 36.6262 124.846 36.4875C124.987 37.2618 125.127 38.0405 125.266 38.8237Z" fill="#BCBEC0"/>
<path d="M127.585 35.5074C126.797 35.6541 126.008 35.7977 125.221 35.9381C125.081 35.1594 124.942 34.3807 124.802 33.602C125.585 33.4624 126.367 33.3202 127.148 33.1753L127.585 35.5074Z" fill="#BCBEC0"/>
<path d="M128.11 38.3077C127.315 38.4562 126.52 38.6011 125.724 38.7424C125.583 37.9637 125.443 37.185 125.305 36.4063C126.094 36.2649 126.884 36.1214 127.672 35.9756L128.11 38.3077Z" fill="#BCBEC0"/>
<path d="M130.398 34.97C129.613 35.1229 128.827 35.2736 128.039 35.422L127.597 33.0912C128.379 32.9428 129.159 32.793 129.939 32.6418C130.092 33.4179 130.245 34.1939 130.398 34.97Z" fill="#BCBEC0"/>
<path d="M130.951 37.7649C130.158 37.9196 129.364 38.0716 128.569 38.2209L128.127 35.8901C128.915 35.7408 129.704 35.5914 130.491 35.4368C130.645 36.2128 130.798 36.9889 130.951 37.7649Z" fill="#BCBEC0"/>
<path d="M133.207 34.4048C132.423 34.5675 131.638 34.7262 130.852 34.8809C130.697 34.1048 130.542 33.3288 130.389 32.5527C131.168 32.3998 131.947 32.2429 132.726 32.082L133.207 34.4048Z" fill="#BCBEC0"/>
<path d="M133.785 37.1941C132.995 37.3586 132.203 37.5186 131.409 37.6742C131.253 36.8999 131.099 36.1243 130.944 35.3474C131.731 35.19 132.518 35.0313 133.304 34.8713L133.785 37.1941Z" fill="#BCBEC0"/>
<path d="M136.011 33.8139C135.229 33.9828 134.445 34.1486 133.66 34.3113L133.174 31.9885C133.953 31.8267 134.73 31.6622 135.506 31.4951C135.675 32.2685 135.843 33.0414 136.011 33.8139Z" fill="#BCBEC0"/>
<path d="M136.616 36.5981C135.825 36.7688 135.035 36.9364 134.243 37.1008L133.757 34.7767C134.543 34.614 135.328 34.4482 136.111 34.2793C136.28 35.0527 136.448 35.8256 136.616 36.5981Z" fill="#BCBEC0"/>
<path d="M138.809 33.1966C138.028 33.3744 137.245 33.5478 136.462 33.7167C136.293 32.9433 136.124 32.1704 135.955 31.3979C136.731 31.229 137.507 31.057 138.282 30.8818C138.458 31.6543 138.634 32.4259 138.809 33.1966Z" fill="#BCBEC0"/>
<path d="M139.441 35.9741C138.651 36.1519 137.862 36.327 137.072 36.4995C136.902 35.7261 136.732 34.9532 136.564 34.1807C137.348 34.01 138.131 33.8367 138.914 33.6606C139.089 34.4314 139.265 35.2025 139.441 35.9741Z" fill="#BCBEC0"/>
<path d="M141.601 32.5525C140.821 32.7366 140.041 32.917 139.259 33.0939L138.724 30.7804C139.498 30.6026 140.272 30.4249 141.047 30.2471C141.232 31.0142 141.417 31.7827 141.601 32.5525Z" fill="#BCBEC0"/>
<path d="M142.262 35.3235C141.475 35.5102 140.687 35.6929 139.897 35.8716C139.719 35.1008 139.543 34.3297 139.369 33.5581C140.15 33.3803 140.932 33.1994 141.713 33.0154C141.895 33.7852 142.078 34.5546 142.262 35.3235Z" fill="#BCBEC0"/>
<path d="M144.387 31.8806C143.609 32.0726 142.83 32.261 142.051 32.4459C141.868 31.6761 141.684 30.9067 141.499 30.1378C142.273 29.9538 143.045 29.7666 143.817 29.5764L144.387 31.8806Z" fill="#BCBEC0"/>
<path d="M145.072 34.6461C144.286 34.839 143.499 35.0292 142.713 35.2168C142.53 34.4478 142.346 33.6785 142.162 32.9086C142.941 32.7237 143.721 32.5353 144.501 32.3433C144.691 33.1153 144.881 33.8794 145.072 34.6461Z" fill="#BCBEC0"/>
<path d="M147.167 31.1845C146.391 31.3837 145.614 31.5792 144.836 31.7713L144.261 29.4671C145.034 29.2769 145.805 29.0831 146.575 28.8857C146.772 29.6529 146.969 30.4192 147.167 31.1845Z" fill="#BCBEC0"/>
<path d="M147.883 33.9433C147.099 34.1434 146.314 34.3407 145.529 34.5354L144.955 32.2326C145.734 32.0397 146.512 31.8437 147.29 31.6445C147.485 32.4099 147.683 33.1762 147.883 33.9433Z" fill="#BCBEC0"/>
<path d="M149.941 30.4606C149.167 30.6659 148.391 30.8691 147.615 31.07C147.417 30.3037 147.219 29.5379 147.02 28.7725C147.79 28.5734 148.559 28.372 149.327 28.1685L149.941 30.4606Z" fill="#BCBEC0"/>
<path d="M150.678 33.2126C149.897 33.4206 149.114 33.6255 148.33 33.8273C148.132 33.0619 147.933 32.296 147.734 31.5298C148.511 31.3298 149.288 31.1266 150.064 30.9204L150.678 33.2126Z" fill="#BCBEC0"/>
<path d="M152.709 29.7111C151.936 29.9245 151.162 30.1347 150.388 30.3418L149.77 28.0483C150.538 27.8417 151.306 27.635 152.073 27.4216C152.284 28.1852 152.496 28.9484 152.709 29.7111Z" fill="#BCBEC0"/>
<path d="M153.473 32.4553C152.693 32.6704 151.912 32.8828 151.129 33.0926C150.923 32.329 150.718 31.565 150.512 30.8005C151.287 30.5925 152.061 30.3818 152.836 30.1685C153.048 30.9312 153.26 31.6934 153.473 32.4553Z" fill="#BCBEC0"/>
</g>
<path d="M99.5499 39.041C98.7469 39.113 97.948 39.1819 97.153 39.2477C97.0888 38.4583 97.0241 37.6698 96.959 36.8822C97.7512 36.8182 98.5435 36.7502 99.3358 36.6782C99.408 37.4667 99.4794 38.2543 99.5499 39.041Z" fill="#D1D3D4"/>
<path d="M99.8068 41.8787C99.0039 41.9507 98.1973 42.02 97.3872 42.0867C97.3221 41.2973 97.257 40.5088 97.1918 39.7212C97.9948 39.6554 98.7951 39.587 99.5927 39.5159C99.6676 40.3044 99.739 41.092 99.8068 41.8787Z" fill="#D1D3D4"/>
<path d="M102.404 38.7718C101.607 38.8518 100.809 38.9278 100.01 38.9998L99.7934 36.637C100.586 36.565 101.377 36.4898 102.169 36.4116C102.248 37.1974 102.327 37.9842 102.404 38.7718Z" fill="#D1D3D4"/>
<path d="M102.688 41.6066C101.885 41.6853 101.082 41.7639 100.271 41.8359L100.054 39.4731C100.857 39.4002 101.657 39.3242 102.453 39.2451C102.53 40.0318 102.609 40.819 102.688 41.6066Z" fill="#D1D3D4"/>
<path d="M105.256 38.4756C104.46 38.5645 103.663 38.6476 102.865 38.725C102.784 37.9383 102.705 37.1515 102.625 36.3648C103.416 36.2848 104.207 36.2017 104.998 36.1155C105.084 36.9022 105.17 37.6889 105.256 38.4756Z" fill="#D1D3D4"/>
<path d="M105.567 41.3066C104.764 41.3955 103.961 41.4799 103.158 41.5599C103.078 40.7732 102.998 39.986 102.918 39.1984C103.721 39.1184 104.52 39.0349 105.314 38.9478C105.396 39.7345 105.48 40.5207 105.567 41.3066Z" fill="#D1D3D4"/>
<path d="M108.104 38.1517C107.307 38.245 106.511 38.3362 105.715 38.4251C105.626 37.6383 105.537 36.8521 105.448 36.0662C106.239 35.9773 107.029 35.8885 107.818 35.7996L108.104 38.1517Z" fill="#D1D3D4"/>
<path d="M108.441 40.9826C107.638 41.0786 106.835 41.1706 106.032 41.2586C105.943 40.4719 105.854 39.6856 105.765 38.8998C106.568 38.8109 107.365 38.7198 108.158 38.6265L108.441 40.9826Z" fill="#D1D3D4"/>
<path d="M110.947 37.801C110.152 37.9023 109.356 38.001 108.56 38.097L108.275 35.7409C109.065 35.6466 109.854 35.5488 110.643 35.4475C110.745 36.2316 110.847 37.0161 110.947 37.801Z" fill="#D1D3D4"/>
<path d="M111.313 40.6264C110.51 40.7295 109.707 40.8291 108.904 40.9251C108.81 40.1384 108.715 39.353 108.621 38.569C109.417 38.473 110.214 38.3743 111.009 38.2729C111.111 39.057 111.212 39.8415 111.313 40.6264Z" fill="#D1D3D4"/>
<path d="M113.789 37.4236C112.996 37.5329 112.202 37.6391 111.407 37.7423C111.305 36.9582 111.203 36.1737 111.1 35.3888C111.888 35.2857 112.676 35.1803 113.464 35.0728L113.789 37.4236Z" fill="#D1D3D4"/>
<path d="M114.181 40.2451C113.378 40.3562 112.575 40.4633 111.772 40.5665C111.67 39.7824 111.567 38.9979 111.464 38.213C112.26 38.1099 113.056 38.0036 113.851 37.8943C113.961 38.6783 114.071 39.4619 114.181 40.2451Z" fill="#D1D3D4"/>
<path d="M116.626 37.0195C115.834 37.136 115.041 37.2493 114.247 37.3595L113.918 35.0101C114.704 34.9007 115.491 34.7878 116.278 34.6714C116.393 35.4545 116.509 36.2373 116.626 37.0195Z" fill="#D1D3D4"/>
<path d="M117.044 39.837C116.241 39.9544 115.441 40.0691 114.643 40.1811L114.314 37.8316C115.109 37.7205 115.903 37.6067 116.696 37.4902C116.813 38.2716 116.929 39.0539 117.044 39.837Z" fill="#D1D3D4"/>
<path d="M119.459 36.589C118.667 36.7135 117.875 36.8344 117.083 36.9517C116.967 36.1685 116.849 35.3863 116.731 34.6049C117.517 34.4884 118.303 34.3684 119.087 34.2449C119.212 35.0263 119.336 35.8076 119.459 36.589Z" fill="#D1D3D4"/>
<path d="M119.904 39.4025C119.101 39.5278 118.301 39.6501 117.505 39.7692C117.388 38.986 117.27 38.2038 117.153 37.4224C117.947 37.3041 118.74 37.1828 119.533 37.0583C119.656 37.8397 119.78 38.6211 119.904 39.4025Z" fill="#D1D3D4"/>
<path d="M122.287 36.1302C121.498 36.2626 120.707 36.3915 119.914 36.5169L119.541 34.1727C120.325 34.0474 121.109 33.9198 121.894 33.79L122.287 36.1302Z" fill="#D1D3D4"/>
<path d="M122.758 38.9398C121.961 39.0732 121.162 39.203 120.364 39.3292L119.991 36.9824C120.783 36.8562 121.575 36.7273 122.366 36.5957C122.497 37.3789 122.628 38.1602 122.758 38.9398Z" fill="#D1D3D4"/>
<path d="M125.111 35.6488C124.321 35.7875 123.532 35.9235 122.742 36.0568C122.61 35.2763 122.476 34.4963 122.341 33.7167C123.124 33.5842 123.907 33.4509 124.689 33.3167C124.832 34.0918 124.973 34.8692 125.111 35.6488Z" fill="#D1D3D4"/>
<path d="M125.609 38.4489C124.813 38.5894 124.016 38.7267 123.218 38.861C123.086 38.0805 122.953 37.3004 122.817 36.5208C123.608 36.3875 124.399 36.2515 125.188 36.1128C125.329 36.8924 125.469 37.6711 125.609 38.4489Z" fill="#D1D3D4"/>
<path d="M127.929 35.1341C127.142 35.2808 126.355 35.4244 125.566 35.5648C125.426 34.7861 125.286 34.0074 125.146 33.2287C125.929 33.09 126.711 32.9478 127.492 32.802L127.929 35.1341Z" fill="#D1D3D4"/>
<path d="M128.455 37.9344C127.66 38.0829 126.864 38.2278 126.068 38.3691C125.928 37.5904 125.789 36.8117 125.649 36.033C126.438 35.8916 127.228 35.7481 128.018 35.6023L128.455 37.9344Z" fill="#D1D3D4"/>
<path d="M130.744 34.5967C129.957 34.7496 129.17 34.9007 128.383 35.0501C128.236 34.2722 128.089 33.4949 127.943 32.7179C128.722 32.5712 129.503 32.4215 130.283 32.2686C130.438 33.0446 130.591 33.8206 130.744 34.5967Z" fill="#D1D3D4"/>
<path d="M131.295 37.3916C130.501 37.5463 129.707 37.6988 128.913 37.849C128.766 37.0703 128.618 36.2929 128.471 35.5168C129.259 35.3675 130.048 35.2182 130.836 35.0635C130.988 35.8395 131.141 36.6156 131.295 37.3916Z" fill="#D1D3D4"/>
<path d="M133.551 34.0315C132.767 34.1942 131.982 34.3529 131.196 34.5076C131.042 33.7315 130.888 32.9555 130.733 32.1794C131.513 32.0256 132.292 31.8688 133.07 31.7087L133.551 34.0315Z" fill="#D1D3D4"/>
<path d="M134.131 36.8209C133.339 36.9844 132.546 37.1444 131.753 37.3009C131.599 36.5257 131.445 35.7501 131.29 34.9741C132.077 34.8167 132.863 34.6581 133.649 34.498L134.131 36.8209Z" fill="#D1D3D4"/>
<path d="M136.355 33.4406C135.572 33.6095 134.788 33.7753 134.004 33.938C133.841 33.1637 133.68 32.3895 133.519 31.6152C134.297 31.4543 135.075 31.2898 135.852 31.1218C136.021 31.8952 136.189 32.6681 136.355 33.4406Z" fill="#D1D3D4"/>
<path d="M136.961 36.2248C136.171 36.3955 135.379 36.5631 134.587 36.7275L134.099 34.4047C134.884 34.242 135.669 34.0758 136.454 33.906C136.624 34.6794 136.793 35.4523 136.961 36.2248Z" fill="#D1D3D4"/>
<path d="M139.153 32.8234C138.372 33.0011 137.59 33.1745 136.807 33.3434C136.638 32.57 136.468 31.7971 136.299 31.0246C137.076 30.8566 137.852 30.6846 138.627 30.5085L139.153 32.8234Z" fill="#D1D3D4"/>
<path d="M139.785 35.6008C138.995 35.7786 138.206 35.9537 137.416 36.1262C137.248 35.3528 137.079 34.5799 136.909 33.8074C137.693 33.6385 138.477 33.4651 139.259 33.2874L139.785 35.6008Z" fill="#D1D3D4"/>
<path d="M141.945 32.1819C141.166 32.366 140.386 32.5464 139.604 32.7233L139.069 30.4098C139.843 30.232 140.618 30.0543 141.392 29.8765C141.58 30.6405 141.763 31.4086 141.945 32.1819Z" fill="#D1D3D4"/>
<path d="M142.603 34.9516C141.816 35.1374 141.029 35.3196 140.24 35.4983L139.705 33.1848C140.488 33.007 141.27 32.8261 142.051 32.6421C142.236 33.4119 142.42 34.1817 142.603 34.9516Z" fill="#D1D3D4"/>
<path d="M144.731 31.5074C143.953 31.6994 143.174 31.8879 142.395 32.0728C142.212 31.3038 142.028 30.5344 141.843 29.7646C142.617 29.5806 143.389 29.3939 144.161 29.2046L144.731 31.5074Z" fill="#D1D3D4"/>
<path d="M145.416 34.2741C144.63 34.4661 143.844 34.6559 143.057 34.8435C142.874 34.0745 142.69 33.3052 142.506 32.5353C143.287 32.3504 144.067 32.162 144.846 31.97L145.416 34.2741Z" fill="#D1D3D4"/>
<path d="M147.512 30.8113C146.736 31.0095 145.959 31.2051 145.181 31.398L144.607 29.0938C145.379 28.9036 146.15 28.7098 146.919 28.5125L147.512 30.8113Z" fill="#D1D3D4"/>
<path d="M148.223 33.57C147.439 33.7701 146.654 33.9674 145.87 34.1621L145.296 31.8593C146.075 31.6655 146.853 31.4695 147.631 31.2712C147.828 32.0384 148.026 32.8047 148.223 33.57Z" fill="#D1D3D4"/>
<path d="M150.292 30.0873C149.517 30.2935 148.742 30.4967 147.964 30.6967C147.766 29.9304 147.568 29.1646 147.369 28.3992C148.14 28.2001 148.909 27.9987 149.677 27.7952L150.292 30.0873Z" fill="#D1D3D4"/>
<path d="M151.024 32.8393C150.24 33.0473 149.457 33.2522 148.675 33.454L148.08 31.1565C148.858 30.9565 149.634 30.7534 150.409 30.5471L151.024 32.8393Z" fill="#D1D3D4"/>
<path d="M153.054 29.3378C152.28 29.5512 151.506 29.7614 150.732 29.9685C150.528 29.2032 150.322 28.4391 150.115 27.6764C150.883 27.4711 151.65 27.2626 152.417 27.051C152.629 27.8128 152.842 28.5751 153.054 29.3378Z" fill="#D1D3D4"/>
<path d="M153.817 32.082C153.037 32.2971 152.256 32.5096 151.475 32.7193L150.856 30.4272C151.633 30.221 152.408 30.0103 153.181 29.7952C153.396 30.5579 153.608 31.3201 153.817 32.082Z" fill="#D1D3D4"/>
<g style="mix-blend-mode:multiply">
<path d="M102.382 45.4882L98.5689 39.8385C98.3695 39.543 98.0708 39.3282 97.7266 39.2326C97.3824 39.137 97.0152 39.167 96.6912 39.3172C96.3672 39.4673 96.1076 39.7278 95.9592 40.0517C95.8108 40.3756 95.7833 40.7416 95.8816 41.0839L97.7552 47.6297C98.4244 49.5778 100.753 47.651 101.874 47.283C102.036 47.209 102.18 47.1008 102.295 46.9661C102.411 46.8313 102.496 46.6731 102.544 46.5024C102.593 46.3317 102.603 46.1526 102.575 45.9775C102.547 45.8024 102.481 45.6354 102.382 45.4882ZM100.311 47.0736C98.0885 48.0737 97.2119 46.1949 99.412 45.1455C101.63 44.1455 102.506 46.0242 100.306 47.0736H100.311Z" fill="#A7A9AC"/>
</g>
<g style="mix-blend-mode:multiply">
<path d="M98.3534 44.0934L97.9051 40.0198C97.8248 39.0264 96.2551 38.9424 96.0704 39.9238L95.1965 43.9241C95.1753 44.0301 95.1774 44.1394 95.2029 44.2445C95.2283 44.3495 95.2763 44.4479 95.3436 44.5326C95.411 44.6173 95.496 44.6865 95.5929 44.7352C95.6897 44.7839 95.796 44.8111 95.9044 44.8148C96.587 44.7774 98.4525 45.3188 98.3534 44.0934Z" fill="#D1D3D4"/>
</g>
<g style="mix-blend-mode:multiply">
<path d="M95.5899 44.2508L96.4625 40.2506C96.5709 39.6985 97.2346 39.3812 97.7512 39.6199C97.3404 38.9692 96.2082 39.1598 96.0704 39.9279L95.1965 43.9281C95.1611 44.1025 95.1904 44.2838 95.279 44.4383C95.3676 44.5928 95.5094 44.71 95.6782 44.7682C95.5837 44.6132 95.5522 44.4282 95.5899 44.2508Z" fill="#D1D3D4"/>
</g>
<path d="M99.4481 46.9615L98.7362 40.1904C98.6994 39.8359 98.5368 39.5062 98.2776 39.2606C98.0184 39.015 97.6796 38.8698 97.3225 38.8512C96.9653 38.8325 96.6131 38.9416 96.3296 39.1588C96.046 39.376 95.8496 39.687 95.7759 40.0357L94.352 46.6948C94.0228 48.7256 96.9977 48.1162 98.1553 48.3123C98.3332 48.3223 98.5111 48.2937 98.6768 48.2285C98.8425 48.1633 98.992 48.0629 99.115 47.9345C99.2379 47.806 99.3314 47.6525 99.3889 47.4845C99.4464 47.3165 99.4666 47.1381 99.4481 46.9615ZM96.8733 47.3962C94.439 47.2415 94.5487 45.1721 96.9844 45.2721C99.4187 45.4267 99.3036 47.4949 96.8733 47.3962Z" fill="black"/>
<path d="M99.1778 46.8496L98.4658 40.0785C98.4282 39.7249 98.2652 39.3962 98.0062 39.1515C97.7472 38.9068 97.4091 38.7621 97.0526 38.7435C96.6962 38.7249 96.3447 38.8335 96.0614 39.0498C95.7781 39.2662 95.5815 39.5761 95.5069 39.9239L94.0844 46.5829C93.7565 48.6124 96.7301 48.003 97.8877 48.2004C98.0654 48.21 98.243 48.1811 98.4083 48.1157C98.5737 48.0503 98.7229 47.95 98.8455 47.8215C98.9681 47.6931 99.0614 47.5397 99.1187 47.3719C99.1761 47.2041 99.1963 47.0259 99.1778 46.8496ZM96.603 47.2843C94.1687 47.1297 94.2784 45.0602 96.7154 45.1602C99.1484 45.3175 99.036 47.383 96.603 47.287V47.2843Z" fill="#E6E7E8"/>
<path d="M76.5156 149.891C78.5484 153.591 61.9846 161.025 60.5219 157.178C59.0217 152.827 73.6477 144.322 76.5156 149.891Z" fill="#694253"/>
<g style="mix-blend-mode:multiply">
<path d="M76.5156 149.891C76.3488 149.559 76.1091 149.269 75.8143 149.042C77.4697 152.708 63.1556 159.067 60.4523 156.95C61.5925 161.338 78.5778 153.559 76.5156 149.891Z" fill="#694253"/>
</g>
<g style="mix-blend-mode:multiply">
<path d="M76.5156 149.891C74.824 146.29 66.6579 148.78 63.4902 152.037C66.6525 151.2 69.8764 152.632 71.5198 155.531C75.0006 153.656 77.2931 151.512 76.5156 149.891Z" fill="#D1D3D4"/>
</g>
<path opacity="0.5" d="M64.4537 153.378C65.0105 154.12 61.8481 156.311 61.3423 155.538C60.7869 154.796 63.9479 152.602 64.4537 153.378Z" fill="white"/>
<path d="M90.6745 102.576C86.8912 101.66 65.9486 102.46 66.1078 106.321C66.3755 112.8 67.9011 114.347 69.3692 115.63C61.5751 127.856 60.099 143.204 59.9839 149.488C59.9384 151.957 78.159 150.099 77.4644 148.04C75.5253 142.287 72.6975 125.772 90.6745 112.114C93.4581 103.85 91.0438 102.665 90.6745 102.576Z" fill="#301D0A"/>
<path d="M66.0771 134.752C70.4933 135.259 71.7941 131.577 74.8441 125.098C78.6514 117.012 86.2073 113.599 75.5574 113.207C72.3696 113.09 69.2889 115.559 69.3692 115.63C66.2417 120.537 64.1325 125.945 62.7193 131.071C62.8425 133.224 63.7271 134.483 66.0771 134.752Z" fill="#603913"/>
<path d="M65.0439 106.389C68.1433 95.5618 47.8364 89.7401 48.3677 76.7873C49.2229 55.966 94.3199 61.7024 92.7461 103.709C92.7461 103.713 72.3629 113.854 65.0439 106.389Z" fill="#ED1C24"/>
<g style="mix-blend-mode:multiply">
<path d="M48.3677 76.7913C47.8324 89.7401 68.1434 95.5618 65.0439 106.393C65.9388 107.287 67.0269 107.965 68.225 108.376C67.3685 95.9819 73.1539 82.2117 88.639 82.4277C77.7347 60.473 49.0489 60.225 48.3677 76.7913Z" fill="#D1D3D4"/>
</g>
<g style="mix-blend-mode:multiply">
<path d="M71.5065 66.7175C53.0142 59.5704 40.397 76.0995 54.2602 89.0296C64.3748 87.7002 68.8567 76.5848 71.5065 66.7175Z" fill="#D1D3D4"/>
</g>
<g style="mix-blend-mode:multiply">
<path d="M88.1719 57.2663C89.8929 58.0196 89.7524 59.6064 89.5825 61.4705C88.6979 71.2218 74.7089 68.3936 72.3188 73.4859C71.4101 75.422 93.2198 91.4524 99.8644 96.4087C100.171 96.6374 100.421 96.9325 100.596 97.2718C100.771 97.6111 100.866 97.9856 100.874 98.367C100.882 98.7484 100.803 99.1266 100.643 99.4729C100.482 99.8193 100.245 100.125 99.9487 100.366C98.2866 102.034 93.7177 102.601 92.7876 101.928C87.4078 98.0274 71.7058 81.0651 71.3405 74.218C71.105 69.7977 88.8464 67.2162 85.3736 57.933C84.9975 56.9342 87.1936 56.8382 88.1719 57.2663Z" fill="#A7A9AC"/>
</g>
<path d="M87.753 56.5021C88.1441 56.6725 88.4821 56.9443 88.7317 57.2892C88.9814 57.6341 89.1335 58.0395 89.1724 58.463C89.2112 58.8865 89.1353 59.3126 88.9525 59.6969C88.7696 60.0811 88.4867 60.4095 88.1331 60.6476C83.2738 63.9172 72.1716 71.763 72.4874 73.5818C72.8541 75.6886 92.7983 90.6868 99.4441 95.6431C99.7505 95.8719 100 96.1672 100.175 96.5065C100.35 96.8459 100.445 97.2204 100.453 97.6018C100.461 97.9831 100.382 98.3613 100.221 98.7076C100.061 99.054 99.8236 99.3594 99.5271 99.6007C99.0967 99.9533 98.5611 100.154 98.0041 100.171C97.4471 100.188 96.9002 100.02 96.4491 99.6941C91.0679 95.7938 71.0916 80.7756 71.0916 73.9178C71.0916 72.2004 82.0226 60.7303 84.9574 57.1674C85.2868 56.768 85.7383 56.4868 86.243 56.3666C86.7477 56.2465 87.2779 56.2941 87.753 56.5021Z" fill="#FFDE17"/>
<path d="M88.3191 58.5837C88.3111 60.2131 85.8232 60.2131 85.8165 58.5837C85.8099 56.9542 88.3124 56.9516 88.3191 58.5837Z" fill="#231F20"/>
<path d="M99.3103 97.5446C99.3036 99.1753 96.8145 99.1753 96.8078 97.5446C96.8011 95.9138 99.3036 95.9191 99.3103 97.5446Z" fill="#231F20"/>
<g style="mix-blend-mode:multiply">
<path d="M64.8954 100.842C87.6901 114.275 93.1088 81.3411 78.7987 72.8406C78.7987 72.8366 83.5214 97.7781 64.8954 100.842Z" fill="#BCBEC0"/>
</g>
<path d="M72.1367 86.9254C68.2558 98.5341 55.8366 95.3712 55.8366 95.3712L57.7102 100.273C74.0585 104.206 81.3976 97.75 82.7131 88.6415C79.8505 86.6213 75.7179 86.052 72.1367 86.9254Z" fill="#FEB89B"/>
<g style="mix-blend-mode:multiply">
<path d="M81.0255 87.7014C79.3286 96.0833 72.1501 101.822 57.0022 98.4301L57.7048 100.273C74.0531 104.206 81.3922 97.75 82.7077 88.6415C82.1776 88.2766 81.6144 87.9619 81.0255 87.7014Z" fill="#FDDFD8"/>
</g>
<g style="mix-blend-mode:multiply">
<path d="M81.3186 93.4257C82.0157 91.9077 82.4842 90.2956 82.7091 88.6414C79.8519 86.6213 75.7193 86.0493 72.1368 86.9253C71.7984 87.9532 71.3497 88.9416 70.7985 89.8735C74.5456 89.4335 78.9486 90.6149 81.3186 93.4257Z" fill="#D1D3D4"/>
</g>
<path d="M82.1818 91.2122C84.2695 92.3603 83.4505 77.7327 82.2568 75.942C80.9787 71.819 72.0391 69.5416 72.4218 74.5752C72.8661 80.4196 72.3014 84.6412 71.117 87.9587C71.0886 88.0358 71.0808 88.119 71.0943 88.2001C71.1078 88.2811 71.1422 88.3573 71.1942 88.4211C71.2461 88.485 71.3137 88.5343 71.3905 88.5642C71.4673 88.5942 71.5506 88.6038 71.6322 88.5921C75.7929 88.0307 79.338 88.2747 82.1818 91.2122Z" fill="#ED1C24"/>
<g style="mix-blend-mode:multiply">
<path d="M82.2568 75.942C81.7576 74.3299 80.0847 73.0084 78.2567 72.2817C80.7579 77.6994 80.6656 84.2211 80.1436 89.6161C80.8956 90.0508 81.5818 90.5895 82.1818 91.2162C84.2708 92.355 83.4505 77.7367 82.2568 75.942Z" fill="#D1D3D4"/>
</g>
<path d="M26.1003 148.943C25.9132 148.942 25.7285 148.9 25.5594 148.821C25.3904 148.741 25.241 148.625 25.1221 148.481C25.0031 148.337 24.9174 148.169 24.8711 147.988C24.8249 147.807 24.8191 147.619 24.8543 147.436L28.8076 127.461C28.9414 124.752 34.2771 122.424 34.4805 125.49C34.1245 127.537 31.8428 125.682 31.2941 127.949L27.3422 147.923C27.2858 148.21 27.1311 148.468 26.9046 148.654C26.6781 148.84 26.3938 148.942 26.1003 148.943Z" fill="#071D2F"/>
<path d="M31.5551 133.912C15.5494 128.548 6.28185 156.594 22.1176 162.014C38.122 167.378 47.3908 139.333 31.5551 133.912ZM38.0376 151.581C32.3246 167.636 11.6938 160.439 16.8461 144.344C22.5592 128.291 43.1913 135.487 38.0376 151.581Z" fill="black"/>
<path d="M32.9361 133.482C16.3229 127.937 6.51604 156.791 23.0918 162.445C39.7038 167.988 49.5106 139.135 32.9361 133.482ZM38.9356 151.449C33.4166 166.861 13.2542 160.055 18.2727 144.476C23.7918 129.064 43.9541 135.871 38.9356 151.449Z" fill="url(#paint7_linear_1_731)"/>
<g style="mix-blend-mode:multiply">
<path d="M32.9361 133.482C16.3229 127.937 6.51604 156.791 23.0918 162.445C39.7038 167.988 49.5106 139.135 32.9361 133.482ZM38.9356 151.449C33.4166 166.861 13.2542 160.055 18.2727 144.476C23.7918 129.064 43.9541 135.871 38.9356 151.449Z" fill="#FFF200"/>
</g>
<path d="M29.5651 143.332C24.1196 143.304 23.0718 152.831 28.9588 152.948C34.427 152.944 35.5552 143.481 29.5651 143.332Z" fill="black"/>
<path d="M33.4514 148.381C33.2252 152.297 27.6968 152.688 27.8226 148.443C28.0234 144.421 33.6174 144.013 33.4514 148.381Z" fill="url(#paint8_linear_1_731)"/>
<path d="M33.2118 148.39C33.0553 151.221 29.0565 151.504 29.1542 148.434C29.3121 145.544 33.3269 145.256 33.2118 148.39Z" fill="url(#paint9_linear_1_731)"/>
<path d="M33.8716 128.601C11.8731 121.284 -1.29277 159.246 20.7887 166.758C42.7858 174.076 55.9517 136.112 33.8716 128.601ZM42.8581 152.589C35.064 174.256 6.35275 164.793 13.4817 142.761C21.2745 121.1 49.9857 130.563 42.8581 152.589Z" fill="#231F20"/>
<path d="M13.4817 142.766C17.1232 131.896 29.4941 126.632 38.0296 133.327C37.7466 132.152 37.3328 131.013 36.7957 129.929C22.7238 121.287 5.34639 139.093 9.81755 154.253C10.9934 154.603 12.1942 154.863 13.4095 155.032C12.1087 151.328 12.0297 146.998 13.4817 142.766Z" fill="#414042"/>
<path d="M11.0153 140.578C11.9253 141.06 12.8857 141.44 13.8792 141.713C16.3885 135.54 21.6666 131.359 27.3516 130.512C26.0208 129.706 24.5644 129.127 23.0423 128.799C17.9194 130.641 13.4229 134.846 11.0153 140.578Z" fill="#808285"/>
<path d="M33.8489 129.921C12.9531 122.952 0.594187 159.211 21.4605 166.324C42.3562 173.288 54.7152 137.028 33.8489 129.921ZM23.8252 161.745C8.05103 156.362 17.3868 128.903 33.1931 134.182C48.9646 139.565 39.6288 167.024 23.8252 161.745Z" fill="black"/>
<path d="M47.0723 150.171C40.3568 149.261 47.5581 136.279 33.4313 130.836C26.6396 128.149 22.1109 134.099 18.978 129.477C33.2439 120.292 50.1503 133.522 47.0723 150.171Z" fill="#FBB040"/>
<path opacity="0.5" d="M43.4282 133.959C38.047 126.145 27.1133 124.237 18.9753 129.477C19.1911 129.818 19.4573 130.124 19.7649 130.385C27.555 125.597 37.7686 127.017 43.4282 133.959Z" fill="white"/>
<g style="mix-blend-mode:multiply">
<path d="M34.7 127.413C33.6362 127.057 32.5398 126.806 31.4266 126.664C33.4848 127.244 34.0054 128.441 33.6816 130.931C47.4979 136.494 40.3555 149.176 47.0723 150.175C48.6688 139.939 43.4657 130.367 34.7 127.413Z" fill="#BCBEC0"/>
</g>
<path d="M31.5256 97.6806L24.2187 96.9526C23.9837 96.9339 23.7549 96.8687 23.5456 96.7608C23.3363 96.6529 23.1508 96.5044 22.9998 96.3241C22.8489 96.1438 22.7355 95.9353 22.6665 95.7108C22.5975 95.4863 22.5741 95.2503 22.5978 95.0167C22.6215 94.783 22.6918 94.5565 22.8045 94.3503C22.9172 94.1441 23.0701 93.9624 23.2542 93.8158C23.4384 93.6692 23.65 93.5608 23.8767 93.4967C24.1035 93.4327 24.3407 93.4145 24.5746 93.443L31.8829 94.1711C32.3492 94.2192 32.7772 94.4497 33.073 94.8119C33.3688 95.1742 33.5083 95.6386 33.4608 96.1032C33.4138 96.5679 33.1836 96.9951 32.8208 97.2908C32.4579 97.5866 31.9921 97.7268 31.5256 97.6806Z" fill="#8B5E3C"/>
<path d="M22.6395 95.002C22.613 95.2336 22.6329 95.4683 22.6982 95.6922C22.7634 95.9161 22.8727 96.1249 23.0196 96.3064C23.1666 96.4879 23.3482 96.6385 23.554 96.7495C23.7599 96.8604 23.9858 96.9295 24.2187 96.9527L31.5256 97.6808C31.7587 97.7043 31.9941 97.6814 32.2182 97.6134C32.4424 97.5455 32.6507 97.4338 32.8311 97.2849C33.0116 97.136 33.1605 96.9529 33.2693 96.7462C33.3781 96.5394 33.4445 96.3132 33.4648 96.0807L22.6395 95.002Z" fill="#3C2415"/>
<path d="M33.4608 96.1032C33.1931 98.406 29.7444 98.058 29.9398 95.7485C30.2168 93.4457 33.6602 93.7938 33.4608 96.1032Z" fill="#603913"/>
<path d="M33.0098 96.0527C32.8291 97.7515 30.2342 97.4901 30.4001 95.786C30.5661 94.0819 33.1744 94.3566 33.0098 96.0527Z" fill="black"/>
<path d="M36.3394 105.568C32.6618 104.469 30.819 101.869 32.5628 98.1687C32.6155 98.0291 32.6346 97.8791 32.6183 97.7308C32.602 97.5826 32.5509 97.4402 32.4691 97.3153C31.9753 96.5486 30.7708 97.1993 30.7561 95.8592C31.0746 94.1418 33.5116 95.2605 34.067 96.2886C34.8619 97.3873 34.4457 98.7647 33.9492 99.8888C33.2011 102.086 35.0613 103.034 36.7596 103.766C37.6589 104.174 37.3056 105.605 36.3394 105.568Z" fill="#FFDE17"/>
<g style="mix-blend-mode:multiply">
<path d="M35.7559 104.354C33.8208 103.634 32.4383 101.954 33.2132 99.8449C34.0563 97.9781 33.0794 95.8086 30.827 95.5686C30.7702 95.7069 30.7471 95.8567 30.7595 96.0057C30.772 96.1546 30.8196 96.2985 30.8986 96.4256C30.9776 96.5527 31.0856 96.6593 31.2139 96.7368C31.3422 96.8143 31.4871 96.8604 31.6367 96.8714C31.8016 96.8693 31.9643 96.909 32.1097 96.9867C32.255 97.0643 32.3782 97.1774 32.4678 97.3154C32.5496 97.4403 32.6007 97.5827 32.6169 97.7309C32.6332 97.8792 32.6142 98.0292 32.5615 98.1688C30.8391 101.828 32.615 104.357 36.2109 105.553C36.3007 105.333 36.3037 105.087 36.2193 104.865C36.1349 104.643 35.9694 104.46 35.7559 104.354Z" fill="#BCBEC0"/>
</g>
<path d="M34.5126 119.75C34.3452 119.749 34.1798 119.712 34.0283 119.642C33.8767 119.571 33.7425 119.467 33.6351 119.339C33.5278 119.211 33.4498 119.061 33.4068 118.9C33.3637 118.739 33.3565 118.57 33.3858 118.406L35.9954 104.138C36.2631 102.678 38.5087 103.072 38.2464 104.548L35.6368 118.815C35.5886 119.077 35.4498 119.315 35.2444 119.485C35.039 119.656 34.7801 119.75 34.5126 119.75Z" fill="black"/>
<path d="M34.6732 124.465L36.3635 115.28L33.8703 114.82C33.9292 115.487 31.4025 125.78 32.2055 126.124C32.7207 126.826 33.8288 126.492 34.2811 127.308C35.4856 127.242 29.7618 147.832 29.8782 148.337C29.5035 149.937 31.9485 150.537 32.346 148.917L37.0139 129.232C37.493 127.345 36.4558 125.244 34.6732 124.465Z" fill="#FFDE17"/>
<g style="mix-blend-mode:multiply">
<path d="M36.971 127.137C36.8044 126.554 36.5127 126.013 36.116 125.553C35.7193 125.092 35.227 124.723 34.6732 124.47L36.3514 115.355L35.1537 115.127C35.2019 115.682 32.8492 125.44 33.6428 125.591C34.158 126.296 35.2647 125.96 35.7184 126.776C36.9229 126.725 31.1991 147.289 31.3142 147.804C31.2404 148.117 31.2897 148.447 31.452 148.725C31.6142 149.003 31.8771 149.209 32.1867 149.3C32.5079 147.744 37.7633 128.284 36.971 127.137Z" fill="#BCBEC0"/>
</g>
<path d="M31.4949 149.969C29.8327 149.456 30.6384 147.013 32.2751 147.605C32.4454 147.652 32.6039 147.735 32.7403 147.847C32.8768 147.959 32.9881 148.098 33.0672 148.256C33.1463 148.413 33.1913 148.585 33.1994 148.761C33.2075 148.937 33.1784 149.113 33.1142 149.277C32.9912 149.583 32.7517 149.827 32.4481 149.957C32.1446 150.087 31.8017 150.091 31.4949 149.969Z" fill="#BF8920"/>
<path d="M33.1128 149.276C32.5414 150.684 30.6651 149.936 31.2232 148.524C31.7812 147.112 33.6722 147.864 33.1128 149.276Z" fill="#FFB72B"/>
<g style="mix-blend-mode:multiply">
<path d="M32.9255 149.006C32.8117 149.97 31.4146 149.988 31.4935 148.946C31.5725 147.905 33.066 147.878 32.9255 149.006Z" fill="black"/>
</g>
<path d="M34.8472 124.424L32.1131 123.928C32.0086 123.91 31.9087 123.871 31.8192 123.814C31.7297 123.757 31.6525 123.683 31.5919 123.596C31.5313 123.51 31.4885 123.412 31.4661 123.308C31.4437 123.205 31.4421 123.098 31.4614 122.994C31.4999 122.785 31.6199 122.599 31.7954 122.477C31.9709 122.356 32.1876 122.308 32.3982 122.345L35.1323 122.84C35.3422 122.879 35.5283 122.998 35.6503 123.173C35.7723 123.348 35.8203 123.563 35.784 123.773C35.7452 123.983 35.6251 124.168 35.4497 124.29C35.2744 124.412 35.0579 124.46 34.8472 124.424Z" fill="black"/>
<path d="M36.421 116.178L33.6869 115.682C32.6511 115.51 32.9455 113.892 33.976 114.095L36.7101 114.59C36.9204 114.628 37.107 114.748 37.2291 114.922C37.3512 115.097 37.3989 115.313 37.3618 115.523C37.3443 115.628 37.3058 115.729 37.2488 115.819C37.1917 115.909 37.1172 115.986 37.0296 116.047C36.9419 116.108 36.843 116.151 36.7385 116.174C36.634 116.196 36.526 116.197 36.421 116.178Z" fill="black"/>
<path d="M40.1601 105.8H37.8101C36.5709 105.793 36.5629 103.912 37.8101 103.905C41.3097 104.23 44.9779 103.288 46.2212 99.6381C47.4149 96.1139 51.3735 97.1526 54.1665 97.4407C55.3977 97.574 55.209 99.4408 53.9671 99.3248L50.1516 98.9247C46.8903 98.5701 48.2821 105.465 40.1601 105.8Z" fill="#FFDE17"/>
<g style="mix-blend-mode:multiply">
<path d="M54.9801 98.63C54.9801 98.4247 50.9399 98.1313 50.7472 98.0766C44.4573 97.934 48.5551 105.753 38.2049 104.946C37.9968 104.947 37.7946 105.016 37.6295 105.142C37.4644 105.268 37.3454 105.445 37.2909 105.645C41.5988 106.562 46.545 104.686 48.0144 100.266C48.166 99.8336 48.4603 99.4651 48.8492 99.2208C49.2381 98.9764 49.6987 98.8706 50.1557 98.9207L53.9711 99.3207C54.194 99.3428 54.4177 99.2856 54.6023 99.1592C54.787 99.0328 54.9209 98.8453 54.9801 98.63Z" fill="#BCBEC0"/>
</g>
<path d="M58.2736 100.586L50.9653 99.8581C50.4995 99.8099 50.0718 99.5799 49.7758 99.2183C49.4799 98.8567 49.3398 98.3929 49.3862 97.9286C49.4335 97.4633 49.6643 97.0357 50.0279 96.7399C50.3916 96.4441 50.8582 96.3043 51.3253 96.3512L58.6323 97.0792C60.9394 97.3513 60.5928 100.783 58.2736 100.586Z" fill="#8B5E3C"/>
<path d="M49.3862 97.9102C49.3596 98.1418 49.3796 98.3765 49.4448 98.6004C49.5101 98.8243 49.6194 99.0331 49.7663 99.2146C49.9132 99.3961 50.0949 99.5467 50.3007 99.6577C50.5065 99.7686 50.7325 99.8377 50.9653 99.8609L58.2736 100.589C58.5067 100.612 58.7421 100.59 58.9663 100.522C59.1904 100.454 59.3987 100.342 59.5791 100.193C59.7596 100.044 59.9085 99.8611 60.0173 99.6544C60.1261 99.4476 60.1925 99.2214 60.2128 98.9889L49.3862 97.9102Z" fill="#3C2415"/>
<path d="M60.2127 99.0114C59.9384 101.314 56.4964 100.966 56.6904 98.6567C56.9648 96.3539 60.4081 96.702 60.2127 99.0114Z" fill="#603913"/>
<path d="M59.557 98.9449C59.4044 100.378 57.2164 100.158 57.3556 98.7235C57.4947 97.2888 59.6908 97.5114 59.557 98.9449Z" fill="#8B5E3C"/>
<path d="M54.9788 93.7658C54.9788 93.7658 52.1818 93.3512 50.1289 97.2207C49.7194 97.9914 49.7622 99.6596 50.3163 99.9636C52.7707 101.306 56.2769 99.7169 55.4017 98.3141C55.0631 97.7808 56.1766 96.8727 58.101 97.0394C58.7072 97.0914 58.1732 95.1539 57.1428 94.5152C55.8728 93.7298 54.9788 93.7658 54.9788 93.7658Z" fill="#FEB89B"/>
<path d="M28.2 90.839C28.2 90.839 25.403 90.4256 23.3501 94.2939C22.9406 95.0659 22.9834 96.734 23.5375 97.0367C25.9919 98.3795 29.4995 96.79 28.6229 95.3886C28.2843 94.8552 29.3978 93.9472 31.3235 94.1125C31.9284 94.1659 31.3945 92.2271 30.3653 91.5884C29.094 90.8043 28.2 90.839 28.2 90.839Z" fill="#FEB89B"/>
<path d="M25.6814 43.016C27.1107 40.9772 28.1224 38.101 34.7107 38.7664C46.6895 39.9771 38.324 36.2849 38.324 36.2849H28.4101C12.9237 36.2849 7.34575 44.8081 7.13163 45.4935C6.78502 46.6095 7.62011 47.3843 8.62648 47.5723C18.6822 49.4604 24.1665 45.1788 25.6814 43.016Z" fill="black"/>
<path d="M73.1539 54.2926C72.5342 90.4762 18.5163 90.4709 17.9007 54.2926C18.5217 18.1091 72.5382 18.1157 73.1539 54.2926Z" fill="#FEB89B"/>
<path d="M74.4493 50.2818C74.5737 54.8648 70.7208 58.5823 66.1199 58.5823C61.5189 58.5823 56.8483 53.6113 56.2769 44.9161C55.9771 40.3425 61.5189 41.9826 66.1199 41.9826C70.7208 41.9826 74.2351 42.316 74.4493 50.2818Z" fill="black"/>
<g style="mix-blend-mode:multiply">
<path d="M70.6968 65.6386C78.701 48.9509 66.4866 28.1776 48.155 26.8936C60.1833 29.5751 69.2501 40.0664 69.7011 52.7485C62.4343 53.3939 59.8782 63.7105 65.9218 67.6827C60.7909 76.55 50.3243 82.2663 39.4696 81.1502C52.1671 84.1851 65.7505 77.0513 70.6968 65.6386Z" fill="#FDDFD8"/>
</g>
<path d="M78.7987 58.5836C78.6113 69.4882 62.3313 69.4869 62.1466 58.5836C62.3326 47.6762 78.6126 47.6789 78.7987 58.5836Z" fill="#FEB89B"/>
<g style="mix-blend-mode:multiply">
<path d="M70.472 52.6687C69.128 52.6682 67.8241 53.1245 66.7756 53.9621C69.7078 56.0756 69.7064 61.0879 66.7756 63.2027C75.7139 69.0804 81.1554 53.6501 70.472 52.6687Z" fill="#FBB09E"/>
</g>
<path d="M27.393 59.5357C27.393 62.0598 21.4739 62.0585 21.4806 59.5357C21.4873 57.0128 27.3997 57.0128 27.393 59.5357Z" fill="#F49298"/>
<path d="M51.9637 59.5357C51.9637 62.0598 46.0445 62.0585 46.0512 59.5357C46.0579 57.0128 51.969 57.0128 51.9637 59.5357Z" fill="#F49298"/>
<path d="M31.1081 54.2899C31.0719 56.7087 28.3098 56.7087 28.2736 54.2899C28.3098 51.8724 31.0719 51.8724 31.1081 54.2899Z" fill="#3C2415"/>
<path d="M32.5159 51.8632C32.5159 53.1899 31.2513 51.8632 29.6908 51.8632C28.1304 51.8632 26.8671 53.1899 26.8671 51.8632C26.8765 48.723 32.5066 48.7243 32.5159 51.8632Z" fill="#3C2415"/>
<path d="M44.282 54.2899C44.2459 56.7087 41.4837 56.7087 41.4476 54.2899C41.4904 51.8724 44.2472 51.8724 44.282 54.2899Z" fill="#3C2415"/>
<path d="M45.6898 51.8632C45.6898 53.1899 44.4252 51.8632 42.8648 51.8632C41.3044 51.8632 40.041 53.1899 40.041 51.8632C40.0504 48.723 45.6805 48.7243 45.6898 51.8632Z" fill="#3C2415"/>
<path d="M36.0985 58.061C34.7 58.3797 33.5718 58.281 32.5159 57.3943C33.4206 66.6095 41.2147 64.024 39.6851 55.7595C38.9048 57.0636 37.4983 57.741 36.0985 58.061Z" fill="#3C2415"/>
<path d="M33.9171 61.7226C35.8549 64.5788 38.779 63.252 39.5298 60.0945C37.6094 60.2518 35.5511 60.7879 33.9171 61.7226Z" fill="#ED1C24"/>
<path d="M44.3516 18.3611C33.442 17.9397 24.1919 26.4949 21.0416 38.0316C21.0416 38.0316 51.0403 35.1435 52.8523 47.6069L74.4493 50.2817C82.7706 35.5528 65.6046 19.1825 44.3516 18.3611Z" fill="#ED1C24"/>
<path d="M56.1511 20.7145C43.3238 14.9422 27.4252 19.9065 22.2099 34.5594C35.0158 35.1834 49.797 30.4351 56.1511 20.7145Z" fill="#F14950"/>
<g style="mix-blend-mode:multiply">
<path d="M72.4044 31.2979C68.5636 38.6316 60.6785 43.6586 52.4347 46.0628C52.6279 46.5608 52.767 47.078 52.8496 47.6055L74.4466 50.2817C78.1228 43.7826 76.8207 36.9609 72.4044 31.2979Z" fill="#D1D3D4"/>
</g>
<path d="M31.0211 35.4569C19.9723 34.2768 4.56216 43.0573 7.28821 46.7002C7.28821 46.7002 9.3304 39.4838 19.9054 39.7251C19.9054 39.7251 35.1149 39.0744 39.9902 45.1295C41.7942 47.3696 47.0214 48.9497 50.1463 48.9844C50.1463 48.9844 56.7694 48.851 56.6837 48.0416C55.7202 38.9251 44.8909 35.4569 31.0211 35.4569Z" fill="#F14950"/>
<path d="M53.9122 43.2999C51.0871 37.3302 29.0351 32.982 19.3848 36.9596C18.3718 37.2782 12.114 39.7597 19.7649 38.6317C24.6817 37.9036 35.1135 37.2342 44.2552 45.3681C47.6732 48.4189 56.376 48.3843 53.9122 43.2999Z" fill="#F4777C"/>
</g>
<defs>
<linearGradient id="paint0_linear_1_731" x1="65.2509" y1="142.953" x2="58.7637" y2="133.023" gradientUnits="userSpaceOnUse">
<stop stop-color="#E6E7E8"/>
<stop offset="0.1" stop-color="#E1E2E3"/>
<stop offset="0.24" stop-color="#D1D2D3"/>
<stop offset="0.38" stop-color="#B8B9BA"/>
<stop offset="0.54" stop-color="#949596"/>
<stop offset="0.7" stop-color="#676768"/>
<stop offset="0.87" stop-color="#303031"/>
<stop offset="1"/>
</linearGradient>
<linearGradient id="paint1_linear_1_731" x1="91.8026" y1="156.463" x2="91.8026" y2="127.413" gradientUnits="userSpaceOnUse">
<stop stop-color="#E6E7E8"/>
<stop offset="1"/>
</linearGradient>
<linearGradient id="paint2_linear_1_731" x1="94.3186" y1="145.297" x2="94.3186" y2="139.355" gradientUnits="userSpaceOnUse">
<stop/>
<stop offset="1" stop-color="#E6E7E8"/>
</linearGradient>
<linearGradient id="paint3_linear_1_731" x1="94.8405" y1="144.485" x2="94.8405" y2="140.203" gradientUnits="userSpaceOnUse">
<stop stop-color="#E6E7E8"/>
<stop offset="1"/>
</linearGradient>
<linearGradient id="paint4_linear_1_731" x1="64.3105" y1="147.125" x2="64.3105" y2="139.143" gradientUnits="userSpaceOnUse">
<stop/>
<stop offset="1" stop-color="#E6E7E8"/>
</linearGradient>
<linearGradient id="paint5_linear_1_731" x1="65.0104" y1="146.036" x2="65.0104" y2="140.282" gradientUnits="userSpaceOnUse">
<stop stop-color="#E6E7E8"/>
<stop offset="1"/>
</linearGradient>
<linearGradient id="paint6_linear_1_731" x1="70.8997" y1="153.86" x2="64.4125" y2="143.93" gradientUnits="userSpaceOnUse">
<stop stop-color="#E6E7E8"/>
<stop offset="0.1" stop-color="#E1E2E3"/>
<stop offset="0.24" stop-color="#D1D2D3"/>
<stop offset="0.38" stop-color="#B8B9BA"/>
<stop offset="0.54" stop-color="#949596"/>
<stop offset="0.7" stop-color="#676768"/>
<stop offset="0.87" stop-color="#303031"/>
<stop offset="1"/>
</linearGradient>
<linearGradient id="paint7_linear_1_731" x1="28.014" y1="163.149" x2="28.014" y2="132.777" gradientUnits="userSpaceOnUse">
<stop stop-color="#E6E7E8"/>
<stop offset="1"/>
</linearGradient>
<linearGradient id="paint8_linear_1_731" x1="30.6384" y1="151.475" x2="30.6384" y2="145.264" gradientUnits="userSpaceOnUse">
<stop/>
<stop offset="1" stop-color="#E6E7E8"/>
</linearGradient>
<linearGradient id="paint9_linear_1_731" x1="31.183" y1="150.627" x2="31.183" y2="146.149" gradientUnits="userSpaceOnUse">
<stop stop-color="#E6E7E8"/>
<stop offset="1"/>
</linearGradient>
<clipPath id="clip0_1_731">
<rect width="167" height="173" fill="white"/>
</clipPath>
</defs>
</svg>
