<svg width="52" height="45" viewBox="0 0 52 45" fill="none" xmlns="http://www.w3.org/2000/svg">
<path fill-rule="evenodd" clip-rule="evenodd" d="M12.8656 12.8025V12.6419C12.8656 11.2079 14.0286 10.0449 15.4623 10.0449H40.796C42.2297 10.0449 43.3927 11.2077 43.3927 12.6416V12.8025H12.8656Z" fill="#79DE90"/>
<path fill-rule="evenodd" clip-rule="evenodd" d="M15.6053 9.23263C15.7789 8.26606 16.6243 7.53244 17.6408 7.53244L20.5461 7.53223C21.5626 7.53223 22.4078 8.26606 22.5818 9.23263H15.6053Z" fill="#79DE90"/>
<path fill-rule="evenodd" clip-rule="evenodd" d="M33.6771 9.23263C33.8505 8.26606 34.6961 7.53244 35.7126 7.53244L38.6181 7.53223C39.6342 7.53223 40.4796 8.26606 40.6536 9.23263H33.6771Z" fill="#79DE90"/>
<path fill-rule="evenodd" clip-rule="evenodd" d="M37.1631 9.15658C36.715 9.15658 36.351 8.79302 36.351 8.34454V3.96292C36.351 2.67284 35.3023 1.62387 34.012 1.62387H22.2461C20.956 1.62387 19.907 2.67284 19.907 3.96292V8.34454C19.907 8.79281 19.5435 9.15658 19.095 9.15658C18.6469 9.15658 18.283 8.79302 18.283 8.34454V3.96292C18.2834 1.7763 20.0597 0 22.2463 0H34.0122C36.1992 0 37.9751 1.77651 37.9751 3.96292V8.34454C37.9751 8.79281 37.6111 9.15658 37.1631 9.15658Z" fill="#79DE90"/>
<path fill-rule="evenodd" clip-rule="evenodd" d="M32.7812 4.08528H23.477C22.5526 4.08528 21.7687 3.46592 21.5181 2.62117C21.7345 2.50313 21.9827 2.43604 22.2463 2.43604H34.0122C34.2762 2.43604 34.5244 2.50313 34.7408 2.62138C34.4911 3.46592 33.709 4.08528 32.7812 4.08528Z" fill="#79DE90"/>
<path fill-rule="evenodd" clip-rule="evenodd" d="M47.6733 41.5277H47.4441C47.4774 41.2943 47.4953 41.0555 47.4953 40.8131C47.4953 38.0558 45.2537 35.8138 42.4964 35.8138C39.7391 35.8138 37.4971 38.0558 37.4971 40.8131C37.4971 41.0555 37.5149 41.2943 37.5482 41.5277H18.7101C18.7436 41.2943 18.7612 41.0555 18.7612 40.8131C18.7612 38.0558 16.5195 35.8138 13.7621 35.8138C11.0048 35.8138 8.76305 38.0558 8.76305 40.8131C8.76305 41.0555 8.78087 41.2943 8.81421 41.5277H8.58546C6.33112 41.5277 4.4957 39.6922 4.4957 37.4379V34.7397C4.4957 33.9744 5.12155 33.3481 5.88705 33.3481H50.3715C51.1368 33.3481 51.7626 33.9702 51.7626 34.7397V37.4379C51.7626 39.6967 49.9272 41.5277 47.6733 41.5277Z" fill="#79DE90"/>
<path fill-rule="evenodd" clip-rule="evenodd" d="M13.7621 45.0001C11.4529 45.0001 9.57507 43.1225 9.57507 40.8132C9.57507 38.504 11.4529 36.626 13.7621 36.626C16.0714 36.626 17.9492 38.504 17.9492 40.8132C17.9492 43.1223 16.0714 45.0001 13.7621 45.0001Z" fill="#79DE90"/>
<path fill-rule="evenodd" clip-rule="evenodd" d="M42.4963 45.0001C40.1871 45.0001 38.3091 43.1225 38.3091 40.8132C38.3091 38.504 40.1871 36.626 42.4963 36.626C44.8056 36.626 46.6832 38.504 46.6832 40.8132C46.6832 43.1223 44.8056 45.0001 42.4963 45.0001Z" fill="#79DE90"/>
<path fill-rule="evenodd" clip-rule="evenodd" d="M5.88703 34.9724C5.43897 34.9724 5.07499 34.6084 5.07499 34.1603V6.03519C5.07499 5.08351 4.3009 4.30963 3.34964 4.30963H0.812041C0.363772 4.30963 0 3.94586 0 3.49759C0 3.04953 0.363772 2.68555 0.812041 2.68555H3.34964C5.19765 2.68555 6.69928 4.18697 6.69928 6.03519V34.1603C6.69928 34.6086 6.3353 34.9724 5.88703 34.9724Z" fill="#79DE90"/>
<path fill-rule="evenodd" clip-rule="evenodd" d="M8.90728 32.5361C8.87939 32.3738 8.86472 32.2073 8.86472 32.0371V16.5494C8.86472 14.9295 10.18 13.6143 11.7998 13.6143H44.4544C46.0743 13.6143 47.3898 14.9295 47.3898 16.5494V32.0413C47.3898 32.2103 47.3749 32.3755 47.3476 32.5361H8.90728ZM38.5313 27.8586C38.758 27.8586 38.9373 27.6739 38.9373 27.4481V18.6976C38.9373 18.4735 38.7551 18.2917 38.5313 18.2917C38.307 18.2917 38.1254 18.4737 38.1254 18.6976V27.4525C38.1254 27.6768 38.307 27.8586 38.5313 27.8586ZM28.1272 29.381C28.3516 29.381 28.5332 29.1992 28.5332 28.9751V17.1752C28.5332 16.9509 28.351 16.7691 28.1272 16.7691C27.9029 16.7691 27.7209 16.9511 27.7209 17.1752V28.9749C27.7209 29.1992 27.9031 29.381 28.1272 29.381ZM17.7229 27.8586C17.9498 27.8586 18.1289 27.6739 18.1289 27.4481V18.6976C18.1289 18.4735 17.9469 18.2917 17.7229 18.2917C17.4986 18.2917 17.3168 18.4737 17.3168 18.6976L17.317 27.4525C17.317 27.6768 17.499 27.8586 17.7229 27.8586Z" fill="#79DE90"/>
</svg>
