<svg width="81" height="81" viewBox="0 0 81 81" fill="none" xmlns="http://www.w3.org/2000/svg">
<g clip-path="url(#clip0_246_311)">
<path d="M40.5013 64.8883C53.9705 64.8883 64.8894 53.9694 64.8894 40.5002C64.8894 27.0311 53.9705 16.1122 40.5013 16.1122C27.0322 16.1122 16.1133 27.0311 16.1133 40.5002C16.1133 53.9694 27.0322 64.8883 40.5013 64.8883Z" fill="black"/>
<path d="M40.4979 62.7284C52.7743 62.7284 62.7262 52.7765 62.7262 40.5001C62.7262 28.2237 52.7743 18.2717 40.4979 18.2717C28.2215 18.2717 18.2695 28.2237 18.2695 40.5001C18.2695 52.7765 28.2215 62.7284 40.4979 62.7284Z" fill="black"/>
<path d="M78.8673 38.3681C78.3698 38.3678 77.8878 38.5417 77.5049 38.8594C77.122 39.1772 76.8623 39.6189 76.7708 40.108H65.188C65.1446 36.9383 64.4866 33.8071 63.2506 30.888C63.0423 30.3939 62.8188 29.9096 62.5801 29.435H77.3938V28.6542H62.1699C61.0415 26.5916 59.6236 24.7012 57.9595 23.0404C57.8631 22.9449 57.7668 22.8499 57.6691 22.7562H65.3598V21.9723H56.8234C56.0164 21.2595 55.1636 20.6002 54.2704 19.9988V9.33711H64.7721C64.8696 9.85958 65.1588 10.3268 65.5829 10.6472C66.0069 10.9675 66.5354 11.118 67.0646 11.069C67.5939 11.02 68.0857 10.7752 68.4438 10.3824C68.8019 9.98967 69.0004 9.47734 69.0004 8.94584C69.0004 8.41435 68.8019 7.90202 68.4438 7.50926C68.0857 7.1165 67.5939 6.87164 67.0646 6.82267C66.5354 6.7737 66.0069 6.92414 65.5829 7.24452C65.1588 7.5649 64.8696 8.03211 64.7721 8.55458H53.4879V19.4944C51.6146 18.336 49.595 17.4328 47.4827 16.8089V9.15532H46.7001V16.5927C44.802 16.1023 42.8522 15.8402 40.8919 15.8119V4.22906C41.4144 4.13158 41.8817 3.84247 42.2021 3.4184C42.5225 2.99433 42.673 2.46587 42.6241 1.93662C42.5751 1.40736 42.3303 0.91547 41.9375 0.557357C41.5448 0.199244 41.0324 0.000732422 40.5009 0.000732422C39.9694 0.000732422 39.457 0.199244 39.0643 0.557357C38.6715 0.91547 38.4267 1.40736 38.3777 1.93662C38.3288 2.46587 38.4792 2.99433 38.7997 3.4184C39.1201 3.84247 39.5873 4.13158 40.1098 4.22906V15.8119C38.1492 15.8401 36.1989 16.1022 34.3003 16.5927V9.15532H33.5178V16.8089C31.4055 17.4328 29.3859 18.336 27.5126 19.4944V8.55458H16.227C16.1295 8.03199 15.8403 7.56467 15.4162 7.24421C14.992 6.92375 14.4634 6.77326 13.9341 6.82223C13.4047 6.87121 12.9128 7.11611 12.5546 7.50895C12.1964 7.90179 11.9979 8.41424 11.9979 8.94584C11.9979 9.47745 12.1964 9.9899 12.5546 10.3827C12.9128 10.7756 13.4047 11.0205 13.9341 11.0695C14.4634 11.1184 14.992 10.9679 15.4162 10.6475C15.8403 10.327 16.1295 9.8597 16.227 9.33711H26.7287V19.9996C25.8356 20.6008 24.9828 21.2598 24.1758 21.9723H15.6394V22.757H23.33C23.2324 22.8508 23.136 22.9458 23.0397 23.0413C21.3755 24.7021 19.9577 26.5925 18.8293 28.655H3.60535V29.4371H18.419C18.181 29.9129 17.9575 30.3973 17.7485 30.8902C16.5128 33.8086 15.8549 36.939 15.8111 40.108H4.22833C4.13085 39.5855 3.84174 39.1182 3.41767 38.7978C2.9936 38.4774 2.46514 38.3269 1.93589 38.3758C1.40663 38.4248 0.91474 38.6696 0.556627 39.0624C0.198514 39.4551 0 39.9675 0 40.499C0 41.0305 0.198514 41.5429 0.556627 41.9356C0.91474 42.3284 1.40663 42.5732 1.93589 42.6222C2.46514 42.6711 2.9936 42.5207 3.41767 42.2002C3.84174 41.8798 4.13085 41.4126 4.22833 40.8901H15.812C15.8555 44.0597 16.5134 47.1909 17.7494 50.11C17.9578 50.6041 18.1813 51.0884 18.4199 51.563H3.60622V52.3451H18.8301C19.9586 54.4077 21.3764 56.2981 23.0406 57.9589C23.1369 58.0544 23.2332 58.1494 23.3309 58.2432H15.6394V59.0279H24.1758C24.9828 59.7407 25.8356 60.4 26.7287 61.0014V71.6639H16.227C16.1293 71.1416 15.84 70.6746 15.4158 70.3545C14.9917 70.0343 14.4633 69.8841 13.9342 69.9332C13.4051 69.9823 12.9133 70.2272 12.5554 70.6199C12.1974 71.0127 11.999 71.5249 11.999 72.0563C11.999 72.5877 12.1974 73.1 12.5554 73.4927C12.9133 73.8854 13.4051 74.1303 13.9342 74.1794C14.4633 74.2285 14.9917 74.0783 15.4158 73.7581C15.84 73.438 16.1293 72.971 16.227 72.4487H27.5112V61.5062C29.3846 62.6646 31.4042 63.5678 33.5165 64.1917V71.8453H34.299V64.408C36.1971 64.8983 38.147 65.1604 40.1072 65.1888V76.7716C39.5847 76.8691 39.1175 77.1582 38.797 77.5822C38.4766 78.0063 38.3261 78.5348 38.3751 79.064C38.424 79.5933 38.6689 80.0852 39.0617 80.4433C39.4544 80.8014 39.9668 80.9999 40.4983 80.9999C41.0298 80.9999 41.5421 80.8014 41.9349 80.4433C42.3277 80.0852 42.5725 79.5933 42.6215 79.064C42.6704 78.5348 42.5199 78.0063 42.1995 77.5822C41.8791 77.1582 41.4118 76.8691 40.8893 76.7716V65.1888C42.85 65.1605 44.8003 64.8984 46.6988 64.408V71.8453H47.4814V64.1917C49.5937 63.5678 51.6133 62.6646 53.4866 61.5062V72.4461H64.7708C64.8686 72.9685 65.1579 73.4356 65.5822 73.7558C66.0064 74.0761 66.5349 74.2264 67.0641 74.1773C67.5933 74.1281 68.0852 73.8832 68.4432 73.4904C68.8013 73.0976 68.9998 72.5852 68.9998 72.0537C68.9998 71.5222 68.8013 71.0098 68.4432 70.617C68.0852 70.2242 67.5933 69.9792 67.0641 69.9301C66.5349 69.881 66.0064 70.0313 65.5822 70.3516C65.1579 70.6718 64.8686 71.1389 64.7708 71.6613H54.2704V61.001C55.1636 60.3995 56.0164 59.7403 56.8234 59.0274H65.3598V58.2427H57.6691C57.7668 58.149 57.8631 58.0539 57.9595 57.9585C59.6236 56.2977 61.0415 54.4073 62.1699 52.3447H77.3938V51.5626H62.5801C62.8182 51.0871 63.0417 50.6028 63.2506 50.1096C64.4863 47.1914 65.1442 44.0613 65.188 40.8927H76.7708C76.8451 41.2908 77.0312 41.6596 77.3074 41.9558C77.5837 42.252 77.9385 42.4634 78.3305 42.5653C78.7225 42.6672 79.1354 42.6553 79.5208 42.5311C79.9063 42.4069 80.2485 42.1755 80.5072 41.8639C80.766 41.5524 80.9307 41.1735 80.982 40.7718C81.0333 40.3701 80.9691 39.962 80.797 39.5954C80.6249 39.2288 80.3519 38.9188 80.01 38.7017C79.6681 38.4846 79.2715 38.3693 78.8665 38.3694L78.8673 38.3681ZM66.8682 7.65303C67.1239 7.65303 67.3739 7.72886 67.5865 7.87094C67.7992 8.01302 67.9649 8.21497 68.0628 8.45124C68.1607 8.68751 68.1863 8.9475 68.1364 9.19832C68.0865 9.44915 67.9633 9.67954 67.7825 9.86038C67.6017 10.0412 67.3713 10.1644 67.1204 10.2143C66.8696 10.2641 66.6096 10.2385 66.3733 10.1407C66.1371 10.0428 65.9351 9.87707 65.7931 9.66443C65.651 9.4518 65.5751 9.2018 65.5751 8.94606C65.5751 8.60313 65.7114 8.27424 65.9539 8.03175C66.1964 7.78926 66.5252 7.65303 66.8682 7.65303ZM14.131 10.2391C13.8753 10.2391 13.6253 10.1633 13.4126 10.0212C13.2 9.8791 13.0342 9.67716 12.9364 9.44089C12.8385 9.20461 12.8129 8.94463 12.8628 8.6938C12.9127 8.44298 13.0358 8.21258 13.2167 8.03175C13.3975 7.85091 13.6279 7.72776 13.8787 7.67787C14.1296 7.62798 14.3895 7.65359 14.6258 7.75145C14.8621 7.84932 15.064 8.01505 15.2061 8.22769C15.3482 8.44033 15.424 8.69032 15.424 8.94606C15.4239 9.28896 15.2876 9.61778 15.0452 9.86025C14.8027 10.1027 14.4739 10.239 14.131 10.2391ZM2.13139 41.7933C1.87566 41.7933 1.62566 41.7175 1.41302 41.5754C1.20038 41.4334 1.03465 41.2314 0.936782 40.9951C0.838915 40.7589 0.813312 40.4989 0.863204 40.2481C0.913096 39.9972 1.03625 39.7668 1.21708 39.586C1.39791 39.4052 1.62831 39.282 1.87914 39.2321C2.12996 39.1822 2.38994 39.2078 2.62622 39.3057C2.86249 39.4036 3.06443 39.5693 3.20651 39.7819C3.34859 39.9946 3.42443 40.2446 3.42443 40.5003C3.42432 40.8432 3.28805 41.172 3.04558 41.4145C2.80311 41.657 2.47429 41.7932 2.13139 41.7933ZM14.131 73.3476C13.8753 73.3476 13.6253 73.2718 13.4126 73.1297C13.2 72.9876 13.0342 72.7857 12.9364 72.5494C12.8385 72.3131 12.8129 72.0531 12.8628 71.8023C12.9127 71.5515 13.0358 71.3211 13.2167 71.1402C13.3975 70.9594 13.6279 70.8363 13.8787 70.7864C14.1296 70.7365 14.3895 70.7621 14.6258 70.86C14.8621 70.9578 15.064 71.1236 15.2061 71.3362C15.3482 71.5488 15.424 71.7988 15.424 72.0546C15.424 72.3975 15.2878 72.7264 15.0453 72.9689C14.8028 73.2114 14.4739 73.3476 14.131 73.3476ZM66.8682 70.7615C67.1239 70.7615 67.3739 70.8374 67.5865 70.9794C67.7992 71.1215 67.9649 71.3235 68.0628 71.5597C68.1607 71.796 68.1863 72.056 68.1364 72.3068C68.0865 72.5577 67.9633 72.788 67.7825 72.9689C67.6017 73.1497 67.3713 73.2729 67.1204 73.3228C66.8696 73.3727 66.6096 73.347 66.3733 73.2492C66.1371 73.1513 65.9351 72.9856 65.7931 72.7729C65.651 72.5603 65.5751 72.3103 65.5751 72.0546C65.5753 71.7117 65.7115 71.3828 65.954 71.1404C66.1965 70.8979 66.5253 70.7616 66.8682 70.7615ZM39.2066 2.13212C39.2066 1.87638 39.2824 1.62639 39.4245 1.41375C39.5665 1.20111 39.7685 1.03538 40.0048 0.937514C40.241 0.839648 40.501 0.814041 40.7518 0.863933C41.0027 0.913825 41.2331 1.03697 41.4139 1.21781C41.5947 1.39864 41.7179 1.62904 41.7678 1.87986C41.8177 2.13069 41.7921 2.39068 41.6942 2.62695C41.5963 2.86322 41.4306 3.06516 41.218 3.20724C41.0053 3.34932 40.7553 3.42516 40.4996 3.42516C40.1567 3.42504 39.8279 3.28878 39.5854 3.04631C39.3429 2.80384 39.2067 2.47502 39.2066 2.13212ZM41.7926 78.8685C41.7926 79.1242 41.7168 79.3742 41.5747 79.5869C41.4326 79.7995 41.2307 79.9652 40.9944 80.0631C40.7581 80.161 40.4981 80.1866 40.2473 80.1367C39.9965 80.0868 39.7661 79.9637 39.5853 79.7828C39.4044 79.602 39.2813 79.3716 39.2314 79.1208C39.1815 78.8699 39.2071 78.6099 39.305 78.3737C39.4028 78.1374 39.5686 77.9355 39.7812 77.7934C39.9938 77.6513 40.2438 77.5755 40.4996 77.5755C40.8425 77.5756 41.1713 77.7119 41.4138 77.9543C41.6562 78.1968 41.7925 78.5256 41.7926 78.8685ZM62.53 49.8066C60.222 55.2907 55.9585 59.7214 50.5673 62.2387C45.1761 64.756 39.0419 65.1801 33.3555 63.4288C27.6692 61.6775 22.8365 57.8757 19.7956 52.7615C16.7548 47.6472 15.7229 41.5855 16.9002 35.7532C18.0774 29.9209 21.3799 24.7342 26.1665 21.2C30.953 17.6657 36.8821 16.0362 42.8025 16.6278C48.723 17.2194 54.2124 19.9898 58.205 24.4013C62.1976 28.8127 64.4085 34.5504 64.4085 40.5003C64.413 43.697 63.7741 46.8619 62.53 49.8066ZM78.8678 41.7933C78.612 41.7933 78.362 41.7175 78.1494 41.5754C77.9368 41.4334 77.771 41.2314 77.6732 40.9951C77.5753 40.7589 77.5497 40.4989 77.5996 40.2481C77.6495 39.9972 77.7726 39.7668 77.9535 39.586C78.1343 39.4052 78.3647 39.282 78.6155 39.2321C78.8663 39.1822 79.1263 39.2078 79.3626 39.3057C79.5989 39.4036 79.8008 39.5693 79.9429 39.7819C80.085 39.9946 80.1608 40.2446 80.1608 40.5003C80.1608 40.6701 80.1274 40.8383 80.0624 40.9951C79.9974 41.152 79.9022 41.2946 79.7821 41.4146C79.662 41.5347 79.5195 41.6299 79.3626 41.6949C79.2057 41.7599 79.0376 41.7933 78.8678 41.7933Z" fill="black"/>
<path d="M44.9059 37.7783H36.0919C35.6324 37.7783 35.1919 37.9608 34.867 38.2856C34.5421 38.6104 34.3595 39.051 34.3594 39.5104V48.3249C34.3594 48.5523 34.4043 48.7776 34.4914 48.9877C34.5785 49.1978 34.7061 49.3887 34.867 49.5495C35.0279 49.7103 35.2188 49.8378 35.429 49.9248C35.6392 50.0118 35.8644 50.0565 36.0919 50.0565H44.9059C45.1334 50.0565 45.3586 50.0118 45.5688 49.9248C45.779 49.8378 45.9699 49.7103 46.1308 49.5495C46.2917 49.3887 46.4193 49.1978 46.5064 48.9877C46.5935 48.7776 46.6384 48.5523 46.6384 48.3249V39.5104C46.6383 39.051 46.4557 38.6104 46.1308 38.2856C45.8059 37.9608 45.3654 37.7783 44.9059 37.7783ZM41.3224 44.2653V45.4119C41.3224 45.6303 41.2356 45.8397 41.0812 45.9942C40.9268 46.1486 40.7173 46.2354 40.4989 46.2354C40.2805 46.2354 40.071 46.1486 39.9166 45.9942C39.7622 45.8397 39.6754 45.6303 39.6754 45.4119V44.2653C39.3328 44.0818 39.0614 43.7891 38.9042 43.4337C38.747 43.0783 38.7129 42.6806 38.8075 42.3037C38.9022 41.9267 39.12 41.5922 39.4264 41.3532C39.7328 41.1142 40.1103 40.9844 40.4989 40.9844C40.8875 40.9844 41.265 41.1142 41.5714 41.3532C41.8778 41.5922 42.0956 41.9267 42.1902 42.3037C42.2849 42.6806 42.2508 43.0783 42.0936 43.4337C41.9364 43.7891 41.665 44.0818 41.3224 44.2653Z" fill="white"/>
<path d="M44.4678 36.6755H43.2196V33.8274C43.2196 33.1057 42.9329 32.4135 42.4226 31.9032C41.9123 31.3929 41.2201 31.1062 40.4984 31.1062C39.7767 31.1062 39.0846 31.3929 38.5742 31.9032C38.0639 32.4135 37.7772 33.1057 37.7772 33.8274V36.6755H36.5312V33.8274C36.5313 32.7746 36.9494 31.765 37.6938 31.0206C38.4382 30.2762 39.4479 29.858 40.5006 29.858C41.5533 29.858 42.563 30.2762 43.3074 31.0206C44.0518 31.765 44.47 32.7746 44.47 33.8274L44.4678 36.6755Z" fill="white"/>
<path d="M64.043 34.7769H74.0952" stroke="black" stroke-width="0.84662" stroke-miterlimit="10"/>
<path d="M64.043 46.2231H74.0952" stroke="black" stroke-width="0.84662" stroke-miterlimit="10"/>
<path d="M16.9545 34.7769H6.90234" stroke="black" stroke-width="0.84662" stroke-miterlimit="10"/>
<path d="M16.9545 46.2231H6.90234" stroke="black" stroke-width="0.84662" stroke-miterlimit="10"/>
</g>
<defs>
<clipPath id="clip0_246_311">
<rect width="81" height="81" fill="white"/>
</clipPath>
</defs>
</svg>
