<svg width="85" height="45" viewBox="0 0 85 45" fill="none" xmlns="http://www.w3.org/2000/svg">
<path d="M66.8639 18.9612C68.3369 20.15 70.1595 20.9222 72.1577 21.0903C72.2009 21.0978 72.2381 21.1052 72.2812 21.1052C72.5297 21.135 72.7915 21.1409 73.0608 21.1409C73.0608 21.1409 73.0608 21.1409 73.0683 21.1409C73.3301 21.1409 73.5786 21.1335 73.8345 21.1052C75.1989 21.01 76.4888 20.6306 77.6404 20.0191C78.2162 19.7275 78.7563 19.3704 79.2592 18.9612C81.5267 17.1461 82.9788 14.3593 82.9788 11.2319C82.9788 5.75508 78.5302 1.32129 73.0608 1.32129C70.3187 1.32129 67.8474 2.42974 66.0456 4.22408C64.2602 6.01694 63.1443 8.4957 63.1443 11.2304C63.1443 13.965 64.2602 16.4438 66.0471 18.2381C66.309 18.494 66.5798 18.7351 66.8639 18.9612Z" fill="#79DE90"/>
<path d="M80.6608 20.6438C80.6533 20.6512 80.637 20.6602 80.6325 20.6676C78.7355 22.1971 76.4591 23.1017 74.0369 23.2832C73.6649 23.319 73.3301 23.3264 73.0772 23.3264H73.0608C72.7915 23.3264 72.4478 23.319 72.0774 23.2832C71.0582 23.2044 70.0732 22.9901 69.1255 22.6628C68.2402 23.2475 67.4264 23.92 66.6839 24.6625C66.6006 24.7458 66.5217 24.8247 66.4473 24.9109C65.5145 25.8825 64.7081 26.9657 64.0489 28.147C63.9745 28.278 63.9031 28.4119 63.8362 28.5458C63.5713 29.0516 63.3377 29.5739 63.125 30.1065H59.3473V28.9847C59.3473 23.7564 55.8107 19.3538 51.005 18.0386C50.874 18.1844 50.7446 18.3228 50.6062 18.4611C50.2908 18.7765 49.9545 19.0741 49.6138 19.3538C48.1245 20.5426 46.4016 21.3535 44.567 21.7403V21.7805H44.2591V27.8941C44.2591 29.1156 43.2681 30.1065 42.0466 30.1065C40.8251 30.1065 39.8342 29.1156 39.8342 27.8941V21.782H39.5262V21.7418C37.6932 21.355 35.9702 20.5441 34.4794 19.3553C34.1402 19.0741 33.8039 18.778 33.487 18.4626C33.3487 18.3242 33.2177 18.1859 33.0883 18.0401C28.2825 19.3553 24.7459 23.7579 24.7459 28.9862V30.108H20.9638C20.751 29.5739 20.5174 29.0531 20.2526 28.5473C20.1856 28.4133 20.1142 28.278 20.0398 28.1485C19.3792 26.9672 18.5743 25.884 17.6414 24.9124C17.567 24.8261 17.4867 24.7458 17.4049 24.664C16.6624 23.9215 15.8486 23.249 14.9633 22.6643C14.0155 22.9916 13.0306 23.2059 12.0114 23.2847C11.6394 23.3204 11.2958 23.3279 11.0279 23.3279H11.0101C10.7571 23.3279 10.4209 23.3204 10.0504 23.2847C7.6282 23.1032 5.35179 22.1986 3.45479 20.6691C3.45032 20.6617 3.43544 20.6527 3.42652 20.6453C1.39858 21.6526 0 23.7504 0 26.1726V38.8298C0 42.228 2.75401 44.9791 6.14482 44.9791H22.0589V39.6555H11.5948C11.4326 39.6511 11.2705 39.6436 11.1127 39.6273H7.74128C6.52422 39.6273 5.53182 38.6393 5.53182 37.4178V34.0627C5.50802 33.8455 5.49611 33.6283 5.49611 33.4021V29.3284H7.5791V36.7572C7.5791 37.1485 7.89899 37.4684 8.2903 37.4684H18.2053V37.4639H22.0589L22.0083 35.4018H62.079L62.0284 37.4639H65.882V37.4684H75.797C76.1883 37.4684 76.5082 37.1485 76.5082 36.7572V29.3284H78.5912V33.4021C78.5912 33.6268 78.5793 33.844 78.5555 34.0627V37.4178C78.5555 38.6393 77.5631 39.6273 76.346 39.6273H72.9745C72.8168 39.6436 72.6547 39.6511 72.4925 39.6555H62.0284V44.9791H77.9425C81.3333 44.9791 84.0873 42.228 84.0873 38.8298V26.1726C84.0873 23.7504 82.6887 21.6526 80.6608 20.6438Z" fill="#79DE90"/>
<path d="M57.5619 39.6572H55.8211C55.0712 39.6572 54.4642 40.2643 54.4642 41.0141V43.6432C54.4642 44.393 55.0712 45.0001 55.8211 45.0001H57.5619C58.8013 45.0001 59.8071 43.9958 59.8071 42.7549V41.9024C59.8071 40.6615 58.8013 39.6572 57.5619 39.6572Z" fill="#79DE90"/>
<path d="M4.82659 18.9612C5.32948 19.3689 5.86957 19.7275 6.44537 20.0191C7.59696 20.6321 8.88842 21.0115 10.2513 21.1052C10.5072 21.135 10.7542 21.1409 11.0175 21.1409C11.025 21.1409 11.025 21.1409 11.025 21.1409C11.2943 21.1409 11.5576 21.1335 11.8046 21.1052C11.8477 21.1052 11.8849 21.0978 11.9281 21.0903C13.9263 20.9222 15.7489 20.15 17.2219 18.9612C17.506 18.7351 17.7753 18.494 18.0387 18.2396C19.8256 16.4453 20.9415 13.9665 20.9415 11.2319C20.9415 8.49719 19.8256 6.01843 18.0387 4.22408C16.2384 2.42974 13.7671 1.32129 11.025 1.32129C5.55563 1.32129 1.10696 5.75508 1.10696 11.2319C1.10696 14.3593 2.5591 17.1446 4.82659 18.9612Z" fill="#79DE90"/>
<path d="M35.8393 17.6414C37.3495 18.851 39.2108 19.6337 41.2566 19.7839C41.514 19.8152 41.7743 19.8241 42.0392 19.8241C42.0436 19.8241 42.0436 19.8241 42.0436 19.8241C42.0436 19.8241 42.0436 19.8241 42.0481 19.8241C42.3129 19.8241 42.5733 19.8167 42.8307 19.7839C44.878 19.6337 46.7393 18.851 48.248 17.6414C48.5321 17.4168 48.8014 17.1757 49.0544 16.9183C50.8487 15.124 51.9587 12.6467 51.9587 9.91205C51.9587 7.17738 50.8487 4.70012 49.0544 2.90577C47.2645 1.10994 44.7902 0 42.0481 0H42.0436H42.0392C39.2971 0 36.8228 1.10994 35.0329 2.90428C33.2385 4.69863 32.1286 7.1759 32.1286 9.91056C32.1286 12.6452 33.2385 15.1225 35.0329 16.9168C35.2858 17.1742 35.5551 17.4153 35.8393 17.6414Z" fill="#79DE90"/>
<path d="M28.2662 39.6572H26.5254C25.286 39.6572 24.2802 40.6615 24.2802 41.9024V42.7549C24.2802 43.9943 25.2845 45.0001 26.5254 45.0001H28.2662C29.016 45.0001 29.6231 44.393 29.6231 43.6432V41.0141C29.6231 40.2643 29.016 39.6572 28.2662 39.6572Z" fill="#79DE90"/>
</svg>
