<svg width="861" height="874" viewBox="0 0 861 874" fill="none" xmlns="http://www.w3.org/2000/svg">
<g opacity="0.05">
<path d="M432.822 689.309C293.535 689.309 180.23 575.997 180.23 436.737C180.23 297.476 293.551 184.18 432.822 184.18C572.108 184.18 685.413 297.476 685.413 436.737C685.413 576.013 572.108 689.309 432.822 689.309ZM432.822 193.618C298.741 193.618 189.668 302.682 189.668 436.737C189.668 570.808 298.757 679.872 432.822 679.872C566.886 679.872 675.975 570.808 675.975 436.737C675.975 302.682 566.902 193.618 432.822 193.618Z" fill="white"/>
<path d="M432.825 670.083C304.158 670.083 199.461 565.41 199.461 436.752C199.461 308.094 304.142 203.421 432.825 203.421C561.492 203.421 666.172 308.094 666.172 436.752C666.188 565.41 561.492 670.083 432.825 670.083ZM432.825 212.843C309.348 212.843 208.899 313.284 208.899 436.736C208.899 560.188 309.348 660.629 432.825 660.629C556.285 660.629 656.734 560.188 656.734 436.736C656.75 313.284 556.301 212.843 432.825 212.843Z" fill="white"/>
<path d="M407.066 191.541L401.492 194.623C400.231 193.729 371.725 173.353 366.934 131.372C362.446 92.1697 381.115 49.0071 422.428 3.06594L425.175 0L428.577 2.31542C431.02 3.97614 488.67 43.7215 494.802 101.703C498.076 132.57 486.019 162.559 458.951 190.855L455.006 194.974L451.685 190.328C448.714 186.144 438.861 175.301 429.247 175.301C422.029 175.301 415.45 181.481 409.716 193.665L407.066 191.541ZM426.612 12.5672C389.164 55.2028 372.252 94.7886 376.308 130.302C379.598 158.982 396.078 177.122 403.967 184.292C410.93 172.06 419.426 165.864 429.279 165.864C440.825 165.864 450.71 174.806 455.789 180.427C478.274 155.421 488.271 129.312 485.46 102.741C480.59 56.7997 438.813 21.8608 426.612 12.5672Z" fill="white"/>
<path d="M393.541 177.265L385.125 172.986C385.812 171.644 402.165 140.043 427.971 138.43C443.701 137.472 458.841 147.66 473.101 168.77L465.292 174.056C453.028 155.915 440.651 147.053 428.562 147.851C408.073 149.145 393.701 176.994 393.541 177.265Z" fill="white"/>
<path d="M381.899 157.704L373.93 152.626C374.792 151.285 395.201 119.811 427.54 116.921C447.47 115.148 467.208 124.617 486.164 145.121L479.233 151.524C462.369 133.288 445.266 124.793 428.386 126.326C400.631 128.801 382.09 157.401 381.899 157.704Z" fill="white"/>
<path d="M402.754 129.551C402.355 128.354 393.156 100.106 403.345 80.6721C407.465 72.7996 414.092 67.4822 423.067 64.8474C432.425 62.0848 440.234 63.1068 446.255 67.8335C460.723 79.2349 459.27 108.968 458.472 124.953L458.408 126.454L448.986 126.006L449.066 124.505C449.72 111.236 451.062 83.6422 440.426 75.2588C436.913 72.4803 432.09 72.0332 425.734 73.9015C419.234 75.8017 414.667 79.4425 411.729 85.0155C403.409 100.888 411.649 126.31 411.729 126.565L402.754 129.551Z" fill="white"/>
<path d="M486.29 106.302C482.346 100.122 477.954 96.8006 473.259 96.3854C465.035 95.6669 457.465 103.795 457.385 103.875L450.391 97.5352C450.822 97.0561 461.074 85.9102 473.994 86.98C481.803 87.6347 488.606 92.4253 494.243 101.224L486.29 106.302Z" fill="white"/>
<path d="M399.512 103.97C399.464 103.906 394.865 97.9819 388.397 97.3911C384.452 97.0238 380.428 98.7324 376.34 102.421L370 95.4269C376.164 89.854 382.696 87.3629 389.355 88.0016C400.007 89.0396 406.762 97.918 407.049 98.3013L399.496 103.954L403.281 101.128L399.512 103.97Z" fill="white"/>
<path d="M547.648 223.302L546.578 218.352C546.514 218.081 540.493 191.238 522.272 191.238C516.252 191.238 509.273 194.032 501.544 199.525L497.423 202.448L494.788 198.152C493.894 196.699 472.942 161.92 487.89 121.264C501.416 84.473 539.455 55.6819 600.97 35.6894L604.452 34.5557L606.416 37.6535C608.173 40.4161 649.151 105.998 628.262 161.329C617.419 190.04 591.947 210.416 552.519 221.881L547.648 223.302ZM522.256 181.801C542.362 181.801 551.305 201.857 554.419 211.438C588.243 200.643 610.089 182.679 619.415 157.992C636.215 113.504 608.013 59.3227 600.3 45.8453C543.799 64.8158 508.969 91.2755 496.753 124.506C486.245 153.073 495.842 178.894 500.554 188.843C508.251 184.18 515.533 181.801 522.256 181.801Z" fill="white"/>
<path d="M567.56 210.655C563.217 187.852 554.401 173.513 541.338 168.036C519.7 158.934 492.775 176.531 492.503 176.706L487.281 168.85C488.559 168.004 518.725 148.283 544.979 159.349C561.125 166.135 571.84 182.806 576.807 208.915L567.56 210.655Z" fill="white"/>
<path d="M591.69 197.513C582.651 172.172 568.774 155.692 550.425 148.538C521.089 137.073 489.82 153.169 489.501 153.329L485.125 144.977C486.546 144.227 520.546 126.725 553.858 139.756C574.858 147.963 590.572 166.327 600.569 194.352L591.69 197.513Z" fill="white"/>
<path d="M580.832 163.868L572.624 159.205L573.406 157.848C579.746 146.75 592.937 123.675 587.092 110.613C584.825 105.551 579.778 102.246 571.65 100.521C563.521 98.7966 556.782 99.9943 551.033 104.162C536.596 114.637 533.77 139.963 533.738 140.219L524.348 139.229C524.475 138.015 527.685 109.448 545.475 96.5291C553.412 90.7645 562.882 89.008 573.614 91.2915C584.745 93.6548 592.171 98.8605 595.716 106.765C603.525 124.186 589.28 149.145 581.615 162.543L580.832 163.868Z" fill="white"/>
<path d="M619.064 160.674C617.835 153.089 614.817 147.772 610.105 144.866C601.626 139.644 589.952 143.253 589.824 143.301L586.934 134.31C587.572 134.103 602.791 129.328 614.976 136.786C622.178 141.193 626.682 148.714 628.375 159.157L619.064 160.674Z" fill="white"/>
<path d="M532.522 114.765C532.059 112.928 527.46 97.0558 508.68 101.08L506.684 91.8501C529.249 86.9957 539.437 103.252 541.673 112.529L532.522 114.765Z" fill="white"/>
<path d="M669.4 299.903C658.525 299.903 646.628 298.498 634.06 295.735L629.46 294.729L630.466 290.115C630.514 289.907 634.842 269.435 625.324 257.635C619.655 250.593 609.706 247.878 595.956 249.587L591.261 250.177L590.702 245.483C590.495 243.87 586.247 205.642 612.517 176.036C639.904 145.153 689.873 135.86 759.549 148.97L762.902 149.608L763.365 152.994C763.781 156.123 773.203 230.105 736.393 272.15C720.231 290.546 697.698 299.903 669.4 299.903ZM640.431 287.416C680.036 295.192 709.963 287.927 729.238 265.906C759.006 231.926 755.668 172.347 754.327 157.577C690.049 146.079 644.136 154.559 619.543 182.264C601.082 203.071 599.581 229.307 599.789 239.734C614.657 238.872 625.628 242.928 632.702 251.726C641.901 263.192 641.39 279.464 640.431 287.416Z" fill="white"/>
<path d="M662.516 295.799L653.35 293.547C659.083 270.153 656.879 252.317 646.786 240.564C630.29 221.354 597.584 223.989 597.249 224.021L596.402 214.615C597.935 214.472 634.218 211.47 653.909 234.368C666.126 248.58 669.016 269.243 662.516 295.799Z" fill="white"/>
<path d="M690.944 294.314L681.538 293.516C683.934 265.332 677.849 242.944 663.461 226.992C640.848 201.921 604.804 200.995 604.453 200.995L604.613 191.558C606.242 191.59 645 192.5 670.424 220.604C686.665 238.569 693.563 263.368 690.944 294.314Z" fill="white"/>
<path d="M685.416 256.437L680.194 248.565L681.52 247.686C691.916 240.804 713.555 226.512 714.337 211.821C714.673 205.593 711.287 199.621 703.989 193.585C696.787 187.629 689.632 185.346 682.127 186.623C664.672 189.577 651.688 210.703 651.561 210.911L643.496 206.009C644.119 204.987 658.891 180.97 680.562 177.297C690.798 175.589 700.699 178.591 710.009 186.288C719.639 194.256 724.27 202.991 723.775 212.3C722.737 231.734 699.326 247.223 686.742 255.527L685.416 256.437Z" fill="white"/>
<path d="M731.952 275.806L722.85 273.315C724.957 265.666 724.383 259.151 721.157 253.994C715.376 244.732 702.616 242.081 702.488 242.049L704.245 232.771C704.916 232.899 721.109 236.093 729.157 248.995C733.853 256.485 734.779 265.507 731.952 275.806Z" fill="white"/>
<path d="M670.853 189.402L661.574 187.629C661.942 185.665 664.513 168.291 644.727 162.463L647.394 153.409C670.15 160.131 672.689 179.884 670.853 189.402Z" fill="white"/>
<path d="M748.384 431.18C725.292 431.18 700.907 420.912 675.882 400.664L675.18 394.037C675.323 393.861 689.089 376.552 684.809 361.43C682.478 353.19 674.956 346.771 662.452 342.347L657.98 340.766L659.577 336.311C659.785 335.72 681.232 277.931 742.444 277.931C774.734 277.931 812.183 293.947 853.768 325.533L856.483 327.592L855.381 330.818C853.991 334.906 820.088 431.18 748.384 431.18ZM685.304 396.081C707.343 413.103 728.55 421.742 748.384 421.742C806.466 421.742 838.836 347.361 845.272 330.93C806.514 302.011 771.94 287.352 742.46 287.352C697.106 287.352 676.218 322.866 670.309 335.273C683.117 340.782 691.038 348.703 693.912 358.891C698.112 373.853 689.904 389.103 685.304 396.081Z" fill="white"/>
<path d="M701.32 413.455L694.118 407.339C709.736 388.959 715.725 372.033 711.94 356.99C705.744 332.367 675.37 320.199 675.066 320.087L678.5 311.305C679.937 311.864 713.729 325.405 721.107 354.691C725.674 372.847 719.015 392.616 701.32 413.455Z" fill="white"/>
<path d="M727.401 424.84L719.337 419.922C734.093 395.778 738.676 373.055 732.943 352.344C723.936 319.8 692.124 302.842 691.789 302.682L696.149 294.314C697.602 295.065 731.857 313.221 741.997 349.741C748.513 373.087 743.594 398.349 727.401 424.84Z" fill="white"/>
<path d="M739.408 388.496L738.258 379.122L739.823 378.931C752.2 377.43 777.943 374.332 785.225 361.541C788.307 356.112 787.956 349.262 784.123 340.607C780.354 332.064 774.988 326.842 767.722 324.606C750.874 319.448 729.715 332.527 729.507 332.654L724.477 324.67C725.483 324.031 749.453 309.181 770.453 315.584C780.37 318.618 787.876 325.756 792.763 336.806C797.809 348.224 798.033 358.124 793.433 366.22C783.804 383.131 755.937 386.5 740.973 388.32L739.408 388.496Z" fill="white"/>
<path d="M772.352 426.644L765.341 420.337C770.627 414.445 773.039 408.393 772.48 402.356C771.474 391.386 761.221 383.354 761.109 383.274L766.842 375.769C767.401 376.184 780.433 386.292 781.87 401.414C782.7 410.213 779.49 418.692 772.352 426.644Z" fill="white"/>
<path d="M756.385 322.019L748.895 316.271L752.648 319.145L748.895 316.287C750.093 314.69 760.153 300.318 745.078 286.25L751.53 279.352C768.841 295.544 762.277 314.338 756.385 322.019Z" fill="white"/>
<path d="M753.078 581.171C716.013 581.171 686.836 558.304 666.331 513.209L664.383 508.914L668.679 506.966C668.886 506.87 688.944 497.544 691.866 482.119C693.463 473.703 689.615 464.601 680.4 455.052L677.111 451.635L680.544 448.361C681.582 447.355 706.559 423.882 742.506 423.882C786.63 423.882 825.835 458.102 859.052 525.585L860.553 528.651L858.126 531.03C856.066 533.106 806.464 581.171 753.078 581.171ZM676.823 513.337C695.492 552.092 721.139 571.733 753.078 571.733C796.18 571.733 838.499 536.156 849.039 526.639C818.314 465.575 781.536 433.335 742.538 433.335C717.737 433.335 698.27 446.286 690.605 452.258C699.596 462.909 703.141 473.544 701.161 483.939C698.222 499.189 684.057 509.153 676.823 513.337Z" fill="white"/>
<path d="M683.369 536.028L679.68 527.341C701.845 517.904 714.781 505.448 718.15 490.326C723.644 465.607 701.893 441.032 701.686 440.776L708.696 434.469C709.734 435.618 733.896 462.829 727.381 492.322C723.325 510.606 708.521 525.313 683.369 536.028Z" fill="white"/>
<path d="M701.592 557.889L696.594 549.889C720.596 534.91 734.857 516.611 738.993 495.532C745.493 462.414 724.636 433.016 724.429 432.712L732.078 427.171C733.036 428.497 755.538 460.05 748.287 497.241C743.64 521.034 727.926 541.441 701.592 557.889Z" fill="white"/>
<path d="M768.011 539.972C754.357 539.972 739.505 534.655 730.051 531.269L728.598 530.742L731.76 521.848L733.245 522.375C744.982 526.59 769.4 535.325 781.633 527.149C786.823 523.668 789.57 517.393 790.017 507.923C790.464 498.582 788.005 491.508 782.479 486.254C769.64 474.07 744.966 476.354 744.711 476.37L743.785 466.98C744.982 466.869 773.057 464.282 788.979 479.404C796.5 486.558 800.014 496.298 799.455 508.354C798.848 520.842 794.632 529.8 786.887 534.974C781.457 538.631 774.894 539.972 768.011 539.972Z" fill="white"/>
<path d="M740.989 579.622L737.539 570.839C744.933 567.933 749.804 563.573 752.008 557.888C755.968 547.701 750.427 535.916 750.379 535.804L758.858 531.652C759.162 532.275 766.3 547.142 760.807 561.306C757.597 569.545 750.938 575.709 740.989 579.622Z" fill="white"/>
<path d="M773.535 478.909L769.399 470.43L771.475 474.678L769.383 470.446C771.171 469.552 786.598 461.184 779.412 441.878L788.243 438.589C796.515 460.785 782.238 474.678 773.535 478.909Z" fill="white"/>
<path d="M709.578 720.543C676.041 720.543 650.187 711.346 632.684 693.19C614.574 674.379 606.079 646.258 607.452 609.595L607.628 604.884L613.089 605.06C616.826 605.06 635.926 604.485 644.422 592.924C649.42 586.137 649.963 576.365 646.082 563.877L644.661 559.358L649.197 557.969C649.628 557.825 660.152 554.647 675.003 554.647C692.107 554.647 716.78 558.975 737.237 579.558C762.197 604.693 774.654 647.536 774.254 706.906L774.238 710.308L770.997 711.362C769.831 711.745 742.156 720.543 709.578 720.543ZM616.762 614.401C616.299 646.21 623.917 670.498 639.471 686.642C655.121 702.882 678.692 711.106 709.562 711.106C734.33 711.106 756.672 705.597 764.816 703.329C764.705 648.398 753.175 609.004 730.53 586.201C712.356 567.917 690.302 564.085 675.003 564.085C667.098 564.085 660.519 565.107 656.431 565.921C659.641 579.223 658.171 590.161 652.023 598.529C642.713 611.208 625.546 613.89 616.762 614.401Z" fill="white"/>
<path d="M620.594 637.891C617.959 637.891 615.244 637.811 612.449 637.635L613.024 628.214C637.074 629.683 654.242 624.35 664.015 612.293C680.001 592.572 671.521 560.971 671.441 560.652L680.544 558.145C680.943 559.63 690.365 594.792 671.345 618.234C660.773 631.28 643.718 637.891 620.594 637.891Z" fill="white"/>
<path d="M618.98 665.325L618.086 655.935C646.256 653.269 667.208 643.288 680.335 626.282C700.968 599.567 695.475 563.941 695.411 563.574L704.737 562.041C704.992 563.654 710.997 601.946 687.873 631.967C673.069 651.193 649.897 662.403 618.98 665.325Z" fill="white"/>
<path d="M702.26 683.225C684.039 683.225 666.185 664.558 656.348 654.258L655.262 653.141L662.065 646.61L663.151 647.743C671.774 656.749 689.66 675.576 704.304 673.66C710.501 672.878 715.77 668.47 720.402 660.215C724.969 652.071 725.943 644.613 723.356 637.46C717.335 620.821 694.243 611.814 694.004 611.734L697.374 602.92C698.491 603.351 724.761 613.603 732.235 634.266C735.748 644.023 734.551 654.306 728.626 664.845C722.51 675.752 714.717 681.852 705.47 683.033C704.416 683.161 703.33 683.225 702.26 683.225Z" fill="white"/>
<path d="M648.748 702.595C647.359 702.595 645.953 702.531 644.5 702.403L645.346 692.998C653.219 693.7 659.511 691.992 664.015 687.936C672.207 680.558 672.479 667.528 672.495 667.4L681.933 667.496C681.933 668.199 681.661 684.694 670.403 694.898C664.733 700.008 657.467 702.595 648.748 702.595Z" fill="white"/>
<path d="M718.936 626.872C718.84 626.872 718.744 626.872 718.648 626.872L718.76 617.435L718.696 622.146L718.728 617.435C718.744 617.435 718.744 617.435 718.76 617.435C720.852 617.435 738.275 616.812 740.495 596.389L749.869 597.395C747.346 620.756 728.709 626.872 718.936 626.872Z" fill="white"/>
<path d="M615.723 834.143L612.354 833.632C608.904 833.105 527.699 820.122 501.285 766.676C487.775 739.354 491.256 706.635 511.634 669.46L513.901 665.325L518.053 667.592C518.165 667.64 529.216 673.612 540.762 673.612C555.151 673.612 563.615 664.542 566.665 645.875L567.431 641.196L572.094 641.979C573.899 642.282 616.538 649.787 636.356 689.006C653.971 723.865 647.551 771.674 617.288 831.125L615.723 834.143ZM517.83 677.924C500.87 710.595 498.155 739.019 509.733 762.492C531.085 805.735 595.059 820.697 610.437 823.715C637.905 768.576 643.782 724.695 627.908 693.269C613.791 665.309 585.86 655.28 575.001 652.342C569.188 677.588 553.394 683.066 540.746 683.066C531.484 683.05 522.812 680.047 517.83 677.924Z" fill="white"/>
<path d="M545.171 709.94C532.651 709.94 518.741 705.533 503.586 696.766L508.313 688.606C529.153 700.694 546.88 703.585 560.997 697.197C584.073 686.786 590.716 654.626 590.78 654.306L600.042 656.143C599.739 657.66 592.441 693.317 564.925 705.772C558.809 708.551 552.197 709.94 545.171 709.94Z" fill="white"/>
<path d="M539.135 733.126C526.008 733.126 511.939 730.236 497.023 724.456L500.425 715.657C526.839 725.893 550.058 726.324 569.43 716.966C599.9 702.228 610.791 668.007 610.887 667.672L619.893 670.466C619.414 672.031 607.645 708.966 573.534 725.462C562.962 730.572 551.464 733.126 539.135 733.126Z" fill="white"/>
<path d="M574.761 780.393C571.919 780.393 569.156 779.93 566.489 778.988C548.124 772.537 539.836 745.694 535.396 731.29L534.949 729.805L543.956 727.011L544.419 728.496C548.092 740.408 555.742 765.207 569.619 770.078C575.512 772.154 582.187 770.573 590.028 765.255C597.758 760.018 601.958 753.806 602.852 746.269C604.928 728.767 588.288 710.276 588.112 710.084L595.075 703.713C595.889 704.591 614.797 725.526 612.226 747.339C611.012 757.638 605.327 766.293 595.314 773.064C588.128 777.95 581.245 780.393 574.761 780.393Z" fill="white"/>
<path d="M522.094 774.948C515.946 774.948 509.638 772.968 503.25 769.039L508.201 761.007C514.972 765.175 521.375 766.453 527.236 764.808C537.76 761.854 543.877 750.356 543.94 750.245L552.341 754.54C552.021 755.163 544.404 769.79 529.775 773.894C527.252 774.597 524.697 774.948 522.094 774.948Z" fill="white"/>
<path d="M617.656 737.965C611.907 737.965 606.764 736.416 603.379 734.66L607.675 726.26C609.463 727.154 625.401 734.5 636.564 717.158L644.501 722.268C636.723 734.324 626.455 737.965 617.656 737.965Z" fill="white"/>
<path d="M418.581 874L415.803 872.02C412.96 870.008 346.127 822.054 346.431 762.444C346.574 731.961 364.333 704.255 399.194 680.127L403.075 677.444L405.774 681.325C405.901 681.5 418.741 699.736 434.535 699.736C443.031 699.736 451.239 694.323 458.937 683.656L461.699 679.808L465.532 682.602C467.017 683.672 501.799 709.461 501.959 753.406C502.102 792.449 474.986 832.338 421.328 871.988L418.581 874ZM400.935 690.459C371.168 712.08 355.997 736.304 355.869 762.46C355.613 810.685 406.141 852.698 418.533 862.279C467.704 825.28 492.584 788.712 492.521 753.534C492.441 722.268 471.92 700.694 463.504 693.157C454.721 703.776 444.979 709.158 434.519 709.158C418.837 709.174 406.365 696.878 400.935 690.459Z" fill="white"/>
<path d="M432.378 736.479C431.787 736.479 431.196 736.463 430.589 736.447C411.873 735.729 394.769 723.784 379.758 700.95L387.647 695.76C400.886 715.88 415.434 726.403 430.924 727.01C456.236 728.112 476.55 702.243 476.757 701.987L484.215 707.768C483.289 708.966 461.65 736.479 432.378 736.479Z" fill="white"/>
<path d="M430.509 757.909C430.173 757.909 429.838 757.909 429.486 757.893C405.245 757.573 382.376 745.741 361.504 722.762L368.499 716.423C387.55 737.389 408.103 748.168 429.63 748.456C429.918 748.456 430.221 748.456 430.509 748.456C463.901 748.456 488.526 723.177 488.782 722.906L495.585 729.437C494.451 730.619 467.861 757.909 430.509 757.909Z" fill="white"/>
<path d="M420.72 810.717C411.65 810.717 404.431 808.002 399.225 802.605C385.683 788.616 390.298 760.911 392.774 746.029L393.029 744.496L402.339 746.029L402.084 747.577C400.04 759.873 395.792 785.471 406.012 796.042C410.356 800.529 417.031 802.094 426.422 800.864C435.684 799.635 442.215 795.946 446.399 789.59C456.109 774.804 449.482 750.915 449.402 750.675L458.473 748.089C458.808 749.222 466.33 776.4 454.272 794.764C448.587 803.419 439.628 808.625 427.651 810.206C425.224 810.557 422.924 810.717 420.72 810.717Z" fill="white"/>
<path d="M374.345 782.181C372.493 782.181 370.592 782.021 368.676 781.638C360.004 779.961 352.754 774.5 347.133 765.414L355.166 760.448C359.334 767.202 364.492 771.21 370.48 772.36C381.196 774.404 391.832 766.883 391.943 766.803L397.549 774.388C397.038 774.771 386.833 782.181 374.345 782.181Z" fill="white"/>
<path d="M476.712 792.034C464.878 792.034 455.983 784.864 452.055 779.483L459.672 773.909L455.855 776.704L459.656 773.894C460.854 775.49 471.809 789.191 489.551 778.684L494.374 786.796C488.002 790.565 482.046 792.034 476.712 792.034Z" fill="white"/>
<path d="M224.435 821.416L222.822 818.398C221.177 815.332 182.866 742.548 209.807 689.373C223.588 662.179 251.855 645.364 293.823 639.376L298.486 638.705L299.156 643.368C299.348 644.661 303.963 674.89 326.305 674.89C331.974 674.89 338.49 672.989 345.676 669.221L349.876 667.017L352.048 671.233C352.894 672.846 372.457 711.473 352.942 750.851C335.599 785.838 293.487 809.376 227.772 820.825L224.435 821.416ZM290.709 649.388C254.442 655.424 230.056 670.275 218.239 693.604C196.424 736.607 222.822 796.776 229.625 810.893C290.166 799.81 328.78 778.237 344.446 746.747C358.372 718.755 349.668 690.251 345.516 679.76C338.665 682.778 332.229 684.311 326.305 684.311C304.458 684.327 294.046 663.584 290.709 649.388Z" fill="white"/>
<path d="M322.599 709.972C314.135 709.972 305.112 708.391 296.728 703.792C280.311 694.77 270.362 676.439 267.152 649.292L276.527 648.19C279.353 672.127 287.689 688.064 301.263 695.537C323.525 707.753 353.101 693.764 353.404 693.637L357.492 702.132C356.55 702.563 340.868 709.972 322.599 709.972Z" fill="white"/>
<path d="M325.746 731.593C313.721 731.593 299.684 729.47 286.125 722.459C264.598 711.329 249.427 690.523 241.027 660.63L250.114 658.075C257.763 685.349 271.338 704.192 290.453 714.076C320.508 729.613 354.411 717.829 354.763 717.701L357.941 726.595C357.03 726.931 343.6 731.593 325.746 731.593Z" fill="white"/>
<path d="M275.203 770.988C270.699 770.988 265.988 770.142 261.07 768.449C249.268 764.377 241.858 757.798 239.064 748.935C233.219 730.364 249.731 707.657 258.594 695.441L259.521 694.18L267.17 699.721L266.244 700.998C258.914 711.074 243.663 732.073 248.086 746.093C249.955 752.049 255.225 756.441 264.168 759.523C272.999 762.588 280.505 762.205 287.084 758.389C302.383 749.51 307.126 725.19 307.174 724.935L316.452 726.691C316.229 727.857 310.815 755.53 291.827 766.549C286.701 769.503 281.144 770.988 275.203 770.988Z" fill="white"/>
<path d="M243.823 723.386C237.819 723.386 228.652 722.268 221.115 716.487C214.104 711.106 210.064 702.978 209.105 692.359L218.512 691.497C219.23 699.369 222.025 705.261 226.832 708.95C235.567 715.689 248.439 713.645 248.566 713.629L250.163 722.922C249.892 722.986 247.432 723.386 243.823 723.386Z" fill="white"/>
<path d="M328.108 777.438C306.741 777.438 298.197 760.975 296.664 751.857L305.958 750.26C306.31 752.224 310.015 769.359 330.552 767.905L331.222 777.327C330.152 777.391 329.114 777.438 328.108 777.438Z" fill="white"/>
<path d="M153.849 701.365C131.7 701.365 106.052 697.038 77.6105 688.511L74.3367 687.537L74.2409 684.135C74.1611 681.133 72.6759 610.409 110.428 571.606C135.42 545.929 171.943 540.451 217.855 555.781L222.327 557.282L220.842 561.753C220.778 561.961 214.007 582.832 223.141 595.511C228.028 602.281 236.907 605.698 249.555 605.714L255.608 605.619L255.671 610.361C255.687 611.862 255.895 647.632 229.753 674.139C211.931 692.183 186.395 701.365 153.849 701.365ZM83.679 680.447C109.885 688.064 133.488 691.912 153.849 691.912C153.849 691.912 153.849 691.912 153.865 691.912C183.792 691.912 207.06 683.688 223.062 667.464C241.267 649.005 245.179 624.94 246.026 615.024C231.989 614.353 221.72 609.627 215.476 600.956C206.485 588.453 208.801 571.446 210.653 563.35C170.41 550.927 138.854 555.909 117.215 578.153C86.6493 609.547 83.8706 666.059 83.679 680.447Z" fill="white"/>
<path d="M246.731 640.382C245.182 640.366 208.803 639.52 191.635 614.673C180.984 599.263 180.297 578.408 189.559 552.699L198.439 555.893C190.262 578.584 190.581 596.549 199.397 609.307C213.833 630.21 246.555 630.945 246.874 630.945L246.731 640.382Z" fill="white"/>
<path d="M236.157 662.466C234.528 662.259 196.089 657.261 173.78 626.633C159.503 607.04 155.239 581.65 161.116 551.15L170.378 552.939C165.029 580.724 168.718 603.623 181.35 621.012C201.2 648.318 236.94 653.061 237.307 653.093L236.157 662.466Z" fill="white"/>
<path d="M157.027 668.661C147.493 668.661 138.677 664.59 130.804 656.525C122.069 647.599 118.38 638.417 119.849 629.203C122.931 609.978 147.86 597.059 161.258 590.129L162.632 589.41L166.992 597.778L165.602 598.496C154.535 604.229 131.491 616.173 129.16 630.689C128.169 636.852 130.916 643.144 137.544 649.915C144.075 656.605 150.942 659.623 158.544 659.16C176.19 658.058 191.329 638.433 191.473 638.226L198.979 643.942C198.26 644.885 181.029 667.208 159.119 668.566C158.432 668.645 157.729 668.661 157.027 668.661Z" fill="white"/>
<path d="M141.39 610.968C140.719 610.76 124.957 605.89 118.33 592.221C114.465 584.268 114.481 575.198 118.394 565.25L127.177 568.699C124.287 576.077 124.159 582.592 126.794 588.053C131.585 597.985 144.009 601.913 144.137 601.945L141.39 610.968Z" fill="white"/>
<path d="M189.558 695.872C167.647 686.802 167.2 666.889 170.027 657.627L179.066 660.358C178.507 662.274 174.115 679.265 193.167 687.153L189.558 695.872Z" fill="white"/>
<path d="M118.031 562.583C83.3613 562.583 44.4913 542.527 2.49126 502.973L0 500.626L1.43726 497.528C3.13004 493.903 43.7088 408.584 110.27 408.584C135.917 408.584 161.836 421.518 187.307 447.004L190.645 450.325L187.307 453.663C187.148 453.823 171.625 469.583 174.292 485.057C175.745 493.504 182.548 500.674 194.51 506.391L198.789 508.435L196.729 512.698C195.755 514.758 172.04 562.583 118.031 562.583ZM11.5141 498.486C50.7194 534.751 86.5392 553.146 118.031 553.146C157.907 553.146 179.386 523.652 186.014 512.634C173.829 505.8 166.77 497.081 164.998 486.638C162.395 471.324 172.168 457.032 177.47 450.581C154.889 428.976 132.308 418.037 110.286 418.037C56.3407 418.021 19.3072 483.476 11.5141 498.486Z" fill="white"/>
<path d="M175.281 535.597C173.908 534.894 141.745 517.856 137.513 487.963C134.894 469.424 143.598 450.469 163.4 431.61L169.916 438.445C152.445 455.068 144.7 471.276 146.871 486.622C150.433 511.772 179.354 527.07 179.657 527.213L175.281 535.597Z" fill="white"/>
<path d="M155.944 550.623C154.587 549.729 122.44 528.06 116.18 490.694C112.172 466.789 119.725 442.166 138.633 417.526L146.123 423.275C128.876 445.759 121.945 467.923 125.49 489.145C131.08 522.519 160.847 542.559 161.15 542.767L155.944 550.623Z" fill="white"/>
<path d="M100.48 524.691C95.0818 524.691 89.5244 523.86 84.3024 521.641C74.7685 517.585 68.0453 509.696 64.3563 498.199C60.5396 486.302 61.3541 476.434 66.7837 468.881C78.1381 453.056 106.213 452.657 121.304 452.449L122.869 452.417L123.029 461.855L121.448 461.871C108.975 462.046 83.0408 462.43 74.4651 474.374C70.824 479.436 70.4567 486.286 73.3632 495.309C76.2218 504.219 81.0126 509.984 88.0073 512.954C104.28 519.884 126.606 509.089 126.829 508.978L130.997 517.441C130.183 517.84 116.002 524.691 100.48 524.691Z" fill="white"/>
<path d="M94.2385 462.174C93.7275 461.695 81.8302 450.277 82.0058 435.107C82.1016 426.277 86.1899 418.165 94.1268 410.995L100.451 418.005C94.542 423.323 91.5237 429.119 91.4439 435.203C91.3161 446.126 100.626 455.228 100.722 455.307L94.2385 462.174Z" fill="white"/>
<path d="M99.332 559.661C83.7936 541.745 92.3053 523.732 98.9806 516.722L105.816 523.221L102.398 519.964L105.832 523.205C104.474 524.658 92.9441 537.896 106.454 553.481L99.332 559.661Z" fill="white"/>
<path d="M132.198 417.318C99.3003 417.318 52.8607 397.565 18.3185 303.447L17.1367 300.238L19.8036 298.114C21.8318 296.517 69.9003 258.848 119.773 258.848C161.709 258.848 191.605 284.828 208.644 336.071L210.129 340.542L205.658 342.043C205.45 342.107 184.514 349.261 179.979 364.303C177.503 372.495 180.378 381.964 188.506 392.424L191.413 396.16L187.66 399.05C186.718 399.801 163.658 417.318 132.198 417.318ZM28.4113 303.479C54.1702 371.808 90.0219 407.881 132.198 407.881C153.389 407.881 170.732 398.731 178.11 394.148C170.285 382.619 167.89 371.649 170.972 361.525C175.491 346.658 190.63 338.243 198.264 334.857C182.47 290.689 156.088 268.301 119.805 268.301C79.5938 268.301 39.1109 295.687 28.4113 303.479Z" fill="white"/>
<path d="M158.275 409.925C157.364 408.68 136.221 379.059 145.802 350.427C151.743 332.67 168.016 319.608 194.158 311.608L196.921 320.63C173.877 327.672 159.696 338.69 154.761 353.381C146.697 377.382 165.716 404.113 165.908 404.384L158.275 409.925Z" fill="white"/>
<path d="M134.259 414.716C133.445 413.294 114.393 379.537 125.524 343.321C132.646 320.151 150.42 301.515 178.335 287.926L182.471 296.421C156.984 308.813 140.871 325.532 134.547 346.099C124.614 378.451 142.26 409.701 142.436 410.021L134.259 414.716Z" fill="white"/>
<path d="M126.785 373.884C125.588 373.884 97.3853 373.485 83.1563 356.75C76.4331 348.846 73.9579 338.786 75.8103 326.841C77.7107 314.498 82.8689 306.034 91.1092 301.707C108.356 292.637 133.636 304.853 147.226 311.4L148.616 312.07L144.527 320.582L143.122 319.895C131.896 314.482 108.516 303.208 95.5008 310.058C89.9754 312.965 86.5898 318.921 85.1366 328.278C83.6993 337.524 85.4081 344.822 90.3427 350.618C101.809 364.096 126.594 364.431 126.849 364.431L126.785 373.884Z" fill="white"/>
<path d="M118.64 307.999C118.401 307.344 112.859 291.791 119.822 278.281C123.862 270.425 131.145 264.996 141.445 262.153L143.952 271.255C136.303 273.363 131.001 277.18 128.206 282.593C123.208 292.318 127.472 304.629 127.503 304.741L118.64 307.999Z" fill="white"/>
<path d="M79.5796 397.454C73.6868 374.475 89.369 362.18 98.4876 358.906L101.682 367.785L100.085 363.345L101.713 367.785C99.845 368.471 83.6039 375.146 88.7302 395.123L79.5796 397.454Z" fill="white"/>
<path d="M217.121 295.831C201.583 295.831 172.103 292.11 149.123 267.216C124.019 240.021 113.766 195.517 118.653 134.949L118.94 131.324L122.518 130.686C123.077 130.59 136.459 128.21 155.239 128.21C184.911 128.21 225.585 134.151 250.929 162.479C269.534 183.27 276.832 212.875 272.632 250.465L272.073 255.463L267.122 254.601C267.09 254.601 263.641 253.994 258.898 253.994C251.169 253.994 240.772 255.495 235.071 262.633C230.44 268.445 229.466 277.451 232.197 289.396L233.315 294.282L228.364 295.096C228.188 295.128 223.893 295.831 217.121 295.831ZM127.772 139.436C123.811 195.342 133.313 236.173 156.054 260.828C179.29 286.01 210.159 286.953 221.96 286.266C220.028 273.858 221.928 263.942 227.661 256.756C235.694 246.68 249.061 244.572 258.866 244.572C260.655 244.572 262.283 244.652 263.689 244.748C266.499 212.188 259.84 186.655 243.871 168.786C220.874 143.045 182.978 137.648 155.239 137.648C142.895 137.648 132.85 138.75 127.772 139.436Z" fill="white"/>
<path d="M198.264 290.961C197.977 289.46 191.349 253.994 211.694 233.778C224.215 221.338 243.809 217.698 269.952 222.935L268.099 232.197C245.263 227.614 228.542 230.392 218.386 240.453C201.618 257.092 207.478 288.853 207.542 289.172L198.264 290.961Z" fill="white"/>
<path d="M175.279 283.95C175.136 282.337 172.053 244.189 196.918 218.16C212.616 201.729 235.756 194.048 265.619 195.325L265.22 204.747C238.152 203.581 217.487 210.288 203.737 224.675C181.795 247.638 184.637 282.752 184.669 283.104L175.279 283.95Z" fill="white"/>
<path d="M185.087 245.339C184.017 244.764 158.833 231.031 153.659 209.665C151.327 200.068 153.339 190.567 159.631 181.433C166.147 171.964 173.876 167.013 182.596 166.758C201.823 166.167 219.326 188.81 228.78 200.978L229.722 202.192L222.28 207.988L221.338 206.775C213.513 196.715 197.367 175.876 182.883 176.211C177.262 176.371 172.199 179.836 167.424 186.798C162.649 193.745 161.148 200.499 162.841 207.461C167.041 224.771 189.335 236.923 189.558 237.035L185.087 245.339Z" fill="white"/>
<path d="M214.137 186.064L204.73 185.297C204.778 184.627 206.216 168.69 217.842 160.179C224.692 155.165 233.396 153.824 243.712 156.187L241.604 165.385C234.067 163.66 227.95 164.475 223.415 167.796C215.366 173.672 214.153 185.936 214.137 186.064Z" fill="white"/>
<path d="M143.614 245.53L134.336 243.822C138.536 221.067 157.492 217.729 166.962 219.166L165.588 228.508C163.704 228.237 147.128 226.48 143.614 245.53Z" fill="white"/>
<path d="M309.89 226.576L304.684 224.979C303.167 224.516 267.299 213.147 250.276 174.168C234.514 138.079 240.311 91.2437 267.507 34.9869L269.248 31.394L273.08 32.5118C276.003 33.3582 344.911 53.9255 367.892 107.771C380.029 136.227 376.899 168.451 358.55 203.582L351.555 205.178C351.443 205.099 340.296 196.923 329.692 196.923C325.94 196.923 314.521 196.923 310.752 221.211L309.89 226.576ZM274.214 42.8115C249.829 94.7248 244.654 137.584 258.851 170.24C270.509 197.082 292.659 209.586 302.512 214.009C307.606 192.26 319.871 187.485 329.676 187.485C338.635 187.485 347.355 191.605 352.497 194.591C367.397 163.916 369.648 135.971 359.188 111.476C340.887 68.5845 288.746 47.8575 274.214 42.8115Z" fill="white"/>
<path d="M289.911 210.448L280.633 208.707C280.904 207.222 287.739 172.204 312.556 162.814C327.679 157.082 345.645 162.223 365.958 178.064L360.145 185.505C342.611 171.82 327.711 167.158 315.894 171.645C295.98 179.182 289.959 210.145 289.911 210.448Z" fill="white"/>
<path d="M272.664 195.294L263.609 192.643C264.057 191.11 274.9 155.038 305.721 142.423C324.869 134.598 347.13 137.648 371.899 151.493L367.3 159.732C345.166 147.357 325.651 144.466 309.298 151.157C282.629 162.064 272.76 194.959 272.664 195.294Z" fill="white"/>
<path d="M285.281 161.936C284.546 160.93 267.379 137.009 271.387 115.42C273.048 106.446 278.046 99.212 286.239 93.9105C294.767 88.3694 302.831 87.0281 310.193 89.9184C327.504 96.705 334.754 125.288 338.635 140.634L339.018 142.135L329.868 144.467L329.484 142.95C326.259 130.223 319.551 103.715 306.744 98.701C302.32 96.9605 297.29 97.9824 291.365 101.815C285.344 105.711 281.847 110.709 280.649 117.129C277.376 134.774 292.738 156.155 292.898 156.363L285.281 161.936Z" fill="white"/>
<path d="M331.402 120.914L322.906 116.794C323.194 116.203 329.981 102.454 343.012 99.6117C350.821 97.9031 358.886 100.41 366.982 107.069L360.994 114.351C355.245 109.624 349.895 107.772 345.04 108.825C336.576 110.678 331.45 120.818 331.402 120.914Z" fill="white"/>
<path d="M250.916 144.147L242.883 139.181C247.306 132.011 252.976 127.668 259.731 126.294C270.43 124.123 279.613 130.494 279.996 130.765L274.551 138.478L277.265 134.63L274.566 138.494C274.503 138.446 268.179 134.167 261.535 135.556C257.479 136.418 253.902 139.308 250.916 144.147Z" fill="white"/>
<path d="M431.483 577.897C353.648 577.897 290.328 514.582 290.328 436.752C290.328 358.922 353.664 295.591 431.483 295.591C509.319 295.591 572.639 358.922 572.639 436.752C572.639 514.582 509.319 577.897 431.483 577.897ZM431.483 300.19C356.187 300.19 294.911 361.445 294.911 436.752C294.911 512.043 356.187 573.314 431.483 573.314C506.78 573.314 568.039 512.059 568.039 436.752C568.039 361.461 506.78 300.19 431.483 300.19Z" fill="white"/>
<path d="M431.483 566.272C360.051 566.272 301.938 508.179 301.938 436.752C301.938 365.325 360.051 307.216 431.483 307.216C502.915 307.216 561.012 365.325 561.012 436.752C561.012 508.163 502.915 566.272 431.483 566.272ZM431.483 311.815C362.59 311.815 306.537 367.864 306.537 436.768C306.537 505.656 362.59 561.689 431.483 561.689C500.376 561.689 556.429 505.64 556.429 436.768C556.429 367.864 500.376 311.815 431.483 311.815Z" fill="white"/>
<path d="M373.624 312.917L370.574 309.5L479.056 212.748L493.141 310.874L488.59 311.528L475.734 221.866L373.624 312.917Z" fill="white"/>
<path d="M529.552 336.63L525.048 335.816L541.034 246.664L415.465 301.02L413.645 296.805L547.055 239.063L529.552 336.63Z" fill="white"/>
<path d="M556.061 372.527L552.037 370.339L595.219 290.705L458.934 302.857L458.535 298.29L603.331 285.387L556.061 372.527Z" fill="white"/>
<path d="M569.939 414.924L566.793 411.57L632.811 349.565L499.625 318.283L500.679 313.812L642.186 347.058L569.939 414.924Z" fill="white"/>
<path d="M569.781 459.539L567.848 455.372L650.012 417.239L533.418 345.684L535.813 341.788L659.706 417.814L569.781 459.539Z" fill="white"/>
<path d="M555.617 501.84L555.105 497.289L645.078 486.893L556.878 382.332L560.375 379.378L654.117 490.47L555.617 501.84Z" fill="white"/>
<path d="M625.946 557.713L528.867 537.561L529.809 533.058L618.504 551.469L567.625 424.488L571.873 422.78L625.946 557.713Z" fill="white"/>
<path d="M578.071 612.692L492.25 563.046L494.55 559.07L572.976 604.437L564.576 467.907L569.16 467.619L578.071 612.692Z" fill="white"/>
<path d="M515.355 649.835L449.496 575.757L452.914 572.707L513.103 640.397L548.044 508.147L552.468 509.313L515.355 649.835Z" fill="white"/>
<path d="M444.147 665.404L404.91 574.368L409.126 572.564L444.962 655.727L519.7 541.154L523.548 543.661L444.147 665.404Z" fill="white"/>
<path d="M371.643 657.803L363.004 559.038L367.571 558.639L375.46 648.877L482.425 563.589L485.283 567.166L371.643 657.803Z" fill="white"/>
<path d="M305.211 627.782L328.032 531.333L332.503 532.387L311.647 620.517L439.978 573.17L441.575 577.482L305.211 627.782Z" fill="white"/>
<path d="M251.555 578.44L303.552 494.031L307.448 496.442L259.955 573.569L396.67 568.923L396.83 573.506L251.555 578.44Z" fill="white"/>
<path d="M355.595 555.701L216.148 514.726L292.02 450.932L294.974 454.445L225.634 512.73L356.888 551.31L355.595 555.701Z" fill="white"/>
<path d="M322.059 525.824L202.543 443.124L294.624 406.412L296.332 410.66L212.189 444.209L324.678 522.055L322.059 525.824Z" fill="white"/>
<path d="M299.606 486.941L212.156 370.866L311.104 364.942L311.375 369.525L220.955 374.922L303.279 484.194L299.606 486.941Z" fill="white"/>
<path d="M290.52 442.979L243.969 305.284L339.77 330.753L338.589 335.193L251.059 311.911L294.864 441.51L290.52 442.979Z" fill="white"/>
<path d="M295.711 398.364L294.785 253.02L377.731 307.312L375.224 311.145L299.432 261.531L300.295 398.332L295.711 398.364Z" fill="white"/>
<path d="M319.008 359.066L314.648 357.645L359.443 219.374L421.134 296.981L417.541 299.839L361.168 228.923L319.008 359.066Z" fill="white"/>
<path d="M349.127 327.656L345.422 324.941L431.418 207.749L465.593 300.813L461.281 302.394L430.061 217.362L349.127 327.656Z" fill="white"/>
<path d="M245.388 457.207C240.07 457.207 235.742 452.88 235.742 447.562C235.742 442.245 240.07 437.917 245.388 437.917C250.706 437.917 255.033 442.245 255.033 447.562C255.017 452.88 250.69 457.207 245.388 457.207ZM245.388 442.5C242.593 442.5 240.325 444.768 240.325 447.562C240.325 450.357 242.593 452.624 245.388 452.624C248.167 452.624 250.434 450.357 250.434 447.562C250.434 444.768 248.167 442.5 245.388 442.5Z" fill="white"/>
<path d="M251.153 399.194C250.131 399.194 249.125 399.034 248.15 398.715C243.104 397.086 240.325 391.641 241.954 386.563C243.248 382.571 246.937 379.904 251.137 379.904C252.143 379.904 253.149 380.064 254.107 380.383C256.566 381.182 258.563 382.874 259.728 385.174C260.894 387.473 261.102 390.076 260.319 392.535C259.026 396.511 255.337 399.194 251.153 399.194ZM251.137 384.487C248.933 384.487 247.001 385.892 246.33 387.984C245.468 390.635 246.937 393.493 249.588 394.356C252.255 395.234 255.113 393.717 255.96 391.114C256.375 389.837 256.263 388.463 255.656 387.266C255.049 386.068 253.995 385.174 252.702 384.759C252.191 384.583 251.664 384.487 251.137 384.487Z" fill="white"/>
<path d="M274.549 345.796C272.505 345.796 270.54 345.157 268.879 343.96C264.584 340.846 263.625 334.794 266.74 330.482C268.544 327.991 271.467 326.506 274.549 326.506C276.593 326.506 278.557 327.145 280.218 328.343C284.514 331.457 285.472 337.509 282.358 341.804C280.537 344.311 277.631 345.796 274.549 345.796ZM274.549 331.089C272.936 331.089 271.403 331.872 270.46 333.165C268.832 335.433 269.327 338.594 271.578 340.239C273.766 341.82 277.072 341.277 278.653 339.121C280.282 336.87 279.787 333.692 277.519 332.063C276.657 331.425 275.619 331.089 274.549 331.089Z" fill="white"/>
<path d="M313.31 302.25C310.228 302.25 307.305 300.765 305.501 298.274C303.983 296.198 303.377 293.643 303.776 291.104C304.175 288.565 305.548 286.314 307.625 284.813C309.285 283.599 311.234 282.96 313.294 282.96C316.376 282.96 319.298 284.446 321.103 286.937C324.233 291.232 323.275 297.284 318.979 300.414C317.318 301.612 315.354 302.25 313.31 302.25ZM313.294 287.543C312.224 287.543 311.202 287.879 310.323 288.501C309.237 289.3 308.519 290.466 308.295 291.807C308.088 293.132 308.407 294.474 309.205 295.56C310.802 297.763 314.076 298.29 316.28 296.677C318.532 295.049 319.027 291.871 317.382 289.619C316.44 288.326 314.907 287.543 313.294 287.543Z" fill="white"/>
<path d="M363.61 272.789C359.426 272.789 355.737 270.106 354.428 266.114C353.629 263.671 353.837 261.068 355.002 258.768C356.168 256.469 358.164 254.76 360.624 253.962C361.598 253.643 362.604 253.483 363.61 253.483C367.794 253.483 371.483 256.15 372.777 260.142C374.421 265.204 371.643 270.649 366.596 272.294C365.638 272.629 364.632 272.789 363.61 272.789ZM363.61 258.098C363.083 258.098 362.556 258.178 362.045 258.353C360.752 258.768 359.713 259.663 359.091 260.876C358.484 262.074 358.372 263.431 358.787 264.709C359.634 267.312 362.54 268.813 365.159 267.966C367.81 267.104 369.263 264.246 368.401 261.595C367.746 259.487 365.814 258.098 363.61 258.098Z" fill="white"/>
<path d="M420.575 260.317C415.257 260.317 410.93 255.989 410.93 250.672C410.93 248.101 411.92 245.674 413.74 243.853C415.561 242.033 417.988 241.027 420.559 241.027C425.877 241.043 430.221 245.354 430.221 250.672C430.205 255.989 425.893 260.317 420.575 260.317ZM420.559 245.61C419.218 245.61 417.94 246.137 416.998 247.095C416.04 248.053 415.513 249.314 415.529 250.672C415.529 253.466 417.797 255.734 420.591 255.734C423.386 255.734 425.638 253.45 425.638 250.672C425.622 247.893 423.354 245.626 420.559 245.61Z" fill="white"/>
<path d="M466.105 263.974C465.099 263.974 464.093 263.814 463.119 263.495C458.057 261.85 455.278 256.405 456.923 251.343C458.216 247.351 461.905 244.668 466.089 244.668C467.095 244.668 468.085 244.828 469.06 245.131C474.122 246.776 476.917 252.221 475.272 257.283C473.962 261.307 470.289 263.974 466.105 263.974ZM466.089 249.267C463.885 249.267 461.953 250.672 461.282 252.764C460.42 255.431 461.889 258.289 464.54 259.151C467.159 259.998 470.066 258.497 470.912 255.894C471.774 253.243 470.305 250.385 467.654 249.522C467.143 249.347 466.616 249.267 466.089 249.267Z" fill="white"/>
<path d="M517.287 282.066C515.242 282.066 513.294 281.427 511.633 280.23C507.338 277.1 506.379 271.064 509.493 266.752C511.298 264.261 514.22 262.76 517.303 262.76C519.347 262.76 521.311 263.399 522.956 264.597C525.048 266.114 526.421 268.349 526.82 270.904C527.22 273.443 526.613 275.998 525.096 278.074C523.291 280.581 520.369 282.066 517.287 282.066ZM517.303 267.359C515.69 267.359 514.157 268.142 513.198 269.451C511.553 271.703 512.065 274.88 514.316 276.525C516.488 278.09 519.794 277.563 521.375 275.391C522.173 274.305 522.493 272.964 522.285 271.623C522.077 270.281 521.359 269.116 520.273 268.333C519.395 267.71 518.372 267.359 517.303 267.359Z" fill="white"/>
<path d="M570.354 314.897C567.272 314.897 564.35 313.412 562.561 310.921C559.431 306.625 560.373 300.589 564.685 297.444C566.346 296.23 568.31 295.591 570.354 295.591C573.437 295.591 576.343 297.076 578.164 299.551C581.294 303.863 580.335 309.899 576.04 313.029C574.363 314.258 572.398 314.897 570.354 314.897ZM570.338 300.19C569.268 300.19 568.246 300.526 567.368 301.164C565.116 302.809 564.605 305.987 566.25 308.222C567.831 310.394 571.121 310.937 573.309 309.34C575.56 307.695 576.056 304.534 574.427 302.266C573.484 300.973 571.951 300.19 570.338 300.19Z" fill="white"/>
<path d="M605.071 366.939C600.887 366.939 597.198 364.256 595.905 360.28C594.26 355.234 597.023 349.773 602.085 348.112C603.059 347.793 604.065 347.633 605.071 347.633C609.255 347.633 612.944 350.3 614.238 354.292C615.883 359.354 613.104 364.815 608.074 366.46C607.083 366.779 606.077 366.939 605.071 366.939ZM605.055 352.232C604.528 352.232 604.001 352.312 603.49 352.487C600.839 353.35 599.386 356.208 600.249 358.859C601.095 361.445 604.001 362.947 606.636 362.1C609.271 361.238 610.725 358.364 609.862 355.713C609.192 353.637 607.259 352.232 605.055 352.232Z" fill="white"/>
<path d="M619.223 425.926C613.906 425.926 609.594 421.614 609.594 416.297C609.594 413.726 610.584 411.299 612.404 409.478C614.225 407.658 616.636 406.652 619.223 406.652C624.557 406.652 628.885 410.979 628.885 416.281C628.885 418.852 627.879 421.279 626.058 423.099C624.238 424.92 621.826 425.926 619.239 425.926H619.223ZM619.223 411.235C617.882 411.235 616.604 411.762 615.646 412.72C614.688 413.678 614.177 414.939 614.177 416.297C614.177 419.075 616.445 421.343 619.223 421.343V423.626L619.239 421.343C620.597 421.343 621.858 420.816 622.817 419.858C623.775 418.9 624.302 417.638 624.302 416.281C624.286 413.502 622.018 411.235 619.223 411.235Z" fill="white"/>
<path d="M616.124 484.753C615.118 484.753 614.128 484.594 613.17 484.29C610.71 483.492 608.714 481.799 607.532 479.5C606.367 477.2 606.143 474.581 606.941 472.138C608.235 468.146 611.924 465.463 616.108 465.463C617.13 465.463 618.136 465.623 619.094 465.942C621.538 466.725 623.534 468.434 624.7 470.717C625.865 473.016 626.089 475.619 625.291 478.078C624.013 482.071 620.324 484.753 616.124 484.753ZM616.124 470.046C613.936 470.046 612.004 471.452 611.317 473.543C610.902 474.837 611.014 476.21 611.621 477.408C612.227 478.605 613.281 479.5 614.575 479.931C617.194 480.777 620.1 479.26 620.947 476.673C621.362 475.38 621.25 474.006 620.643 472.809C620.037 471.611 618.983 470.717 617.705 470.318C617.178 470.142 616.651 470.046 616.124 470.046Z" fill="white"/>
<path d="M591.753 540.946C589.725 540.946 587.761 540.307 586.1 539.11C584.008 537.593 582.634 535.357 582.235 532.802C581.82 530.263 582.443 527.708 583.944 525.632C585.749 523.141 588.671 521.656 591.769 521.656C593.813 521.656 595.777 522.295 597.422 523.493C601.718 526.606 602.692 532.659 599.562 536.954C597.774 539.461 594.851 540.946 591.753 540.946ZM591.769 526.239C590.156 526.239 588.607 527.022 587.665 528.331C586.882 529.417 586.563 530.742 586.771 532.084C586.978 533.425 587.713 534.591 588.815 535.389C591.003 536.97 594.308 536.443 595.873 534.255C597.518 532.004 597.007 528.842 594.739 527.197C593.861 526.575 592.839 526.239 591.769 526.239Z" fill="white"/>
<path d="M557.195 586.568C554.113 586.568 551.19 585.083 549.386 582.592C547.868 580.516 547.246 577.961 547.661 575.406C548.06 572.867 549.434 570.631 551.51 569.13C553.17 567.917 555.135 567.278 557.179 567.278C560.261 567.278 563.167 568.763 564.972 571.254C566.489 573.33 567.112 575.885 566.713 578.424C566.313 580.963 564.956 583.198 562.88 584.715C561.203 585.929 559.239 586.568 557.195 586.568ZM557.179 571.861C556.109 571.861 555.071 572.196 554.208 572.835C553.107 573.633 552.388 574.783 552.196 576.124C551.989 577.466 552.308 578.807 553.107 579.893C554.688 582.081 557.993 582.608 560.181 581.011C561.267 580.212 561.986 579.047 562.193 577.721C562.401 576.396 562.081 575.054 561.283 573.953C560.309 572.643 558.792 571.861 557.179 571.861Z" fill="white"/>
<path d="M505.629 618.201C501.429 618.201 497.74 615.535 496.463 611.543C495.664 609.083 495.872 606.481 497.038 604.181C498.203 601.882 500.184 600.173 502.643 599.375C503.617 599.055 504.623 598.896 505.629 598.896C509.813 598.896 513.502 601.578 514.796 605.554C515.594 607.998 515.387 610.616 514.237 612.916C513.071 615.215 511.075 616.924 508.632 617.722C507.657 618.042 506.651 618.201 505.629 618.201ZM505.629 603.494C505.102 603.494 504.575 603.574 504.064 603.75C502.787 604.165 501.749 605.059 501.142 606.257C500.535 607.455 500.423 608.844 500.838 610.137C501.685 612.724 504.591 614.225 507.21 613.363C508.488 612.948 509.542 612.054 510.149 610.856C510.756 609.658 510.867 608.285 510.452 606.992C509.749 604.9 507.817 603.494 505.629 603.494Z" fill="white"/>
<path d="M450.422 634.154C449.863 634.154 449.288 634.106 448.713 634.01C446.174 633.563 443.97 632.142 442.501 630.018C441.032 627.894 440.473 625.339 440.936 622.8C441.766 618.201 445.759 614.88 450.406 614.88C450.981 614.88 451.556 614.928 452.131 615.04C457.369 615.998 460.85 621.028 459.908 626.249C459.062 630.832 455.069 634.154 450.422 634.154ZM450.406 619.447C447.979 619.447 445.887 621.187 445.439 623.615C445.2 624.94 445.487 626.281 446.27 627.399C447.036 628.517 448.202 629.251 449.528 629.491C452.29 629.97 454.909 628.118 455.389 625.403C455.884 622.672 454.063 620.022 451.316 619.527C450.997 619.479 450.694 619.447 450.406 619.447Z" fill="white"/>
<path d="M387.664 630.545C386.674 630.545 385.668 630.386 384.709 630.082C382.25 629.284 380.254 627.591 379.072 625.292C377.89 622.992 377.683 620.373 378.481 617.93C379.759 613.938 383.448 611.255 387.648 611.255C388.654 611.255 389.644 611.415 390.618 611.734C393.077 612.533 395.074 614.225 396.255 616.525C397.421 618.824 397.629 621.427 396.83 623.87C395.553 627.863 391.864 630.545 387.664 630.545ZM387.664 615.838C385.46 615.838 383.544 617.244 382.873 619.335C382.458 620.629 382.553 622.002 383.176 623.2C383.799 624.413 384.837 625.308 386.131 625.707C388.75 626.537 391.656 625.036 392.487 622.433C392.902 621.156 392.79 619.783 392.183 618.601C391.576 617.387 390.522 616.493 389.229 616.078C388.702 615.918 388.191 615.838 387.664 615.838Z" fill="white"/>
<path d="M333.591 604.883C331.547 604.883 329.598 604.245 327.953 603.047C325.861 601.546 324.488 599.31 324.073 596.756C323.658 594.201 324.264 591.662 325.782 589.57C327.602 587.063 330.524 585.578 333.607 585.578C335.635 585.578 337.599 586.216 339.244 587.414C341.336 588.931 342.709 591.167 343.125 593.722C343.524 596.261 342.917 598.8 341.4 600.875C339.611 603.382 336.689 604.883 333.591 604.883ZM333.623 590.177C332.01 590.177 330.461 590.959 329.502 592.268C328.72 593.354 328.401 594.696 328.608 596.037C328.816 597.378 329.55 598.544 330.636 599.326C332.824 600.907 336.114 600.364 337.695 598.177C338.493 597.091 338.813 595.766 338.605 594.44C338.398 593.099 337.679 591.917 336.577 591.135C335.699 590.512 334.677 590.177 333.623 590.177Z" fill="white"/>
<path d="M287.519 564.819C284.453 564.819 281.547 563.334 279.726 560.859C278.209 558.799 277.586 556.244 277.97 553.705C278.369 551.15 279.726 548.898 281.818 547.381C283.495 546.168 285.459 545.529 287.519 545.529C290.586 545.529 293.492 547.014 295.313 549.489C296.83 551.581 297.437 554.136 297.037 556.675C296.638 559.214 295.265 561.449 293.189 562.966C291.544 564.164 289.58 564.819 287.519 564.819ZM287.519 550.112C286.45 550.112 285.412 550.447 284.517 551.086C283.431 551.868 282.713 553.05 282.505 554.391C282.297 555.733 282.617 557.058 283.415 558.144C285.012 560.332 288.286 560.858 290.474 559.246C291.576 558.447 292.294 557.282 292.502 555.94C292.71 554.599 292.39 553.258 291.592 552.172C290.65 550.862 289.164 550.112 287.519 550.112Z" fill="white"/>
<path d="M257.955 514.55C253.787 514.55 250.114 511.884 248.804 507.923C248.006 505.48 248.197 502.861 249.363 500.562C250.529 498.262 252.525 496.554 254.969 495.755C255.943 495.436 256.949 495.276 257.971 495.276C262.155 495.276 265.828 497.943 267.137 501.919C267.936 504.378 267.728 506.997 266.578 509.297C265.413 511.596 263.416 513.305 260.973 514.087C259.999 514.391 258.977 514.55 257.955 514.55ZM257.971 499.843C257.428 499.843 256.901 499.923 256.39 500.099C255.112 500.514 254.074 501.408 253.467 502.622C252.861 503.835 252.749 505.209 253.164 506.486C254.026 509.073 256.933 510.574 259.552 509.712C260.845 509.297 261.883 508.402 262.49 507.205C263.097 506.007 263.209 504.618 262.794 503.324C262.107 501.249 260.159 499.843 257.971 499.843Z" fill="white"/>
<path d="M351.795 352.678C345.024 352.678 339.706 350.155 339.371 349.995L341.367 345.86C341.463 345.907 351.668 350.682 360.627 346.019C367.526 342.442 372.093 334.219 374.217 321.604L378.736 322.354C376.373 336.486 370.975 345.828 362.703 350.107C358.998 352.039 355.213 352.678 351.795 352.678Z" fill="white"/>
<path d="M393.461 332.063C382.618 332.063 374.809 324.175 374.441 323.807L377.731 320.598C377.811 320.678 385.748 328.662 395.777 327.304C403.49 326.282 410.581 320.119 416.873 308.973L420.865 311.224C413.822 323.711 405.566 330.658 396.32 331.855C395.346 331.999 394.403 332.063 393.461 332.063Z" fill="white"/>
<path d="M439.068 326.714C437.408 326.714 435.763 326.538 434.166 326.171C422.061 323.488 416.567 311.639 416.344 311.144L420.528 309.26L418.436 310.202L420.528 309.244C420.576 309.356 425.335 319.544 435.204 321.7C442.805 323.36 451.573 319.975 461.282 311.639L464.269 315.121C455.294 322.833 446.846 326.714 439.068 326.714Z" fill="white"/>
<path d="M485.494 337.429C480.192 337.429 475.577 336.199 471.681 333.724C461.204 327.065 460.087 314.067 460.055 313.508L464.638 313.157C464.638 313.269 465.644 324.478 474.188 329.876C480.767 334.027 490.157 333.852 502.135 329.317L503.764 333.612C496.976 336.151 490.876 337.429 485.494 337.429Z" fill="white"/>
<path d="M533.418 364.384C519.684 364.384 509.927 360.743 504.385 353.573C496.8 343.752 500.185 331.153 500.329 330.61L504.753 331.84C504.721 331.952 501.846 342.826 508.042 350.81C512.817 356.958 521.68 359.912 534.504 359.801L534.568 364.384C534.185 364.384 533.801 364.384 533.418 364.384Z" fill="white"/>
<path d="M553.061 403.809C539.503 399.115 531.199 392.248 528.356 383.37C524.571 371.569 532.045 360.854 532.365 360.407L536.102 363.074C536.038 363.17 529.634 372.415 532.732 382.013C535.111 389.422 542.457 395.298 554.546 399.482L553.061 403.809Z" fill="white"/>
<path d="M557.003 447.195C545.857 438.173 540.395 428.88 540.746 419.57C541.225 407.179 551.877 399.657 552.34 399.354L554.943 403.123C554.848 403.186 545.681 409.702 545.314 419.778C545.042 427.554 549.929 435.57 559.878 443.618L557.003 447.195Z" fill="white"/>
<path d="M545.936 489.336C538.543 477.057 536.562 466.453 540.06 457.831C544.723 446.333 557.323 442.9 557.866 442.756L559.032 447.196L558.457 444.976L559.048 447.196C558.936 447.228 548.092 450.214 544.324 459.587C541.401 466.805 543.285 476.019 549.881 486.973L545.936 489.336Z" fill="white"/>
<path d="M521.17 525.17C518.407 511.117 520.148 500.466 526.392 493.568C534.696 484.354 547.711 485.424 548.254 485.472L547.839 490.039C547.727 490.023 536.5 489.161 529.761 496.666C524.571 502.462 523.182 511.74 525.657 524.291L521.17 525.17Z" fill="white"/>
<path d="M490.219 551.15L485.684 550.463C487.871 536.299 493.141 526.894 501.35 522.502C512.305 516.658 524.17 522.087 524.681 522.327L522.733 526.478C522.621 526.431 512.369 521.784 503.474 526.558C496.623 530.231 492.167 538.503 490.219 551.15Z" fill="white"/>
<path d="M447.724 564.308L443.699 562.104C450.582 549.537 458.743 542.495 467.957 541.186C480.254 539.445 489.564 548.579 489.947 548.962L486.705 552.204L488.334 550.591L486.721 552.22C486.641 552.14 478.577 544.268 468.58 545.737C460.867 546.838 453.856 553.082 447.724 564.308Z" fill="white"/>
<path d="M444.066 564.1C444.018 564.004 439.116 553.864 429.231 551.836C421.613 550.256 412.894 553.769 403.296 562.216L400.262 558.783C411.009 549.313 421.086 545.465 430.205 547.365C442.342 549.888 447.979 561.673 448.218 562.168L444.066 564.1Z" fill="white"/>
<path d="M399.928 560.763C399.912 560.651 398.762 549.458 390.154 544.172C383.527 540.1 374.137 540.403 362.224 545.098L360.547 540.835C373.881 535.581 384.661 535.405 392.598 540.292C403.154 546.807 404.447 559.805 404.495 560.348L399.928 560.763Z" fill="white"/>
<path d="M363.978 543.772L359.539 542.607C359.571 542.495 362.301 531.573 356.009 523.684C351.171 517.6 342.244 514.678 329.452 515.045L329.324 510.462C343.665 510.095 353.838 513.576 359.619 520.874C367.348 530.583 364.122 543.23 363.978 543.772Z" fill="white"/>
<path d="M331.559 514.375L327.79 511.772C327.854 511.676 334.13 502.35 330.921 492.769C328.445 485.392 321.035 479.611 308.898 475.587L310.352 471.228C323.958 475.747 332.342 482.518 335.296 491.348C339.209 503.117 331.879 513.912 331.559 514.375Z" fill="white"/>
<path d="M311.105 475.699L308.438 471.963C308.534 471.899 317.621 465.256 317.844 455.164C318.02 447.387 313.021 439.419 302.977 431.499L305.819 427.89C317.062 436.768 322.651 445.998 322.428 455.307C322.124 467.731 311.552 475.38 311.105 475.699Z" fill="white"/>
<path d="M305.034 432.361L303.805 427.938C303.916 427.906 314.728 424.76 318.385 415.355C321.196 408.105 319.215 398.923 312.476 388.049L316.373 385.622C323.926 397.805 326.034 408.377 322.649 417.047C318.113 428.609 305.561 432.201 305.034 432.361Z" fill="white"/>
<path d="M315.432 389.582C314.665 389.582 314.186 389.55 314.074 389.534L314.426 384.967C314.537 384.967 325.764 385.701 332.423 378.1C337.534 372.24 338.795 362.93 336.16 350.427L340.648 349.485C343.586 363.505 341.973 374.156 335.841 381.15C329.102 388.831 319.073 389.582 315.432 389.582Z" fill="white"/>
</g>
</svg>
