<svg width="224" height="176" viewBox="0 0 224 176" fill="none" xmlns="http://www.w3.org/2000/svg">
<g id="Group 114">
<path id="Vector" d="M64.5195 169.66L65.5995 169.5L70.1895 156.39H73.2895L77.8495 169.5L78.9295 169.66V171.47H73.7895V169.66L74.8395 169.47L74.1795 167.4H69.2895L68.6295 169.47L69.6795 169.66V171.47H64.5395V169.66H64.5195ZM69.9895 165.18H73.4495L71.7495 159.87H71.6895L69.9895 165.18Z" fill="#20B07B"/>
<path id="Vector_2" d="M85.2503 169.37C85.7903 169.37 86.2203 169.21 86.5403 168.9C86.8603 168.59 87.0303 168.17 87.0303 167.64H89.7603L89.7903 167.7C89.8203 168.83 89.3903 169.78 88.5203 170.54C87.6403 171.3 86.5503 171.69 85.2503 171.69C83.5803 171.69 82.2903 171.16 81.3903 170.11C80.4903 169.05 80.0303 167.7 80.0303 166.04V165.73C80.0303 164.08 80.4903 162.72 81.4203 161.66C82.3503 160.6 83.6703 160.06 85.3903 160.06C86.2903 160.06 87.1103 160.19 87.8203 160.46C88.5303 160.73 89.1403 161.11 89.6103 161.6L89.6503 164.59H87.1903L86.6903 162.84C86.5403 162.71 86.3503 162.6 86.1303 162.51C85.9103 162.42 85.6603 162.38 85.3703 162.38C84.5103 162.38 83.9103 162.69 83.5603 163.31C83.2103 163.93 83.0303 164.73 83.0303 165.71V166.02C83.0303 167.02 83.1903 167.83 83.5203 168.44C83.8703 169.07 84.4403 169.37 85.2503 169.37Z" fill="#20B07B"/>
<path id="Vector_3" d="M98.3095 171.48C98.2295 171.29 98.1495 171.1 98.0895 170.91C98.0295 170.71 97.9795 170.51 97.9395 170.31C97.5795 170.72 97.1395 171.06 96.6295 171.31C96.1195 171.57 95.5295 171.69 94.8595 171.69C93.7595 171.69 92.8895 171.39 92.2395 170.79C91.5895 170.19 91.2695 169.38 91.2695 168.35C91.2695 167.3 91.6895 166.49 92.5295 165.92C93.3695 165.35 94.6095 165.06 96.2395 165.06H97.7795V163.96C97.7795 163.42 97.6195 163 97.3095 162.71C96.9995 162.41 96.5395 162.26 95.9295 162.26C95.5795 162.26 95.2795 162.3 95.0095 162.38C94.7395 162.46 94.5195 162.55 94.3595 162.66L94.1595 163.86H91.8995L91.9095 161.37C92.4595 161 93.0995 160.68 93.8095 160.43C94.5195 160.17 95.2995 160.05 96.1495 160.05C97.5395 160.05 98.6695 160.39 99.5295 161.07C100.4 161.75 100.83 162.72 100.83 163.98V168.61C100.83 168.78 100.83 168.94 100.84 169.1C100.84 169.25 100.86 169.4 100.88 169.54L101.8 169.66V171.47H98.3095V171.48ZM95.6895 169.46C96.1495 169.46 96.5595 169.36 96.9295 169.16C97.2995 168.96 97.5895 168.72 97.7995 168.42V166.71H96.2595C95.6195 166.71 95.1295 166.86 94.7995 167.16C94.4695 167.46 94.2995 167.82 94.2995 168.24C94.2995 168.62 94.4195 168.92 94.6695 169.13C94.9095 169.35 95.2495 169.46 95.6895 169.46Z" fill="#20B07B"/>
<path id="Vector_4" d="M110.12 170.11C109.77 170.63 109.35 171.02 108.87 171.29C108.39 171.56 107.84 171.69 107.23 171.69C105.85 171.69 104.78 171.19 104.01 170.18C103.25 169.17 102.86 167.84 102.86 166.18V165.96C102.86 164.19 103.24 162.77 104.01 161.68C104.78 160.59 105.85 160.05 107.24 160.05C107.8 160.05 108.3 160.17 108.75 160.42C109.2 160.67 109.59 161.01 109.93 161.46V157.44L108.31 157.13V155.31H109.93H112.95V169.35L114.4 169.66V171.47H110.33L110.12 170.11ZM105.89 166.18C105.89 167.16 106.05 167.93 106.38 168.5C106.71 169.06 107.25 169.34 107.99 169.34C108.43 169.34 108.82 169.25 109.14 169.07C109.46 168.89 109.73 168.63 109.94 168.29V163.54C109.73 163.18 109.47 162.9 109.15 162.71C108.83 162.51 108.45 162.41 108.02 162.41C107.28 162.41 106.74 162.74 106.4 163.39C106.06 164.05 105.89 164.9 105.89 165.96V166.18Z" fill="#20B07B"/>
<path id="Vector_5" d="M120.74 171.69C119.12 171.69 117.83 171.17 116.87 170.14C115.9 169.1 115.42 167.79 115.42 166.19V165.78C115.42 164.12 115.88 162.74 116.79 161.67C117.71 160.59 118.93 160.06 120.47 160.06C121.98 160.06 123.16 160.52 123.99 161.43C124.83 162.34 125.24 163.57 125.24 165.13V166.78H118.55L118.53 166.84C118.59 167.58 118.83 168.19 119.27 168.66C119.71 169.14 120.3 169.37 121.06 169.37C121.73 169.37 122.29 169.3 122.73 169.17C123.17 169.04 123.66 168.82 124.18 168.53L125 170.39C124.54 170.76 123.94 171.06 123.2 171.31C122.46 171.56 121.65 171.69 120.74 171.69ZM120.47 162.39C119.91 162.39 119.47 162.6 119.14 163.03C118.81 163.46 118.62 164.02 118.54 164.72L118.57 164.77H122.28V164.5C122.28 163.86 122.13 163.34 121.83 162.96C121.54 162.58 121.08 162.39 120.47 162.39Z" fill="#20B07B"/>
<path id="Vector_6" d="M126.33 162.09V160.27H130.75L130.87 161.75C131.23 161.21 131.68 160.8 132.22 160.5C132.76 160.21 133.39 160.06 134.1 160.06C134.82 160.06 135.43 160.22 135.94 160.54C136.45 160.86 136.84 161.34 137.1 161.98C137.45 161.38 137.89 160.91 138.45 160.57C139 160.23 139.65 160.06 140.4 160.06C141.5 160.06 142.38 160.44 143.02 161.2C143.66 161.96 143.98 163.13 143.98 164.69V169.35L145.44 169.66V171.47H139.65V169.66L140.96 169.35V164.68C140.96 163.83 140.82 163.24 140.55 162.91C140.27 162.58 139.86 162.41 139.32 162.41C138.89 162.41 138.52 162.5 138.21 162.69C137.9 162.88 137.65 163.14 137.46 163.48C137.46 163.61 137.46 163.72 137.47 163.82C137.48 163.92 137.48 164.01 137.48 164.1V169.34L138.7 169.65V171.46H133.24V169.65L134.46 169.34V164.67C134.46 163.84 134.32 163.26 134.05 162.91C133.77 162.57 133.36 162.4 132.81 162.4C132.4 162.4 132.04 162.48 131.74 162.63C131.43 162.79 131.18 163 130.98 163.29V169.34L132.29 169.65V171.46H126.51V169.65L127.97 169.34V162.39L126.33 162.09Z" fill="#20B07B"/>
<path id="Vector_7" d="M158.02 162.09L156.97 162.25L152.85 173.16C152.53 173.97 152.09 174.64 151.55 175.19C151.01 175.74 150.19 176.01 149.1 176.01C148.84 176.01 148.6 175.99 148.38 175.95C148.16 175.91 147.89 175.85 147.59 175.77L147.94 173.56C148.04 173.57 148.14 173.59 148.24 173.6C148.34 173.61 148.43 173.62 148.51 173.62C149.01 173.62 149.4 173.5 149.67 173.25C149.94 173 150.15 172.7 150.29 172.33L150.63 171.48L147.08 162.25L146.03 162.08V160.26H151.52V162.08L150.27 162.29L151.8 166.77L151.96 167.58L152.02 167.59L153.79 162.3L152.53 162.09V160.27H158.02V162.09Z" fill="#20B07B"/>
<path id="Vector_8" d="M33.03 111.39V115.3L29.57 115.97V143.72H23.11L10.06 121.97L9.93 121.99V139.17L13.39 139.84V143.72H0V139.84L3.44 139.17V115.97L0 115.3V111.39H3.44H9.92L22.97 133.14L23.1 133.12V115.96L19.64 115.29V111.38H29.56H33.03V111.39Z" fill="#20B07B"/>
<path id="Vector_9" d="M46.7704 144.18C43.3104 144.18 40.5404 143.07 38.4704 140.85C36.4004 138.63 35.3604 135.81 35.3604 132.39V131.5C35.3604 127.93 36.3404 125 38.3004 122.69C40.2604 120.38 42.8903 119.23 46.1903 119.25C49.4303 119.25 51.9504 120.23 53.7404 122.18C55.5304 124.13 56.4304 126.77 56.4304 130.1V133.63H42.0904L42.0504 133.76C42.1704 135.34 42.7004 136.65 43.6404 137.67C44.5804 138.69 45.8604 139.2 47.4704 139.2C48.9104 139.2 50.1004 139.06 51.0404 138.77C51.9904 138.48 53.0204 138.03 54.1504 137.41L55.9004 141.41C54.9104 142.19 53.6204 142.85 52.0504 143.39C50.4804 143.93 48.7104 144.18 46.7704 144.18ZM46.1903 124.25C44.9903 124.25 44.0403 124.71 43.3503 125.63C42.6503 126.55 42.2304 127.75 42.0604 129.25L42.1304 129.36H50.0804V128.78C50.0804 127.4 49.7604 126.3 49.1104 125.48C48.4704 124.66 47.5003 124.25 46.1903 124.25Z" fill="#20B07B"/>
<path id="Vector_10" d="M59 123.6V119.69H68.41L68.72 122.49C69.43 121.45 70.28 120.66 71.27 120.09C72.26 119.53 73.42 119.25 74.73 119.25C77.7 119.25 80.01 120.41 81.66 122.74C83.3 125.06 84.12 128.12 84.12 131.91V132.38C84.12 135.93 83.3 138.79 81.66 140.95C80.02 143.11 77.72 144.19 74.78 144.19C73.52 144.19 72.4 143.96 71.43 143.49C70.45 143.02 69.62 142.34 68.92 141.44V148.39L72.05 149.06V152.97H59.34V149.06L62.47 148.39V124.28L59 123.6ZM77.65 131.9C77.65 129.64 77.27 127.8 76.52 126.39C75.77 124.98 74.61 124.28 73.06 124.28C72.08 124.28 71.25 124.48 70.56 124.88C69.87 125.28 69.33 125.85 68.93 126.59V137.11C69.33 137.79 69.87 138.31 70.56 138.66C71.25 139.02 72.1 139.19 73.1 139.19C74.67 139.19 75.82 138.58 76.55 137.35C77.28 136.12 77.65 134.46 77.65 132.36V131.9Z" fill="#20B07B"/>
<path id="Vector_11" d="M102.31 143.71C102.13 143.31 101.98 142.9 101.84 142.48C101.71 142.06 101.6 141.63 101.53 141.2C100.76 142.09 99.82 142.81 98.72 143.35C97.62 143.9 96.36 144.17 94.93 144.17C92.58 144.17 90.71 143.53 89.33 142.25C87.95 140.97 87.25 139.23 87.25 137.02C87.25 134.77 88.15 133.03 89.96 131.8C91.77 130.57 94.41 129.96 97.91 129.96H101.22V127.61C101.22 126.46 100.89 125.56 100.22 124.92C99.55 124.28 98.57 123.97 97.27 123.97C96.53 123.97 95.87 124.06 95.29 124.23C94.71 124.4 94.25 124.6 93.89 124.84L93.47 127.41H88.59L88.61 122.08C89.79 121.28 91.15 120.61 92.68 120.06C94.21 119.51 95.88 119.24 97.69 119.24C100.66 119.24 103.08 119.97 104.94 121.43C106.8 122.89 107.73 124.96 107.73 127.66V137.58C107.73 137.95 107.73 138.3 107.74 138.62C107.75 138.95 107.77 139.26 107.82 139.55L109.8 139.82V143.7H102.31V143.71ZM96.7 139.38C97.68 139.38 98.56 139.17 99.36 138.75C100.16 138.33 100.78 137.8 101.22 137.16V133.5H97.91C96.53 133.5 95.49 133.82 94.78 134.47C94.07 135.12 93.71 135.89 93.71 136.79C93.71 137.6 93.97 138.24 94.5 138.7C95.03 139.16 95.76 139.38 96.7 139.38Z" fill="#20B07B"/>
<path id="Vector_12" d="M111.3 112.99V109.08H121.24V139.16L124.37 139.83V143.71H111.63V139.83L114.76 139.16V113.65L111.3 112.99Z" fill="#20B07B"/>
<path id="Vector_13" fill-rule="evenodd" clip-rule="evenodd" d="M179.79 123.95C178.96 123.1 177.85 122.67 176.44 122.67C175.09 122.67 173.58 122.99 171.93 123.63C170.28 124.27 168.31 125.28 166.03 126.67L166.14 127.7C164.27 130.33 163.33 132.73 163.33 134.91C163.33 136.28 163.78 137.42 164.67 138.34C165.57 139.26 166.64 139.72 167.91 139.72C169.26 139.72 170.85 139.27 172.68 138.38C174.51 137.49 176.07 136.41 177.37 135.14C179.81 132.75 181.03 130.17 181.03 127.38C181.02 125.95 180.61 124.8 179.79 123.95ZM177.03 132.7C176.09 134.2 174.51 135.37 172.29 136.22C171.46 136.53 170.75 136.68 170.16 136.69C169.58 136.7 169.03 136.54 168.52 136.23C167.81 135.78 167.27 135.18 166.91 134.41C166.55 133.64 166.39 132.83 166.43 131.95C166.47 131.08 166.73 130.25 167.21 129.48C167.84 128.47 168.83 127.58 170.17 126.8C171.51 126.03 175.19 125.62 175.6 125.88C176.79 126.62 177.52 127.64 177.79 128.92C178.06 130.21 177.8 131.47 177.03 132.7Z" fill="#F57E20"/>
<path id="Vector_14" fill-rule="evenodd" clip-rule="evenodd" d="M200.46 136.92L198.56 137.73C199.3 135.52 199.56 133.94 199.34 133C199.12 132.05 198.62 131.58 197.85 131.58C197.5 131.58 197 131.72 196.35 131.99C195.7 132.26 194.87 132.65 193.85 133.15C192.83 133.65 191.9 134.05 191.06 134.36C190.22 134.67 189.5 134.82 188.9 134.82C187.9 134.82 187.43 134.4 187.5 133.57C187.57 132.73 187.94 131.76 188.61 130.65C189.28 129.54 189.95 128.57 190.64 127.75C191.5 126.73 192.24 125.95 192.87 125.4C193.49 124.85 194.16 124.42 194.86 124.08C195.51 124.64 195.66 125.33 195.31 126.14C194.96 126.95 194.45 127.69 193.78 128.36L194.04 128.89L195.54 128.07C197.33 127.16 198.57 126.36 199.26 125.67C199.95 124.98 200.3 124.24 200.3 123.43C200.3 122.39 199.81 121.87 198.83 121.87C197.88 121.87 196.6 122.27 194.97 123.07C193.35 123.87 191.68 124.95 189.98 126.3C188.56 127.44 187.33 128.58 186.3 129.73C185.27 130.88 184.47 131.97 183.89 133.04C183.31 134.1 183.02 135.02 183.02 135.79C183.02 136.37 183.22 136.84 183.61 137.2C184.01 137.56 184.49 137.74 185.07 137.74C185.81 137.74 186.59 137.58 187.4 137.27C188.22 136.95 189.46 136.45 191.14 135.76C192.82 135.07 193.9 134.72 194.39 134.72C194.65 134.72 194.88 134.78 195.07 134.89C195.26 135 195.39 135.33 195.44 135.87C195.49 136.41 195.4 137.27 195.15 138.47L194.94 139.52C192.04 141.21 189.71 142.83 187.96 144.4C186.2 145.96 184.97 147.36 184.25 148.58C183.53 149.8 183.17 150.78 183.17 151.52C183.17 151.96 183.32 152.3 183.62 152.55C183.92 152.8 184.31 152.92 184.81 152.92C185.71 152.92 187.01 152.42 188.74 151.43C190.46 150.44 191.8 149.4 192.74 148.33C194.85 146.03 196.66 142.86 198.19 138.84L200.61 137.71L200.46 136.92ZM191.61 147.37C190.49 149.18 189.56 150.09 188.84 150.09C188.47 150.09 188.16 149.95 187.92 149.68C187.68 149.41 187.55 149.06 187.55 148.64C187.55 147.5 188.21 146.19 189.53 144.72C190.85 143.25 192.51 141.95 194.51 140.8C193.95 142.95 192.98 145.14 191.61 147.37Z" fill="#F57E20"/>
<path id="Vector_15" fill-rule="evenodd" clip-rule="evenodd" d="M223.65 138.66C222.77 138.84 222 138.71 221.34 138.29C220.68 137.87 220.19 137.25 219.86 136.43C219.54 135.61 219.37 134.7 219.37 133.68C219.37 132.38 219.66 130.75 220.24 128.78L220.77 126.83C220.23 127.1 219.67 127.28 219.11 127.37C219.57 125.79 219.78 124.51 219.76 123.53C219.73 122.55 219.56 121.84 219.23 121.4C218.91 120.96 218.54 120.74 218.14 120.74C216.86 120.74 214.75 121.86 211.83 124.09C210.57 125.09 209.37 126.18 208.23 127.37C207.1 128.56 206.13 129.75 205.32 130.95C204.51 132.15 203.9 133.3 203.49 134.39C203.08 135.48 202.87 136.52 202.87 137.53C202.87 138.23 203.05 138.79 203.41 139.22C203.77 139.64 204.26 139.85 204.87 139.85C206.06 139.85 207.47 139.31 209.08 138.23C210.7 137.15 212.55 135.73 214.64 133.97L215.77 133.05C215.63 134.03 215.54 135.12 215.51 136.29C215.54 138.01 215.8 139.28 216.27 140.09C216.74 140.9 217.47 141.3 218.45 141.3C219.17 141.3 220.23 140.9 221.63 140.11L223.79 139.03L223.65 138.66ZM217.24 128.04C216.92 130.07 215.05 131.61 213.59 132.64C212.32 133.77 211.11 134.63 209.97 135.23C208.83 135.82 207.9 136.06 207.19 135.95C206.74 135.88 206.4 135.69 206.17 135.38C205.94 135.07 205.87 134.67 205.95 134.18C206.09 133.28 206.51 132.25 207.19 131.08C207.87 129.92 208.7 128.79 209.69 127.69C210.68 126.59 211.77 125.59 212.98 124.68C213.56 124.27 214.02 124.01 214.36 123.9C214.7 123.78 215.1 123.76 215.57 123.84C217.08 124.07 217.64 125.48 217.24 128.04Z" fill="#F57E20"/>
<path id="Vector_16" fill-rule="evenodd" clip-rule="evenodd" d="M160.48 123.32C160.24 124.61 159.9 125.64 159.46 126.41C159.02 127.18 158.38 127.9 157.54 128.55C156.7 129.2 155.38 130.02 153.58 131.01L158.46 112.69C158.52 112.5 158.59 112.28 158.68 112.02C158.77 111.76 158.86 111.55 158.93 111.4L161.46 106.94C161.91 106.17 162.31 105.25 162.65 104.18C163 103.1 163.17 102.3 163.17 101.75L162.89 101.36L162.78 101.42C162.72 101.46 162.32 101.74 161.57 102.26C160.82 102.78 160.07 103.34 159.33 103.94L158.57 104.52L157.36 107.38L155.82 111.59C155.09 113.46 154.46 114.85 153.93 115.77C153.4 116.69 152.15 118.24 150.18 120.43L141.57 129.32L141.12 129.57C140.69 129.57 140.4 129.04 140.25 127.97C140.1 126.9 139.95 124.98 139.8 122.21C139.65 119.43 139.44 116.94 139.15 114.72C138.87 112.5 138.41 110.48 137.78 108.65C136.99 106.39 135.89 104.63 134.47 103.36C133.05 102.1 131.47 101.47 129.73 101.47C122.44 101.47 120.3 106.28 120.3 106.28C121.07 105.7 121.81 105.28 122.53 105.02C123.25 104.76 124.04 104.63 124.9 104.63C126.88 104.63 128.6 105.38 130.06 106.88C131.52 108.38 132.59 110.46 133.28 113.14C133.69 114.54 134.01 115.98 134.25 117.45C134.48 118.92 134.7 120.7 134.91 122.8L135.08 127.35C135.1 129.69 135.24 131.36 135.5 132.38C135.76 133.39 136.21 133.9 136.85 133.9C137.21 133.9 137.97 133.46 139.15 132.58C140.33 131.7 141.63 130.63 143.05 129.36C144.47 128.1 145.49 127.16 146.11 126.54C147.36 125.3 148.46 124.19 149.41 123.18C150.35 122.18 151.59 120.77 153.13 118.95L153.24 119.06L148.86 133.66L146.62 134.87C143.48 136.54 140.62 138.17 138.05 139.78C135.48 141.39 133.28 143.09 131.45 144.89C129.62 146.69 128.7 148.41 128.7 150.06C128.7 150.94 128.99 151.64 129.58 152.15C130.17 152.66 130.99 152.92 132.03 152.92C134.1 152.92 136.35 152.21 138.76 150.79C140.87 149.61 142.74 148.26 144.36 146.72C145.98 145.19 147.33 143.63 148.41 142.04C149.5 140.45 150.37 138.93 151.05 137.47C151.72 136.01 152.45 134.27 153.24 132.25L155.37 131.1C160.8 128.22 163.51 126.01 163.51 124.48C163.51 123.84 162.5 123.45 160.48 123.32ZM144.31 143.91C143.04 146.02 141.91 147.48 140.91 148.28C139.92 149.08 138.76 149.47 137.43 149.47C136.48 149.47 135.72 149.27 135.16 148.88C134.6 148.49 134.32 147.93 134.32 147.22C134.32 145.84 135.03 144.41 136.45 142.95C137.87 141.49 139.56 140.13 141.51 138.88C143.46 137.63 145.78 136.29 148.46 134.87C147.4 138.02 146.02 141.03 144.31 143.91Z" fill="#F57E20"/>
<path id="Vector_17" d="M120.67 87.1999C118.53 87.8099 120.07 84.3899 118.75 81.4999C117.72 78.6599 119.81 72.4399 120.59 70.6199C121.37 68.8099 121.81 64.8599 121.81 64.8599C124.62 60.8599 126.9 49.8699 127.09 48.6799C127.28 47.4899 125.87 46.9799 125.14 46.6799C124.41 46.3799 121.79 44.8699 120.46 44.0299C119.13 43.1899 115.81 42.2199 114.94 41.4299C114.07 40.6499 113.75 38.3699 113.72 37.5299C113.69 36.6899 113.22 35.6699 113.04 35.1599C112.73 34.2799 111.81 34.4299 111.81 34.4299C111.81 34.4299 111.03 34.2899 110.72 35.1599C110.54 35.6799 110.07 36.6899 110.04 37.5299C110.01 38.3699 109.69 40.6399 108.82 41.4299C107.95 42.2099 104.63 43.1899 103.3 44.0299C101.97 44.8699 99.3503 46.3799 98.6203 46.6799C97.8903 46.9799 96.4803 47.4899 96.6703 48.6799C96.8603 49.8699 99.1303 60.8499 101.94 64.8599C101.94 64.8599 102.37 68.8099 103.16 70.6199C103.94 72.4299 106.03 78.6599 105 81.4999C103.67 84.3899 105.21 87.7999 103.08 87.1999C93.3603 83.7699 86.9003 87.3799 88.9403 90.6099C90.9803 93.8299 94.9003 93.4399 99.0003 93.9199L100.33 94.0699C101.56 94.1699 103.18 94.2699 104.53 94.2499C107.09 94.1999 109.36 92.7399 113.14 91.4299C116.92 90.1099 120.29 90.9199 120.29 90.9199C120.12 88.6899 113.77 87.9499 113.77 87.9499C113.77 87.9499 116.86 87.2599 119.49 88.5199C122.12 89.7799 121.89 91.0899 121.84 91.3799C121.78 91.6699 117.14 91.0399 114.98 91.6099C113.02 92.1299 109.43 93.8799 109.25 94.6099C115.74 94.6999 122.69 94.1899 124.73 93.9299C124.73 93.9299 132.76 93.8399 134.8 90.6199C134.9 90.4599 134.98 90.2999 135.05 90.1499C136.36 87.0399 129.92 83.9399 120.67 87.1999ZM116.24 61.8299C115.95 61.8499 115.62 61.8299 115.42 61.7399C114.08 60.9899 114.32 57.0899 115.03 57.0899C116.31 57.0899 117.13 54.3799 115.95 54.1599C115.95 54.1599 117.99 46.7499 111.83 46.7499C105.67 46.7499 107.81 54.1599 107.81 54.1599C106.63 54.3799 107.45 57.0899 108.73 57.0899C109.44 57.0899 109.68 60.9899 108.34 61.7399C108.14 61.8299 107.82 61.8599 107.52 61.8299C106.41 61.7499 106.11 61.0499 105.79 60.3999C105.47 59.7499 104.52 58.5599 104.03 58.2399C103.54 57.9199 102.49 56.2899 102.22 54.9899C101.95 53.6899 100.73 51.6899 100.62 50.7399C100.51 49.7899 102.22 48.1699 104.06 46.8199C105.9 45.4699 109.2 43.6299 109.93 43.1999C110.66 42.7699 110.62 43.1899 111.32 42.9999C111.54 42.9399 111.79 42.7799 111.87 42.5499H111.9C111.98 42.7799 112.11 42.9399 112.33 42.9999C113.03 43.1899 113.09 42.7699 113.82 43.1999C114.55 43.6299 117.85 45.4699 119.69 46.8199C121.53 48.1699 123.23 49.7999 123.13 50.7399C123.02 51.6899 121.8 53.6899 121.53 54.9899C121.26 56.2899 120.2 57.9099 119.72 58.2399C119.23 58.5599 118.29 59.7499 117.96 60.3999C117.64 61.0499 117.35 61.7499 116.24 61.8299Z" fill="#20B07B"/>
<path id="Vector_18" d="M69.4999 42.5297C67.1599 57.1897 73.8299 76.8298 91.0399 83.5098C87.8099 83.2398 84.1799 80.2597 81.1499 78.7697C71.6399 74.1197 63.1799 53.9998 66.0299 39.6497C69.3399 15.8197 89.0799 -0.800252 112.83 0.0297481C131.92 0.699748 147.91 12.8797 154.32 29.6697C159.44 42.6497 158.22 64.0397 143.87 76.1397C144.01 75.8597 144.55 75.1797 144.84 74.8097C142.95 75.8097 142.29 76.6197 141.14 76.9197C155.68 62.3197 157.1 44.8297 151.19 31.5297C150.71 30.4597 150.61 30.6197 149.9 29.5597C153.43 39.7097 155.6 51.0497 147.66 64.8797C153.32 49.9997 152.91 40.2297 148.57 28.6097L148.16 27.8497L146.23 24.3797C139.23 13.0997 126.92 5.16975 112.65 4.91975C74.2099 4.22975 69.4999 42.5297 69.4999 42.5297Z" fill="#F57E20"/>
<path id="Vector_19" fill-rule="evenodd" clip-rule="evenodd" d="M121.59 42.5097C120.79 36.8697 115.68 29.7397 115.03 20.0597C106.45 25.4697 103.46 34.0797 102.52 40.7397C101.81 41.0297 101.11 41.3197 100.54 41.5997C100.42 34.4897 103.19 23.9897 116.73 13.6797C117.5 28.4697 124.08 37.6197 122.9 43.2897L121.59 42.5097Z" fill="#F57E20"/>
<path id="Vector_20" fill-rule="evenodd" clip-rule="evenodd" d="M99.6903 31.8899C97.4403 30.4499 95.1802 28.7399 93.0902 26.5699C90.8302 33.6199 91.9502 40.0599 94.1002 45.2399C93.4402 45.5099 92.4803 45.8699 91.9703 46.5099C89.1803 40.7199 87.6302 32.3599 90.2802 20.5999C93.8102 24.3899 97.4403 27.1899 100.79 29.4499C100.36 30.2799 100 31.0899 99.6903 31.8899Z" fill="#F57E20"/>
<path id="Vector_21" fill-rule="evenodd" clip-rule="evenodd" d="M74.3896 39.6497C77.2796 42.1097 88.4397 47.0097 91.7597 48.3897C91.8997 49.1197 92.1596 50.3197 92.4996 51.7697C89.5396 50.7397 81.4896 47.5197 79.4596 46.3897C82.6096 57.0097 89.6896 61.0197 95.5896 64.7097L96.3396 65.6797C96.9096 66.4197 97.3697 67.5097 97.7197 68.8297C89.0497 64.6797 75.6196 56.0497 74.3896 39.6497Z" fill="#F57E20"/>
<path id="Vector_22" fill-rule="evenodd" clip-rule="evenodd" d="M122.79 31.8899C125.04 30.4499 127.3 28.7399 129.39 26.5699C131.65 33.6199 130.53 40.0599 128.38 45.2399C129.04 45.5099 130 45.8699 130.51 46.5099C133.3 40.7199 134.85 32.3599 132.2 20.5999C128.67 24.3899 125.04 27.1899 121.7 29.4499C122.11 30.2799 122.47 31.0899 122.79 31.8899Z" fill="#F57E20"/>
<path id="Vector_23" fill-rule="evenodd" clip-rule="evenodd" d="M148.08 39.6497C145.19 42.1097 134.03 47.0097 130.71 48.3897C130.57 49.1197 130.31 50.3197 129.97 51.7697C132.93 50.7397 140.98 47.5197 143.01 46.3897C139.86 57.0097 132.78 61.0197 126.88 64.7097L126.13 65.6797C125.56 66.4197 125.1 67.5097 124.75 68.8297C133.42 64.6797 146.85 56.0497 148.08 39.6497Z" fill="#F57E20"/>
</g>
</svg>
