<svg width="174" height="174" viewBox="0 0 174 174" fill="none" xmlns="http://www.w3.org/2000/svg">
<g style="mix-blend-mode:overlay" clip-path="url(#clip0_1_524)">
<path d="M125 164.639C125.417 150.187 122.782 135.809 117.267 122.445C111.752 109.08 103.48 97.0288 92.9917 87.0774C87.7621 82.1475 82.0132 77.7992 75.846 74.1087C69.705 70.3881 63.1983 67.3076 56.4281 64.9159C42.8546 60.078 28.4685 57.9314 14.0739 58.596C13.9696 58.6009 13.8674 58.5649 13.7892 58.4956C13.711 58.4264 13.6629 58.3293 13.6552 58.2251C13.6475 58.121 13.6807 58.0179 13.7478 57.9378C13.8149 57.8578 13.9107 57.8071 14.0146 57.7965C28.5813 56.3278 43.2918 58.1597 57.0535 63.1563C63.9252 65.6224 70.5256 68.7876 76.7507 72.6022C82.9575 76.4454 88.7342 80.9432 93.9817 86.0184C104.375 96.2616 112.561 108.524 118.036 122.05C123.512 135.576 126.16 150.079 125.819 164.668C125.815 164.771 125.771 164.869 125.697 164.94C125.622 165.012 125.523 165.052 125.419 165.052C125.364 165.055 125.309 165.046 125.257 165.026C125.206 165.006 125.159 164.976 125.119 164.937C125.08 164.899 125.049 164.852 125.028 164.801C125.008 164.749 124.998 164.694 125 164.639Z" fill="#FEAC14"/>
<path d="M62.2167 59.1744C66.768 57.817 70.7274 54.962 73.4529 51.0725C66.7639 51.0478 59.8405 49.943 53.5513 52.2264C49.5767 53.6725 46.1784 56.3687 43.8664 59.9103C49.2504 62.4289 56.8412 60.9192 62.2167 59.1744Z" fill="#FEAC14"/>
<path d="M62.1704 58.9426C64.3978 58.2248 66.5114 57.1927 68.4471 55.8775C70.3731 54.5589 72.0208 52.8742 73.2963 50.9195L73.4627 51.2236C68.0261 51.2171 62.5474 50.5783 57.2576 51.5651C54.6124 52.029 52.089 53.0253 49.8403 54.4935C47.6081 55.9564 45.7068 57.8704 44.2588 60.1123L44.0744 59.4665C45.4594 60.0818 46.9308 60.4802 48.4371 60.6476C49.9853 60.8214 51.546 60.8557 53.1004 60.7502C56.1851 60.512 59.2301 59.9051 62.1704 58.9426ZM62.294 59.3242C59.3219 60.3804 56.2456 61.1166 53.1173 61.5202C49.9216 61.9709 46.6634 61.5183 43.7115 60.2134L43.231 60.0317L43.5138 59.6028C45.0563 57.2872 47.0626 55.3169 49.4056 53.8165C51.7487 52.316 54.3776 51.3181 57.1261 50.8857C62.5536 49.9243 68.0508 50.7977 73.4623 50.8349L73.8231 50.8374L73.6286 51.139C72.2992 53.1139 70.6086 54.8198 68.6457 56.167C66.6914 57.5195 64.5521 58.5829 62.294 59.3242Z" fill="#FEAC14"/>
<path d="M58.8442 78.2213L61.1336 87.0448C56.8431 83.158 51.2675 80.4732 48.3014 75.4932C47.4426 73.974 46.7528 72.3654 46.2441 70.6961C44.7963 66.1295 41.2318 55.9665 49.077 61.5058C54.9155 65.6565 57.0695 71.5083 58.8442 78.2213Z" fill="#FEAC14"/>
<path d="M59.0365 78.1735L61.2875 87.0628L61.4283 87.6117L60.9996 87.2219C57.42 84.0059 53.0385 81.7057 49.7433 78.0212C48.1233 76.1584 46.9035 73.9825 46.1594 71.6286C45.3226 69.3378 44.6187 67.0006 44.0511 64.6286C43.7178 63.3914 43.6678 62.0949 43.9049 60.8357C43.9975 60.4504 44.2235 60.1103 44.5427 59.8756C44.8619 59.6408 45.2539 59.5266 45.6493 59.553C46.3151 59.6137 46.9602 59.8165 47.5409 60.1478C49.7298 61.3336 51.6741 62.9236 53.2708 64.8335C56.5056 68.6425 57.8661 73.5109 59.0365 78.1735ZM58.652 78.2692C57.605 73.5767 55.5325 69.174 52.5829 65.3771C51.0582 63.5689 49.2278 62.0423 47.1752 60.8669C46.7035 60.5947 46.1818 60.4201 45.6412 60.3537C45.4283 60.3275 45.2133 60.3826 45.0392 60.508C44.8651 60.6334 44.7448 60.8198 44.7021 61.0301C44.5024 62.1599 44.5481 63.3194 44.8363 64.4299C45.3653 66.7762 46.0236 69.0914 46.8084 71.365C47.4795 73.66 48.6224 75.7897 50.1639 77.6176C53.2846 81.3031 57.6645 83.6429 61.2454 86.9263L60.9692 87.0898L58.652 78.2692Z" fill="#FEAC14"/>
<path d="M86.5021 65.2381C88.7225 63.6531 90.6347 61.6434 93.0041 60.3023C91.0676 59.4398 88.9935 58.9275 86.8781 58.7892C78.7437 58.0169 68.64 60.2909 62.5873 66.0932C66.2491 68.2185 70.4369 69.2659 74.668 69.1146C78.8992 68.9633 83.0014 67.6195 86.5021 65.2381Z" fill="#FEAC14"/>
<path d="M86.3896 65.0748C88.585 63.5206 90.5089 61.5154 92.915 60.148L92.9185 60.4574C90.4561 59.4023 87.8058 58.8556 85.1268 58.8501C82.4422 58.7638 79.7565 58.984 77.1219 59.5066C71.8299 60.4022 66.8996 62.7781 62.9018 66.3594L62.8245 65.7139C66.4228 67.7688 70.5238 68.7769 74.6647 68.6247C76.7308 68.5739 78.7811 68.2502 80.7624 67.6622C82.753 67.0755 84.6484 66.204 86.3896 65.0748ZM86.6145 65.4011C84.86 66.6071 82.9564 67.5803 80.9513 68.2962C78.9376 69.0261 76.8262 69.4512 74.687 69.5574C70.3961 69.7498 66.1434 68.6771 62.4572 66.4726L61.9769 66.1838L62.3798 65.827C64.4083 63.9701 66.7271 62.4577 69.2442 61.3499C71.7518 60.2704 74.3769 59.4874 77.0661 59.0166C79.7251 58.5425 82.4275 58.3564 85.1264 58.4615C87.8622 58.4902 90.5656 59.0575 93.0822 60.1308L93.3869 60.2461L93.0946 60.4168C90.7471 61.8064 88.8555 63.7971 86.6145 65.4011Z" fill="#FEAC14"/>
<path d="M79.1896 94.49C78.0277 93.3328 76.685 92.3725 75.2144 91.6469C71.1544 89.0693 67.9472 85.3488 65.9963 80.9532C64.1232 76.909 62.5776 71.1132 62.9393 66.6147C75.5422 69.4924 78.8319 85.5533 79.1896 94.49Z" fill="#FEAC14"/>
<path d="M79.3121 94.6973C79.1757 94.6443 79.0509 94.5652 78.9447 94.4646L78.7429 94.2543C78.6244 94.1425 78.4986 94.0145 78.364 93.91C78.2294 93.8055 77.8299 93.4803 77.5445 93.2786C76.9531 92.8941 76.3484 92.5448 75.732 92.1911C74.4916 91.4742 73.3218 90.6415 72.2383 89.7043C70.0837 87.8174 68.2672 85.5764 66.8673 83.0779C65.4819 80.5825 64.4078 77.9267 63.669 75.1699C62.8649 72.4074 62.5134 69.5329 62.6282 66.658L62.6484 66.2503L63.0352 66.3966C65.9312 67.0447 68.5975 68.4652 70.751 70.5071C72.8652 72.5509 74.5753 74.9747 75.792 77.6518C77.0089 80.3016 77.9121 83.0845 78.4832 85.944C78.7666 87.3908 78.9914 88.8155 79.1693 90.2224C79.2596 90.9398 79.3003 91.6116 79.3406 92.3905C79.3953 93.1589 79.3857 93.9305 79.3121 94.6973ZM79.1724 94.3229C79.1074 93.9634 79.0174 93.6347 78.9537 93.3427C78.89 93.0506 78.882 92.7529 78.8215 92.3817C78.7267 91.676 78.6319 90.9703 78.5136 90.2558C78.3006 88.8355 78.0524 87.402 77.6939 86.0473C77.0727 83.2675 76.1667 80.559 74.9903 77.9648C73.8517 75.3701 72.2344 73.0132 70.223 71.0175C68.1861 69.0539 65.6598 67.6728 62.9073 67.0181L63.3365 66.6981C63.1778 69.5132 63.4669 72.3355 64.1929 75.06C64.866 77.7938 65.8857 80.4304 67.2271 82.9058C68.5898 85.3747 70.3658 87.5916 72.478 89.46C73.5402 90.3819 74.6897 91.198 75.9103 91.8969C76.5105 92.2579 77.1431 92.6043 77.7418 93.0049C78.0447 93.2017 78.3341 93.4186 78.6082 93.6541C78.7485 93.767 78.8814 93.8888 79.006 94.0189C79.0716 94.0691 79.1306 94.1274 79.1816 94.1924C79.1816 94.1924 79.1638 94.2393 79.1724 94.3229Z" fill="#FEAC14"/>
<path d="M97.0095 79.9963C101.574 79.4674 106.086 78.5569 110.498 77.2742C108.403 74.6678 105.511 72.8209 102.265 72.0169C100.131 71.5753 97.9527 71.39 95.7752 71.4648C93.4821 71.4314 91.1897 71.5721 88.9179 71.8854C85.514 72.5412 82.1814 73.5239 78.9663 74.8199C81.5122 76.9081 83.341 78.4839 86.5358 79.3171C89.9622 80.1426 93.5052 80.3724 97.0095 79.9963Z" fill="#FEAC14"/>
<path d="M96.9896 79.8013C101.546 79.2963 106.049 78.3903 110.446 77.0938L110.339 77.3751C108.587 75.208 106.261 73.5764 103.627 72.6661C100.955 71.8852 98.1668 71.5834 95.3901 71.7747C92.6024 71.7656 89.822 72.0617 87.0986 72.6577C84.3885 73.3377 81.7251 74.1919 79.125 75.2149L79.2665 74.4512C80.478 75.4874 81.7522 76.448 83.0818 77.3276C84.4209 78.1534 85.8868 78.7531 87.4207 79.1027C90.5526 79.8448 93.7831 80.0807 96.9896 79.8013ZM97.0251 80.2032C93.7731 80.5594 90.4867 80.4444 87.2675 79.8619C85.6096 79.5624 84.0207 78.9614 82.5795 78.0888C81.2043 77.2029 79.8994 76.2122 78.6765 75.1257L78.0664 74.6136L78.8063 74.3575C81.4508 73.3569 84.1555 72.523 86.9043 71.8608C89.6838 71.2996 92.5178 71.0547 95.3524 71.1308C98.209 70.9909 101.068 71.36 103.795 72.2207C106.488 73.2087 108.859 74.9162 110.649 77.1574L110.83 77.3867L110.546 77.4666C106.115 78.7231 101.595 79.638 97.0251 80.2032Z" fill="#FEAC14"/>
<path d="M94.7004 94.8504C95.1314 99.6808 95.0001 104.545 94.3091 109.345C92.3403 107.503 90.5489 105.48 88.9585 103.302C86.6241 99.7391 85.136 95.689 84.6082 91.4621C84.0822 87.2542 83.9752 83.0045 84.289 78.7754C84.227 78.9395 87.9731 81.3611 88.4166 81.6762C89.4785 82.5549 90.4073 83.5831 91.1739 84.7285C93.1203 87.7825 94.3277 91.2482 94.7004 94.8504Z" fill="#FEAC14"/>
<path d="M94.8838 94.8262C95.2827 99.6868 95.145 104.577 94.4731 109.407L94.4428 109.771L94.1795 109.51C92.0903 107.602 90.1965 105.49 88.5261 103.206C86.9602 100.852 85.7872 98.2591 85.0529 95.5289C83.5254 90.0748 83.5591 84.3538 83.8168 78.7845L84.6042 78.8278C84.6352 78.7458 84.5696 78.6004 84.5462 78.5915C84.584 78.6094 84.6232 78.6243 84.6634 78.6359L84.8902 78.8154L85.3996 79.1688L86.4696 79.8817C87.1605 80.3573 87.8412 80.7889 88.5423 81.3086C89.8682 82.404 90.9819 83.7333 91.8281 85.2307C93.4952 88.1852 94.5354 91.4517 94.8838 94.8262ZM94.5287 94.8795C94.1429 91.6016 93.0511 88.4463 91.3283 85.6311C90.4813 84.2495 89.4051 83.0225 88.1458 82.0026L86.1156 80.6051L85.0544 79.8689L84.5378 79.4993L84.2802 79.2947C84.2241 79.2779 84.1693 79.2572 84.1161 79.2327L84.0341 79.2017C83.9427 79.1 83.8879 78.9709 83.8782 78.8346L84.6656 78.8778C84.1431 84.413 84.4906 89.9959 85.6955 95.4236C86.3706 98.1109 87.4736 100.672 88.9622 103.009C90.5654 105.283 92.3947 107.389 94.4221 109.294L94.1285 109.397C94.8392 104.591 94.9736 99.7174 94.5287 94.8795Z" fill="#FEAC14"/>
<path d="M104.797 96.2444C110.787 99.6754 118.103 99.3881 124.96 100.173C123.358 96.084 119.554 93.212 115.598 91.3809C109.506 88.5691 102.706 87.6596 96.0887 88.7712C98.5918 91.6932 101.529 94.2137 104.797 96.2444Z" fill="#FEAC14"/>
<path d="M104.894 96.0936C107.923 97.7181 111.245 98.724 114.666 99.0528C118.079 99.4863 121.532 99.6001 125.035 99.9737L124.813 100.278C123.723 97.7744 121.947 95.6302 119.69 94.0939C117.454 92.5341 114.998 91.3162 112.402 90.4803C109.823 89.5889 107.143 89.0251 104.423 88.802C101.701 88.595 98.9634 88.7015 96.2652 89.1193L96.5046 88.4864C98.8863 91.445 101.717 94.0119 104.894 96.0936ZM104.77 96.4218C101.463 94.4202 98.4746 91.9352 95.9032 89.0494L95.4163 88.5303L96.1308 88.412C101.659 87.465 107.338 87.948 112.627 89.8151C115.28 90.6963 117.781 91.981 120.042 93.6241C122.345 95.2514 124.138 97.5 125.212 100.108L125.353 100.442L124.994 100.4C121.581 99.9669 118.116 99.8486 114.665 99.374C111.186 99.0346 107.806 98.0246 104.711 96.3996L104.77 96.4218Z" fill="#FEAC14"/>
<path d="M109.837 114.548C110.148 119.327 109.889 124.127 109.065 128.845C106.702 127.003 104.759 124.679 103.365 122.027C101.589 118.236 100.863 114.039 101.264 109.872C101.682 105.73 102.469 101.634 103.615 97.6327C103.473 98.0078 105.495 100.313 105.754 100.974C106.27 102.267 106.903 103.498 107.462 104.781C108.771 107.889 109.573 111.186 109.837 114.548Z" fill="#FEAC14"/>
<path d="M110.016 114.535C110.297 119.327 110.034 124.135 109.231 128.867L109.183 129.171L108.949 128.975C106.681 127.215 104.777 125.029 103.344 122.542C101.992 120.006 101.181 117.218 100.962 114.353C100.739 111.505 100.877 108.641 101.373 105.828C101.834 103.014 102.527 100.262 103.18 97.5084L103.961 97.71L104.084 97.9172C104.173 98.0714 104.278 98.2183 104.379 98.377L105.04 99.2838C105.274 99.5865 105.504 99.901 105.712 100.235C105.837 100.412 105.945 100.601 106.035 100.799L106.264 101.327C106.874 102.724 107.514 104.078 108.051 105.527C109.114 108.426 109.775 111.457 110.016 114.535ZM109.658 114.561C109.389 111.545 108.67 108.586 107.526 105.783C106.934 104.407 106.252 103.024 105.641 101.628L105.396 101.106C105.341 101.005 105.244 100.834 105.151 100.692L104.489 99.7852L103.829 98.8389C103.716 98.6758 103.604 98.5127 103.508 98.3423C103.446 98.2511 103.393 98.1548 103.349 98.0544C103.255 97.8881 103.22 97.6957 103.247 97.5071L104.028 97.7087C102.614 103.149 101.211 108.7 101.615 114.292C101.781 117.086 102.523 119.816 103.794 122.31C105.133 124.767 106.944 126.936 109.123 128.693L108.841 128.8C109.686 124.124 109.953 119.361 109.636 114.619L109.658 114.561Z" fill="#FEAC14"/>
<path d="M111.146 109.175C113.47 112.415 116.604 114.986 120.235 116.632C125.113 118.994 130.485 120.154 135.903 120.013C134.417 117.073 132.477 114.386 130.153 112.051C128.193 110.401 125.976 109.083 123.591 108.149C118.86 106.119 113.801 104.963 108.658 104.738" fill="#FEAC14"/>
<path d="M111.359 109.108C114.149 112.85 117.972 115.693 122.358 117.288C126.687 119.022 131.331 119.834 135.992 119.671L135.744 120.113C134.428 117.721 132.862 115.476 131.07 113.416C129.18 111.465 126.905 109.93 124.39 108.906C119.394 106.66 114.05 105.287 108.59 104.846L108.604 104.49C111.382 104.496 114.15 104.819 116.854 105.453C119.55 106.132 122.174 107.07 124.689 108.256C127.28 109.357 129.617 110.98 131.554 113.022C133.362 115.136 134.923 117.448 136.208 119.914L136.461 120.344L135.961 120.356C131.249 120.425 126.571 119.535 122.213 117.742C117.764 116.077 113.899 113.148 111.093 109.316L111.359 109.108Z" fill="#FEAC14"/>
<path d="M120.658 138.146C120.131 143.074 118.905 147.901 117.018 152.483C116.552 150.725 115.932 149.011 115.164 147.361C113.607 143.062 113.055 138.463 113.55 133.917C113.938 129.404 114.945 124.966 116.542 120.728C119.755 125.939 121.198 132.048 120.658 138.146Z" fill="#FEAC14"/>
<path d="M120.84 138.161C120.286 143.101 119.055 147.941 117.182 152.546L116.96 153.132L116.842 152.524C116.531 151.208 116.08 149.928 115.499 148.707C114.941 147.455 114.48 146.161 114.122 144.837C113.444 142.179 113.128 139.441 113.182 136.698C113.242 133.958 113.535 131.227 114.058 128.536C114.555 125.834 115.294 123.181 116.266 120.61L116.532 119.907L116.964 120.606C118.595 123.215 119.752 126.093 120.38 129.106C120.987 132.084 121.142 135.137 120.84 138.161ZM120.488 138.136C120.714 135.11 120.439 132.069 119.673 129.133C118.931 126.236 117.774 123.461 116.238 120.894L116.959 120.832C115.991 123.353 115.249 125.955 114.741 128.607C114.201 131.259 113.877 133.95 113.774 136.654C113.685 139.355 113.961 142.055 114.596 144.682C114.931 145.989 115.365 147.268 115.895 148.509C116.457 149.763 116.896 151.069 117.207 152.408L116.871 152.375C118.764 147.83 119.983 143.033 120.488 138.136Z" fill="#FEAC14"/>
<path d="M139.688 148.612C139.482 142.64 137.231 136.55 132.753 132.593C128.795 129.1 123.56 127.535 118.788 125.275C119.317 125.542 119.899 128.146 120.153 128.751C120.598 129.911 121.071 131.068 121.508 132.251C121.958 133.758 122.644 135.185 123.541 136.476C126.097 140.028 129.305 143.06 132.995 145.411C135.102 146.72 137.347 147.794 139.688 148.612Z" fill="#FEAC14"/>
<path d="M139.583 148.465C139.513 148.172 139.469 147.873 139.452 147.572L139.351 146.529C139.264 145.839 139.173 145.122 139.021 144.462C138.751 143.092 138.362 141.749 137.861 140.446C136.884 137.81 135.363 135.41 133.399 133.4C131.359 131.517 129.008 130.003 126.451 128.923C123.908 127.747 121.262 126.773 118.696 125.588L118.922 124.991C119.127 125.116 119.286 125.303 119.377 125.524L119.607 126.013C119.737 126.344 119.85 126.681 119.952 127.014C120.16 127.669 120.312 128.329 120.566 128.934C121.046 130.215 121.566 131.496 122.007 132.775C122.992 135.271 124.5 137.527 126.43 139.391C128.271 141.364 130.33 143.122 132.566 144.633C133.679 145.399 134.838 146.097 136.036 146.722C136.638 147.043 137.233 147.349 137.848 147.635L138.797 147.994L139.266 148.171C139.393 148.244 139.501 148.345 139.583 148.465ZM139.794 148.759C139.57 148.738 139.35 148.69 139.137 148.618L137.695 148.073C137.051 147.829 136.406 147.585 135.793 147.26C134.554 146.657 133.35 145.986 132.185 145.252C129.866 143.748 127.736 141.971 125.841 139.959C124.904 138.942 124.031 137.869 123.224 136.746C122.414 135.604 121.778 134.347 121.339 133.018C120.883 131.707 120.39 130.462 119.925 129.175C119.666 128.514 119.519 127.842 119.33 127.208C119.242 126.887 119.138 126.57 119.019 126.259C118.937 126.007 118.813 125.771 118.654 125.559L118.88 124.961C121.398 126.168 124.037 127.193 126.574 128.42C129.169 129.59 131.55 131.187 133.615 133.146C135.606 135.168 137.157 137.579 138.171 140.228C138.665 141.552 139.046 142.915 139.309 144.303C139.448 144.998 139.534 145.727 139.63 146.393L139.734 147.464C139.778 147.906 139.794 148.351 139.78 148.795L139.794 148.759Z" fill="#FEAC14"/>
<path d="M130.14 155.865C130.742 161.358 128.663 166.855 126.707 172.237C123.389 168.048 120.347 163.482 120.217 158.476C120.217 156.192 120.654 153.929 121.506 151.81C122.215 149.934 122.917 147.333 124.358 145.721C125.893 146.844 127.177 148.274 128.128 149.92C129.242 151.723 129.93 153.757 130.14 155.865Z" fill="#FEAC14"/>
<path d="M130.269 155.914C130.51 158.747 130.247 161.601 129.493 164.342C128.748 167.061 127.864 169.741 126.845 172.37L126.734 172.663L126.534 172.413C124.977 170.539 123.573 168.543 122.334 166.444C121.071 164.323 120.253 161.967 119.93 159.519C119.74 157.045 120.095 154.559 120.969 152.237C121.816 149.998 122.351 147.521 124.047 145.55L124.28 145.29L124.549 145.392C125.429 145.96 126.206 146.675 126.844 147.506C127.483 148.3 128.06 149.141 128.572 150.021C129.556 151.841 130.134 153.851 130.269 155.914ZM129.962 155.946C129.734 153.972 129.082 152.071 128.051 150.373C127.524 149.533 126.929 148.739 126.27 147.998C125.649 147.258 124.922 146.613 124.113 146.084L124.556 146.011C123.078 147.796 122.446 150.209 121.583 152.455C120.717 154.678 120.35 157.063 120.508 159.443C120.782 161.822 121.541 164.12 122.737 166.194C123.92 168.298 125.272 170.301 126.781 172.185L126.482 172.233C127.531 169.611 128.432 166.933 129.181 164.211C129.923 161.511 130.192 158.703 129.975 155.911L129.962 155.946Z" fill="#FEAC14"/>
<path d="M67.2584 53.5658C65.637 53.8501 64.0417 54.2783 62.4508 54.6947C60.8598 55.1111 59.2876 55.6552 57.7417 56.236L53.0865 57.9182C51.5316 58.5002 49.9312 58.9523 48.3016 59.2701C48.2202 59.2833 48.1368 59.2637 48.0697 59.2157C48.0025 59.1678 47.957 59.0953 47.9431 59.0139C47.931 58.9574 47.9354 58.8987 47.9559 58.8446C47.9763 58.7906 48.0119 58.7436 48.0583 58.7092C49.4688 57.8044 50.9887 57.0827 52.5814 56.5617C54.1521 56.0215 55.7491 55.5538 57.3722 55.1585L62.316 54.0945C63.9187 53.6825 65.5489 53.3747 67.1661 52.995C67.204 52.9843 67.2437 52.9815 67.2828 52.9867C67.3218 52.9919 67.3594 53.0051 67.3931 53.0254C67.4269 53.0457 67.4561 53.0726 67.479 53.1047C67.5019 53.1367 67.518 53.1731 67.5263 53.2116C67.5427 53.289 67.5279 53.3698 67.4852 53.4364C67.4425 53.5029 67.3752 53.55 67.298 53.5673L67.2584 53.5658Z" fill="#FFDA00"/>
<path d="M56.7576 81.2234C56.1344 79.648 55.3939 78.0283 54.6209 76.5302C53.8478 75.0322 52.9604 73.5176 52.0508 72.0617L49.2869 67.6806C48.3374 66.2441 47.4908 64.7421 46.7536 63.1858C46.7373 63.1497 46.7282 63.1108 46.727 63.0713C46.7257 63.0317 46.7323 62.9923 46.7463 62.9553C46.7603 62.9182 46.7814 62.8844 46.8086 62.8555C46.8357 62.8267 46.8682 62.8035 46.9043 62.7873C46.9607 62.7638 47.0223 62.756 47.0827 62.7647C47.1431 62.7734 47.2 62.7983 47.2474 62.8367C48.4932 64.0623 49.5788 65.4407 50.4784 66.939C51.4037 68.41 52.246 69.9317 53.0013 71.4968C53.73 73.1121 54.4942 74.6336 55.2318 76.2254C55.9694 77.8173 56.6307 79.4338 57.3626 80.9699C57.3923 81.0409 57.3937 81.1205 57.3664 81.1924C57.3392 81.2644 57.2855 81.3231 57.2163 81.3567C57.1805 81.3748 57.1414 81.3853 57.1014 81.3875C57.0613 81.3897 57.0213 81.3835 56.9838 81.3693C56.9463 81.3551 56.9121 81.3333 56.8835 81.3051C56.855 81.277 56.8326 81.2432 56.8178 81.206L56.7576 81.2234Z" fill="#FFDA00"/>
<path d="M75.5913 89.5524C74.9861 87.8231 74.2003 86.1461 73.4937 84.4722C72.7872 82.7983 71.9308 81.2017 71.0849 79.5421L68.5407 74.7217C67.6725 73.113 66.9305 71.4394 66.3212 69.7159C66.2961 69.6481 66.2963 69.5735 66.3216 69.5058C66.347 69.4381 66.396 69.3818 66.4595 69.3473C66.523 69.3127 66.5969 69.3022 66.6675 69.3176C66.7382 69.3331 66.8009 69.3735 66.8442 69.4314C68.0113 70.8707 69.0093 72.4393 69.8184 74.1064C70.6409 75.7572 71.4048 77.3857 72.0892 79.1182L76.1522 89.3091C76.1685 89.3451 76.1776 89.384 76.1789 89.4236C76.1801 89.4632 76.1736 89.5026 76.1596 89.5396C76.1456 89.5766 76.1244 89.6105 76.0973 89.6393C76.0701 89.6682 76.0376 89.6913 76.0015 89.7076C75.9283 89.7373 75.8466 89.7383 75.7727 89.7104C75.6988 89.6824 75.6382 89.6276 75.603 89.5568L75.5913 89.5524Z" fill="#FFDA00"/>
<path d="M86.9114 61.0389C83.9361 61.7 81.0259 62.6258 78.2156 63.8053L73.9988 65.5328C72.5862 66.1241 71.1238 66.5887 69.6289 66.9211C69.5899 66.9302 69.5495 66.9312 69.5101 66.9238C69.4708 66.9165 69.4334 66.9011 69.4004 66.8785C69.3673 66.8559 69.3393 66.8267 69.3182 66.7927C69.2971 66.7587 69.2832 66.7207 69.2776 66.681C69.2638 66.6245 69.2675 66.5652 69.288 66.5108C69.3086 66.4564 69.3451 66.4095 69.3929 66.3763C70.6506 65.4778 72.0241 64.7535 73.476 64.2232C74.9137 63.6695 76.3809 63.1958 77.8709 62.8042L86.7225 60.4048C86.7995 60.3843 86.8816 60.3951 86.9507 60.4351C87.0198 60.475 87.0701 60.5407 87.0907 60.6178C87.1113 60.6949 87.1004 60.777 87.0605 60.846C87.0206 60.9151 86.9548 60.9654 86.8778 60.986L86.9114 61.0389Z" fill="#FFDA00"/>
<path d="M104.972 76.3362C103.304 76.1746 101.643 76.1758 99.9739 76.1608C98.305 76.1459 96.6593 76.2468 94.9898 76.446L90.0401 76.9585C88.3809 77.1586 86.709 77.2338 85.0385 77.1835C84.999 77.181 84.9604 77.1706 84.9249 77.1531C84.8894 77.1356 84.8577 77.1113 84.8316 77.0815C84.8055 77.0518 84.7856 77.0171 84.7729 76.9796C84.7603 76.9421 84.7551 76.9025 84.7578 76.863C84.7612 76.8033 84.7815 76.7458 84.8165 76.6973C84.8514 76.6488 84.8995 76.6114 84.9551 76.5893C86.5528 76.0348 88.2174 75.6958 89.9047 75.5811C91.5797 75.4245 93.2623 75.3631 94.9443 75.3973C96.6249 75.4167 98.304 75.4756 99.983 75.5346C101.662 75.5936 103.323 75.6995 105.002 75.7585C105.042 75.7588 105.081 75.7672 105.117 75.7831C105.153 75.7991 105.185 75.8222 105.212 75.8512C105.239 75.8801 105.259 75.9142 105.272 75.9514C105.285 75.9885 105.29 76.028 105.288 76.0673C105.284 76.1457 105.249 76.2194 105.191 76.2727C105.134 76.326 105.057 76.3546 104.979 76.3524L104.972 76.3362Z" fill="#FFDA00"/>
<path d="M91.1633 103.105C90.7899 101.329 90.3167 99.5693 89.8993 97.8038C89.4819 96.0384 88.9603 94.3005 88.4549 92.5553C87.9494 90.8101 87.4719 89.0621 87.0427 87.2922C86.5923 85.5285 86.3096 83.726 86.1985 81.909C86.1938 81.8689 86.1975 81.8283 86.2095 81.7897C86.2215 81.7512 86.2415 81.7156 86.2681 81.6853C86.2947 81.6549 86.3274 81.6305 86.3641 81.6136C86.4008 81.5967 86.4406 81.5877 86.481 81.5872C86.5396 81.5731 86.6012 81.577 86.6576 81.5983C86.714 81.6197 86.7628 81.6575 86.7974 81.7069C87.5075 83.3879 88.0541 85.1334 88.4297 86.9192C88.8309 88.692 89.1926 90.4631 89.5058 92.2562C89.819 94.0492 90.1645 95.8276 90.5379 97.6032C90.9112 99.3788 91.2963 101.159 91.7578 102.914C91.7776 102.99 91.7673 103.07 91.7291 103.138C91.6908 103.206 91.6277 103.256 91.5529 103.279C91.5139 103.289 91.4732 103.292 91.4332 103.287C91.3932 103.281 91.3547 103.268 91.32 103.247C91.2853 103.227 91.2551 103.199 91.2312 103.167C91.2073 103.134 91.1903 103.097 91.181 103.058L91.1633 103.105Z" fill="#FFDA00"/>
<path d="M118.955 96.7095C117.349 96.1022 115.744 95.4949 114.085 95.0283C112.426 94.5617 110.779 94.0995 109.108 93.7354L104.093 92.6155C102.405 92.2638 100.748 91.7761 99.1383 91.157C99.0638 91.1254 99.0044 91.0661 98.9727 90.9917C98.9409 90.9172 98.9392 90.8333 98.9679 90.7576C98.9909 90.7013 99.0304 90.6533 99.0813 90.6199C99.1322 90.5865 99.1921 90.5694 99.2529 90.5707C100.976 90.5835 102.69 90.809 104.358 91.2421C106.042 91.6426 107.705 92.1285 109.34 92.6978L119.121 96.1292C119.158 96.1432 119.192 96.1643 119.22 96.1913C119.249 96.2184 119.272 96.2508 119.289 96.2868C119.305 96.3228 119.314 96.3617 119.315 96.4011C119.316 96.4406 119.31 96.4799 119.296 96.5169C119.282 96.5538 119.261 96.5876 119.234 96.6164C119.207 96.6452 119.174 96.6684 119.138 96.6846C119.102 96.7009 119.063 96.7098 119.024 96.7111C118.984 96.7123 118.945 96.7057 118.908 96.6918L118.955 96.7095Z" fill="#FFDA00"/>
<path d="M131.108 117.248C129.726 116.301 128.294 115.428 126.818 114.634C125.335 113.855 123.811 113.153 122.254 112.533C120.684 111.939 119.125 111.349 117.566 110.76C115.99 110.193 114.454 109.523 112.967 108.752C112.931 108.734 112.9 108.709 112.875 108.678C112.849 108.647 112.83 108.612 112.818 108.574C112.806 108.536 112.802 108.496 112.806 108.456C112.81 108.416 112.822 108.378 112.84 108.343C112.866 108.287 112.91 108.242 112.964 108.214C113.018 108.186 113.08 108.177 113.14 108.188C114.818 108.38 116.461 108.803 118.023 109.445C119.584 110.059 121.105 110.768 122.578 111.57C124.076 112.391 125.542 113.227 126.983 114.093C128.423 114.96 129.867 115.854 131.334 116.757C131.395 116.802 131.437 116.868 131.452 116.942C131.466 117.016 131.453 117.093 131.413 117.158C131.373 117.222 131.311 117.269 131.238 117.29C131.165 117.31 131.087 117.303 131.02 117.268L131.108 117.248Z" fill="#FFDA00"/>
<path d="M104.898 101.963C104.829 103.879 104.943 105.811 105.065 107.719C105.187 109.628 105.468 111.542 105.797 113.435C106.126 115.328 106.492 117.195 106.853 119.073C107.259 120.95 107.551 122.85 107.729 124.763C107.736 124.842 107.711 124.92 107.661 124.982C107.61 125.043 107.537 125.081 107.458 125.089C107.397 125.102 107.334 125.097 107.276 125.075C107.218 125.053 107.167 125.015 107.13 124.965C106.35 123.177 105.791 121.301 105.465 119.378C105.111 117.47 104.864 115.543 104.727 113.607C104.586 111.678 104.489 109.739 104.415 107.809C104.341 105.878 104.323 103.942 104.277 102.009C104.276 101.969 104.282 101.929 104.297 101.892C104.311 101.854 104.333 101.821 104.362 101.792C104.39 101.764 104.424 101.742 104.461 101.727C104.499 101.713 104.539 101.706 104.579 101.708C104.658 101.707 104.734 101.736 104.791 101.791C104.848 101.845 104.882 101.919 104.885 101.998L104.898 101.963Z" fill="#FFDA00"/>
<path d="M136.465 143.816C135.487 142.457 134.425 141.161 133.285 139.934C132.137 138.732 130.912 137.606 129.616 136.564C128.326 135.513 127.022 134.498 125.693 133.513C124.343 132.539 123.049 131.491 121.817 130.372C121.772 130.322 121.745 130.259 121.739 130.192C121.733 130.125 121.749 130.058 121.784 130C121.819 129.943 121.872 129.899 121.934 129.874C121.997 129.849 122.066 129.844 122.131 129.861C123.716 130.482 125.199 131.337 126.531 132.396C127.882 133.442 129.149 134.594 130.319 135.839C131.495 137.051 132.631 138.298 133.727 139.579C134.863 140.826 135.88 142.175 136.931 143.47C136.957 143.499 136.976 143.534 136.988 143.571C137 143.608 137.005 143.647 137.002 143.685C136.998 143.724 136.987 143.762 136.969 143.796C136.95 143.83 136.925 143.861 136.895 143.885C136.832 143.934 136.753 143.957 136.673 143.949C136.594 143.941 136.521 143.904 136.468 143.844L136.465 143.816Z" fill="#FFDA00"/>
<path d="M117.315 126.901C117.335 130.003 117.528 133.104 117.817 136.201C117.942 137.748 118.078 139.3 118.124 140.845C118.204 142.406 118.115 143.971 117.859 145.514C117.851 145.553 117.836 145.591 117.814 145.624C117.792 145.658 117.763 145.687 117.73 145.709C117.696 145.731 117.659 145.747 117.619 145.754C117.58 145.762 117.539 145.762 117.5 145.753C117.443 145.744 117.389 145.718 117.347 145.678C117.305 145.638 117.275 145.586 117.263 145.53C116.911 144.007 116.727 142.45 116.714 140.888C116.669 139.343 116.711 137.779 116.75 136.226C116.854 133.117 116.874 130.017 116.708 126.913C116.705 126.874 116.71 126.835 116.723 126.798C116.735 126.761 116.755 126.727 116.781 126.698C116.807 126.669 116.839 126.646 116.874 126.63C116.909 126.613 116.947 126.604 116.986 126.603C117.027 126.599 117.068 126.603 117.107 126.616C117.146 126.629 117.182 126.65 117.212 126.678C117.242 126.706 117.265 126.74 117.281 126.778C117.297 126.815 117.305 126.856 117.304 126.897L117.315 126.901Z" fill="#FFDA00"/>
<path d="M124.658 148.434C124.948 150.004 125.287 151.552 125.561 153.129C125.836 154.707 126.075 156.271 126.293 157.854C126.494 159.42 126.604 160.996 126.625 162.574C126.667 164.179 126.48 165.782 126.07 167.334C126.059 167.373 126.041 167.408 126.016 167.439C125.992 167.471 125.961 167.496 125.927 167.516C125.892 167.535 125.854 167.547 125.814 167.552C125.775 167.556 125.735 167.553 125.697 167.542C125.641 167.528 125.59 167.497 125.551 167.454C125.513 167.41 125.488 167.357 125.481 167.299C125.275 165.735 125.191 164.158 125.228 162.582L125.209 157.886C125.189 156.311 125.066 154.724 124.913 153.179C124.718 151.615 124.443 150.062 124.087 148.526C124.069 148.45 124.082 148.369 124.122 148.302C124.163 148.235 124.228 148.186 124.304 148.166C124.38 148.148 124.461 148.16 124.528 148.201C124.595 148.241 124.644 148.306 124.664 148.382L124.658 148.434Z" fill="#FFDA00"/>
<path d="M77.1581 35.7146C68.7187 28.6194 58.2319 24.408 47.2293 23.6955C36.2266 22.9831 25.2843 25.8067 16.0003 31.7542C9.83066 35.6477 4.47523 40.7014 0.230934 46.6351C0.198666 46.6788 0.150922 46.7085 0.0974628 46.7182C0.0440033 46.7278 -0.0111281 46.7167 -0.0566548 46.6871C-0.0959576 46.6543 -0.122952 46.6091 -0.133205 46.559C-0.143457 46.5089 -0.13637 46.4568 -0.113087 46.4112C3.86621 40.1533 9.20585 34.8737 15.5083 30.9653C21.7931 27.0327 28.8346 24.4652 36.1758 23.4296C43.51 22.4797 50.9617 23.0671 58.0565 25.1543C65.1564 27.1916 71.749 30.6983 77.4067 35.4469C77.4274 35.4644 77.4444 35.4858 77.4568 35.5098C77.4692 35.5339 77.4767 35.5602 77.4789 35.5871C77.4812 35.6141 77.4781 35.6413 77.4698 35.667C77.4616 35.6928 77.4483 35.7167 77.4308 35.7374C77.4134 35.758 77.392 35.775 77.3679 35.7874C77.3438 35.7998 77.3176 35.8073 77.2906 35.8096C77.2636 35.8118 77.2365 35.8087 77.2107 35.8005C77.1849 35.7922 77.161 35.779 77.1404 35.7615L77.1581 35.7146Z" fill="#FEAC14"/>
<path d="M15.5176 27.6466C16.404 25.4122 16.5066 22.9433 15.8086 20.6431C13.7039 23.3034 11.1057 25.71 10.0027 28.9099C9.33914 30.9455 9.34478 33.14 10.0188 35.1722C12.7562 33.8497 14.5228 30.4185 15.5176 27.6466Z" fill="#FEAC14"/>
<path d="M15.4239 27.6111C16.2949 25.4009 16.3963 22.9617 15.7118 20.6868L15.8759 20.7489C14.0303 22.7795 12.3714 24.9723 10.9195 27.3007C10.2833 28.5006 9.89509 29.8162 9.77787 31.1692C9.66363 32.5124 9.82705 33.8647 10.258 35.142L9.94155 35.0224C11.2956 34.2605 12.4387 33.1735 13.2678 31.8595C14.1455 30.5299 14.8689 29.1045 15.4239 27.6111ZM15.6114 27.682C15.1102 29.202 14.4374 30.66 13.6061 32.0277C12.7883 33.4418 11.598 34.6042 10.1649 35.3882L9.9226 35.4975L9.84116 35.2523C9.40389 33.9314 9.24358 32.5346 9.37022 31.149C9.50053 29.7505 9.92624 28.3955 10.6192 27.1737C12.1245 24.8562 13.8248 22.6712 15.7016 20.6428L15.8267 20.4891L15.8907 20.6741C16.5846 22.9755 16.4862 25.4432 15.6114 27.682Z" fill="#FEAC14"/>
<path d="M22.054 34.9818C23.469 35.5974 24.8678 36.2202 26.2828 36.8358C23.4157 37.3322 20.5814 38.6984 17.6771 38.3368C16.8035 38.2013 15.9471 37.9717 15.1228 37.652C12.8843 36.8054 7.7006 35.0324 12.3638 33.6478C15.8234 32.6119 18.8462 33.581 22.054 34.9818Z" fill="#FEAC14"/>
<path d="M22.0895 34.8879L26.3182 36.7418L26.6464 36.866L26.3031 36.9237C23.8908 37.351 21.6104 38.3506 19.1139 38.5049C17.8649 38.5644 16.6167 38.3703 15.4447 37.9343C14.2688 37.5632 13.1145 37.1266 11.9873 36.6267C11.3898 36.3712 10.8586 35.9825 10.4345 35.4901C10.3155 35.3324 10.2541 35.1387 10.2605 34.9413C10.267 34.7439 10.3408 34.5546 10.4698 34.405C10.7056 34.1607 10.9885 33.9669 11.3015 33.8354C12.4555 33.3274 13.6979 33.0509 14.9584 33.0214C17.4463 33.0945 19.8849 33.7328 22.0895 34.8879ZM22.0186 35.0755C19.8222 34.0225 17.4208 33.4664 14.9851 33.4468C13.7883 33.4826 12.608 33.7352 11.5014 34.1923C10.9493 34.4122 10.4613 34.8171 10.7768 35.2579C11.1619 35.69 11.633 36.037 12.1599 36.2767C13.292 36.8254 14.3981 37.2304 15.5466 37.6648C16.6728 38.1132 17.8796 38.3233 19.0911 38.2819C21.5214 38.1964 23.8224 37.1777 26.2536 36.771L26.1871 36.9468L22.0186 35.0755Z" fill="#FEAC14"/>
<path d="M25.5635 19.8582C25.5167 18.4828 25.5411 17.1058 25.6367 15.7329C24.692 16.2368 23.8397 16.8975 23.1161 17.6867C20.2861 20.6353 18.0097 25.4143 18.4202 29.6421C20.4132 28.8521 22.1418 27.514 23.4059 25.7826C24.6701 24.0511 25.4181 21.9971 25.5635 19.8582Z" fill="#FEAC14"/>
<path d="M25.4504 19.9092C25.3985 18.5444 25.4146 17.1779 25.4986 15.8147L25.6627 15.8768C24.4726 16.5272 23.4269 17.4123 22.5888 18.4786C21.7114 19.5164 20.9545 20.6503 20.3325 21.8586C19.0363 24.2502 18.4391 26.9584 18.6093 29.6734L18.3267 29.4996C20.2783 28.6968 21.9708 27.3716 23.2182 25.6695C24.4681 23.9858 25.2393 21.9955 25.4504 19.9092ZM25.6807 19.9025C25.5628 22.0721 24.8406 24.1654 23.5958 25.9463C22.3301 27.7307 20.5589 29.0952 18.5105 29.8638L18.2565 29.9687L18.2279 29.6899C18.0829 26.9085 18.7381 24.1437 20.1158 21.723C20.7735 20.5105 21.5552 19.3695 22.4485 18.3184C23.3165 17.2354 24.3901 16.3348 25.6076 15.6684L25.7897 15.5765L25.7188 15.764C25.5124 17.1596 25.7021 18.571 25.6807 19.9025Z" fill="#FEAC14"/>
<path d="M34.9199 31.9571C34.0965 32.0665 33.2958 32.3063 32.5479 32.6676C30.2522 33.4784 27.7673 33.5878 25.4092 32.9819C22.9681 32.4222 20.6901 31.3039 18.7544 29.7147C23.808 25.5976 31.2374 29.3319 34.9199 31.9571Z" fill="#FEAC14"/>
<path d="M35.0136 31.9928C34.6906 32.1385 34.5984 32.0635 34.4134 32.1275C34.2284 32.1915 34.0612 32.2086 33.8924 32.2653C33.7236 32.322 33.2361 32.5128 32.8941 32.6379C32.2231 32.9158 31.5251 33.1232 30.8113 33.2568C29.3845 33.5189 27.9235 33.5371 26.4906 33.3107C25.0624 33.0803 23.6691 32.6704 22.3437 32.0905C20.9917 31.5453 19.7365 30.7856 18.6264 29.8406L18.4772 29.7038L18.633 29.5752C19.7998 28.6209 21.2053 28.0036 22.6975 27.7901C24.1742 27.5943 25.6745 27.6756 27.1214 28.0299C28.5519 28.3901 29.9361 28.9136 31.2469 29.5902C31.9118 29.922 32.5561 30.2729 33.1754 30.6545C33.4931 30.8416 33.7858 31.0595 34.0947 31.2701C34.4206 31.485 34.728 31.7267 35.0136 31.9928ZM34.8261 31.9218C34.5234 31.7833 34.229 31.6273 33.9445 31.4545C33.6268 31.2673 33.3208 31.0846 32.9987 30.9092C31.1305 29.8107 29.1128 28.9889 27.0088 28.4695C25.6178 28.1076 24.1705 28.0149 22.7447 28.1965C21.3268 28.3915 19.9868 28.9624 18.864 29.8501L18.8706 29.5847C19.9366 30.5221 21.1461 31.2826 22.4529 31.8371C23.7527 32.4301 25.1232 32.8539 26.5308 33.0981C27.9391 33.3265 29.376 33.3127 30.7796 33.0573C31.4702 32.9255 32.1479 32.7335 32.805 32.4837C33.1471 32.3585 33.4819 32.2172 33.8195 32.1038C33.9945 32.0494 34.1723 32.0048 34.3523 31.9704C34.5284 31.9298 34.7912 31.8015 34.8217 31.9336L34.8261 31.9218Z" fill="#FEAC14"/>
<path d="M34.712 20.3576C35.9271 18.3733 36.9781 16.2932 37.8548 14.1379C36.172 14.1629 34.5435 14.7372 33.2173 15.7733C32.3742 16.4821 31.6191 17.2894 30.9682 18.178C30.2347 19.0814 29.572 20.04 28.9861 21.0454C28.1794 22.5941 27.525 24.2175 27.0322 25.8928C28.523 25.7002 29.9464 25.1547 31.1841 24.3015C32.571 23.192 33.7633 21.8591 34.712 20.3576Z" fill="#FEAC14"/>
<path d="M34.6271 20.2986C35.8354 18.3205 36.8796 16.2467 37.7493 14.098L37.8545 14.245C36.4461 14.2503 35.0687 14.6592 33.8856 15.4232C32.7328 16.2325 31.737 17.245 30.947 18.4111C30.0672 19.5148 29.3096 20.7105 28.6872 21.9773C28.1006 23.2631 27.6 24.5865 27.189 25.9386L26.9273 25.6387C27.7184 25.4827 28.4987 25.2767 29.2638 25.022C30.0164 24.7584 30.7176 24.3664 31.3364 23.8634C32.6024 22.8432 33.7112 21.6421 34.6271 20.2986ZM34.8146 20.3696C33.9423 21.7746 32.8668 23.0427 31.6231 24.1326C30.9806 24.6855 30.2482 25.1244 29.4577 25.4303C28.6753 25.6998 27.8743 25.9118 27.061 26.0644L26.6692 26.144L26.7933 25.8158C27.2162 24.45 27.7225 23.1114 28.3093 21.8076C28.9591 20.5242 29.7521 19.3186 30.6733 18.2138C31.5051 17.0419 32.5377 16.0265 33.7234 15.2145C34.9631 14.4512 36.3876 14.0405 37.8434 14.0264L38.0062 14.021L37.9485 14.1734C37.0677 16.3358 36.0138 18.4236 34.7969 20.4165L34.8146 20.3696Z" fill="#FEAC14"/>
<path d="M39.8954 25.9215C41.9522 27.2632 43.8469 28.8385 45.5416 30.6158C44.1844 30.8306 42.8088 30.9073 41.4361 30.8448C39.2927 30.6561 37.2203 29.9822 35.3759 28.8742C33.5347 27.7673 31.8098 26.4776 30.2273 25.0247C30.3094 25.0557 32.4026 24.3738 32.6829 24.3056C33.3648 24.1616 34.0635 24.1147 34.7585 24.1663C36.5844 24.3421 38.3437 24.9432 39.8954 25.9215Z" fill="#FEAC14"/>
<path d="M39.9498 25.8485C42.0082 27.1947 43.9064 28.7711 45.6078 30.5472L45.757 30.684L45.5574 30.7157C44.153 30.9281 42.7319 31.0095 41.3125 30.9589C39.8862 30.8415 38.4877 30.498 37.1694 29.9412C34.5822 28.7381 32.2 27.1364 30.1095 25.1946L30.3758 24.88C30.3606 24.8646 30.3423 24.8527 30.3221 24.8451C30.3019 24.8374 30.2802 24.8342 30.2586 24.8357L30.4069 24.798L30.696 24.7064L31.3023 24.5204C31.7001 24.3895 32.0862 24.2542 32.5147 24.1484C33.3662 23.9698 34.2426 23.943 35.1034 24.0691C36.8292 24.3022 38.4832 24.9095 39.9498 25.8485ZM39.8877 26.0126C38.4395 25.1414 36.824 24.5852 35.1465 24.3802C34.3306 24.2813 33.5036 24.3317 32.7057 24.5287L31.5094 24.8935L30.9032 25.0795L30.5906 25.1622L30.438 25.2116L30.3559 25.1806C30.2877 25.1765 30.2223 25.1517 30.1684 25.1097L30.4347 24.7951C32.4547 26.7602 34.7681 28.3989 37.2919 29.6526C38.5743 30.2207 39.9384 30.5829 41.3337 30.7258C42.7401 30.8031 44.1508 30.7304 45.5419 30.5089L45.4798 30.673C43.7898 28.9041 41.9016 27.3359 39.8526 25.9993L39.8877 26.0126Z" fill="#FEAC14"/>
<path d="M43.607 22.3419C46.8591 21.04 49.0337 18.0176 51.4444 15.54C49.2699 15.0413 46.9871 15.3899 45.0606 16.5149C42.042 18.0512 39.5595 20.4657 37.94 23.4405C39.8743 23.3683 41.7858 22.9977 43.607 22.3419Z" fill="#FEAC14"/>
<path d="M43.5516 22.2405C45.1437 21.5396 46.5815 20.5309 47.7822 19.2723C49.069 18.0308 50.1872 16.739 51.4622 15.4931L51.409 15.6337C50.0731 15.2946 48.6697 15.3292 47.3522 15.7338C46.0289 16.1396 44.7729 16.739 43.6251 17.5125C41.319 19.0492 39.4071 21.1072 38.044 23.52L37.8644 23.2511C39.8002 23.2028 41.7176 22.8621 43.5516 22.2405ZM43.6083 22.4093C41.7835 23.11 39.8605 23.5217 37.9087 23.6296L37.5787 23.6521L37.6984 23.3357C39.0698 20.8476 41.0566 18.7531 43.4689 17.2525C44.6523 16.4788 45.946 15.8886 47.3059 15.5019C48.6644 15.085 50.1132 15.0616 51.4844 15.4345L51.6602 15.501L51.5322 15.6267C50.2939 16.8464 49.2121 18.219 47.9035 19.412C46.6989 20.6901 45.2504 21.7137 43.6435 22.4226L43.6083 22.4093Z" fill="#FEAC14"/>
<path d="M52.4899 26.0231C54.4919 27.3852 56.3264 28.9784 57.9556 30.7697C56.4821 31.1289 54.9496 31.1746 53.4573 30.9037C51.3927 30.4227 49.4955 29.3951 47.9646 27.9287C46.4521 26.4627 45.0694 24.8685 43.832 23.1639C44.4696 23.3025 45.114 23.4076 45.7626 23.4788C46.4189 23.727 47.1256 23.8067 47.8085 23.9846C49.4697 24.4044 51.051 25.093 52.4899 26.0231Z" fill="#FEAC14"/>
<path d="M52.5133 26.0321C54.5251 27.3877 56.3644 28.9831 57.9908 30.783L58.1092 30.8948L57.9449 30.9398C56.518 31.2827 55.0382 31.3462 53.5872 31.127C52.1568 30.8722 50.7955 30.3208 49.5909 29.5084C47.2587 27.8073 45.229 25.7263 43.5866 23.3525L43.9099 23.0997C43.8162 23.0642 43.9802 23.1262 44.0388 23.1484L44.3116 23.1712L44.9422 23.1686C45.118 23.235 45.3264 23.1799 45.5316 23.2039C45.6364 23.2335 45.7383 23.272 45.8364 23.3192L46.0942 23.4167C46.8208 23.6915 47.5861 23.7934 48.3261 24.0331C49.8118 24.4918 51.2225 25.1652 52.5133 26.0321ZM52.4513 26.1962C51.1617 25.3702 49.7631 24.7285 48.296 24.2897C47.5662 24.094 46.7952 23.9364 46.0493 23.748L45.7797 23.6461C45.7211 23.6239 45.6391 23.5929 45.5349 23.6205L44.9689 23.5939L44.3911 23.563L44.0788 23.5386C43.9733 23.4987 43.9071 23.5675 43.6686 23.3835L43.992 23.1307C45.5855 25.491 47.5612 27.5694 49.838 29.2803C51.0032 30.0908 52.3224 30.6536 53.7138 30.9338C55.115 31.1642 56.5483 31.1093 57.9277 30.7726L57.8701 30.925C56.2524 29.1224 54.426 27.5187 52.4294 26.1477L52.4513 26.1962Z" fill="#FEAC14"/>
<path d="M50.7802 23.8493C52.8049 23.942 54.8186 23.5027 56.6207 22.5751C59.0655 21.3547 61.186 19.5719 62.8081 17.373C61.1626 17.0456 59.475 16.9863 57.8105 17.1977C56.5355 17.4709 55.3151 17.9557 54.2002 18.6321C51.9058 19.8706 49.8598 21.5219 48.1648 23.5031" fill="#FEAC14"/>
<path d="M50.7877 23.7584C53.1528 23.8284 55.4863 23.2016 57.4979 21.9558C59.5574 20.773 61.3401 19.1634 62.7263 17.235L62.8239 17.4728C61.4576 17.2499 60.0713 17.1747 58.6888 17.2485C57.3308 17.3836 56.0154 17.7983 54.8254 18.4667C52.3656 19.7534 50.143 21.4497 48.2528 23.4829L48.1004 23.4252C49.8686 21.2246 52.0874 19.4282 54.6078 18.1566C55.8567 17.4737 57.2326 17.0548 58.6502 16.9258C60.061 16.8447 61.4765 16.9304 62.8673 17.1811L63.1017 17.2698L62.9471 17.4659C61.4958 19.3696 59.6733 20.959 57.5898 22.1379C55.5393 23.3898 53.1696 24.0199 50.7681 23.9519L50.7877 23.7584Z" fill="#FEAC14"/>
<path d="M65.2534 29.1492C67.0482 30.903 68.5829 32.9044 69.8109 35.0928C68.9491 34.7312 68.0566 34.4475 67.1442 34.245C64.9537 33.5211 62.957 32.3078 61.3055 30.697C59.6298 29.1293 58.1798 27.3365 56.997 25.3701C60.0833 25.7115 62.978 27.0364 65.2534 29.1492Z" fill="#FEAC14"/>
<path d="M65.3196 29.0804C67.1188 30.8426 68.6596 32.8506 69.8961 35.0446L70.0596 35.3208L69.7666 35.21C68.5451 34.614 67.1229 34.478 65.8575 33.8923C64.5839 33.3298 63.3913 32.5994 62.3116 31.7205C61.2553 30.8431 60.2762 29.8767 59.3851 28.832C58.4621 27.7901 57.6361 26.666 56.9175 25.4739L56.7132 25.1287L57.0917 25.0843C60.1998 25.473 63.0924 26.8779 65.3196 29.0804ZM65.1872 29.2179C64.0569 28.1948 62.7775 27.3495 61.3929 26.7111C60.0094 26.1064 58.5452 25.706 57.0464 25.5227L57.2526 25.2256C57.9477 26.3988 58.7418 27.5103 59.6264 28.5481C60.5213 29.5936 61.4968 30.5673 62.544 31.4602C63.5956 32.3392 64.7582 33.0762 66.0019 33.6521C67.235 34.2525 68.6249 34.4031 69.8932 35.0167L69.7726 35.1587C68.5322 32.9719 66.9885 30.9717 65.1872 29.2179Z" fill="#FEAC14"/>
<path d="M75.3818 24.8615C74.1843 23.9333 72.812 23.2558 71.3468 22.8697C69.8817 22.4836 68.3537 22.3967 66.8542 22.6142C64.2218 23.0922 61.9574 24.6873 59.5665 25.8729C59.8411 25.749 61.0552 26.3288 61.3644 26.4323C61.9504 26.654 62.5718 26.7818 63.174 26.9962C63.9125 27.288 64.6927 27.461 65.4853 27.5087C67.6934 27.5961 69.898 27.2614 71.9806 26.5224C73.1709 26.093 74.3113 25.5362 75.3818 24.8615Z" fill="#FEAC14"/>
<path d="M75.291 24.8539C74.7784 24.5796 74.1389 24.11 73.512 23.8193C72.8728 23.5172 72.2105 23.2667 71.5313 23.0702C70.1816 22.6521 68.7603 22.5158 67.3557 22.6698C65.9529 22.8772 64.5992 23.3364 63.3598 24.0254C62.0895 24.6568 60.8819 25.4058 59.6026 26.0607L59.4597 25.7655C59.6681 25.7187 59.8858 25.7357 60.0844 25.8142C60.2485 25.8762 60.4243 25.9427 60.5766 26.0003C60.9165 26.1289 61.2329 26.2486 61.5377 26.3638L63.5275 26.9824C64.8266 27.3816 66.197 27.493 67.5435 27.3091C68.9064 27.1894 70.2521 26.9212 71.5568 26.5094C72.8433 26.057 74.0919 25.5034 75.291 24.8539ZM75.4433 24.9115C74.2925 25.747 73.0166 26.3948 71.663 26.8308C70.344 27.2945 68.9719 27.5902 67.579 27.711C66.1781 27.8843 64.7563 27.7532 63.4107 27.3268L61.4414 26.6891C61.1015 26.5606 60.7734 26.4365 60.4569 26.3168C60.1825 26.1984 59.8938 26.1163 59.5982 26.0724L58.6461 26.1812L59.4553 25.7772C60.7212 25.1575 61.9479 24.4291 63.2417 23.8065C64.517 23.1392 65.8955 22.6914 67.3195 22.482C68.7533 22.3294 70.2032 22.4764 71.5772 22.9134C72.2701 23.1084 72.9446 23.3635 73.5931 23.6758C74.2653 23.9881 74.8934 24.3878 75.4611 24.8646L75.4433 24.9115Z" fill="#FEAC14"/>
<path d="M75.2782 30.9445C77.6499 32.4309 79.2105 34.9637 80.7258 37.4391C78.0405 37.455 75.2459 37.2286 73.2087 35.7079C72.3033 34.9927 71.5406 34.1134 70.9604 33.1161C70.2796 32.1972 69.7626 31.1678 69.432 30.073C70.3668 29.7813 71.3541 29.6974 72.3248 29.8275C73.3823 29.9667 74.3932 30.349 75.2782 30.9445Z" fill="#FEAC14"/>
<path d="M75.3165 30.8787C76.5177 31.6688 77.5695 32.6653 78.4232 33.822C79.276 34.9717 80.0676 36.1655 80.7949 37.3983L80.8766 37.5364L80.736 37.4832C79.5032 37.5167 78.2698 37.4489 77.0481 37.2807C75.7906 37.1227 74.5805 36.7016 73.4966 36.0447C72.449 35.3518 71.5697 34.4333 70.9231 33.3566C70.1611 32.3628 69.5876 31.2378 69.2312 30.0374L69.1935 29.8891L69.3461 29.8397C70.3509 29.5513 71.4078 29.4931 72.4381 29.6695C73.476 29.8521 74.4596 30.2653 75.3165 30.8787ZM75.2633 31.0193C74.4059 30.4934 73.4457 30.1577 72.4474 30.0347C71.4664 29.8896 70.4653 29.969 69.5195 30.267L69.5948 30.0677C69.969 31.2136 70.5245 32.2921 71.2401 33.2621C71.8496 34.3053 72.6819 35.201 73.6775 35.8853C74.7035 36.5278 75.8468 36.9602 77.0411 37.1575C78.2504 37.3399 79.4722 37.4257 80.6951 37.4142L80.6375 37.5666C79.9266 36.3316 79.1425 35.1404 78.2893 33.9991C77.4561 32.8316 76.4239 31.82 75.2399 31.0105L75.2633 31.0193Z" fill="#FEAC14"/>
<path d="M14.8991 23.8625C14.1306 25.3502 13.4865 26.8989 12.9737 28.4929C12.5007 30.0977 11.908 31.6648 11.2006 33.1809C11.1921 33.1989 11.1802 33.2149 11.1655 33.2282C11.1507 33.2415 11.1336 33.2518 11.1149 33.2584C11.0962 33.2651 11.0763 33.2679 11.0565 33.2668C11.0367 33.2658 11.0173 33.2608 10.9995 33.2522C10.9744 33.2345 10.9534 33.2115 10.9381 33.1848C10.9227 33.1582 10.9133 33.1286 10.9104 33.098C11.1538 31.4315 11.6613 29.8146 12.414 28.308C13.1134 26.7774 13.848 25.2601 14.5621 23.7618C14.569 23.7426 14.5801 23.7252 14.5945 23.7108C14.609 23.6964 14.6265 23.6853 14.6457 23.6785C14.665 23.6717 14.6855 23.6692 14.7058 23.6713C14.7261 23.6734 14.7457 23.68 14.7632 23.6905C14.7811 23.699 14.7972 23.7109 14.8105 23.7257C14.8238 23.7404 14.8341 23.7576 14.8407 23.7763C14.8473 23.795 14.8502 23.8148 14.8491 23.8346C14.8481 23.8544 14.8431 23.8738 14.8345 23.8917L14.8991 23.8625Z" fill="#FFDA00"/>
<path d="M22.5829 36.7358C20.9119 36.2475 19.1995 35.9137 17.4674 35.7388C15.727 35.6295 13.9943 35.4214 12.2775 35.1156C12.2569 35.1115 12.2373 35.1033 12.2201 35.0912C12.2028 35.0792 12.1883 35.0637 12.1774 35.0457C12.1666 35.0277 12.1596 35.0076 12.157 34.9867C12.1543 34.9659 12.1561 34.9447 12.1622 34.9246C12.1673 34.8946 12.1822 34.8672 12.2045 34.8465C12.2269 34.8259 12.2554 34.8133 12.2857 34.8105C14.0315 34.658 15.7906 34.7938 17.4923 35.2124C19.2145 35.5824 20.9145 36.011 22.6101 36.4514C22.6302 36.455 22.6492 36.463 22.6658 36.4749C22.6824 36.4868 22.6962 36.5022 22.7061 36.5201C22.716 36.5379 22.7218 36.5578 22.7231 36.5781C22.7245 36.5985 22.7212 36.6189 22.7137 36.6379C22.7037 36.6747 22.6801 36.7064 22.6476 36.7265C22.6151 36.7465 22.5763 36.7535 22.5389 36.7459L22.5829 36.7358Z" fill="#FFDA00"/>
<path d="M31.8066 31.8648C30.0491 31.2909 28.2526 30.8443 26.431 30.5283C24.608 30.2592 22.8058 29.8641 21.0374 29.3457C20.9989 29.3313 20.9673 29.3028 20.9489 29.2661C20.9305 29.2293 20.9267 29.1869 20.9382 29.1475C20.9497 29.1193 20.9695 29.0953 20.995 29.0786C21.0204 29.0619 21.0503 29.0533 21.0807 29.054C22.9436 29.1117 24.789 29.4309 26.563 30.0022L31.8718 31.6215C31.8909 31.6269 31.9088 31.636 31.9243 31.6483C31.9399 31.6606 31.9528 31.6759 31.9625 31.6932C31.9721 31.7106 31.9782 31.7297 31.9804 31.7494C31.9827 31.7691 31.981 31.789 31.9754 31.8081C31.9718 31.8282 31.9638 31.8472 31.9519 31.8638C31.94 31.8804 31.9246 31.8942 31.9067 31.9041C31.8889 31.914 31.869 31.9198 31.8487 31.9211C31.8283 31.9225 31.8079 31.9192 31.7889 31.9117L31.8066 31.8648Z" fill="#FFDA00"/>
<path d="M24.01 18.44C23.3327 19.8236 22.7865 21.2675 22.3788 22.753C22.0062 24.2522 21.5182 25.7204 20.9189 27.1442C20.912 27.1634 20.9009 27.1809 20.8865 27.1953C20.872 27.2097 20.8545 27.2207 20.8352 27.2275C20.816 27.2343 20.7955 27.2368 20.7752 27.2347C20.7548 27.2326 20.7352 27.2261 20.7178 27.2155C20.6906 27.2027 20.6674 27.1826 20.6509 27.1574C20.6344 27.1323 20.6252 27.103 20.6243 27.073C20.7783 25.5129 21.1957 23.9903 21.8586 22.5697C22.4669 21.1386 23.1059 19.7325 23.7259 18.3058C23.74 18.2685 23.7683 18.2383 23.8047 18.2219C23.841 18.2055 23.8824 18.2042 23.9197 18.2183C23.9569 18.2358 23.9862 18.2667 24.0016 18.3048C24.017 18.3429 24.0174 18.3855 24.0027 18.4239L24.01 18.44Z" fill="#FFDA00"/>
<path d="M35.7405 16.0442C34.5964 17.2787 33.5699 18.6172 32.6744 20.0423C31.8143 21.4915 30.8661 22.8867 29.8351 24.2198C29.8154 24.2456 29.788 24.2643 29.7569 24.2732C29.7258 24.2822 29.6926 24.2808 29.6623 24.2693C29.632 24.2579 29.6062 24.237 29.5888 24.2097C29.5713 24.1824 29.5632 24.1502 29.5655 24.1179C30.1922 22.5242 31.0894 21.0507 32.2176 19.7623C33.2816 18.4366 34.3954 17.1565 35.5092 15.8764C35.521 15.8607 35.536 15.8477 35.5533 15.8383C35.5705 15.8288 35.5895 15.8232 35.6091 15.8217C35.6287 15.8202 35.6484 15.823 35.6668 15.8297C35.6853 15.8365 35.7021 15.8471 35.7161 15.8609C35.7318 15.8729 35.7449 15.8879 35.7548 15.9051C35.7646 15.9223 35.771 15.9412 35.7736 15.9608C35.7761 15.9804 35.7747 16.0004 35.7695 16.0195C35.7644 16.0386 35.7554 16.0565 35.7433 16.0721L35.7405 16.0442Z" fill="#FFDA00"/>
<path d="M42.0678 29.9182C40.4187 29.107 38.7342 28.3895 37.0291 27.691C35.2986 27.0571 33.6402 26.2413 32.0819 25.2572C32.0647 25.2461 32.0499 25.2315 32.0385 25.2144C32.0272 25.1973 32.0194 25.1781 32.0158 25.1578C32.0121 25.1376 32.0126 25.1169 32.0173 25.0969C32.022 25.0769 32.0307 25.0581 32.0429 25.0416C32.0613 25.0154 32.0877 24.9957 32.118 24.9855C32.1484 24.9753 32.1812 24.9751 32.2117 24.9848C33.9685 25.5372 35.6597 26.2801 37.2549 27.2003C38.8862 28.0585 40.5264 28.8932 42.1976 29.6458C42.2349 29.6599 42.2651 29.6883 42.2815 29.7246C42.2979 29.761 42.2992 29.8024 42.2851 29.8397C42.2656 29.875 42.2345 29.9026 42.1971 29.9178C42.1596 29.9329 42.1181 29.9346 42.0795 29.9227L42.0678 29.9182Z" fill="#FFDA00"/>
<path d="M48.2671 16.857C46.769 17.7427 45.3422 18.7438 43.9998 19.8514C42.6913 21.001 41.3028 22.0561 39.8449 23.009C39.8269 23.0171 39.8074 23.0217 39.7876 23.0223C39.7678 23.0229 39.7481 23.0197 39.7296 23.0127C39.7111 23.0057 39.6942 22.9951 39.6798 22.9815C39.6653 22.968 39.6538 22.9517 39.6456 22.9336C39.6393 22.9032 39.6417 22.8716 39.6527 22.8425C39.6637 22.8134 39.6828 22.7881 39.7077 22.7695C40.8694 21.4459 42.2297 20.3108 43.74 19.4049C45.2019 18.444 46.6857 17.5316 48.1667 16.5913C48.1837 16.581 48.2026 16.5742 48.2223 16.5713C48.242 16.5683 48.2621 16.5693 48.2815 16.5741C48.3008 16.5789 48.319 16.5875 48.335 16.5994C48.351 16.6112 48.3645 16.6261 48.3748 16.6432C48.385 16.6602 48.3918 16.6792 48.3947 16.6989C48.3977 16.7186 48.3967 16.7386 48.3919 16.758C48.3871 16.7773 48.3785 16.7955 48.3666 16.8115C48.3548 16.8275 48.3399 16.841 48.3228 16.8513L48.2671 16.857Z" fill="#FFDA00"/>
<path d="M60.2034 18.4509C58.5864 18.9576 57.0299 19.6403 55.5619 20.4866C54.0989 21.273 52.7029 22.2722 51.1361 22.979C51.0974 22.9955 51.0539 22.9964 51.0146 22.9816C50.9752 22.9667 50.9432 22.9372 50.9251 22.8993C50.9201 22.8689 50.9233 22.8377 50.9342 22.8089C50.9451 22.7801 50.9633 22.7547 50.9872 22.7352C52.2572 21.5671 53.7326 20.6444 55.3388 20.0137C56.9541 19.285 58.5073 18.7204 60.1397 18.1589C60.1577 18.1507 60.1772 18.1462 60.197 18.1455C60.2167 18.1449 60.2365 18.1482 60.255 18.1552C60.2735 18.1622 60.2904 18.1728 60.3048 18.1863C60.3192 18.1999 60.3308 18.2162 60.3389 18.2342C60.3471 18.2522 60.3516 18.2717 60.3523 18.2915C60.3529 18.3113 60.3496 18.331 60.3426 18.3495C60.3356 18.368 60.325 18.3849 60.3115 18.3994C60.2979 18.4138 60.2816 18.4254 60.2636 18.4335L60.2034 18.4509Z" fill="#FFDA00"/>
<path d="M45.9207 24.0877C47.4241 25.325 49.0467 26.4099 50.7645 27.3264C52.4719 28.2668 54.2296 29.0388 55.8882 30.1082C55.9203 30.1328 55.9422 30.1686 55.9494 30.2085C55.9566 30.2484 55.9487 30.2895 55.9272 30.3239C55.9087 30.3501 55.8824 30.3697 55.8521 30.3799C55.8217 30.3901 55.7889 30.3904 55.7584 30.3806C53.8683 29.8138 52.086 28.936 50.4846 27.7831C48.8466 26.6947 47.3143 25.5392 45.7368 24.3263C45.7195 24.3155 45.7048 24.301 45.6938 24.2838C45.6829 24.2667 45.6758 24.2473 45.6732 24.2271C45.6706 24.2069 45.6725 24.1863 45.6788 24.167C45.685 24.1476 45.6955 24.1298 45.7095 24.115C45.7216 24.0993 45.7366 24.0862 45.7538 24.0763C45.7709 24.0664 45.7898 24.06 45.8095 24.0575C45.8291 24.055 45.849 24.0563 45.8681 24.0615C45.8872 24.0667 45.9051 24.0756 45.9207 24.0877Z" fill="#FFDA00"/>
<path d="M72.4523 24.6378C70.7689 24.5737 69.0844 24.7292 67.4412 25.1003C65.7815 25.4505 64.2137 25.9829 62.5249 26.2685C62.4902 26.2793 62.4529 26.2782 62.4189 26.2653C62.385 26.2525 62.3563 26.2286 62.3374 26.1976C62.3293 26.1672 62.3309 26.135 62.342 26.1056C62.3531 26.0761 62.3732 26.0509 62.3994 26.0335C63.92 25.2171 65.5963 24.7325 67.3179 24.6116C69.0167 24.44 70.7236 24.3611 72.431 24.3752C72.4721 24.3747 72.5116 24.3906 72.541 24.4193C72.5703 24.448 72.5871 24.4871 72.5875 24.5282C72.588 24.5692 72.5721 24.6087 72.5434 24.6381C72.5148 24.6674 72.4756 24.6842 72.4346 24.6847L72.4523 24.6378Z" fill="#FFDA00"/>
<path d="M59.7336 26.9542C60.976 27.9198 62.2773 28.8005 63.5874 29.6577C64.9409 30.4737 66.1909 31.4502 67.3102 32.5661C67.3236 32.6028 67.3234 32.6432 67.3096 32.6798C67.2957 32.7163 67.2692 32.7467 67.2348 32.7653C67.2127 32.7862 67.1844 32.7993 67.1541 32.8024C67.1239 32.8055 67.0934 32.7985 67.0676 32.7825C65.6979 32.0469 64.4233 31.1464 63.2723 30.1012C62.0594 29.0932 60.8376 28.1086 59.5451 27.2045C59.5151 27.1783 59.4949 27.1427 59.4878 27.1035C59.4807 27.0643 59.4872 27.0238 59.5061 26.9888C59.5308 26.9566 59.5666 26.9348 59.6065 26.9276C59.6463 26.9204 59.6875 26.9283 59.7218 26.9498L59.7336 26.9542Z" fill="#FFDA00"/>
<path d="M70.5857 30.7772C72.0238 31.5087 73.4413 32.2592 74.8322 33.08C76.2576 33.8563 77.5238 34.8942 78.5648 36.1395C78.5818 36.1693 78.589 36.2037 78.5853 36.2378C78.5816 36.2719 78.5672 36.3039 78.5442 36.3294C78.5212 36.3548 78.4908 36.3724 78.4572 36.3795C78.4237 36.3867 78.3887 36.383 78.3574 36.3691C77.0264 35.5069 75.7425 34.5741 74.5111 33.5748C73.251 32.5981 71.8847 31.7668 70.4381 31.0965C70.4058 31.0755 70.3813 31.0444 70.3684 31.0081C70.3555 30.9717 70.3549 30.9321 70.3668 30.8954C70.3753 30.8775 70.3872 30.8614 70.4019 30.8481C70.4166 30.8348 70.4338 30.8245 70.4525 30.8179C70.4712 30.8113 70.491 30.8084 70.5108 30.8095C70.5306 30.8106 70.55 30.8155 70.5679 30.8241L70.5857 30.7772Z" fill="#FFDA00"/>
</g>
<defs>
<clipPath id="clip0_1_524">
<rect width="122.797" height="167.066" fill="white" transform="translate(173.704 59.1011) rotate(110.717)"/>
</clipPath>
</defs>
</svg>
