<svg width="18" height="14" viewBox="0 0 18 14" fill="none" xmlns="http://www.w3.org/2000/svg">
<path d="M17.2349 0.764859C16.7644 0.293344 16.1072 -0.000281048 15.3881 2.01867e-07H2.61193C1.16923 0.000527546 0.000527344 1.16895 0 2.61165V10.537C0.000527344 11.9797 1.16923 13.1481 2.61193 13.1486H15.3881C16.1072 13.1489 16.7644 12.8553 17.2349 12.3838C17.7064 11.9134 18 11.2561 18 10.537V2.61165C18 1.89253 17.7064 1.23532 17.2349 0.764859ZM2.61193 1.33745H15.3881C15.694 1.33773 15.9669 1.4477 16.1866 1.62608L9 7.04816L1.81336 1.62608C2.03305 1.44766 2.30604 1.3377 2.61193 1.33745ZM1.33741 10.537V2.61165C1.33798 2.40683 1.38966 2.21773 1.47431 2.04739L6.45993 6.61764L1.46074 11.0759C1.38393 10.9124 1.33798 10.7316 1.33741 10.537ZM15.3881 11.8112H2.61193C2.32351 11.811 2.06416 11.7138 1.85126 11.5539L7.14642 7.27098L7.94862 8.03426C8.54314 8.5802 9.45689 8.5802 10.0514 8.03426L10.8536 7.27098L16.1485 11.5539C15.9356 11.7138 15.6762 11.811 15.3881 11.8112ZM16.6626 10.537C16.662 10.7316 16.6161 10.9124 16.5393 11.0759L11.5401 6.61767L16.5254 2.04743C16.6103 2.21773 16.662 2.40662 16.6626 2.61169V10.537H16.6626Z" fill="white"/>
</svg>
