<svg width="611" height="417" viewBox="0 0 611 417" fill="none" xmlns="http://www.w3.org/2000/svg">
<path d="M96.559 221.44C96.7106 221.714 96.8625 221.987 97.0146 222.26L96.6075 222.487C96.9122 223.034 97.2181 223.58 97.5251 224.125L97.9311 223.897C98.2377 224.441 98.5455 224.985 98.8545 225.527L98.4496 225.758C98.7589 226.301 99.0694 226.843 99.381 227.383L99.7847 227.151C100.096 227.691 100.408 228.23 100.722 228.768L100.319 229.003C100.633 229.542 100.948 230.079 101.264 230.616L101.666 230.38C101.982 230.916 102.298 231.45 102.617 231.984L102.216 232.223C102.535 232.757 102.854 233.291 103.175 233.823L103.574 233.583C103.894 234.115 104.216 234.645 104.538 235.175L104.14 235.417C104.463 235.948 104.787 236.477 105.112 237.005L105.509 236.761C105.834 237.289 106.16 237.816 106.488 238.342L106.092 238.588C106.423 239.12 106.755 239.65 107.088 240.18L107.483 239.932C107.815 240.46 108.149 240.988 108.484 241.515L108.091 241.765C108.426 242.292 108.763 242.819 109.101 243.344L109.493 243.092C109.83 243.616 110.168 244.14 110.508 244.662L110.117 244.916C110.457 245.439 110.798 245.961 111.14 246.482L111.529 246.226C111.871 246.746 112.214 247.265 112.558 247.783L112.17 248.041C112.514 248.559 112.859 249.077 113.206 249.593L113.593 249.334C113.939 249.849 114.286 250.364 114.634 250.878L114.249 251.139C114.597 251.653 114.947 252.167 115.298 252.679L115.683 252.415C116.033 252.927 116.385 253.437 116.737 253.946L116.354 254.211C116.71 254.725 117.067 255.237 117.425 255.749L117.806 255.482C118.165 255.993 118.524 256.504 118.884 257.014L118.504 257.283C118.865 257.793 119.227 258.302 119.59 258.81L119.969 258.539C120.331 259.046 120.695 259.553 121.06 260.058L120.682 260.33C121.047 260.836 121.414 261.341 121.781 261.844L122.158 261.57C122.525 262.072 122.893 262.574 123.262 263.075L122.887 263.351C123.256 263.852 123.627 264.352 123.998 264.851L124.372 264.573C124.743 265.071 125.116 265.568 125.489 266.065L125.117 266.345C125.491 266.841 125.866 267.337 126.241 267.831L126.612 267.549C126.988 268.043 127.364 268.536 127.742 269.027L127.373 269.311C127.752 269.806 128.133 270.299 128.515 270.791L128.883 270.505C129.266 270.999 129.65 271.491 130.035 271.982L129.669 272.27C130.054 272.761 130.441 273.252 130.829 273.741L131.194 273.452C131.581 273.94 131.969 274.428 132.359 274.915L131.995 275.206C132.385 275.693 132.775 276.179 133.167 276.663L133.53 276.37C133.921 276.854 134.314 277.337 134.707 277.819L134.346 278.114C134.74 278.596 135.135 279.078 135.531 279.558L135.891 279.261C136.286 279.741 136.683 280.219 137.08 280.696L136.722 280.994C137.121 281.472 137.52 281.949 137.92 282.424L138.276 282.124C138.676 282.599 139.077 283.072 139.479 283.545L139.124 283.847C139.527 284.321 139.932 284.795 140.337 285.267L140.691 284.963C141.098 285.437 141.505 285.909 141.914 286.381L141.562 286.686C141.972 287.158 142.382 287.628 142.793 288.098L143.144 287.791C143.555 288.26 143.967 288.727 144.38 289.194L144.031 289.503C144.444 289.97 144.859 290.436 145.274 290.9L145.621 290.59C146.036 291.054 146.452 291.517 146.869 291.978L146.523 292.291C146.941 292.753 147.359 293.214 147.779 293.674L148.123 293.36C148.542 293.819 148.962 294.277 149.383 294.734L149.04 295.05C149.462 295.508 149.884 295.964 150.308 296.419L150.649 296.101C151.072 296.556 151.496 297.009 151.921 297.461L151.581 297.781C152.008 298.234 152.435 298.687 152.864 299.138L153.202 298.817C153.631 299.27 154.062 299.722 154.494 300.172L154.157 300.494C154.589 300.945 155.023 301.395 155.457 301.843L155.791 301.519C156.225 301.966 156.66 302.413 157.095 302.858L156.762 303.184C157.198 303.63 157.635 304.075 158.073 304.518L158.405 304.191C158.842 304.634 159.281 305.075 159.72 305.516L159.39 305.845C159.83 306.286 160.271 306.725 160.713 307.164L161.041 306.833C161.483 307.271 161.925 307.708 162.368 308.143L162.042 308.476C162.486 308.912 162.93 309.347 163.376 309.78L163.701 309.446C164.146 309.879 164.592 310.311 165.039 310.742L164.716 311.077C165.165 311.509 165.614 311.94 166.065 312.37L166.386 312.033C166.838 312.463 167.29 312.892 167.744 313.32L167.424 313.659C167.878 314.088 168.333 314.515 168.788 314.941L169.107 314.601C169.562 315.026 170.018 315.451 170.475 315.874L170.159 316.216C170.616 316.639 171.075 317.061 171.535 317.482L171.849 317.139C172.308 317.559 172.768 317.979 173.229 318.397L172.916 318.742C173.377 319.16 173.84 319.578 174.303 319.994L174.614 319.647C175.077 320.062 175.541 320.477 176.005 320.89L175.695 321.238C176.16 321.651 176.626 322.064 177.093 322.474L177.401 322.125C177.867 322.535 178.335 322.944 178.803 323.352L178.497 323.704C178.966 324.113 179.437 324.521 179.908 324.928L180.213 324.575C180.685 324.982 181.158 325.388 181.632 325.793L181.329 326.148C181.804 326.553 182.279 326.957 182.756 327.36L183.057 327.004C183.532 327.406 184.009 327.807 184.487 328.207L184.187 328.564C184.666 328.964 185.145 329.363 185.624 329.761L185.922 329.402C186.401 329.799 186.881 330.195 187.362 330.59L187.067 330.95C187.548 331.345 188.031 331.739 188.514 332.131L188.808 331.769C189.291 332.161 189.774 332.552 190.259 332.942L189.967 333.305C190.452 333.695 190.938 334.083 191.425 334.471L191.715 334.106C192.201 334.493 192.688 334.878 193.176 335.263L192.888 335.629C193.378 336.014 193.868 336.399 194.36 336.782L194.646 336.414C195.138 336.797 195.63 337.179 196.124 337.56L195.839 337.929C196.333 338.31 196.828 338.69 197.323 339.068L197.606 338.698C198.101 339.076 198.597 339.453 199.094 339.828L198.813 340.2C199.31 340.576 199.808 340.95 200.307 341.324L200.587 340.951C201.085 341.323 201.584 341.695 202.084 342.065L201.807 342.44C202.308 342.81 202.809 343.179 203.311 343.547L203.587 343.172C204.089 343.539 204.591 343.905 205.094 344.27L204.821 344.648C205.325 345.013 205.829 345.377 206.335 345.74L206.607 345.361C207.112 345.723 207.617 346.084 208.124 346.444L207.854 346.824C208.363 347.185 208.872 347.545 209.382 347.903L209.65 347.522C210.16 347.88 210.67 348.237 211.182 348.593L210.916 348.975C211.428 349.331 211.941 349.686 212.455 350.039L212.719 349.655C213.232 350.008 213.746 350.36 214.26 350.71L213.998 351.095C214.514 351.446 215.03 351.795 215.547 352.143L215.807 351.757C216.323 352.104 216.84 352.451 217.358 352.796L217.099 353.183C217.618 353.529 218.137 353.873 218.657 354.215L218.913 353.826C219.433 354.169 219.953 354.509 220.474 354.849L220.219 355.239C220.741 355.579 221.263 355.918 221.786 356.255L222.039 355.864C222.561 356.201 223.084 356.536 223.608 356.87L223.357 357.263C223.883 357.599 224.41 357.933 224.937 358.266L225.186 357.872C225.713 358.204 226.24 358.535 226.769 358.865L226.522 359.26C227.051 359.59 227.581 359.919 228.111 360.247L228.356 359.85C228.886 360.177 229.416 360.503 229.948 360.827L229.705 361.225C230.237 361.549 230.77 361.873 231.303 362.195L231.544 361.796C232.077 362.117 232.61 362.438 233.144 362.757L232.905 363.157C233.44 363.476 233.976 363.794 234.512 364.11L234.749 363.709C235.285 364.025 235.821 364.34 236.358 364.653L236.123 365.056C236.661 365.37 237.199 365.682 237.739 365.993L237.971 365.59C238.51 365.9 239.049 366.21 239.59 366.518L239.359 366.923C239.9 367.232 240.443 367.539 240.986 367.846L241.215 367.44C241.758 367.746 242.301 368.05 242.845 368.353L242.618 368.76C243.162 369.064 243.708 369.366 244.254 369.667L244.478 369.259C245.024 369.559 245.57 369.858 246.116 370.156L245.893 370.565C246.441 370.863 246.989 371.16 247.537 371.455L247.758 371.045C248.306 371.34 248.855 371.633 249.404 371.925L249.185 372.337C249.735 372.629 250.286 372.92 250.837 373.21L251.054 372.797C251.605 373.087 252.156 373.375 252.708 373.661L252.493 374.075C253.046 374.362 253.599 374.647 254.153 374.931L254.366 374.517C254.919 374.801 255.473 375.083 256.028 375.365L255.818 375.78C256.374 376.062 256.931 376.343 257.488 376.622L257.697 376.205C258.254 376.484 258.811 376.761 259.369 377.037L259.163 377.455C259.721 377.731 260.281 378.006 260.841 378.279L261.045 377.861C261.605 378.134 262.165 378.405 262.725 378.676L262.523 379.095C263.084 379.366 263.646 379.635 264.209 379.903L264.409 379.482C264.971 379.75 265.533 380.016 266.096 380.281L265.898 380.703C266.462 380.968 267.026 381.231 267.591 381.493L267.787 381.071C268.351 381.333 268.916 381.593 269.482 381.852L269.288 382.276C269.854 382.535 270.421 382.793 270.988 383.05L271.18 382.625C271.747 382.882 272.315 383.137 272.883 383.39L272.693 383.816C273.262 384.07 273.832 384.323 274.403 384.574L274.591 384.147C275.16 384.398 275.731 384.648 276.302 384.896L276.116 385.323C276.687 385.572 277.26 385.819 277.832 386.064L278.016 385.636C278.588 385.881 279.161 386.125 279.734 386.367L279.552 386.797C280.126 387.039 280.701 387.281 281.276 387.52L281.455 387.09C282.029 387.33 282.604 387.568 283.18 387.805L283.002 388.236C283.578 388.473 284.155 388.708 284.732 388.942L284.908 388.511C285.484 388.744 286.061 388.977 286.639 389.208L286.466 389.64C287.044 389.872 287.623 390.102 288.202 390.33L288.373 389.896C288.952 390.125 289.532 390.352 290.112 390.577L289.943 391.011C290.524 391.237 291.106 391.461 291.688 391.684L291.854 391.249C292.436 391.472 293.017 391.693 293.6 391.913L293.435 392.349C294.018 392.569 294.602 392.787 295.186 393.004L295.348 392.567C295.932 392.784 296.516 393 297.1 393.214L296.94 393.651C297.525 393.865 298.11 394.078 298.697 394.289L298.855 393.851C299.44 394.062 300.026 394.272 300.612 394.48L300.456 394.919C301.043 395.127 301.631 395.334 302.219 395.54L302.373 395.1C302.96 395.305 303.548 395.509 304.136 395.712L303.985 396.152C304.574 396.355 305.164 396.556 305.754 396.756L305.903 396.314C306.493 396.514 307.083 396.712 307.673 396.909L307.526 397.351C308.117 397.548 308.709 397.743 309.301 397.937L309.446 397.494C310.037 397.688 310.629 397.88 311.222 398.071L311.079 398.515C311.672 398.706 312.265 398.895 312.859 399.083L313 398.639C313.593 398.827 314.187 399.014 314.781 399.199L314.643 399.644C315.238 399.829 315.833 400.013 316.429 400.195L316.565 399.749C317.16 399.931 317.756 400.112 318.352 400.291L318.217 400.737C318.814 400.917 319.411 401.095 320.009 401.271L320.141 400.824C320.738 401 321.335 401.175 321.932 401.348L321.803 401.796C322.401 401.97 323 402.142 323.599 402.312L323.727 401.864C324.325 402.034 324.924 402.203 325.523 402.371L325.398 402.819C325.998 402.987 326.599 403.153 327.2 403.318L327.323 402.868C327.923 403.033 328.523 403.196 329.124 403.357L329.003 403.807C329.605 403.969 330.207 404.129 330.81 404.288L330.929 403.838C331.153 403.897 331.378 403.956 331.603 404.015C331.98 404.113 332.358 404.211 332.735 404.309L332.618 404.76C333.222 404.916 333.825 405.07 334.43 405.223L334.544 404.771C335.147 404.924 335.751 405.075 336.355 405.225L336.243 405.677C336.848 405.827 337.453 405.975 338.058 406.122L338.168 405.669C338.773 405.816 339.378 405.962 339.984 406.105L339.876 406.559C340.482 406.703 341.089 406.845 341.696 406.986L341.801 406.532C342.407 406.673 343.014 406.812 343.62 406.95L343.517 407.404C344.125 407.542 344.732 407.679 345.341 407.814L345.442 407.359C346.049 407.493 346.657 407.627 347.265 407.759L347.166 408.214C347.775 408.346 348.384 408.477 348.994 408.606L349.09 408.15C349.699 408.278 350.308 408.406 350.918 408.532L350.824 408.988C351.434 409.114 352.045 409.239 352.655 409.362L352.747 408.905C353.358 409.028 353.968 409.149 354.579 409.269L354.489 409.726C355.101 409.846 355.712 409.965 356.325 410.082L356.412 409.624C357.024 409.741 357.635 409.856 358.247 409.97L358.162 410.428C358.774 410.542 359.387 410.655 360 410.766L360.083 410.307C360.695 410.418 361.307 410.527 361.92 410.635L361.839 411.094C362.453 411.202 363.066 411.308 363.681 411.413L363.759 410.954C363.955 410.987 364.152 411.021 364.348 411.054C364.765 411.125 365.182 411.195 365.6 411.264L365.524 411.724C366.138 411.825 366.753 411.926 367.368 412.025L367.442 411.565C368.057 411.663 368.671 411.761 369.286 411.856L369.215 412.317C369.83 412.413 370.446 412.507 371.063 412.6L371.132 412.139C371.748 412.232 372.363 412.323 372.979 412.413L372.912 412.874C373.529 412.964 374.146 413.052 374.763 413.139L374.828 412.678C375.445 412.764 376.061 412.849 376.678 412.933L376.615 413.395C377.232 413.479 377.85 413.561 378.467 413.641L378.527 413.179C379.144 413.26 379.761 413.339 380.378 413.416L380.32 413.879C380.938 413.956 381.557 414.033 382.175 414.107L382.231 413.645C382.848 413.719 383.466 413.792 384.085 413.863L384.031 414.326C384.65 414.398 385.269 414.468 385.888 414.537L385.94 414.073C386.558 414.142 387.177 414.209 387.796 414.274L387.747 414.737C388.367 414.803 388.987 414.867 389.607 414.929L389.654 414.466C390.273 414.528 390.893 414.589 391.513 414.648L391.468 415.112C392.089 415.171 392.71 415.229 393.331 415.286L393.373 414.822C393.992 414.878 394.612 414.932 395.232 414.986L395.192 415.45C395.812 415.503 396.433 415.555 397.054 415.605L397.091 415.14C397.711 415.191 398.331 415.239 398.951 415.286L398.916 415.751C399.537 415.798 400.158 415.843 400.78 415.887L400.812 415.423C401.433 415.467 402.054 415.509 402.675 415.55L402.644 416.015C403.266 416.056 403.888 416.095 404.51 416.133L404.538 415.668C405.159 415.706 405.781 415.742 406.402 415.777L406.376 416.242C406.999 416.277 407.621 416.311 408.244 416.342L408.267 415.877C408.889 415.909 409.511 415.939 410.133 415.968L410.112 416.433C410.735 416.462 411.358 416.489 411.981 416.515L412 416.049C412.622 416.075 413.243 416.099 413.864 416.121L413.847 416.587C414.47 416.609 415.092 416.63 415.714 416.65L415.729 416.184C416.35 416.203 416.972 416.221 417.593 416.238L417.581 416.703C418.204 416.72 418.826 416.735 419.449 416.748L419.459 416.282C420.081 416.295 420.703 416.307 421.325 416.317L421.318 416.783C421.941 416.793 422.564 416.802 423.187 416.809L423.192 416.343C423.815 416.35 424.437 416.356 425.06 416.36L425.057 416.826C425.68 416.83 426.304 416.833 426.927 416.834L426.928 416.368C427.551 416.369 428.174 416.368 428.797 416.366L428.798 416.832C429.422 416.83 430.046 416.826 430.669 416.821L430.666 416.355C431.287 416.35 431.908 416.343 432.53 416.335L432.536 416.801C433.158 416.793 433.781 416.783 434.403 416.771L434.395 416.305C435.016 416.294 435.638 416.281 436.26 416.267L436.271 416.733C436.893 416.718 437.516 416.702 438.138 416.685L438.125 416.219C438.379 416.212 438.633 416.204 438.886 416.197C439.254 416.186 439.623 416.174 439.991 416.162L440.007 416.627C440.629 416.607 441.252 416.585 441.875 416.561L441.857 416.095C442.479 416.072 443.101 416.046 443.724 416.02L443.744 416.485C444.367 416.458 444.99 416.43 445.613 416.4L445.59 415.935C446.212 415.905 446.835 415.873 447.457 415.84L447.482 416.306C448.104 416.273 448.727 416.238 449.349 416.202L449.322 415.737C449.942 415.701 450.563 415.663 451.183 415.624L451.212 416.089C451.833 416.05 452.454 416.01 453.075 415.967L453.044 415.503C453.664 415.46 454.284 415.417 454.904 415.372L454.938 415.836C455.559 415.791 456.18 415.744 456.801 415.696L456.765 415.231C457.385 415.183 458.006 415.133 458.626 415.082L458.664 415.546C459.285 415.494 459.906 415.441 460.527 415.387L460.487 414.923C461.107 414.868 461.727 414.812 462.347 414.754L462.39 415.218C463.011 415.161 463.632 415.101 464.253 415.041L464.208 414.577C464.828 414.516 465.448 414.454 466.068 414.39L466.116 414.854C466.736 414.79 467.356 414.724 467.975 414.657L467.925 414.194C468.543 414.127 469.16 414.059 469.778 413.989L469.83 414.452C470.448 414.383 471.066 414.311 471.684 414.238L471.63 413.775C472.247 413.703 472.864 413.628 473.481 413.552L473.538 414.015C474.156 413.939 474.774 413.861 475.392 413.782L475.333 413.32C475.95 413.24 476.567 413.16 477.184 413.078L477.246 413.54C477.863 413.457 478.481 413.373 479.099 413.288L479.035 412.826C479.652 412.741 480.268 412.654 480.885 412.566L480.951 413.027C481.569 412.939 482.186 412.849 482.803 412.757L482.735 412.296C483.352 412.204 483.968 412.111 484.584 412.017L484.655 412.477C485.271 412.383 485.886 412.287 486.502 412.189L486.428 411.729C487.042 411.632 487.655 411.533 488.268 411.432L488.343 411.892C488.957 411.792 489.571 411.69 490.184 411.586L490.107 411.127C490.72 411.023 491.332 410.918 491.945 410.812L492.025 411.271C492.638 411.164 493.251 411.056 493.865 410.946L493.782 410.487C494.395 410.378 495.007 410.266 495.619 410.153L495.704 410.612C496.317 410.499 496.93 410.384 497.542 410.268L497.456 409.81C498.067 409.695 498.679 409.577 499.291 409.458L499.38 409.916C499.992 409.796 500.605 409.676 501.217 409.553L501.126 409.096C501.737 408.974 502.348 408.851 502.96 408.725L503.053 409.182C503.663 409.057 504.273 408.93 504.882 408.802L504.786 408.346C505.394 408.219 506.001 408.089 506.608 407.959L506.706 408.414C507.314 408.283 507.922 408.151 508.529 408.017L508.429 407.562C509.036 407.428 509.643 407.293 510.249 407.156L510.352 407.61C510.959 407.473 511.566 407.335 512.173 407.194L512.068 406.74C512.674 406.6 513.28 406.459 513.886 406.316L513.993 406.769C514.6 406.626 515.206 406.481 515.813 406.335L515.703 405.882C516.309 405.735 516.914 405.588 517.519 405.438L517.631 405.891C518.237 405.741 518.842 405.59 519.448 405.437L519.334 404.986C519.939 404.833 520.543 404.679 521.148 404.523L521.264 404.975C521.867 404.82 522.469 404.663 523.072 404.505L522.953 404.054C523.553 403.896 524.153 403.737 524.753 403.576L524.873 404.027C525.474 403.866 526.074 403.703 526.674 403.539L526.551 403.09C527.151 402.926 527.75 402.76 528.349 402.594L528.474 403.042C529.073 402.875 529.673 402.707 530.272 402.536L530.145 402.088C530.743 401.918 531.341 401.747 531.939 401.574L532.069 402.021C532.668 401.848 533.266 401.673 533.864 401.497L533.733 401.05C534.33 400.874 534.927 400.696 535.525 400.517L535.659 400.963C536.256 400.783 536.854 400.602 537.451 400.42L537.315 399.974C537.912 399.792 538.508 399.608 539.104 399.422L539.243 399.867C539.837 399.682 540.431 399.496 541.025 399.308L540.884 398.863C541.476 398.676 542.067 398.487 542.657 398.297L542.8 398.741C543.392 398.55 543.983 398.358 544.574 398.165L544.429 397.722C545.019 397.528 545.609 397.334 546.199 397.137L546.346 397.579C546.937 397.383 547.527 397.185 548.117 396.985L547.967 396.543C548.308 396.428 548.648 396.312 548.989 396.196C549.237 396.111 549.486 396.026 549.734 395.94L549.886 396.381C550.475 396.178 551.064 395.974 551.653 395.768L551.499 395.328C552.087 395.123 552.675 394.915 553.263 394.707L553.419 395.146C554.007 394.937 554.595 394.726 555.183 394.514L555.025 394.076C555.612 393.864 556.198 393.651 556.785 393.436L556.945 393.873C557.53 393.659 558.115 393.443 558.699 393.226L558.537 392.789C559.118 392.573 559.698 392.355 560.279 392.136L560.443 392.572C561.024 392.352 561.605 392.131 562.185 391.909L562.019 391.474C562.229 391.393 562.439 391.312 562.649 391.231C563.019 391.089 563.388 390.946 563.757 390.802L563.926 391.237C564.506 391.011 565.085 390.784 565.664 390.555L565.493 390.122C566.072 389.894 566.65 389.664 567.228 389.432L567.401 389.865C567.98 389.633 568.558 389.4 569.136 389.165L568.961 388.734C569.538 388.499 570.115 388.263 570.691 388.026L570.869 388.457C571.446 388.219 572.023 387.979 572.6 387.739L572.42 387.309C572.697 387.193 572.974 387.077 573.251 386.96C573.55 386.835 573.848 386.709 574.147 386.582L574.329 387.011C574.903 386.768 575.478 386.523 576.052 386.276L575.868 385.848C576.437 385.604 577.006 385.358 577.574 385.111L577.76 385.538C578.33 385.29 578.898 385.041 579.467 384.79L579.279 384.364C579.529 384.254 579.78 384.143 580.03 384.032C580.347 383.891 580.664 383.75 580.981 383.608L581.171 384.034C581.739 383.78 582.306 383.525 582.874 383.268L582.681 382.843C583.248 382.587 583.814 382.329 584.379 382.07L584.574 382.493C585.14 382.233 585.706 381.972 586.272 381.709L586.075 381.287C586.64 381.024 587.205 380.76 587.769 380.494L587.967 380.916C588.532 380.65 589.097 380.383 589.661 380.114L589.461 379.693C590.024 379.425 590.587 379.155 591.15 378.883L591.352 379.303C591.916 379.031 592.479 378.757 593.041 378.482L592.837 378.064C593.393 377.792 593.949 377.518 594.505 377.243L594.712 377.661C595.268 377.386 595.823 377.109 596.378 376.831L596.17 376.415C596.724 376.137 597.278 375.858 597.832 375.577L598.043 375.993C598.597 375.712 599.151 375.429 599.705 375.145L599.492 374.73C600.045 374.447 600.597 374.162 601.15 373.875L601.364 374.288C601.917 374.001 602.469 373.713 603.021 373.423L602.805 373.01C603.356 372.721 603.907 372.43 604.457 372.137L604.676 372.548C605.227 372.255 605.778 371.961 606.328 371.665L606.108 371.254C606.657 370.959 607.207 370.662 607.755 370.363L607.978 370.772C608.528 370.473 609.077 370.173 609.625 369.871L609.401 369.462C609.539 369.386 609.678 369.31 609.817 369.233L609.589 368.822L609.997 368.596L609.089 366.958L608.682 367.184L607.775 365.545L608.182 365.319L607.275 363.681L606.868 363.907L605.961 362.268L606.368 362.043L605.461 360.404L605.053 360.63L604.146 358.992L604.554 358.766L603.647 357.128L603.239 357.353L602.332 355.715L602.74 355.489L601.833 353.851L601.425 354.077L600.518 352.438L600.926 352.213L600.019 350.574L599.611 350.8L598.704 349.162L599.112 348.936L598.204 347.298L597.797 347.523L596.89 345.885L597.297 345.659L596.39 344.021L595.983 344.247L595.075 342.608L595.483 342.383L594.576 340.744L594.168 340.97L593.261 339.332L593.669 339.106L592.762 337.467L592.354 337.693L591.447 336.055L591.855 335.829L590.948 334.191L590.54 334.416L589.633 332.778L590.041 332.552L589.134 330.914L588.726 331.14L587.819 329.501L588.226 329.276L587.319 327.637L586.912 327.863L586.005 326.225L586.412 325.999L585.505 324.361L585.098 324.586L584.19 322.948L584.598 322.722L583.691 321.084L583.283 321.31L582.376 319.671L582.784 319.446L581.877 317.807L581.469 318.033L580.562 316.395L580.97 316.169L580.063 314.531L579.655 314.756L578.748 313.118L579.156 312.892L578.248 311.254L577.841 311.48L576.934 309.841L577.341 309.615L576.434 307.977L576.027 308.203L575.12 306.564L575.527 306.339L574.62 304.7L574.212 304.926L573.305 303.288L573.713 303.062L572.806 301.424L572.398 301.649L571.491 300.011L571.899 299.785L570.992 298.147L570.584 298.373L569.677 296.734L570.085 296.509L569.178 294.87L568.77 295.096L567.863 293.458L568.271 293.232L567.363 291.594L566.956 291.819L566.049 290.181L566.456 289.955L565.549 288.317L565.142 288.543L564.234 286.904L564.642 286.679L563.735 285.04L563.327 285.266L562.42 283.628L562.828 283.402L561.921 281.763L561.513 281.989L560.606 280.351L561.014 280.125L560.107 278.487L559.699 278.712L558.792 277.074L559.2 276.848L558.293 275.21L557.885 275.436L556.978 273.797L557.385 273.572L556.478 271.933L556.071 272.159L555.164 270.521L555.571 270.295L554.664 268.657L554.257 268.882L553.349 267.244L553.757 267.018L552.85 265.38L552.442 265.606L551.535 263.967L551.943 263.742L551.036 262.103L550.628 262.329L549.721 260.691L550.129 260.465L549.222 258.826L548.814 259.052L547.907 257.414L548.315 257.188L547.407 255.55L547 255.775L546.093 254.137L546.5 253.911L545.593 252.273L545.186 252.499L544.279 250.86L544.686 250.635L543.779 248.996L543.371 249.222L542.464 247.584L542.872 247.358L541.965 245.72L541.557 245.945L540.65 244.307L541.058 244.081L540.151 242.443L539.743 242.669L538.836 241.03L539.244 240.805L538.337 239.166L537.929 239.392L537.022 237.754L537.43 237.528L536.522 235.89L536.115 236.115L535.208 234.477L535.615 234.251L534.708 232.613L534.301 232.839L533.394 231.2L533.801 230.975L532.894 229.336L532.486 229.562L531.579 227.924L531.987 227.698L531.08 226.06L530.672 226.285L529.765 224.647L530.173 224.421L529.266 222.783L528.858 223.009L527.951 221.37L528.359 221.144L527.452 219.506L527.044 219.732L526.137 218.093L526.544 217.868L525.637 216.229L525.23 216.455L524.323 214.817L524.73 214.591L523.823 212.953L523.416 213.178L522.508 211.54L522.916 211.314L522.009 209.676L521.601 209.902L520.694 208.263L521.102 208.038L520.195 206.399L519.787 206.625L518.88 204.987L519.288 204.761L518.381 203.123L517.973 203.348L517.066 201.71L517.474 201.484L516.567 199.846L516.159 200.072L515.252 198.433L515.659 198.208L514.752 196.569L514.345 196.795L513.891 195.976C513.74 195.702 513.588 195.428 513.435 195.155L513.843 194.928C513.538 194.381 513.232 193.835 512.925 193.29L512.519 193.519C512.212 192.974 511.905 192.431 511.596 191.888L512.001 191.658C511.691 191.115 511.381 190.573 511.069 190.032L510.665 190.265C510.354 189.724 510.042 189.185 509.728 188.647L510.131 188.412C509.817 187.874 509.502 187.336 509.186 186.799L508.784 187.036C508.677 186.854 508.57 186.673 508.463 186.492C508.254 186.138 508.044 185.784 507.834 185.431L508.234 185.193C507.916 184.658 507.596 184.124 507.275 183.592L506.876 183.832C506.556 183.301 506.234 182.77 505.912 182.24L506.31 181.998C505.987 181.468 505.663 180.938 505.338 180.41L504.941 180.654C504.801 180.426 504.66 180.198 504.519 179.971C504.334 179.671 504.148 179.372 503.962 179.074L504.358 178.827C504.027 178.296 503.695 177.765 503.362 177.236L502.968 177.484C502.635 176.955 502.301 176.427 501.966 175.9L502.359 175.65C502.024 175.123 501.687 174.597 501.35 174.072L500.958 174.324C500.62 173.799 500.282 173.276 499.943 172.753L500.333 172.499C499.993 171.976 499.652 171.454 499.31 170.934L498.921 171.19C498.579 170.669 498.236 170.15 497.892 169.632L498.281 169.375C497.936 168.856 497.591 168.339 497.244 167.822L496.857 168.082C496.511 167.566 496.164 167.051 495.816 166.538L496.201 166.276C495.853 165.762 495.503 165.249 495.152 164.737L494.768 165C494.417 164.489 494.065 163.979 493.713 163.469L494.096 163.204C493.74 162.69 493.383 162.178 493.025 161.667L492.644 161.934C492.286 161.422 491.926 160.911 491.566 160.402L491.946 160.133C491.585 159.622 491.223 159.113 490.86 158.605L490.481 158.876C490.119 158.369 489.755 157.863 489.39 157.358L489.768 157.085C489.403 156.579 489.036 156.075 488.669 155.571L488.293 155.846C487.926 155.343 487.558 154.841 487.188 154.341L487.564 154.064C487.194 153.563 486.823 153.063 486.452 152.564L486.078 152.842C485.707 152.344 485.334 151.847 484.961 151.351L485.333 151.071C484.96 150.574 484.585 150.078 484.209 149.584L483.838 149.866C483.462 149.372 483.086 148.88 482.708 148.388L483.078 148.104C482.698 147.61 482.317 147.117 481.935 146.624L481.567 146.91C481.184 146.417 480.8 145.924 480.415 145.433L480.781 145.146C480.396 144.654 480.009 144.164 479.621 143.674L479.256 143.964C478.869 143.475 478.481 142.987 478.091 142.501L478.455 142.21C478.066 141.723 477.675 141.237 477.283 140.752L476.92 141.045C476.529 140.561 476.137 140.078 475.743 139.596L476.104 139.301C475.71 138.819 475.315 138.338 474.919 137.858L474.559 138.154C474.164 137.675 473.767 137.196 473.37 136.719L473.728 136.421C473.33 135.943 472.93 135.467 472.53 134.991L472.174 135.291C471.774 134.817 471.373 134.343 470.972 133.871L471.327 133.569C470.923 133.094 470.518 132.621 470.113 132.149L469.759 132.452C469.353 131.978 468.945 131.506 468.536 131.035L468.888 130.729C468.479 130.258 468.068 129.787 467.657 129.318L467.306 129.625C466.895 129.156 466.483 128.688 466.071 128.222L466.419 127.913C466.006 127.446 465.592 126.98 465.176 126.515L464.829 126.826C464.414 126.362 463.998 125.899 463.581 125.437L463.927 125.125C463.509 124.662 463.091 124.201 462.671 123.741L462.327 124.055C461.908 123.596 461.488 123.138 461.067 122.681L461.41 122.365C460.988 121.908 460.566 121.452 460.142 120.996L459.801 121.314C459.378 120.859 458.954 120.406 458.529 119.954L458.869 119.635C458.442 119.181 458.015 118.728 457.586 118.277L457.249 118.598C456.819 118.145 456.388 117.694 455.957 117.244L456.293 116.921C455.861 116.47 455.428 116.021 454.993 115.572L454.659 115.897C454.225 115.449 453.79 115.002 453.355 114.557L453.688 114.231C453.252 113.785 452.815 113.341 452.377 112.897L452.045 113.225C451.608 112.782 451.169 112.34 450.73 111.9L451.06 111.571C450.62 111.13 450.179 110.69 449.737 110.251L449.409 110.582C449.214 110.389 449.018 110.195 448.823 110.002C448.576 109.759 448.329 109.515 448.082 109.272L448.408 108.94C447.964 108.504 447.52 108.069 447.074 107.635L446.749 107.969C446.304 107.536 445.858 107.104 445.411 106.674L445.734 106.338C445.285 105.906 444.836 105.475 444.385 105.046L444.064 105.383C443.612 104.952 443.16 104.523 442.706 104.095L443.026 103.756C442.572 103.328 442.117 102.9 441.662 102.474L441.343 102.815C440.888 102.389 440.432 101.965 439.975 101.542L440.291 101.2C439.834 100.776 439.375 100.354 438.916 99.9329L438.601 100.277C438.142 99.856 437.682 99.4367 437.221 99.0187L437.534 98.6736C437.073 98.2551 436.61 97.8378 436.147 97.4218L435.836 97.7685C435.373 97.353 434.91 96.9388 434.445 96.5258L434.755 96.1775C434.29 95.7641 433.824 95.3518 433.357 94.9409L433.049 95.2906C432.583 94.8802 432.116 94.471 431.647 94.0631L431.954 93.7117C431.484 93.3024 431.013 92.8943 430.542 92.4875L430.237 92.8403C429.765 92.433 429.292 92.0269 428.818 91.622L429.121 91.2677C428.646 90.8624 428.171 90.4584 427.694 90.0556L427.394 90.4114C426.918 90.0092 426.441 89.6082 425.964 89.2085L426.263 88.8512C425.785 88.451 425.306 88.0521 424.826 87.6545L424.528 88.0133C424.049 87.6161 423.569 87.2203 423.088 86.8257L423.383 86.4654C422.902 86.0704 422.419 85.6766 421.936 85.2842L421.642 85.6459C421.159 85.2539 420.676 84.8632 420.191 84.4738L420.483 84.1106C419.998 83.7207 419.512 83.3321 419.025 82.9448L418.735 83.3094C418.249 82.9226 417.762 82.537 417.274 82.1528L417.562 81.7867C417.072 81.401 416.582 81.0166 416.09 80.6336L415.804 81.0011C415.312 80.6179 414.82 80.2359 414.326 79.8553L414.611 79.4863C414.117 79.1052 413.622 78.7254 413.127 78.3469L412.844 78.7173C412.349 78.3393 411.853 77.9625 411.356 77.5871L411.637 77.2154C411.14 76.8395 410.642 76.4649 410.143 76.0917L409.864 76.4648C409.365 76.092 408.866 75.7205 408.366 75.3504L408.643 74.9758C408.142 74.6052 407.641 74.2359 407.139 73.8679L406.863 74.2438C406.362 73.8762 405.859 73.51 405.356 73.1451L405.629 72.7678C405.125 72.4024 404.621 72.0384 404.115 71.6756L403.843 72.0543C403.338 71.692 402.833 71.331 402.326 70.9713L402.596 70.5914C402.088 70.2304 401.578 69.8707 401.068 69.5123L400.8 69.8936C400.29 69.5353 399.78 69.1784 399.268 68.8228L399.534 68.4402C399.022 68.0842 398.509 67.7295 397.995 67.3761L397.731 67.7601C397.218 67.4071 396.704 67.0555 396.19 66.7053L396.452 66.3201C395.936 65.9694 395.42 65.62 394.904 65.272L394.643 65.6585C394.127 65.3109 393.61 64.9647 393.092 64.6197L393.351 64.2319C392.832 63.8866 392.313 63.5426 391.793 63.1999L391.537 63.589C391.017 63.2468 390.497 62.9059 389.976 62.5663L390.231 62.1759C389.709 61.836 389.187 61.4973 388.664 61.16L388.412 61.5516C387.889 61.2148 387.366 60.8792 386.842 60.545L387.093 60.1522C386.567 59.8167 386.04 59.4825 385.513 59.1497L385.264 59.5438C384.737 59.2114 384.21 58.8803 383.681 58.5505L383.928 58.1552C383.399 57.825 382.869 57.4963 382.339 57.1688L382.094 57.5654C381.564 57.2383 381.034 56.9127 380.502 56.5883L380.745 56.1906C380.213 55.8659 379.68 55.5425 379.147 55.2206L378.906 55.6195C378.373 55.2979 377.84 54.9777 377.306 54.6588L377.545 54.2587C377.01 53.9394 376.474 53.6215 375.938 53.3049L375.701 53.7062C375.165 53.3901 374.629 53.0753 374.092 52.7619L374.327 52.3594C373.789 52.0456 373.251 51.7332 372.712 51.4221L372.479 51.8257C371.94 51.5149 371.401 51.2054 370.861 50.8974L371.091 50.4926C370.55 50.1836 370.007 49.8759 369.464 49.5696L369.235 49.9755C368.693 49.6696 368.149 49.365 367.605 49.0619L367.832 48.6549C367.288 48.3513 366.743 48.0492 366.197 47.7484L365.972 48.1565C365.426 47.8561 364.881 47.5571 364.334 47.2595L364.557 46.8502C364.009 46.5522 363.461 46.2556 362.913 45.9603L362.692 46.3706C362.144 46.0758 361.595 45.7823 361.046 45.4901L361.265 45.0787C360.715 44.7863 360.164 44.4952 359.613 44.2055L359.396 44.618C358.846 44.3286 358.294 44.0407 357.742 43.7541L357.957 43.3405C357.404 43.0536 356.851 42.7681 356.297 42.4839L356.085 42.8985C355.531 42.6145 354.977 42.3319 354.422 42.0507L354.632 41.635C354.076 41.3532 353.519 41.0727 352.962 40.7937L352.753 41.2103C352.196 40.9316 351.639 40.6543 351.081 40.3784L351.287 39.9607C350.729 39.6844 350.169 39.4095 349.609 39.1361L349.405 39.5548C348.845 39.2817 348.285 39.0099 347.725 38.7396L347.927 38.3199C347.366 38.0492 346.804 37.78 346.242 37.5121L346.041 37.9329C345.479 37.6653 344.917 37.3992 344.354 37.1345L344.552 36.7128C343.988 36.4478 343.424 36.1842 342.859 35.922L342.663 36.3446C342.099 36.0827 341.534 35.8223 340.968 35.5632L341.162 35.1396C340.596 34.8802 340.03 34.6222 339.462 34.3656L339.27 34.7902C338.703 34.5337 338.135 34.2786 337.567 34.025L337.757 33.5995C337.188 33.3454 336.618 33.0928 336.047 32.8415L335.859 33.268C335.29 33.0171 334.719 32.7675 334.149 32.5195L334.334 32.0921C333.763 31.8437 333.19 31.5967 332.618 31.3512L332.434 31.7795C331.862 31.5342 331.289 31.2904 330.716 31.048L330.898 30.6188C330.324 30.3761 329.749 30.1348 329.174 29.895L328.995 30.325C328.617 30.1673 328.238 30.0102 327.86 29.8537C327.663 29.7725 327.467 29.6915 327.27 29.6107L327.448 29.1797C326.872 28.9427 326.295 28.7071 325.718 28.473L325.543 28.9048C324.966 28.671 324.389 28.4385 323.811 28.2076L323.984 27.7749C323.406 27.5436 322.827 27.3138 322.248 27.0854L322.077 27.5189C321.498 27.2906 320.918 27.0637 320.338 26.8383L320.507 26.4039C319.926 26.1782 319.344 25.9539 318.762 25.731L318.596 26.1662C318.014 25.9436 317.433 25.7225 316.85 25.5028L317.015 25.0668C316.432 24.8468 315.848 24.6283 315.264 24.4112L315.102 24.848C314.518 24.6311 313.935 24.4158 313.35 24.2018L313.51 23.7642C312.925 23.55 312.34 23.3373 311.754 23.126L311.596 23.5643C311.01 23.3533 310.424 23.1437 309.838 22.9355L309.994 22.4964C309.407 22.2879 308.819 22.081 308.231 21.8754L308.077 22.3153C307.49 22.1101 306.902 21.9062 306.314 21.7038L306.465 21.2632C305.876 21.0606 305.287 20.8594 304.697 20.6596L304.547 21.101C303.958 20.9014 303.368 20.7033 302.777 20.5067L302.924 20.0646C302.333 19.8677 301.741 19.6722 301.149 19.4783L301.004 19.9211C300.413 19.7273 299.821 19.535 299.228 19.3442L299.371 18.9007C298.778 18.7096 298.185 18.52 297.591 18.3318L297.45 18.7761C296.857 18.5882 296.263 18.4017 295.669 18.2167L295.807 17.7718C295.213 17.5866 294.617 17.4028 294.021 17.2205L293.885 17.6661C293.29 17.484 292.694 17.3034 292.099 17.1242L292.233 16.678C291.636 16.4986 291.039 16.3207 290.441 16.1443L290.309 16.5912C289.713 16.415 289.115 16.2402 288.518 16.0669L288.647 15.6194C288.049 15.4459 287.45 15.2738 286.851 15.1033L286.723 15.5514C286.125 15.3811 285.526 15.2122 284.927 15.0448L285.052 14.596C284.452 14.4284 283.851 14.2622 283.251 14.0976L283.127 14.547C282.527 14.3825 281.927 14.2195 281.326 14.058L281.447 13.608C280.845 13.4462 280.243 13.286 279.64 13.1272L279.522 13.5778C278.92 13.4193 278.318 13.2622 277.715 13.1065L277.832 12.6554C277.228 12.4996 276.625 12.3452 276.021 12.1924L275.906 12.6441C275.303 12.4914 274.699 12.3402 274.095 12.1905L274.207 11.7382C273.602 11.5883 272.997 11.4399 272.392 11.293L272.282 11.7459C271.677 11.5991 271.072 11.4539 270.466 11.3101L270.574 10.8567C269.968 10.7128 269.361 10.5704 268.754 10.4294L268.649 10.8833C268.043 10.7426 267.437 10.6033 266.83 10.4656L266.933 10.0111C266.325 9.8732 265.718 9.73674 265.109 9.60177L265.008 10.0567C264.401 9.92188 263.793 9.78856 263.185 9.65674L263.284 9.20134C262.675 9.06935 262.066 8.93886 261.456 8.80985L261.36 9.26573C260.751 9.13689 260.142 9.00954 259.532 8.88367L259.626 8.42733C259.016 8.30131 258.406 8.17678 257.795 8.05376L257.703 8.51057C257.093 8.3877 256.482 8.26632 255.871 8.14643L255.961 7.68918C255.349 7.56915 254.738 7.45062 254.125 7.33358L254.038 7.79128C253.427 7.67439 252.815 7.55901 252.203 7.44512L252.288 6.98701C251.676 6.87307 251.063 6.76064 250.45 6.6497L250.367 7.10823C249.755 6.99743 249.143 6.88813 248.53 6.78034L248.611 6.32141C247.997 6.21347 247.384 6.10704 246.77 6.00212L246.691 6.46144C246.078 6.35665 245.464 6.25335 244.85 6.15156L244.927 5.69186C244.312 5.58994 243.697 5.48954 243.082 5.39063L243.008 5.8507C242.393 5.75192 241.779 5.65465 241.164 5.55888L241.235 5.09845C240.62 5.00256 240.004 4.90818 239.387 4.81531L239.318 5.27609C238.702 5.18333 238.087 5.09209 237.471 5.00236L237.538 4.54125C236.921 4.4514 236.304 4.36307 235.687 4.27625L235.622 4.73769C235.005 4.65102 234.389 4.56585 233.772 4.48221L233.835 4.02046C233.218 3.93678 232.6 3.85461 231.983 3.77396L231.923 4.23601C231.306 4.15545 230.689 4.07641 230.072 3.99889L230.13 3.53654C229.512 3.45891 228.894 3.38281 228.275 3.30821L228.219 3.77083C227.602 3.69633 226.984 3.62334 226.366 3.55187L226.419 3.08897C225.8 3.01742 225.181 2.94738 224.562 2.87886L224.51 3.34201C223.892 3.27357 223.273 3.20666 222.654 3.14126L222.703 2.67786C222.083 2.61238 221.463 2.54843 220.843 2.486L220.796 2.94962C220.177 2.88727 219.557 2.82644 218.938 2.76712L218.982 2.30327C218.361 2.24389 217.741 2.18602 217.12 2.12969L217.077 2.59376C216.458 2.53756 215.838 2.48288 215.218 2.42972L215.258 1.96544C214.638 1.91226 214.017 1.8606 213.397 1.81046L213.359 2.27493C212.739 2.22485 212.119 2.1763 211.499 2.12927L211.534 1.66462C210.913 1.61753 210.292 1.57198 209.671 1.52795L209.638 1.99276C209.017 1.94878 208.396 1.90633 207.775 1.8654L207.806 1.40043C207.184 1.35946 206.562 1.32002 205.94 1.2821L205.912 1.74722C205.291 1.70935 204.669 1.67302 204.048 1.63821L204.074 1.17296C203.452 1.13812 202.829 1.1048 202.207 1.07302L202.183 1.53838C201.561 1.50664 200.939 1.47643 200.317 1.44776L200.338 0.982274C199.715 0.953566 199.092 0.926388 198.469 0.900752L198.45 1.36634C197.829 1.34078 197.207 1.31676 196.586 1.29426L196.603 0.828595C195.981 0.806083 195.358 0.785102 194.736 0.765656L194.722 1.2314C194.1 1.21199 193.478 1.1941 192.857 1.17775L192.869 0.711922C192.246 0.695547 191.624 0.68071 191.001 0.667408L190.991 1.13328C190.369 1.12 189.747 1.10825 189.125 1.09804L189.132 0.632114C188.509 0.621888 187.886 0.613202 187.263 0.606058L187.258 1.07201C186.635 1.06487 186.013 1.05928 185.39 1.05522L185.393 0.589253C184.77 0.58519 184.146 0.582676 183.523 0.581702L183.522 1.04767C182.899 1.0467 182.276 1.04727 181.653 1.04938L181.652 0.583406C181.028 0.585521 180.404 0.589184 179.781 0.594394L179.785 1.06035C179.163 1.06554 178.542 1.07226 177.92 1.08052L177.914 0.614583C177.292 0.622854 176.669 0.632664 176.047 0.644021L176.056 1.10993C175.434 1.12126 174.812 1.13415 174.19 1.14857L174.18 0.682715C173.557 0.697153 172.934 0.713142 172.312 0.730673L172.325 1.19646C171.703 1.21397 171.081 1.23302 170.459 1.25361L170.444 0.787889C169.821 0.808507 169.198 0.830682 168.575 0.854398L168.593 1.32003C167.971 1.34373 167.349 1.36896 166.727 1.39574L166.706 0.930192C166.084 0.957006 165.461 0.985378 164.838 1.01529L164.86 1.48073C164.238 1.51061 163.615 1.54204 162.993 1.57502L162.968 1.1097C162.346 1.14269 161.723 1.17723 161.101 1.21333L161.128 1.67852C160.508 1.71449 159.887 1.75198 159.267 1.79103L159.238 1.32597C158.617 1.36506 157.996 1.4057 157.375 1.44789L157.407 1.91279C156.786 1.95493 156.166 1.99861 155.546 2.04383L155.512 1.57909C154.891 1.62438 154.27 1.67121 153.649 1.71959L153.685 2.18416C153.065 2.23248 152.444 2.28235 151.824 2.33378L151.786 1.8694C151.165 1.92088 150.544 1.97392 149.923 2.02852L149.963 2.4927C149.343 2.54723 148.723 2.60331 148.103 2.66094L148.06 2.19695C147.439 2.25465 146.818 2.31391 146.197 2.37473L146.242 2.83849C145.622 2.89923 145.002 2.96153 144.382 3.02538L144.334 2.56185C143.714 2.62567 143.095 2.69105 142.475 2.75798L142.525 3.22127C141.907 3.28795 141.29 3.35618 140.673 3.42596L140.62 2.96293C140.002 3.0328 139.384 3.10422 138.766 3.17718L138.82 3.63995C138.203 3.71283 137.586 3.78725 136.969 3.86322L136.912 3.40074C136.294 3.47681 135.676 3.55443 135.058 3.6336L135.117 4.0958C134.5 4.17489 133.883 4.25552 133.266 4.3377L133.205 3.8758C132.587 3.95809 131.969 4.04193 131.352 4.12733L131.415 4.58892C130.798 4.67421 130.182 4.76106 129.565 4.84947L129.499 4.3882C128.881 4.47672 128.264 4.56679 127.647 4.65843L127.715 5.11936C127.099 5.21088 126.482 5.30396 125.866 5.3986L125.795 4.93802C125.179 5.03253 124.564 5.1286 123.949 5.22622L124.022 5.68644C123.408 5.78372 122.795 5.88255 122.182 5.98292L122.107 5.52307C121.493 5.62357 120.879 5.72562 120.266 5.82922L120.343 6.28869C119.731 6.39217 119.118 6.49719 118.505 6.60377L118.425 6.14469C117.812 6.25139 117.199 6.35965 116.585 6.46946L116.668 6.92814C116.055 7.03782 115.443 7.14906 114.831 7.26185L114.746 6.80358C114.133 6.9165 113.521 7.03099 112.908 7.14703L112.995 7.60487C112.383 7.72077 111.771 7.83822 111.159 7.95723L111.07 7.49983C110.458 7.61899 109.845 7.73971 109.233 7.86199L109.324 8.31894C108.713 8.44107 108.102 8.56475 107.491 8.69L107.397 8.23351C106.787 8.35848 106.178 8.48501 105.568 8.6131L105.664 9.06912C105.056 9.19676 104.449 9.32594 103.842 9.45666L103.744 9.00113C103.136 9.13202 102.528 9.26446 101.921 9.39845L102.021 9.8535C101.414 9.98731 100.808 10.1227 100.201 10.2596L100.098 9.80506C99.4912 9.94216 98.8841 10.0808 98.2771 10.221L98.382 10.675C97.7758 10.815 97.1698 10.9566 96.5639 11.0997L96.4568 10.6462C95.8502 10.7895 95.2438 10.9344 94.6375 11.0808L94.7469 11.5338C94.1414 11.68 93.5361 11.8278 92.9309 11.9771L92.8193 11.5247C92.2134 11.6743 91.6077 11.8253 91.0021 11.978L91.116 12.4298C90.5112 12.5823 89.9067 12.7363 89.3022 12.8919L89.1861 12.4406C88.5834 12.5957 87.9809 12.7524 87.3785 12.9107L87.4969 13.3613C86.8969 13.519 86.297 13.6782 85.6973 13.8389L85.5767 13.3888C84.9762 13.5497 84.376 13.7122 83.7759 13.8762L83.8988 14.3257C83.2995 14.4895 82.7004 14.6549 82.1016 14.8218L81.9765 14.3729C81.3768 14.54 80.7774 14.7087 80.1782 14.8789L80.3056 15.3271C79.7071 15.4971 79.1089 15.6687 78.5109 15.8418L78.3814 15.3941C77.7826 15.5674 77.1841 15.7423 76.5858 15.9187L76.7176 16.3657C76.12 16.5418 75.5227 16.7196 74.9256 16.8989L74.7916 16.4526C74.1937 16.6321 73.5961 16.8131 72.9987 16.9958L73.135 17.4414C72.5383 17.6238 71.9419 17.8077 71.3458 17.9932L71.2074 17.5483C70.613 17.7332 70.0189 17.9197 69.425 18.1077L69.5656 18.552C68.9744 18.7391 68.3834 18.9279 67.7927 19.1181L67.6498 18.6746C67.0583 18.8651 66.4671 19.0571 65.8761 19.2507L66.0212 19.6935C65.4309 19.8868 64.8409 20.0817 64.2512 20.2781L64.104 19.836C63.5135 20.0326 62.9233 20.2308 62.3334 20.4305L62.4828 20.8719C61.8936 21.0714 61.3047 21.2724 60.716 21.4749L60.5644 21.0343C59.975 21.2371 59.3858 21.4415 58.797 21.6474L58.9508 22.0872C58.3627 22.2929 57.7748 22.5 57.1873 22.7087L57.0313 22.2696C56.443 22.4786 55.855 22.6891 55.2672 22.9012L55.4254 23.3395C54.8384 23.5513 54.2517 23.7647 53.6652 23.9796L53.5049 23.5421C52.9199 23.7564 52.3353 23.9723 51.7509 24.1898L51.9134 24.6265C51.3325 24.8426 50.7519 25.0603 50.1716 25.2795L50.0069 24.8435C49.4259 25.063 48.8451 25.284 48.2647 25.5065L48.4315 25.9416C47.8517 26.1638 47.2723 26.3876 46.6932 26.6129L46.5243 26.1786C45.9444 26.4042 45.3649 26.6313 44.7857 26.8599L44.9568 27.2933C44.3783 27.5217 43.8001 27.7515 43.2222 27.9829L43.049 27.5503C42.4704 27.782 41.8921 28.0152 41.3142 28.25L41.4895 28.6817C40.9123 28.9161 40.3354 29.1521 39.7588 29.3896L39.5813 28.9588C39.004 29.1966 38.427 29.4359 37.8504 29.6768L38.03 30.1068C37.4541 30.3474 36.8785 30.5895 36.3032 30.8331L36.1215 30.404C35.5467 30.6475 34.9724 30.8924 34.3983 31.1389L34.5822 31.567C34.013 31.8114 33.4442 32.0573 32.8757 32.3047L32.6898 31.8774C32.1206 32.1251 31.5518 32.3743 30.9833 32.625L31.1714 33.0514C30.6036 33.3018 30.0361 33.5537 29.469 33.8071L29.2789 33.3817C28.7111 33.6354 28.1437 33.8907 27.5766 34.1475L27.7688 34.5719C27.2025 34.8284 26.6364 35.0864 26.0708 35.3458L25.8765 34.9223C25.3101 35.1821 24.7441 35.4434 24.1785 35.7062L24.3748 36.1288C23.8099 36.3913 23.2453 36.6553 22.6811 36.9209L22.4827 36.4993C21.9178 36.7651 21.3532 37.0325 20.789 37.3014L20.9895 37.7221C20.4261 37.9906 19.863 38.2607 19.3003 38.5323L19.0977 38.1127C18.5343 38.3846 17.9713 38.6581 17.4086 38.9331L17.6133 39.3517C17.0568 39.6237 16.5007 39.8972 15.9449 40.1722L15.7383 39.7545C15.1824 40.0296 14.6269 40.3061 14.0717 40.5842L14.2804 41.0008C13.7259 41.2785 13.1718 41.5577 12.6181 41.8384L12.4074 41.4228C11.853 41.7038 11.2991 41.9864 10.7455 42.2704L10.9582 42.685C10.4053 42.9687 9.85273 43.2538 9.30061 43.5405L9.08588 43.127C8.5331 43.414 7.98071 43.7025 7.42873 43.9925L7.64547 44.405C7.09415 44.6947 6.54323 44.9858 5.99272 45.2785L5.77399 44.867C5.22281 45.1601 4.67205 45.4546 4.1217 45.7506L4.34243 46.161C3.79276 46.4566 3.2435 46.7538 2.69466 47.0525L2.47193 46.6432C1.92242 46.9422 1.37332 47.2427 0.82465 47.5447L1.04936 47.953C0.910718 48.0293 0.7721 48.1057 0.633509 48.1822L0.861209 48.5935L0.453544 48.8192L1.36063 50.4575L1.7683 50.2318L2.67539 51.8702L2.26772 52.0959L3.17481 53.7342L3.58247 53.5085L4.48956 55.1469L4.0819 55.3726L4.98898 57.0109L5.39665 56.7852L6.30374 58.4236L5.89607 58.6493L6.80316 60.2876L7.21083 60.0619L8.11791 61.7003L7.71025 61.926L8.61734 63.5644L9.025 63.3386L9.93209 64.977L9.52443 65.2027L10.4315 66.8411L10.8392 66.6154L11.7463 68.2537L11.3386 68.4794L12.2457 70.1178L12.6534 69.8921L13.5604 71.5304L13.1528 71.7561L14.0599 73.3945L14.4675 73.1688L15.3746 74.8071L14.967 75.0328L15.874 76.6712L16.2817 76.4455L17.1888 78.0838L16.7811 78.3095L17.6882 79.9479L18.0959 79.7222L19.003 81.3605L18.5953 81.5862L19.5024 83.2246L19.9101 82.9989L20.8171 84.6372L20.4095 84.8629L21.3166 86.5013L21.7242 86.2756L22.6313 87.9139L22.2237 88.1396L23.1307 89.778L23.5384 89.5523L24.4455 91.1906L24.0378 91.4163L24.9449 93.0547L25.3526 92.829L26.2597 94.4673L25.852 94.693L26.7591 96.3314L27.1668 96.1057L28.0738 97.744L27.6662 97.9698L28.5733 99.6081L28.9809 99.3824L29.888 101.021L29.4804 101.246L30.3874 102.885L30.7951 102.659L31.7022 104.297L31.2945 104.523L32.2016 106.162L32.6093 105.936L33.5164 107.574L33.1087 107.8L34.0158 109.438L34.4235 109.213L35.3306 110.851L34.9229 111.077L35.83 112.715L36.2376 112.489L37.1447 114.128L36.7371 114.353L37.6442 115.992L38.0518 115.766L38.9589 117.404L38.5512 117.63L39.4583 119.268L39.866 119.043L40.7731 120.681L40.3654 120.907L41.2725 122.545L41.6802 122.319L42.5873 123.958L42.1796 124.183L43.0867 125.822L43.4944 125.596L44.4014 127.234L43.9938 127.46L44.9009 129.098L45.3085 128.873L46.2156 130.511L45.808 130.737L46.7151 132.375L47.1227 132.149L48.0298 133.788L47.6221 134.014L48.5292 135.652L48.9369 135.426L49.844 137.065L49.4363 137.29L50.3434 138.929L50.7511 138.703L51.6582 140.341L51.2505 140.567L52.1576 142.205L52.5652 141.98L53.4723 143.618L53.0647 143.844L53.9718 145.482L54.3794 145.256L55.2865 146.895L54.8789 147.12L55.7859 148.759L56.1936 148.533L57.1007 150.171L56.693 150.397L57.6001 152.035L58.0078 151.81L58.9149 153.448L58.5072 153.674L59.4143 155.312L59.822 155.086L60.7291 156.725L60.3214 156.951L61.2285 158.589L61.6361 158.363L62.5432 160.002L62.1356 160.227L63.0427 161.866L63.4503 161.64L64.3574 163.278L63.9497 163.504L64.8568 165.142L65.2645 164.917L66.1716 166.555L65.7639 166.781L66.671 168.419L67.0787 168.193L67.9857 169.832L67.5781 170.057L68.4852 171.696L68.8928 171.47L69.7999 173.108L69.3923 173.334L70.2993 174.972L70.707 174.747L71.6141 176.385L71.2064 176.611L72.1135 178.249L72.5212 178.023L73.4283 179.662L73.0206 179.887L73.9277 181.526L74.3353 181.3L75.2424 182.938L74.8348 183.164L75.7419 184.802L76.1495 184.577L77.0566 186.215L76.6489 186.441L77.556 188.079L77.9637 187.853L78.8708 189.492L78.4631 189.718L79.3702 191.356L79.7779 191.13L80.6849 192.769L80.2773 192.994L81.1844 194.633L81.592 194.407L82.4991 196.045L82.0915 196.271L82.9985 197.909L83.4062 197.684L84.3133 199.322L83.9056 199.548L84.8127 201.186L85.2204 200.96L86.1275 202.599L85.7198 202.824L86.6269 204.463L87.0345 204.237L87.9416 205.875L87.534 206.101L88.4411 207.739L88.8487 207.514L89.7558 209.152L89.3481 209.378L90.2552 211.016L90.6629 210.79L91.57 212.429L91.1623 212.654L92.0694 214.293L92.4771 214.067L93.3841 215.705L92.9765 215.931L93.8836 217.569L94.2912 217.344L95.1983 218.982L94.7907 219.208L95.6977 220.846L96.1054 220.62L96.559 221.44Z" stroke="white" stroke-width="0.931955" stroke-dasharray="1.86 1.86"/>
</svg>
