<svg width="330" height="667" viewBox="0 0 330 667" fill="none" xmlns="http://www.w3.org/2000/svg">
<path d="M279.689 166.537C279.823 166.769 279.956 167 280.089 167.232L280.436 167.033C280.702 167.498 280.968 167.962 281.232 168.427L280.885 168.624C281.149 169.089 281.412 169.553 281.674 170.019L282.022 169.823C282.284 170.288 282.545 170.754 282.805 171.22L282.457 171.415C282.716 171.88 282.975 172.346 283.232 172.813L283.582 172.62C283.839 173.087 284.096 173.554 284.351 174.021L284.001 174.213C284.256 174.68 284.51 175.147 284.763 175.615L285.114 175.425C285.367 175.893 285.619 176.362 285.87 176.83L285.518 177.019C285.769 177.487 286.018 177.956 286.267 178.425L286.619 178.238C286.868 178.707 287.116 179.177 287.362 179.647L287.008 179.832C287.254 180.302 287.499 180.772 287.743 181.242L288.098 181.058C288.342 181.529 288.585 182 288.827 182.471L288.472 182.654C288.715 183.128 288.957 183.602 289.199 184.077L289.555 183.897C289.797 184.374 290.038 184.851 290.278 185.328L289.921 185.508C290.161 185.985 290.399 186.462 290.637 186.94L290.994 186.762C291.232 187.24 291.469 187.719 291.704 188.198L291.346 188.374C291.581 188.852 291.815 189.331 292.047 189.81L292.407 189.635C292.64 190.114 292.872 190.594 293.102 191.074L292.743 191.247C292.973 191.726 293.203 192.206 293.431 192.686L293.791 192.515C294.02 192.995 294.247 193.476 294.474 193.957L294.112 194.127C294.338 194.608 294.563 195.089 294.787 195.57L295.149 195.402C295.373 195.883 295.596 196.365 295.818 196.847L295.455 197.014C295.676 197.496 295.897 197.978 296.116 198.46L296.479 198.295C296.699 198.778 296.917 199.261 297.134 199.745L296.77 199.909C296.989 200.396 297.207 200.884 297.424 201.372L297.789 201.21C298.006 201.698 298.221 202.187 298.436 202.676L298.07 202.837C298.285 203.325 298.498 203.814 298.71 204.303L299.076 204.144C299.289 204.634 299.5 205.124 299.71 205.614L299.343 205.771C299.553 206.261 299.761 206.751 299.969 207.241L300.336 207.085C300.544 207.576 300.751 208.067 300.956 208.558L300.588 208.712C300.793 209.203 300.997 209.694 301.2 210.185L301.569 210.032C301.772 210.524 301.974 211.016 302.175 211.508L301.805 211.659C302.006 212.151 302.205 212.643 302.403 213.135L302.774 212.986C302.972 213.479 303.17 213.972 303.366 214.465L302.995 214.612C303.191 215.105 303.386 215.598 303.579 216.091L303.951 215.945C304.146 216.441 304.339 216.937 304.532 217.433L304.159 217.577C304.352 218.075 304.544 218.573 304.735 219.071L305.108 218.929C305.299 219.428 305.489 219.927 305.677 220.426L305.304 220.567C305.492 221.066 305.679 221.565 305.865 222.064L306.24 221.925C306.426 222.424 306.611 222.924 306.795 223.425L306.42 223.563C306.604 224.062 306.786 224.562 306.968 225.062L307.343 224.926C307.525 225.427 307.705 225.928 307.885 226.429L307.509 226.563C307.688 227.064 307.866 227.565 308.043 228.066L308.419 227.933C308.596 228.435 308.772 228.936 308.947 229.438L308.57 229.57C308.744 230.071 308.917 230.573 309.09 231.075L309.467 230.945C309.64 231.448 309.811 231.95 309.981 232.453L309.603 232.581C309.772 233.083 309.941 233.586 310.109 234.089L310.488 233.962C310.657 234.469 310.824 234.977 310.991 235.484L310.612 235.609C310.778 236.115 310.943 236.623 311.108 237.13L311.488 237.007C311.652 237.515 311.815 238.023 311.977 238.531L311.597 238.652C311.758 239.16 311.919 239.668 312.078 240.176L312.459 240.056C312.619 240.565 312.778 241.074 312.935 241.583L312.553 241.701C312.71 242.209 312.866 242.718 313.021 243.227L313.403 243.11C313.558 243.62 313.712 244.129 313.865 244.639L313.482 244.754C313.635 245.263 313.786 245.772 313.936 246.282L314.319 246.169C314.469 246.679 314.619 247.189 314.767 247.7L314.383 247.811C314.531 248.321 314.678 248.831 314.823 249.341L315.207 249.232C315.353 249.742 315.497 250.253 315.641 250.764L315.256 250.872C315.4 251.385 315.542 251.898 315.684 252.411L316.069 252.305C316.211 252.819 316.352 253.334 316.491 253.85L316.106 253.954C316.245 254.469 316.383 254.983 316.52 255.498L316.906 255.395C317.044 255.911 317.18 256.426 317.314 256.942L316.928 257.043C317.063 257.559 317.196 258.074 317.329 258.589L317.716 258.49C317.848 259.006 317.98 259.522 318.11 260.039L317.723 260.136C317.853 260.652 317.981 261.168 318.109 261.684L318.497 261.588C318.625 262.105 318.751 262.622 318.877 263.139L318.489 263.233C318.614 263.749 318.738 264.266 318.862 264.783L319.25 264.69C319.373 265.207 319.495 265.725 319.616 266.242L319.227 266.333C319.348 266.85 319.467 267.367 319.586 267.884L319.975 267.795C320.094 268.314 320.211 268.833 320.328 269.352L319.938 269.439C320.055 269.959 320.17 270.48 320.285 271.001L320.675 270.915C320.789 271.436 320.903 271.957 321.015 272.479L320.624 272.563C320.736 273.084 320.847 273.605 320.957 274.126L321.348 274.044C321.457 274.565 321.566 275.087 321.673 275.609L321.282 275.689C321.39 276.211 321.496 276.732 321.601 277.254L321.992 277.175C322.097 277.697 322.201 278.219 322.304 278.742L321.912 278.819C322.015 279.341 322.116 279.863 322.217 280.385L322.609 280.309C322.709 280.832 322.808 281.354 322.906 281.877L322.514 281.951C322.612 282.473 322.709 282.995 322.804 283.518L323.197 283.446C323.293 283.969 323.387 284.492 323.481 285.015L323.088 285.085C323.181 285.608 323.273 286.131 323.364 286.654L323.757 286.585C323.849 287.111 323.939 287.637 324.028 288.163L323.635 288.23C323.724 288.755 323.812 289.281 323.898 289.806L324.292 289.741C324.379 290.268 324.465 290.794 324.549 291.32L324.155 291.383C324.239 291.909 324.322 292.435 324.404 292.961L324.799 292.899C324.881 293.426 324.962 293.953 325.042 294.479L324.647 294.539C324.726 295.065 324.805 295.591 324.882 296.117L325.277 296.059C325.355 296.586 325.431 297.113 325.506 297.64L325.111 297.696C325.186 298.223 325.259 298.749 325.332 299.275L325.728 299.221C325.8 299.748 325.872 300.275 325.942 300.802L325.546 300.855C325.617 301.381 325.686 301.908 325.754 302.435L326.15 302.384C326.218 302.911 326.285 303.438 326.35 303.965L325.954 304.015C326.02 304.544 326.085 305.072 326.148 305.601L326.545 305.553C326.608 306.083 326.671 306.613 326.732 307.142L326.335 307.188C326.396 307.717 326.456 308.247 326.515 308.776L326.912 308.732C326.971 309.261 327.029 309.791 327.085 310.321L326.688 310.363C326.745 310.893 326.8 311.422 326.854 311.951L327.251 311.911C327.306 312.441 327.359 312.97 327.411 313.5L327.013 313.539C327.065 314.069 327.116 314.598 327.165 315.127L327.563 315.09C327.612 315.62 327.661 316.15 327.708 316.68L327.31 316.716C327.357 317.245 327.403 317.775 327.448 318.304L327.846 318.271C327.891 318.801 327.934 319.331 327.977 319.861L327.579 319.893C327.621 320.422 327.663 320.952 327.703 321.481L328.101 321.451C328.141 321.982 328.18 322.514 328.218 323.045L327.82 323.074C327.858 323.605 327.895 324.137 327.93 324.668L328.329 324.641C328.364 325.173 328.399 325.705 328.432 326.237L328.033 326.262C328.067 326.793 328.099 327.325 328.13 327.856L328.528 327.833C328.559 328.365 328.589 328.897 328.618 329.429L328.219 329.45C328.248 329.981 328.275 330.513 328.301 331.044L328.7 331.024C328.726 331.556 328.751 332.088 328.775 332.62L328.376 332.638C328.4 333.169 328.423 333.7 328.445 334.231L328.844 334.215C328.865 334.747 328.886 335.279 328.905 335.81L328.506 335.825C328.525 336.356 328.543 336.887 328.56 337.418L328.959 337.405C328.976 337.937 328.992 338.469 329.007 339L328.608 339.011C328.622 339.543 328.636 340.075 328.648 340.607L329.047 340.598C329.059 341.131 329.071 341.664 329.081 342.197L328.681 342.204C328.691 342.737 328.7 343.269 328.708 343.801L329.107 343.796C329.115 344.328 329.121 344.861 329.127 345.394L328.727 345.398C328.733 345.93 328.737 346.462 328.74 346.994L329.139 346.992C329.142 347.525 329.144 348.057 329.145 348.59L328.745 348.59C328.746 349.122 328.745 349.654 328.744 350.186L329.143 350.187C329.141 350.72 329.139 351.252 329.135 351.784L328.735 351.781C328.731 352.313 328.726 352.845 328.72 353.376L329.119 353.381C329.113 353.913 329.105 354.445 329.097 354.977L328.697 354.971C328.689 355.502 328.679 356.033 328.668 356.565L329.067 356.573C329.056 357.105 329.044 357.638 329.031 358.17L328.632 358.16C328.619 358.692 328.604 359.225 328.589 359.757L328.988 359.769C328.972 360.301 328.955 360.834 328.937 361.366L328.538 361.353C328.52 361.885 328.501 362.417 328.481 362.949L328.88 362.964C328.86 363.496 328.838 364.028 328.816 364.56L328.417 364.544C328.394 365.075 328.371 365.607 328.346 366.138L328.745 366.157C328.72 366.689 328.694 367.22 328.667 367.752L328.268 367.732C328.241 368.263 328.212 368.794 328.183 369.325L328.581 369.347C328.552 369.879 328.521 370.41 328.489 370.941L328.091 370.917C328.059 371.448 328.026 371.979 327.992 372.509L328.391 372.535C328.356 373.066 328.321 373.597 328.285 374.128L327.886 374.1C327.85 374.631 327.812 375.162 327.774 375.692L328.172 375.721C328.133 376.253 328.093 376.784 328.052 377.316L327.654 377.285C327.613 377.815 327.571 378.346 327.527 378.876L327.925 378.909C327.882 379.44 327.837 379.971 327.791 380.502L327.394 380.467C327.348 380.997 327.301 381.527 327.253 382.057L327.651 382.093C327.603 382.624 327.554 383.154 327.503 383.684L327.106 383.646C327.055 384.176 327.004 384.705 326.951 385.235L327.349 385.274C327.296 385.804 327.242 386.334 327.187 386.863L326.79 386.822C326.735 387.351 326.679 387.88 326.622 388.409L327.019 388.452C326.962 388.981 326.904 389.51 326.844 390.039L326.447 389.994C326.388 390.522 326.327 391.051 326.266 391.579L326.662 391.625C326.6 392.154 326.537 392.683 326.473 393.211L326.077 393.163C326.013 393.692 325.947 394.22 325.881 394.748L326.277 394.798C326.211 395.326 326.143 395.855 326.074 396.383L325.678 396.331C325.61 396.859 325.54 397.387 325.469 397.914L325.865 397.967C325.794 398.495 325.721 399.023 325.648 399.55L325.253 399.495C325.179 400.022 325.105 400.549 325.029 401.076L325.425 401.132C325.349 401.659 325.272 402.186 325.194 402.713L324.799 402.655C324.721 403.181 324.643 403.707 324.562 404.233L324.957 404.293C324.877 404.819 324.796 405.345 324.713 405.871L324.319 405.81C324.236 406.335 324.153 406.86 324.068 407.385L324.462 407.449C324.378 407.974 324.292 408.5 324.205 409.025L323.811 408.96C323.724 409.484 323.636 410.009 323.547 410.533L323.94 410.6C323.851 411.125 323.76 411.65 323.669 412.175L323.275 412.106C323.184 412.631 323.091 413.155 322.997 413.678L323.391 413.749C323.297 414.273 323.202 414.797 323.105 415.321L322.713 415.249C322.617 415.772 322.519 416.295 322.421 416.818L322.814 416.892C322.715 417.415 322.616 417.938 322.515 418.461L322.123 418.386C322.022 418.908 321.92 419.43 321.818 419.952L322.209 420.029C322.106 420.552 322.002 421.074 321.897 421.596L321.506 421.517C321.401 422.039 321.294 422.56 321.187 423.081L321.578 423.161C321.471 423.683 321.362 424.204 321.252 424.725L320.861 424.643C320.752 425.163 320.641 425.683 320.529 426.203L320.92 426.287C320.808 426.808 320.695 427.328 320.58 427.848L320.19 427.763C320.141 427.989 320.091 428.215 320.041 428.441C319.976 428.734 319.91 429.028 319.844 429.321L320.234 429.408C320.117 429.928 320 430.447 319.881 430.967L319.492 430.877C319.373 431.396 319.253 431.914 319.132 432.432L319.521 432.523C319.4 433.042 319.278 433.56 319.155 434.078L318.766 433.986C318.643 434.503 318.519 435.021 318.394 435.538L318.782 435.632C318.656 436.149 318.529 436.667 318.402 437.184L318.014 437.088C317.886 437.604 317.758 438.12 317.628 438.636L318.015 438.734C317.885 439.25 317.754 439.766 317.622 440.282L317.235 440.183C317.103 440.698 316.969 441.213 316.835 441.728L317.222 441.829C317.087 442.344 316.951 442.859 316.815 443.374L316.429 443.271C316.292 443.785 316.155 444.299 316.016 444.812L316.401 444.917C316.262 445.431 316.122 445.944 315.981 446.458L315.596 446.352C315.455 446.865 315.313 447.378 315.17 447.89L315.554 447.997C315.411 448.51 315.266 449.023 315.121 449.535L314.737 449.426C314.591 449.937 314.445 450.449 314.297 450.96L314.681 451.071C314.533 451.582 314.384 452.094 314.234 452.605L313.851 452.492C313.701 453.002 313.55 453.513 313.398 454.022L313.78 454.137C313.628 454.647 313.475 455.157 313.32 455.667L312.938 455.551C312.784 456.06 312.628 456.569 312.472 457.077L312.853 457.195C312.697 457.704 312.539 458.212 312.38 458.721L311.999 458.601C311.84 459.109 311.68 459.617 311.519 460.124L311.9 460.244C311.739 460.752 311.576 461.259 311.413 461.766L311.033 461.644C310.87 462.15 310.706 462.656 310.54 463.161L310.92 463.285C310.755 463.791 310.588 464.297 310.42 464.803L310.041 464.677C309.967 464.901 309.893 465.124 309.818 465.348C309.724 465.629 309.63 465.91 309.536 466.19L309.914 466.318C309.744 466.822 309.573 467.327 309.401 467.83L309.023 467.701C308.851 468.205 308.678 468.708 308.504 469.211L308.882 469.341C308.707 469.844 308.532 470.347 308.356 470.85L307.979 470.718C307.802 471.219 307.625 471.721 307.447 472.222L307.823 472.356C307.644 472.858 307.464 473.359 307.284 473.86L306.908 473.725C306.727 474.225 306.546 474.725 306.363 475.225L306.738 475.362C306.555 475.863 306.371 476.362 306.186 476.862L305.811 476.723C305.626 477.222 305.44 477.72 305.253 478.218L305.627 478.359C305.44 478.857 305.251 479.355 305.062 479.852L304.689 479.71C304.5 480.207 304.309 480.704 304.118 481.2L304.49 481.344C304.299 481.84 304.106 482.337 303.912 482.833L303.541 482.687C303.347 483.183 303.152 483.678 302.957 484.172L303.328 484.319C303.132 484.814 302.935 485.309 302.737 485.803L302.366 485.655C302.168 486.149 301.969 486.642 301.769 487.135L302.139 487.285C301.939 487.779 301.738 488.272 301.535 488.765L301.166 488.613C301.069 488.849 300.972 489.085 300.874 489.321C300.769 489.577 300.663 489.832 300.556 490.088L300.925 490.241C300.72 490.733 300.515 491.225 300.308 491.716L299.94 491.561C299.733 492.051 299.526 492.541 299.317 493.031L299.685 493.187C299.476 493.677 299.266 494.167 299.055 494.656L298.688 494.498C298.478 494.986 298.266 495.473 298.053 495.961L298.419 496.121C298.207 496.608 297.993 497.096 297.778 497.583L297.412 497.421C297.197 497.908 296.981 498.394 296.764 498.879L297.129 499.042C296.912 499.528 296.694 500.014 296.474 500.499L296.11 500.335C295.891 500.819 295.671 501.303 295.45 501.787L295.813 501.953C295.591 502.438 295.369 502.921 295.145 503.405L294.783 503.237C294.559 503.72 294.335 504.202 294.11 504.684L294.471 504.854C294.245 505.336 294.019 505.818 293.791 506.3L293.43 506.129C293.202 506.61 292.973 507.091 292.744 507.571L293.104 507.743C292.874 508.224 292.643 508.704 292.411 509.184L292.051 509.01C291.819 509.488 291.587 509.967 291.353 510.445L291.712 510.62C291.478 511.098 291.243 511.576 291.007 512.053L290.649 511.875C290.413 512.352 290.176 512.828 289.938 513.303L290.296 513.482C290.058 513.958 289.818 514.434 289.578 514.909L289.222 514.728C288.982 515.203 288.741 515.677 288.499 516.151L288.854 516.332C288.612 516.807 288.369 517.28 288.124 517.753L287.77 517.57C287.525 518.043 287.28 518.515 287.034 518.986L287.388 519.171C287.141 519.643 286.894 520.115 286.645 520.586L286.292 520.4C286.044 520.87 285.794 521.341 285.544 521.81L285.896 521.998C285.645 522.468 285.394 522.938 285.141 523.407L284.789 523.218C284.537 523.686 284.283 524.154 284.028 524.622L284.379 524.813C284.124 525.281 283.869 525.748 283.612 526.215L283.262 526.022C283.006 526.488 282.749 526.953 282.49 527.417L282.839 527.611C282.581 528.076 282.321 528.541 282.061 529.005L281.713 528.809C281.452 529.273 281.191 529.736 280.928 530.198L281.276 530.395C281.013 530.858 280.749 531.32 280.485 531.782L280.138 531.584C279.874 532.045 279.608 532.506 279.342 532.966L279.687 533.166C279.42 533.627 279.152 534.088 278.884 534.547L278.539 534.346C278.27 534.805 278.001 535.264 277.73 535.722L278.074 535.925C277.803 536.384 277.531 536.842 277.258 537.3L276.915 537.095C276.816 537.261 276.717 537.426 276.618 537.592C276.443 537.883 276.269 538.174 276.093 538.465L276.435 538.671C276.16 539.128 275.884 539.584 275.607 540.039L275.266 539.831C274.989 540.286 274.711 540.74 274.433 541.193L274.773 541.402C274.495 541.855 274.215 542.308 273.935 542.76L273.595 542.549C273.315 543.001 273.034 543.452 272.752 543.902L273.09 544.114C272.807 544.565 272.524 545.015 272.239 545.465L271.902 545.251C271.737 545.511 271.573 545.771 271.407 546.03C271.287 546.22 271.167 546.409 271.046 546.597L271.382 546.812C271.096 547.261 270.808 547.709 270.519 548.157L270.184 547.94C269.895 548.387 269.606 548.833 269.316 549.279L269.65 549.497C269.359 549.944 269.068 550.389 268.775 550.835L268.441 550.615C268.149 551.06 267.855 551.504 267.561 551.947L267.894 552.168C267.599 552.612 267.303 553.056 267.006 553.499L266.675 553.276C266.378 553.719 266.08 554.16 265.782 554.602L266.113 554.825C265.814 555.267 265.514 555.707 265.214 556.148L264.884 555.922C264.585 556.361 264.284 556.799 263.982 557.236L264.311 557.463C264.009 557.901 263.707 558.338 263.403 558.774L263.075 558.546C262.771 558.982 262.467 559.418 262.161 559.853L262.488 560.083C262.182 560.518 261.875 560.953 261.567 561.387L261.242 561.156C260.934 561.59 260.625 562.023 260.316 562.455L260.641 562.688C260.331 563.121 260.02 563.553 259.708 563.985L259.384 563.751C259.073 564.183 258.76 564.613 258.447 565.043L258.769 565.279C258.455 565.709 258.14 566.139 257.825 566.568L257.503 566.332C257.187 566.761 256.871 567.189 256.553 567.617L256.874 567.855C256.556 568.283 256.237 568.71 255.917 569.137L255.598 568.898C255.278 569.324 254.958 569.749 254.636 570.174L254.955 570.415C254.634 570.839 254.313 571.262 253.99 571.685L253.673 571.443C253.351 571.865 253.028 572.286 252.703 572.707L253.02 572.951C252.695 573.372 252.37 573.793 252.043 574.213L251.728 573.968C251.585 574.152 251.442 574.336 251.298 574.52C251.115 574.755 250.931 574.99 250.747 575.225L251.061 575.471C250.732 575.89 250.403 576.308 250.073 576.726L249.759 576.478C249.429 576.895 249.098 577.311 248.766 577.727L249.078 577.976C248.746 578.392 248.413 578.808 248.078 579.223L247.767 578.972C247.433 579.387 247.098 579.801 246.763 580.214L247.072 580.466C246.736 580.879 246.399 581.292 246.061 581.705L245.752 581.451C245.414 581.863 245.075 582.274 244.735 582.685L245.043 582.94C244.703 583.351 244.361 583.761 244.019 584.171L243.713 583.915C243.373 584.322 243.031 584.729 242.689 585.135L242.994 585.392C242.652 585.798 242.309 586.204 241.964 586.609L241.66 586.351C241.466 586.579 241.271 586.807 241.076 587.035C240.926 587.211 240.776 587.387 240.625 587.562L240.928 587.822C240.582 588.226 240.235 588.629 239.886 589.031L239.584 588.77C239.237 589.172 238.888 589.573 238.538 589.974L238.839 590.236C238.489 590.637 238.138 591.038 237.786 591.437L237.486 591.173C237.134 591.573 236.781 591.971 236.428 592.369L236.726 592.634C236.372 593.033 236.017 593.43 235.661 593.827L235.364 593.56C235.009 593.957 234.652 594.353 234.295 594.748L234.591 595.016C234.233 595.411 233.874 595.806 233.514 596.2L233.219 595.931C232.86 596.325 232.5 596.718 232.138 597.11L232.432 597.38C232.072 597.772 231.711 598.162 231.349 598.552L231.056 598.28C230.825 598.529 230.593 598.778 230.361 599.027C230.23 599.166 230.1 599.305 229.97 599.444L230.261 599.717C229.898 600.105 229.533 600.492 229.168 600.879L228.878 600.604C228.513 600.99 228.147 601.375 227.78 601.76L228.069 602.035C227.702 602.42 227.334 602.805 226.965 603.188L226.677 602.911C226.489 603.107 226.3 603.303 226.11 603.499C225.93 603.686 225.749 603.872 225.568 604.058L225.855 604.337C225.484 604.719 225.112 605.1 224.739 605.481L224.454 605.201C224.298 605.36 224.142 605.519 223.986 605.678C223.769 605.899 223.552 606.12 223.334 606.34L223.618 606.621C223.243 607 222.868 607.378 222.491 607.756L222.208 607.474C222.088 607.595 221.967 607.716 221.846 607.837C221.59 608.093 221.334 608.349 221.077 608.604L221.358 608.887C220.98 609.264 220.601 609.639 220.22 610.014L219.94 609.73C219.561 610.103 219.181 610.476 218.8 610.848L219.079 611.134C218.7 611.505 218.319 611.875 217.937 612.245L217.66 611.958C217.278 612.327 216.896 612.695 216.513 613.063L216.79 613.351C216.407 613.719 216.022 614.086 215.637 614.453L215.362 614.164C214.977 614.53 214.591 614.895 214.205 615.26L214.479 615.551C214.092 615.916 213.704 616.28 213.315 616.644L213.042 616.352C212.86 616.522 212.677 616.693 212.495 616.863C212.288 617.055 212.081 617.248 211.874 617.44L212.145 617.733C211.754 618.095 211.363 618.456 210.97 618.817L210.7 618.523C210.308 618.883 209.915 619.242 209.521 619.601L209.79 619.897C209.395 620.256 209 620.614 208.604 620.972L208.336 620.675C208.134 620.858 207.932 621.04 207.729 621.222C207.535 621.396 207.341 621.571 207.146 621.745L207.412 622.042C207.014 622.398 206.615 622.754 206.216 623.108L205.951 622.81C205.554 623.161 205.157 623.512 204.758 623.862L205.022 624.162C204.623 624.513 204.224 624.862 203.823 625.211L203.561 624.91C203.161 625.259 202.76 625.606 202.358 625.954L202.619 626.256C202.217 626.603 201.814 626.95 201.41 627.296L201.15 626.992C200.746 627.338 200.342 627.683 199.936 628.027L200.195 628.331C199.789 628.675 199.382 629.019 198.974 629.362L198.717 629.056C198.31 629.399 197.902 629.74 197.493 630.081L197.749 630.388C197.339 630.729 196.929 631.07 196.518 631.409L196.263 631.101C195.853 631.441 195.441 631.779 195.028 632.117L195.281 632.426C194.868 632.764 194.455 633.102 194.04 633.438L193.788 633.128C193.595 633.284 193.402 633.441 193.209 633.597C192.987 633.776 192.765 633.955 192.543 634.134L192.793 634.445C192.378 634.779 191.963 635.112 191.546 635.443L191.297 635.131C190.883 635.461 190.468 635.791 190.052 636.12L190.299 636.433C189.883 636.762 189.465 637.09 189.047 637.418L188.801 637.103C188.383 637.43 187.964 637.757 187.545 638.082L187.79 638.398C187.37 638.723 186.949 639.049 186.527 639.373L186.284 639.056C186.141 639.166 185.999 639.275 185.856 639.384C185.577 639.599 185.297 639.812 185.017 640.026L185.259 640.343C184.836 640.666 184.411 640.988 183.986 641.309L183.745 640.99C183.321 641.311 182.895 641.631 182.468 641.95L182.708 642.27C182.281 642.589 181.853 642.908 181.424 643.226L181.186 642.905C180.758 643.223 180.329 643.539 179.899 643.855L180.136 644.177C179.705 644.493 179.274 644.809 178.842 645.123L178.607 644.8C178.175 645.115 177.743 645.428 177.309 645.741L177.543 646.065C177.113 646.375 176.682 646.684 176.251 646.993L176.018 646.668C175.587 646.976 175.156 647.283 174.723 647.59L174.954 647.915C174.521 648.222 174.087 648.528 173.652 648.833L173.422 648.506C172.988 648.811 172.553 649.115 172.117 649.419L172.345 649.746C171.908 650.05 171.471 650.353 171.033 650.655L170.806 650.326C170.368 650.627 169.93 650.928 169.491 651.228L169.716 651.558C169.276 651.858 168.835 652.158 168.394 652.456L168.17 652.125C167.729 652.424 167.287 652.721 166.844 653.018L167.066 653.35C166.623 653.647 166.179 653.943 165.734 654.238L165.513 653.905C165.069 654.2 164.624 654.494 164.178 654.788L164.397 655.121C163.95 655.415 163.503 655.708 163.055 656L162.837 655.665C162.39 655.956 161.943 656.246 161.495 656.535L161.712 656.87C161.267 657.157 160.821 657.444 160.374 657.729L160.159 657.393C159.712 657.678 159.265 657.962 158.817 658.246L159.031 658.583C158.583 658.867 158.133 659.15 157.683 659.433L157.471 659.094C157.022 659.376 156.571 659.657 156.12 659.938L156.331 660.277C155.879 660.557 155.427 660.837 154.973 661.116L154.764 660.776C154.311 661.054 153.858 661.332 153.403 661.609L153.611 661.95C153.156 662.227 152.7 662.503 152.244 662.779L152.037 662.437C151.581 662.712 151.124 662.987 150.667 663.26L150.872 663.603C150.413 663.877 149.954 664.15 149.495 664.422L149.291 664.078C148.832 664.35 148.372 664.621 147.911 664.891L148.113 665.235C147.651 665.506 147.189 665.775 146.726 666.044L146.526 665.699C146.41 665.766 146.293 665.833 146.177 665.9L145.977 665.553L145.631 665.753L144.831 664.367L145.177 664.167L144.376 662.781L144.03 662.981L143.23 661.595L143.576 661.395L142.776 660.009L142.43 660.209L141.63 658.822L141.975 658.623L141.175 657.237L140.829 657.436L140.029 656.05L140.375 655.85L139.575 654.464L139.229 654.664L138.428 653.278L138.774 653.078L137.974 651.692L137.628 651.892L136.828 650.506L137.174 650.306L136.373 648.92L136.028 649.119L135.227 647.733L135.573 647.534L134.773 646.147L134.427 646.347L133.627 644.961L133.973 644.761L133.172 643.375L132.826 643.575L132.026 642.189L132.372 641.989L131.572 640.603L131.226 640.803L130.425 639.416L130.771 639.217L129.971 637.831L129.625 638.03L128.825 636.644L129.171 636.444L128.37 635.058L128.025 635.258L127.224 633.872L127.57 633.672L126.77 632.286L126.424 632.486L125.624 631.1L125.97 630.9L125.169 629.514L124.823 629.713L124.023 628.327L124.369 628.128L123.569 626.741L123.223 626.941L122.423 625.555L122.768 625.355L121.968 623.969L121.622 624.169L120.822 622.783L121.168 622.583L120.368 621.197L120.022 621.396L119.221 620.01L119.567 619.811L118.767 618.425L118.421 618.624L117.621 617.238L117.967 617.038L117.166 615.652L116.821 615.852L116.02 614.466L116.366 614.266L115.566 612.88L115.22 613.08L114.42 611.693L114.766 611.494L113.965 610.108L113.619 610.307L112.819 608.921L113.165 608.722L112.365 607.335L112.019 607.535L111.219 606.149L111.564 605.949L110.764 604.563L110.418 604.763L109.618 603.377L109.964 603.177L109.164 601.791L108.818 601.99L108.017 600.604L108.363 600.405L107.563 599.019L107.217 599.218L106.417 597.832L106.763 597.632L105.962 596.246L105.616 596.446L104.816 595.06L105.162 594.86L104.362 593.474L104.016 593.674L103.216 592.287L103.561 592.088L102.761 590.702L102.415 590.901L101.615 589.515L101.961 589.316L101.161 587.929L100.815 588.129L100.014 586.743L100.36 586.543L99.56 585.157L99.2142 585.357L98.4139 583.971L98.7597 583.771L97.9594 582.385L97.6136 582.585L96.8133 581.198L97.1592 580.999L96.3589 579.613L96.013 579.812L95.2127 578.426L95.5586 578.226L94.7583 576.84L94.4124 577.04L93.6122 575.654L93.958 575.454L93.1577 574.068L92.8119 574.268L92.0116 572.882L92.3574 572.682L91.5571 571.296L91.2113 571.495L90.411 570.109L90.7568 569.91L89.9566 568.523L89.6107 568.723L88.8104 567.337L89.1563 567.137L88.356 565.751L88.0101 565.951L87.2098 564.565L87.5557 564.365L86.7554 562.979L86.4096 563.179L85.6093 561.792L85.9551 561.593L85.1548 560.207L84.809 560.406L84.0087 559.02L84.3545 558.82L83.5542 557.434L83.2084 557.634L82.4081 556.248L82.754 556.048L81.9537 554.662L81.6078 554.862L80.8075 553.476L81.1534 553.276L80.3531 551.89L80.0072 552.089L79.2069 550.703L79.5528 550.504L78.7525 549.117L78.4066 549.317L77.6063 547.931L77.9522 547.731L77.1519 546.345L76.8061 546.545L76.0058 545.159L76.3516 544.959L75.5513 543.573L75.2055 543.772L74.4052 542.386L74.751 542.187L73.9507 540.801L73.6049 541L72.8046 539.614L73.1504 539.414L72.3501 538.028L72.0043 538.228L71.204 536.842L71.5499 536.642L70.7496 535.256L70.4037 535.456L69.6034 534.069L69.9493 533.87L69.149 532.484L68.8031 532.683L68.0028 531.297L68.3487 531.097L67.5484 529.711L67.2025 529.911L66.4022 528.525L66.7481 528.325L65.9478 526.939L65.602 527.139L64.8017 525.753L65.1475 525.553L64.3472 524.167L64.0014 524.366L63.2011 522.98L63.5469 522.781L62.7466 521.394L62.4008 521.594L61.6005 520.208L61.9463 520.008L61.146 518.622L60.8002 518.822L59.9999 517.436L60.3458 517.236L59.5455 515.85L59.1996 516.05L58.3993 514.663L58.7452 514.464L57.9449 513.078L57.599 513.277L56.7987 511.891L57.1446 511.691L56.3443 510.305L55.9984 510.505L55.1981 509.119L55.544 508.919L54.7437 507.533L54.3979 507.733L53.5976 506.346L53.9434 506.147L53.1431 504.761L52.7973 504.96L51.997 503.574L52.3428 503.375L51.5425 501.988L51.1967 502.188L50.3964 500.802L50.7422 500.602L50.3421 499.909C50.2083 499.677 50.0749 499.446 49.9417 499.214L49.5954 499.413C49.3287 498.949 49.0632 498.484 48.7988 498.019L49.1459 497.822C48.8817 497.357 48.6188 496.893 48.3569 496.428L48.0089 496.624C47.7467 496.158 47.4857 495.692 47.2258 495.226L47.5746 495.032C47.315 494.566 47.0565 494.1 46.7991 493.633L46.4495 493.826C46.1919 493.36 45.9354 492.892 45.68 492.425L46.0304 492.233C45.7753 491.766 45.5213 491.299 45.2684 490.831L44.9171 491.021C44.664 490.553 44.412 490.085 44.1611 489.616L44.5132 489.427C44.2625 488.959 44.013 488.49 43.7647 488.022L43.4118 488.208C43.1631 487.739 42.9156 487.269 42.6692 486.799L43.0229 486.614C42.7767 486.144 42.5317 485.674 42.2878 485.204L41.9333 485.388C41.6892 484.917 41.4461 484.446 41.2042 483.975L41.5595 483.793C41.4104 483.502 41.2618 483.212 41.1135 482.921C41.0197 482.737 40.926 482.553 40.8325 482.369L40.4764 482.55C40.2342 482.073 39.9931 481.595 39.7532 481.118L40.11 480.938C39.8703 480.461 39.6318 479.984 39.3944 479.506L39.0368 479.684C38.7991 479.206 38.5626 478.727 38.3272 478.249L38.6856 478.072C38.4505 477.594 38.2165 477.116 37.9837 476.637L37.6246 476.811C37.3915 476.332 37.1595 475.852 36.9287 475.372L37.2886 475.199C37.058 474.72 36.8286 474.24 36.6003 473.76L36.2397 473.931C36.0112 473.451 35.7838 472.97 35.5575 472.489L35.9189 472.319C35.7935 472.052 35.6685 471.786 35.5438 471.519C35.4437 471.305 35.3439 471.091 35.2443 470.876L34.8822 471.045C34.6582 470.563 34.4353 470.081 34.2136 469.599L34.5764 469.432C34.355 468.95 34.1346 468.468 33.9155 467.986L33.5519 468.151C33.3324 467.668 33.114 467.185 32.8968 466.701L33.2611 466.538C33.042 466.05 32.8242 465.562 32.6075 465.074L32.2425 465.237C32.0256 464.748 31.8098 464.259 31.5952 463.77L31.9609 463.61C31.7465 463.121 31.5332 462.632 31.3211 462.143L30.9548 462.302C30.7425 461.812 30.5313 461.322 30.3213 460.832L30.6883 460.675C30.4785 460.185 30.2699 459.695 30.0624 459.205L29.6947 459.361C29.487 458.87 29.2804 458.379 29.075 457.888L29.4434 457.734C29.2382 457.243 29.0342 456.752 28.8313 456.261L28.4622 456.414C28.2591 455.922 28.0571 455.43 27.8563 454.938L28.2261 454.787C28.0255 454.295 27.826 453.803 27.6278 453.311L27.2574 453.46C27.0588 452.968 26.8615 452.475 26.6653 451.981L27.0363 451.834C26.8403 451.341 26.6454 450.848 26.4517 450.355L26.08 450.501C25.8854 450.005 25.6918 449.51 25.4994 449.013L25.8717 448.869C25.6787 448.371 25.4868 447.873 25.2961 447.375L24.9232 447.517C24.7322 447.019 24.5425 446.52 24.3539 446.02L24.7274 445.879C24.6544 445.686 24.5816 445.492 24.5089 445.299C24.3941 444.993 24.2797 444.688 24.1657 444.382L23.7915 444.522C23.6053 444.022 23.4202 443.522 23.2362 443.021L23.611 442.884C23.4273 442.384 23.2447 441.884 23.0632 441.384L22.6879 441.52C22.5062 441.019 22.3257 440.518 22.1464 440.017L22.5224 439.883C22.3433 439.382 22.1654 438.881 21.9886 438.38L21.612 438.513C21.435 438.012 21.2592 437.51 21.0845 437.008L21.4616 436.877C21.2871 436.375 21.1138 435.873 20.9416 435.371L20.5639 435.501C20.3916 434.999 20.2203 434.496 20.0503 433.993L20.4286 433.865C20.3503 433.634 20.2723 433.402 20.1945 433.171C20.1035 432.9 20.0128 432.629 19.9224 432.358L19.5436 432.484C19.3746 431.977 19.2067 431.47 19.04 430.962L19.4195 430.838C19.253 430.331 19.0877 429.824 18.9236 429.316L18.5436 429.439C18.3793 428.931 18.2161 428.423 18.0542 427.915L18.4346 427.794C18.2728 427.286 18.1122 426.778 17.9528 426.27L17.5717 426.39C17.4121 425.881 17.2536 425.372 17.0963 424.863L17.4779 424.746C17.3207 424.237 17.1647 423.728 17.0099 423.22L16.6279 423.336C16.4729 422.826 16.3191 422.317 16.1665 421.807L16.549 421.693C16.3965 421.183 16.2452 420.674 16.0951 420.165L15.712 420.277C15.5617 419.767 15.4125 419.257 15.2646 418.747L15.6481 418.635C15.5003 418.125 15.3536 417.615 15.2081 417.105L14.8241 417.215C14.6784 416.704 14.5339 416.193 14.3906 415.682L14.7751 415.574C14.6313 415.061 14.4887 414.548 14.3473 414.035L13.9623 414.142C13.8204 413.627 13.6796 413.112 13.54 412.597L13.9255 412.492C13.893 412.372 13.8605 412.252 13.828 412.132C13.7216 411.737 13.6158 411.343 13.5107 410.948L13.1248 411.051C12.9876 410.535 12.8515 410.02 12.7167 409.504L13.103 409.403C12.9683 408.888 12.8347 408.372 12.7023 407.857L12.3155 407.956C12.183 407.44 12.0516 406.924 11.9214 406.407L12.3086 406.31C12.2353 406.019 12.1623 405.728 12.0898 405.437C12.0336 405.212 11.9777 404.987 11.9219 404.762L11.5343 404.858C11.4064 404.341 11.2798 403.824 11.1542 403.307L11.5423 403.213C11.4169 402.697 11.2927 402.18 11.1696 401.664L10.7812 401.756C10.658 401.239 10.536 400.722 10.4151 400.204L10.804 400.113C10.6833 399.596 10.5637 399.079 10.4453 398.562L10.056 398.651C9.93731 398.132 9.81973 397.614 9.70334 397.095L10.093 397.007C9.9763 396.487 9.86076 395.966 9.7464 395.446L9.35637 395.531C9.24186 395.01 9.12855 394.489 9.01641 393.967L9.40683 393.883C9.29481 393.363 9.18398 392.842 9.07431 392.32L8.68353 392.403C8.57375 391.881 8.46514 391.359 8.3577 390.837L8.74884 390.757C8.64151 390.235 8.53538 389.714 8.4304 389.192L8.03889 389.271C7.93379 388.749 7.82989 388.227 7.72716 387.704L8.11899 387.627C8.01637 387.106 7.91491 386.584 7.81461 386.062L7.42246 386.137C7.32205 385.614 7.22283 385.092 7.12477 384.569L7.51724 384.495C7.4193 383.973 7.32251 383.451 7.22691 382.929L6.83408 383C6.73836 382.478 6.6438 381.954 6.55041 381.431L6.94354 381.361C6.85023 380.838 6.75807 380.316 6.66708 379.793L6.27366 379.861C6.18215 379.335 6.09186 378.809 6.00273 378.283L6.39645 378.217C6.30743 377.691 6.21956 377.165 6.13288 376.64L5.73883 376.705C5.65207 376.179 5.56645 375.652 5.48203 375.126L5.87634 375.063C5.792 374.537 5.70885 374.011 5.62685 373.485L5.23228 373.547C5.1502 373.02 5.06928 372.494 4.98955 371.967L5.38439 371.907C5.30474 371.381 5.22628 370.855 5.14897 370.329L4.75387 370.387C4.67649 369.86 4.60027 369.333 4.52522 368.806L4.92058 368.75C4.84562 368.224 4.77184 367.697 4.69921 367.171L4.30362 367.225C4.23093 366.698 4.15938 366.171 4.08902 365.644L4.48486 365.591C4.41459 365.065 4.34545 364.538 4.27752 364.011L3.88145 364.063C3.81342 363.535 3.74658 363.008 3.68089 362.481L4.07716 362.431C4.01132 361.903 3.94664 361.374 3.88312 360.845L3.48662 360.893C3.42301 360.363 3.36061 359.833 3.29934 359.304L3.69603 359.258C3.63486 358.729 3.57483 358.2 3.516 357.67L3.11911 357.715C3.0602 357.185 3.00247 356.655 2.94592 356.125L3.343 356.083C3.2865 355.553 3.23116 355.024 3.17702 354.495L2.77974 354.536C2.72551 354.006 2.67249 353.476 2.62063 352.946L3.01808 352.907C2.96624 352.378 2.91562 351.848 2.86614 351.319L2.46854 351.356C2.41901 350.826 2.37064 350.296 2.32345 349.766L2.72123 349.73C2.67409 349.201 2.62811 348.671 2.5833 348.142L2.18537 348.176C2.14052 347.646 2.09683 347.116 2.05431 346.585L2.4524 346.554C2.40992 346.024 2.36861 345.495 2.32849 344.965L1.93028 344.995C1.88997 344.464 1.85086 343.932 1.81292 343.401L2.21125 343.372C2.17331 342.841 2.13656 342.31 2.10095 341.778L1.70251 341.805C1.66687 341.273 1.63239 340.741 1.59912 340.209L1.99768 340.184C1.96443 339.653 1.93235 339.121 1.90142 338.59L1.50274 338.613C1.4718 338.081 1.442 337.55 1.4134 337.018L1.81218 336.996C1.78361 336.465 1.75619 335.934 1.72993 335.402L1.33109 335.422C1.30481 334.89 1.27972 334.358 1.25578 333.826L1.65471 333.808C1.63079 333.277 1.60805 332.746 1.58647 332.215L1.18745 332.231C1.16584 331.699 1.1454 331.168 1.12613 330.636L1.52521 330.621C1.50596 330.09 1.48786 329.559 1.47094 329.028L1.07181 329.041C1.05487 328.509 1.03905 327.977 1.02444 327.446L1.42363 327.435C1.40899 326.903 1.39554 326.371 1.38325 325.839L0.984008 325.848C0.971668 325.315 0.960531 324.782 0.950535 324.249L1.34981 324.242C1.33982 323.709 1.33101 323.177 1.32337 322.645L0.924074 322.651C0.916413 322.118 0.909918 321.585 0.904609 321.052L1.30392 321.048C1.2986 320.516 1.29443 319.984 1.29146 319.452L0.892103 319.454C0.889111 318.921 0.887277 318.389 0.886609 317.856L1.28596 317.856C1.28528 317.324 1.2858 316.792 1.28745 316.26L0.888112 316.259C0.889768 315.727 0.892592 315.194 0.896581 314.662L1.2959 314.665C1.29912 314.233 1.30311 313.801 1.30789 313.369C1.30898 313.27 1.31011 313.17 1.3113 313.07L0.911994 313.065C0.918289 312.533 0.925758 312.001 0.934386 311.469L1.33367 311.476C1.34229 310.944 1.35207 310.413 1.363 309.882L0.963729 309.873C0.974682 309.341 0.986809 308.808 1.00008 308.276L1.3993 308.286C1.41258 307.754 1.427 307.222 1.4426 306.689L1.04342 306.678C1.05904 306.145 1.07581 305.612 1.09375 305.08L1.49287 305.093C1.51079 304.561 1.52985 304.029 1.55009 303.498L1.15102 303.482C1.17128 302.95 1.19271 302.418 1.21528 301.886L1.61426 301.903C1.6368 301.371 1.66052 300.84 1.68536 300.308L1.28647 300.29C1.31136 299.758 1.33738 299.226 1.36458 298.694L1.76342 298.714C1.79057 298.183 1.81891 297.652 1.8484 297.121L1.44965 297.099C1.47917 296.568 1.50983 296.036 1.54166 295.505L1.94028 295.529C1.97208 294.998 2.00502 294.467 2.03911 293.937L1.64058 293.911C1.67469 293.38 1.70999 292.849 1.74643 292.318L2.14484 292.346C2.18125 291.815 2.21885 291.284 2.25757 290.754L1.85929 290.725C1.8981 290.193 1.93807 289.662 1.97919 289.131L2.37735 289.161C2.41841 288.631 2.46063 288.1 2.504 287.57L2.106 287.537C2.14942 287.006 2.194 286.475 2.23972 285.945L2.63759 285.979C2.68327 285.449 2.73011 284.919 2.77809 284.389L2.38036 284.353C2.4284 283.822 2.4776 283.292 2.52793 282.762L2.92547 282.8C2.97576 282.27 3.02717 281.741 3.07975 281.211L2.68237 281.172C2.73501 280.642 2.78876 280.112 2.84369 279.583L3.2409 279.624C3.29577 279.095 3.3518 278.566 3.40896 278.038L3.01192 277.995C3.06914 277.465 3.12751 276.936 3.18704 276.407L3.58388 276.452C3.64331 275.924 3.70391 275.396 3.76565 274.868L3.36901 274.821C3.43084 274.292 3.49385 273.763 3.55799 273.235L3.95443 273.283C4.01854 272.755 4.08379 272.226 4.15018 271.698L3.75398 271.648C3.82045 271.12 3.88804 270.591 3.9568 270.063L4.35283 270.115C4.4215 269.587 4.49132 269.06 4.56231 268.532L4.16653 268.479C4.23757 267.951 4.30976 267.423 4.3831 266.896L4.77864 266.951C4.85189 266.424 4.9263 265.897 5.00184 265.371L4.60653 265.314C4.68216 264.787 4.75891 264.26 4.83681 263.733L5.23188 263.791C5.27375 263.508 5.31597 263.225 5.3585 262.942C5.39499 262.699 5.43174 262.456 5.46873 262.213L5.07394 262.153C5.15411 261.627 5.23542 261.101 5.31789 260.575L5.71243 260.637C5.79478 260.111 5.8783 259.586 5.96293 259.061L5.56867 258.997C5.65339 258.472 5.73928 257.947 5.82628 257.421L6.22027 257.487C6.25908 257.252 6.29811 257.018 6.33737 256.784C6.38605 256.494 6.4351 256.203 6.4845 255.913L6.09083 255.846C6.18018 255.321 6.27066 254.796 6.36229 254.271L6.75568 254.34C6.84722 253.816 6.93989 253.292 7.03367 252.768L6.64057 252.697C6.73447 252.173 6.82949 251.649 6.92567 251.125L7.31845 251.197C7.41452 250.674 7.51172 250.151 7.61004 249.628L7.21758 249.554C7.31602 249.031 7.41558 248.508 7.51627 247.985L7.90841 248.06C8.009 247.538 8.11071 247.016 8.21355 246.494L7.82176 246.417C7.92473 245.894 8.02882 245.372 8.13403 244.85L8.5255 244.929C8.63061 244.408 8.73683 243.886 8.8442 243.365L8.45306 243.285C8.56053 242.763 8.66916 242.242 8.77889 241.721L9.16967 241.803C9.27927 241.283 9.39003 240.763 9.50189 240.243L9.11148 240.159C9.22348 239.638 9.33661 239.118 9.45088 238.598L9.84093 238.683C9.95511 238.164 10.0704 237.644 10.1868 237.125L9.79712 237.038C9.91366 236.518 10.0313 235.999 10.1501 235.48L10.5394 235.569C10.6581 235.05 10.7778 234.532 10.8988 234.014L10.5099 233.923C10.6309 233.404 10.7531 232.886 10.8764 232.368L11.2649 232.46C11.388 231.943 11.5123 231.426 11.6376 230.909L11.2496 230.814C11.3751 230.297 11.5017 229.78 11.6295 229.263L12.0172 229.358C12.1448 228.842 12.2736 228.326 12.4034 227.81L12.0162 227.713C12.1462 227.196 12.2773 226.68 12.4095 226.164L12.7964 226.263C12.9285 225.748 13.0617 225.233 13.196 224.718L12.8096 224.618C12.9441 224.102 13.0797 223.587 13.2164 223.073L13.6024 223.175C13.7389 222.661 13.8766 222.147 14.0154 221.634L13.6299 221.53C13.7688 221.016 13.9089 220.502 14.05 219.988L14.4351 220.094C14.5761 219.581 14.7182 219.069 14.8615 218.556L14.4769 218.449C14.6203 217.936 14.7648 217.423 14.9104 216.911L15.2945 217.02C15.44 216.509 15.5866 215.997 15.7342 215.486L15.3506 215.375C15.4984 214.864 15.6474 214.353 15.7975 213.842L16.1806 213.954C16.3305 213.444 16.4815 212.934 16.6336 212.424L16.251 212.31C16.4032 211.799 16.5566 211.289 16.7111 210.78L17.0933 210.896C17.2476 210.386 17.403 209.878 17.5596 209.369L17.1779 209.252C17.3346 208.743 17.4925 208.234 17.6514 207.726L18.0325 207.845C18.1913 207.337 18.3511 206.83 18.5121 206.323L18.1314 206.202C18.2925 205.694 18.4547 205.187 18.618 204.68L18.9981 204.803C19.1612 204.296 19.3254 203.79 19.4907 203.285L19.1111 203.161C19.2766 202.655 19.4432 202.149 19.6109 201.644L19.9899 201.769C20.1574 201.265 20.326 200.76 20.4956 200.256L20.1172 200.129C20.287 199.624 20.458 199.12 20.6301 198.616L21.008 198.745C21.1799 198.241 21.3529 197.738 21.5269 197.236L21.1496 197.105C21.3238 196.602 21.4992 196.099 21.6757 195.596L22.0524 195.729C22.2287 195.227 22.4061 194.725 22.5845 194.224L22.2083 194.09C22.3869 193.588 22.5667 193.087 22.7475 192.586L23.1232 192.721C23.3038 192.221 23.4855 191.721 23.6683 191.221L23.2933 191.084C23.4763 190.584 23.6604 190.084 23.8456 189.584L24.2201 189.723C24.405 189.224 24.591 188.726 24.7781 188.228L24.4043 188.088C24.5915 187.589 24.7798 187.091 24.9692 186.594L25.3424 186.736C25.5316 186.239 25.7219 185.742 25.9133 185.246L25.5407 185.103C25.7323 184.606 25.9249 184.11 26.1187 183.614L26.4907 183.759C26.6842 183.263 26.8788 182.768 27.0745 182.274L26.7032 182.127C26.8991 181.632 27.0961 181.137 27.2942 180.643L27.6649 180.791C27.8628 180.297 28.0617 179.804 28.2617 179.311L27.8917 179.161C28.092 178.667 28.2933 178.174 28.4957 177.682L28.8651 177.833C29.0673 177.341 29.2706 176.85 29.4749 176.358L29.1062 176.205C29.3108 175.713 29.5164 175.222 29.7232 174.73L30.0912 174.885C30.2977 174.395 30.5053 173.905 30.714 173.415L30.3466 173.259C30.5554 172.769 30.7652 172.279 30.9761 171.79L31.3428 171.949C31.5534 171.46 31.765 170.973 31.9777 170.485L31.6117 170.326C31.8246 169.838 32.0386 169.35 32.2536 168.864L32.6189 169.025C32.8338 168.538 33.0497 168.052 33.2667 167.567L32.9021 167.404C33.1193 166.918 33.3376 166.432 33.5569 165.947L33.9208 166.112C34.1399 165.627 34.3601 165.143 34.5813 164.659L34.2182 164.493C34.4397 164.009 34.6622 163.525 34.8858 163.041L35.2483 163.209C35.4717 162.726 35.6961 162.244 35.9216 161.762L35.5599 161.593C35.7857 161.11 36.0125 160.628 36.2404 160.146L36.6014 160.317C36.829 159.836 37.0577 159.356 37.2875 158.876L36.9273 158.703C37.1573 158.222 37.3884 157.742 37.6206 157.263L37.98 157.437C38.2117 156.958 38.4445 156.479 38.6783 156.002L38.3196 155.826C38.5535 155.348 38.7884 154.871 39.0244 154.394L39.3823 154.571C39.618 154.094 39.8548 153.618 40.0927 153.143L39.7355 152.964C39.9736 152.488 40.2127 152.013 40.4529 151.538L40.8093 151.718C41.0493 151.243 41.2903 150.769 41.5323 150.295L41.1767 150.114C41.4191 149.64 41.6624 149.166 41.9068 148.693L42.2616 148.876C42.5058 148.404 42.751 147.931 42.9973 147.46L42.6433 147.275C42.8898 146.803 43.1374 146.331 43.386 145.86L43.7392 146.046C43.9876 145.576 44.237 145.106 44.4874 144.636L44.1351 144.448C44.3858 143.978 44.6376 143.508 44.8905 143.039L45.242 143.229C45.4946 142.76 45.7482 142.292 46.0028 141.824L45.6521 141.633C45.9068 141.165 46.1626 140.698 46.4193 140.232L46.7692 140.424C47.0254 139.959 47.2826 139.494 47.5408 139.029L47.1918 138.835C47.4503 138.37 47.7099 137.906 47.9705 137.442L48.3187 137.637C48.579 137.174 48.8403 136.711 49.1027 136.248L48.7554 136.051C49.0181 135.588 49.2818 135.126 49.5466 134.664L49.8931 134.862C50.1575 134.401 50.4231 133.94 50.6896 133.48L50.344 133.28C50.6109 132.819 50.8787 132.359 51.1476 131.899L51.4924 132.1C51.761 131.641 52.0306 131.182 52.3013 130.724L51.9575 130.521C52.2285 130.062 52.5005 129.604 52.7736 129.146L53.1165 129.351C53.3893 128.894 53.6631 128.437 53.9379 127.981L53.5959 127.775C53.871 127.319 54.1471 126.863 54.4243 126.407L54.7655 126.615C55.0421 126.16 55.3197 125.706 55.5984 125.253L55.2582 125.044C55.5366 124.591 55.8161 124.138 56.0966 123.686L56.4359 123.897C56.7161 123.445 56.9973 122.995 57.2796 122.544L56.9412 122.332C57.2237 121.881 57.5073 121.431 57.7919 120.981L58.1294 121.195C58.4137 120.746 58.699 120.297 58.9853 119.849L58.6488 119.634C58.9354 119.185 59.2231 118.737 59.5118 118.29L59.8474 118.506C60.1357 118.059 60.4251 117.613 60.7155 117.167L60.3809 116.949C60.6717 116.503 60.9634 116.057 61.2562 115.612L61.5898 115.831C61.8823 115.386 62.1757 114.942 62.4702 114.499L62.1375 114.278C62.4323 113.834 62.7281 113.39 63.0249 112.948L63.3567 113.17C63.6532 112.728 63.9507 112.286 64.2492 111.845L63.9185 111.621C64.2171 111.179 64.5167 110.739 64.8173 110.299L65.1471 110.524C65.4466 110.085 65.7472 109.647 66.0487 109.21L65.7199 108.983C66.0218 108.546 66.3246 108.108 66.6285 107.672L66.9563 107.9C67.2598 107.464 67.5644 107.028 67.8699 106.593L67.5432 106.364C67.849 105.928 68.1559 105.493 68.4638 105.059L68.7896 105.29C69.0971 104.856 69.4057 104.423 69.7152 103.991L69.3905 103.758C69.7004 103.325 70.0113 102.893 70.3232 102.461L70.6469 102.695C70.9585 102.264 71.271 101.833 71.5846 101.403L71.2619 101.168C71.5758 100.737 71.8907 100.307 72.2066 99.8778L72.5282 100.114C72.8438 99.6855 73.1604 99.2573 73.4779 98.8297L73.1573 98.5916C73.4752 98.1635 73.7941 97.736 74.114 97.3092L74.4335 97.5486C74.7529 97.1224 75.0733 96.6969 75.3947 96.2719L75.0762 96.031C75.3968 95.6072 75.7183 95.184 76.0408 94.7614L76.3583 95.0037C76.6805 94.5815 77.0036 94.16 77.3278 93.7391L77.0114 93.4955C77.3359 93.0741 77.6614 92.6534 77.9879 92.2334L78.3032 92.4784C78.6293 92.0588 78.9564 91.6399 79.2845 91.2215L78.9702 90.9751C79.2987 90.5563 79.6281 90.1381 79.9585 89.7206L80.2717 89.9684C80.6017 89.5514 80.9327 89.135 81.2648 88.7192L80.9527 88.47C81.2851 88.0538 81.6184 87.6382 81.9528 87.2233L82.2637 87.4738C82.5977 87.0594 82.9327 86.6455 83.2686 86.2324L82.9587 85.9805C83.295 85.5668 83.6323 85.1539 83.9705 84.7416L84.2793 84.9949C84.6172 84.583 84.956 84.1718 85.2959 83.7612L84.9883 83.5066C85.3285 83.0956 85.6697 82.6853 86.0118 82.2756L86.3183 82.5316C86.6586 82.1242 86.9998 81.7175 87.342 81.3114L87.0367 81.0541C87.3791 80.6477 87.7225 80.242 88.0669 79.837L88.3711 80.0957C88.7151 79.6911 89.0601 79.2872 89.406 78.8839L89.1029 78.6239C89.4492 78.2202 89.7965 77.8172 90.1447 77.4148L90.4467 77.6762C90.7945 77.2743 91.1433 76.873 91.4931 76.4725L91.1923 76.2098C91.5425 75.8088 91.8936 75.4085 92.2457 75.0089L92.5453 75.2728C92.897 74.8736 93.2497 74.4751 93.6033 74.0773L93.3048 73.812C93.6588 73.4137 94.0138 73.0161 94.3697 72.6192L94.667 72.8858C95.0225 72.4893 95.379 72.0936 95.7365 71.6985L95.4403 71.4306C95.7982 71.035 96.157 70.6402 96.5168 70.2461L96.8117 70.5153C97.1711 70.1216 97.5314 69.7286 97.8927 69.3363L97.5989 69.0657C97.9592 68.6745 98.3204 68.284 98.6826 67.8941L98.9752 68.1659C99.3363 67.7772 99.6984 67.3892 100.061 67.0019L99.77 66.7288C100.133 66.341 100.498 65.954 100.863 65.5676L101.153 65.842C101.518 65.4561 101.884 65.0709 102.251 64.6864L101.962 64.4107C102.329 64.0258 102.697 63.6416 103.066 63.258L103.354 63.5349C103.723 63.1518 104.092 62.7695 104.463 62.3878L104.176 62.1096C104.547 61.7275 104.919 61.3461 105.292 60.9655L105.577 61.2449C105.95 60.8646 106.323 60.4851 106.697 60.1063L106.413 59.8256C106.788 59.4464 107.164 59.0679 107.54 58.6901L107.823 58.972C108.199 58.5946 108.576 58.218 108.954 57.8421L108.673 57.5589C109.051 57.1825 109.431 56.8069 109.811 56.4321L110.091 56.7165C110.47 56.3429 110.85 55.9701 111.231 55.598L110.952 55.3124C111.332 54.9414 111.712 54.5711 112.094 54.2016L112.372 54.4884C112.753 54.1193 113.135 53.7509 113.518 53.3832L113.241 53.0952C113.625 52.7271 114.009 52.3598 114.394 51.9931L114.669 52.2824C115.054 51.9162 115.44 51.5508 115.827 51.186L115.553 50.8955C115.94 50.5304 116.328 50.166 116.716 49.8024L116.989 50.0941C117.378 49.7308 117.767 49.3683 118.157 49.0066L117.886 48.7137C118.277 48.3515 118.668 47.9901 119.061 47.6294L119.331 47.9235C119.723 47.5633 120.116 47.2037 120.51 46.845L120.241 46.5497C120.636 46.1906 121.031 45.8322 121.427 45.4745L121.695 45.771C122.091 45.4137 122.487 45.0572 122.885 44.7015L122.619 44.4039C123.017 44.0477 123.416 43.6924 123.816 43.3378L124.081 43.6365C124.477 43.2849 124.874 42.9341 125.273 42.584L125.009 42.2841C125.408 41.9336 125.807 41.5839 126.208 41.235L126.47 41.5361C126.87 41.1875 127.271 40.8397 127.673 40.4927L127.412 40.1904C127.814 39.843 128.218 39.4964 128.622 39.1505L128.881 39.4538C129.285 39.1083 129.689 38.7636 130.095 38.4196L129.837 38.1151C130.242 37.7708 130.649 37.4272 131.057 37.0844L131.314 37.39C131.721 37.0476 132.129 36.7059 132.538 36.365L132.282 36.0583C132.692 35.717 133.102 35.3765 133.513 35.0368L133.768 35.3447C134.178 35.0054 134.59 34.6669 135.003 34.3291L134.75 34.0201C135.163 33.682 135.577 33.3447 135.991 33.0081L136.243 33.3182C136.657 32.982 137.072 32.6466 137.489 32.312L137.238 32.0008C137.653 31.6673 138.069 31.3346 138.485 31.0027L138.734 31.315C139.148 30.9848 139.563 30.6554 139.98 30.3267L139.732 30.0133C140.149 29.6843 140.566 29.3561 140.984 29.0286L141.23 29.3431C141.648 29.016 142.067 28.6897 142.486 28.3642L142.242 28.0486C142.662 27.7228 143.083 27.3977 143.504 27.0734L143.748 27.39C144.169 27.0661 144.591 26.7429 145.014 26.4206L144.772 26.1029C145.196 25.7803 145.62 25.4584 146.045 25.1373L146.286 25.456C146.711 25.1352 147.136 24.8153 147.563 24.4962L147.323 24.1764C147.75 23.8569 148.178 23.5383 148.607 23.2204L148.845 23.5412C149.273 23.2237 149.702 22.9069 150.132 22.591L149.896 22.2692C150.326 21.953 150.757 21.6375 151.189 21.3229L151.424 21.6458C151.856 21.3315 152.289 21.018 152.722 20.7054L152.488 20.3815C152.918 20.0714 153.349 19.7621 153.781 19.4536L154.013 19.7785C154.444 19.4704 154.876 19.1631 155.308 18.8566L155.077 18.5308C155.511 18.224 155.945 17.918 156.379 17.6128L156.609 17.9397C157.043 17.6349 157.478 17.3308 157.914 17.0276L157.686 16.6998C158.123 16.3962 158.56 16.0935 158.998 15.7916L159.225 16.1204C159.663 15.8188 160.101 15.5181 160.541 15.2182L160.315 14.8883C160.755 14.5881 161.196 14.2886 161.638 13.99L161.861 14.3208C162.302 14.0225 162.744 13.7251 163.187 13.4284L162.965 13.0967C163.408 12.7997 163.852 12.5036 164.297 12.2083L164.518 12.541C164.962 12.246 165.408 11.9519 165.854 11.6586L165.634 11.3249C166.081 11.0313 166.528 10.7385 166.976 10.4465L167.194 10.7812C167.641 10.4904 168.088 10.2006 168.536 9.91152L168.319 9.57596C168.765 9.28876 169.211 9.00238 169.657 8.71684L169.872 9.05333C170.319 8.7681 170.766 8.48369 171.214 8.20012L171 7.86271C171.449 7.57882 171.898 7.29577 172.348 7.01355L172.56 7.35187C173.01 7.06995 173.46 6.78887 173.911 6.50863L173.7 6.16939C174.152 5.88885 174.605 5.60915 175.058 5.33029L175.267 5.67042C175.72 5.39185 176.174 5.11412 176.628 4.83723L176.42 4.49621C176.875 4.21903 177.331 3.9427 177.788 3.66721L177.994 4.00913C178.45 3.73393 178.907 3.45958 179.364 3.18608L179.16 2.84328C179.618 2.56948 180.077 2.29654 180.537 2.02445L180.74 2.36813C181.199 2.09634 181.659 1.8254 182.12 1.55531L181.918 1.21077C182.38 0.940387 182.842 0.670864 183.305 0.402203L183.506 0.747614C183.622 0.680254 183.738 0.612949 183.854 0.545697L184.054 0.892744L184.4 0.693072L185.2 2.07922L184.855 2.27889L185.655 3.66503L186.001 3.46536L186.801 4.85151L186.455 5.05118L187.255 6.43732L187.601 6.23765L188.402 7.6238L188.056 7.82347L188.856 9.20961L189.202 9.00994L190.002 10.3961L189.656 10.5958L190.457 11.9819L190.802 11.7822L191.603 13.1684L191.257 13.368L192.057 14.7542L192.403 14.5545L193.203 15.9407L192.858 16.1403L193.658 17.5265L194.004 17.3268L194.804 18.713L194.458 18.9126L195.258 20.2988L195.604 20.0991L196.405 21.4852L196.059 21.6849L196.859 23.0711L197.205 22.8714L198.005 24.2575L197.659 24.4572L198.46 25.8434L198.805 25.6437L199.606 27.0298L199.26 27.2295L200.06 28.6156L200.406 28.416L201.206 29.8021L200.86 30.0018L201.661 31.3879L202.007 31.1883L202.807 32.5744L202.461 32.7741L203.261 34.1602L203.607 33.9605L204.407 35.3467L204.062 35.5464L204.862 36.9325L205.208 36.7328L206.008 38.119L205.662 38.3187L206.462 39.7048L206.808 39.5051L207.609 40.8913L207.263 41.0909L208.063 42.4771L208.409 42.2774L209.209 43.6636L208.863 43.8632L209.664 45.2494L210.009 45.0497L210.81 46.4359L210.464 46.6355L211.264 48.0217L211.61 47.822L212.41 49.2081L212.064 49.4078L212.865 50.794L213.211 50.5943L214.011 51.9804L213.665 52.1801L214.465 53.5662L214.811 53.3666L215.611 54.7527L215.266 54.9524L216.066 56.3385L216.412 56.1389L217.212 57.525L216.866 57.7247L217.667 59.1108L218.012 58.9111L218.813 60.2973L218.467 60.497L219.267 61.8831L219.613 61.6834L220.413 63.0696L220.067 63.2692L220.868 64.6554L221.214 64.4557L222.014 65.8419L221.668 66.0415L222.468 67.4277L222.814 67.228L223.614 68.6141L223.269 68.8138L224.069 70.1999L224.415 70.0003L225.215 71.3864L224.869 71.5861L225.669 72.9722L226.015 72.7726L226.816 74.1587L226.47 74.3584L227.27 75.7445L227.616 75.5448L228.416 76.931L228.07 77.1307L228.871 78.5168L229.216 78.3171L230.017 79.7033L229.671 79.9029L230.471 81.2891L230.817 81.0894L231.617 82.4756L231.271 82.6752L232.072 84.0614L232.418 83.8617L233.218 85.2478L232.872 85.4475L233.672 86.8337L234.018 86.634L234.818 88.0201L234.473 88.2198L235.273 89.6059L235.619 89.4063L236.419 90.7924L236.073 90.9921L236.873 92.3782L237.219 92.1785L238.02 93.5647L237.674 93.7644L238.474 95.1505L238.82 94.9508L239.62 96.337L239.274 96.5366L240.075 97.9228L240.42 97.7231L241.221 99.1092L240.875 99.3089L241.675 100.695L242.021 100.495L242.821 101.882L242.475 102.081L243.276 103.467L243.622 103.268L244.422 104.654L244.076 104.853L244.876 106.24L245.222 106.04L246.022 107.426L245.677 107.626L246.477 109.012L246.823 108.812L247.623 110.198L247.277 110.398L248.078 111.784L248.423 111.585L249.224 112.971L248.878 113.17L249.678 114.556L250.024 114.357L250.824 115.743L250.478 115.943L251.279 117.329L251.625 117.129L252.425 118.515L252.079 118.715L252.879 120.101L253.225 119.901L254.025 121.288L253.68 121.487L254.48 122.873L254.826 122.674L255.626 124.06L255.28 124.26L256.08 125.646L256.426 125.446L257.227 126.832L256.881 127.032L257.681 128.418L258.027 128.218L258.827 129.604L258.481 129.804L259.282 131.19L259.627 130.991L260.428 132.377L260.082 132.576L260.882 133.963L261.228 133.763L262.028 135.149L261.682 135.349L262.483 136.735L262.829 136.535L263.629 137.921L263.283 138.121L264.083 139.507L264.429 139.307L265.23 140.694L264.884 140.893L265.684 142.279L266.03 142.08L266.83 143.466L266.484 143.666L267.285 145.052L267.63 144.852L268.431 146.238L268.085 146.438L268.885 147.824L269.231 147.624L270.031 149.011L269.685 149.21L270.486 150.596L270.832 150.397L271.632 151.783L271.286 151.982L272.086 153.369L272.432 153.169L273.232 154.555L272.887 154.755L273.687 156.141L274.033 155.941L274.833 157.327L274.487 157.527L275.287 158.913L275.633 158.714L276.434 160.1L276.088 160.299L276.888 161.686L277.234 161.486L278.034 162.872L277.688 163.072L278.489 164.458L278.834 164.258L279.635 165.644L279.289 165.844L279.689 166.537Z" stroke="white" stroke-width="0.798686" stroke-dasharray="1.6 1.6"/>
</svg>
