<svg width="633" height="391" viewBox="0 0 633 391" fill="none" xmlns="http://www.w3.org/2000/svg">
<path d="M111.933 162.545C112.109 162.29 112.285 162.035 112.462 161.781L112.083 161.518C112.436 161.009 112.79 160.501 113.146 159.994L113.523 160.258C113.878 159.752 114.234 159.246 114.591 158.742L114.214 158.476C114.572 157.971 114.93 157.467 115.29 156.965L115.665 157.233C116.024 156.731 116.384 156.231 116.745 155.731L116.371 155.461C116.732 154.961 117.095 154.462 117.458 153.964L117.831 154.236C118.194 153.738 118.558 153.242 118.923 152.747L118.552 152.474C118.917 151.978 119.284 151.484 119.651 150.99L120.021 151.266C120.388 150.773 120.756 150.282 121.125 149.791L120.757 149.514C121.126 149.023 121.497 148.533 121.868 148.044L122.235 148.323C122.607 147.835 122.979 147.348 123.352 146.861L122.987 146.581C123.364 146.089 123.743 145.599 124.122 145.109L124.487 145.392C124.866 144.903 125.246 144.416 125.627 143.93L125.264 143.645C125.645 143.158 126.028 142.673 126.411 142.188L126.773 142.475C127.156 141.991 127.54 141.508 127.925 141.026L127.565 140.738C127.95 140.256 128.337 139.775 128.724 139.296L129.083 139.585C129.47 139.106 129.858 138.628 130.247 138.152L129.89 137.86C130.279 137.383 130.67 136.906 131.061 136.431L131.417 136.725C131.808 136.25 132.2 135.777 132.593 135.305L132.238 135.01C132.632 134.537 133.026 134.066 133.421 133.596L133.774 133.892C134.169 133.423 134.565 132.954 134.962 132.487L134.61 132.189C135.01 131.717 135.412 131.247 135.814 130.778L136.164 131.078C136.566 130.609 136.97 130.141 137.374 129.674L137.026 129.372C137.43 128.905 137.836 128.438 138.243 127.973L138.59 128.277C138.997 127.812 139.404 127.349 139.812 126.887L139.467 126.582C139.876 126.119 140.285 125.658 140.696 125.197L141.04 125.504C141.45 125.045 141.861 124.586 142.274 124.129L141.931 123.82C142.344 123.363 142.757 122.906 143.172 122.451L143.513 122.761C143.927 122.306 144.342 121.853 144.758 121.4L144.418 121.088C144.834 120.635 145.252 120.184 145.67 119.733L146.008 120.047C146.426 119.597 146.844 119.149 147.264 118.701L146.928 118.386C147.35 117.935 147.773 117.487 148.197 117.039L148.532 117.356C148.957 116.907 149.383 116.46 149.81 116.013L149.476 115.695C149.904 115.248 150.332 114.802 150.762 114.358L151.093 114.678C151.522 114.234 151.952 113.792 152.382 113.351L152.052 113.028C152.483 112.587 152.916 112.146 153.349 111.707L153.677 112.03C154.109 111.591 154.543 111.154 154.977 110.718L154.65 110.392C155.085 109.955 155.521 109.52 155.958 109.085L156.283 109.412C156.719 108.978 157.156 108.546 157.594 108.114L157.27 107.786C157.709 107.354 158.148 106.923 158.588 106.494L158.91 106.824C159.35 106.395 159.791 105.968 160.232 105.541L159.912 105.21C160.355 104.781 160.8 104.354 161.245 103.929L161.564 104.262C162.01 103.835 162.458 103.409 162.906 102.985L162.589 102.65C163.038 102.225 163.488 101.801 163.939 101.379L164.254 101.715C164.705 101.293 165.156 100.872 165.608 100.453L165.294 100.115C165.746 99.6951 166.2 99.2765 166.654 98.8592L166.966 99.1988C167.42 98.7819 167.875 98.3664 168.33 97.9521L168.02 97.6109C168.476 97.1961 168.933 96.7826 169.39 96.3703L169.699 96.7131C170.156 96.3013 170.614 95.8909 171.073 95.4817L170.766 95.1374C171.226 94.7277 171.686 94.3193 172.148 93.9122L172.453 94.258C172.913 93.8513 173.375 93.446 173.837 93.0419L173.534 92.6946C173.998 92.2891 174.463 91.8848 174.929 91.4818L175.23 91.8306C175.698 91.4264 176.166 91.0236 176.634 90.6221L176.334 90.2718C176.804 89.8698 177.274 89.469 177.745 89.0696L178.043 89.4214C178.514 89.0224 178.985 88.6248 179.458 88.2285L179.161 87.8752C179.634 87.4784 180.107 87.0829 180.582 86.6886L180.877 87.0433C181.351 86.6496 181.825 86.2572 182.301 85.866L182.008 85.5098C182.484 85.1182 182.961 84.7279 183.439 84.3389L183.73 84.6965C184.207 84.308 184.685 83.9208 185.164 83.5349L184.875 83.1758C185.354 82.7894 185.834 82.4043 186.315 82.0205L186.603 82.381C187.084 81.9977 187.565 81.6157 188.047 81.235L187.761 80.873C188.245 80.491 188.729 80.1103 189.215 79.7309L189.499 80.0943C189.985 79.714 190.473 79.3351 190.961 78.9575L190.678 78.5928C191.167 78.2147 191.657 77.838 192.147 77.4626L192.427 77.8288C192.917 77.4538 193.407 77.0802 193.899 76.7079L193.62 76.3404C194.112 75.9676 194.605 75.5962 195.098 75.2261L195.375 75.595C195.868 75.2254 196.361 74.8571 196.856 74.4901L196.581 74.1198C197.076 73.7523 197.572 73.3862 198.069 73.0214L198.342 73.3931C198.838 73.0288 199.334 72.6658 199.832 72.3041L199.561 71.9311C200.059 71.569 200.558 71.2081 201.057 70.8487L201.327 71.2231C201.826 70.8641 202.326 70.5064 202.826 70.15L202.559 69.7743C203.061 69.4167 203.564 69.0604 204.068 68.7055L204.334 69.0826C204.838 68.7271 205.344 68.3731 205.85 68.0204L205.586 67.642C206.093 67.2889 206.6 66.9371 207.109 66.5866L207.37 66.9663C207.878 66.6162 208.386 66.2675 208.896 65.9202L208.636 65.5393C209.145 65.1915 209.656 64.8451 210.167 64.5L210.425 64.8823C210.936 64.5377 211.447 64.1944 211.959 63.8524L211.703 63.4689C212.216 63.1265 212.729 62.7855 213.243 62.4459L213.498 62.8307C214.011 62.4914 214.525 62.1536 215.04 61.817L214.788 61.431C215.304 61.0941 215.82 60.7584 216.337 60.4242L216.587 60.8115C217.104 60.4777 217.621 60.1452 218.139 59.8141L217.89 59.4256C218.41 59.0932 218.931 58.7623 219.452 58.4327L219.698 58.8224C220.22 58.4927 220.742 58.1643 221.265 57.8373L221.02 57.4463C221.544 57.1188 222.068 56.7928 222.593 56.4681L222.835 56.8603C223.36 56.536 223.885 56.2131 224.41 55.8915L224.17 55.4981C224.696 55.1762 225.223 54.8556 225.751 54.5364L225.989 54.931C226.516 54.6122 227.044 54.2947 227.573 53.9787L227.336 53.5829C227.865 53.2664 228.395 52.9513 228.925 52.6376L229.16 53.0346C229.69 52.7213 230.22 52.4093 230.751 52.0988L230.519 51.7006C231.05 51.3897 231.583 51.0801 232.116 50.7719L232.347 51.1711C232.879 50.8633 233.412 50.5569 233.946 50.2518L233.717 49.8514C234.253 49.5452 234.79 49.2403 235.327 48.9368L235.554 49.3384C236.091 49.035 236.628 48.733 237.167 48.4324L236.942 48.0298C237.481 47.7288 238.02 47.4292 238.561 47.131L238.783 47.5348C239.323 47.237 239.863 46.9406 240.404 46.6455L240.183 46.2407C240.725 45.9453 241.267 45.6513 241.81 45.3586L242.029 45.7646C242.571 45.4723 243.114 45.1815 243.657 44.892L243.44 44.485C243.984 44.1951 244.529 43.9067 245.075 43.6197L245.289 44.0278C245.834 43.7411 246.379 43.4558 246.925 43.1719L246.713 42.7627C247.259 42.4785 247.806 42.1956 248.354 41.9142L248.565 42.3244C249.112 42.0433 249.66 41.7635 250.208 41.4852L250 41.074C250.55 40.7946 251.101 40.5166 251.653 40.24L251.86 40.6522C252.411 40.3759 252.963 40.101 253.515 39.8275L253.31 39.4142C253.864 39.1404 254.417 38.868 254.971 38.597L255.174 39.0112C255.728 38.7406 256.282 38.4713 256.837 38.2034L256.636 37.7881C257.192 37.5199 257.748 37.2531 258.304 36.9878L258.503 37.4041C259.059 37.139 259.615 36.8754 260.172 36.6131L259.976 36.1959C260.534 35.9333 261.092 35.6722 261.651 35.4125L261.845 35.8307C262.403 35.5713 262.962 35.3133 263.522 35.0567L263.329 34.6375C263.889 34.3806 264.45 34.1251 265.011 33.8711L265.201 34.2912C265.762 34.0374 266.323 33.7849 266.885 33.5339L266.697 33.1128C267.261 32.861 267.825 32.6106 268.39 32.3617L268.576 32.7837C269.14 32.535 269.704 32.2878 270.269 32.0419L270.085 31.619C270.651 31.3729 271.218 31.1282 271.784 30.885L271.966 31.3088C272.532 31.0658 273.099 30.8243 273.666 30.5841L273.487 30.1595C274.055 29.9191 274.623 29.6801 275.192 29.4425L275.37 29.8681C275.938 29.6308 276.507 29.395 277.076 29.1606L276.901 28.7341C277.471 28.4994 278.041 28.2662 278.613 28.0343L278.786 28.4616C279.356 28.2301 279.927 28 280.499 27.7713L280.327 27.3431C280.9 27.1142 281.472 26.8866 282.045 26.6605L282.215 27.0895C282.787 26.8635 283.361 26.6389 283.935 26.4158L283.768 25.986C284.343 25.7624 284.918 25.5402 285.495 25.3194L285.66 25.75C286.235 25.5295 286.811 25.3105 287.387 25.0929L287.225 24.6614C287.802 24.4436 288.379 24.2271 288.957 24.0121L289.118 24.4444C289.696 24.2296 290.273 24.0164 290.852 23.8045L290.693 23.3715C291.272 23.1594 291.852 22.9487 292.432 22.7395L292.588 23.1733C293.168 22.9643 293.747 22.7568 294.328 22.5507L294.173 22.1162C294.754 21.9098 295.336 21.7049 295.918 21.5015L296.07 21.9368C296.651 21.7336 297.233 21.5319 297.815 21.3316L297.665 20.8955C298.247 20.695 298.831 20.4959 299.414 20.2982L299.562 20.735C300.146 20.5375 300.73 20.3414 301.314 20.1467L301.168 19.7092C301.754 19.5141 302.339 19.3206 302.926 19.1285L303.069 19.5667C303.655 19.3749 304.241 19.1845 304.827 18.9956L304.686 18.5566C305.273 18.3674 305.86 18.1797 306.448 17.9934L306.587 18.4331C307.175 18.247 307.762 18.0625 308.35 17.8793L308.213 17.439C308.802 17.2556 309.391 17.0737 309.981 16.8933L310.116 17.3343C310.705 17.1541 311.294 16.9753 311.884 16.798L311.751 16.3564C312.341 16.1789 312.932 16.0028 313.523 15.8282L313.654 16.2705C314.244 16.0961 314.835 15.9232 315.427 15.7518L315.298 15.3088C315.89 15.1372 316.483 14.967 317.075 14.7982L317.202 15.2418C317.794 15.0731 318.387 14.9059 318.981 14.7402L318.857 14.296C319.451 14.13 320.045 13.9655 320.64 13.8025L320.762 14.2473C321.356 14.0845 321.95 13.9231 322.545 13.7632L322.426 13.3179C323.021 13.1578 323.617 12.9992 324.214 12.842L324.331 13.288C324.927 13.131 325.523 12.9755 326.119 12.8215L326.004 12.375C326.601 12.2208 327.198 12.0681 327.796 11.9168L327.909 12.3639C328.506 12.2128 329.103 12.0633 329.701 11.9151L329.59 11.4675C330.189 11.3192 330.788 11.1723 331.387 11.027L331.495 11.4752C332.094 11.33 332.693 11.1863 333.292 11.044L333.185 10.5953C333.785 10.4529 334.385 10.3119 334.986 10.1725L335.09 10.6217C335.69 10.4824 336.291 10.3445 336.891 10.2081L336.789 9.75837C337.391 9.6218 337.992 9.48673 338.594 9.35313L338.694 9.80334C339.296 9.66993 339.897 9.53796 340.499 9.40749L340.401 8.95679C341.004 8.82616 341.607 8.69699 342.21 8.56932L342.306 9.02049C342.909 8.89298 343.511 8.76694 344.115 8.64239L344.021 8.19074C344.625 8.06604 345.229 7.94282 345.834 7.82109L345.925 8.27317C346.529 8.15159 347.133 8.03149 347.737 7.91287L347.648 7.46033C348.253 7.34156 348.859 7.22428 349.464 7.1085L349.551 7.56145C350.156 7.44581 350.761 7.33164 351.367 7.21896L351.282 6.76555C351.888 6.65275 352.495 6.54141 353.102 6.43157L353.184 6.88538C353.79 6.77567 354.396 6.66744 355.003 6.56071L354.923 6.10651C355.53 5.99965 356.138 5.89429 356.745 5.79041L356.823 6.24499C357.43 6.14124 358.038 6.03897 358.645 5.9382L358.57 5.48326C359.178 5.38237 359.787 5.28293 360.395 5.18503L360.469 5.64035C361.077 5.54258 361.685 5.44628 362.294 5.35146L362.223 4.89579C362.832 4.80085 363.442 4.70744 364.051 4.6155L364.12 5.07152C364.729 4.97972 365.338 4.88938 365.948 4.80056L365.881 4.34421C366.492 4.25526 367.102 4.1678 367.713 4.08186L367.777 4.53856C368.387 4.45271 368.997 4.36837 369.608 4.28552L369.546 3.82855C370.157 3.74562 370.768 3.66421 371.379 3.58428L371.439 4.04157C372.049 3.96174 372.66 3.88341 373.271 3.8066L373.214 3.34904C373.825 3.27212 374.437 3.19668 375.049 3.12277L375.105 3.58062C375.716 3.50681 376.328 3.43448 376.939 3.36366L376.886 2.90554C377.499 2.83462 378.112 2.76523 378.725 2.69731L378.775 3.15568C379.388 3.08784 380 3.02153 380.612 2.95672L380.564 2.4981C381.177 2.43321 381.791 2.36978 382.404 2.30791L382.45 2.76677C383.063 2.70495 383.676 2.64465 384.29 2.58584L384.246 2.12678C384.86 2.0679 385.474 2.01051 386.088 1.95465L386.13 2.41392C386.399 2.38945 386.668 2.36526 386.937 2.34139C387.282 2.31083 387.626 2.28071 387.971 2.25107L387.931 1.7916C388.545 1.7388 389.16 1.68751 389.774 1.63771L389.811 2.09739C390.425 2.04766 391.039 1.99944 391.653 1.95271L391.618 1.49287C392.232 1.44609 392.847 1.40083 393.462 1.35707L393.495 1.81709C394.109 1.77339 394.723 1.7312 395.338 1.69051L395.308 1.23035C395.923 1.18963 396.538 1.15039 397.154 1.11267L397.182 1.57298C397.797 1.5353 398.412 1.49914 399.027 1.46449L399.001 1.00404C399.616 0.969348 400.232 0.936176 400.848 0.904521L400.872 1.3651C401.487 1.33347 402.103 1.30335 402.718 1.27476L402.697 0.814067C403.313 0.78543 403.929 0.758318 404.546 0.732714L404.565 1.1935C405.18 1.16794 405.796 1.14389 406.411 1.12135L406.394 0.660483C407.01 0.637951 407.626 0.616911 408.242 0.597404L408.257 1.05833C408.872 1.03883 409.487 1.02086 410.103 1.0044L410.09 0.543375C410.707 0.526885 411.323 0.511928 411.939 0.498479L411.949 0.959548C412.565 0.946095 413.181 0.934176 413.796 0.923766L413.789 0.462674C414.405 0.452258 415.022 0.443333 415.638 0.43595L415.644 0.897074C416.26 0.889712 416.876 0.883851 417.492 0.879514L417.489 0.418333C418.105 0.413975 418.722 0.411166 419.339 0.409848L419.34 0.871017C419.956 0.869721 420.572 0.869924 421.189 0.871668L421.19 0.410509C421.807 0.412232 422.424 0.415496 423.041 0.420276L423.038 0.881424C423.653 0.88619 424.269 0.892463 424.885 0.900278L424.891 0.439149C425.507 0.446968 426.123 0.45627 426.739 0.467113L426.731 0.928231C427.346 0.939071 427.962 0.951417 428.577 0.965263L428.588 0.504223C429.204 0.518105 429.82 0.533512 430.436 0.550426L430.424 1.01145C431.039 1.02834 431.655 1.04678 432.27 1.06673L432.285 0.605782C432.901 0.625761 433.518 0.647256 434.134 0.670291L434.117 1.13111C434.732 1.15414 435.348 1.17866 435.964 1.20468L435.983 0.743884C436.599 0.769958 437.216 0.797581 437.832 0.826703L437.81 1.28735C438.426 1.31641 439.041 1.34702 439.657 1.37917L439.681 0.918614C440.297 0.950775 440.914 0.984485 441.53 1.01973L441.504 1.48013C442.118 1.51523 442.732 1.55187 443.347 1.59005L443.375 1.12974C443.99 1.16793 444.605 1.20765 445.22 1.2489L445.189 1.70906C445.435 1.7256 445.682 1.74236 445.929 1.75941C446.296 1.78478 446.663 1.81069 447.031 1.83716L447.064 1.37717C447.679 1.42144 448.293 1.46724 448.908 1.51457L448.873 1.9744C449.129 1.99412 449.385 2.01412 449.641 2.0344C449.999 2.06268 450.357 2.09147 450.714 2.12081L450.752 1.66115C451.366 1.71154 451.981 1.76345 452.595 1.81689L452.556 2.27633C453.169 2.3297 453.783 2.38458 454.397 2.44104L454.439 1.98177C455.053 2.03826 455.668 2.09632 456.282 2.15585L456.237 2.6149C456.851 2.67435 457.464 2.73537 458.078 2.7979L458.124 2.33909C458.738 2.40169 459.352 2.46581 459.966 2.53149L459.917 2.99006C460.529 3.05546 461.14 3.12241 461.751 3.19082L461.803 2.73254C462.415 2.80107 463.027 2.87112 463.639 2.94273L463.585 3.40078C464.196 3.47226 464.807 3.5453 465.418 3.61983L465.474 3.16202C466.086 3.23665 466.698 3.31282 467.309 3.3905L467.251 3.84801C467.862 3.92561 468.473 4.00471 469.083 4.08536L469.144 3.62814C469.755 3.70887 470.366 3.7912 470.978 3.87499L470.915 4.3319C471.525 4.41559 472.136 4.50079 472.746 4.58758L472.811 4.13098C473.422 4.21786 474.033 4.30623 474.643 4.39614L474.576 4.85243C475.186 4.9422 475.796 5.03358 476.406 5.12644L476.475 4.67052C477.085 4.76343 477.695 4.85789 478.304 4.95383L478.233 5.40939C478.84 5.50499 479.447 5.60213 480.054 5.70075L480.128 5.24556C480.736 5.3443 481.344 5.44458 481.951 5.5464L481.875 6.00127C482.482 6.10296 483.089 6.20617 483.695 6.31091L483.774 5.85646C484.381 5.96134 484.988 6.06771 485.595 6.17564L485.514 6.62966C486.121 6.73746 486.727 6.84677 487.333 6.95762L487.416 6.50398C488.022 6.61497 488.629 6.72742 489.235 6.84146L489.15 7.29472C489.755 7.4086 490.361 7.52402 490.966 7.641L491.054 7.18818C491.66 7.30525 492.265 7.42389 492.871 7.54404L492.781 7.99642C493.386 8.11639 493.991 8.23797 494.596 8.36101L494.688 7.90913C495.292 8.03211 495.896 8.15662 496.5 8.28268L496.406 8.73417C497.007 8.85976 497.609 8.98686 498.21 9.11551L498.307 8.66452C498.909 8.79332 499.511 8.92364 500.112 9.0555L500.014 9.50599C500.615 9.63766 501.215 9.77088 501.816 9.90561L501.917 9.45562C502.518 9.59049 503.119 9.72696 503.72 9.86488L503.617 10.3144C503.784 10.3528 503.952 10.3914 504.119 10.43C504.552 10.53 504.984 10.6307 505.417 10.7322L505.522 10.2833C506.122 10.4243 506.723 10.5668 507.323 10.7108L507.215 11.1593C507.814 11.3032 508.413 11.4486 509.012 11.5955L509.122 11.1476C509.722 11.2947 510.321 11.4433 510.92 11.5935L510.808 12.0408C511.406 12.1908 512.005 12.3423 512.602 12.4953L512.717 12.0485C513.314 12.2014 513.911 12.3557 514.507 12.5116L514.391 12.9578C514.985 13.1131 515.58 13.2699 516.174 13.4283L516.292 12.9827C516.887 13.1412 517.482 13.3013 518.076 13.4629L517.955 13.9079C518.549 14.0693 519.142 14.2322 519.735 14.3966L519.858 13.9522C520.452 14.1168 521.046 14.2829 521.639 14.4506L521.513 14.8944C521.813 14.9789 522.112 15.0639 522.411 15.1492C522.704 15.2328 522.997 15.3169 523.29 15.4013L523.418 14.9582C524.011 15.1289 524.603 15.3011 525.195 15.4749L525.066 15.9174C525.657 16.0909 526.248 16.266 526.839 16.4425L526.971 16.0007C527.563 16.1775 528.154 16.3558 528.745 16.5356L528.611 16.9769C529.201 17.1565 529.791 17.3376 530.381 17.5203L530.518 17.0798C531.106 17.262 531.694 17.4458 532.282 17.6311L532.144 18.071C532.453 18.1685 532.762 18.2664 533.071 18.3647C533.348 18.4526 533.624 18.5408 533.9 18.6294L534.041 18.1903C534.627 18.3782 535.213 18.5676 535.798 18.7585L535.655 19.197C536.24 19.3877 536.824 19.5799 537.409 19.7736L537.554 19.3359C538.139 19.5298 538.723 19.7253 539.307 19.9223L539.16 20.3593C539.743 20.556 540.326 20.7543 540.909 20.954L541.059 20.5178C541.642 20.7177 542.226 20.9193 542.809 21.1224L542.657 21.5579C543.239 21.7607 543.821 21.965 544.402 22.1708L544.556 21.736C545.139 21.9421 545.721 22.1497 546.302 22.3588L546.146 22.7928C546.727 23.0016 547.307 23.212 547.888 23.4239L548.046 22.9907C548.624 23.2019 549.203 23.4147 549.781 23.629L549.62 24.0615C550.196 24.2749 550.771 24.49 551.346 24.7065L551.509 24.2748C552.085 24.4916 552.66 24.7099 553.235 24.9297L553.071 25.3605C553.645 25.58 554.219 25.801 554.793 26.0235L554.959 25.5935C555.534 25.8163 556.108 26.0406 556.681 26.2664L556.512 26.6955C556.718 26.7764 556.924 26.8576 557.129 26.9389C557.496 27.0841 557.863 27.23 558.23 27.3765L558.401 26.9482C558.974 27.177 559.547 27.4074 560.119 27.6391L559.946 28.0665C560.517 28.2981 561.088 28.5311 561.659 28.7656L561.834 28.339C562.406 28.5739 562.977 28.8102 563.547 29.048L563.37 29.4737C563.94 29.7113 564.509 29.9503 565.078 30.1908L565.258 29.7661C565.825 30.0059 566.393 30.2472 566.959 30.49L566.778 30.914C567.057 31.0338 567.337 31.1541 567.616 31.2747C567.901 31.3973 568.185 31.5203 568.469 31.6436L568.653 31.2206C569.217 31.4656 569.78 31.7122 570.344 31.9601L570.158 32.3822C570.72 32.6299 571.283 32.8791 571.844 33.1298L572.032 32.7086C572.595 32.9596 573.157 33.212 573.718 33.466L573.528 33.8862C574.089 34.1399 574.65 34.395 575.21 34.6516L575.402 34.2323C575.963 34.4893 576.523 34.7477 577.083 35.0077L576.889 35.4259C577.448 35.6855 578.007 35.9466 578.566 36.2092L578.762 35.7919C579.321 36.0548 579.88 36.3192 580.438 36.5851L580.24 37.0015C580.797 37.267 581.355 37.5341 581.911 37.8027L582.112 37.3873C582.667 37.6552 583.222 37.9245 583.776 38.1954L583.574 38.6098C584.125 38.8791 584.676 39.1498 585.226 39.422L585.431 39.0086C585.982 39.2812 586.532 39.5552 587.082 39.8307L586.876 40.243C587.425 40.5181 587.974 40.7947 588.523 41.0728L588.731 40.6615C589.28 40.9399 589.829 41.2198 590.377 41.5012L590.167 41.9115C590.535 42.1005 590.903 42.2902 591.271 42.4806C591.45 42.5732 591.629 42.666 591.808 42.759L592.021 42.3497C592.568 42.6341 593.115 42.9198 593.662 43.2071L593.447 43.6154C593.776 43.7881 594.104 43.9614 594.432 44.1351C594.649 44.2501 594.866 44.3652 595.083 44.4806L595.3 44.0735C595.845 44.3637 596.39 44.6554 596.935 44.9486L596.716 45.3547C596.971 45.4916 597.225 45.629 597.479 45.7666C597.768 45.9232 598.057 46.0802 598.346 46.2376L598.567 45.8326C599.109 46.1281 599.651 46.4252 600.193 46.7236L599.97 47.1275C600.169 47.237 600.367 47.3466 600.566 47.4564C600.904 47.6436 601.242 47.8313 601.579 48.0196L601.804 47.6168C602.34 47.916 602.876 48.2166 603.412 48.5187L603.185 48.9204C603.72 49.2222 604.255 49.5253 604.789 49.83L605.017 49.4294C605.552 49.7344 606.086 50.0408 606.62 50.3488L606.389 50.7482C606.922 51.0557 607.455 51.3648 607.986 51.6752L608.219 51.2769C608.752 51.5877 609.284 51.9 609.815 52.2138L609.581 52.6109C609.715 52.6901 609.849 52.7693 609.983 52.8486C610.38 53.0834 610.776 53.319 611.172 53.5554L611.408 53.1594C611.939 53.4761 612.469 53.7942 612.999 54.1138L612.76 54.5087C613.289 54.8278 613.818 55.1485 614.346 55.4706L614.586 55.077C615.114 55.3995 615.642 55.7235 616.17 56.0489L615.928 56.4414C616.449 56.7632 616.97 57.0866 617.491 57.4113L617.735 57.02C618.256 57.3449 618.776 57.6712 619.296 57.9989L619.05 58.389C619.569 58.7163 620.088 59.0451 620.606 59.3753L620.854 58.9863C621.373 59.317 621.891 59.649 622.408 59.9824L622.159 60.3701C622.676 60.7032 623.192 61.0377 623.708 61.3736L623.96 60.9871C624.477 61.3235 624.993 61.6612 625.508 62.0004L625.255 62.3857C625.77 62.7245 626.284 63.0647 626.798 63.4063L627.053 63.0224C627.567 63.3645 628.081 63.708 628.595 64.0529L628.337 64.4357C628.547 64.5763 628.756 64.7171 628.965 64.8582C629.268 65.0628 629.571 65.2679 629.874 65.4736L630.133 65.0921C630.645 65.44 631.157 65.7893 631.668 66.14L631.407 66.5202C631.536 66.6086 631.665 66.6971 631.793 66.7857L631.529 67.1687L631.909 67.4305L630.856 68.9562L630.477 68.6943L629.424 70.2199L629.804 70.4818L628.752 72.0074L628.372 71.7456L627.32 73.2712L627.699 73.5331L626.647 75.0587L626.267 74.7968L625.215 76.3224L625.594 76.5843L624.542 78.1099L624.162 77.8481L623.11 79.3737L623.49 79.6356L622.437 81.1612L622.058 80.8993L621.005 82.425L621.385 82.6869L620.332 84.2125L619.953 83.9506L618.9 85.4763L619.28 85.7381L618.228 87.2637L617.848 87.0019L616.796 88.5275L617.175 88.7894L616.123 90.315L615.743 90.0531L614.691 91.5788L615.07 91.8406L614.018 93.3663L613.638 93.1044L612.586 94.63L612.966 94.8919L611.913 96.4175L611.534 96.1556L610.481 97.6813L610.861 97.9431L609.809 99.4688L609.429 99.2069L608.376 100.733L608.756 100.994L607.704 102.52L607.324 102.258L606.272 103.784L606.651 104.046L605.599 105.571L605.219 105.309L604.167 106.835L604.547 107.097L603.494 108.623L603.114 108.361L602.062 109.886L602.442 110.148L601.389 111.674L601.01 111.412L599.957 112.938L600.337 113.199L599.285 114.725L598.905 114.463L597.853 115.989L598.232 116.251L597.18 117.776L596.8 117.514L595.748 119.04L596.127 119.302L595.075 120.828L594.695 120.566L593.643 122.091L594.023 122.353L592.97 123.879L592.591 123.617L591.538 125.143L591.918 125.404L590.865 126.93L590.486 126.668L589.433 128.194L589.813 128.456L588.761 129.981L588.381 129.719L587.329 131.245L587.708 131.507L586.656 133.033L586.276 132.771L585.224 134.296L585.603 134.558L584.551 136.084L584.171 135.822L583.119 137.348L583.499 137.609L582.446 139.135L582.067 138.873L581.014 140.399L581.394 140.661L580.341 142.186L579.962 141.925L578.909 143.45L579.289 143.712L578.237 145.238L577.857 144.976L576.805 146.501L577.184 146.763L576.132 148.289L575.752 148.027L574.7 149.553L575.08 149.815L574.027 151.34L573.648 151.078L572.595 152.604L572.975 152.866L571.922 154.391L571.543 154.13L570.49 155.655L570.87 155.917L569.818 157.443L569.438 157.181L568.386 158.706L568.765 158.968L567.713 160.494L567.333 160.232L566.281 161.758L566.66 162.02L565.608 163.545L565.228 163.283L564.176 164.809L564.556 165.071L563.503 166.596L563.124 166.335L562.071 167.86L562.451 168.122L561.398 169.648L561.019 169.386L559.966 170.911L560.346 171.173L559.294 172.699L558.914 172.437L557.862 173.963L558.241 174.225L557.189 175.75L556.809 175.488L555.757 177.014L556.136 177.276L555.084 178.801L554.704 178.54L553.652 180.065L554.032 180.327L552.979 181.853L552.6 181.591L551.547 183.116L551.927 183.378L550.874 184.904L550.495 184.642L549.442 186.168L549.822 186.43L548.77 187.955L548.39 187.693L547.338 189.219L547.717 189.481L546.665 191.006L546.285 190.745L545.233 192.27L545.613 192.532L544.56 194.058L544.181 193.796L543.128 195.321L543.508 195.583L542.455 197.109L542.076 196.847L541.023 198.373L541.403 198.635L540.351 200.16L539.971 199.898L538.919 201.424L539.298 201.686L538.246 203.211L537.866 202.95L536.814 204.475L537.193 204.737L536.141 206.263L535.761 206.001L534.709 207.526L535.089 207.788L534.036 209.314L533.657 209.052L532.604 210.578L532.984 210.84L531.931 212.365L531.552 212.103L530.499 213.629L530.879 213.891L529.827 215.416L529.447 215.155L528.395 216.68L528.774 216.942L527.722 218.468L527.342 218.206L526.29 219.731L526.669 219.993L525.617 221.519L525.237 221.257L524.185 222.783L524.565 223.045L523.512 224.57L523.133 224.308L522.08 225.834L522.46 226.096L521.408 227.621L521.028 227.36L520.502 228.123C520.326 228.378 520.15 228.632 519.973 228.887L520.352 229.149C519.999 229.659 519.645 230.167 519.289 230.674L518.912 230.409C518.557 230.916 518.201 231.421 517.844 231.925L518.221 232.192C517.863 232.697 517.505 233.2 517.145 233.703L516.77 233.435C516.411 233.936 516.051 234.437 515.69 234.937L516.064 235.207C515.703 235.707 515.34 236.206 514.977 236.704L514.604 236.432C514.241 236.929 513.877 237.426 513.512 237.92L513.883 238.194C513.518 238.69 513.151 239.184 512.784 239.678L512.414 239.402C512.047 239.895 511.679 240.386 511.31 240.877L511.678 241.154C511.309 241.645 510.938 242.135 510.567 242.623L510.2 242.344C509.828 242.833 509.456 243.32 509.083 243.806L509.448 244.087C509.071 244.579 508.692 245.069 508.313 245.558L507.948 245.276C507.569 245.764 507.189 246.252 506.808 246.738L507.171 247.022C506.79 247.509 506.407 247.995 506.024 248.479L505.662 248.193C505.279 248.677 504.895 249.16 504.51 249.641L504.87 249.929C504.485 250.411 504.098 250.892 503.711 251.372L503.352 251.082C502.965 251.561 502.577 252.039 502.188 252.516L502.545 252.808C502.156 253.285 501.765 253.761 501.374 254.236L501.018 253.943C500.627 254.417 500.235 254.891 499.842 255.363L500.197 255.658C499.803 256.13 499.409 256.602 499.014 257.072L498.661 256.775C498.266 257.245 497.87 257.713 497.473 258.181L497.825 258.479C497.425 258.951 497.023 259.421 496.621 259.89L496.271 259.589C495.869 260.059 495.465 260.527 495.061 260.994L495.409 261.296C495.005 261.763 494.599 262.229 494.192 262.695L493.845 262.391C493.438 262.855 493.031 263.319 492.623 263.781L492.968 264.086C492.559 264.549 492.15 265.01 491.739 265.47L491.395 265.163C490.985 265.623 490.574 266.081 490.161 266.539L490.504 266.847C490.091 267.305 489.678 267.762 489.263 268.217L488.922 267.907C488.508 268.361 488.093 268.815 487.677 269.267L488.017 269.579C487.601 270.032 487.183 270.484 486.765 270.934L486.427 270.621C486.009 271.07 485.591 271.519 485.171 271.967L485.507 272.282C485.085 272.732 484.662 273.181 484.238 273.629L483.903 273.312C483.478 273.76 483.052 274.208 482.625 274.654L482.959 274.973C482.531 275.42 482.103 275.866 481.673 276.31L481.342 275.989C480.913 276.433 480.483 276.876 480.053 277.317L480.383 277.639C479.952 278.081 479.519 278.522 479.086 278.961L478.758 278.637C478.326 279.076 477.892 279.514 477.458 279.95L477.785 280.276C477.35 280.712 476.914 281.148 476.477 281.582L476.152 281.256C475.716 281.689 475.279 282.122 474.841 282.553L475.165 282.882C474.726 283.314 474.287 283.744 473.846 284.174L473.525 283.844C473.085 284.272 472.644 284.7 472.203 285.126L472.523 285.458C472.079 285.886 471.635 286.313 471.19 286.739L470.871 286.406C470.425 286.833 469.977 287.259 469.529 287.683L469.846 288.018C469.397 288.443 468.947 288.867 468.496 289.289L468.181 288.953C467.73 289.375 467.279 289.795 466.827 290.215L467.141 290.553C466.689 290.973 466.235 291.391 465.781 291.809L465.469 291.469C465.015 291.886 464.56 292.301 464.105 292.716L464.415 293.057C463.959 293.472 463.502 293.885 463.045 294.297L462.736 293.955C462.279 294.366 461.821 294.777 461.362 295.186L461.669 295.53C461.209 295.94 460.749 296.348 460.287 296.756L459.982 296.41C459.522 296.816 459.06 297.222 458.598 297.626L458.901 297.973C458.437 298.379 457.972 298.783 457.506 299.186L457.205 298.837C456.737 299.241 456.269 299.644 455.801 300.046L456.101 300.396C455.631 300.798 455.161 301.199 454.69 301.598L454.392 301.246C453.921 301.645 453.45 302.043 452.977 302.439L453.274 302.793C452.801 303.189 452.328 303.585 451.853 303.979L451.558 303.624C451.378 303.774 451.198 303.923 451.018 304.072C450.724 304.316 450.429 304.559 450.134 304.802L450.427 305.158C449.951 305.55 449.474 305.94 448.996 306.329L448.705 305.971C448.228 306.36 447.75 306.747 447.271 307.133L447.56 307.492C447.081 307.878 446.601 308.263 446.12 308.647L445.832 308.287C445.351 308.67 444.87 309.052 444.388 309.433L444.674 309.795C444.19 310.177 443.706 310.557 443.22 310.937L442.936 310.573C442.45 310.954 441.962 311.333 441.474 311.71L441.757 312.075C441.268 312.453 440.778 312.83 440.288 313.205L440.008 312.839C439.518 313.214 439.028 313.588 438.536 313.96L438.815 314.327C438.323 314.7 437.83 315.072 437.337 315.442L437.06 315.073C436.567 315.442 436.074 315.811 435.579 316.178L435.854 316.548C435.359 316.915 434.863 317.282 434.366 317.646L434.093 317.275C433.597 317.639 433.101 318.002 432.603 318.364L432.874 318.737C432.376 319.099 431.877 319.46 431.377 319.819L431.108 319.445C430.609 319.804 430.109 320.161 429.609 320.518L429.876 320.893C429.374 321.251 428.871 321.607 428.367 321.962L428.101 321.585C427.597 321.941 427.091 322.295 426.585 322.647L426.849 323.026C426.342 323.379 425.835 323.731 425.326 324.081L425.065 323.701C424.557 324.052 424.049 324.4 423.539 324.748L423.799 325.128C423.29 325.476 422.779 325.823 422.268 326.168L422.01 325.785C421.499 326.13 420.988 326.473 420.476 326.815L420.732 327.199C420.219 327.541 419.706 327.882 419.192 328.222L418.937 327.837C418.424 328.176 417.91 328.514 417.395 328.851L417.647 329.237C417.131 329.574 416.615 329.909 416.098 330.244L415.848 329.856C415.331 330.19 414.814 330.523 414.296 330.854L414.545 331.242C414.025 331.574 413.504 331.905 412.983 332.235L412.737 331.845C412.215 332.175 411.693 332.503 411.17 332.83L411.415 333.221C410.891 333.549 410.367 333.875 409.842 334.2L409.599 333.807C409.075 334.132 408.55 334.455 408.025 334.776L408.265 335.17C407.739 335.492 407.212 335.812 406.684 336.131L406.446 335.737C406.249 335.856 406.052 335.974 405.856 336.093C405.525 336.292 405.194 336.491 404.862 336.689L405.099 337.085C404.57 337.401 404.04 337.716 403.51 338.03L403.275 337.633C402.745 337.946 402.215 338.258 401.684 338.569L401.916 338.967C401.385 339.278 400.852 339.588 400.319 339.896L400.088 339.497C399.906 339.602 399.725 339.707 399.543 339.811C399.192 340.013 398.84 340.215 398.489 340.416L398.718 340.816C398.182 341.123 397.645 341.427 397.108 341.731L396.881 341.329C396.344 341.633 395.807 341.935 395.268 342.235L395.493 342.638C394.954 342.939 394.415 343.239 393.874 343.537L393.652 343.133C393.112 343.431 392.572 343.727 392.031 344.022L392.252 344.427C391.71 344.722 391.168 345.016 390.625 345.309L390.406 344.903C389.864 345.195 389.321 345.486 388.778 345.776L388.995 346.183C388.451 346.473 387.906 346.761 387.36 347.048L387.146 346.64C386.981 346.727 386.816 346.813 386.651 346.9C386.271 347.099 385.89 347.298 385.51 347.496L385.722 347.905C385.176 348.189 384.629 348.472 384.081 348.754L383.87 348.343C383.323 348.624 382.775 348.904 382.227 349.183L382.435 349.594C381.885 349.873 381.334 350.151 380.782 350.428L380.575 350.015C380.024 350.292 379.472 350.567 378.92 350.84L379.124 351.254C378.571 351.527 378.018 351.8 377.463 352.071L377.261 351.656C376.707 351.927 376.153 352.196 375.598 352.464L375.799 352.88C375.243 353.148 374.687 353.415 374.131 353.68L373.932 353.264C373.376 353.529 372.82 353.792 372.263 354.055L372.459 354.472C371.901 354.734 371.343 354.996 370.784 355.255L370.59 354.837C370.032 355.096 369.473 355.354 368.913 355.611L369.106 356.03C368.546 356.287 367.985 356.543 367.424 356.797L367.234 356.377C366.673 356.63 366.112 356.883 365.55 357.134L365.738 357.555C365.174 357.807 364.61 358.057 364.045 358.306L363.859 357.884C363.295 358.133 362.731 358.38 362.166 358.626L362.35 359.049C361.784 359.295 361.217 359.54 360.651 359.783L360.469 359.359C359.903 359.602 359.336 359.843 358.768 360.084L358.948 360.508C358.38 360.749 357.812 360.988 357.243 361.225L357.065 360.8C356.497 361.037 355.928 361.273 355.359 361.507L355.534 361.934C354.964 362.168 354.393 362.402 353.822 362.633L353.649 362.206C353.079 362.438 352.508 362.668 351.936 362.896L352.108 363.325C351.535 363.554 350.963 363.781 350.39 364.007L350.22 363.578C349.648 363.804 349.074 364.029 348.5 364.252L348.667 364.682C348.092 364.905 347.517 365.128 346.94 365.348L346.775 364.918C346.2 365.138 345.624 365.357 345.048 365.575L345.21 366.006C344.633 366.224 344.056 366.441 343.478 366.656L343.317 366.223C342.739 366.438 342.161 366.651 341.583 366.863L341.742 367.296C341.163 367.508 340.583 367.719 340.003 367.928L339.847 367.494C339.267 367.703 338.688 367.911 338.107 368.117L338.262 368.552C337.681 368.758 337.099 368.963 336.517 369.166L336.365 368.731C335.784 368.934 335.202 369.136 334.62 369.336L334.77 369.772C334.188 369.973 333.604 370.172 333.021 370.369L332.873 369.933C332.289 370.13 331.705 370.326 331.121 370.521L331.267 370.959C330.681 371.154 330.096 371.347 329.509 371.539L329.366 371.101C328.78 371.293 328.194 371.483 327.608 371.672L327.749 372.111C327.162 372.3 326.575 372.488 325.987 372.674L325.848 372.235C325.26 372.421 324.673 372.605 324.085 372.788L324.222 373.229C323.633 373.412 323.044 373.594 322.454 373.774L322.319 373.333C321.73 373.514 321.141 373.692 320.551 373.87L320.684 374.311C320.094 374.489 319.503 374.665 318.912 374.839L318.781 374.397C318.191 374.572 317.6 374.745 317.008 374.916L317.137 375.359C316.545 375.531 315.952 375.701 315.36 375.87L315.233 375.426C314.641 375.595 314.048 375.762 313.454 375.928L313.578 376.372C312.984 376.538 312.39 376.702 311.795 376.865L311.673 376.42C311.079 376.583 310.485 376.745 309.89 376.904L310.009 377.35C309.414 377.51 308.818 377.669 308.221 377.826L308.104 377.38C307.508 377.537 306.912 377.692 306.316 377.846L306.431 378.293C305.834 378.447 305.237 378.6 304.639 378.751L304.526 378.304C303.929 378.455 303.332 378.604 302.734 378.753L302.845 379.2C302.246 379.349 301.647 379.495 301.048 379.641L300.94 379.193C300.341 379.338 299.742 379.481 299.143 379.624L299.25 380.072C298.65 380.215 298.05 380.356 297.449 380.495L297.345 380.046C296.745 380.185 296.144 380.323 295.544 380.46L295.646 380.909C295.044 381.046 294.443 381.181 293.841 381.315L293.741 380.864C293.139 380.998 292.538 381.13 291.936 381.26L292.033 381.711C291.431 381.842 290.828 381.971 290.224 382.098L290.129 381.647C289.526 381.775 288.924 381.901 288.32 382.025L288.414 382.477C287.81 382.602 287.206 382.725 286.601 382.847L286.51 382.395C285.906 382.516 285.302 382.636 284.698 382.755L284.787 383.207C284.182 383.326 283.576 383.443 282.971 383.559L282.884 383.106C282.279 383.222 281.674 383.336 281.068 383.449L281.153 383.902C280.547 384.015 279.94 384.126 279.333 384.236L279.251 383.782C278.645 383.892 278.039 384 277.432 384.107L277.512 384.561C276.905 384.668 276.297 384.773 275.69 384.877L275.612 384.423C275.005 384.526 274.397 384.629 273.79 384.73L273.865 385.184C273.257 385.285 272.648 385.385 272.04 385.483L271.966 385.027C271.358 385.125 270.75 385.221 270.141 385.316L270.212 385.772C269.603 385.867 268.993 385.96 268.384 386.052L268.315 385.596C267.706 385.688 267.097 385.778 266.487 385.867L266.554 386.324C265.943 386.412 265.333 386.5 264.722 386.586L264.658 386.129C264.048 386.215 263.438 386.299 262.827 386.382L262.889 386.839C262.278 386.922 261.667 387.004 261.056 387.083L260.996 386.626C260.386 386.706 259.775 386.784 259.164 386.861L259.221 387.319C258.61 387.396 257.998 387.471 257.386 387.545L257.33 387.087C256.719 387.161 256.107 387.233 255.496 387.304L255.549 387.762C254.936 387.833 254.323 387.903 253.71 387.97L253.66 387.512C253.047 387.58 252.435 387.646 251.823 387.711L251.871 388.17C251.258 388.235 250.644 388.298 250.031 388.36L249.985 387.901C249.372 387.963 248.759 388.023 248.145 388.082L248.189 388.541C247.575 388.6 246.961 388.657 246.347 388.713L246.305 388.254C245.692 388.31 245.078 388.364 244.464 388.417L244.504 388.876C243.89 388.929 243.275 388.98 242.661 389.03L242.624 388.57C242.01 388.62 241.396 388.668 240.782 388.715L240.817 389.175C240.203 389.222 239.588 389.267 238.973 389.311L238.94 388.851C238.326 388.894 237.711 388.937 237.097 388.977L237.127 389.437C236.512 389.478 235.897 389.517 235.281 389.555L235.253 389.095C234.638 389.132 234.023 389.169 233.408 389.203L233.434 389.664C232.819 389.698 232.203 389.732 231.587 389.763L231.563 389.303C230.948 389.334 230.332 389.364 229.717 389.393L229.738 389.854C229.122 389.882 228.506 389.909 227.889 389.935L227.87 389.474C227.255 389.5 226.639 389.524 226.024 389.546L226.041 390.007C225.425 390.03 224.809 390.051 224.193 390.07L224.178 389.609C223.563 389.629 222.948 389.647 222.332 389.663L222.344 390.124C221.728 390.141 221.112 390.156 220.496 390.169L220.486 389.708C219.87 389.722 219.254 389.734 218.639 389.744L218.646 390.205C218.03 390.215 217.413 390.224 216.797 390.232L216.791 389.771C216.175 389.778 215.559 389.784 214.943 389.788L214.946 390.249C214.33 390.254 213.713 390.257 213.096 390.258L213.095 389.797C212.479 389.798 211.863 389.798 211.246 389.796L211.245 390.257C210.628 390.255 210.011 390.252 209.394 390.247L209.397 389.786C208.782 389.782 208.166 389.775 207.55 389.767L207.544 390.229C206.928 390.221 206.312 390.211 205.696 390.201L205.704 389.74C205.089 389.729 204.473 389.716 203.858 389.702L203.847 390.164C203.231 390.15 202.615 390.134 201.999 390.117L202.011 389.656C201.396 389.639 200.78 389.621 200.165 389.601L200.15 390.062C199.534 390.042 198.917 390.02 198.301 389.997L198.318 389.537C197.703 389.514 197.087 389.489 196.471 389.463L196.452 389.924C195.836 389.898 195.219 389.87 194.603 389.841L194.625 389.38C194.009 389.351 193.394 389.321 192.778 389.289L192.754 389.749C192.138 389.717 191.521 389.683 190.905 389.648L190.931 389.188C190.317 389.152 189.703 389.116 189.088 389.078L189.06 389.538C188.445 389.5 187.83 389.46 187.215 389.419L187.246 388.959C186.632 388.918 186.018 388.875 185.404 388.831L185.371 389.291C184.756 389.246 184.142 389.2 183.527 389.153L183.562 388.693C182.948 388.646 182.335 388.597 181.721 388.547L181.683 389.007C181.069 388.956 180.454 388.904 179.839 388.851L179.879 388.391C179.266 388.338 178.652 388.283 178.038 388.227L177.996 388.686C177.382 388.629 176.767 388.571 176.153 388.512L176.198 388.053C175.584 387.993 174.971 387.932 174.357 387.87L174.311 388.329C173.697 388.266 173.083 388.202 172.469 388.136L172.518 387.678C171.906 387.612 171.295 387.545 170.684 387.477L170.632 387.935C170.02 387.867 169.408 387.797 168.796 387.725L168.85 387.267C168.239 387.195 167.627 387.122 167.016 387.048L166.961 387.506C166.349 387.431 165.737 387.355 165.126 387.277L165.184 386.82C164.573 386.742 163.962 386.663 163.352 386.582L163.291 387.04C162.68 386.959 162.069 386.877 161.457 386.793L161.52 386.336C160.91 386.252 160.299 386.167 159.689 386.08L159.624 386.537C159.013 386.45 158.402 386.361 157.792 386.272L157.859 385.815C157.249 385.726 156.639 385.634 156.029 385.541L155.96 385.997C155.35 385.904 154.74 385.81 154.131 385.714L154.202 385.258C153.595 385.163 152.988 385.066 152.381 384.967L152.307 385.422C151.699 385.323 151.091 385.223 150.484 385.121L150.56 384.666C149.953 384.565 149.346 384.462 148.74 384.357L148.661 384.811C148.054 384.706 147.447 384.6 146.84 384.492L146.921 384.038C146.314 383.93 145.708 383.821 145.102 383.71L145.019 384.164C144.413 384.053 143.806 383.94 143.2 383.826L143.285 383.373C142.68 383.259 142.074 383.144 141.469 383.027L141.381 383.48C140.775 383.362 140.169 383.244 139.564 383.124L139.654 382.671C139.049 382.551 138.444 382.43 137.839 382.307L137.747 382.759C137.143 382.636 136.539 382.511 135.935 382.385L136.029 381.934C135.428 381.808 134.826 381.681 134.225 381.552L134.128 382.003C133.526 381.874 132.924 381.744 132.323 381.612L132.421 381.162C131.82 381.03 131.22 380.897 130.619 380.762L130.518 381.212C129.917 381.077 129.316 380.941 128.715 380.803L128.818 380.353C128.218 380.216 127.618 380.076 127.018 379.935L126.913 380.384C126.313 380.243 125.712 380.101 125.112 379.957L125.22 379.508C124.621 379.365 124.022 379.219 123.423 379.072L123.313 379.52C122.713 379.373 122.114 379.224 121.515 379.074L121.627 378.627C121.029 378.477 120.43 378.325 119.833 378.172L119.718 378.619C119.121 378.466 118.524 378.312 117.928 378.156L118.044 377.71C117.45 377.555 116.855 377.398 116.261 377.239L116.143 377.685C115.548 377.527 114.953 377.366 114.359 377.205L114.48 376.76C113.886 376.598 113.293 376.436 112.7 376.271L112.577 376.716C111.983 376.551 111.389 376.385 110.796 376.217L110.922 375.773C110.329 375.606 109.737 375.437 109.145 375.266L109.017 375.71C108.424 375.539 107.832 375.367 107.24 375.193L107.369 374.75C106.778 374.577 106.187 374.402 105.596 374.225L105.464 374.667C104.872 374.49 104.281 374.312 103.69 374.132L103.824 373.691C103.234 373.511 102.644 373.33 102.054 373.147L101.917 373.588C101.329 373.406 100.741 373.222 100.153 373.037L100.291 372.597C99.7054 372.412 99.1199 372.226 98.5346 372.038L98.3937 372.477C97.8077 372.29 97.222 372.1 96.6366 371.909L96.7796 371.471C96.1949 371.28 95.6105 371.088 95.0264 370.894L94.8812 371.332C94.2964 371.138 93.7119 370.942 93.1277 370.745L93.2751 370.308C92.6916 370.112 92.1085 369.913 91.5257 369.714L91.3761 370.15C90.7926 369.95 90.2093 369.748 89.6264 369.545L89.7781 369.11C89.1959 368.907 88.614 368.703 88.0325 368.497L87.8787 368.932C87.2964 368.726 86.7145 368.518 86.1329 368.309L86.2889 367.875C85.708 367.666 85.1275 367.456 84.5473 367.244L84.3891 367.677C83.8106 367.466 83.2323 367.253 82.6544 367.039L82.8148 366.606C82.239 366.393 81.6636 366.178 81.0886 365.961L80.9261 366.393C80.3503 366.176 79.7749 365.958 79.1998 365.738L79.3645 365.307C78.7901 365.088 78.2161 364.867 77.6425 364.644L77.4757 365.074C76.9013 364.851 76.3273 364.627 75.7536 364.401L75.9226 363.972C75.3496 363.747 74.7771 363.52 74.2049 363.291L74.0338 363.72C73.4609 363.491 72.8884 363.26 72.3162 363.029L72.4894 362.601C71.9179 362.37 71.3469 362.137 70.7762 361.902L70.6009 362.329C70.0295 362.094 69.4584 361.858 68.8878 361.62L69.0652 361.194C68.4953 360.956 67.9257 360.717 67.3565 360.477L67.177 360.902C66.6095 360.662 66.0425 360.421 65.4758 360.178L65.6574 359.754C65.0933 359.512 64.5295 359.269 63.9661 359.024L63.7824 359.447C63.2183 359.202 62.6547 358.956 62.0914 358.708L62.2772 358.286C61.7146 358.038 61.1525 357.789 60.5907 357.538L60.4028 357.959C59.8403 357.708 59.2783 357.456 58.7166 357.202L58.9066 356.782C58.3457 356.528 57.7851 356.273 57.225 356.016L57.0329 356.435C56.4721 356.178 55.9116 355.92 55.3516 355.66L55.5458 355.242C54.9865 354.982 54.4276 354.721 53.8692 354.458L53.673 354.876C53.1138 354.613 52.5551 354.349 51.9968 354.083L52.1951 353.666C51.6375 353.401 51.0804 353.134 50.5237 352.865L50.3233 353.28C49.768 353.013 49.2131 352.743 48.6586 352.472L48.861 352.058C48.3099 351.789 47.7591 351.518 47.2088 351.246L47.0044 351.659C46.4534 351.387 45.9028 351.113 45.3527 350.837L45.5592 350.425C45.0098 350.15 44.4609 349.873 43.9124 349.595L43.7038 350.006C43.1546 349.728 42.6059 349.448 42.0576 349.167L42.2682 348.756C41.7205 348.475 41.1734 348.193 40.6267 347.909L40.4141 348.318C39.8667 348.034 39.3198 347.748 38.7734 347.461L38.988 347.052C38.4422 346.765 37.8969 346.477 37.352 346.187L37.1354 346.594C36.5899 346.304 36.0449 346.012 35.5003 345.719L35.7189 345.313C35.175 345.02 34.6316 344.726 34.0886 344.43L33.868 344.835C33.3256 344.54 32.7837 344.243 32.2422 343.944L32.4648 343.54C31.928 343.244 31.3916 342.947 30.8557 342.648L30.6311 343.051C30.0946 342.752 29.5585 342.451 29.023 342.149L29.2495 341.747C28.7146 341.446 28.1802 341.142 27.6462 340.838L27.4177 341.238C26.8831 340.933 26.349 340.627 25.8154 340.319L26.0459 339.92C25.5129 339.612 24.9805 339.303 24.4485 338.993L24.2161 339.391C23.6835 339.08 23.1514 338.768 22.6198 338.454L22.8542 338.057C22.3232 337.743 21.7928 337.429 21.2629 337.112L21.0265 337.508C20.4959 337.192 19.9659 336.874 19.4363 336.554L19.6746 336.159C19.1457 335.84 18.6173 335.519 18.0894 335.197L17.8492 335.591C17.3207 335.268 16.7927 334.944 16.2652 334.619L16.5074 334.226C15.9857 333.904 15.4645 333.581 14.9439 333.256L14.6998 333.648C14.179 333.323 13.6587 332.997 13.1389 332.669L13.3848 332.279C12.8657 331.951 12.347 331.623 11.8289 331.292L11.5811 331.681C11.0623 331.351 10.5441 331.019 10.0265 330.685L10.2762 330.298C9.75915 329.965 9.24264 329.63 8.72667 329.294L8.47505 329.681C7.95845 329.344 7.44238 329.007 6.92686 328.667L7.18035 328.282C6.66546 327.943 6.15112 327.603 5.63732 327.261L5.38196 327.645C4.86754 327.303 4.35367 326.96 3.84035 326.615L4.09758 326.232C3.58489 325.888 3.07275 325.542 2.56116 325.194L2.30208 325.576C1.78987 325.228 1.27821 324.879 0.767123 324.528L1.02806 324.148C0.899218 324.059 0.77041 323.971 0.641637 323.882L0.905813 323.499L0.526197 323.237L1.57859 321.712L1.95821 321.973L3.0106 320.448L2.63099 320.186L3.68338 318.66L4.063 318.922L5.11539 317.397L4.73577 317.135L5.78817 315.609L6.16778 315.871L7.22018 314.345L6.84056 314.083L7.89296 312.558L8.27257 312.82L9.32497 311.294L8.94535 311.032L9.99774 309.507L10.3774 309.768L11.4298 308.243L11.0501 307.981L12.1025 306.455L12.4821 306.717L13.5345 305.191L13.1549 304.93L14.2073 303.404L14.5869 303.666L15.6393 302.14L15.2597 301.878L16.3121 300.353L16.6917 300.615L17.7441 299.089L17.3645 298.827L18.4169 297.301L18.7965 297.563L19.8489 296.038L19.4693 295.776L20.5217 294.25L20.9013 294.512L21.9537 292.986L21.5741 292.725L22.6265 291.199L23.0061 291.461L24.0585 289.935L23.6789 289.673L24.7313 288.148L25.1109 288.41L26.1633 286.884L25.7837 286.622L26.8361 285.096L27.2157 285.358L28.2681 283.833L27.8885 283.571L28.9408 282.045L29.3205 282.307L30.3729 280.781L29.9932 280.52L31.0456 278.994L31.4252 279.256L32.4776 277.73L32.098 277.468L33.1504 275.943L33.53 276.205L34.5824 274.679L34.2028 274.417L35.2552 272.891L35.6348 273.153L36.6872 271.628L36.3076 271.366L37.36 269.84L37.7396 270.102L38.792 268.576L38.4124 268.315L39.4648 266.789L39.8444 267.051L40.8968 265.525L40.5172 265.263L41.5696 263.738L41.9492 263.999L43.0016 262.474L42.622 262.212L43.6744 260.686L44.054 260.948L45.1064 259.423L44.7267 259.161L45.7791 257.635L46.1588 257.897L47.2111 256.371L46.8315 256.109L47.8839 254.584L48.2635 254.846L49.3159 253.32L48.9363 253.058L49.9887 251.533L50.3683 251.794L51.4207 250.269L51.0411 250.007L52.0935 248.481L52.4731 248.743L53.5255 247.218L53.1459 246.956L54.1983 245.43L54.5779 245.692L55.6303 244.166L55.2507 243.904L56.3031 242.379L56.6827 242.641L57.7351 241.115L57.3555 240.853L58.4078 239.328L58.7875 239.589L59.8399 238.064L59.4602 237.802L60.5126 236.276L60.8922 236.538L61.9446 235.013L61.565 234.751L62.6174 233.225L62.997 233.487L64.0494 231.961L63.6698 231.699L64.7222 230.174L65.1018 230.436L66.1542 228.91L65.7746 228.648L66.827 227.123L67.2066 227.384L68.259 225.859L67.8794 225.597L68.9318 224.071L69.3114 224.333L70.3638 222.808L69.9842 222.546L71.0366 221.02L71.4162 221.282L72.4686 219.756L72.0889 219.494L73.1413 217.969L73.521 218.231L74.5734 216.705L74.1937 216.443L75.2461 214.918L75.6257 215.179L76.6781 213.654L76.2985 213.392L77.3509 211.866L77.7305 212.128L78.7829 210.603L78.4033 210.341L79.4557 208.815L79.8353 209.077L80.8877 207.551L80.5081 207.289L81.5605 205.764L81.9401 206.026L82.9925 204.5L82.6129 204.238L83.6653 202.713L84.0449 202.974L85.0973 201.449L84.7177 201.187L85.7701 199.661L86.1497 199.923L87.2021 198.398L86.8224 198.136L87.8748 196.61L88.2545 196.872L89.3068 195.346L88.9272 195.084L89.9796 193.559L90.3592 193.821L91.4116 192.295L91.032 192.033L92.0844 190.508L92.464 190.769L93.5164 189.244L93.1368 188.982L94.1892 187.456L94.5688 187.718L95.6212 186.193L95.2416 185.931L96.294 184.405L96.6736 184.667L97.726 183.141L97.3464 182.879L98.3988 181.354L98.7784 181.616L99.8308 180.09L99.4512 179.828L100.504 178.303L100.883 178.564L101.936 177.039L101.556 176.777L102.608 175.251L102.988 175.513L104.04 173.987L103.661 173.726L104.713 172.2L105.093 172.462L106.145 170.936L105.766 170.674L106.818 169.149L107.198 169.411L108.25 167.885L107.87 167.623L108.923 166.097L109.302 166.359L110.355 164.834L109.975 164.572L111.027 163.046L111.407 163.308L111.933 162.545Z" stroke="white" stroke-width="0.922347" stroke-dasharray="1.84 1.84"/>
</svg>
