<svg width="796" height="982" viewBox="0 0 796 982" fill="none" xmlns="http://www.w3.org/2000/svg">
<path d="M32.0705 47.1935C264.931 186.444 426.678 435.125 442.574 726.26C447.222 811.817 439.041 895.051 419.613 974.106L318.289 974.57C336.137 903.598 346.083 808.751 341.807 731.834C328.514 487.147 198.28 276.646 8.36617 151.329L32.0705 47.1935Z" fill="white"/>
<path d="M308.9 982L311.224 972.71C329.444 900.438 338.554 805.963 334.556 732.111C321.821 500.429 198.373 285.562 4.27607 157.459L0 154.672L27.1438 35.5799L35.8818 40.782C279.711 186.628 434.486 442.741 450.01 725.794C454.658 810.329 446.85 894.399 426.864 975.776L425.469 981.35L308.9 982Z" fill="white"/>
<path d="M427.793 201.212C483.393 201.212 528.466 156.169 528.466 100.606C528.466 45.0428 483.393 0 427.793 0C372.192 0 327.119 45.0428 327.119 100.606C327.119 156.169 372.192 201.212 427.793 201.212Z" fill="white"/>
<path d="M436.438 332.753C425.934 339.256 415.987 346.223 406.32 353.562C387.356 364.616 364.674 383.567 338.739 412.736C321.542 432.058 303.694 452.495 283.243 472.282C93.2365 655.751 222.448 874.334 403.345 838.848C420.077 835.597 435.601 830.023 450.01 822.684C452.706 762.581 449.824 713.811 447.314 685.942C440.993 695.882 433.37 705.357 424.075 713.625C350.545 779.581 218.544 680.647 335.114 559.325C361.886 531.549 382.894 487.331 449.638 434.566C460.421 425.556 471.948 417.195 484.218 409.578C568.439 357.092 668.09 349.939 754.634 381.523L796 300.425C681.94 255.185 548.546 262.803 436.438 332.753Z" fill="white"/>
<path d="M479.478 512.042C475.109 529.227 476.875 556.724 476.875 556.724C476.875 556.724 481.058 611.904 459.306 662.811C467.021 731.925 466.464 782.646 464.418 814.324C549.94 760.351 587.588 639.216 579.036 553.287L479.478 512.042Z" fill="white"/>
</svg>
