<svg width="15" height="15" viewBox="0 0 15 15" fill="none" xmlns="http://www.w3.org/2000/svg">
<path d="M13.0451 15H12.8471C10.6162 14.7582 8.47286 14.0005 6.58799 12.7873C4.83698 11.6764 3.3503 10.1984 2.23161 8.45626C1.01093 6.57375 0.250161 4.43244 0.0103707 2.20412C-0.0170418 1.93834 0.0100264 1.66977 0.0899479 1.41473C0.169861 1.15968 0.300957 0.923465 0.475281 0.720412C0.644835 0.51464 0.854114 0.344854 1.09074 0.221106C1.32735 0.097367 1.58649 0.0221784 1.85279 0H4.09125C4.57606 0.000488851 5.04472 0.173645 5.41259 0.488199C5.78047 0.802754 6.0233 1.23798 6.09725 1.71527C6.17904 2.32837 6.33212 2.92991 6.55355 3.50772C6.6882 3.87083 6.71601 4.26469 6.63371 4.643C6.55131 5.02131 6.36225 5.36832 6.08864 5.64323L5.56346 6.16638C6.39032 7.46672 7.49947 8.56578 8.80923 9.3825L9.3344 8.86792C9.61034 8.59537 9.95876 8.40703 10.3385 8.32495C10.7183 8.24296 11.1136 8.27067 11.4782 8.4048C12.0589 8.62332 12.6625 8.77581 13.2775 8.85934C13.7648 8.93233 14.2086 9.17993 14.5257 9.55574C14.8427 9.93164 15.0112 10.4098 14.9994 10.9005V12.9588C14.9994 13.4942 14.7865 14.0077 14.4073 14.387C14.0282 14.7664 13.5136 14.9806 12.9762 14.9828L13.0451 15ZM4.09125 1.27787H2.03359C1.93256 1.28453 1.83393 1.31152 1.74367 1.35721C1.6534 1.40291 1.57337 1.46636 1.50841 1.54374C1.4452 1.61622 1.39735 1.7007 1.36776 1.79208C1.33817 1.88346 1.32744 1.97986 1.33623 2.07547C1.545 4.09673 2.22612 6.04116 3.32501 7.753C4.33803 9.33679 5.68686 10.6804 7.27674 11.6895C8.99631 12.7957 10.9504 13.4887 12.9848 13.7135C13.0906 13.7195 13.1965 13.7035 13.2958 13.6666C13.395 13.6297 13.4856 13.5726 13.5616 13.4991C13.6987 13.3592 13.7759 13.1716 13.7769 12.976V10.9262C13.7808 10.7458 13.7181 10.5702 13.6006 10.4326C13.4832 10.2951 13.3192 10.2052 13.1398 10.1801C12.4286 10.0848 11.7299 9.91226 11.0563 9.66552C10.9236 9.61612 10.7796 9.60514 10.6409 9.63405C10.5022 9.66286 10.3746 9.73027 10.2728 9.82847L9.41189 10.6861C9.31107 10.784 9.18115 10.847 9.0416 10.8655C8.90195 10.884 8.76015 10.8572 8.63704 10.789C6.79995 9.75489 5.27933 8.24313 4.23761 6.41509C4.16631 6.29331 4.13776 6.15128 4.15647 6.01149C4.17517 5.87178 4.24007 5.74217 4.34092 5.64323L5.20187 4.78559C5.3006 4.68613 5.36852 4.56047 5.39753 4.4236C5.42653 4.28674 5.4154 4.14445 5.36545 4.01372C5.1168 3.34304 4.94356 2.64697 4.84888 1.93825C4.82752 1.75409 4.7381 1.58444 4.59804 1.46237C4.45799 1.34028 4.27733 1.27452 4.09125 1.27787Z" fill="white"/>
</svg>
