<svg width="35" height="35" viewBox="0 0 35 35" fill="none" xmlns="http://www.w3.org/2000/svg">
<path d="M30.4385 35L29.9765 35C24.7711 34.4359 19.77 32.6679 15.372 29.837C11.2863 27.245 7.81737 23.7962 5.20709 19.7313C2.35883 15.3388 0.583709 10.3424 0.0241984 5.14294C-0.0397641 4.52279 0.023395 3.89613 0.209879 3.30103C0.396342 2.70593 0.702232 2.15475 1.10899 1.68096C1.50462 1.20083 1.99293 0.80466 2.54505 0.515915C3.09715 0.22719 3.7018 0.0517496 4.32318 -5.87051e-08L9.54625 -1.2963e-07C10.6775 0.00114051 11.771 0.405172 12.6294 1.13913C13.4878 1.87309 14.0544 2.88861 14.2269 4.00229C14.4178 5.43287 14.7749 6.83645 15.2916 8.18468C15.6058 9.03193 15.6707 9.95095 15.4786 10.8337C15.2864 11.7164 14.8452 12.5261 14.2068 13.1675L12.9814 14.3882C14.9107 17.4223 17.4988 19.9868 20.5549 21.8925L21.7803 20.6918C22.4241 20.0559 23.2371 19.6164 24.1232 19.4249C25.0093 19.2336 25.9318 19.2982 26.7824 19.6112C28.1373 20.1211 29.5458 20.4769 30.9809 20.6718C32.1179 20.8421 33.1535 21.4198 33.8934 22.2967C34.633 23.1738 35.0262 24.2895 34.9986 25.4345L34.9986 30.2373C34.9986 31.4864 34.5019 32.6847 33.6171 33.5698C32.7324 34.4549 31.5317 34.9548 30.2778 34.96L30.4385 35ZM9.54625 2.98171L4.74505 2.98171C4.5093 2.99723 4.27917 3.06021 4.06856 3.16683C3.85793 3.27345 3.6712 3.42152 3.51963 3.60206C3.37214 3.77118 3.26049 3.96829 3.19144 4.18151C3.1224 4.39473 3.09737 4.61966 3.11786 4.84277C3.60499 9.55903 5.19427 14.096 7.75835 18.0903C10.1221 21.7858 13.2693 24.921 16.9791 27.2756C20.9914 29.8567 25.5509 31.4736 30.2979 31.9983C30.5448 32.0121 30.7919 31.9749 31.0235 31.8888C31.2551 31.8026 31.4664 31.6695 31.6438 31.498C31.9636 31.1714 32.1438 30.7338 32.146 30.2773L32.146 25.4946C32.1551 25.0735 32.0088 24.6637 31.7348 24.3427C31.4608 24.0219 31.0781 23.8122 30.6595 23.7536C29 23.5312 27.3698 23.1286 25.798 22.5529C25.4884 22.4376 25.1524 22.412 24.8287 22.4794C24.5051 22.5467 24.2074 22.704 23.9699 22.9331L21.9611 24.9342C21.7258 25.1628 21.4227 25.3097 21.0971 25.3529C20.7712 25.3961 20.4404 25.3335 20.1531 25.1744C15.8666 22.7614 12.3184 19.234 9.88776 14.9685C9.72138 14.6844 9.65477 14.353 9.69842 14.0268C9.74207 13.7008 9.8935 13.3984 10.1288 13.1675L12.1377 11.1664C12.3681 10.9343 12.5265 10.6411 12.5942 10.3217C12.6619 10.0024 12.6359 9.67039 12.5194 9.36536C11.9392 7.80042 11.535 6.17625 11.3141 4.52259C11.2642 4.09288 11.0556 3.69703 10.7288 3.41219C10.402 3.12733 9.98042 2.97388 9.54625 2.98171Z" fill="#CE6A02"/>
</svg>
