<svg width="92" height="189" viewBox="0 0 92 189" fill="none" xmlns="http://www.w3.org/2000/svg">
<g opacity="0.12" clip-path="url(#clip0_1_44)">
<path d="M60.366 27.8397C62.9275 31.0547 64.9663 34.6607 66.406 38.5224C69.1819 34.0261 72.5921 29.9625 76.5289 26.4597C78.0473 15.9644 72.0917 5.33287 70.1683 2.23199C64.134 9.40691 60.6795 18.4315 60.366 27.8397Z" fill="#FBB116"/>
<path d="M67.1146 40.7202C67.5833 42.3409 67.9107 44 68.0932 45.6783C68.5323 50.0347 67.9544 54.4345 66.406 58.5247C70.3889 53.5077 75.1185 49.1452 80.4262 45.593C82.6997 38.4357 83.8385 30.9604 83.8005 23.4439C76.8703 27.6711 71.1263 33.6185 67.1146 40.7202Z" fill="#FBB116"/>
<path d="M62.1713 63.4998C65.4896 58.2622 66.9856 52.0576 66.4229 45.8657C65.1238 33.5644 55.389 24.5515 52.5377 22.1492C49.7434 27.9767 48.4604 34.4255 48.8091 40.8907C55.2339 47.0455 59.8568 54.8676 62.1713 63.4998Z" fill="#FBB116"/>
<path d="M62.7786 66.6687C62.7786 66.8902 62.863 67.0947 62.8967 67.3162C63.6988 73.6794 62.8259 80.1437 60.366 86.0577C66.417 80.8688 73.6063 77.2124 81.3372 75.3922C88.4064 62.682 89.9417 46.8368 90.2453 42.2025C78.7828 47.2587 69.1772 55.8149 62.7786 66.6687Z" fill="#FBB116"/>
<path d="M54.5623 91.3224C55.4565 90.4365 56.3844 89.6187 57.3292 88.6987C60.7448 82.2211 62.1054 74.8395 61.2265 67.5547C59.1851 52.0844 46.8689 41.2143 43.5621 38.5905C39.6707 47.2665 38.2286 56.8596 39.3949 66.311C45.8229 72.4446 52.5883 81.0998 54.5623 91.3224Z" fill="#FBB116"/>
<path d="M54.8997 93.3841C55.7432 100.906 53.894 108.484 49.6864 114.749C57.4704 107.348 66.7237 101.703 76.8326 98.1886C81.4305 91.6305 84.6987 84.2189 86.4493 76.3803C73.8632 77.2663 63.0823 84.9333 54.8997 93.3841Z" fill="#FBB116"/>
<path d="M88.1533 74.898C88.0688 74.8037 87.9641 74.7301 87.8471 74.6829C87.7302 74.6356 87.604 74.616 87.4784 74.6255C86.1333 74.6832 84.7925 74.8197 83.463 75.0344C91.3589 59.8878 91.8988 41.2655 92 40.9588C92 40.8157 91.9664 40.6747 91.9019 40.5473C91.8373 40.42 91.7437 40.3099 91.6288 40.2262C91.5127 40.1498 91.3803 40.1022 91.2425 40.0874C91.1046 40.0726 90.9653 40.091 90.8359 40.141C88.0366 41.259 85.3288 42.5977 82.7376 44.1449C84.7824 36.9492 85.7213 29.4792 85.5214 21.9958C85.5133 21.8533 85.4705 21.7151 85.397 21.5932C85.3234 21.4714 85.2213 21.3698 85.0996 21.2973C84.978 21.2302 84.8417 21.1949 84.7031 21.1949C84.5645 21.1949 84.4282 21.2302 84.3066 21.2973C82.245 22.3487 80.285 23.5922 78.4522 25.0115C79.397 12.608 71.4168 0.954148 71.0288 0.408939C70.9573 0.305857 70.8642 0.22 70.756 0.157595C70.6479 0.0951892 70.5273 0.0577628 70.4031 0.047989C70.2789 0.0382152 70.1541 0.0562938 70.0377 0.101024C69.9212 0.145754 69.8161 0.216051 69.7297 0.306717C63.3348 7.39369 59.4948 16.4521 58.8307 26.0167C57.0015 23.8758 54.9608 21.9291 52.7401 20.2068C52.6458 20.1325 52.5364 20.0803 52.4197 20.0537C52.303 20.0272 52.182 20.0271 52.0653 20.0534C51.9432 20.0798 51.8283 20.1332 51.7291 20.2098C51.6299 20.2864 51.5488 20.3843 51.4917 20.4964C48.4915 26.3272 46.978 32.8214 47.0882 39.3914C46.0125 38.4011 44.8862 37.4684 43.7139 36.5972C43.6137 36.5218 43.4978 36.4704 43.3751 36.4468C43.2524 36.4232 43.1259 36.428 43.0053 36.4608C42.8868 36.4962 42.7766 36.5552 42.681 36.6342C42.5854 36.7132 42.5064 36.8106 42.4486 36.9209C38.3638 45.5323 36.6559 55.0974 37.5052 64.6073C33.9868 61.4298 30.1923 58.5787 26.1676 56.0884C26.0564 56.0168 25.9299 55.9732 25.7986 55.9611C25.6673 55.949 25.535 55.9688 25.4128 56.0188C25.2907 56.0688 25.1821 56.1476 25.0962 56.2486C25.0103 56.3496 24.9496 56.4699 24.9191 56.5995C23.1304 64.7193 22.4829 73.0532 22.9958 81.3554C21.1087 79.8631 19.1309 78.4917 17.0739 77.2493C16.9606 77.1948 16.8367 77.1665 16.7112 77.1665C16.5857 77.1665 16.4617 77.1948 16.3484 77.2493C16.2358 77.2948 16.134 77.3639 16.0496 77.452C15.9653 77.5401 15.9004 77.6451 15.8591 77.7604C12.6515 86.8728 11.5268 96.5999 12.5692 106.213C10.1944 103.974 7.675 101.897 5.02767 99.9947C4.91992 99.9216 4.79772 99.8731 4.66953 99.8525C4.54133 99.8319 4.41022 99.8397 4.28533 99.8755C4.16169 99.9181 4.04983 99.9897 3.95892 100.084C3.86801 100.179 3.80062 100.295 3.76231 100.421C3.5936 100.898 -11.6751 148.706 20.2626 165.982C17.1751 168.964 14.9987 173.376 12.7379 176.954C10.4261 181.079 7.52706 184.839 4.13349 188.114C3.69483 188.506 4.26847 189.238 4.77461 188.932C8.22847 186.664 11.2419 183.777 13.6658 180.413C16.8377 176.256 21.0724 171.536 22.8271 166.561C25.6914 166.941 28.5764 167.14 31.4652 167.158C74.2175 167.158 85.1164 121.888 85.2177 121.428C85.2443 121.305 85.2445 121.177 85.2183 121.054C85.1921 120.93 85.1401 120.814 85.0658 120.713C84.9916 120.612 84.8949 120.53 84.7835 120.473C84.6722 120.417 84.5492 120.388 84.4247 120.389H83.0413C81.6578 120.389 80.3081 120.389 78.9752 120.593C82.7948 112.989 85.7927 104.992 87.9171 96.7405C87.9489 96.603 87.9471 96.4599 87.9118 96.3234C87.8765 96.1868 87.8089 96.0609 87.7146 95.9567C87.6157 95.8585 87.4959 95.7846 87.3643 95.7403C87.2327 95.696 87.0929 95.6826 86.9554 95.7012C84.4621 96.1269 81.9949 96.6957 79.5657 97.405C83.8327 90.7858 86.8155 83.4082 88.3558 75.6648C88.382 75.5298 88.3775 75.3906 88.3424 75.2577C88.3073 75.1249 88.2426 75.0018 88.1533 74.898ZM90.1779 42.2196C89.8742 46.8539 88.3389 62.6649 81.2697 75.4091C73.5388 77.2294 66.3495 80.8859 60.2985 86.0748C62.7584 80.1608 63.6313 73.6965 62.8292 67.3333C62.8292 67.1118 62.7449 66.9073 62.7112 66.6858C69.1097 55.832 78.7153 47.2758 90.1779 42.2196ZM83.7836 23.478C83.8216 30.9945 82.6828 38.4698 80.4093 45.6272C75.1017 49.1794 70.372 53.5419 66.3891 58.5589C67.9376 54.4686 68.5154 50.0688 68.0763 45.7123C67.8938 44.034 67.5664 42.3751 67.0977 40.7544C71.119 33.6193 76.8878 27.6469 83.8511 23.4099L83.7836 23.478ZM70.1683 2.30011C72.0917 5.40098 78.0473 16.0325 76.5289 26.5278C72.5921 30.0306 69.1819 34.0942 66.406 38.5905C64.9663 34.7288 62.9275 31.1228 60.366 27.9078C60.6833 18.4677 64.1629 9.41579 70.2358 2.23199L70.1683 2.30011ZM52.4702 22.2173C55.3214 24.6196 65.0563 33.6325 66.3554 45.9338C66.9181 52.1257 65.4221 58.3304 62.1038 63.568C59.7752 54.9664 55.1532 47.1753 48.7416 41.044C48.3878 34.5216 49.6947 28.0166 52.5377 22.1492L52.4702 22.2173ZM43.4946 38.6247C46.8689 41.2825 59.1175 52.1526 61.159 67.5889C62.0379 74.8737 60.6773 82.2551 57.2617 88.7327C56.3169 89.5846 55.389 90.4365 54.4948 91.3566C52.5208 81.1339 45.7554 72.4787 39.3105 66.311C38.1642 56.8406 39.6357 47.2344 43.5621 38.5564L43.4946 38.6247ZM26.2688 58.1329C30.8072 61.0975 49.6189 74.3358 52.892 91.9529C54.4779 100.472 52.1834 108.991 46.0253 117.101L45.2323 116.709C45.0344 115.155 44.7528 113.614 44.3888 112.092C41.0145 98.4613 31.6171 88.4771 24.7504 82.7524C24.1163 74.4889 24.6503 66.1763 26.3363 58.0647L26.2688 58.1329ZM17.1414 79.0723C21.2074 81.645 38.1969 93.367 42.8197 112.364C45.0203 122.004 44.0061 132.109 39.9347 141.107C37.2859 143.679 34.8733 146.218 32.7137 148.757L31.6171 147.326C32.0958 144.454 32.1697 141.529 31.8364 138.636C30.3686 125.807 21.7135 114.783 14.5094 107.781C13.1789 98.1345 14.0798 88.308 17.1414 79.0723ZM5.04454 101.852C9.48173 105.259 28.0572 120.321 30.1493 138.841C31.1784 147.82 28.1753 156.407 21.2074 164.397C-6.96793 149.319 2.98622 109.178 5.04454 101.92V101.852ZM82.9738 121.956H83.2268C81.3541 128.601 69.2404 165.335 31.3978 165.335C28.6108 165.32 25.8273 165.133 23.0633 164.772C25.2344 162.243 27.0927 159.457 28.5971 156.475C38.4163 143.662 58.527 122.025 82.9738 122.025V121.956ZM85.8925 97.422C83.7123 105.469 80.704 113.264 76.9169 120.679C63.7403 122.519 52.0315 130.083 42.7522 138.466C44.761 132.942 45.7447 127.091 45.6541 121.207C55.0009 110.967 68.245 101.034 85.8925 97.4901V97.422ZM76.8663 98.1205C66.7396 101.651 57.4739 107.32 49.6864 114.749C53.8821 108.48 55.7193 100.902 54.8659 93.3841C63.0486 84.8652 73.8294 77.2663 86.4493 76.3463C84.7132 84.1943 81.4563 91.6176 76.8663 98.1886V98.1205Z" fill="black"/>
<path d="M44.4563 112.023C44.8203 113.546 45.1019 115.087 45.2998 116.641L46.0928 117.033C52.2509 108.923 54.5285 100.472 52.9595 91.8847C49.6864 74.2677 30.8748 61.0293 26.3363 58.0647C24.6793 66.1573 24.1681 74.4466 24.8179 82.6843C31.6846 88.409 41.1326 98.3932 44.4563 112.023Z" fill="#FBB116"/>
<path d="M45.6541 121.275C45.7447 127.159 44.761 133.01 42.7523 138.534C52.0316 130.152 63.7403 122.587 76.9169 120.747C80.704 113.332 83.7123 105.537 85.8926 97.4901C68.245 101.034 55.0009 110.967 45.6541 121.275Z" fill="#FBB116"/>
<path d="M31.1278 149.949H31.5665L31.2122 149.523C31.1278 149.711 31.1278 149.83 31.1278 149.949Z" fill="black"/>
<path d="M31.8364 138.705C32.1697 141.597 32.0958 144.522 31.6171 147.394L32.7137 148.825C34.8733 146.337 37.2859 143.714 39.9347 141.175C44.0061 132.177 45.0203 122.073 42.8197 112.432C38.197 93.4352 21.2074 81.7643 17.1414 79.1404C14.0798 88.3762 13.1789 98.2028 14.5094 107.849C21.6292 114.852 30.3686 125.875 31.8364 138.705Z" fill="#FBB116"/>
<path d="M28.5971 156.543C27.0927 159.525 25.2344 162.312 23.0633 164.84C25.8274 165.201 28.6108 165.388 31.3978 165.403C69.2404 165.403 81.3541 128.669 83.2269 122.025H82.9738C58.5271 122.025 38.4163 143.662 28.5971 156.543Z" fill="#FBB116"/>
<path d="M5.04456 101.92C2.98624 109.178 -6.96791 149.319 21.2074 164.415C28.1753 156.475 31.1784 147.888 30.1493 138.858C28.0572 120.389 9.48175 105.276 5.04456 101.92Z" fill="#FBB116"/>
<path d="M53.9212 132.06H53.6512L52.0653 133.15C52.6646 132.754 53.284 132.39 53.9212 132.06Z" fill="#F58A1F"/>
<path d="M68.5824 148.808C60.8047 150.886 52.892 152.215 44.9624 151.159C44.3583 151.158 43.7628 151.015 43.2236 150.74C42.6845 150.464 42.2168 150.065 41.858 149.575C41.5203 148.704 41.5203 147.736 41.858 146.866C43.1851 142.207 45.8579 138.055 49.5346 134.939C41.6541 141.18 34.6003 148.418 28.5465 156.475C27.042 159.457 25.1838 162.243 23.0126 164.772C25.7767 165.133 28.5602 165.32 31.3471 165.335C38.369 165.471 45.3362 164.063 51.7657 161.209C58.1953 158.356 63.9334 154.124 68.5824 148.808Z" fill="#F58A1F"/>
<path d="M1.92334 131.889C2.98624 144.208 7.74398 157.139 21.2074 164.363C28.1753 156.424 31.1784 147.837 30.1493 138.807C30.0167 137.597 29.8139 136.397 29.5419 135.212C26.8425 139.693 23.3669 144.327 18.2886 144.821C14.1889 145.213 10.3591 142.657 7.49092 139.71C5.26783 137.391 3.39216 134.756 1.92334 131.889Z" fill="#F58A1F"/>
<path d="M52.8414 114.204C50.3153 116.422 47.9157 118.783 45.6541 121.275C45.7447 127.159 44.761 133.01 42.7523 138.534C47.4776 134.197 52.6732 130.413 58.2403 127.255C55.8217 126.694 53.7188 125.195 52.3859 123.081C51.6844 121.512 51.4782 119.763 51.7954 118.072C51.9828 116.744 52.3342 115.444 52.8414 114.204Z" fill="#F58A1F"/>
<path d="M39.9853 104.459C40.26 107.672 39.7339 110.903 38.455 113.858C37.176 116.813 35.1849 119.398 32.6631 121.377C30.9733 122.638 29.0774 123.589 27.0618 124.188C29.56 128.673 31.1809 133.601 31.8364 138.704C32.1697 141.597 32.0958 144.522 31.6171 147.394L32.7137 148.825C34.8733 146.337 37.2859 143.714 39.9347 141.175C44.0061 132.177 45.0203 122.072 42.8197 112.432C42.1374 109.687 41.188 107.016 39.9853 104.459Z" fill="#F58A1F"/>
<path d="M62.593 86.4326C59.8745 88.5697 57.304 90.8923 54.8997 93.3841C55.7432 100.906 53.894 108.484 49.6864 114.749C54.1262 110.583 59.0225 106.941 64.2802 103.896C63.8666 103.561 63.4878 103.184 63.1498 102.772C60.9228 100.114 60.6022 96.3146 60.9734 92.8559C61.2125 90.6487 61.7577 88.4864 62.593 86.4326Z" fill="#F58A1F"/>
<path d="M52.9595 91.8848C52.5193 89.6058 51.8465 87.3789 50.9518 85.24C51.1829 88.4709 50.7391 91.7148 49.6492 94.7614C48.5593 97.8081 46.8475 100.589 44.625 102.925C43.8787 103.685 43.0655 104.375 42.1955 104.987C43.1632 107.253 43.9475 109.595 44.5406 111.989C44.9047 113.512 45.1863 115.053 45.3842 116.607L46.1772 116.998C52.2509 108.923 54.5454 100.472 52.9595 91.8848Z" fill="#F58A1F"/>
<path d="M74.9936 77.3686C74.5549 77.3686 74.1163 77.2322 73.6776 77.13C72.2316 76.8216 70.8772 76.1756 69.7229 75.2436C68.5686 74.3117 67.6464 73.1197 67.0303 71.7632C66.4147 69.7048 66.3449 67.5192 66.8278 65.4251C67.2265 63.171 67.7905 60.9501 68.515 58.7804C66.4453 61.285 64.5511 63.9322 62.8462 66.7029C62.8462 66.9244 62.9305 67.1288 62.9642 67.3503C63.7663 73.7136 62.8934 80.1779 60.4335 86.0919C64.8085 82.4377 69.7209 79.4946 74.9936 77.3686Z" fill="#F58A1F"/>
<path d="M61.2265 67.5547C60.7381 63.9817 59.726 60.502 58.2233 57.2299C59.0669 63.0909 59.6743 69.5482 56.2494 74.2676C54.6009 76.5104 52.3099 78.1877 49.6864 79.0723C51.9844 82.8412 53.6118 86.9871 54.4948 91.3225C55.389 90.4365 56.3169 89.6187 57.2617 88.6987C60.7005 82.2286 62.0847 74.8466 61.2265 67.5547Z" fill="#F58A1F"/>
<path d="M62.1713 63.4997C65.4896 58.2621 66.9856 52.0575 66.4229 45.8657C66.2157 44.0557 65.8372 42.2699 65.2925 40.5328C65.2082 41.7933 65.0048 43.0427 64.6851 44.2641C64.3116 45.9541 63.5442 47.5297 62.4468 48.8602C61.3494 50.1906 59.9536 51.2376 58.3752 51.9141C58.0989 52.0148 57.8172 52.1002 57.5316 52.1697C59.6185 55.6969 61.1816 59.5142 62.1713 63.4997Z" fill="#F58A1F"/>
<path d="M74.7405 49.597C73.8234 49.4639 72.9539 49.101 72.2113 48.5415C71.4687 47.982 70.8765 47.2437 70.4889 46.3939C70.1459 45.2386 70.088 44.016 70.3202 42.833C70.7875 39.3292 71.677 35.8962 72.969 32.6103C70.7977 35.1506 68.8395 37.8691 67.1146 40.7373C67.5833 42.358 67.9107 44.017 68.0932 45.6953C68.5323 50.0517 67.9544 54.4516 66.406 58.5418C69.0072 55.2918 71.9236 52.3123 75.1117 49.6481L74.7405 49.597Z" fill="#F58A1F"/>
<path d="M63.1836 25.5737C62.2593 25.2606 61.4132 24.7491 60.7034 24.0743C60.5347 25.3522 60.3998 26.613 60.3323 27.8397C62.8937 31.0547 64.9325 34.6607 66.3723 38.5224C69.1482 34.0261 72.5583 29.9625 76.4951 26.4597C76.7056 24.9132 76.7734 23.3504 76.6976 21.7913C75.354 22.7525 73.9317 23.596 72.446 24.3129C69.6213 25.8822 66.3188 26.3317 63.1836 25.5737Z" fill="#F58A1F"/>
<path d="M71.0288 7.61587C70.9322 7.44736 70.7782 7.32009 70.5956 7.25794C70.4129 7.19579 70.214 7.20305 70.0362 7.27822C69.8584 7.35339 69.7138 7.49137 69.6294 7.66641C69.5451 7.84145 69.5267 8.04151 69.5778 8.22921C69.814 9.09813 70.0334 9.93296 70.2358 10.87C70.342 11.8472 70.6838 12.7833 71.2313 13.5961C71.7037 14.1925 72.6147 13.7836 72.8172 13.1702C73.4245 11.3812 72.0411 9.01297 71.0288 7.61587Z" fill="#FFDD35"/>
<path d="M73.6945 16.6288C73.4077 15.1977 71.1301 15.9474 71.7543 17.4467C71.9048 17.9469 72.2054 18.3875 72.6147 18.7075C72.7195 18.7693 72.837 18.806 72.958 18.8148C73.0791 18.8236 73.2006 18.8042 73.313 18.7581C73.4255 18.712 73.526 18.6405 73.6067 18.549C73.6875 18.4575 73.7464 18.3485 73.7789 18.2304C73.8944 17.6986 73.8653 17.1452 73.6945 16.6288Z" fill="#FFDD35"/>
<path d="M53.9549 27.959C52.2344 29.906 51.3063 32.4377 51.3567 35.0467C51.3567 36.086 53.0438 36.7505 53.4993 35.626C53.9031 34.5129 54.2356 33.3747 54.4948 32.2185C54.9126 31.0034 55.201 29.7469 55.3552 28.4702C55.3392 28.314 55.28 28.1655 55.1842 28.0418C55.0885 27.9181 54.9601 27.8242 54.8139 27.7708C54.6677 27.7174 54.5095 27.7067 54.3576 27.74C54.2056 27.7733 54.066 27.8493 53.9549 27.959Z" fill="#FFDD35"/>
<path d="M44.1189 46.036C42.9799 48.9551 42.4681 52.0854 42.6173 55.2194C42.6183 55.5654 42.7435 55.8994 42.9696 56.1594C43.1957 56.4195 43.5075 56.588 43.8472 56.6337C44.1869 56.6795 44.5315 56.5994 44.8172 56.4083C45.1029 56.2171 45.3103 55.9279 45.4011 55.5941C46.0567 52.6952 46.5412 49.7596 46.852 46.8027C46.9527 46.4367 46.9053 46.0452 46.7202 45.7145C46.5351 45.3838 46.2275 45.141 45.8651 45.0393C45.5026 44.9377 45.115 44.9855 44.7875 45.1724C44.4601 45.3594 44.2195 45.67 44.1189 46.036Z" fill="#FFDD35"/>
<path d="M41.8074 62.5968C41.7806 63.3514 41.901 64.104 42.1617 64.8117C42.2109 64.9764 42.3113 65.1208 42.448 65.2234C42.5848 65.326 42.7506 65.3813 42.921 65.3813C43.0913 65.3813 43.2571 65.326 43.3939 65.2234C43.5306 65.1208 43.631 64.9764 43.6802 64.8117C43.9463 64.105 44.0724 63.3525 44.0514 62.5968C44.0177 62.3202 43.885 62.0656 43.6784 61.881C43.4717 61.6964 43.2053 61.5944 42.9294 61.5944C42.6535 61.5944 42.3871 61.6964 42.1804 61.881C41.9737 62.0656 41.8411 62.3202 41.8074 62.5968Z" fill="#FFDD35"/>
<path d="M29.7444 66.8562C29.7444 65.5614 27.6523 65.1525 27.4161 66.5496C26.6207 69.6446 26.3413 72.8518 26.5894 76.0395C26.8256 77.4877 28.8839 77.2322 29.2551 76.0395C29.9243 73.0274 30.0897 69.9235 29.7444 66.8562Z" fill="#FFDD35"/>
<path d="M20.1614 88.0512C18.5502 91.9806 17.5377 96.1338 17.1583 100.369C16.9727 101.937 19.1828 101.954 19.6721 100.71C21.2532 96.9072 22.2654 92.8877 22.6752 88.7838C22.7765 87.4378 20.7013 86.8074 20.1614 88.0512Z" fill="#FFDD35"/>
<path d="M10.2073 114.289C10.2073 113.937 10.0686 113.599 9.82181 113.35C9.57501 113.1 9.24032 112.96 8.8913 112.96C8.54228 112.96 8.20756 113.1 7.96076 113.35C7.71397 113.599 7.5753 113.937 7.5753 114.289C7.06972 117.884 6.98479 121.527 7.32224 125.142C7.5247 126.42 9.5324 126.335 9.80235 125.142C10.359 121.553 10.4949 117.911 10.2073 114.289Z" fill="#FFDD35"/>
<path d="M76.6808 127.238C74.9936 131.412 72.1592 135.007 70.4721 139.165C69.8647 140.647 71.9567 141.533 72.9521 140.613C76.3264 137.495 78.098 132.349 79.4814 128.022C80.055 126.182 77.3556 125.551 76.6808 127.238Z" fill="#FFDD35"/>
<path d="M65.3769 143.202C64.948 143.612 64.6139 144.113 64.3983 144.668C64.3509 144.849 64.3514 145.04 64.3998 145.221C64.4483 145.403 64.5429 145.568 64.6744 145.701C64.8059 145.834 64.9696 145.929 65.1491 145.978C65.3286 146.027 65.5177 146.028 65.6974 145.98C66.2493 145.766 66.7456 145.428 67.1484 144.991C68.245 143.816 66.5579 142.112 65.3769 143.202Z" fill="#FFDD35"/>
<path d="M78.3678 106.333C77.0596 108.802 75.9318 111.364 74.9936 114C74.9341 114.239 74.9531 114.492 75.0478 114.719C75.1425 114.947 75.3078 115.138 75.5188 115.263C75.7298 115.387 75.9752 115.44 76.2182 115.412C76.4611 115.384 76.6885 115.277 76.8663 115.107C77.8157 114.134 78.5565 112.974 79.0427 111.7C79.6476 110.14 80.1271 108.533 80.4768 106.895C80.4629 106.651 80.3729 106.418 80.2198 106.228C80.0667 106.039 79.8582 105.904 79.6242 105.841C79.3903 105.779 79.1427 105.793 78.9171 105.881C78.6914 105.969 78.4992 106.128 78.3678 106.333Z" fill="#FFDD35"/>
<path d="M79.1608 82.4799C78.6162 83.3962 78.1802 84.3741 77.8617 85.3934C77.3998 86.3783 77.1633 87.4555 77.17 88.5453C77.1852 88.7379 77.259 88.9211 77.3813 89.0697C77.5036 89.2183 77.6684 89.3251 77.8531 89.3755C78.0378 89.4258 78.2335 89.4173 78.4132 89.351C78.593 89.2848 78.748 89.1641 78.8571 89.0054C79.5017 88.08 79.9129 87.0097 80.055 85.8874C80.36 84.8625 80.5413 83.8043 80.5949 82.7355C80.5592 82.5833 80.4802 82.4449 80.3676 82.3376C80.2549 82.2303 80.1136 82.1586 79.9611 82.1314C79.8086 82.1042 79.6515 82.1227 79.5093 82.1846C79.3671 82.2466 79.246 82.3492 79.1608 82.4799Z" fill="#FFDD35"/>
<path d="M73.6439 93.2648C73.5498 93.8106 73.3614 94.3354 73.0871 94.8152C72.7665 95.4626 73.2896 96.3997 74.0994 96.1271C74.6857 95.9519 75.185 95.5599 75.4977 95.0294C75.8104 94.4988 75.9136 93.8687 75.7865 93.2648C75.7865 92.9778 75.6737 92.7026 75.4728 92.4997C75.2718 92.2968 74.9994 92.1829 74.7152 92.1829C74.4311 92.1829 74.1586 92.2968 73.9577 92.4997C73.7567 92.7026 73.6439 92.9778 73.6439 93.2648Z" fill="#FFDD35"/>
<path d="M84.6103 52.1697C83.1256 55.9862 80.7805 59.5641 79.5489 63.4658C79.2452 64.471 80.6624 65.425 81.371 64.539C83.9861 61.2337 85.0658 56.6165 85.96 52.6126C85.9774 52.4457 85.9375 52.2778 85.847 52.137C85.7565 51.9963 85.6208 51.8912 85.4628 51.8393C85.3047 51.7874 85.1338 51.792 84.9786 51.8521C84.8235 51.9122 84.6934 52.0244 84.6103 52.1697Z" fill="#FFDD35"/>
<path d="M78.621 34.7741C77.96 35.5799 77.3938 36.4604 76.9338 37.3979C76.3835 38.3021 75.9149 39.2544 75.5335 40.2433C75.1792 41.1463 76.4614 41.7767 77.0688 41.1463C77.8292 40.4039 78.447 39.5259 78.8909 38.5565C79.4616 37.5687 79.8235 36.4724 79.9538 35.3364C79.9493 35.1826 79.9009 35.0333 79.8146 34.9065C79.7282 34.7797 79.6075 34.6807 79.4669 34.6214C79.3262 34.5621 79.1717 34.545 79.0217 34.5721C78.8717 34.5992 78.7325 34.6693 78.621 34.7741Z" fill="#FFDD35"/>
</g>
<defs>
<clipPath id="clip0_1_44">
<rect width="92" height="189" fill="white"/>
</clipPath>
</defs>
</svg>
