<svg width="716" height="735" viewBox="0 0 716 735" fill="none" xmlns="http://www.w3.org/2000/svg">
<g style="mix-blend-mode:multiply">
<path fill-rule="evenodd" clip-rule="evenodd" d="M363.375 10.6295C440.44 13.4486 523.498 15.5233 582.317 65.3957C639.569 113.939 659.674 193.383 667.016 268.085C673.3 332.024 642.663 390.002 620.135 450.17C598.788 507.186 580.878 564.446 539.378 608.991C490.181 661.798 434.67 714.545 363.375 725.769C286.416 737.885 201.631 721.594 141.91 671.564C83.6686 622.774 58.2741 542.967 54.574 467.079C51.3937 401.852 111.283 352.921 123.244 288.72C138.261 208.115 78.89 110.998 132.477 48.94C184.746 -11.5913 283.453 7.70581 363.375 10.6295Z" fill="#FCB730"/>
<path fill-rule="evenodd" clip-rule="evenodd" d="M334.683 16.0471C407.131 0.886382 480.251 44.724 537.837 91.2272C593.441 136.131 620.41 203.107 647.976 269.049C678.2 341.35 733.556 418.191 705.027 491.177C676.512 564.127 579.057 574.293 512.514 615.608C452.488 652.876 405.077 715.061 334.683 721.115C261.724 727.39 184.662 700.278 133.148 648.234C84.702 599.29 92.737 521.86 72.3475 456.082C52.3531 391.579 -9.44128 329.929 14.963 266.961C39.4589 203.758 131.826 206.88 185.15 165.031C241.89 120.502 264.086 30.8204 334.683 16.0471Z" fill="#FF8C00"/>
<path fill-rule="evenodd" clip-rule="evenodd" d="M337.928 0.797023C414.903 -9.87775 458.689 89.3606 519.531 137.707C576.805 183.218 650.977 209.849 683.485 275.384C718.622 346.22 740.313 436.734 702.235 506.033C664.744 574.265 565.472 568.697 499.556 610.125C440.467 647.262 407.717 734.666 337.928 734.999C268.154 735.332 231.84 652.385 175.174 611.674C118.051 570.636 26.93 562.667 5.02227 495.83C-16.8824 429.003 37.8229 362.324 73.595 301.776C102.39 253.037 152.214 226 189.57 183.465C242.631 123.048 258.28 11.8424 337.928 0.797023Z" fill="#C46805"/>
</g>
</svg>
