<svg width="563" height="735" viewBox="0 0 563 735" fill="none" xmlns="http://www.w3.org/2000/svg">
<path fill-rule="evenodd" clip-rule="evenodd" d="M203.375 10.6295C280.44 13.4487 363.498 15.5233 422.317 65.3958C479.569 113.939 499.674 193.383 507.016 268.085C513.3 332.024 482.663 390.002 460.135 450.17C438.788 507.186 420.878 564.446 379.378 608.991C330.181 661.798 274.67 714.545 203.375 725.769C126.416 737.885 41.631 721.594 -18.0898 671.564C-76.3314 622.774 -101.726 542.967 -105.426 467.079C-108.606 401.852 -48.7173 352.921 -36.7562 288.721C-21.7387 208.115 -81.11 110.998 -27.5229 48.94C24.7458 -11.5913 123.453 7.70587 203.375 10.6295Z" fill="#FCB730"/>
<path fill-rule="evenodd" clip-rule="evenodd" d="M174.683 16.0471C247.131 0.886443 320.251 44.724 377.836 91.2272C433.441 136.131 460.41 203.107 487.976 269.049C518.2 341.35 573.556 418.191 545.027 491.177C516.512 564.127 419.057 574.293 352.514 615.608C292.488 652.876 245.077 715.061 174.683 721.115C101.724 727.39 24.6622 700.278 -26.8524 648.234C-75.298 599.29 -67.2631 521.86 -87.6525 456.082C-107.647 391.579 -169.441 329.929 -145.037 266.961C-120.541 203.758 -28.1736 206.88 25.1505 165.031C81.8899 120.502 104.086 30.8205 174.683 16.0471Z" fill="#FF8C00"/>
<path fill-rule="evenodd" clip-rule="evenodd" d="M177.928 0.797023C254.903 -9.87775 298.689 89.3606 359.531 137.707C416.805 183.218 490.977 209.849 523.485 275.384C558.622 346.22 580.313 436.734 542.235 506.033C504.744 574.265 405.472 568.697 339.556 610.125C280.467 647.262 247.717 734.666 177.928 734.999C108.154 735.332 71.8402 652.385 15.1737 611.674C-41.9486 570.636 -133.07 562.667 -154.978 495.83C-176.882 429.003 -122.177 362.324 -86.405 301.776C-57.6097 253.037 -7.78603 226 29.5697 183.465C82.6306 123.048 98.2805 11.8424 177.928 0.797023Z" fill="#C46805"/>
</svg>
