<svg width="150" height="123" viewBox="0 0 150 123" fill="none" xmlns="http://www.w3.org/2000/svg">
<path opacity="0.5" d="M33.4714 0C44.6285 0 53.5241 4.05494 60.158 12.1648C67.0936 19.9743 70.5613 30.337 70.5613 43.2527C70.5613 60.0732 65.5858 75.8425 55.6349 90.5604C45.6839 104.978 33.3206 115.791 18.545 123L15.8311 117.593C22.1635 112.788 27.7421 106.63 32.5668 99.1209C37.3915 91.6117 40.8592 82.3004 42.97 71.1868L33.4714 68.9341C22.9173 66.5311 14.6249 62.1758 8.59401 55.8681C2.86467 49.2601 0 41.4505 0 32.4395C0 22.8278 3.16621 15.0183 9.49864 9.01098C16.1326 3.00366 24.1235 0 33.4714 0ZM112.91 0C124.067 0 132.963 4.05494 139.597 12.1648C146.532 19.9743 150 30.337 150 43.2527C150 60.0732 145.025 75.8425 135.074 90.5604C125.123 104.978 112.759 115.791 97.9837 123L95.2698 117.593C101.602 112.788 107.181 106.63 112.005 99.1209C116.83 91.6117 120.298 82.3004 122.409 71.1868L112.91 68.9341C102.356 66.5311 94.0636 62.1758 88.0327 55.8681C82.3034 49.2601 79.4387 41.4505 79.4387 32.4395C79.4387 22.8278 82.6049 15.0183 88.9373 9.01098C95.5713 3.00366 103.562 0 112.91 0Z" fill="white" fill-opacity="0.8"/>
</svg>
