<svg width="67" height="53" viewBox="0 0 67 53" fill="none" xmlns="http://www.w3.org/2000/svg">
<path d="M6.40604 48.0321L6.40612 48.0322C8.86189 50.6467 12.7319 52.5 16.788 52.5C20.3048 52.5 23.6774 51.0989 26.1638 48.6054C28.6501 46.112 30.0466 42.7304 30.0466 39.2048C30.0466 32.2061 24.656 26.5854 17.833 25.9519C15.6143 25.7453 13.3315 25.9824 11.4221 26.7356C11.9195 24.2253 12.7813 21.1806 14.7184 18.0233C16.9018 14.4648 20.4682 10.7358 26.4751 7.47715L26.9496 7.21972L26.6566 6.76629L23.4013 1.72863L23.171 1.37214L22.7818 1.54156C9.62172 7.27056 0.5 18.8925 0.5 31.9335C0.5 39.3249 2.55961 43.9349 6.40604 48.0321ZM42.8594 48.0321L42.8595 48.0322C45.3153 50.6467 49.1853 52.5 53.2413 52.5C56.7582 52.5 60.1308 51.0989 62.6171 48.6054C65.1035 46.112 66.5 42.7304 66.5 39.2048C66.5 32.2061 61.1094 26.5854 54.2864 25.9519C52.0676 25.7453 49.7849 25.9824 47.8755 26.7356C48.3729 24.2253 49.2347 21.1806 51.1718 18.0233C53.3551 14.4648 56.9216 10.7358 62.9285 7.47715L63.403 7.21972L63.11 6.76629L59.8547 1.72863L59.6243 1.37214L59.2352 1.54156C46.0751 7.27056 36.9534 18.8925 36.9534 31.9335C36.9534 39.3249 39.013 43.9349 42.8594 48.0321Z" stroke="#CD6903"/>
</svg>
