<svg width="38" height="45" viewBox="0 0 38 45" fill="none" xmlns="http://www.w3.org/2000/svg">
<path fill-rule="evenodd" clip-rule="evenodd" d="M19.9605 0.21594C19.3847 -0.07198 18.7069 -0.07198 18.1311 0.21594L1.76743 8.39776C1.07445 8.74424 0.636719 9.45252 0.636719 10.2273V22.5C0.636719 27.9454 2.39691 32.5049 5.55182 36.2375C8.67384 39.9309 13.0827 42.725 18.2714 44.8476C18.7676 45.0507 19.324 45.0507 19.8202 44.8476C25.0089 42.725 29.4177 39.9309 32.5399 36.2375C35.6948 32.5049 37.4549 27.9454 37.4549 22.5V10.2273C37.4549 9.45252 37.0172 8.74424 36.3242 8.39776L19.9605 0.21594ZM4.72763 22.5V11.4914L19.0458 4.33233L33.364 11.4914V22.5C33.364 26.9847 31.9424 30.6071 29.4154 33.5966C26.9946 36.4606 23.4887 38.8233 19.0458 40.7364C14.6028 38.8233 11.097 36.4606 8.67615 33.5966C6.14926 30.6071 4.72763 26.9847 4.72763 22.5ZM28.7764 17.6998C29.5142 16.8445 29.4191 15.5528 28.5637 14.8149C27.7085 14.077 26.4168 14.1721 25.6788 15.0275L16.515 25.6492L12.2963 21.5116C11.4897 20.7207 10.1947 20.7331 9.40368 21.5397C8.61266 22.3462 8.62522 23.6412 9.43172 24.4321L15.2071 30.0966C15.6107 30.4924 16.1599 30.7035 16.7244 30.68C17.2892 30.6564 17.8189 30.4004 18.1881 29.9724L28.7764 17.6998Z" fill="url(#paint0_linear_1_1165)"/>
<defs>
<linearGradient id="paint0_linear_1_1165" x1="19.0458" y1="0" x2="19.0458" y2="44.9999" gradientUnits="userSpaceOnUse">
<stop stop-color="#F2AB02"/>
<stop offset="1" stop-color="#CD6802"/>
</linearGradient>
</defs>
</svg>
