<svg width="73" height="76" viewBox="0 0 73 76" fill="none" xmlns="http://www.w3.org/2000/svg">
<path d="M24.195 74.1234V53.1743M24.195 74.1234L7.96484 64.9001V43.6651M24.195 74.1234L40.0676 64.9001M24.195 53.1743L7.96484 43.6651M24.195 53.1743L40.0676 43.6651M7.96484 43.6651L24.195 34.5132M40.0676 64.9001V43.6651M40.0676 64.9001C56.3725 67.758 61.8005 65.848 65.6641 56.4632L49.7915 23.0019M40.0676 43.6651L24.195 34.5132M40.0676 43.6651L49.7915 23.0019M24.195 34.5132V8.48773M49.7915 23.0019V8.48773" stroke="white" stroke-width="1.12308"/>
<path d="M49.7879 8.91639C49.7879 11.0539 48.3699 13.0006 46.0527 14.4167C43.7367 15.832 40.5325 16.7098 36.9897 16.7098C33.4468 16.7098 30.2427 15.832 27.9266 14.4167C25.6094 13.0006 24.1914 11.0539 24.1914 8.91639C24.1914 6.77891 25.6094 4.83221 27.9266 3.41612C30.2427 2.00078 33.4468 1.12305 36.9897 1.12305C40.5325 1.12305 43.7367 2.00078 46.0527 3.41612C48.3699 4.83221 49.7879 6.77891 49.7879 8.91639Z" stroke="white" stroke-width="1.12308"/>
</svg>
