<svg width="45" height="63" viewBox="0 0 45 63" fill="none" xmlns="http://www.w3.org/2000/svg">
<g clip-path="url(#clip0_1195_384)">
<path d="M7.59684 12.4977C7.15273 12.2915 6.6461 12.4426 6.45856 12.8293L6.18375 13.3927C6.00272 13.7833 6.20199 14.2635 6.6474 14.4696C7.09152 14.6758 7.59814 14.5285 7.78569 14.1405L8.05528 13.5745C8.24152 13.1866 8.04095 12.7038 7.59684 12.4977Z" fill="#FEC6A1"/>
<path d="M7.59078 13.6295L6.44531 14.0204L7.13842 15.9837L8.28389 15.5928L7.59078 13.6295Z" fill="#FEC6A1"/>
<path d="M23.2761 25.2551C26.7613 30.217 27.3122 34.5361 27.3122 34.5361C30.7909 39.6581 31.7117 43.4995 31.7117 43.4995C39.5338 51.8176 42.6504 56.8076 42.6504 56.8076L41.7062 58.0625C35.6553 52.6204 28.9597 47.099 28.9597 47.099C22.7838 42.2728 17.2266 29.7368 17.2266 29.7368L23.2761 25.2551Z" fill="#FEC6A1"/>
<path d="M2.77128 33.2684C3.72853 34.2621 5.5115 36.0279 7.10171 37.1624C6.70057 37.2674 6.30725 37.3686 5.91263 37.4697C5.91263 37.4697 6.28121 47.9723 6.52605 53.5616L4.81732 53.6231C4.81732 53.6231 0.631459 36.7936 0.843748 35.412C1.02478 34.2096 0.962265 34.0316 2.77128 33.2684Z" fill="#FEC6A1"/>
<path d="M2.76953 33.2684C5.44723 31.8688 9.42732 29.0172 18.5076 27.4422L23.2756 25.2551C27.8561 30.057 27.3117 34.5361 27.3117 34.5361C29.2392 37.3724 30.3775 39.8117 31.0157 41.4303C29.9829 42.4982 27.9876 43.762 26.4169 44.675C21.8052 40.297 20.3413 37.4185 19.1952 33.7422C15.0211 36.7782 11.3418 36.0407 7.09996 37.1624C5.50975 36.0279 3.72678 34.2621 2.76953 33.2684Z" fill="#2D3A43"/>
<path d="M42.5693 56.4004C43.8078 56.3364 45.5856 56.1328 44.8094 57.5503C44.0397 58.9652 43.8078 61.0575 43.4197 61.8015C43.0316 62.5429 41.5677 63.6224 41.8738 62.5429C42.1799 61.4635 41.7175 60.384 41.5677 59.5747C41.4115 58.7629 41.487 57.8858 41.487 57.8858C42.3375 57.4837 42.5693 56.4004 42.5693 56.4004Z" fill="#2D3A43"/>
<path d="M6.63845 53.1864C7.38341 54.0482 8.56598 55.2288 6.78301 55.4503C5.00526 55.6744 2.87846 56.6655 1.95898 56.7948C1.03298 56.9267 -0.807285 56.4568 0.394816 56.0841C1.59692 55.709 2.36532 54.7742 3.05429 54.2134C3.74325 53.6499 4.61845 53.2223 4.61845 53.2223C5.47412 53.6166 6.63845 53.1864 6.63845 53.1864Z" fill="#2D3A43"/>
<path d="M24.648 29.5896C24.1726 29.701 23.8718 30.1274 23.9786 30.5435L24.1218 31.1466C24.2221 31.5615 24.691 31.8074 25.1611 31.6972C25.6365 31.5871 25.9374 31.1594 25.8371 30.7433L25.6873 30.1402C25.587 29.724 25.1169 29.4782 24.648 29.5896Z" fill="#FEC6A1"/>
<path d="M24.2109 30.094L25.387 30.8495L26.5383 29.1247L25.3622 28.3679L24.2109 30.094Z" fill="#FEC6A1"/>
<path d="M20.6553 2.18583C20.9927 3.18846 21.7441 3.84022 22.3198 3.65071C22.9019 3.45992 23.096 2.49443 22.7522 1.49693C22.4149 0.49687 21.6699 -0.157459 21.0877 0.0320534C20.5043 0.224127 20.3102 1.18961 20.6553 2.18583Z" fill="#2C3942"/>
<path d="M20.6668 9.03136C19.2276 7.4013 20.9233 3.64563 20.2669 3.07326C19.6157 2.50088 15.9873 0.17295 14.9727 2.12313C13.9595 4.07332 13.897 9.38862 15.4051 8.92508C16.3441 8.63954 16.813 8.34118 16.813 8.34118C16.813 8.34118 16.8573 11.116 17.1008 11.7806C17.3444 12.4451 20.8243 9.02112 20.8243 9.02112" fill="#FEC6A1"/>
<path d="M20.9225 5.92743C20.2401 6.5459 19.7152 7.16438 19.7152 6.5459C19.7152 5.92743 19.5146 3.59566 17.6809 3.26401C15.8406 2.93237 14.7779 3.07322 14.9719 2.1231C15.166 1.17298 17.5819 0.0768778 19.3714 0.550658C21.1674 1.027 21.9371 2.45474 21.743 3.78645C21.549 5.11816 20.9225 5.92743 20.9225 5.92743Z" fill="#2C3942"/>
<path d="M22.5883 9.66137C29.4336 13.0265 35.379 17.2623 33.7888 20.0282C32.1999 22.7902 26.33 29.943 26.33 29.943L24.8662 29.103C28.6522 22.2498 30.2411 18.7055 30.2411 18.7055C26.5736 17.3827 23.6393 15.4607 23.6393 15.4607C22.7824 20.5084 24.6213 26.6368 24.6213 26.6368C20.7037 28.8021 15.4786 29.6728 15.1165 28.5934C14.7479 27.5101 13.7399 21.2293 13.7399 21.2293C13.008 24.1142 10.9307 26.277 9.82883 24.8351C8.72702 23.3959 6.76953 14.8589 6.76953 14.8589L7.93386 14.4376C9.64259 17.9256 10.437 19.6671 10.437 19.6671C12.7592 15.8218 12.026 12.577 13.8597 11.3734C15.6935 10.1736 16.9203 10.1736 16.9203 10.1736C16.9203 10.1736 16.9333 12.8165 18.2787 11.0136C18.8296 10.2722 19.0666 9.35533 19.7426 9.07618C20.7181 8.67155 22.5883 9.66137 22.5883 9.66137Z" fill="#FFD648"/>
</g>
<defs>
<clipPath id="clip0_1195_384">
<rect width="45" height="63" fill="white"/>
</clipPath>
</defs>
</svg>
