<svg width="64" height="57" viewBox="0 0 64 57" fill="none" xmlns="http://www.w3.org/2000/svg">
<path d="M41.5862 44.0212C53.7712 39.8914 63.24 38.9517 63.9021 41.776C64.5616 44.6015 57.368 53.946 47.3866 54.7419C37.4027 55.5404 30.9648 53.5262 30.9648 53.5262L33.0709 43.5154L41.5862 44.0212Z" fill="#75B8C8"/>
<path d="M22.4125 44.0213C10.2275 39.8927 0.758739 38.9517 0.0966114 41.776C-0.562914 44.6015 6.63073 53.946 16.616 54.7419C26.5973 55.5404 31.6628 53.2219 31.6628 53.2219L33.5724 43.2484L22.4125 44.0213Z" fill="#75B8C8"/>
<path d="M40.6091 23.2911L40.6286 23.1858L40.3437 23.1332L40.3242 23.241L40.6091 23.2911Z" fill="#231F20"/>
<path d="M33.5898 8.48169C33.5898 16.8736 38.5772 15.3344 38.5772 15.3344C37.9893 21.8546 34.2455 24.6788 31.2366 24.3887C28.2278 24.0986 24.8521 22.6518 24.5581 21.0574C24.2641 19.4629 24.043 15.9865 24.043 15.9865C24.043 15.9865 26.8125 15.3292 28.0652 14.5372C30.0086 13.3099 30.0177 8.7025 30.0177 8.7025L33.5898 8.48169Z" fill="#FEC6A1"/>
<path d="M40.7708 15.9173L38.5801 15.3345C37.4796 20.1883 35.6428 24.3888 31.315 24.3888C26.9832 24.3888 24.0459 15.9879 24.0459 15.9879L22.4172 15.9571C22.4888 18.7826 22.1362 23.5197 22.1362 23.5197C23.3109 30.7678 24.7795 35.6923 24.6338 38.2277C24.4868 40.7631 21.625 44.097 21.625 44.097C21.625 44.097 29.4066 44.7479 32.1215 44.4577C34.8376 44.1676 41.8843 44.097 41.8843 44.097C38.3616 35.7641 40.7838 22.8701 40.7838 22.8701C40.5613 18.8134 40.7708 15.9173 40.7708 15.9173Z" fill="#2C353C"/>
<path d="M40.7684 15.9172C44.2898 16.6888 44.7971 19.2486 44.5032 25.3824C44.2092 31.5136 41.7597 36.587 41.7597 36.587C41.3694 41.2226 36.5251 49.1909 36.5251 49.1909L35.5469 47.4514C37.3095 39.5807 38.6286 35.9104 38.6286 35.9104C39.0071 28.1168 40.0062 27.6828 39.9502 22.6274C39.9502 22.6274 39.9034 22.3373 39.854 20.3577C39.8019 18.3782 40.7684 15.9172 40.7684 15.9172Z" fill="#FEC6A1"/>
<path d="M22.4158 15.957C18.8906 16.7311 17.4662 19.6144 17.7601 25.7482C18.0541 31.882 20.4971 36.9528 20.4971 36.9528C20.8913 41.5885 25.7343 49.5567 25.7343 49.5567L26.7125 47.8173C24.9525 39.9466 23.6308 36.2737 23.6308 36.2737C23.2874 29.1746 22.3092 22.9933 22.3092 22.9933C22.3092 22.9933 22.3586 22.7032 22.4054 20.7236C22.4562 18.7453 22.4158 15.957 22.4158 15.957Z" fill="#FEC6A1"/>
<path d="M60.821 41.0518C66.9869 39.8207 62.2896 45.4705 62.2896 45.4705C62.2896 45.4705 60.1016 48.9777 49.7365 51.9958C49.0276 50.6325 47.8672 48.3012 46.5273 45.2228C50.7147 43.5475 54.655 42.283 60.821 41.0518Z" fill="#8FCED8"/>
<path d="M32.0703 53.3669C32.0703 53.3669 37.7576 48.7403 46.5265 45.2253C47.8677 48.3038 49.0268 50.6351 49.7357 51.9984C45.508 53.2321 39.9196 54.3824 32.5607 55.1783L32.0703 53.3669Z" fill="#FEC6A1"/>
<path d="M34.4176 54.3157C34.6712 55.679 35.1798 57.6342 33.1674 56.7984C31.1551 55.9627 28.3023 55.7278 27.2512 55.3118C26.1975 54.8921 24.5481 53.2861 26.0454 53.616C27.5426 53.9459 28.9358 53.4222 30.0077 53.2424C31.0796 53.064 32.2738 53.1372 32.2738 53.1372C32.9294 54.073 34.4176 54.3157 34.4176 54.3157Z" fill="#2D3A43"/>
<path d="M3.18086 41.0518C-2.98512 39.8207 1.71222 45.4705 1.71222 45.4705C1.71222 45.4705 3.90023 48.9777 14.2653 51.9958C14.9743 50.6325 16.1372 48.3012 17.4745 45.2228C13.291 43.5475 9.34684 42.283 3.18086 41.0518Z" fill="#8FCED8"/>
<path d="M31.931 53.3669C31.931 53.3669 26.2438 48.7403 17.4748 45.2253C16.1375 48.3038 14.9746 50.6351 14.2656 51.9984C18.4934 53.2321 24.0844 54.3824 31.4406 55.1783L31.931 53.3669Z" fill="#FEC6A1"/>
<path d="M29.5852 54.3157C29.3315 55.679 28.8229 57.6342 30.8353 56.7984C32.8516 55.9627 35.7005 55.7278 36.7541 55.3118C37.8039 54.8921 39.4547 53.2861 37.96 53.616C36.4601 53.9459 35.0656 53.4222 33.9938 53.2424C32.9219 53.064 31.7316 53.1372 31.7316 53.1372C31.0721 54.073 29.5852 54.3157 29.5852 54.3157Z" fill="#2D3A43"/>
<path d="M31.6357 0.428768C32.7479 -0.360742 36.2511 -0.336351 37.6677 2.90898C39.083 6.15303 39.2742 11.0018 34.4833 12.1212C30.6549 13.016 30.1892 12.1738 28.9521 12.1456C24.8583 12.0532 24.5305 3.26972 27.287 1.12071C29.1823 -0.360742 31.2286 0.0718837 31.6357 0.428768Z" fill="#333333"/>
<path d="M26.8986 7.82185C26.8986 11.3381 29.9452 14.0609 31.605 14.0609C33.261 14.0609 36.3089 11.4523 36.3089 7.82185C36.3089 3.4956 36.4116 3.22986 31.605 3.22986C26.7984 3.22986 26.8986 3.49431 26.8986 7.82185Z" fill="#FEC6A1"/>
<path d="M34.418 3.32234C34.418 3.32234 36.0622 4.83075 36.3367 7.89636C36.4993 9.69104 37.1497 10.2713 37.1497 10.2713C37.1497 10.2713 36.593 2.98343 36.3406 2.68431C36.0856 2.38391 34.418 3.32234 34.418 3.32234Z" fill="#333333"/>
<path d="M34.4173 3.32232C34.4173 3.32232 27.5385 2.97442 26.9297 7.24804C26.0204 2.65605 30.7021 1.38513 30.7021 1.38513L34.9806 2.33511L34.7425 3.37752L34.4173 3.32232Z" fill="#333333"/>
<path d="M33.8383 49.7609C34.0607 50.3617 34.6825 50.6955 35.2289 50.4978L36.0224 50.2167C36.5701 50.0228 36.8354 49.3745 36.613 48.7699C36.3905 48.1691 35.7687 47.8353 35.2224 48.0291L34.4289 48.3129C33.8851 48.5093 33.6198 49.1563 33.8383 49.7609Z" fill="#FEC6A1"/>
<path d="M34.918 48.6941L36.3723 49.3822L37.5899 46.884L36.1343 46.1959L34.918 48.6941Z" fill="#FEC6A1"/>
<path d="M28.4416 49.7609C28.2231 50.3617 27.5974 50.6955 27.051 50.4978L26.2601 50.2167C25.7138 50.0228 25.4471 49.3745 25.6669 48.7699C25.8894 48.1691 26.5112 47.8353 27.0575 48.0291L27.851 48.3129C28.3987 48.5093 28.6641 49.1563 28.4416 49.7609Z" fill="#FEC6A1"/>
<path d="M27.3633 48.6941L25.9064 49.3822L24.6914 46.884L26.147 46.1959L27.3633 48.6941Z" fill="#FEC6A1"/>
</svg>
