<svg width="72" height="75" viewBox="0 0 72 75" fill="none" xmlns="http://www.w3.org/2000/svg">
<path d="M29.7979 41.0731L39.5569 35.5068M29.7979 41.0731V73.8923M29.7979 41.0731L2.61719 24.8081M39.5569 35.5068L17.7256 23.1039M39.5569 35.5068V61.6755M29.7979 73.8923L39.5569 68.9044V61.6755M29.7979 73.8923L2.61719 58.2056V24.8081M2.61719 24.8081L11.4365 19.5309L17.7256 23.1039M17.7256 23.1039V15.9887M39.5569 61.6755L45.7738 65.3622M45.7738 32.1815L55.0992 26.6875M45.7738 32.1815V65.3622M45.7738 32.1815L17.7256 15.9887M55.0992 26.6875L33.557 14.0747M55.0992 26.6875V52.6394M45.7738 65.3622L55.0992 60.0851V52.6394M17.7256 15.9887L27.1955 10.3502L33.557 14.0747M33.557 14.0747V7.09716M55.0992 52.6394L61.0991 56.3261M61.0991 23.4345L69.9184 18.0851M61.0991 23.4345V56.3261M61.0991 23.4345L33.557 7.09716M69.9184 18.0851V51.4104L61.0991 56.3261M69.9184 18.0851L42.304 1.89233L33.557 7.09716" stroke="white" stroke-width="1.10769"/>
</svg>
