<svg width="53" height="66" viewBox="0 0 53 66" fill="none" xmlns="http://www.w3.org/2000/svg">
<path d="M45.6144 60.1642L48.3002 62.5138L46.3267 63.0307L44.8516 61.4121L45.6144 60.1642Z" fill="#FEC6A1"/>
<path d="M3.75262 59.1462L2.29608 62.4061L1.5625 60.7556L2.33462 58.7887L3.75262 59.1462Z" fill="#FEC6A1"/>
<path d="M45.9351 62.5297C45.4141 63.7298 44.5649 65.4162 46.274 65.173C47.9817 64.9338 50.1758 65.48 51.0635 65.3684C51.9513 65.2634 53.5726 64.2029 52.3725 64.1138C51.1725 64.0208 50.2529 63.1623 49.4967 62.7091C48.7365 62.2559 47.8275 62.0061 47.8275 62.0061C47.1059 62.6998 45.9351 62.5297 45.9351 62.5297Z" fill="#2D3A43"/>
<path d="M30.4314 38.0491C29.1835 39.1601 27.7974 39.9229 27.7974 39.9229C34.1764 45.4687 36.6735 50.1811 36.6735 50.1811C40.6232 54.5481 45.8207 60.3716 45.8207 60.3716L44.9875 61.6872C39.1002 58.7755 33.9 51.9845 33.9 51.9845C27.7283 48.795 20.7978 41.309 20.7978 41.309C17.9565 47.7545 9.91369 51.5699 9.91369 51.5699C8.45848 54.8258 3.33004 60.1642 3.33004 60.1642L2.01172 59.2632C4.01977 52.8842 7.48702 49.7652 7.48702 49.7652C12.965 42.0705 14.1783 37.9454 14.6607 36.0756C15.1458 34.2044 16.6369 30.6667 20.7965 29.9398C22.9933 29.5571 26.4831 30.7731 27.1051 30.5657C27.727 30.3584 28.3529 30.4953 28.3529 30.4953C28.3529 30.4953 28.4234 29.4547 29.1131 31.6037C29.8095 33.7552 30.9869 37.3594 30.9869 37.3594L30.4314 38.0491Z" fill="#555C62"/>
<path d="M46.075 35.3712C45.6511 36.4888 46.1866 37.7248 47.2658 38.1354C48.3449 38.5434 49.5675 37.972 49.9888 36.8583C50.4141 35.7406 49.8772 34.506 48.798 34.0941C47.7189 33.6848 46.4989 34.2562 46.075 35.3712Z" fill="#333333"/>
<path d="M45.732 39.6876C45.8277 40.562 46.568 41.2013 47.3893 41.1149C48.2132 41.0258 48.8073 40.2457 48.7116 39.3713C48.6185 38.4968 47.8757 37.8576 47.0544 37.948C46.2304 38.033 45.6403 38.8158 45.732 39.6876Z" fill="#333333"/>
<path d="M46.0329 56.9082C47.5559 58.3634 50.3972 61.2021 48.3865 60.5801C46.3784 59.9582 44.9219 57.6019 44.9219 57.6019L46.0329 56.9082Z" fill="#FEC6A1"/>
<path d="M8.55083e-05 63.8388C0.0705202 61.0639 1.87391 60.0273 1.87391 60.0273L3.26001 60.8579C3.26001 60.8579 3.58295 61.4958 4.57834 61.7576C8.87219 62.9005 -0.0318094 65.1571 8.55083e-05 63.8388Z" fill="#2D3A43"/>
<path d="M43.9264 42.9369C43.8081 44.5968 43.6992 46.4135 43.6713 48.1026C43.6713 48.1026 45.1265 51.2216 46.0302 56.9082L44.9191 57.6006C44.9191 57.6006 42.1483 54.8962 41.0373 49.4209C41.0373 49.4209 40.0352 46.8095 40.0312 42.6711C41.0944 42.8731 42.4991 43.0419 43.9264 42.9369Z" fill="#FEC6A1"/>
<path d="M37.3627 25.6433C37.3627 25.6433 37.0663 23.6924 37.1646 21.384C37.9248 21.1355 39.2617 20.7873 40.7528 20.7833C41.117 23.0186 41.5196 25.7377 41.5927 27.2354C41.5927 27.2354 42.4924 29.3165 44.434 29.6621L46.3052 30.7731C46.3052 30.7731 45.3351 31.395 44.5018 32.5738C43.6712 33.7553 44.2971 36.1075 44.2971 37.5641C44.2971 38.4332 44.1018 40.5143 43.9264 42.937C42.4991 43.042 41.0944 42.8732 40.0312 42.6726C40.0285 41.5363 40.1016 40.2818 40.293 38.9342C40.4206 38.0212 34.6609 39.3688 28.7683 39.3688L25.9961 30.5658C25.9961 30.5658 31.9578 26.543 37.3627 25.6433Z" fill="#E16B7B"/>
<path d="M37.9202 17.1858C37.9202 17.1858 38.683 9.632 40.1395 5.26505C40.1395 5.26505 40.4837 1.38317 41.3874 0.204386C42.2871 -0.977056 42.4958 3.25301 41.5283 5.47237C41.5283 5.47237 42.0107 12.682 40.1395 17.1858C40.1395 17.1858 40.4306 18.7912 40.7561 20.7846C39.2651 20.7873 37.9281 21.1354 37.168 21.3853C37.2238 19.9979 37.4284 18.4855 37.9202 17.1858Z" fill="#FEC6A1"/>
<path d="M48.7785 25.9968C46.3039 25.3363 43.8201 26.939 43.5145 28.0912C43.2048 29.2434 44.478 31.8521 47.0322 32.5326C50.0808 33.3499 50.2509 33.4681 51.1413 30.1285C52.0317 26.7888 51.8244 26.8114 48.7785 25.9968Z" fill="#FEC6A1"/>
<path d="M47.8318 25.9901C49.9102 25.505 52.9629 25.9901 52.6851 29.7351C52.4074 33.4774 48.8697 34.514 48.8697 34.514L48.1095 34.0993C46.2383 32.0886 47.8318 25.9901 47.8318 25.9901Z" fill="#333333"/>
<path d="M47.1944 40.8558C48.5101 42.0054 46.9937 44.0905 46.9937 44.0905C45.2794 41.5907 46.5631 40.8851 46.5631 40.8851L47.1944 40.8558Z" fill="#333333"/>
</svg>
