<svg width="83" height="16" viewBox="0 0 83 16" fill="none" xmlns="http://www.w3.org/2000/svg">
<path d="M8 1.33325L9.72133 5.96859L14.6667 6.17125L10.7853 9.23925L12.12 13.9999L8 11.2606L3.88 13.9999L5.21467 9.23925L1.33333 6.17125L6.27867 5.96859L8 1.33325Z" fill="#FCB730"/>
<path d="M25 1.33325L26.9365 5.96859L32.5 6.17125L28.1335 9.23925L29.635 13.9999L25 11.2606L20.365 13.9999L21.8665 9.23925L17.5 6.17125L23.0635 5.96859L25 1.33325Z" fill="#FCB730"/>
<path d="M42 1.33325L43.7213 5.96859L48.6667 6.17125L44.7853 9.23925L46.12 13.9999L42 11.2606L37.88 13.9999L39.2147 9.23925L35.3333 6.17125L40.2787 5.96859L42 1.33325Z" fill="#FCB730"/>
<path d="M58.5 1.33325L60.3289 5.96859L65.5833 6.17125L61.4594 9.23925L62.8775 13.9999L58.5 11.2606L54.1225 13.9999L55.5406 9.23925L51.4167 6.17125L56.6711 5.96859L58.5 1.33325Z" fill="#FCB730"/>
<path d="M75 1.33325L76.7213 5.96859L81.6667 6.17125L77.7853 9.23925L79.12 13.9999L75 11.2606L70.88 13.9999L72.2147 9.23925L68.3333 6.17125L73.2787 5.96859L75 1.33325Z" fill="#CDCDCD"/>
</svg>
