<svg width="53" height="67" viewBox="0 0 53 67" fill="none" xmlns="http://www.w3.org/2000/svg">
<path fill-rule="evenodd" clip-rule="evenodd" d="M34.0938 1.4375C34.0938 1.21372 34.0049 0.999113 33.8466 0.840879C33.6884 0.682645 33.4738 0.59375 33.25 0.59375H9.625C7.16346 0.59375 4.80274 1.57159 3.06216 3.31217C1.32159 5.05274 0.34375 7.41346 0.34375 9.875V57.125C0.34375 59.5865 1.32159 61.9473 3.06216 63.6878C4.80274 65.4284 7.16346 66.4062 9.625 66.4062H43.375C45.8365 66.4062 48.1973 65.4284 49.9378 63.6878C51.6784 61.9473 52.6562 59.5865 52.6562 57.125V23.8711C52.6562 23.6474 52.5674 23.4327 52.4091 23.2745C52.2509 23.1163 52.0363 23.0274 51.8125 23.0274H36.625C35.9537 23.0274 35.3098 22.7607 34.8351 22.286C34.3604 21.8113 34.0938 21.1675 34.0938 20.4961V1.4375ZM36.625 34.3438C37.2963 34.3438 37.9402 34.6104 38.4149 35.0851C38.8896 35.5598 39.1562 36.2037 39.1562 36.875C39.1562 37.5463 38.8896 38.1902 38.4149 38.6649C37.9402 39.1396 37.2963 39.4062 36.625 39.4062H16.375C15.7037 39.4062 15.0598 39.1396 14.5851 38.6649C14.1104 38.1902 13.8438 37.5463 13.8438 36.875C13.8438 36.2037 14.1104 35.5598 14.5851 35.0851C15.0598 34.6104 15.7037 34.3438 16.375 34.3438H36.625ZM36.625 47.8438C37.2963 47.8438 37.9402 48.1104 38.4149 48.5851C38.8896 49.0598 39.1562 49.7037 39.1562 50.375C39.1562 51.0463 38.8896 51.6902 38.4149 52.1649C37.9402 52.6396 37.2963 52.9062 36.625 52.9062H16.375C15.7037 52.9062 15.0598 52.6396 14.5851 52.1649C14.1104 51.6902 13.8438 51.0463 13.8438 50.375C13.8438 49.7037 14.1104 49.0598 14.5851 48.5851C15.0598 48.1104 15.7037 47.8438 16.375 47.8438H36.625Z" fill="#1F4E79"/>
<path d="M39.1562 2.53091C39.1562 1.90991 39.8076 1.51504 40.2903 1.90316C40.6986 2.23391 41.0665 2.61866 41.3804 3.05742L51.5493 17.2223C51.7788 17.5463 51.529 17.9648 51.1308 17.9648H40C39.7762 17.9648 39.5616 17.8759 39.4034 17.7177C39.2451 17.5594 39.1562 17.3448 39.1562 17.121V2.53091Z" fill="#1F4E79"/>
</svg>
