<svg width="60" height="60" viewBox="0 0 60 60" fill="none" xmlns="http://www.w3.org/2000/svg">
<path d="M31.1444 50.6838C36.4431 53.3506 42.6813 55.2737 49.9987 56.0963C51.7745 56.2962 53.2858 54.8733 53.2858 53.0864V46.4268C53.2858 45.0071 52.3196 43.7696 50.9423 43.4252L42.6102 41.3422C41.5558 41.0786 40.4405 41.3877 39.672 42.1562L31.1444 50.6838ZM31.1444 50.6838C21.5052 45.8328 14.976 38.5198 10.7194 30.89M10.7194 30.89C6.66393 23.6211 4.67125 16.0645 4.0172 10.0753C3.8273 8.33664 5.23533 6.88617 6.98435 6.88617H13.6245C15.0992 6.88617 16.3689 7.92709 16.6582 9.37317L18.9298 20.7314C19.1326 21.7457 18.8152 22.7943 18.0837 23.5257L10.7194 30.89Z" stroke="url(#paint0_linear_1_1003)" stroke-width="6.1875"/>
<path d="M31.4873 16.4519C34.5312 17.0436 37.3271 18.5364 39.5119 20.7367C41.697 22.9369 43.1702 25.7432 43.7404 28.7908M31.9291 4.00012C38.0621 4.75317 43.7707 7.52508 48.1555 11.8792C52.54 16.2334 55.3519 21.9223 56.1476 28.0502" stroke="url(#paint1_linear_1_1003)" stroke-width="6.1875" stroke-linecap="round" stroke-linejoin="round"/>
<defs>
<linearGradient id="paint0_linear_1_1003" x1="28.6429" y1="6.88617" x2="28.6429" y2="56.1151" gradientUnits="userSpaceOnUse">
<stop stop-color="#F2AB02"/>
<stop offset="1" stop-color="#CD6802"/>
</linearGradient>
<linearGradient id="paint1_linear_1_1003" x1="43.8175" y1="4.00012" x2="43.8175" y2="28.7908" gradientUnits="userSpaceOnUse">
<stop stop-color="#F2AB02"/>
<stop offset="1" stop-color="#CD6802"/>
</linearGradient>
</defs>
</svg>
