<svg width="89" height="65" viewBox="0 0 89 65" fill="none" xmlns="http://www.w3.org/2000/svg">
<path d="M42.5829 24.093C42.5829 19.3049 39.7726 15.3599 34.4034 14.4788C33.6642 14.7247 32.878 14.8627 32.0573 14.8627C31.2368 14.8627 30.4479 14.7247 29.7086 14.4788C24.3407 15.3599 21.5318 19.3049 21.5318 24.093H32.0573H42.5829Z" fill="#1F4E79"/>
<path d="M32.0572 13.1557C35.2384 13.1557 37.8171 10.577 37.8171 7.39585V5.76125C37.8171 2.5787 35.2384 0 32.0572 0C28.8748 0 26.296 2.5787 26.296 5.76125V7.39585C26.296 10.577 28.8748 13.1557 32.0572 13.1557Z" fill="#1F4E79"/>
<path d="M66.8782 24.093C66.8782 19.3049 64.0679 15.3599 58.6998 14.4788C57.9607 14.7247 57.173 14.8627 56.3525 14.8627C55.5319 14.8627 54.744 14.7247 54.0051 14.4788C48.6372 15.3599 45.8281 19.3049 45.8281 24.093H56.3525H66.8782Z" fill="#1F4E79"/>
<path d="M56.3526 13.1557C59.5337 13.1557 62.1138 10.577 62.1138 7.39585V5.76125C62.1138 2.5787 59.5337 0 56.3526 0C53.1716 0 50.5913 2.5787 50.5913 5.76125V7.39585C50.5915 10.577 53.1716 13.1557 56.3526 13.1557Z" fill="#1F4E79"/>
<path d="M88.5855 62.1765L74.4698 29.3886C74.1699 28.6876 73.4808 28.2339 72.7182 28.2339H16.0241C15.2615 28.2339 14.5724 28.6876 14.2713 29.3872L0.155591 62.1765C-0.0981533 62.7657 -0.0390503 63.4442 0.314701 63.9808C0.667066 64.516 1.26676 64.8395 1.90858 64.8395H28.5079C30.7791 61.0009 34.6926 58.2156 40.1869 57.3148C41.4518 57.7343 42.8011 57.971 44.2057 57.971C45.6102 57.971 46.9595 57.7343 48.2244 57.3148C53.7187 58.2158 57.6323 61.0009 59.9034 64.8395H86.8315C87.4745 64.8395 88.0728 64.516 88.4266 63.9808C88.7802 63.4442 88.8394 62.7658 88.5855 62.1765ZM54.0657 45.1902C54.0657 50.6357 49.6526 55.0505 44.2056 55.0505C38.7585 55.0505 34.3454 50.6358 34.3454 45.1902V42.3917C34.3454 36.9461 38.7585 32.5316 44.2056 32.5316C49.6524 32.5316 54.0657 36.9461 54.0657 42.3917V45.1902Z" fill="#1F4E79"/>
</svg>
