<svg width="54" height="63" viewBox="0 0 54 63" fill="none" xmlns="http://www.w3.org/2000/svg">
<path d="M7.10526 7.38035H42.6316L42.75 17.2446C48.9632 17.2446 54 22.2994 54 28.5349V39.8251C54 46.0607 48.9632 51.1155 42.75 51.1155L42.6316 63H7.10526V7.38035ZM42.6316 44.4601C45.1169 44.4601 48.3158 41.2497 48.3158 38.7555V30.1987C48.3158 27.7045 45.1169 23.0679 42.6316 23.0679V44.4601ZM11.3684 11.6588V14.5111H38.3684V11.6588H11.3684ZM38.3684 58.7216V55.8693H11.3684V58.7216H38.3684ZM16.3421 18.7895C15.0995 18.7895 14.2105 20.3946 14.2105 21.6418V48.7386C14.2105 49.9857 15.0994 51.5908 16.3421 51.5908C17.5847 51.5908 18.4737 49.9857 18.4737 48.7386V21.6418C18.4737 20.3946 17.5848 18.7895 16.3421 18.7895ZM24.8684 18.7895C23.6259 18.7895 22.7368 20.3946 22.7368 21.6418V48.7386C22.7368 49.9857 23.6257 51.5908 24.8684 51.5908C26.111 51.5908 27 50.1045 27 48.8574V21.6418C27 20.3946 26.1111 18.7895 24.8684 18.7895ZM33.3947 18.7895C32.152 18.7895 31.2632 20.3946 31.2632 21.6418V48.7386C31.2632 49.9857 32.152 51.5908 33.3947 51.5908C34.6374 51.5908 35.5263 49.9857 35.5263 48.7386V21.6418C35.5263 20.3946 34.6373 18.7895 33.3947 18.7895ZM6.75 3.42878C8.52632 3.10191 18 -1.65186 20.25 0.606157C22.5 2.86417 24.75 2.86417 27 2.86417C29.25 2.86417 31.5 0.606157 36 0.606157C38.25 0.606157 42.75 1.73524 42.75 3.99325C42.6316 8.80649 41.0625 5.6868 41.0625 5.6868C41.0625 5.6868 39.9374 3.42878 35.4375 3.42878C30.9375 3.42878 29.25 5.6868 27 5.6868C24.75 5.6868 20.8125 3.42878 16.3125 3.42878C11.8125 3.42878 11.1908 5.71661 8.4375 5.12233C5.68421 4.52806 2.8421 7.38035 3.93745 10.203C5.68421 13.0849 4.49991 14.9128 4.50005 18.1062C4.50005 18.6707 3.90789 18.6112 3.375 15.8481C2.84211 13.0849 0 11.8965 0 9.63836C0 7.38034 0.236889 7.14261 2.24995 5.12233C4.26316 3.10191 4.97368 3.75566 6.75 3.42878Z" fill="url(#paint0_linear_1_985)"/>
<defs>
<linearGradient id="paint0_linear_1_985" x1="27" y1="0" x2="27" y2="63" gradientUnits="userSpaceOnUse">
<stop stop-color="#F2AB02"/>
<stop offset="1" stop-color="#CD6802"/>
</linearGradient>
</defs>
</svg>
