<svg width="97" height="60" viewBox="0 0 97 60" fill="none" xmlns="http://www.w3.org/2000/svg">
<path d="M61.9388 14.375C58.9828 13.8887 51.3638 13.9208 46.308 15.7387C41.2509 17.5563 32.0552 23.2381 29.2969 24.1489C26.5387 25.0571 26.3082 28.6949 32.5143 29.3756C38.7216 30.0586 44.2381 26.193 45.6171 25.5124C46.9963 24.8295 60.3291 26.8761 60.3291 26.8761L64.5239 27.8981L74.1952 40.8235C75.8922 39.366 79.2486 36.2725 80.0985 33.9216C80.4087 33.0653 80.8694 32.2783 81.3748 31.5792L67.6715 12.8928C65.9233 13.8726 63.8135 14.6843 61.9388 14.375Z" fill="#1F4E79"/>
<path d="M61.9388 29.7741L59.9062 29.5713C57.2395 29.1629 49.6982 28.1013 46.8674 28.1013C46.7422 28.1013 46.6434 28.1026 46.5695 28.1062C46.4557 28.1705 46.3241 28.2449 46.1952 28.3191C44.1866 29.476 39.4798 32.1845 33.9985 32.1845C33.3977 32.1845 32.7958 32.151 32.2102 32.0867C31.3217 31.989 30.5406 31.838 29.8499 31.6475C30.5043 31.9309 31.1075 32.3368 31.6232 32.8577C32.4342 33.6769 32.9359 34.6816 33.1349 35.7322C33.6068 35.6071 34.096 35.5378 34.5966 35.5378C36.1308 35.5378 37.5664 36.1342 38.6375 37.2181C39.6938 38.2848 40.2656 39.6954 40.2494 41.1876C40.2494 41.2024 40.2469 41.2173 40.2469 41.2321C41.7749 41.237 43.2042 41.8336 44.2728 42.9124C45.329 43.9791 45.901 45.3895 45.8848 46.8819C45.8797 47.3967 45.7997 47.8989 45.6583 48.3817C46.7421 48.6056 47.7345 49.1388 48.5279 49.9407C50.7079 52.1445 50.6691 55.6894 48.4415 57.845L47.3266 58.924C47.3315 58.924 47.3366 58.924 47.3415 58.924C49.2162 58.7904 50.7943 57.647 51.236 55.9245C51.9994 56.5196 52.9604 56.8772 54.0081 56.8772C56.4835 56.8772 58.4907 54.8937 58.4907 52.445C58.4907 52.1877 58.4645 51.9378 58.4206 51.6926C59.2091 52.372 60.2365 52.7863 61.3641 52.7863C63.8395 52.7863 65.8469 50.8016 65.8469 48.3542C66.3776 48.5733 66.9594 48.6957 67.5702 48.6957C70.0468 48.6957 72.0528 46.7109 72.0528 44.2636C72.0528 42.4049 71.1343 41.1949 68.9492 38.6954L61.9388 29.7741Z" fill="#1F4E79"/>
<path d="M29.6525 34.7654C28.5338 33.6358 26.7016 33.616 25.5591 34.721L21.423 38.7238C20.2804 39.8288 20.2604 41.6403 21.378 42.7699C22.4967 43.8996 24.3288 43.9194 25.4714 42.8131L29.6087 38.8114C30.7499 37.7066 30.7699 35.8951 29.6525 34.7654Z" fill="#1F4E79"/>
<path d="M36.6657 39.1258C35.5481 37.9948 33.7159 37.975 32.5734 39.0812L27.0582 44.4166C25.9144 45.5227 25.8957 47.3342 27.0131 48.4628C28.1306 49.5937 29.9641 49.6136 31.1067 48.5074L36.6218 43.1718C37.7644 42.067 37.7844 40.2555 36.6657 39.1258Z" fill="#1F4E79"/>
<path d="M42.3008 44.8201C41.1832 43.6905 39.351 43.6694 38.2085 44.7757L32.6933 50.1124C31.5508 51.2172 31.5308 53.0287 32.6483 54.1597C33.7659 55.2883 35.5981 55.3081 36.742 54.2018L42.2571 48.8663C43.3997 47.76 43.4197 45.9485 42.3008 44.8201Z" fill="#1F4E79"/>
<path d="M46.5569 51.8484C45.4393 50.7187 43.6071 50.6978 42.4646 51.8039L39.2472 54.9172C38.1046 56.022 38.0846 57.8335 39.2022 58.9634C40.3209 60.0931 42.1531 60.1117 43.2956 59.0079L46.513 55.8947C47.6557 54.7897 47.6745 52.9782 46.5569 51.8484Z" fill="#1F4E79"/>
<path d="M96.7365 26.1982L78.2501 0.990771C77.8032 0.379584 76.941 0.244824 76.324 0.686486L68.1359 6.55761C67.5189 6.99928 67.3812 7.85195 67.8292 8.46183L86.3156 33.6706C86.7623 34.2806 87.6247 34.4167 88.2415 33.9737L96.4312 28.1037C97.0469 27.6606 97.1847 26.8081 96.7365 26.1982ZM90.4468 28.4626C89.4194 29.1999 87.9814 28.9723 87.2356 27.9564C86.491 26.9406 86.72 25.5201 87.7487 24.7827C88.7761 24.0452 90.2128 24.2729 90.9587 25.2876C91.7032 26.3045 91.4743 27.7264 90.4468 28.4626Z" fill="#1F4E79"/>
<path d="M27.5826 31.1771C28.0181 31.1771 28.4436 31.2316 28.8565 31.3243C25.3812 30.0066 24.8056 27.5963 24.7154 26.7462C24.4701 24.457 25.9606 22.3722 28.4247 21.5605C29.4158 21.2338 32.0138 19.8331 34.5268 18.4795C37.2225 17.0256 40.181 15.4307 42.7539 14.2575C39.4927 13.9965 36.4365 14.1066 34.8047 14.375C33.0476 14.6646 31.0854 13.9706 29.4071 13.0771L15.5961 31.9084C16.0103 32.5233 16.3819 33.1966 16.6433 33.9216C17.0301 34.9907 17.9362 36.2131 18.9685 37.3663C19.1299 37.1609 19.3014 36.9603 19.4942 36.7736L23.6302 32.7708C24.6929 31.7438 26.0971 31.1771 27.5826 31.1771Z" fill="#1F4E79"/>
<path d="M29.078 6.55625L20.8883 0.686242C20.2726 0.24458 19.4104 0.37934 18.9624 0.990527L0.475846 26.1981C0.0278275 26.808 0.16677 27.6605 0.782465 28.1037L8.97081 33.9737C9.58783 34.4166 10.45 34.2806 10.8969 33.6692L29.3835 8.46177C29.8313 7.85189 29.6937 6.99922 29.078 6.55625ZM23.6053 9.37257C22.8607 10.3871 21.4227 10.6148 20.3953 9.8774C19.3665 9.14099 19.1374 7.71937 19.8834 6.70353C20.628 5.68769 22.066 5.46004 23.0934 6.19739C24.1222 6.93492 24.35 8.35542 23.6053 9.37257Z" fill="#1F4E79"/>
</svg>
