<svg width="63" height="63" viewBox="0 0 63 63" fill="none" xmlns="http://www.w3.org/2000/svg">
<path d="M38.6806 30.807L30.8292 38.6583C30.4443 39.0432 30.3951 39.7156 30.779 40.1004C31.1619 40.4853 31.852 40.4194 32.2359 40.0355L40.0715 32.1999C40.4564 31.815 40.4564 31.1909 40.0715 30.8079C39.6876 30.4221 39.0655 30.4221 38.6806 30.807Z" fill="url(#paint0_linear_1_969)"/>
<path d="M46.554 38.681L38.7027 46.5324C38.3178 46.9173 38.2686 47.5896 38.6525 47.9745C39.0354 48.3594 39.7254 48.2934 40.1093 47.9095L47.945 40.0739C48.3299 39.689 48.3299 39.0649 47.945 38.682C47.5611 38.2961 46.9389 38.2961 46.554 38.681Z" fill="url(#paint1_linear_1_969)"/>
<path d="M30.801 22.9278L22.9496 30.7792C22.5647 31.1641 22.5155 31.8364 22.8994 32.2213C23.2823 32.6062 23.9724 32.5402 24.3563 32.1563L32.1919 24.3207C32.5768 23.9358 32.5768 23.3117 32.1919 22.9288C31.808 22.5429 31.1859 22.5429 30.801 22.9278Z" fill="url(#paint2_linear_1_969)"/>
<path d="M61.8463 36.5912L45.9723 20.7172L44.2329 18.9778C44.2713 18.5624 44.2969 18.145 44.2969 17.7197C44.2969 10.1095 38.1268 3.93848 30.5156 3.93848C30.0904 3.93848 29.2241 4.00641 29.2084 4.00838C29.2094 4.00838 29.2025 4.00247 29.2035 4.00345C25.2 4.38145 21.7065 6.47916 19.4424 9.54155C19.4375 9.54745 19.4335 9.55336 19.4286 9.56025C19.0102 10.1282 18.6332 10.7287 18.3045 11.3577C18.272 11.4188 18.2365 11.4798 18.204 11.5418C18.1775 11.595 18.1538 11.6491 18.1283 11.7032C18.0141 11.9336 17.8999 12.1649 17.7995 12.4031C17.1222 14.0185 16.7472 15.7884 16.7373 17.6479C16.7383 17.6705 16.7344 17.6951 16.7344 17.7188V17.7286C16.7354 18.333 16.7806 18.9266 16.8564 19.5113C16.8584 19.5103 16.8614 19.5093 16.8633 19.5093C17.0602 19.4503 17.2502 19.3755 17.4323 19.2878C17.4943 19.2593 17.5514 19.2209 17.6134 19.1874C17.7227 19.1274 17.8329 19.0693 17.9363 18.9994C18.0278 18.9384 18.1125 18.8685 18.1981 18.8006C18.2582 18.7533 18.3192 18.7071 18.3763 18.6559C18.4846 18.5594 18.584 18.4551 18.6815 18.3478C18.6982 18.3291 18.7169 18.3143 18.7336 18.2946V18.2897C19.3223 17.6055 19.6875 16.7255 19.6875 15.75C19.6875 15.1407 19.5379 14.5697 19.2898 14.0539C19.5349 13.3038 19.8529 12.5892 20.2358 11.9139C21.1198 12.9465 21.6562 14.2852 21.6562 15.75C21.6562 19.0112 19.0112 21.6562 15.75 21.6562C12.4888 21.6562 9.84375 19.0112 9.84375 15.75C9.84375 12.8796 11.8922 10.4895 14.6062 9.95695C14.2124 10.7622 13.86 11.593 13.5903 12.4622C12.5212 13.166 11.8125 14.3748 11.8125 15.75C11.8125 16.7521 12.2082 17.6439 12.8274 18.336C12.8284 18.3478 12.8294 18.3576 12.8294 18.3684C13.0745 18.6411 13.358 18.8754 13.669 19.0723C13.6858 19.0831 13.7005 19.0959 13.7182 19.1067C14.0431 19.3056 14.3994 19.4552 14.7784 19.5517C14.7833 19.5526 14.7883 19.5546 14.7932 19.5566C14.7961 19.5576 14.8011 19.5585 14.804 19.5605C14.8316 19.5664 14.8582 19.5802 14.8867 19.5851C14.8867 19.5851 14.8217 18.9089 14.7863 18.3005C14.7774 18.1086 14.7656 17.9166 14.7656 17.7207V17.7188C14.7656 17.6607 14.7735 17.6055 14.7745 17.5475C14.7961 15.5256 15.2037 13.6001 15.9183 11.8292C16.1221 11.3233 16.3574 10.835 16.6113 10.3576C16.6694 10.2493 16.7226 10.1371 16.7836 10.0298C16.8348 9.93825 16.8919 9.85064 16.945 9.76106C17.1134 9.47461 17.2896 9.19603 17.4736 8.92139C17.5386 8.82394 17.6046 8.72845 17.6705 8.63297C17.9127 8.29139 18.1647 7.95572 18.4314 7.6358C18.4383 7.62792 18.4452 7.62005 18.4521 7.61316C18.7277 7.28438 19.0191 6.96937 19.3213 6.66422C19.3636 6.62091 19.407 6.57858 19.4493 6.53625C21.0961 4.90809 23.0984 3.64022 25.3329 2.86059C26.0416 2.61253 26.7681 2.4068 27.5192 2.26308C28.4898 2.07605 29.4909 1.96973 30.5166 1.96973C39.2155 1.96973 46.2666 9.02081 46.2666 17.7197C46.2666 18.7455 46.1603 19.7466 45.9723 20.7172L47.6034 22.3463C48.0021 20.8697 48.2344 19.3223 48.2344 17.7188C48.2344 7.93406 40.3013 0 30.5156 0C28.8786 0 27.3007 0.240188 25.7975 0.655594C25.1577 0.232313 24.4036 0 23.625 0H3.9375C1.76302 0 0 1.76302 0 3.9375V23.625C0 24.6694 0.415406 25.6705 1.15369 26.4088L36.5912 61.8463C37.359 62.6151 38.368 63 39.375 63C40.382 63 41.391 62.6151 42.1588 61.8463L61.8463 42.1588C63.3849 40.6222 63.3849 38.1278 61.8463 36.5912ZM42.2937 17.0385L31.1968 5.94169C37.1749 6.28327 41.9511 11.0595 42.2937 17.0385ZM21.5086 33.6125C20.3569 32.4607 20.3992 30.5442 21.5499 29.3934L29.4092 21.5342C30.5609 20.3825 32.4342 20.3835 33.5859 21.5352C34.7366 22.6859 34.7366 24.5602 33.5849 25.7119H33.5869L25.7198 33.577C24.568 34.7288 22.6583 34.7642 21.5086 33.6125ZM29.3875 41.4914C28.2358 40.3397 28.2781 38.4231 29.4289 37.2724L37.2881 29.4131C38.4398 28.2614 40.3131 28.2624 41.4648 29.4141C42.6156 30.5648 42.6156 32.4391 41.4638 33.5908H41.4658L33.5987 41.456C32.447 42.6077 30.5363 42.6431 29.3875 41.4914ZM49.3398 41.4648L41.4727 49.33C40.321 50.4817 38.4113 50.5171 37.2615 49.3654C36.1098 48.2137 36.1522 46.2971 37.3029 45.1464L45.1621 37.2871C46.3139 36.1354 48.1871 36.1364 49.3388 37.2881C50.4896 38.4389 50.4896 40.3131 49.3379 41.4648H49.3398Z" fill="url(#paint3_linear_1_969)"/>
<defs>
<linearGradient id="paint0_linear_1_969" x1="35.4374" y1="30.5184" x2="35.4374" y2="40.3583" gradientUnits="userSpaceOnUse">
<stop stop-color="#F2AB02"/>
<stop offset="1" stop-color="#CD6802"/>
</linearGradient>
<linearGradient id="paint1_linear_1_969" x1="43.3108" y1="38.3924" x2="43.3108" y2="48.2324" gradientUnits="userSpaceOnUse">
<stop stop-color="#F2AB02"/>
<stop offset="1" stop-color="#CD6802"/>
</linearGradient>
<linearGradient id="paint2_linear_1_969" x1="27.5578" y1="22.6393" x2="27.5578" y2="32.4792" gradientUnits="userSpaceOnUse">
<stop stop-color="#F2AB02"/>
<stop offset="1" stop-color="#CD6802"/>
</linearGradient>
<linearGradient id="paint3_linear_1_969" x1="31.5001" y1="0" x2="31.5001" y2="63" gradientUnits="userSpaceOnUse">
<stop stop-color="#F2AB02"/>
<stop offset="1" stop-color="#CD6802"/>
</linearGradient>
</defs>
</svg>
