<svg width="52" height="64" viewBox="0 0 52 64" fill="none" xmlns="http://www.w3.org/2000/svg">
<path d="M35.4138 -0.00012207H16.583C14.1164 -0.00012207 12.1172 1.99923 12.1172 4.46675V58.5628C12.1172 61.0304 14.1164 63.0298 16.583 63.0298H35.4136C37.8802 63.0298 39.8805 61.0304 39.8805 58.5628V4.46675C39.8806 1.99923 37.8802 -0.00012207 35.4138 -0.00012207ZM25.9984 57.0647C22.4547 57.0647 19.5827 54.1916 19.5827 50.649C19.5827 47.1064 22.4547 44.2332 25.9984 44.2332C29.5421 44.2332 32.4142 47.1064 32.4142 50.649C32.4142 54.1916 29.542 57.0647 25.9984 57.0647ZM25.9984 37.9306C22.4547 37.9306 19.5827 35.0574 19.5827 31.5148C19.5827 27.9722 22.4547 25.0991 25.9984 25.0991C29.5421 25.0991 32.4142 27.9722 32.4142 31.5148C32.4142 35.0574 29.542 37.9306 25.9984 37.9306ZM25.9984 18.7966C22.4547 18.7966 19.5827 15.9234 19.5827 12.3808C19.5827 8.83822 22.4547 5.96507 25.9984 5.96507C29.5421 5.96507 32.4142 8.83822 32.4142 12.3808C32.4142 15.9233 29.542 18.7966 25.9984 18.7966Z" fill="url(#paint0_linear_1_990)"/>
<path d="M6.10352e-05 9.02058C6.10352e-05 12.7567 2.40714 16.0674 5.9618 17.2171L9.56706 18.3832V5.4397H6.10352e-05V9.02058Z" fill="url(#paint1_linear_1_990)"/>
<path d="M6.10352e-05 28.7175C6.10352e-05 32.4536 2.40714 35.7643 5.9618 36.914L9.56706 38.0801V25.1366H6.10352e-05V28.7175Z" fill="url(#paint2_linear_1_990)"/>
<path d="M6.10352e-05 48.4143C6.10352e-05 52.1504 2.40714 55.4611 5.9618 56.6107L9.56706 57.7769V44.8334H6.10352e-05V48.4143Z" fill="url(#paint3_linear_1_990)"/>
<path d="M42.4315 5.4397V18.3832L46.0366 17.2171C49.5913 16.0674 51.9985 12.7567 51.9985 9.02058V5.4397H42.4315Z" fill="url(#paint4_linear_1_990)"/>
<path d="M42.4315 38.08L46.0366 36.9138C49.5913 35.7642 51.9985 32.4535 51.9985 28.7174V25.1364H42.4315V38.08Z" fill="url(#paint5_linear_1_990)"/>
<path d="M42.4315 57.7768L46.0366 56.6106C49.5913 55.4609 51.9985 52.1503 51.9985 48.4142V44.8331H42.4315V57.7768Z" fill="url(#paint6_linear_1_990)"/>
<defs>
<linearGradient id="paint0_linear_1_990" x1="25.9988" y1="-0.00012207" x2="25.9988" y2="63.0298" gradientUnits="userSpaceOnUse">
<stop stop-color="#F2AB02"/>
<stop offset="1" stop-color="#CD6802"/>
</linearGradient>
<linearGradient id="paint1_linear_1_990" x1="4.78356" y1="5.4397" x2="4.78356" y2="18.3832" gradientUnits="userSpaceOnUse">
<stop stop-color="#F2AB02"/>
<stop offset="1" stop-color="#CD6802"/>
</linearGradient>
<linearGradient id="paint2_linear_1_990" x1="4.78356" y1="25.1366" x2="4.78356" y2="38.0801" gradientUnits="userSpaceOnUse">
<stop stop-color="#F2AB02"/>
<stop offset="1" stop-color="#CD6802"/>
</linearGradient>
<linearGradient id="paint3_linear_1_990" x1="4.78356" y1="44.8334" x2="4.78356" y2="57.7769" gradientUnits="userSpaceOnUse">
<stop stop-color="#F2AB02"/>
<stop offset="1" stop-color="#CD6802"/>
</linearGradient>
<linearGradient id="paint4_linear_1_990" x1="47.215" y1="5.4397" x2="47.215" y2="18.3832" gradientUnits="userSpaceOnUse">
<stop stop-color="#F2AB02"/>
<stop offset="1" stop-color="#CD6802"/>
</linearGradient>
<linearGradient id="paint5_linear_1_990" x1="47.215" y1="25.1364" x2="47.215" y2="38.08" gradientUnits="userSpaceOnUse">
<stop stop-color="#F2AB02"/>
<stop offset="1" stop-color="#CD6802"/>
</linearGradient>
<linearGradient id="paint6_linear_1_990" x1="47.215" y1="44.8331" x2="47.215" y2="57.7768" gradientUnits="userSpaceOnUse">
<stop stop-color="#F2AB02"/>
<stop offset="1" stop-color="#CD6802"/>
</linearGradient>
</defs>
</svg>
