<svg width="61" height="67" viewBox="0 0 61 67" fill="none" xmlns="http://www.w3.org/2000/svg">
<path fill-rule="evenodd" clip-rule="evenodd" d="M60.0312 49.4098C60.0271 49.5716 60.0113 49.7328 59.984 49.8924C60.0552 50.2588 60.0444 50.6364 59.9525 50.9981C59.8606 51.3599 59.6899 51.6969 59.4525 51.9849C59.2151 52.2729 58.917 52.5049 58.5794 52.6642C58.2419 52.8235 57.8732 52.9061 57.5 52.9062H10.25C9.69599 52.9062 9.1474 53.0154 8.63555 53.2274C8.12371 53.4394 7.65864 53.7501 7.26689 54.1419C6.87515 54.5336 6.56439 54.9987 6.35238 55.5106C6.14037 56.0224 6.03125 56.571 6.03125 57.125C6.03125 57.679 6.14037 58.2276 6.35238 58.7394C6.56439 59.2513 6.87515 59.7164 7.26689 60.1081C7.65864 60.4999 8.12371 60.8106 8.63555 61.0226C9.1474 61.2346 9.69599 61.3438 10.25 61.3438H57.5C58.1713 61.3438 58.8152 61.6104 59.2899 62.0851C59.7646 62.5598 60.0312 63.2037 60.0312 63.875C60.0312 64.5463 59.7646 65.1902 59.2899 65.6649C58.8152 66.1396 58.1713 66.4062 57.5 66.4062H10.25C7.78846 66.4062 5.42774 65.4284 3.68716 63.6878C1.94659 61.9473 0.96875 59.5865 0.96875 57.125V9.875C0.96875 7.41346 1.94659 5.05274 3.68716 3.31217C5.42774 1.57159 7.78846 0.59375 10.25 0.59375H55.475C57.9927 0.59375 60.0312 2.63225 60.0312 5.15V49.4098ZM20.375 14.0938C19.7037 14.0938 19.0598 14.3604 18.5851 14.8351C18.1104 15.3098 17.8438 15.9537 17.8438 16.625C17.8438 17.2963 18.1104 17.9402 18.5851 18.4149C19.0598 18.8896 19.7037 19.1562 20.375 19.1562H40.625C41.2963 19.1562 41.9402 18.8896 42.4149 18.4149C42.8896 17.9402 43.1562 17.2963 43.1562 16.625C43.1562 15.9537 42.8896 15.3098 42.4149 14.8351C41.9402 14.3604 41.2963 14.0938 40.625 14.0938H20.375Z" fill="#1F4E79"/>
</svg>
