<svg width="75" height="63" viewBox="0 0 75 63" fill="none" xmlns="http://www.w3.org/2000/svg">
<path d="M15.4197 62.9125C18.4695 62.9125 21.4507 62.0082 23.9865 60.3138C26.5222 58.6195 28.4986 56.2113 29.6657 53.3937C30.8328 50.5761 31.1382 47.4757 30.5432 44.4846C29.9482 41.4934 28.4796 38.7459 26.3231 36.5894C24.1666 34.4329 21.4191 32.9643 18.428 32.3694C15.4368 31.7744 12.3364 32.0797 9.51886 33.2468C6.70127 34.4139 4.29304 36.3903 2.59869 38.926C0.904352 41.4618 0 44.4431 0 47.4928C0.0046118 51.5809 1.63067 55.5003 4.52143 58.3911C7.41219 61.2819 11.3316 62.9079 15.4197 62.9125ZM15.4197 37.0074C17.4936 37.0074 19.5208 37.6223 21.2451 38.7745C22.9694 39.9266 24.3134 41.5642 25.107 43.4802C25.9006 45.3962 26.1083 47.5044 25.7037 49.5384C25.2991 51.5724 24.3005 53.4407 22.834 54.9071C21.3676 56.3735 19.4993 57.3722 17.4653 57.7767C15.4314 58.1813 13.3231 57.9737 11.4071 57.1801C9.49118 56.3864 7.85358 55.0425 6.70143 53.3182C5.54927 51.5939 4.93431 49.5666 4.93431 47.4928C4.93746 44.7129 6.04318 42.0477 8.00889 40.082C9.97461 38.1162 12.6398 37.0105 15.4197 37.0074Z" fill="url(#paint0_linear_1_976)"/>
<path d="M43.1754 47.4928C43.1754 50.5425 44.0797 53.5238 45.7741 56.0595C47.4684 58.5953 49.8767 60.5717 52.6942 61.7388C55.5118 62.9058 58.6122 63.2112 61.6034 62.6162C64.5945 62.0213 67.342 60.5527 69.4985 58.3962C71.655 56.2397 73.1236 53.4922 73.7186 50.501C74.3135 47.5099 74.0082 44.4095 72.8411 41.5919C71.674 38.7743 69.6976 36.3661 67.1619 34.6718C64.6261 32.9774 61.6448 32.0731 58.5951 32.0731C54.507 32.0777 50.5876 33.7037 47.6968 36.5945C44.8061 39.4852 43.18 43.4046 43.1754 47.4928ZM58.5951 37.0074C60.6689 37.0074 62.6962 37.6223 64.4205 38.7745C66.1448 39.9266 67.4888 41.5642 68.2824 43.4802C69.076 45.3962 69.2836 47.5044 68.8791 49.5384C68.4745 51.5724 67.4758 53.4407 66.0094 54.9071C64.543 56.3735 62.6747 57.3721 60.6407 57.7767C58.6067 58.1813 56.4985 57.9737 54.5825 57.1801C52.6666 56.3864 51.029 55.0425 49.8768 53.3182C48.7247 51.5939 48.1097 49.5666 48.1097 47.4928C48.1128 44.7128 49.2186 42.0477 51.1843 40.0819C53.15 38.1162 55.8152 37.0105 58.5951 37.0074Z" fill="url(#paint1_linear_1_976)"/>
<path d="M46.5543 10.5126C49.4573 10.5126 51.8106 8.15924 51.8106 5.25628C51.8106 2.35332 49.4573 0 46.5543 0C43.6513 0 41.298 2.35332 41.298 5.25628C41.298 8.15924 43.6513 10.5126 46.5543 10.5126Z" fill="url(#paint2_linear_1_976)"/>
<path d="M26.9773 31.8109L34.54 39.2725V53.0439H39.4743V38.7567C39.473 38.2667 39.375 37.7818 39.186 37.3298C38.997 36.8777 38.7206 36.4674 38.3727 36.1224L30.4664 28.3219L40.7133 18.075L49.6822 27.2576C50.0276 27.6095 50.4396 27.8892 50.894 28.0806C51.3485 28.272 51.8365 28.3711 52.3296 28.3723H56.7444V23.438H52.8491L38.5878 8.83733L38.5146 8.90888L37.2193 7.61362L19.9492 24.8837L26.9273 31.8618L26.9773 31.8109Z" fill="url(#paint3_linear_1_976)"/>
<defs>
<linearGradient id="paint0_linear_1_976" x1="15.4197" y1="32.0731" x2="15.4197" y2="62.9125" gradientUnits="userSpaceOnUse">
<stop stop-color="#F2AB02"/>
<stop offset="1" stop-color="#CD6802"/>
</linearGradient>
<linearGradient id="paint1_linear_1_976" x1="58.5951" y1="32.0731" x2="58.5951" y2="62.9125" gradientUnits="userSpaceOnUse">
<stop stop-color="#F2AB02"/>
<stop offset="1" stop-color="#CD6802"/>
</linearGradient>
<linearGradient id="paint2_linear_1_976" x1="46.5543" y1="0" x2="46.5543" y2="10.5126" gradientUnits="userSpaceOnUse">
<stop stop-color="#F2AB02"/>
<stop offset="1" stop-color="#CD6802"/>
</linearGradient>
<linearGradient id="paint3_linear_1_976" x1="38.3468" y1="7.61362" x2="38.3468" y2="53.0438" gradientUnits="userSpaceOnUse">
<stop stop-color="#F2AB02"/>
<stop offset="1" stop-color="#CD6802"/>
</linearGradient>
</defs>
</svg>
