<svg width="837" height="778" viewBox="0 0 837 778" fill="none" xmlns="http://www.w3.org/2000/svg">
<g id="Group 88">
<path id="Vector" d="M836.297 242.651C836.146 240.545 835.995 238.373 835.374 236.283C835.458 235.18 835.777 234.094 836.079 233.058C836.515 231.52 836.985 229.932 836.75 228.228C836.633 227.242 836.398 226.272 836.196 225.336C835.811 223.665 835.458 222.094 835.609 220.423V220.372V220.322C835.542 219.804 835.475 219.286 835.408 218.751C835.039 216.01 834.686 213.436 835.273 210.762L835.324 210.512L835.139 210.311C833.629 208.707 832.739 206.718 831.8 204.629C831.363 203.659 830.91 202.656 830.39 201.704L830.356 201.654L830.306 201.603C829.148 200.367 828.544 199.163 828.376 197.759C828.812 197.559 829.282 197.358 829.752 197.174C830.289 197.408 830.826 197.659 831.363 197.927L831.8 198.161L832.035 197.726C832.303 197.241 832.555 196.773 832.807 196.305C833.041 195.854 833.293 195.403 833.545 194.952L833.713 194.651L833.495 194.383C832.572 193.28 831.531 192.227 830.524 191.191C827.369 187.982 824.382 184.957 824.348 180.411V180.294L824.298 180.194C823.728 179.124 823.073 178.105 822.419 177.102C821.11 175.096 819.884 173.208 819.431 170.951L819.398 170.751L819.23 170.634C816.545 168.712 813.474 167.291 809.547 166.171L809.362 166.121L809.194 166.205C806.862 167.258 804.294 166.923 801.877 166.422L801.559 166.355L801.374 166.623C801.173 166.907 800.988 167.208 800.803 167.492C800.619 167.776 800.451 168.06 800.266 168.311L800.149 168.478L800.182 168.678C800.266 169.247 800.367 169.815 800.468 170.366C800.535 170.784 800.619 171.219 800.686 171.637C800.552 171.653 800.417 171.67 800.283 171.703C800.015 171.737 799.729 171.787 799.444 171.837L799.058 171.904L799.024 172.288C798.84 175.029 798.353 176.534 797.38 177.353C796.44 178.138 794.963 178.372 792.58 178.121L792.463 178.105L792.362 178.138C790.768 178.706 789.123 179.308 787.462 179.776L786.992 179.91L787.092 180.378C787.495 182.133 787.965 183.887 788.536 185.743C788.385 185.977 788.234 186.227 788.066 186.478C787.948 186.662 787.831 186.846 787.73 187.013C786.472 186.344 785.179 186.01 783.904 185.977C781.789 185.141 780.245 183.353 778.752 181.614C778.5 181.33 778.265 181.046 778.013 180.762L777.678 180.378L777.292 180.729C776.553 181.414 775.798 182.049 775.009 182.717L774.405 183.236L774.59 183.587C775.446 185.191 775.563 186.913 775.479 188.584C775.144 188.183 774.791 187.765 774.456 187.33L774.389 187.23L774.288 187.18C772.979 186.578 771.619 186.461 770.294 186.361C768.699 186.227 767.189 186.11 765.914 185.158L765.779 185.057H765.612C765.393 185.057 765.175 185.074 764.957 185.074C763.161 185.124 761.45 185.158 759.973 184.188C759.755 183.62 759.536 183.052 759.318 182.5C759.117 181.982 758.899 181.447 758.697 180.912C758.815 180.561 758.932 180.21 759.033 179.876C759.151 179.492 759.285 179.091 759.419 178.723L759.469 178.589L759.436 178.456C758.379 173.258 756.163 172.957 753.596 172.623C752.085 172.422 750.39 172.188 748.595 170.868C748.611 170.834 748.628 170.801 748.645 170.767L748.729 170.6L748.679 170.417C748.46 169.497 748.225 168.528 747.923 167.559L747.873 167.391L747.722 167.291C746.866 166.723 746.128 165.988 745.44 165.286C744.382 164.216 743.292 163.113 741.697 162.528L741.462 162.444L741.244 162.578C739.902 163.447 738.475 164.065 736.965 164.701C735.975 165.118 734.951 165.57 733.978 166.071C731.762 167.191 729.178 167.074 726.661 166.957H726.61C725.469 165.653 723.908 165.068 722.398 164.517C722.264 164.467 722.129 164.416 721.978 164.366L721.71 164.266L721.492 164.45C720.972 164.868 720.435 165.336 719.914 165.804C716.306 166.071 715.081 164.968 714.007 163.999C712.849 162.962 711.758 161.976 708.57 162.896C708.368 162.561 708.167 162.227 707.966 161.909C707.697 161.492 707.428 161.057 707.177 160.623L706.975 160.272L706.589 160.389C704.878 160.907 703.367 160.773 701.32 159.887L701.169 159.82L701.018 159.854C698.987 160.255 697.057 160.205 695.127 159.737L695.043 159.72H694.959C693.382 159.82 691.872 159.67 690.344 159.269C689.757 158.533 689.153 157.781 688.515 157.046L688.314 156.812L688.012 156.895C687.508 157.029 686.988 157.163 686.485 157.28C686.048 157.38 685.578 157.497 685.142 157.614C683.833 156.795 682.725 155.926 681.752 154.957L681.702 154.907L681.635 154.873C681.014 154.522 680.41 154.205 679.805 153.887C676.466 152.116 673.831 150.712 672.371 146.868L672.287 146.634L672.035 146.567C671.431 146.4 670.793 146.216 670.189 146.032C669.585 145.848 668.947 145.664 668.326 145.497L668.024 145.413L667.823 145.647C667.571 145.915 667.303 146.199 667.051 146.466C666.833 146.7 666.615 146.918 666.397 147.152C664.131 147.336 662.402 148.472 660.707 149.742C660.187 149.742 659.667 149.759 659.164 149.776C658.66 149.792 658.173 149.792 657.704 149.792C657.2 149.475 656.697 149.124 656.16 148.756C654.465 147.57 652.702 146.333 650.504 146.466C648.356 144.26 647.433 143.157 646.678 140.049L646.644 139.881L646.51 139.781C645.285 138.762 644.043 138.06 642.717 137.608C642.214 134.984 640.334 133.163 638.522 131.408C637.599 130.505 636.625 129.586 635.887 128.567L635.434 125.792C635.769 125.525 636.122 125.241 636.474 124.973C636.894 124.639 637.347 124.305 637.767 123.954L637.884 123.87L637.951 123.67C638.807 121.196 639.361 119.558 638.32 116.851C638.522 115.129 638.085 113.541 637.683 112.02C637.431 111.068 637.162 110.065 637.062 109.079C637.666 108.511 638.236 107.942 638.824 107.341L639.042 107.123L638.958 106.839C638.841 106.472 638.723 106.104 638.622 105.72C638.505 105.335 638.387 104.967 638.287 104.6L638.22 104.382L638.001 104.299C636.458 103.647 635.115 103.731 633.89 103.998C633.672 103.196 633.521 102.46 633.37 101.742C632.933 99.6526 632.564 97.8476 630.601 95.7083C631.708 93.3851 633 91.9645 634.645 91.2458L634.796 91.179L634.88 91.0453C636.273 88.6887 636.625 87.2347 636.441 84.5605C636.76 82.9728 637.129 81.1176 637.582 79.2959L637.767 78.5605L637.011 78.6942C634.309 79.1454 631.859 78.5271 629.896 76.9059C629.946 76.6217 630.013 76.3376 630.064 76.0702C630.131 75.7526 630.198 75.4518 630.265 75.1343C630.517 75.0006 630.768 74.8501 631.003 74.7164C631.876 74.215 632.715 73.7471 633.588 73.3125L634.544 72.8278L633.554 72.41C632.145 71.825 630.97 70.9225 629.711 69.9699C628.503 69.0506 627.261 68.1147 625.801 67.4796L625.65 67.4127L625.482 67.4462C625.113 67.5297 624.744 67.5966 624.375 67.6634C624.072 67.7136 623.77 67.7804 623.452 67.8473C621.27 66.3431 619.189 65.5409 617.142 65.4239L616.94 65.4071L616.873 65.4573C616.638 65.6578 616.37 65.8584 616.118 66.059C615.967 66.176 615.816 66.3097 615.665 66.4267C615.094 65.9253 614.607 65.474 614.171 65.0729C611.536 62.6327 610.882 62.1982 606.082 62.5659H606.065C605.898 62.5826 605.747 62.5993 605.579 62.616C604.102 62.7497 602.575 62.8834 601.215 63.6355C601.081 63.6355 600.947 63.6355 600.813 63.6523C599.084 63.6857 597.288 63.7191 595.778 65.0395C593.865 64.9057 592.103 65.2902 590.24 65.6913C590.039 65.7414 589.82 65.7748 589.619 65.825C586.38 63.5353 583.712 64.9392 580.926 66.4768C580.12 66.6105 579.332 66.7609 578.543 66.9281C576.428 67.3459 574.431 67.747 572.35 67.63L572.166 67.6133L572.015 67.7136C570.286 68.9336 568.927 69.4685 567.383 69.552L567.299 69.5687C565.185 70.02 563.238 70.7052 561.19 71.4406L560.721 71.6078L560.637 71.825C560.251 72.878 559.848 73.9643 559.412 75.034C559.143 75.2345 558.875 75.4351 558.623 75.6357C558.337 75.8529 558.035 76.0869 557.733 76.3042L557.549 76.4379L557.532 76.6719C557.498 77.1398 557.448 77.6245 557.381 78.0925C557.331 78.5103 557.297 78.9282 557.247 79.346C555.77 80.4491 554.041 80.917 552.212 81.4352C551.088 81.7527 549.93 82.0703 548.805 82.5549L548.688 82.6051L548.604 82.7221C548.319 83.1065 548.033 83.5076 547.748 83.8753C547.563 84.1093 547.396 84.3433 547.211 84.594C540.884 79.5466 533.853 83.1232 527.626 86.282C525.982 87.1177 524.438 87.9032 522.928 88.5216L522.844 88.555L522.777 88.6219C520.763 90.4603 519.219 91.7305 516.517 92.3656C516.131 92.1985 515.728 92.0314 515.325 91.8642C514.872 91.6804 514.436 91.4798 514 91.296L513.781 91.1957L513.563 91.296C513.11 91.53 512.674 91.7305 512.237 91.9478C511.801 92.1651 511.365 92.3656 510.912 92.5996L510.677 92.7166L510.643 92.9339H510.593C510.073 92.9673 509.552 93.0007 509.049 93.0342C506.75 93.2013 504.383 93.3517 502.185 92.8169L502.118 92.8002C501.38 92.7166 500.658 92.5662 499.936 92.4325C498.308 92.0982 496.647 91.7639 494.851 92.2319C493.828 91.4464 492.921 90.7779 491.914 90.1929C491.763 88.7723 491.327 87.2681 490.538 85.4965L490.404 85.1789L490.052 85.1956C488.961 85.2625 487.82 85.3795 486.746 85.4965C486.209 84.9784 485.403 84.7778 484.631 84.5772C482.986 84.1594 481.493 83.9254 480.15 83.9087H479.949L479.798 84.0424C478.489 85.2124 477.532 86.516 476.878 88.0369C475.284 88.9728 473.656 89.8085 471.709 90.7779L471.541 90.8614L471.474 91.0453C471.273 91.5634 471.071 92.0982 470.87 92.6163C470.702 93.0509 470.551 93.4687 470.383 93.9032C466.859 95.491 463.939 96.31 461.237 96.4938C461.086 96.3267 460.935 96.1595 460.784 95.9924C460.364 95.5244 459.962 95.0899 459.592 94.6219L459.492 94.5049L459.341 94.4548C458.283 94.1205 457.193 94.0369 456.119 93.9367C454.575 93.803 453.115 93.6693 451.906 92.8837L451.655 92.7166L451.386 92.8503C450.178 93.5021 448.818 94.0369 447.509 94.5216C446.385 94.0369 445.244 93.9534 444.002 94.2709C443.331 93.9868 442.71 93.6191 442.106 93.2681C440.662 92.4325 439.169 91.5634 437.021 91.8475L436.853 91.8642L433.396 95.14V95.3573C433.396 95.842 433.396 96.3267 433.413 96.7946C433.413 97.179 433.429 97.5634 433.429 97.9479C432.473 98.9506 431.567 99.6693 430.694 100.355C428.831 101.825 427.22 103.079 426.347 106.472C426.012 106.739 425.659 107.023 425.307 107.291C424.921 107.591 424.518 107.909 424.149 108.21L423.981 108.36L423.964 108.577C423.948 108.828 423.948 109.096 423.931 109.363C423.83 112.137 423.713 115.263 421.38 116.867C419.651 117.168 417.856 117.352 416.127 117.519C412.704 117.853 409.179 118.188 405.823 119.575L405.689 119.625L405.605 119.742C404.413 121.413 403.222 123.218 401.98 125.241C400.386 125.909 398.624 126.845 397.398 128.617L397.264 128.817L397.348 129.051C398.523 132.561 398.875 135.252 397.214 138.678L397.113 138.895L397.214 139.113C397.986 140.684 398.775 142.255 399.563 143.826L399.614 143.909L399.681 143.976C399.916 144.177 400.151 144.394 400.386 144.595C403.625 147.436 406.981 150.361 406.461 154.756L406.444 154.973L406.578 155.141C407.803 156.645 408.038 158.483 408.206 160.422V160.472L408.223 160.522C408.709 162.227 408.995 163.698 408.877 165.219C407.484 167.174 405.437 168.611 403.44 169.999C403.205 170.166 402.97 170.316 402.735 170.483C400.134 169.798 398.724 167.793 398.137 163.999L398.053 163.447L397.516 163.581C396.861 163.748 396.173 163.882 395.519 163.999C393.622 164.35 391.676 164.717 390.048 166.054L389.813 166.272L389.998 166.623C390.803 168.16 391.139 169.815 391.357 171.235L391.374 171.302L391.407 171.369C391.676 171.904 391.944 172.472 392.213 173.024C392.465 173.525 392.716 174.027 392.951 174.511L392.985 174.561C393.555 175.43 394.143 176.116 394.697 176.801C395.771 178.088 396.71 179.208 397.247 181.163C397.147 181.932 397.012 182.701 396.895 183.453C396.778 184.205 396.66 184.99 396.543 185.743L396.526 185.91L396.61 186.06C396.895 186.562 397.214 187.08 397.516 187.564C397.768 187.965 398.019 188.383 398.254 188.801C398.086 189.252 397.919 189.704 397.751 190.155C397.549 190.706 397.331 191.275 397.13 191.843L397.08 191.993L397.113 192.144C397.298 192.862 397.566 193.932 397.768 194.952L397.801 195.135L397.935 195.252C398.338 195.587 398.741 195.904 399.144 196.222C399.53 196.523 399.933 196.84 400.335 197.174L400.604 197.392L400.906 197.208C402.232 196.439 403.725 195.503 405.001 194.216C406.729 195.336 407.703 197.124 408.726 199.013C408.995 199.514 409.28 200.049 409.582 200.551L409.632 200.634L409.7 200.684C410.555 201.386 411.344 202.222 412.099 203.007C413.106 204.06 414.147 205.163 415.389 206.032L415.54 206.133L415.708 206.116C416.362 206.083 417 205.949 417.604 205.832C418.812 205.598 419.953 205.381 421.095 205.798C422.253 206.985 423.679 207.804 425.055 208.59C426.717 209.542 428.277 210.428 429.385 211.932C429.351 212.634 429.318 213.319 429.335 214.038V214.239L429.486 214.372C431.483 216.311 434.117 217.214 436.668 218.083C437.709 218.434 438.783 218.801 439.773 219.236C442.055 221.191 444.69 222.629 447.241 223.999C448.298 226.506 449.255 227.726 451.42 229.414L451.806 229.715L452.124 229.347C452.477 228.913 452.829 228.529 453.148 228.144C455.263 225.687 456.572 224.166 456.689 220.306C456.907 220.322 457.142 220.339 457.36 220.356C457.78 220.389 458.183 220.423 458.619 220.456L458.77 220.473L458.904 220.389C459.173 220.222 459.458 220.072 459.743 219.904C459.978 219.771 460.213 219.637 460.432 219.503C462.043 219.821 463.654 220.356 465.198 220.857C466.909 221.409 468.671 221.977 470.501 222.311C470.92 223.013 471.373 223.749 471.86 224.467L471.977 224.651C472.028 224.918 472.078 225.186 472.129 225.453C472.212 225.955 472.313 226.456 472.414 226.941L472.447 227.125L472.598 227.242C474.025 228.261 475.586 229.03 477.096 229.765C478.506 230.451 479.949 231.169 481.258 232.072C482.047 233.275 483.138 234.161 484.195 235.03C485.118 235.799 485.99 236.517 486.695 237.437L486.83 237.604L487.048 237.621C489.095 237.838 491.025 238.54 492.619 239.626L492.72 239.693L492.854 239.71C494.314 239.843 495.288 240.562 496.395 241.648L496.462 241.699C497.771 242.618 498.627 244.139 499.466 245.609C500.708 247.816 502 250.089 504.786 250.557L505.004 250.59L505.172 250.456C506.599 249.37 508.025 248.451 509.552 247.465C511.935 247.181 514.251 247.916 515.929 249.52C515.913 251.025 516.416 252.345 516.886 253.632C517.322 254.802 517.742 255.905 517.792 257.142L517.809 257.493L518.145 257.61C519.957 258.228 521.35 259.231 522.491 260.802L522.625 260.986L522.86 261.002C524.841 261.186 526.25 262.122 527.744 263.476L527.811 263.526L527.895 263.56C528.365 263.76 528.784 263.944 529.187 264.128C531.755 265.281 533.349 266 536.135 263.292C536.638 263.576 537.142 263.86 537.679 264.195L537.729 266.05C537.394 266.551 537.041 267.086 536.689 267.654L536.605 267.788L536.622 267.955C536.655 268.39 536.722 268.841 536.773 269.259C536.823 269.727 536.89 270.195 536.924 270.679L536.957 270.963L537.226 271.08C540.096 272.367 542.73 272.551 545.046 271.615C545.298 271.732 545.533 271.833 545.785 271.933C546.087 272.05 546.389 272.184 546.691 272.317L546.892 272.418L547.094 272.334C547.48 272.167 547.866 272 548.268 271.849C548.52 271.749 548.789 271.632 549.04 271.532C549.779 272.702 550.769 273.888 552.027 275.142C552.38 275.71 552.716 276.312 553.051 276.88C554.008 278.535 554.998 280.239 556.223 281.744L556.559 282.161L556.961 281.794C557.129 281.643 557.314 281.476 557.482 281.326C557.868 280.975 558.27 280.624 558.64 280.239L558.791 280.089V279.872C558.774 279.404 558.774 278.936 558.791 278.484C558.791 278.1 558.791 277.716 558.791 277.331C558.992 277.164 559.193 276.98 559.395 276.813C559.462 276.746 559.546 276.696 559.613 276.629C559.68 276.83 559.747 277.03 559.814 277.231C559.999 277.782 560.184 278.367 560.385 278.902L560.435 279.036L560.553 279.12C560.704 279.237 560.855 279.354 560.989 279.471C562.03 280.289 563.104 281.142 564.396 281.677L564.547 281.744L564.715 281.693C565.017 281.61 565.352 281.51 565.654 281.409C565.957 281.309 566.275 281.225 566.561 281.142L566.762 281.092L566.863 280.908C567.299 280.072 567.752 279.237 568.205 278.401C568.608 278.25 568.994 278.117 569.397 277.966C569.766 277.833 570.152 277.682 570.538 277.548C571.041 277.849 571.562 278.167 572.048 278.468C573.76 279.521 575.522 280.607 577.503 281.209C579.818 284.217 583.124 284.067 586.313 283.916C588.26 283.833 590.274 283.732 592.052 284.368L592.321 284.468L592.539 284.284C592.942 283.95 593.345 283.615 593.731 283.281C594.083 282.98 594.436 282.679 594.805 282.379C596.852 282.295 598.883 282.262 600.813 282.278H600.964L601.098 282.195C602.441 281.276 603.598 280.874 604.807 280.891H604.874L604.924 280.874C607.559 280.273 609.841 278.919 611.922 277.532C613.819 278.067 615.144 279.019 615.866 280.373C617.091 282.696 616.403 285.788 615.598 287.978C614.658 290 614.44 291.654 614.96 293.025C615.447 294.329 616.588 295.365 618.417 296.167L619.055 296.451L619.122 295.749C619.256 294.212 619.558 292.657 620.062 290.735C621.371 289.666 622.562 288.596 623.972 287.292L624.056 287.225L624.106 287.125C624.677 285.838 625.482 284.618 626.523 283.498C628.57 282.094 629.661 280.156 630.45 278.451C632.279 275.977 635.249 274.607 638.455 274.757C640.284 275.526 642.197 275.626 643.674 275.643H643.926L643.959 275.61C646.023 275.794 647.148 276.128 648.591 277.498L648.658 277.565L648.759 277.599C651.679 278.685 654.129 278.886 656.445 278.217C658.14 278.401 659.432 278.685 660.573 278.952C663.242 279.554 665.188 279.989 669.484 278.351C672.17 279.888 674.016 281.877 674.989 284.25L675.073 284.434L675.257 284.518C677.238 285.354 678.798 285.721 680.208 285.721C682.591 285.721 684.571 284.668 687.559 283.047C692.073 284.635 694.674 283.131 698.383 280.457L698.584 280.306V280.055C698.584 278.117 698.937 276.663 699.726 275.342C701.974 275.058 703.367 273.938 704.844 272.769C705.666 272.117 706.505 271.448 707.529 270.897L707.68 270.813L707.747 270.663C709.409 266.969 712.161 264.211 715.517 262.824L715.618 262.841C717.481 263.008 719.394 263.175 721.341 262.707L721.408 262.69C722.583 262.206 723.858 261.972 725.402 261.955H725.754L725.872 261.637C726.879 258.98 728.775 256.791 730.688 254.835L730.755 254.768L730.789 254.685C731.729 252.562 733.222 251.075 735.119 250.356L735.203 250.323L735.27 250.272C736.277 249.42 737.451 248.902 738.979 248.635L739.163 248.601L740.657 246.696C741.966 247.064 742.721 248.083 743.577 249.253C743.661 249.37 743.745 249.487 743.829 249.587L743.929 249.721L744.08 249.771C745.423 250.206 746.799 250.49 748.142 250.774C749.451 251.058 750.81 251.342 752.102 251.76C753.596 252.713 755.324 252.93 756.986 253.147C757.187 253.181 757.405 253.197 757.607 253.231L757.875 253.264L758.06 253.064C759.167 251.793 760.308 250.389 761.097 248.701C762.272 248.083 763.43 247.381 764.537 246.713C765.612 246.061 766.736 245.375 767.86 244.774C769.119 244.674 770.327 244.172 771.603 243.236C772.845 244.389 773.516 245.476 773.784 246.729L773.818 246.88L773.919 246.98C774.456 247.531 775.009 248.1 775.546 248.668C774.607 249.721 773.482 250.64 772.61 251.325L772.391 251.493L772.408 251.76C772.475 252.696 772.542 253.632 772.593 254.568L772.61 254.902L772.928 255.002C773.18 255.086 773.432 255.169 773.7 255.236C773.952 255.32 774.204 255.387 774.456 255.47L774.724 255.554L774.942 255.37C775.295 255.069 775.647 254.768 775.983 254.484C776.285 254.233 776.587 253.983 776.889 253.715C777.829 253.749 778.752 253.782 779.725 253.816C780.48 255.855 781.017 257.66 781.336 259.264C778.316 261.988 776.151 264.679 774.691 267.454L774.456 267.905L777.443 269.392L777.695 269.192C779.121 268.089 780.749 267.638 782.494 267.186L782.578 267.17C782.914 267.37 783.266 267.571 783.619 267.771C784.021 268.005 784.441 268.256 784.827 268.49L784.911 268.54L784.995 268.557C786.455 268.824 787.965 269.108 789.106 270.061L789.308 270.228L789.559 270.145C789.945 270.028 790.331 269.911 790.717 269.794C791.036 269.693 791.355 269.593 791.674 269.509C793.453 270.462 795.383 271.298 797.262 271.95L797.497 272.033L797.732 271.883C798.521 271.381 799.327 270.88 800.082 270.362L800.25 270.245L800.3 270.044C800.652 268.473 801.508 267.036 802.297 265.766C802.599 265.782 802.901 265.799 803.203 265.816C803.505 265.833 803.807 265.849 804.109 265.866C805.637 268.122 807.952 269.192 809.866 269.86C810.57 271.482 811.846 272.451 813.105 273.253L813.39 273.437L813.658 273.236C813.893 273.069 814.128 272.902 814.363 272.718C814.917 272.317 815.488 271.916 816.025 271.482L816.142 271.381L816.243 271.047C816.427 270.445 816.629 269.844 816.83 269.242C817.082 269.476 817.35 269.693 817.602 269.911C817.803 270.094 818.022 270.262 818.223 270.445C818.273 270.813 818.324 271.164 818.374 271.515C818.458 272.05 818.525 272.585 818.609 273.136L818.643 273.437L818.928 273.537C819.515 273.755 820.069 273.855 820.623 273.855C822.603 273.855 824.365 272.601 825.976 271.465L826.278 271.248L826.329 271.08C826.497 270.512 826.648 269.944 826.782 269.392C826.916 268.874 827.067 268.339 827.218 267.805L827.302 267.521L827.101 267.32C825.859 266.083 825.137 264.98 824.734 263.727C825.758 261.721 826.127 259.632 826.48 257.61C826.681 256.423 826.899 255.186 827.252 254C827.52 253.949 827.789 253.899 828.057 253.832C828.292 253.782 828.51 253.732 828.745 253.699C829.299 254.952 829.87 256.189 830.491 257.493L830.843 258.228L831.347 257.576C831.565 257.309 831.783 257.025 832.018 256.724C832.253 256.423 832.488 256.139 832.706 255.855L832.823 255.704L832.807 255.52C832.773 255.119 832.739 254.718 832.689 254.317C832.656 254.016 832.622 253.715 832.605 253.431C832.907 253.147 833.193 252.863 833.478 252.596C833.813 252.278 834.166 251.927 834.518 251.61L834.686 251.459V251.225C834.669 250.69 834.636 250.139 834.602 249.621C834.569 249.203 834.552 248.768 834.535 248.334C834.854 247.966 835.173 247.598 835.475 247.231C835.811 246.83 836.163 246.412 836.515 246.011L836.666 245.843L836.633 245.626C836.431 244.69 836.364 243.654 836.297 242.651Z" fill="#E49B1E"/>
<path id="Vector_2" d="M377.923 80.833C386.518 80.833 382.167 97.6062 390.551 105.144C418.036 109.708 383.122 130.091 409.122 141.45C414.747 141.769 411.032 143.786 411.351 147.501C420.689 157.056 409.441 156.525 406.045 162.151C397.979 167.247 399.89 152.385 395.963 157.374C382.167 158.223 400.739 170.856 397.449 176.801C396.282 177.969 397.343 179.986 398.298 180.729C403.392 182.746 395.114 184.126 398.192 185.825C399.996 186.992 396.175 191.133 400.739 190.283C407.849 182.64 408.485 193.999 415.277 198.564C421.326 197.715 425.677 201.43 430.771 204.403C426.208 210.985 439.897 208.967 442.656 214.594C456.664 218.203 429.604 221.707 430.983 244.425C421.644 249.414 430.877 255.359 436.077 258.544C437.138 252.281 440.534 260.243 444.885 260.349C452.95 264.914 457.195 272.663 467.489 275.954C477.57 273.3 493.595 294.426 499.856 285.615C502.403 284.235 513.545 291.241 509.831 286.889C512.06 286.145 515.88 284.022 518.533 286.57C535.194 291.029 521.292 295.7 531.374 297.186C543.365 309.076 546.337 294.107 553.022 307.483C561.618 301.326 570.32 315.552 578.173 308.439C581.251 305.254 578.279 312.791 585.92 312.791C587.724 309.076 592.287 312.791 595.046 311.411C611.92 312.579 596.85 286.252 603.43 273.831C617.862 268.948 621.258 270.752 617.226 286.464C617.332 314.808 663.494 298.035 685.462 301.645C686.31 297.823 691.298 303.98 688.964 296.443C686.735 292.621 692.996 283.067 682.384 286.889C670.074 275.423 689.812 280.944 692.89 276.273C693.102 275.317 693.845 276.697 693.845 277.228C694.163 278.714 695.012 276.91 695.119 276.697C695.968 277.334 706.261 274.043 701.698 270.752C712.098 257.27 733.959 255.465 739.583 242.938C752.848 236.25 741.387 246.866 763.46 244.743C766.644 241.24 770.995 238.798 778.211 238.586C778.53 240.178 779.803 242.832 781.713 241.24C786.489 242.089 776.301 244.212 779.379 247.079C783.305 242.939 786.277 250.264 788.081 253.767C788.611 256.421 782.562 257.376 785.215 260.455C786.383 264.489 786.277 259.181 787.338 258.119C790.415 256.208 794.342 261.092 794.766 263.746C801.876 262.578 806.334 269.16 803.893 275.317C782.775 279.776 805.484 295.594 797.313 294.32C789.885 278.82 752.212 303.768 754.653 315.976C759.852 330.202 738.098 332.219 746.587 345.382C731.518 368.1 744.253 372.559 720.481 370.118C710.188 357.485 725.363 392.517 714.539 392.305C713.477 388.271 710.506 401.222 711.992 402.815C712.098 405.787 715.6 412.9 710.4 411.52C709.869 412.581 709.127 417.677 708.278 416.085C707.11 415.341 707.641 417.146 707.004 417.358C702.229 408.547 703.82 415.766 700.318 416.509C698.727 403.664 696.18 382.538 691.086 375.638C685.249 380.309 686.523 371.71 685.992 382.114C679.413 384.449 685.992 393.897 678.67 394.003C676.76 392.199 673.045 381.264 674.107 390.712C671.878 391.668 671.454 380.627 668.907 378.079C670.605 370.33 672.303 367.994 679.306 365.977C679.306 361.943 682.066 369.056 681.641 364.066C681.853 363.43 683.021 364.173 683.445 364.066C686.735 369.056 682.172 361.094 690.025 359.714C694.482 341.454 691.192 352.07 698.408 347.612C665.086 329.14 644.711 359.714 635.372 318.524C635.372 322.558 630.385 323.195 626.458 318.843C622.319 317.25 625.397 310.456 620.197 311.199C617.756 313.322 625.928 314.915 621.577 315.976C613.299 314.808 617.862 312.791 609.267 308.227C608.63 307.696 609.267 305.254 608.205 307.059C604.809 312.791 612.662 307.696 610.752 312.791C605.34 315.552 596.744 325.212 607.356 328.078C610.222 329.671 611.601 336.04 615.74 333.705C617.65 332.856 618.181 334.554 618.075 336.571C619.879 339.544 623.062 336.89 620.515 340.818C604.279 337.951 611.495 351.964 604.703 346.762C595.789 351.964 607.25 364.279 615.209 361.412C620.197 367.251 605.977 378.079 617.12 382.007C610.54 391.774 625.503 384.555 619.242 390.712C617.544 394.64 628.581 421.817 620.834 417.783C618.711 416.085 625.079 423.197 624.017 425.533C620.515 426.594 619.985 423.622 619.03 422.454C618.711 423.41 619.56 426.807 617.756 425.002C619.03 422.879 616.377 425.002 617.756 426.276C613.087 428.081 617.12 413.749 616.589 413.537C614.042 414.811 617.226 415.448 615.634 417.146C612.45 420.649 615.74 412.051 614.679 411.732C614.997 413.961 610.434 421.923 613.936 421.711C614.785 423.834 609.903 430.735 611.495 425.851C612.344 422.985 610.434 414.174 611.071 420.756C608.948 422.136 611.813 425.108 609.16 425.851C607.887 425.957 609.16 423.41 608.524 423.622C605.765 423.41 608.736 423.622 607.569 425.533C606.401 426.594 607.038 422.879 606.826 422.56C605.128 418.951 607.144 424.684 606.401 425.427C605.871 430.735 603.854 420.119 603.642 418.739C602.581 416.403 606.826 414.068 603.748 412.157C598.973 410.246 600.246 411.307 598.548 406.53C616.164 428.187 565.226 421.074 576.369 445.491C580.614 445.703 576.051 446.552 578.173 447.508C581.569 446.128 566.818 454.727 573.716 453.983C574.565 452.391 572.443 456.956 569.259 457.911C564.271 459.504 567.985 465.343 561.512 461.415C560.451 461.627 559.177 457.805 559.92 461.096C571.594 465.449 551.643 467.36 548.565 469.164C544.639 471.606 541.774 469.907 547.186 468.846C546.973 459.504 535.512 472.243 537.316 475.003C538.59 474.366 538.696 473.835 539.651 473.305C536.786 471.924 546.337 468.527 542.304 472.243C541.88 472.668 541.455 470.969 541.349 472.349C540.076 474.366 551.218 467.89 544.745 471.5C538.378 473.623 533.178 481.266 528.508 483.39C520.549 507.7 485.211 514.494 475.766 534.983C482.558 533.391 468.55 551.438 459.105 545.918C452.632 544.325 450.085 554.198 447.75 559.081C443.505 558.763 446.583 549.739 444.142 558.444C425.783 549.315 427.693 583.71 428.224 596.025C428.118 599.74 435.759 618.318 429.816 607.278C428.648 603.031 428.436 609.613 428.118 606.853C439.154 618.637 420.902 646.026 418.567 659.508C424.191 652.926 423.873 685.623 420.159 681.271C416.02 679.678 417.506 681.908 420.477 682.014C420.689 683.182 416.551 681.165 416.232 681.483C413.155 676.175 408.804 685.942 406.681 690.401C393.204 701.972 414.428 705.688 411.457 705.263C375.8 693.798 382.592 766.623 348.421 706.325C347.89 707.598 347.89 704.52 347.466 704.52C347.784 711.632 341.735 685.73 344.388 689.976C342.903 689.551 344.919 692.205 344.919 690.507C347.89 692.736 343.433 698.469 348.633 698.787C346.935 697.513 347.678 690.401 344.282 688.384C342.16 680.74 344.176 692.842 342.054 684.456C343.752 680.74 325.074 648.255 325.074 645.283C322.315 642.417 320.511 646.132 319.344 638.17C309.262 623.945 306.079 592.946 301.834 585.409C301.303 585.303 299.817 585.834 300.454 584.772C299.499 581.481 293.662 582.012 298.968 579.676C300.348 579.57 298.968 579.57 298.968 578.933C296.846 581.269 295.254 578.615 294.83 576.704C291.646 575.218 294.087 572.139 291.858 568.742C288.462 567.574 290.797 567.362 292.92 567.786C295.573 568.636 286.658 565.557 291.54 565.239C291.54 563.54 288.675 567.256 288.993 564.602C286.871 562.266 292.707 561.735 289.63 561.842C277.744 552.818 279.867 533.497 276.046 518.528C276.895 518.528 266.92 497.721 274.03 504.091C273.924 501.861 271.908 502.18 270.528 500.481C268.83 493.793 272.863 498.358 272.226 497.509C269.255 494.855 267.557 487.105 272.226 491.458C273.075 488.485 271.589 489.653 270.21 488.273C271.483 486.574 274.773 485.194 272.226 485.831C272.863 482.753 270.846 480.842 271.059 484.982C271.059 484.876 269.891 486.468 270.104 485.725C270.21 485.301 269.785 485.088 269.573 485.513C268.936 486.468 268.193 489.759 267.981 486.787C266.495 488.167 270.21 480.205 267.769 482.328C268.087 480.948 269.361 478.825 267.557 481.054C266.389 477.232 272.12 478.188 272.65 480.63C275.41 479.356 260.659 476.702 269.785 473.517C268.83 472.986 267.663 474.366 267.45 472.774C265.753 471.394 267.557 474.26 266.814 473.941C264.267 470.226 268.512 467.253 265.328 468.209C266.495 454.408 274.348 440.077 266.708 436.892C265.859 439.97 266.177 433.389 265.328 436.998C265.434 437.635 263.736 437.847 264.055 436.786C270.21 433.176 260.446 434.556 264.585 430.947C260.234 431.265 267.344 429.142 267.026 428.399C258.324 431.372 270.952 423.197 274.879 422.454C272.332 422.348 253.867 427.55 265.965 416.615C260.234 421.817 260.765 408.972 265.859 411.944C267.875 412.369 267.026 411.944 268.512 410.67C275.516 410.989 263.312 408.441 261.72 410.564C256.202 409.29 263.206 407.804 253.973 409.715C258.642 408.76 258.642 417.995 253.23 415.978C252.381 416.085 253.867 416.297 253.442 416.828C253.124 417.04 252.7 416.615 252.381 416.615C254.185 417.677 252.169 417.04 251.532 417.358C251.426 418.632 254.61 417.358 254.398 418.951C254.504 421.18 253.018 418.632 252.063 418.526C251.32 419.269 253.124 419.163 253.124 420.012C252.063 420.649 250.471 418.42 250.683 420.543C269.255 427.656 239.965 442.731 230.52 445.385C219.378 453.983 173.533 401.965 187.435 406.743C191.786 405.256 188.072 407.379 189.451 409.29C195.394 412.051 226.488 392.411 215.876 391.031C217.998 397.613 208.023 390.925 210.145 394.322C191.468 404.938 158.04 381.477 181.068 371.71C175.868 371.816 170.456 381.583 166.848 377.655C172.79 377.23 161.754 373.09 171.199 370.33C189.027 368.631 167.166 359.395 197.623 362.262C204.308 369.374 209.508 361.094 216.3 359.289C220.863 356.423 219.165 369.374 227.231 360.245C233.916 359.714 227.973 358.44 228.08 354.937C233.598 348.143 220.651 339.862 221.5 331.9C221.5 322.877 203.884 336.04 210.782 311.942C212.268 304.723 206.431 307.483 202.292 306.528C185.1 298.566 207.917 284.871 211.631 274.574C219.908 265.763 219.378 277.334 225.427 279.457C261.932 274.468 266.708 233.278 293.344 217.673C286.234 210.029 312.976 195.91 305.972 193.893C309.474 178.606 299.499 176.801 316.797 170.007C339.507 160.665 300.242 163.425 309.581 150.898C298.862 156.631 304.699 146.333 298.756 145.378C291.009 141.238 298.438 137.522 297.695 131.683C285.279 127.756 307.883 120.218 297.164 119.794C286.128 119.9 300.03 112.999 289.842 110.77C292.389 94.6337 313.295 101.216 324.013 105.25C346.511 109.496 358.821 91.7674 377.923 80.833ZM447.114 558.869C448.705 561.311 443.505 559.081 445.416 557.701C445.84 558.02 446.689 558.551 447.114 558.869ZM619.666 425.957C621.364 426.488 620.303 428.187 618.924 427.444C618.711 426.7 618.499 424.896 619.666 425.957ZM601.626 423.41C602.687 419.376 604.385 418.314 604.067 423.41C603.748 425.108 601.307 426.17 601.626 423.41ZM614.467 418.314C616.058 417.889 614.36 420.543 614.679 421.393C612.662 421.18 613.511 419.482 614.467 418.314ZM602.369 420.012C601.838 419.482 602.369 418.208 602.899 417.677C603.961 417.995 603.218 419.8 602.369 420.012Z" fill="#FCA91B"/>
<path id="Vector_3" d="M361.58 91.1302C361.367 99.0921 355.425 92.5102 355.106 98.349C352.029 103.338 340.568 100.578 338.127 104.082C325.817 114.804 298.756 88.1577 291.646 108.434C286.977 112.574 293.981 111.194 294.511 114.167C290.903 122.023 294.087 119.156 300.666 120.536C302.364 125.207 289.524 124.995 295.572 130.515C303.744 134.762 289.842 140.707 298.438 145.484C303.425 145.696 301.515 150.686 302.683 152.597C304.593 151.853 305.654 153.34 307.67 152.915C308.731 151.641 311.278 149.093 309.474 153.127C303.531 164.168 335.792 159.709 319.98 169.9C309.899 171.493 304.911 177.862 307.882 187.417C302.046 201.005 314.144 190.071 306.503 198.67C303.001 199.307 297.801 205.464 296.103 209.923C279.018 229.562 259.597 273.3 225.957 279.988C220.12 279.988 223.092 269.266 215.663 272.238C209.508 281.368 184.57 300.264 203.778 307.377C220.014 304.192 203.99 320.753 212.055 326.061C217.467 334.554 223.092 321.815 222.455 336.465C226.063 342.41 232.324 350.265 228.716 356.104C234.765 364.278 226.594 357.59 226.488 362.898C217.361 367.251 222.986 355.786 213.859 360.881C204.52 373.621 178.415 350.265 179.9 370.117C166.741 366.826 166.317 381.901 165.68 373.09C164.831 372.028 165.999 371.285 164.619 370.86C166.529 378.398 161.648 371.816 160.799 371.922C160.48 374.894 154.537 375.213 156.448 370.86C155.917 373.833 155.28 371.922 153.795 371.816C154.962 372.877 151.354 371.71 153.37 371.603C154.856 369.48 152.309 372.347 153.264 369.799C150.399 369.162 153.688 368.631 153.795 367.463C150.293 370.011 145.623 361.306 150.08 360.988C147.852 360.775 147.321 358.227 147.215 356.635C144.138 355.361 150.08 354.512 145.623 354.512C151.991 344.427 130.66 355.786 135.86 342.303C136.285 339.543 132.146 333.492 129.281 331.051C127.477 328.397 118.775 334.978 124.93 333.492C147.746 334.129 91.6076 335.191 91.1831 340.286C93.3056 340.711 90.8648 341.666 90.0158 341.136C90.0158 339.862 90.6525 339.012 88.3179 338.694C86.0893 340.923 76.1139 336.465 79.1915 334.872C82.3751 334.129 74.9466 334.766 76.5384 335.191C82.9057 340.074 64.6529 332.749 65.2896 339.012C66.8814 342.94 45.8694 336.146 43.1103 339.862C36.9553 341.773 44.0654 343.79 38.441 342.834C41.6246 341.242 38.0165 339.543 36.0002 339.968C14.0331 356.847 24.6452 300.052 56.7999 305.678C70.2773 276.909 45.5511 304.935 50.2204 279.988C52.7673 257.588 28.5717 266.293 21.4616 246.866C-5.70543 207.269 37.8042 247.397 67.0937 235.189C156.448 244.531 106.783 189.115 147.003 192.088C149.762 192.088 160.905 190.071 158.039 187.204C147.003 184.869 165.999 182.533 166.529 176.801C167.696 176.907 180.325 180.41 173.003 177.756C182.129 173.722 179.582 191.557 192.104 173.51C185.525 130.515 222.137 151.96 210.357 129.029C190.512 107.797 221.924 127.967 228.716 119.262C237.843 106.311 218.741 111.725 242.406 89.9624C245.483 71.5968 225.32 68.4121 241.026 57.3715C242.406 52.9128 244.21 56.5222 246.544 55.9914C255.14 39.8552 285.279 45.1631 299.817 42.6153C303.956 39.6428 311.597 36.3519 313.613 42.1907C323.588 35.2903 322.421 47.9233 332.396 47.3925C337.278 49.9403 339.082 57.7961 337.596 61.724C341.841 86.2468 348.739 53.6559 361.58 91.1302ZM150.399 367.782C150.929 368.737 151.991 367.357 152.627 368.1C152.415 369.056 150.823 369.693 150.399 367.782Z" fill="#F8CE87"/>
<path id="Vector_4" d="M679.837 278.502C675.911 285.402 683.127 287.101 687.796 286.145C689.706 301.114 692.041 300.689 677.396 302.069C675.805 298.672 674.637 301.008 672.833 302.494C670.817 302.494 668.27 301.008 666.148 302.388C655.96 304.829 652.989 297.823 650.336 300.583C640.997 306.953 629.43 302.6 620.728 298.354C610.009 291.772 641.315 255.253 655.217 266.506C661.266 268.523 646.515 270.752 662.752 271.602C664.874 271.814 667.209 275.423 668.907 272.345C671.348 268.735 673.045 272.451 676.017 273.088C681.535 273.619 679.731 274.256 679.837 278.502Z" fill="#F8CE87"/>
<path id="Vector_5" d="M700.425 417.04C704.245 450.586 695.119 418.42 691.935 434.238C700 457.062 686.523 434.344 687.69 427.125C690.237 422.348 686.098 425.214 687.053 421.923C685.992 420.437 682.702 410.67 685.462 406.742C685.886 408.335 682.172 408.972 683.976 409.927C683.764 413.961 681.854 404.407 680.898 403.77C679.943 401.116 675.274 399.099 676.441 396.657C677.184 393.472 676.441 397.082 675.168 397.506C675.062 397.825 672.515 401.01 670.817 399.205C669.225 399.099 671.241 399.842 669.756 400.16C675.38 402.284 666.784 406.424 666.466 400.16C666.042 400.691 668.058 402.814 665.723 402.708C655.217 397.825 659.993 377.867 657.764 380.839C656.809 381.37 656.809 378.61 657.976 378.504C651.503 377.655 663.388 385.404 651.185 382.326C646.834 381.052 665.511 389.544 654.05 390.818C656.172 396.976 655.217 393.791 652.564 398.356C656.597 398.462 654.793 401.753 653.731 404.088C661.478 396.232 654.156 420.649 653.201 411.944C652.989 407.804 652.564 410.352 652.882 412.156C650.123 425.426 639.723 420.118 649.38 411.944C648.85 411.307 642.376 420.649 645.03 413.218C646.834 410.352 643.332 414.916 643.756 416.297C641.952 417.677 642.164 410.67 641.421 409.502C641.74 407.804 646.197 402.284 642.695 405.999C638.874 408.653 643.65 425.426 636.752 418.101C633.781 417.889 640.36 422.772 635.266 421.498C633.144 426.276 635.054 410.882 635.479 409.821C635.903 402.708 633.462 422.56 633.993 413.749C632.189 406.848 631.977 410.882 633.568 414.28C633.25 419.588 630.703 427.549 629.96 416.509C624.866 442.624 620.197 382.644 618.075 386.784C611.707 388.058 619.985 380.415 615.74 380.627C608.524 376.381 614.997 372.665 616.165 367.782C612.556 366.083 619.667 361.943 614.785 360.669C610.116 363.535 595.895 353.875 603.43 348.567C602.05 346.231 605.34 344.957 605.659 347.718C611.601 347.824 606.932 338.588 614.254 340.286C637.707 340.499 594.41 328.927 603.961 317.462C607.463 316.082 614.891 308.014 607.781 309.819C606.083 310.031 609.373 303.131 609.054 307.271C616.165 310.243 614.148 316.294 623.062 314.808C615.209 300.795 630.597 328.609 635.373 319.479C634.311 318.205 635.585 313.11 636.964 317.144C638.768 360.457 672.939 328.29 698.196 346.656C698.408 352.282 690.662 343.471 692.784 350.265C692.147 353.238 690.237 355.786 690.131 358.44C688.221 362.474 686.523 356.423 684.719 365.234C680.156 359.926 683.233 368.206 679.519 363.96C680.049 369.48 673.364 364.066 673.47 367.994C668.27 373.302 667.846 378.822 672.09 384.13C685.037 419.163 688.858 327.866 700.425 417.04ZM686.523 422.135C687.266 425.002 688.539 427.549 685.462 428.717C683.976 428.08 685.356 418.738 685.568 423.622C685.674 424.471 686.098 420.118 686.523 422.135ZM624.973 421.605C626.989 423.515 623.381 423.622 623.593 419.057C623.699 416.721 624.018 421.711 624.973 421.605ZM685.462 419.588C685.037 420.543 684.825 422.029 684.294 422.878C683.87 421.711 684.613 415.553 685.462 419.588ZM657.233 416.827C657.658 418.101 656.597 419.269 655.323 419.694C656.384 418.632 654.262 418.42 657.233 416.827ZM651.503 417.889C653.519 414.28 652.352 419.057 651.291 420.118C650.972 419.588 651.185 418.42 651.503 417.889ZM652.67 415.341C652.564 415.872 651.927 416.827 651.609 417.146C651.821 416.615 652.034 415.447 652.67 415.341ZM653.731 415.553C656.809 417.146 651.609 420.861 653.201 417.04C653.307 416.615 652.989 415.023 653.731 415.553ZM656.066 415.023C652.882 416.403 656.172 413.112 657.552 412.581C657.658 414.067 654.05 418.526 656.066 415.023ZM664.768 411.626C665.299 410.882 665.086 412.899 665.086 413.006C664.237 415.235 664.025 411.307 664.768 411.626ZM665.511 412.156C665.511 411.838 665.511 410.776 665.617 410.458C666.36 410.564 665.935 411.838 665.511 412.156ZM664.98 411.201C664.237 410.989 665.405 409.609 665.193 408.972C665.935 406.53 666.148 410.564 664.98 411.201ZM669.331 408.122C671.029 410.352 669.437 414.598 666.572 414.28C667.209 413.324 666.89 405.362 669.331 408.122ZM657.764 406.53C656.491 405.256 658.825 406.53 658.613 407.592C657.764 408.865 658.507 409.29 657.764 406.53ZM658.401 406.53C658.401 406.53 658.507 404.938 658.613 405.256C659.037 405.468 658.825 406.318 658.401 406.53ZM669.543 404.619C671.878 403.664 669.862 406.955 668.588 405.574C668.588 405.15 669.013 404.831 669.543 404.619ZM676.229 402.708C676.972 403.664 680.049 407.167 677.078 407.167C675.592 406.53 674.531 403.664 676.229 402.708ZM661.478 404.831C666.254 406.742 657.976 420.968 658.825 414.704C659.674 412.793 657.976 416.19 657.552 415.872C661.054 409.927 652.67 386.997 661.478 404.831ZM658.295 396.551C660.205 398.356 656.597 396.657 655.854 398.462C654.58 402.177 652.989 392.729 658.295 396.551ZM658.825 394.109C657.87 394.109 658.295 394.109 658.719 394.746C654.687 395.171 655.217 389.651 658.825 394.109ZM655.323 391.349C655.748 391.774 654.687 392.517 654.474 392.835C654.156 391.561 654.156 391.561 655.323 391.349ZM655.642 385.404C654.899 385.935 653.519 384.555 653.625 383.918C655.217 383.918 658.719 386.147 655.642 385.404Z" fill="#F8CE87"/>
<path id="Vector_6" d="M306.821 39.6427C293.344 48.4539 260.128 38.1565 246.439 55.2481C247.712 58.8576 244.104 54.8235 242.83 55.0358C224.365 76.6923 238.586 58.7514 240.284 77.8601C242.724 78.7094 242.724 81.4695 242.83 83.5927C237.949 86.5652 245.059 87.733 242.724 90.4931C239.647 92.1916 241.026 96.438 236.675 96.8627C218.953 115.441 248.985 126.375 205.37 119.687C202.08 126.481 222.986 137.734 208.872 141.556C203.353 147.501 196.774 139.857 195.182 151.641C192.105 153.127 198.79 154.826 192.635 158.435C190.407 179.561 190.407 185.612 175.55 178.393C172.791 180.835 167.166 173.828 163.24 181.79C143.926 187.523 164.938 187.31 157.509 189.646C133.101 192.3 126.522 195.591 125.46 222.025C115.591 242.089 -31.3865 253.236 29.4209 197.502C19.3394 167.353 11.0619 218.415 2.7845 148.881C-0.399135 142.617 6.28649 136.46 9.68237 133.275C-1.2481 133.382 -2.41544 119.581 3.63347 112.468C16.368 113.424 -0.293014 106.842 7.45383 105.78C16.1558 101.215 12.7599 77.2232 19.6578 79.0279C24.5393 86.2467 37.4861 78.6032 38.7596 89.2192C40.2452 91.9793 41.6248 84.1235 46.2941 88.3699C49.4778 87.4145 51.8124 84.0174 54.9961 83.0619C59.347 82.9558 53.9349 76.48 58.8164 76.48C54.041 67.0318 60.6205 74.1445 66.351 69.8981C101.053 61.2992 81.3141 48.1355 99.8853 34.1224C113.681 36.3518 109.33 29.0268 115.91 24.8865C125.673 36.6702 140.742 25.6296 144.881 32.7423C150.717 38.7934 150.399 30.7253 154.856 34.1224C161.86 32.9547 159.95 46.0123 169.607 40.1735C170.031 36.3517 176.505 37.3072 178.415 33.167C180.219 31.6808 182.766 35.7148 181.811 31.6807C186.692 28.496 194.121 49.9402 195.076 27.1159C199.851 19.3663 210.463 30.0884 213.329 22.4449C215.77 19.2601 210.357 17.4554 211.419 14.4829C219.484 10.8735 228.186 -12.5877 236.888 9.06879C230.733 22.4449 247.075 7.05176 240.814 22.9757C227.018 87.096 285.597 5.99015 287.507 33.8039C296.634 34.3347 307.034 23.6126 314.356 34.1224C311.279 36.2456 311.809 30.513 309.687 33.2731C304.805 34.9717 300.454 35.184 306.821 39.6427Z" fill="#FCA91B"/>
<path id="Vector_7" d="M603.111 276.06C597.593 292.515 610.434 315.976 595.895 310.562C590.165 311.942 581.038 314.49 579.128 307.589C572.23 316.4 561.3 301.75 553.022 307.377C549.096 305.147 551.112 297.61 544.32 302.387C537.741 305.572 535.831 297.186 529.888 297.079C524.794 296.655 528.508 294.319 527.447 291.134C525.643 286.888 517.578 289.011 515.88 284.446C508.027 291.559 499.856 281.368 499.537 287.313C497.839 291.134 496.46 286.782 494.337 286.145C478.313 285.933 489.88 277.758 481.072 280.519C476.933 281.262 473.856 276.166 470.142 274.68C466.321 274.574 468.019 278.502 463.244 273.83C448.281 263.215 446.158 259.924 429.497 253.979C422.493 249.095 431.832 245.061 432.15 240.603C428.861 237.205 433.53 235.401 434.379 232.216C432.15 228.288 435.865 228.925 437.456 226.271C456.452 204.19 441.489 236.568 459.636 213.213C465.366 212.364 473.644 213.957 472.689 221.069C481.709 225.316 491.79 231.154 496.778 235.401C507.072 244.743 498.582 244 512.696 241.133C517.684 241.876 526.28 266.081 535.725 256.739C543.79 258.437 527.872 267.567 545.912 265.444C553.553 262.578 558.647 283.597 558.753 271.283C558.434 268.416 561.618 267.673 560.981 271.283C565.545 277.758 567.455 271.283 571.275 269.69C581.675 279.882 591.332 275.635 603.111 276.06Z" fill="#F8CE87"/>
<path id="Vector_8" d="M466.852 751.761C425.041 832.123 405.196 698.363 435.759 698.999C437.351 699.318 441.277 701.229 437.351 698.893C419.841 695.921 423.555 686.897 434.804 696.77C419.098 682.863 445.204 703.14 442.02 703.246C444.248 704.307 448.175 711.314 445.097 709.085C445.416 709.297 455.497 718.214 452.42 719.382C452.844 722.142 451.04 719.064 450.722 720.974C454.224 722.461 455.922 718.745 456.346 723.947C453.906 721.611 458.893 728.193 457.195 729.68C453.905 724.69 464.412 738.066 462.714 738.278C461.228 736.368 460.061 737.641 462.395 738.385C464.836 739.765 464.73 744.33 465.579 744.542C466.534 740.826 467.277 750.593 466.852 751.761ZM463.881 739.34C462.714 735.412 466.109 741.357 465.685 743.056C464.518 744.011 465.367 740.189 463.881 739.34ZM419.735 708.341C418.461 706.006 426.42 710.252 423.13 709.191C422.175 708.872 423.343 709.615 423.343 709.722C424.934 712.057 421.008 707.917 419.735 708.341ZM420.053 698.999C418.992 700.486 417.612 697.619 418.779 698.044C418.992 698.575 420.053 698.15 420.053 698.999ZM423.661 696.345C421.432 695.39 423.661 691.037 423.555 694.541C424.616 695.921 426.632 696.345 423.661 696.345Z" fill="#F8CE87"/>
</g>
</svg>
