<svg width="65" height="64" viewBox="0 0 65 64" fill="none" xmlns="http://www.w3.org/2000/svg">
<g clip-path="url(#clip0_246_424)">
<path d="M45.7972 41.8214C47.6439 39.0312 48.7801 35.578 49.1737 31.562C49.4561 28.6795 49.343 25.8116 49.1785 23.1416C49.1294 22.3065 48.8147 21.509 48.2802 20.8655C47.7456 20.2221 47.0194 19.7663 46.2075 19.5649C39.5483 17.8926 36.2209 15.8257 34.8291 14.7427C34.1381 14.2042 33.287 13.9118 32.411 13.9118C31.5349 13.9118 30.6838 14.2042 29.9928 14.7427C28.5999 15.8268 25.2714 17.8938 18.6151 19.5649C17.8034 19.7663 17.0773 20.2219 16.5427 20.8651C16.0082 21.5083 15.6932 22.3056 15.6437 23.1404C15.4797 25.8105 15.3666 28.6784 15.649 31.5609C16.0426 35.5788 17.1787 39.0286 19.0255 41.8202C20.2606 43.6874 21.9883 45.4817 24.1594 47.1536C26.0091 48.5766 28.194 49.923 30.6535 51.1547C31.1994 51.4265 31.8009 51.5679 32.4108 51.5679C33.0206 51.5679 33.6221 51.4265 34.168 51.1547C36.6275 49.923 38.8124 48.5766 40.6621 47.1536C42.834 45.4828 44.5621 43.6885 45.7972 41.8214ZM39.0736 45.0907C37.3555 46.4129 35.3124 47.67 33.0014 48.8273C32.8177 48.9187 32.6154 48.9663 32.4102 48.9663C32.2051 48.9663 32.0027 48.9187 31.8191 48.8273C29.508 47.67 27.4664 46.4129 25.7472 45.0907C23.803 43.5948 22.2718 42.0115 21.1955 40.3846C19.5854 37.9508 18.5913 34.8968 18.2386 31.3072C17.9741 28.6062 18.0839 25.8629 18.2412 23.3004C18.2579 23.018 18.3643 22.7484 18.545 22.5307C18.7257 22.3131 18.9712 22.1589 19.2457 22.0906C22.3023 21.3227 27.9705 19.6144 31.5891 16.7974C31.8231 16.6152 32.1111 16.5163 32.4076 16.5163C32.7041 16.5163 32.9921 16.6152 33.2261 16.7974C36.8448 19.6144 42.5129 21.3227 45.5699 22.0906C45.8443 22.159 46.0898 22.3132 46.2705 22.5308C46.4512 22.7484 46.5576 23.0181 46.5744 23.3004C46.7321 25.8629 46.8415 28.6062 46.577 31.3068C46.225 34.8957 45.2306 37.9497 43.6201 40.3842C42.549 42.0115 41.0178 43.5948 39.0736 45.0907Z" fill="white"/>
<path d="M32.4102 26.3961C31.6045 26.3962 30.8216 26.664 30.1845 27.1572C29.5473 27.6504 29.0919 28.3411 28.8898 29.1211C28.6876 29.9011 28.7502 30.7261 29.0676 31.4667C29.385 32.2073 29.9393 32.8215 30.6435 33.2131L30.0613 38.0122C30.044 38.1545 30.057 38.2988 30.0996 38.4356C30.1421 38.5724 30.2132 38.6987 30.3081 38.8061C30.403 38.9134 30.5196 38.9994 30.6502 39.0585C30.7808 39.1175 30.9224 39.1481 31.0657 39.1484H33.7514C33.8947 39.1481 34.0363 39.1175 34.1669 39.0585C34.2975 38.9994 34.4141 38.9134 34.509 38.8061C34.6039 38.6987 34.675 38.5724 34.7176 38.4356C34.7601 38.2988 34.7732 38.1545 34.7559 38.0122L34.1736 33.2131C34.8779 32.8215 35.4322 32.2072 35.7496 31.4666C36.067 30.726 36.1295 29.9009 35.9273 29.1209C35.7251 28.3409 35.2697 27.6502 34.6325 27.157C33.9952 26.6638 33.2123 26.3962 32.4065 26.3961H32.4102Z" fill="white"/>
<path d="M31.4815 5.189V13.262C32.0951 13.136 32.728 13.136 33.3416 13.262V5.21095C33.9349 4.99965 34.4349 4.58644 34.7542 4.04364C35.0735 3.50083 35.1917 2.86302 35.0881 2.24184C34.9846 1.62067 34.6659 1.05569 34.1878 0.645821C33.7096 0.235947 33.1026 0.00728179 32.4729 -0.00014874C31.8432 -0.00757928 31.2309 0.206698 30.7433 0.605176C30.2556 1.00365 29.9237 1.56095 29.8055 2.17951C29.6873 2.79807 29.7904 3.43849 30.0968 3.98868C30.4032 4.53887 30.8934 4.96377 31.4815 5.189Z" fill="white"/>
<path d="M62.1448 28.4496C61.6018 28.4496 61.0715 28.6144 60.6241 28.9222C60.1767 29.2299 59.8331 29.6661 59.6388 30.1732H50.0287C50.0019 30.6469 49.9658 31.1218 49.9204 31.598L49.9167 31.6352C49.9037 31.7688 49.8895 31.9016 49.875 32.034H59.615C59.78 32.4972 60.069 32.9062 60.4506 33.2163C60.8322 33.5263 61.2917 33.7256 61.7788 33.7923C62.266 33.859 62.7621 33.7906 63.213 33.5945C63.6639 33.3985 64.0523 33.0823 64.3357 32.6805C64.6191 32.2787 64.7867 31.8068 64.8201 31.3162C64.8536 30.8256 64.7516 30.3353 64.5253 29.8988C64.299 29.4623 63.9571 29.0963 63.537 28.8409C63.1169 28.5854 62.6346 28.4503 62.1429 28.4503L62.1448 28.4496Z" fill="white"/>
<path d="M59.9381 18.4306V21.3696C59.9381 21.5176 59.8793 21.6596 59.7747 21.7642C59.67 21.8689 59.5281 21.9277 59.3801 21.9277H49.6992C49.8229 22.3066 49.8979 22.6998 49.9224 23.0977C49.9366 23.3261 49.9502 23.5561 49.9634 23.7878H59.3812C60.0223 23.787 60.6369 23.532 61.0902 23.0786C61.5435 22.6253 61.7986 22.0107 61.7994 21.3696V18.431C62.3901 18.2127 62.8852 17.7936 63.1981 17.2471C63.511 16.7006 63.6217 16.0614 63.5108 15.4415C63.3999 14.8216 63.0746 14.2604 62.5917 13.8562C62.1087 13.452 61.4991 13.2305 60.8693 13.2305C60.2395 13.2305 59.6298 13.452 59.1469 13.8562C58.664 14.2604 58.3387 14.8216 58.2278 15.4415C58.1169 16.0614 58.2276 16.7006 58.5405 17.2471C58.8534 17.7936 59.3485 18.2127 59.9392 18.431L59.9381 18.4306Z" fill="white"/>
<path d="M42.6883 17.7706V9.5377C42.6883 9.3897 42.747 9.24777 42.8517 9.14311C42.9563 9.03846 43.0983 8.97967 43.2463 8.97967H51.3751C51.5933 9.57028 52.0124 10.0653 52.5588 10.3781C53.1053 10.6909 53.7443 10.8016 54.3642 10.6907C54.984 10.5799 55.5451 10.2545 55.9492 9.7717C56.3534 9.28886 56.5748 8.67926 56.5748 8.0496C56.5748 7.41994 56.3534 6.81035 55.9492 6.3275C55.5451 5.84466 54.984 5.51933 54.3642 5.40847C53.7443 5.2976 53.1053 5.40826 52.5588 5.72107C52.0124 6.03388 51.5933 6.52892 51.3751 7.11954H43.2463C42.6052 7.12032 41.9906 7.37535 41.5373 7.82867C41.0839 8.282 40.8289 8.89661 40.8281 9.5377V17.1002C41.4001 17.3232 42.0201 17.5467 42.6883 17.7706Z" fill="white"/>
<path d="M33.3412 58.7886V52.2194C32.7275 52.3444 32.0949 52.3444 31.4811 52.2194V58.8106C30.8931 59.0358 30.4031 59.4607 30.0967 60.0108C29.7904 60.5609 29.6873 61.2012 29.8055 61.8197C29.9237 62.4381 30.2556 62.9953 30.7432 63.3937C31.2308 63.7921 31.8429 64.0064 32.4725 63.999C33.1021 63.9915 33.7091 63.7629 34.1871 63.3531C34.6651 62.9433 34.9838 62.3784 35.0874 61.7573C35.1909 61.1363 35.0728 60.4986 34.7535 59.9558C34.4343 59.4131 33.9344 58.9999 33.3412 58.7886Z" fill="white"/>
<path d="M61.7981 43.835V40.896C61.7973 40.2549 61.5423 39.6403 61.0889 39.187C60.6356 38.7337 60.021 38.4787 59.3799 38.4779H48.3441C48.0944 39.1207 47.8182 39.7408 47.5156 40.338H59.3799C59.5279 40.338 59.6698 40.3968 59.7745 40.5015C59.8792 40.6061 59.9379 40.748 59.9379 40.896V43.835C59.3472 44.0533 58.8521 44.4724 58.5392 45.0189C58.2263 45.5655 58.1156 46.2046 58.2265 46.8245C58.3374 47.4445 58.6627 48.0056 59.1456 48.4099C59.6286 48.8141 60.2382 49.0356 60.868 49.0356C61.4978 49.0356 62.1075 48.8141 62.5904 48.4099C63.0733 48.0056 63.3987 47.4445 63.5095 46.8245C63.6204 46.2046 63.5097 45.5655 63.1968 45.0189C62.8839 44.4724 62.3888 44.0533 61.7981 43.835Z" fill="white"/>
<path d="M53.8911 51.5327C53.3426 51.5328 52.8073 51.7009 52.3572 52.0143C51.9071 52.3278 51.5638 52.7716 51.3736 53.2861H43.2463C43.0983 53.2861 42.9563 53.2273 42.8517 53.1226C42.747 53.018 42.6883 52.876 42.6883 52.728V46.4493C42.1922 46.8886 41.6693 47.3201 41.1194 47.744C41.0229 47.8184 40.9258 47.8928 40.8281 47.9672V52.7291C40.8289 53.3702 41.0839 53.9848 41.5373 54.4382C41.9906 54.8915 42.6052 55.1465 43.2463 55.1473H51.3751C51.545 55.6072 51.8377 56.0118 52.2214 56.3171C52.6051 56.6224 53.0652 56.8167 53.5515 56.879C54.0379 56.9412 54.532 56.869 54.9802 56.6702C55.4284 56.4713 55.8136 56.1535 56.0939 55.7512C56.3742 55.3489 56.5389 54.8774 56.5701 54.3881C56.6013 53.8988 56.4979 53.4102 56.271 52.9755C56.0441 52.5409 55.7025 52.1767 55.2831 51.9225C54.8638 51.6683 54.3829 51.5339 53.8926 51.5338L53.8911 51.5327Z" fill="white"/>
<path d="M5.21067 32.0332H14.9507C14.9362 31.9007 14.922 31.7679 14.909 31.6344C14.8614 31.1463 14.8242 30.6592 14.7974 30.1731H5.18761C4.96226 29.5852 4.53735 29.0953 3.98726 28.7892C3.43716 28.483 2.79691 28.3801 2.17858 28.4984C1.56024 28.6167 1.0032 28.9487 0.604958 29.4363C0.206715 29.9239 -0.00736079 30.536 0.000193291 31.1655C0.00774737 31.795 0.236451 32.4018 0.64628 32.8797C1.05611 33.3576 1.62095 33.6761 2.24195 33.7795C2.86295 33.883 3.50054 33.7647 4.04313 33.4454C4.58573 33.1262 4.99875 32.6263 5.20993 32.0332H5.21067Z" fill="white"/>
<path d="M3.02252 18.4309V21.3677C3.02331 22.0088 3.27833 22.6234 3.73166 23.0767C4.18498 23.5301 4.7996 23.7851 5.44069 23.7859H14.8578C14.8707 23.5545 14.8843 23.3244 14.8987 23.0958C14.9233 22.6979 14.9983 22.3047 15.1219 21.9257H5.44069C5.29269 21.9257 5.15075 21.8669 5.0461 21.7623C4.94145 21.6576 4.88265 21.5157 4.88265 21.3677V18.4287C5.47327 18.2104 5.96831 17.7914 6.28112 17.2449C6.59393 16.6985 6.70459 16.0594 6.59372 15.4396C6.48286 14.8198 6.15753 14.2587 5.67469 13.8545C5.19185 13.4504 4.58225 13.2289 3.95259 13.2289C3.32293 13.2289 2.71333 13.4504 2.23049 13.8545C1.74764 14.2587 1.42232 14.8198 1.31145 15.4396C1.20059 16.0594 1.31124 16.6985 1.62406 17.2449C1.93687 17.7914 2.43191 18.2104 3.02252 18.4287V18.4309Z" fill="white"/>
<path d="M10.933 10.7329C11.4816 10.7329 12.017 10.5649 12.4671 10.2514C12.9173 9.93794 13.2606 9.49407 13.4509 8.97958H21.5793C21.7273 8.97958 21.8692 9.03837 21.9739 9.14302C22.0785 9.24768 22.1373 9.38961 22.1373 9.53761V17.7706C22.807 17.5473 23.427 17.3241 23.9974 17.1009V9.53761C23.9967 8.89652 23.7416 8.28191 23.2883 7.82858C22.835 7.37526 22.2204 7.12023 21.5793 7.11945H13.4505C13.2806 6.65951 12.9878 6.25492 12.6041 5.94964C12.2204 5.64436 11.7604 5.45004 11.2741 5.3878C10.7877 5.32556 10.2936 5.39776 9.84534 5.59659C9.39713 5.79541 9.01196 6.11324 8.73166 6.51556C8.45137 6.91788 8.28667 7.38931 8.25545 7.87865C8.22422 8.36798 8.32767 8.85653 8.55457 9.29121C8.78146 9.72589 9.12311 10.0901 9.54242 10.3443C9.96174 10.5984 10.4427 10.7329 10.933 10.7329Z" fill="white"/>
<path d="M4.88302 43.835V40.896C4.88302 40.748 4.94182 40.6061 5.04647 40.5015C5.15112 40.3968 5.29306 40.338 5.44106 40.338H17.3053C17.0025 39.7408 16.7263 39.1207 16.4768 38.4779H5.44106C4.79997 38.4787 4.18535 38.7337 3.73203 39.187C3.2787 39.6403 3.02368 40.2549 3.02289 40.896V43.835C2.43217 44.0533 1.93704 44.4724 1.62416 45.0189C1.31128 45.5655 1.20058 46.2046 1.31145 46.8245C1.42231 47.4445 1.74768 48.0056 2.23059 48.4099C2.71351 48.8141 3.3232 49.0356 3.95296 49.0356C4.58271 49.0356 5.19241 48.8141 5.67532 48.4099C6.15824 48.0056 6.4836 47.4445 6.59447 46.8245C6.70534 46.2046 6.59465 45.5655 6.28176 45.0189C5.96888 44.4724 5.47374 44.0533 4.88302 43.835Z" fill="white"/>
<path d="M23.7054 47.744C23.1548 47.3201 22.6319 46.8886 22.1366 46.4493V52.728C22.1366 52.876 22.0778 53.018 21.9731 53.1226C21.8685 53.2273 21.7265 53.2861 21.5785 53.2861H13.4505C13.2322 52.6953 12.8132 52.2002 12.2666 51.8873C11.7201 51.5744 11.0809 51.4637 10.461 51.5746C9.8411 51.6855 9.27992 52.0108 8.8757 52.4938C8.47149 52.9767 8.25 53.5864 8.25 54.2161C8.25 54.8459 8.47149 55.4556 8.8757 55.9385C9.27992 56.4214 9.8411 56.7468 10.461 56.8576C11.0809 56.9685 11.7201 56.8578 12.2666 56.5449C12.8132 56.232 13.2322 55.7369 13.4505 55.1462H21.5793C22.2204 55.1454 22.835 54.8904 23.2883 54.4371C23.7416 53.9837 23.9967 53.3691 23.9975 52.728V47.9661C23.8992 47.8919 23.8019 47.8179 23.7054 47.744Z" fill="white"/>
</g>
<defs>
<clipPath id="clip0_246_424">
<rect width="64.8274" height="64" fill="white"/>
</clipPath>
</defs>
</svg>
