  <svg width="1066" height="333" viewBox="0 0 1066 333" fill="none"
                        xmlns="http://www.w3.org/2000/svg">
                        <path class="animate__yoga" id="yoga_1" opacity="0.4" fill-rule="evenodd"
                            clip-rule="evenodd"
                            d="M574.313 203.028C572.509 202.58 572.11 202.809 570.266 202.67C569.309 202.601 566.718 202.859 565.761 202.82C565.153 202.789 564.535 202.74 563.928 202.691C563.301 202.642 562.672 202.591 562.044 202.512C561.875 202.491 561.665 202.372 561.576 202.234C561.527 202.164 561.665 201.886 561.785 201.807C562.302 201.468 562.821 201.091 563.399 200.862C564.795 200.295 569.05 198.386 569.169 198.376C570.525 198.217 571.033 197.252 571.103 196.1C571.182 194.698 571.093 193.296 571.033 191.893C570.932 189.696 570.833 187.499 570.654 185.3C570.445 182.795 570.136 180.289 569.896 177.783C569.795 176.699 569.826 175.596 569.716 174.512C569.627 173.616 569.416 172.732 569.248 171.837C569.208 171.608 569.088 171.399 569.068 171.17C568.768 168.336 567.892 165.423 568.3 162.529C568.549 160.759 568.389 158.931 568.3 157.13C568.211 155.281 568.42 153.462 568.679 151.642C568.888 150.22 569.037 148.788 569.227 147.356C569.246 147.177 569.307 147.009 569.346 146.829C569.475 146.213 568.399 145.815 567.802 145.994C567.413 146.104 567.214 145.994 567.034 145.677C566.676 145.04 566.107 144.673 565.45 144.384C564.832 144.116 564.254 143.757 563.666 143.41C563.406 143.251 563.188 143.221 562.938 143.4C562.908 143.421 562.878 143.44 562.858 143.449C561.882 144.076 561.792 144.126 560.925 143.042C560.705 142.764 560.436 142.514 560.158 142.295C558.832 141.281 557.477 140.297 556.151 139.263C554.676 138.109 553.23 136.927 551.776 135.744C551.577 135.575 551.357 135.396 551.228 135.177C550.331 133.715 548.936 132.751 547.75 131.578C547.032 130.872 546.285 130.226 545.637 129.43C544.86 128.456 544.63 127.432 544.63 126.268C544.63 126.089 544.68 125.911 544.71 125.731C544.759 125.443 544.661 125.293 544.361 125.254C540.862 124.787 537.625 123.414 534.306 122.311C533.07 121.893 531.764 121.674 530.509 121.306C529.821 121.096 529.124 120.839 528.506 120.471C525.168 118.452 521.948 116.264 518.839 113.899C518.58 113.7 518.331 113.471 517.942 113.621C517.842 113.66 517.643 113.601 517.584 113.521C517.305 113.113 516.856 113.122 516.448 112.994C515.831 112.795 515.213 112.606 514.635 112.317C513.717 111.851 512.731 111.919 511.765 111.86C511.435 111.84 511.097 111.83 510.789 111.721C510.62 111.66 510.519 111.413 510.4 111.243C510.569 111.154 510.729 111.005 510.908 110.984C511.636 110.895 512.373 110.835 513.11 110.765C513.12 110.725 513.131 110.676 513.141 110.635C513.04 110.575 512.951 110.486 512.841 110.456C512.233 110.286 511.636 110.078 511.018 109.989C510.201 109.87 509.522 109.482 508.836 109.074C508.836 108.946 508.836 108.806 508.836 108.677C509.124 108.578 509.404 108.428 509.702 108.379C510.51 108.239 511.327 108.141 512.254 108.011C512.064 107.871 511.985 107.792 511.884 107.752C511.526 107.582 511.157 107.434 510.798 107.265C510.499 107.125 510.3 106.887 510.419 106.549C510.539 106.19 510.857 106.3 511.097 106.379C511.954 106.687 512.841 106.936 513.639 107.354C515.044 108.1 516.389 108.965 517.775 109.74C518.023 109.879 518.363 109.91 518.662 109.899C519.06 109.889 519.369 109.978 519.579 110.356C519.668 110.515 519.839 110.664 519.998 110.743C522.898 112.105 525.878 113.259 528.897 114.342C529.814 114.671 530.751 115.028 531.558 115.565C533.133 116.619 534.877 117.176 536.681 117.652C538.744 118.198 540.797 118.457 542.93 118.149C544.754 117.881 546.608 117.831 548.442 118.049C549.179 118.138 549.329 118.049 549.589 117.363C549.888 116.568 549.558 115.822 549.399 115.076C549.12 113.814 548.292 113.296 547.007 113.495C546.389 113.595 545.762 113.723 545.134 113.763C544.078 113.842 543.669 113.525 543.341 112.52C543.271 112.301 543.212 112.023 543.053 111.904C542.414 111.417 542.505 110.71 542.484 110.064C542.475 109.726 542.475 109.528 542.135 109.369C541.497 109.08 541.428 108.683 541.847 108.096C542.166 107.658 542.525 107.231 542.774 106.743C542.914 106.484 542.914 106.127 542.903 105.818C542.882 105.162 542.723 104.505 542.783 103.859C542.863 103.024 543.053 102.189 543.272 101.382C543.471 100.647 543.621 99.9506 544.398 99.4331C544.976 99.0553 545.564 98.787 546.172 98.4886C547.687 97.7535 549.311 97.5344 550.966 97.5249C552.52 97.5249 553.896 98.1313 554.912 99.2552C556.127 100.597 556.986 102.208 557.503 103.968C557.852 105.172 558.061 106.424 558.39 107.637C558.599 108.423 558.929 109.178 559.228 110.034C559.935 109.528 560.513 109.09 561.112 108.682C562.626 107.677 564.012 106.504 565.158 105.092C567.609 102.079 570.041 99.0663 572.443 96.0136C573.39 94.8103 574.406 93.7261 575.771 93.0006C576.19 92.772 579.658 90.1573 581.124 89.3113C582.409 88.5653 583.665 87.7398 584.831 86.8254C586.465 85.5523 588.01 84.1601 588.827 82.1519C589.295 80.9883 589.733 79.8055 590.591 78.8309C590.98 78.3928 591.27 77.8658 591.607 77.3784C591.657 77.299 591.747 77.1991 591.727 77.1197C591.657 76.7515 591.907 76.5831 592.146 76.4038C592.415 76.1943 592.684 75.9657 592.943 75.748C593.142 75.748 593.342 75.748 593.541 75.748C594.03 76.1752 594.278 76.683 594.288 77.3387C594.288 77.6372 594.477 77.9657 594.667 78.2244C595.245 78.9801 595.882 79.7056 596.471 80.4517C596.63 80.6502 596.82 80.9185 596.81 81.158C596.761 82.1519 597.339 83.2361 597.239 84.7282C597.468 86.6474 597.129 87.184 597.368 88.4174C597.936 91.3113 602.859 106.067 604.413 110.65C604.413 111.147 604.174 113.066 603.985 113.504C602.968 115.911 603.257 116.547 601.573 118.516C599.331 121.161 596.71 123.448 594.538 126.163C593.442 127.545 589.136 131.651 588.22 132.417C587.363 133.133 586.535 133.879 586.008 134.873C585.32 135.827 585.559 135.708 584.044 136.743C584.861 137.777 584.95 138.921 584.95 140.094C584.95 140.64 585.199 141.586 585.239 142.133C585.259 142.342 585.218 142.599 585.11 142.779C584.95 143.028 584.672 143.187 584.501 143.425C584.193 143.863 583.755 143.903 583.584 144.399C583.325 145.146 583.226 145.941 583.027 146.706C582.807 147.522 582.519 148.317 582.329 149.132C582.1 150.126 581.941 151.14 581.751 152.145C581.731 152.245 581.731 152.343 581.711 152.443C581.332 154.302 581.074 156.202 580.546 158.022C579.42 161.89 577.615 165.548 576.758 169.516C576.599 170.272 576.489 170.998 576.669 171.763C577.058 173.453 577.446 175.154 577.765 176.854C578.203 179.21 578.423 181.586 578.104 183.974C577.954 185.088 577.575 186.171 577.426 187.274C577.137 189.452 576.967 191.649 576.688 193.837C576.48 195.507 576.499 197.167 576.818 198.818C576.977 199.634 577.216 200.419 577.365 201.234C577.494 201.941 577.236 202.368 576.579 202.666C576.3 202.795 576.001 202.895 575.712 203.004C575.24 203.028 574.781 203.028 574.313 203.028ZM590.428 87.0115C590.079 87.2798 589.78 87.4893 589.522 87.7275C587.787 89.3688 586.053 91.0088 584.319 92.6597C582.465 94.4201 580.592 96.1395 578.39 97.492C577.254 98.1888 576.297 99.1826 575.609 100.365C574.811 101.758 574.064 103.18 573.306 104.601C571.313 108.309 569.26 111.989 566.411 115.14C566.081 115.508 565.802 115.935 565.554 116.363C565.116 117.118 564.866 117.914 564.906 118.818C564.925 119.355 564.707 119.912 564.587 120.449C564.508 120.787 564.398 121.115 564.339 121.454C564.199 122.269 564.797 122.836 565.057 123.522C565.197 123.909 566.044 124.924 566.402 124.746C567.589 124.17 568.853 124.09 570.15 124.238C570.707 124.308 571.256 124.357 571.814 124.378C573.19 124.417 574.564 125.332 575.94 125.332C576.16 125.332 576.458 125.282 576.579 125.143C576.958 124.665 577.485 124.497 578.023 124.317C578.311 124.217 582.517 121.365 583.266 120.896C585.14 119.723 586.952 118.48 588.777 117.228C591.268 115.518 593.95 113.072 596.143 110.994C596.751 110.417 596.292 109.592 595.913 108.846C595.614 108.239 595.265 107.652 594.956 107.046C593.91 105.007 593.332 102.89 593.412 100.553C593.521 97.4906 593.451 94.4284 593.451 91.3647C593.451 90.3709 593.471 90.4694 592.564 90.49C591.338 90.5201 590.551 89.8343 590.432 88.6104C590.388 88.1149 590.428 87.618 590.428 87.0115Z"
                            fill="#FBA200" />
                        <path class="animate__yoga" id="yoga_2" opacity="0.2" fill-rule="evenodd"
                            clip-rule="evenodd"
                            d="M450.139 115.488C448.711 112.988 446.863 110.786 445.106 108.522C443.494 106.442 441.605 104.608 439.92 102.59C438.297 100.643 436.439 98.872 435.206 96.6174C435.186 96.5763 435.144 96.5352 435.114 96.4942C434.314 95.7358 433.718 94.8145 433.071 93.9329C432.003 92.4572 430.925 90.9829 429.99 89.4045C429.332 88.308 428.623 87.2225 427.699 86.3313C426.468 85.1431 425.399 83.8111 424.198 82.5928C423.726 82.1219 423.746 81.9891 424.177 81.4963C424.753 80.8501 424.732 80.2766 424.116 79.6729C423.982 79.5401 423.838 79.4265 423.694 79.2937C423.499 79.1294 423.407 78.9145 423.428 78.6585C423.489 77.8385 423.345 77.0295 423.366 76.2095C423.375 75.4511 423.079 74.8365 422.483 74.2944C421.199 73.1267 419.915 71.9384 419.064 70.3806C418.438 69.2225 417.862 68.0452 417.246 66.8775C416.845 66.1096 416.455 65.3211 415.941 64.6133C414.082 62.0521 412.018 59.6756 409.565 57.6373C409.092 57.2581 408.62 56.9611 408.024 56.8584C407.747 56.8584 407.48 56.8584 407.203 56.8584C406.288 57.0528 405.458 57.4525 404.882 58.1904C404.061 59.2348 403.239 60.2807 402.53 61.4169C401.473 63.1075 400.549 64.8789 399.726 66.7037C399.52 67.1541 399.316 67.5743 398.699 67.5237C398.587 67.5127 398.473 67.6058 398.371 67.6674C397.775 68.0466 397.016 68.0973 396.491 68.6202C396.429 68.6914 396.296 68.6818 396.204 68.7119C395.065 68.9788 394.243 70.0124 395.054 71.3238C395.218 71.5798 395.402 71.8563 395.372 72.1739C395.31 72.7475 395.444 73.2909 395.537 73.844C395.599 74.2328 395.722 74.6229 395.629 75.0117C395.28 76.4559 394.992 77.9111 394.221 79.2115C393.719 80.0616 393.153 80.8707 392.66 81.7317C392.291 82.3765 391.91 83.0431 391.367 83.5647C390.864 84.0356 390.412 84.5476 390.062 85.1321C389.046 86.8939 387.69 88.4203 386.632 90.1629C386.447 90.4696 386.314 90.7871 386.201 91.1362C385.862 92.2218 385.791 93.3388 385.637 94.4558C385.637 95.2758 385.637 96.0944 385.637 96.9144C385.699 96.9856 385.708 97.0677 385.708 97.1499C385.738 98.2149 386.231 99.0855 386.848 99.9261C387.731 101.125 388.43 102.437 389.024 103.808C389.671 105.273 390.246 106.779 391.088 108.152C392.083 109.781 392.906 111.522 394.066 113.049C395.032 114.309 396.089 115.498 397.045 116.767C398.051 118.108 399.067 119.44 400.475 120.404C400.619 120.506 400.711 120.65 400.762 120.813C400.968 121.51 401.47 121.816 402.137 121.951C403.463 122.218 404.756 122.606 405.927 123.303C406.205 123.467 406.317 123.662 406.276 123.968C406.184 124.594 406.173 125.229 406.102 125.853C405.896 127.636 406.143 129.367 406.595 131.068C407.17 133.25 407.858 135.391 408.33 137.604C408.422 138.025 408.566 138.424 408.72 138.823C409.5 140.902 410.24 142.992 410.486 145.225C410.61 146.29 410.692 147.407 411.236 148.35C411.811 149.344 412.18 150.389 412.488 151.474C412.591 151.833 412.715 152.192 412.889 152.53C413.331 153.359 413.464 154.23 413.423 155.152C413.352 156.802 413.556 158.431 413.978 160.019C414.625 162.478 415.005 164.998 415.631 167.456C416.298 170.089 416.493 172.803 416.812 175.499C416.936 176.564 417.099 177.64 416.791 178.695C416.576 179.443 416.432 180.272 415.744 180.754C414.306 181.768 412.838 182.762 411 182.916C410.476 182.957 409.931 183.11 409.521 183.448C408.741 184.115 407.806 184.554 406.994 185.169C406.439 185.589 406.07 186.06 406.152 186.798C406.235 187.495 406.645 187.842 407.313 187.956C407.795 187.956 408.267 187.956 408.75 187.956C409.459 187.771 410.178 187.71 410.897 187.73C411.554 187.751 412.211 187.863 412.837 187.618C414.655 186.891 416.544 186.553 418.495 186.573C419.933 186.584 421.361 186.727 422.799 186.676C424.278 186.625 425.202 185.826 425.438 184.391C425.582 183.51 425.335 182.701 425.037 181.903C424.051 179.188 423.476 176.391 423.476 173.492C423.476 171.771 423.476 170.04 423.476 168.319C423.476 167.233 423.404 166.127 423.835 165.092C423.866 165.01 423.866 164.928 423.877 164.836C423.897 163.73 423.948 162.613 423.866 161.507C423.66 158.761 422.942 156.139 421.946 153.578C421.504 152.452 420.951 151.366 420.754 150.157C420.61 149.276 420.651 148.385 420.589 147.504C420.383 144.738 420.466 141.973 420.887 139.237C421.401 135.877 421.894 132.527 421.637 129.116C421.586 128.378 421.708 127.651 421.729 126.924C421.759 125.654 421.903 125.521 423.167 125.786C426.021 126.39 428.897 126.749 431.824 126.657C433.447 126.606 435.069 126.657 436.692 126.565C437.781 126.504 438.879 126.442 439.957 126.289C441.918 126.001 443.88 125.745 445.862 125.613C447.155 125.53 448.46 125.274 449.425 124.363C450.4 123.44 451.468 122.539 451.663 121.075C451.663 120.49 451.663 119.916 451.663 119.333C451.546 117.915 450.827 116.697 450.139 115.488ZM405.653 101.832C405.519 101.832 405.426 101.76 405.416 101.617C405.407 101.473 405.508 101.411 405.632 101.381C405.786 101.37 405.848 101.452 405.848 101.587C405.849 101.719 405.808 101.832 405.653 101.832ZM410.562 102.713C410.438 103.102 410.376 103.513 410.172 103.871C410.038 104.097 409.956 104.333 409.945 104.598C409.945 104.71 409.966 104.865 409.812 104.895C409.679 104.916 409.606 104.804 409.534 104.701C409.39 104.475 409.349 104.23 409.36 104.077C409.35 103.277 409.782 102.857 410.295 102.479C410.367 102.427 410.449 102.387 410.531 102.448C410.634 102.508 410.593 102.621 410.562 102.713ZM412.544 85.3087C412.329 87.7577 412.123 90.2053 411.898 92.6543C411.867 93.002 411.744 93.3511 411.631 93.6892C411.303 94.7242 410.686 95.6249 410.327 96.6708C409.937 97.8179 408.94 98.4531 407.759 98.7502C406.979 98.9445 406.301 99.2525 405.993 100.071C405.942 100.215 405.828 100.357 405.654 100.348C405.448 100.337 405.438 100.142 405.427 100C405.253 98.7392 404.616 97.6126 404.473 96.3422C404.432 95.974 404.166 95.5948 403.971 95.2662C403.684 94.7639 403.714 94.3039 403.868 93.8426C404.587 91.681 404.761 89.4264 405.069 87.2047C405.243 85.9247 405.048 84.6749 404.063 83.7016C403.857 83.4963 404.001 83.3224 404.083 83.1485C404.175 82.9542 404.329 82.8816 404.546 82.9336C405.039 83.0568 405.481 83.2717 405.85 83.6195C406.004 83.7632 406.158 83.9576 406.374 83.9069C406.855 83.8043 406.928 84.1123 407.041 84.4504C407.38 85.4538 408.047 85.9261 408.992 85.7714C409.71 85.6592 410.132 85.1253 410.481 84.5421C410.583 84.3683 410.645 84.1629 410.726 83.9781C410.962 83.4552 411.21 83.3429 411.6 83.7317C412.01 84.1602 412.616 84.5394 412.544 85.3087ZM435.783 113.562C435.68 113.736 435.506 113.613 435.372 113.562C433.637 113.018 431.891 112.568 430.104 112.241C429.673 112.159 429.23 112.108 428.79 112.046C426.694 111.8 424.733 111.207 422.926 110.07C422.248 109.64 421.581 109.158 420.81 108.891C420.615 108.82 420.441 108.656 420.276 108.502C419.187 107.55 417.915 106.965 416.548 106.556C416.25 106.464 415.943 106.453 415.634 106.474C415.367 106.494 415.203 106.361 415.398 106.105C415.819 105.562 415.86 104.908 415.983 104.272C416.281 102.838 416.845 101.465 417.01 100C417.184 98.4531 417.276 96.9158 417.113 95.3593C417 94.3148 416.979 93.2485 417.461 92.245C417.564 92.0411 417.523 91.8042 417.512 91.5893C417.503 91.3128 417.482 91.0568 417.718 90.8309C417.883 90.6776 417.821 90.4422 417.78 90.2464C417.514 88.9966 417.379 87.7166 417.163 86.4559C416.978 85.4004 416.178 84.6941 415.459 83.9562C415.326 83.8234 415.172 83.7098 415.017 83.6085C414.678 83.3936 414.566 83.1171 414.74 82.7379C414.946 82.2765 414.884 81.9083 414.391 81.6824C414.042 81.5182 414.031 81.2827 414.217 80.9761C414.371 80.7297 414.515 80.4737 414.74 80.2793C415.407 79.6961 416.075 79.1116 416.742 78.5271C416.957 78.3327 417.152 78.3532 417.265 78.6297C417.419 79.0185 417.707 79.2348 418.035 79.4703C418.508 79.7988 418.734 80.3518 418.939 80.8734C419.165 81.4264 419.483 81.8768 419.996 82.2054C420.551 82.564 420.879 83.1787 421.434 83.5784C421.691 83.7632 421.68 84.2752 421.844 84.6023C422.491 85.8412 422.666 87.2252 423.108 88.5366C423.518 89.7454 423.477 90.9446 423.19 92.1629C423.005 92.9418 422.851 93.7399 422.872 94.5394C422.922 96.527 423.559 97.1827 425.336 97.1827C425.962 97.1827 426.6 97.1827 427.226 97.1827C427.585 97.1827 427.822 97.3771 428.047 97.6331C428.746 98.4627 429.177 99.4565 429.69 100.4C431.611 103.903 433.13 107.602 434.65 111.289C434.927 111.956 435.246 112.591 435.636 113.195C435.712 113.315 435.865 113.439 435.783 113.562Z"
                            fill="#0680C3" />
                        <path class="animate__yoga" id="yoga_3" fill-rule="evenodd" clip-rule="evenodd"
                            d="M556.78 239.827C557.068 239.42 557.476 239.335 557.935 239.404C559.632 239.624 561.229 238.914 562.875 238.574C564.743 238.186 566.372 237.085 566.543 234.869C566.865 230.908 566.644 227 566.068 223.09C565.627 220.112 565.388 217.1 565.083 214.105C565.032 213.563 564.795 213.004 564.795 212.464C564.795 212.057 564.846 211.618 564.744 211.229C564.218 209.147 564.541 206.981 564.184 204.882C564.149 204.646 564.184 204.392 564.167 204.154C564.048 202.496 564.421 201.412 566 200.787C568.887 199.653 571.755 198.706 574.913 198.536C578.224 198.366 581.5 197.86 584.827 198.062C586.169 198.147 587.509 198.164 588.85 198.18C589.427 198.18 590.022 198.146 590.598 198.079C591.532 197.978 591.684 197.842 591.77 196.895C592.007 194.373 592.143 191.852 592.482 189.348C592.839 186.792 592.771 184.22 592.736 181.664C592.72 180.496 592.889 179.414 593.432 178.381C594.214 176.909 594.79 174.522 594.383 172.899C593.772 170.513 592.55 166.468 593.958 164.523C595.095 162.948 596.946 162.999 599.476 161.73C600.172 161.137 600.834 161.054 601.716 160.19C602.175 159.75 602.447 159.243 602.344 158.633C602.192 157.635 602.106 156.586 601.749 155.655C600.442 152.253 599.746 148.75 599.492 145.129C599.356 143.233 598.983 141.355 598.779 139.46C598.66 138.293 598.66 137.125 598.593 135.957C598.576 135.72 598.576 135.449 598.473 135.229C597.879 134.061 598.167 132.369 598.286 131.151C598.473 129.323 598.422 127.97 598.66 126.158C599.017 123.552 599.543 120.946 600.001 118.357C600.239 116.987 600.358 115.564 600.748 114.245C601.189 112.739 601.24 111.25 601.189 109.71C601.138 108.068 601.392 106.443 601.784 104.836C601.936 104.227 601.8 103.567 601.835 102.924C601.869 101.857 601.92 100.791 601.987 99.7246C602.003 99.5548 602.054 99.3865 602.139 99.2331C602.377 98.8101 602.767 98.5898 603.225 98.6911C603.701 98.7924 603.718 99.2153 603.718 99.5877C603.718 99.7739 603.65 99.96 603.633 100.146C603.599 101.094 603.565 102.059 603.565 103.006C603.565 103.192 603.802 103.378 603.938 103.548C604.074 103.378 604.312 103.21 604.346 103.024C604.719 101.297 605.399 99.6904 606.179 98.0997C606.638 97.1688 606.672 97.2195 607.689 97.3714C608.063 97.4385 608.504 97.1182 608.912 96.9648C609.064 96.9648 609.218 96.9648 609.37 96.9648C609.557 97.2359 609.794 97.4891 609.947 97.7944C610.099 98.0997 610.286 98.2338 610.643 98.2338C611.407 98.2338 611.678 98.4871 611.662 99.2496C611.662 99.6055 611.595 99.96 611.475 100.298C611.034 101.686 610.422 102.989 609.642 104.241C609.149 105.036 608.912 106.001 608.641 106.932C608.574 107.152 608.76 107.541 608.964 107.711C609.116 107.846 609.507 107.83 609.727 107.727C610.271 107.507 610.763 107.135 611.306 106.966C611.917 106.78 612.579 106.695 613.224 106.644C613.632 106.61 613.955 106.847 614.022 107.288C614.09 107.727 613.734 107.83 613.428 107.998C612.596 108.472 611.764 108.963 610.966 109.504C609.88 110.249 608.861 111.095 607.74 111.805C606.585 112.534 605.889 113.481 605.788 114.868C605.617 117.423 605.057 119.961 605.278 122.534C605.431 124.361 605.126 126.781 605.295 128.609C605.516 131.046 605.482 131.689 605.041 134.109C604.651 136.275 605.516 139.559 605.873 141.69C606.025 142.57 606.399 144.499 606.535 145.363C606.823 147.14 607.434 147.614 608.453 149.069C608.861 149.661 609.472 149.56 609.659 148.832C609.93 147.834 610.134 146.818 610.235 145.802C610.337 144.754 610.541 144.483 611.593 144.618C612.068 144.685 612.46 144.584 612.866 144.297C613.087 144.145 613.494 144.111 613.749 144.212C614.139 144.364 614.36 144.313 614.53 143.941C614.784 143.382 615.227 143.265 615.752 143.433C616.278 143.603 616.619 143.416 616.889 142.976C617.433 142.146 617.602 142.18 618.383 142.79C619.079 143.332 619.826 143.805 620.59 144.279C620.777 144.398 621.065 144.364 621.303 144.414C621.914 144.534 622.542 144.566 623.103 144.787C623.917 145.092 624.664 145.531 625.445 145.938C626.277 146.361 627.142 146.666 628.11 146.513C628.364 146.479 628.636 146.529 628.892 146.598C629.265 146.699 629.452 146.954 629.316 147.326C629.095 147.868 629.231 148.358 629.452 148.85C630.487 151.118 630.912 153.486 630.674 155.957C630.607 156.601 630.386 157.244 630.266 157.886C629.791 160.442 629.349 163.014 628.874 165.568C628.754 166.212 628.908 166.821 629.01 167.447C629.162 168.377 629.095 169.342 629.026 170.29C628.992 170.611 628.619 170.899 628.45 171.237C628.178 171.727 627.822 172.219 627.737 172.743C627.534 174.164 627.075 175.485 626.531 176.788C626.124 177.753 625.852 178.7 626.243 179.749C626.395 180.172 626.158 180.494 625.801 180.747C625.308 181.103 624.816 181.457 624.409 181.898C623.594 182.728 622.762 183.505 621.642 183.912C621.489 183.963 621.319 184.064 621.217 184.183C620.963 184.487 620.623 184.555 620.267 184.673C619.843 184.809 619.469 185.164 619.163 185.485C618.077 186.618 616.888 187.583 615.309 187.956C615.021 188.023 614.714 188.041 614.41 188.075C613.527 188.176 612.865 187.822 612.44 187.059C612.169 186.568 611.795 186.112 611.558 185.604C611.456 185.367 611.472 185.011 611.558 184.774C611.761 184.266 611.693 183.86 611.269 183.522C611.048 183.336 610.845 183.149 610.658 182.929C610.37 182.625 610.013 182.32 610.573 181.931C610.64 181.88 610.64 181.644 610.573 181.593C610.437 181.474 610.216 181.34 610.098 181.39C609.741 181.56 609.317 181.712 609.13 182.016C608.095 183.641 607.008 185.266 606.753 187.229C606.43 189.7 606.278 190.715 607.5 192.881C607.975 193.727 609.418 194.642 610.267 195.132C611.71 195.961 612.796 196.739 614.087 197.754C614.698 198.228 615.971 200.225 616.293 200.97C616.734 201.968 616.497 202.866 616.803 203.915C619.009 211.141 619.299 210.379 622.287 212.224C624.12 213.408 625.665 214.847 626.99 216.589C628.841 219.026 631.981 220.617 634.732 221.886C635.785 222.376 637.04 222.394 638.212 222.596C640.335 222.934 642.491 223.205 644.613 223.561C647.787 224.103 650.605 225.524 653.219 227.318C656.292 229.416 659.347 231.548 662.42 233.646C663.202 234.188 663.965 234.797 665.018 234.78C665.154 234.78 665.29 234.814 665.408 234.881C666.953 235.828 668.753 236.049 670.383 236.725C671.029 236.996 671.605 237.419 672.216 237.774C672.216 238.077 672.216 238.383 672.216 238.688C672.08 238.975 671.944 239.263 671.808 239.55C671.368 240.532 670.654 240.921 669.551 240.854C667.854 240.735 666.139 240.803 664.44 240.684C662.997 240.583 661.554 240.311 660.111 240.109C659.721 240.058 659.449 239.856 659.618 239.415C659.805 238.941 659.584 238.62 659.244 238.332C658.191 237.418 659.092 236.978 657.751 236.606C656.63 236.284 653.116 235.539 651.996 235.082C649.942 234.22 648.058 234.084 645.986 233.238C641.215 231.292 636.309 230.006 631.148 229.735C629.705 229.668 628.432 229.177 627.293 228.28C626.648 227.772 625.901 227.383 625.172 226.993C624.441 226.604 623.627 226.35 622.915 225.927C619.537 223.913 616.157 221.916 612.83 219.817C611.32 218.852 609.944 217.702 608.519 216.602C607.348 215.705 606.227 214.758 605.072 213.843C604.563 213.42 603.918 211.745 603.256 211.761C599.113 211 598.621 211.203 595.362 211.169C592.035 211.118 588.639 210.61 586.788 209.984C585.26 209.392 582.204 208.918 580.625 208.479C578.928 207.989 575.431 208.191 573.596 208.361C572.578 208.462 572.646 209.596 572.917 210.595C573.12 211.356 573.392 212.101 573.596 212.88C574.65 216.739 574.989 220.647 574.071 224.573C573.528 226.925 573.053 229.294 572.917 231.715C572.764 234.287 572.764 236.843 573.596 239.33C574.037 240.65 573.138 241.868 572.17 242.325C567.807 242.325 564.038 242.325 559.674 242.325C558.487 242.123 557.501 241.936 556.721 241.006C556.475 240.503 556.78 239.979 556.78 239.827Z"
                            fill="#E1EBCD" />
                        <path class="animate__yoga" id="yoga_4" fill-rule="evenodd" clip-rule="evenodd"
                            d="M495.316 37.9081C495.497 39.2483 495.68 40.5707 495.843 41.9108C496.297 45.7151 496.823 49.5001 498.277 53.0867C498.622 53.956 498.968 54.7527 499.966 55.2962C502.527 56.7089 505.361 57.2168 508.121 58.0313C514.841 60.0052 521.289 62.6678 527.466 65.9642C529.21 66.8882 529.282 67.3769 528.865 69.2605C528.375 71.3974 528.156 73.6069 527.648 75.7451C526.304 81.3782 524.724 86.9388 522.363 92.2639C520.637 96.1407 518.966 100.053 517.277 103.946C517.15 104.217 517.041 104.508 516.86 104.743C515.37 106.572 514.88 108.728 514.425 110.973C514.008 113.056 513.209 115.048 512.591 117.095C512.39 117.783 512.191 118.49 512.083 119.196C511.247 124.068 510.085 128.867 509.831 133.849C509.632 137.852 510.23 141.674 512.029 145.26C513.265 147.724 514.064 150.277 514.499 152.976C514.572 153.429 514.391 153.935 514.427 154.406C514.535 156.362 514.699 158.318 514.808 160.257C515.172 166.524 515.407 172.718 513.301 178.84C510.376 187.407 508.124 196.175 506.235 205.032C505.4 208.944 504.945 212.892 505.018 216.895C505.109 221.478 504.473 225.987 503.365 230.425C502.294 234.681 501.04 238.884 499.877 243.122C499.749 243.593 499.586 244.046 499.55 244.535C499.478 245.368 499.206 246.038 498.352 246.363C498.188 246.418 498.06 246.654 498.007 246.834C497.371 249.099 496.844 251.381 497.062 253.79C497.135 254.514 496.935 255.348 496.645 256.017C496.19 257.067 496.155 257.991 496.391 259.133C496.755 260.799 497.426 262.049 498.861 263.01C499.57 263.48 500.133 264.222 500.623 264.929C500.967 265.454 501.131 266.142 501.276 266.777C501.385 267.23 501.149 267.519 500.605 267.465C500.17 267.411 499.733 267.393 499.678 268.027C499.66 268.154 499.46 268.299 499.296 268.372C498.588 268.662 497.861 268.915 497.171 269.223C496.917 269.35 496.716 269.604 496.499 269.803C496.263 269.803 496.009 269.803 495.773 269.803C495.355 269.152 494.919 268.499 494.411 267.739C494.157 268.591 494.011 269.515 493.049 269.803C492.921 269.803 492.812 269.803 492.685 269.803C491.049 269.749 490.269 268.916 490.197 267.286C490.142 265.909 489.96 264.551 489.815 263.193C489.724 262.196 489.543 261.219 489.506 260.222C489.47 258.918 489.542 257.595 489.614 256.292C489.669 255.333 489.778 254.373 489.959 253.431C490.123 252.58 490.268 251.675 490.723 250.967C491.758 249.355 492.339 247.58 492.575 245.732C492.648 245.207 492.211 244.573 491.884 244.066C491.557 243.56 491.54 243.27 491.849 242.654C492.284 241.784 492.394 240.697 492.484 239.701C492.648 237.908 492.703 236.097 492.775 234.285C492.866 232.039 492.903 229.793 492.976 227.53C492.994 227.204 492.958 226.823 493.121 226.551C493.775 225.446 492.976 224.848 492.431 224.069C492.086 223.563 491.704 222.802 491.832 222.258C492.377 219.704 490.761 218.075 489.543 216.227C489.179 215.683 488.817 215.122 488.543 214.524C487.744 212.767 486.745 211.155 485.146 210.013C483.294 208.708 481.405 207.478 479.497 206.246C479.243 206.083 478.826 206.173 478.498 206.118C478.189 206.064 477.844 206.046 477.59 205.901C474.974 204.343 472.25 203.203 469.217 202.569C466.51 202.008 463.895 200.993 461.261 200.142C457.72 199.019 454.232 197.75 450.599 196.881C448.819 196.447 447.129 195.468 445.531 194.526C442.915 192.986 442.133 190.65 442.842 187.21C443.114 185.869 443.805 184.765 444.712 183.75C448.399 179.602 452.723 176.143 457.063 172.702C462.258 168.626 467.635 164.859 473.611 161.979C475.046 161.29 476.172 159.932 477.443 158.881C478.061 158.375 478.715 157.902 479.295 157.36C479.477 157.197 479.659 156.709 479.587 156.617C478.951 155.965 479.223 155.349 479.587 154.715C479.823 154.299 480.114 153.9 480.313 153.466C480.494 153.067 480.713 152.614 480.677 152.216C480.459 149.934 480.805 147.742 481.821 145.696C483.346 142.598 482.929 139.356 482.675 136.095C482.33 131.82 481.24 127.727 479.95 123.67C479.405 121.949 478.952 120.228 478.207 118.562C477.317 116.57 476.971 114.324 476.408 112.205C475.918 110.321 475.3 108.51 474.083 106.952C473.629 106.372 473.32 105.648 472.975 104.996C471.231 101.682 469.56 98.3488 467.763 95.0702C465.493 90.9401 464.039 86.4843 462.659 82.0285C461.641 78.7499 460.915 75.3988 460.025 72.0846C459.753 71.1072 460.098 70.4186 460.879 69.9108C463.604 68.1175 466.274 66.2338 469.089 64.5857C473.738 61.8506 478.679 59.7137 483.657 57.6849C485.273 57.0333 486.78 56.1271 488.325 55.3304C488.524 55.2222 488.689 55.0046 488.797 54.7869C489.215 53.9532 489.724 53.1387 489.996 52.2517C490.831 49.5891 491.831 46.9813 492.23 44.1559C492.521 42.1641 493.301 40.2435 493.883 38.2325C494.155 38.3599 494.356 38.4502 494.592 38.5761C494.773 38.3585 494.956 38.123 495.155 37.9067C495.079 37.9081 495.206 37.9081 495.316 37.9081ZM502.091 83.6068C501.655 84.7293 501.473 85.8354 500.874 86.6321C500.275 87.4289 499.984 88.2269 499.894 89.1674C499.821 89.9107 499.73 90.6705 499.602 91.4138C499.258 93.5151 499.929 95.2906 501.309 96.8293C501.6 97.1551 502.018 97.3358 502.4 97.5712C503.344 98.1325 504.289 98.6937 505.234 99.2563C505.832 99.6191 506.36 99.5644 506.814 98.9853C508.975 96.305 511.137 93.6232 513.353 90.9976C514.642 89.4398 515.624 87.756 516.241 85.8176C517.203 82.7389 518.238 79.6767 519.292 76.6349C520.4 73.3741 520.309 72.9949 517.621 70.7663C512.462 66.5104 506.631 63.4303 500.474 60.895C498.422 60.0436 496.278 59.355 494.589 57.7616C493.899 57.11 493.463 57.2907 492.863 58.1052C492.7 58.3406 492.428 58.5213 492.192 58.6664C489.358 60.2968 486.525 61.908 483.71 63.5384C478.842 66.3283 474.61 69.8957 470.633 73.8273C469.07 75.3673 468.78 76.9429 469.67 78.9525C470.941 81.8149 472.104 84.7485 473.121 87.7013C473.792 89.6397 474.81 91.2153 476.317 92.628C478.642 94.8197 481.185 96.8306 482.929 99.5657C483.456 100.382 484.163 100.435 484.944 99.8737C485.417 99.5288 485.98 99.2933 486.488 99.0223C487.106 98.6965 488.031 98.5336 488.322 98.0079C489.376 96.0887 490.102 93.9504 489.594 91.7588C489.104 89.6397 489.122 87.4111 488.031 85.4371C487.976 85.3289 487.941 85.2016 487.941 85.0935C487.886 84.4049 487.523 84.2064 486.833 84.2776C485.797 84.3857 485.144 83.8437 485.016 82.8293C484.925 82.086 484.835 81.3262 484.815 80.5829C484.798 80.2023 484.924 79.8218 485.034 79.4412C485.234 78.7704 485.469 78.101 485.652 77.4303C485.996 76.1079 486.323 74.7677 486.651 73.4453C486.687 73.2824 486.669 73.1195 486.669 72.9566C486.687 72.613 486.651 72.2502 486.742 71.9244C486.815 71.6164 487.069 71.344 487.159 71.0374C487.758 69.0634 488.976 67.6685 491.01 67.1428C493.261 66.5624 495.533 66.7444 497.749 67.3413C499.601 67.8478 501 68.8991 501.491 70.8909C501.618 71.4344 501.927 71.9231 502.071 72.4665C502.38 73.6616 502.634 74.8936 502.925 76.0887C503.197 77.2304 503.543 78.3529 503.689 79.4946C503.797 80.2913 503.616 81.1072 503.58 81.9217C503.453 82.9908 503.016 83.4617 502.091 83.6068ZM463.384 187.882C464.364 188.298 465.327 188.588 466.163 189.077C468.887 190.725 471.521 192.5 474.264 194.094C475.971 195.09 477.806 195.85 479.604 196.684C480.349 197.027 481.148 197.318 481.911 197.644C482.039 197.698 482.183 197.843 482.202 197.952C482.238 198.695 482.82 198.856 483.346 199.056C484.763 199.582 486.161 200.161 487.615 200.577C488.596 200.848 489.631 200.903 490.648 200.94C492.065 200.995 493.5 200.958 494.971 200.958C495.17 199.019 495.316 197.027 495.607 195.071C496.406 189.583 496.551 184.077 496.225 178.553C496.079 175.998 495.044 173.771 493.209 171.96C492.556 171.326 491.792 170.765 490.776 171.289C487.997 172.739 485.109 174.024 482.476 175.727C477.771 178.77 473.103 181.813 468.127 184.366C466.417 185.255 464.819 186.342 463.384 187.882Z"
                            fill="#A6DEDA" />
                        <path class="animate__yoga" id="yoga_5" fill-rule="evenodd" clip-rule="evenodd"
                            d="M451.801 221.986C451.745 221.788 451.602 221.618 451.361 221.618C450.807 221.631 450.395 221.334 449.997 221.009C449.67 220.754 449.344 220.499 448.904 220.499C447.825 220.499 446.831 220.16 445.85 219.735C444.686 219.226 443.549 218.617 442.357 218.193C440.852 217.655 439.943 216.608 439.375 215.192C438.849 213.861 438.651 212.475 438.551 211.074C438.309 207.72 438.679 204.394 439.119 201.083C439.46 198.493 439.901 195.918 439.93 193.299C439.943 191.403 440.142 189.506 440.512 187.638C440.653 186.931 440.781 186.238 440.668 185.515C440.484 184.397 440.341 183.265 440.27 182.133C440.199 181 439.659 180.208 438.58 179.727C437.23 179.133 435.853 178.651 434.39 178.454C432.445 178.2 430.485 178.115 428.553 177.775C424.563 177.068 420.544 176.813 416.496 176.94C415.36 176.983 414.21 176.94 413.073 176.927C412.589 176.927 412.121 176.828 411.667 176.686C411.17 176.516 410.899 176.204 410.899 175.625C410.913 172.427 410.346 169.313 409.337 166.285C407.49 160.751 404.48 155.882 400.915 151.311C399.254 149.174 397.322 147.278 395.561 145.226C394.908 144.463 394.07 143.953 393.161 143.528C392.167 143.075 391.13 142.706 390.208 142.127C385.606 139.226 381.587 135.703 378.52 131.188C376.205 127.777 373.563 124.693 370.368 122.074C367.656 119.838 365.041 117.461 362.685 114.842C361.677 113.723 360.569 112.734 359.362 111.827C354.987 108.558 350.358 105.643 346.026 102.331C345.444 101.878 344.762 101.595 344.024 101.51C343.187 101.425 342.392 101.17 341.61 100.887C340.175 100.364 338.798 99.6701 337.392 99.076C337.094 98.9487 336.796 98.835 336.469 98.8077C335.433 98.7515 334.41 98.553 333.402 98.2697C332.01 97.8741 330.632 97.4483 329.241 97.039C329.057 96.9829 328.816 96.883 328.673 97.0951C328.531 97.2936 328.744 97.4771 328.843 97.6331C329.51 98.6242 330.476 99.2033 331.528 99.6715C333.885 100.705 336.015 102.092 337.989 103.719C338.388 104.045 338.784 104.356 339.21 104.639C339.821 105.05 340.517 105.29 341.241 105.121C341.908 104.98 342.477 105.135 343.059 105.432C343.67 105.743 344.237 106.111 344.777 106.535C348.569 109.451 351.863 112.89 355.059 116.413C356.01 117.474 357.018 118.437 358.283 119.117C359.418 119.74 360.271 120.646 360.839 121.806C361.124 122.371 361.408 122.924 361.677 123.489C362.103 124.38 362.642 125.202 363.282 125.966C364.319 127.196 365.427 128.386 366.563 129.532C367.259 130.239 367.77 131.032 368.11 131.952C368.593 133.24 369.104 134.513 369.601 135.801C369.673 136 369.857 136.212 369.644 136.409C369.417 136.608 369.147 136.565 368.934 136.409C368.11 135.829 367.23 135.701 366.265 135.9C365.781 135.999 365.427 135.829 365.114 135.433C364.617 134.768 364.149 134.697 363.424 135.094C362.743 135.476 362.089 135.929 361.563 136.509C360.896 137.231 360.171 137.415 359.277 137.005C358.921 136.835 358.509 136.721 358.141 136.92C357.076 137.485 355.884 137.784 354.861 138.463C354.577 138.646 354.308 138.688 353.994 138.576C353.639 138.463 353.37 138.563 353.142 138.86C353.014 139.043 352.886 139.242 352.716 139.369C351.494 140.246 351.012 141.534 350.43 142.865C349.962 143.926 349.606 144.946 349.422 146.092C349.167 147.704 349.194 149.262 349.778 150.79C350.544 152.786 351.609 154.61 352.717 156.423C353.3 157.385 354.209 157.894 355.344 157.937C355.94 157.951 356.537 157.923 357.133 157.923C357.559 157.923 357.986 157.966 358.383 158.135C358.625 158.234 358.71 158.376 358.625 158.645C358.269 159.749 358.667 160.569 359.605 161.178C360.23 161.589 360.628 162.17 360.769 162.905C360.855 163.3 360.911 163.711 360.969 164.108C361.153 165.467 361.409 165.722 362.773 165.948C363.568 166.075 364.08 166.669 364.037 167.477C364.024 167.816 363.923 168.142 363.867 168.482C363.796 168.977 363.711 169.458 364.194 169.826C364.364 169.953 364.322 170.165 364.322 170.35C364.407 172.204 363.923 173.903 362.929 175.473C361.906 177.1 360.941 178.755 360.146 180.497C359.593 181.714 358.754 182.718 357.647 183.469C356.014 184.572 354.636 185.96 353.372 187.459C352.251 188.79 351.143 190.105 350.034 191.436C348.599 193.148 347.137 194.803 345.377 196.205C343.971 197.324 342.793 198.668 341.798 200.153C341.16 201.115 340.392 201.937 339.427 202.573C338.688 203.055 338.191 203.719 337.992 204.597C337.751 205.658 337.253 206.606 336.629 207.484C335.919 208.488 335.294 209.536 334.654 210.569C333.347 212.677 331.714 214.475 329.499 215.678C328.931 215.989 328.449 216.428 327.995 216.881C327.569 217.319 327.142 217.759 326.702 218.183C325.964 218.905 325.097 219.5 324.217 220.009C323.635 220.349 323.095 220.603 322.84 221.255C322.84 221.523 322.84 221.793 322.84 222.076C322.869 222.119 322.882 222.161 322.896 222.217C323.322 223.463 323.962 224.51 325.31 224.977C326.034 225.232 326.687 225.627 327.397 225.939C329.173 226.746 331.018 227.213 333.006 227.228C334.014 227.228 335.037 227.156 336.031 227.369C336.202 227.369 336.372 227.369 336.542 227.369C336.968 227.058 336.954 226.703 336.627 226.321C336.244 225.868 335.889 225.388 335.647 224.835C335.32 224.085 334.823 223.533 334.084 223.165C333.374 222.811 333.119 222.202 333.247 221.423C333.318 220.957 333.502 220.546 333.744 220.15C334.283 219.259 335.022 218.523 335.817 217.857C337.805 216.216 340.049 215.013 342.42 214.037C345.147 212.905 347.846 211.716 350.19 209.904C351.894 208.588 353.669 207.456 355.756 206.791C357.56 206.211 359.278 205.306 361.195 205.092C362.7 204.922 364.121 204.512 365.527 203.946C366.195 203.678 366.877 203.466 367.587 203.337C369.107 203.069 370.556 202.616 371.975 202.022C374.801 200.861 377.387 199.248 380 197.692C382.031 196.488 384.033 195.215 386.363 194.621C387.314 194.38 388.237 193.998 389.146 193.616C390.978 192.824 392.639 191.705 394.486 190.955C394.685 190.87 394.898 190.729 395.012 190.56C395.31 190.122 395.737 190.05 396.219 190.05C397.569 190.064 398.888 190.334 400.225 190.532C402.284 190.858 404.286 191.481 406.416 191.452C409.327 191.41 412.239 191.58 415.15 191.481C417.38 191.396 419.61 191.198 421.711 190.363C424.409 189.287 427.221 188.764 430.132 188.764C431.595 188.764 431.595 188.75 431.113 190.123C429.821 193.774 429.65 197.44 430.842 201.162C431.254 202.464 431.496 203.794 431.453 205.167C431.44 205.436 431.453 205.719 431.51 205.974C432.376 209.271 431.794 212.639 431.964 215.965C431.964 216.05 431.935 216.135 431.922 216.22C431.751 217.749 431.268 219.192 430.941 220.692C430.628 222.108 431.225 222.816 432.674 222.801C438.78 222.716 444.902 222.984 451.009 222.49C451.166 222.476 451.322 222.447 451.45 222.391C451.646 222.298 451.873 222.227 451.801 221.986ZM371.419 140.766C371.491 140.441 371.618 140.116 371.69 139.79C371.761 139.409 371.916 139.465 372.158 139.649C372.684 140.06 373.024 140.598 373.237 141.221C373.408 141.701 373.549 142.183 373.678 142.679C373.806 143.132 373.721 143.231 373.252 143.217C371.916 143.158 371.106 142.068 371.419 140.766ZM368.764 152.06C368.905 151.975 369.034 152.018 369.119 152.131C369.744 152.868 370.199 153.688 370.297 154.664C370.297 154.947 370.226 155.202 369.999 155.4C369.772 155.599 369.502 155.74 369.204 155.626C368.934 155.528 368.977 155.229 368.977 155.003C368.977 154.438 368.92 153.914 368.451 153.474C368.153 153.179 368.379 152.272 368.764 152.06ZM386.374 172.397C386.374 172.439 386.318 172.482 386.275 172.495C385.409 172.906 384.94 173.726 384.3 174.378C383.931 174.76 383.662 175.213 383.662 175.778C383.662 175.905 383.648 176.033 383.548 176.104C382.823 176.669 382.809 177.66 382.241 178.326C382.099 178.495 382.198 178.721 382.241 178.92C382.369 179.599 382.156 180.081 381.56 180.405C381.063 180.688 380.637 181.042 380.253 181.452C375.595 186.363 370.367 190.623 364.929 194.657C363.153 195.972 361.122 196.653 358.978 197.077C355.91 197.671 352.842 198.323 349.846 199.256C349.719 199.299 349.591 199.355 349.406 199.299C350.102 198.535 350.854 197.883 351.692 197.318C352.785 196.597 353.879 195.889 355.001 195.21C358.949 192.818 362.045 189.577 364.658 185.827C365.525 184.582 366.362 183.322 367.115 182.02C367.824 180.803 368.62 179.643 369.544 178.568C370.325 177.662 370.893 176.614 371.362 175.525C371.93 174.208 372.555 172.935 373.278 171.704C373.549 171.251 373.762 170.771 373.946 170.275C374.13 169.822 374.414 169.596 374.897 169.567C376.176 169.482 377.439 169.384 378.717 169.299C379.073 169.27 379.427 169.228 379.754 169.073C380.265 168.832 380.791 168.932 381.302 169.044C381.913 169.185 382.509 169.257 383.12 169.073C383.433 168.975 383.688 169.102 383.93 169.272C384.541 169.696 385.179 169.781 385.862 169.47C386.132 169.356 386.401 169.329 386.629 169.541C386.857 169.753 386.672 169.952 386.587 170.135C386.544 170.249 386.473 170.361 386.558 170.475C387.084 171.166 386.401 171.747 386.374 172.397Z"
                            fill="#F5FAEB" />
                        <path class="animate__yoga" id="yoga_6" fill-rule="evenodd" clip-rule="evenodd"
                            d="M449.952 284.955C448.917 288.978 445.952 290.617 442.131 291.186C439.595 291.542 437.023 291.578 434.595 290.581C432.702 289.834 432.452 288.73 433.81 287.198C434.631 286.273 435.525 285.382 436.417 284.456C437.167 283.673 437.31 282.782 436.846 281.786C435.418 278.652 433.988 275.519 432.632 272.35C431.489 269.679 429.596 267.828 426.917 266.759C421.844 264.693 416.774 262.593 411.38 261.346C408.844 260.777 406.486 259.423 404.023 258.498C398.058 256.289 392.022 251.839 385.736 250.663C384.557 250.45 383.307 250.236 382.128 250.307C380.306 250.414 378.771 249.916 377.27 248.884C376.663 248.456 376.164 247.816 374.948 247.709C368.769 246.784 365.127 245.074 358.341 243.401C353.411 241.834 348.34 240.873 342.875 239.698C341.661 241.693 340.839 246.428 340.375 248.814C339.625 252.588 340.767 256.006 342.268 259.39C342.482 259.853 343.018 260.315 343.518 260.493C347.303 261.953 348.947 264.339 348.804 268.328C348.804 268.541 348.804 268.79 348.804 269.146C349.697 268.826 350.519 268.577 351.269 268.185C351.483 268.079 351.519 267.509 351.519 267.118C351.519 264.838 352.054 264.376 354.269 264.945C354.912 265.123 355.555 265.265 356.199 265.479C357.377 265.835 358.378 265.871 359.627 265.265C360.984 264.589 362.735 264.554 364.305 264.411C366.056 264.269 367.841 264.198 369.592 264.376C375.2 264.981 378.057 268.648 379.628 273.634C380.592 276.66 381.379 281.112 380.235 284.032C379.057 287.023 376.128 288.162 373.877 290.441C372.127 292.222 369.842 292.756 367.413 292.863C364.662 292.934 361.912 293.183 359.162 293.041C357.304 292.934 355.483 292.293 353.625 291.973C352.59 291.795 351.482 291.724 350.411 291.795C349.447 291.866 348.482 292.151 347.518 292.365C345.838 292.721 344.232 293.148 342.804 294.288C341.017 295.712 338.733 296.033 336.518 296.354C327.695 297.528 318.98 297.172 310.374 294.788C307.98 294.111 305.66 293.078 303.338 292.152C301.516 291.441 299.731 291.227 297.801 291.69C293.409 292.722 288.979 292.117 284.551 291.903C280.872 291.725 277.194 291.512 273.514 291.263C272.621 291.227 272.121 291.476 271.727 292.366C271.049 293.898 270.585 293.898 269.619 292.58C269.227 292.046 268.156 292.081 267.619 292.686C267.226 293.113 266.905 293.647 266.405 293.968C266.119 294.146 265.512 294.181 265.263 293.968C265.013 293.79 264.941 293.22 265.013 292.864C265.084 292.508 265.37 292.188 265.62 291.868C266.191 291.049 266.119 290.23 265.227 289.802C264.977 289.695 264.477 290.051 264.156 290.229C263.87 290.371 263.62 290.585 263.335 290.799C263.121 290.443 262.835 290.122 262.764 289.731C262.692 289.375 262.871 288.983 262.906 288.592C262.978 287.738 263.013 286.882 263.049 285.992C262.157 285.992 261.55 286.099 260.941 285.957C260.584 285.886 260.156 285.53 260.013 285.209C259.942 284.996 260.299 284.497 260.549 284.319C261.048 283.964 261.727 283.786 262.192 283.394C262.728 282.931 263.37 282.398 263.549 281.757C264.013 280.189 265.048 279.513 266.549 279.406C272.014 279.086 277.478 278.196 282.979 278.979C283.942 279.122 284.943 278.979 285.907 278.944C290.873 278.837 295.872 278.552 300.837 278.73C304.444 278.873 307.945 279.015 311.445 278.018C312.623 277.662 313.909 277.769 315.337 277.627C315.302 276.559 315.266 275.49 315.195 274.422C314.73 267.408 314.659 260.428 315.195 253.413C315.373 250.778 315.373 248.072 315.159 245.437C314.802 240.665 314.766 235.894 315.373 231.157C315.659 229.021 315.623 226.849 315.944 224.748C316.98 218.446 320.373 213.709 325.98 210.647C329.231 208.866 332.766 207.763 336.481 207.335C340.837 206.837 344.589 208.439 348.125 210.682C351.732 212.997 355.268 215.419 358.875 217.661C360.518 218.693 362.303 219.549 364.126 220.261C368.948 222.113 373.055 225.14 377.376 227.846C378.519 228.558 379.662 229.235 380.698 230.09C383.234 232.12 387.876 234.326 393.127 236.392C394.341 236.855 395.735 236.855 397.056 237.104C400.698 237.887 404.413 238.458 407.949 239.526C413.092 241.092 417.378 244.191 420.985 248.107C425.663 253.2 431.128 257.116 437.593 259.502C439.558 260.214 441.664 260.748 443.736 260.962C446.915 261.282 449.094 262.565 449.808 265.805C449.808 266.445 449.808 267.051 449.808 267.693C447.986 272.393 448.701 277.093 449.808 281.794C449.952 282.747 449.952 283.851 449.952 284.955Z"
                            fill="#FBA200" />
                        <path class="animate__yoga" id="yoga_7" fill-rule="evenodd" clip-rule="evenodd"
                            d="M813.774 290.112C813.376 289.809 813.016 289.468 812.581 289.26C811.293 288.617 809.947 288.164 808.829 287.123C806.366 284.817 803.372 284.684 800.209 283.606C798.124 282.907 796.382 281.83 794.961 280.146C794.336 279.427 793.559 278.803 792.745 278.311C791.418 277.517 790.035 277.593 788.69 278.406C787.8 278.936 786.833 279.37 785.942 279.88C785.412 280.183 784.938 280.618 784.389 280.901C784.143 281.034 783.687 281.166 783.498 281.034C782.021 279.994 780.352 280.107 778.685 280.07C775.255 280.013 771.921 279.238 768.568 278.558C764.381 277.708 760.193 276.875 755.893 277.197C753.733 277.348 751.573 277.727 749.413 278.066C742.024 279.238 734.71 279.315 727.511 277.442C721.884 275.968 716.692 274.153 711.102 272.582C710.439 272.394 709.889 271.825 709.112 272.128C709.056 272.147 708.942 272.109 708.903 272.072C708.411 271.24 707.502 270.786 706.763 270.521C706.345 270.369 706.024 269.972 705.626 269.689C705.456 269.575 705.266 268.837 705.077 268.819C704.299 268.763 703.806 268.309 703.504 267.684C702.348 265.32 700.341 263.11 698.578 261.275C696.739 259.346 694.2 258.495 691.775 257.645C690.393 257.153 689.066 256.51 687.74 255.905C687.531 255.81 687.436 255.489 687.266 255.225C685.845 255.452 683.116 255.546 682.244 254.695C680.444 252.955 680.104 251.234 678.588 249.249C678.058 248.55 677.716 247.756 677.507 246.923C677.393 246.507 677.318 246.072 677.242 245.619C677.167 245.147 677.053 244.655 676.92 244.181C676.768 243.671 676.616 243.179 676.313 242.48C675.062 239.719 675.251 236.505 676.199 233.479C676.578 232.344 675.82 231.398 675.763 230.359C675.802 229.905 675.802 229.452 675.877 229.017C676.181 227.429 677.128 226.444 676.995 224.895C676.806 222.323 676.73 219.771 677.336 217.237C677.676 215.78 677.392 214.381 676.843 213.058C676.104 211.262 674.474 208.67 674.133 205.891C674.058 205.305 674.153 204.681 674.342 204.132C674.398 203.963 675.1 203.849 675.404 203.963C676.332 204.323 677.204 204.625 678.018 203.754C678.113 203.641 678.321 203.604 678.492 203.604C679.857 203.566 680.974 202.96 681.978 202.128C684.877 199.67 686.336 196.644 685.729 192.769C685.654 192.334 685.768 191.861 685.919 191.426C686.128 190.821 686.449 190.254 686.715 189.667C688.705 190.216 688.932 189.856 689.482 192.068C690.165 194.791 689.994 197.552 689.538 200.275C689.216 202.223 688.819 204.151 688.401 206.08C688.288 206.61 687.966 207.082 687.7 207.574C687.075 208.67 686.714 209.805 686.998 211.11C687.054 211.412 686.923 211.848 686.733 212.093C686.24 212.773 686.126 214.324 686.316 215.251C686.43 215.817 686.979 216.214 686.979 217.085C686.998 219.827 686.505 219.372 685.975 220.526C685.672 221.189 686.638 221.32 686.298 223.022C687.226 222.569 687.265 221.661 687.284 221.945C687.322 222.607 687.114 223.363 686.298 224.442C686.336 224.65 687.644 222.513 687.624 222.607C687.435 224.309 686.526 224.989 687.075 226.615C687.17 226.88 687.321 227.24 687.549 227.581C688.156 228.394 688.212 229.529 688.401 230.473C688.401 229.717 688.363 233.404 687.795 232.837C688.363 233.026 689.045 231.57 688.932 232.175C688.723 233.177 689.026 233.026 688.23 234.35C687.718 235.201 689.689 232.119 689.707 233.234C689.746 233.67 690.181 235.863 689.897 236.714C690.276 236.109 690.22 235.201 690.409 234.444C690.409 235.768 690.542 237.338 690.353 238.661C690.826 238.472 690.788 237.659 690.977 237.279C691.356 239.038 691.318 241.081 690.086 241.572C691.034 241.478 691.262 241.212 691.469 240.834C691.697 240.457 691.848 240.021 691.981 239.53C692.246 238.622 692.588 237.998 692.909 237.487C693.25 237.015 693.573 236.542 693.801 236.164C695.317 234.084 693.99 230.435 694.255 228.884C694.483 227.56 695.62 228.146 695.752 225.594C695.771 225.084 695.487 223.097 695.562 222.511C695.808 220.752 696.434 220.318 696.68 218.559C697.021 216.214 697.135 213.871 696.718 211.487C696.415 209.786 696.453 208.027 696.415 206.288C696.339 203.546 696.301 200.785 696.225 198.043C696.206 197.514 696.055 197.003 695.98 196.473C695.923 196.02 695.544 195.527 696.113 195.112C696.169 195.074 696.151 194.866 696.132 194.772C695.848 193.675 695.544 192.559 695.241 191.462C695.203 191.311 695.032 191.197 694.918 191.084C694.52 190.687 694.085 190.346 693.725 189.912C692.892 188.91 691.869 188.247 690.598 187.908C690.333 187.833 689.879 187.53 689.897 187.436C690.048 186.869 689.537 186.15 690.295 185.715C690.579 185.545 690.825 185.337 691.262 185.015H689.898C689.86 184.769 689.842 184.561 689.803 184.258C689.368 185.091 688.97 185.846 688.572 186.642C687.586 186.282 687.245 185.431 687.037 184.561C686.544 182.576 685.54 180.836 684.365 179.21C682.963 177.243 682.489 175.882 680.518 174.444C679.097 173.404 677.525 172.78 675.763 172.648C674.626 172.573 673.528 172.327 672.467 171.835C671.121 171.211 670.022 171.514 669.245 172.781C668.677 173.689 667.256 173.746 666.252 174.18C665.361 174.558 663.504 175.882 662.727 176.487C662.537 176.637 662.367 176.789 662.045 177.073C661.931 176.506 661.76 176.071 661.78 175.635C661.855 173.423 661.931 171.192 662.083 168.98C662.406 164.423 662.102 159.885 661.723 155.366C661.42 151.886 662.064 148.03 662.537 144.569C662.651 143.662 662.992 142.943 663.75 142.299C664.982 141.259 665.512 140.976 666.629 139.804C666.8 139.615 669.035 134.397 669.604 132.713C669.774 132.221 670.74 130.992 670.228 130.765C669.869 130.595 668.656 130.898 668.391 131.124C667.159 131.956 666.307 134.187 666.003 134.754C665.87 135.018 665.491 135.642 665.226 135.586C665.151 135.567 664.998 134.659 665.017 134.282C665.168 131.804 665.681 124.506 665.7 123.352C665.7 122.936 665.605 122.464 665.396 122.123C665.226 121.84 664.772 121.556 664.487 121.593C664.203 121.63 663.824 122.046 663.768 122.349C663.598 123.124 663.427 125.62 663.294 125.829C663.294 125.432 663.408 122.69 663.484 121.971C663.559 121.215 663.35 120.326 662.706 120.156C661.494 120.156 661.38 121.233 661.266 121.82C660.943 123.447 660.717 125.073 660.452 126.717C660.395 126.547 660.338 127.303 660.129 127.794C660.034 126.66 660.073 126.206 660.091 125.96C660.166 124.806 660.28 123.653 660.375 122.499C660.413 121.95 660.242 121.119 659.466 120.968C658.594 120.798 658.292 121.742 658.045 122.575C657.969 122.82 657.438 127.679 657.173 130.043C657.134 130.421 657.078 130.781 657.022 131.14C656.851 131.026 655.979 125.126 655.979 124.937C655.979 124.654 655.734 123.935 654.937 124.03C654.672 124.067 654.33 124.54 654.293 124.843C654.237 125.751 654.313 126.677 654.332 127.604C654.351 129.325 654.521 131.046 654.351 132.747C654.067 135.489 654.275 138.154 654.844 140.821C655.033 141.672 655.033 142.466 654.805 143.317C653.612 147.893 652.361 152.469 651.319 157.102C650.372 161.318 649.689 165.592 648.894 169.846C648.629 171.226 648.666 172.55 649.14 173.912C649.519 174.989 649.67 176.143 649.879 177.278C650.012 177.997 649.993 178.735 650.125 179.434C650.674 182.309 651.223 185.182 651.811 188.038C651.925 188.568 651.811 188.945 651.451 189.342C650.409 190.514 650.523 192.123 651.716 193.162C652.114 193.503 652.625 193.728 653.042 194.05C653.307 194.258 653.611 194.522 653.744 194.825C654.388 196.357 654.918 197.945 655.581 199.477C656.358 201.253 656.869 203.032 656.623 204.997C656.49 206.113 656.301 207.171 655.79 208.193C654.881 210.027 654.046 211.917 653.156 213.752C652.777 214.546 650.504 216.135 649.973 216.835C647.852 219.596 646.222 220.125 644.687 222.602C643.664 224.361 642.906 225.305 642.792 226.535C642.564 229.296 645.52 233.531 646.696 235.971C647.794 238.258 650.315 242.324 650.561 244.858C650.694 246.295 650.826 247.752 651.073 249.168C651.433 251.267 651.945 253.329 653.005 255.219C653.688 256.41 654.388 257.602 654.957 258.869C657.097 263.671 659.845 268.436 663.047 272.654C663.161 272.804 663.236 273.012 663.407 273.297C661.285 273.297 659.296 273.297 657.306 273.297C651.281 273.316 644.138 273.486 638.226 274.715C635.707 275.245 633.243 275.964 631.045 277.382C629.397 278.441 628.127 279.821 627.881 281.845C627.767 282.696 627.825 283.585 627.843 284.454C627.881 287.725 629.264 290.259 632.124 291.866C633.621 292.699 635.175 293.398 636.709 294.136C636.785 294.174 636.899 294.174 636.993 294.174C638.736 294.232 640.48 294.344 642.222 294.307C654.405 294.08 666.607 293.835 678.79 293.532C680.306 293.494 681.802 293.476 683.318 292.852C685.952 291.775 688.358 290.394 690.575 288.636C691.238 288.106 691.94 287.973 692.754 288.106C696.486 288.711 700.22 289.335 703.952 289.883C708.518 290.563 713.104 291.339 717.689 291.773C724.547 292.436 731.445 292.246 738.322 292.076C739.668 292.038 740.995 291.735 742.32 291.471C744.234 291.093 746.127 290.43 748.061 290.28C751.414 290.016 754.788 290.072 758.16 289.939C761.532 289.806 764.885 289.694 768.259 289.448C773.602 289.051 778.888 289.183 784.194 290.147C787.093 290.677 790.049 290.885 792.967 291.188C794.218 291.32 795.467 291.339 796.699 291.453C797.892 291.567 799.087 291.793 800.299 291.869C801.473 291.945 802.668 291.869 803.861 291.869C806.628 291.85 809.394 291.813 812.16 291.775C812.88 291.756 813.582 291.68 813.998 290.981C813.869 290.641 813.83 290.414 813.774 290.112Z"
                            fill="#85C1E2" />
                        <path class="animate__yoga"
                            d="M604.414 16.1861C597.976 27.8247 614.884 59.9273 565.905 76.1148C585.633 58.3229 576.773 32.1053 595.695 20.6009C572.951 29.1621 583.081 79.1921 541.487 81.0648C572.951 70.364 541.486 7.89184 604.414 16.1861ZM522.567 30.7665C525.248 43.0731 549.402 46.6844 554.098 61.9355C556.112 27.0198 527.128 35.0471 522.164 21.67C507.136 44.813 522.836 61.9355 548.597 61.9355C545.104 50.3188 526.457 47.221 522.567 30.7665ZM551.681 30.0985C552.486 20.0643 549.351 10.835 545.376 5.35112C553.024 12.976 556.613 21.4373 554.197 35.0814C567.516 15.4305 556.915 0.803557 538.531 0C545.31 6.75426 531.554 18.861 551.681 30.0985Z"
                            fill="#63997A" />
                        <path class="animate__yoga" id="leaf_1" opacity="0.05"
                            d="M1066 124.114C1045.25 161.586 1099.75 264.945 941.875 317.063C1005.46 259.779 976.906 175.368 1037.9 138.328C964.585 165.892 997.239 326.971 863.169 333C964.585 298.547 863.165 97.4089 1066 124.114ZM802.184 171.057C810.828 210.68 888.68 222.307 903.817 271.41C910.31 158.994 816.887 184.839 800.888 141.77C752.446 216.282 803.052 271.41 886.087 271.41C874.827 234.009 814.723 224.035 802.184 171.057ZM896.027 168.906C898.621 136.6 888.516 106.885 875.703 89.2287C900.356 113.778 911.925 141.021 904.135 184.95C947.067 121.681 912.899 74.5872 853.64 72C875.491 93.7463 831.152 132.726 896.027 168.906Z"
                            fill="#63997A" />
                        <path class="animate__yoga" id="leaf_2" opacity="0.05"
                            d="M0 124.114C20.7531 161.586 -33.7476 264.945 124.125 317.063C60.5377 259.779 89.0937 175.368 28.1046 138.328C101.415 165.892 68.761 326.971 202.831 333C101.415 298.547 202.835 97.4089 0 124.114ZM263.816 171.057C255.172 210.68 177.32 222.307 162.183 271.41C155.69 158.994 249.113 184.839 265.112 141.77C313.554 216.282 262.948 271.41 179.913 271.41C191.173 234.009 251.277 224.035 263.816 171.057ZM169.973 168.906C167.379 136.6 177.484 106.885 190.297 89.2287C165.644 113.778 154.075 141.021 161.865 184.95C118.933 121.681 153.101 74.5872 212.36 72C190.509 93.7463 234.848 132.726 169.973 168.906Z"
                            fill="#63997A" />
                    </svg>