<svg width="16" height="17" viewBox="0 0 16 17" fill="none" xmlns="http://www.w3.org/2000/svg">
<path d="M14.3125 0.375C15.2266 0.375 16 1.14844 16 2.0625V14.4375C16 15.3867 15.2266 16.125 14.3125 16.125H9.46094V10.7812H11.5L11.8867 8.25H9.46094V6.63281C9.46094 5.92969 9.8125 5.26172 10.9023 5.26172H11.9922V3.11719C11.9922 3.11719 11.0078 2.94141 10.0234 2.94141C8.05469 2.94141 6.75391 4.17188 6.75391 6.35156V8.25H4.53906V10.7812H6.75391V16.125H1.9375C0.988281 16.125 0.25 15.3867 0.25 14.4375V2.0625C0.25 1.14844 0.988281 0.375 1.9375 0.375H14.3125Z" fill="#1B7DA0"/>
</svg>
