<svg width="16" height="17" viewBox="0 0 16 17" fill="none" xmlns="http://www.w3.org/2000/svg">
<path d="M8.125 4.20703C10.3398 4.20703 12.168 6.03516 12.168 8.25C12.168 10.5 10.3398 12.293 8.125 12.293C5.875 12.293 4.08203 10.5 4.08203 8.25C4.08203 6.03516 5.875 4.20703 8.125 4.20703ZM8.125 10.8867C9.56641 10.8867 10.7266 9.72656 10.7266 8.25C10.7266 6.80859 9.56641 5.64844 8.125 5.64844C6.64844 5.64844 5.48828 6.80859 5.48828 8.25C5.48828 9.72656 6.68359 10.8867 8.125 10.8867ZM13.2578 4.06641C13.2578 4.59375 12.8359 5.01562 12.3086 5.01562C11.7812 5.01562 11.3594 4.59375 11.3594 4.06641C11.3594 3.53906 11.7812 3.11719 12.3086 3.11719C12.8359 3.11719 13.2578 3.53906 13.2578 4.06641ZM15.9297 5.01562C16 6.31641 16 10.2188 15.9297 11.5195C15.8594 12.7852 15.5781 13.875 14.6641 14.8242C13.75 15.7383 12.625 16.0195 11.3594 16.0898C10.0586 16.1602 6.15625 16.1602 4.85547 16.0898C3.58984 16.0195 2.5 15.7383 1.55078 14.8242C0.636719 13.875 0.355469 12.7852 0.285156 11.5195C0.214844 10.2188 0.214844 6.31641 0.285156 5.01562C0.355469 3.75 0.636719 2.625 1.55078 1.71094C2.5 0.796875 3.58984 0.515625 4.85547 0.445312C6.15625 0.375 10.0586 0.375 11.3594 0.445312C12.625 0.515625 13.75 0.796875 14.6641 1.71094C15.5781 2.625 15.8594 3.75 15.9297 5.01562ZM14.2422 12.8906C14.6641 11.8711 14.5586 9.41016 14.5586 8.25C14.5586 7.125 14.6641 4.66406 14.2422 3.60938C13.9609 2.94141 13.4336 2.37891 12.7656 2.13281C11.7109 1.71094 9.25 1.81641 8.125 1.81641C6.96484 1.81641 4.50391 1.71094 3.48438 2.13281C2.78125 2.41406 2.25391 2.94141 1.97266 3.60938C1.55078 4.66406 1.65625 7.125 1.65625 8.25C1.65625 9.41016 1.55078 11.8711 1.97266 12.8906C2.25391 13.5938 2.78125 14.1211 3.48438 14.4023C4.50391 14.8242 6.96484 14.7188 8.125 14.7188C9.25 14.7188 11.7109 14.8242 12.7656 14.4023C13.4336 14.1211 13.9961 13.5938 14.2422 12.8906Z" fill="#8E3B0C"/>
</svg>
