<svg width="286" height="150" viewBox="0 0 286 150" fill="none" xmlns="http://www.w3.org/2000/svg">
<path d="M1.59155 87.4831L36.9173 48.417L45.6448 36.5725L50.7359 34.1828C50.7359 34.1828 69.6455 15.6887 71.1001 15.6887C72.5547 15.6887 80.8666 26.4942 85.4382 29.6112C87.2668 30.858 96.2437 38.1309 96.2437 38.1309L106.426 48.9365C106.426 48.9365 116.421 42.7441 118.478 41.6635C128.868 36.2608 130.323 31.0658 133.232 31.0658C133.71 31.0658 147.362 43.4714 161.908 56.2094C178.76 70.9631 196.818 86.3402 196.818 86.3402C196.818 86.3402 134.479 37.092 133.44 37.092C132.401 37.092 131.985 43.7415 131.985 43.7415L128.889 51.5963L130.738 58.4952L134.271 65.5603L129.533 73.145C129.533 73.145 92.5033 38.5465 91.4643 37.9231C90.4254 37.2998 81.9056 33.975 80.0354 32.5204C78.1653 31.0658 71.5157 24.0007 70.0611 23.5851L66.1129 31.4814L64.6584 41.2479L60.0868 49.9755L53.8528 58.4952L50.7359 66.3915L56.9075 87.4831H1.59155Z" fill="#1B7DA0"/>
<path d="M83.8797 24.5202C96.3476 22.8579 98.4256 26.3904 102.166 26.3904C105.906 26.3904 108.94 24.0839 114.177 24.0839C119.413 24.0839 121.491 25.9748 123.569 25.9748C126.271 25.9748 126.063 23.689 126.063 23.689C126.063 23.689 127.725 24.728 129.388 24.1046C130.988 23.502 131.881 21.6111 131.881 21.6111C131.881 21.6111 134.583 22.4423 135.621 20.3643C136.66 18.2863 134.79 16.4161 134.79 16.4161C134.79 16.4161 137.076 14.9615 136.245 13.0913C134.125 8.31197 129.388 10.8055 129.388 10.8055C129.388 10.8055 128.556 8.93536 124.193 8.93536C119.829 8.93536 118.374 11.4289 118.374 12.6757C118.374 13.9225 120.037 15.1693 121.283 15.1693C122.946 15.1693 123.361 13.7147 124.816 13.7147C126.686 13.7147 127.517 15.1693 127.517 16.2083C127.517 17.2473 126.686 19.1175 124.193 19.1175C120.037 19.1175 118.582 17.4551 114.634 17.4551C111.309 17.4551 104.452 19.1175 102.582 19.1175C99.4646 19.1175 96.7632 18.2863 96.7632 18.2863C96.7632 18.2863 98.6334 19.5331 99.8802 19.5331C99.8802 19.5331 96.3476 19.1175 94.6852 19.7409C94.6852 19.7409 96.5554 19.7409 96.7632 19.9487C96.7632 19.9487 92.815 20.5721 91.5682 20.3643C90.3214 20.1565 96.3476 21.1955 96.3476 21.1955C96.3476 21.1955 93.4384 21.4033 92.1916 22.0267C92.1916 22.0267 94.4774 22.0267 95.1008 22.4423C95.1008 22.4423 91.5682 22.6501 89.0747 22.8579C89.0747 22.8579 90.1137 23.2735 90.9448 23.2735C87.8902 23.7098 85.6875 24.1254 83.8797 24.5202Z" fill="#FCA91B"/>
<path d="M125.543 7.79244C130.593 6.96125 131.424 8.72753 132.941 8.72753C134.458 8.72753 135.684 7.56386 137.803 7.56386C139.923 7.56386 140.775 8.51973 141.606 8.51973C142.707 8.51973 142.624 7.37684 142.624 7.37684C142.624 7.37684 143.289 7.89634 143.975 7.58464C144.619 7.29372 144.993 6.33785 144.993 6.33785C144.993 6.33785 146.095 6.75345 146.51 5.71446C146.926 4.67546 146.178 3.74037 146.178 3.74037C146.178 3.74037 147.113 3.01308 146.759 2.07798C145.908 -0.311698 143.975 0.935093 143.975 0.935093C143.975 0.935093 143.622 0 141.855 0C140.089 0 139.507 1.24679 139.507 1.87019C139.507 2.49358 140.172 3.11698 140.692 3.11698C141.357 3.11698 141.523 2.38968 142.126 2.38968C142.874 2.38968 143.227 3.11698 143.227 3.63647C143.227 4.15597 142.894 5.09106 141.876 5.09106C140.193 5.09106 139.611 4.25987 138.011 4.25987C136.66 4.25987 133.897 5.09106 133.128 5.09106C131.86 5.09106 130.78 4.67546 130.78 4.67546C130.78 4.67546 131.528 5.29886 132.047 5.29886C132.047 5.29886 130.614 5.09106 129.949 5.40276C129.949 5.40276 130.697 5.40276 130.78 5.50666C130.78 5.50666 129.18 5.81835 128.681 5.71446C128.182 5.61056 130.614 6.13005 130.614 6.13005C130.614 6.13005 129.429 6.23395 128.93 6.54565C128.93 6.54565 129.865 6.54565 130.115 6.75345C130.115 6.75345 128.681 6.85735 127.684 6.96125C127.684 6.96125 128.099 7.16904 128.432 7.16904C127.185 7.39762 126.271 7.60542 125.543 7.79244Z" fill="#FCA91B"/>
<path d="M139.674 35.5335C147.237 34.4321 148.505 36.7803 150.77 36.7803C153.035 36.7803 154.884 35.2426 158.064 35.2426C161.243 35.2426 162.511 36.5101 163.757 36.5101C165.399 36.5101 165.274 34.9932 165.274 34.9932C165.274 34.9932 166.293 35.6789 167.29 35.2633C168.267 34.8685 168.807 33.6009 168.807 33.6009C168.807 33.6009 170.449 34.162 171.072 32.7698C171.695 31.3775 170.573 30.1307 170.573 30.1307C170.573 30.1307 171.965 29.1541 171.446 27.9073C170.158 24.728 167.29 26.3903 167.29 26.3903C167.29 26.3903 166.791 25.1436 164.131 25.1436C161.472 25.1436 160.599 26.8059 160.599 27.6371C160.599 28.4683 161.617 29.2995 162.365 29.2995C163.383 29.2995 163.633 28.3229 164.505 28.3229C165.648 28.3229 166.147 29.2995 166.147 29.9853C166.147 30.671 165.648 31.9178 164.131 31.9178C161.617 31.9178 160.724 30.8165 158.334 30.8165C156.318 30.8165 152.162 31.9178 151.019 31.9178C149.128 31.9178 147.487 31.3567 147.487 31.3567C147.487 31.3567 148.63 32.1879 149.378 32.1879C149.378 32.1879 147.237 31.9178 146.219 32.3334C146.219 32.3334 147.362 32.3334 147.487 32.4788C147.487 32.4788 145.097 32.8944 144.328 32.749C143.58 32.6035 147.237 33.31 147.237 33.31C147.237 33.31 145.471 33.4555 144.723 33.8711C144.723 33.8711 146.115 33.8711 146.489 34.1412C146.489 34.1412 144.349 34.2867 142.832 34.4114C142.832 34.4114 143.456 34.6815 143.975 34.6815C142.126 34.9932 140.775 35.2633 139.674 35.5335Z" fill="#FCA91B"/>
<path d="M21.164 129.664L18.331 115.982L13.1211 129.955H12.307L6.95047 115.982L4.18266 129.664H1.08923L5.55029 108.363H7.03188L12.714 123.906L17.9566 108.363H19.4219L24.2574 129.664H21.164Z" fill="#FCA91B"/>
<path d="M35.5891 120.126V129.664H32.3329V120.126L24.6481 108.363H28.0021L33.9447 117.669L39.8874 108.363H43.2413L35.5891 120.126Z" fill="#FCA91B"/>
<path d="M44.8206 128.69L46.0091 126.015C46.6169 126.412 47.3713 126.746 48.2722 127.018C49.1839 127.279 49.998 127.41 50.7144 127.41C51.9843 127.41 53.0046 127.1 53.7752 126.48C54.5459 125.859 54.9312 125.069 54.9312 124.11C54.9312 123.393 54.7141 122.729 54.28 122.118C53.8566 121.498 52.7821 120.824 51.0563 120.097L49.1351 119.297C47.507 118.619 46.3673 117.814 45.716 116.884C45.0756 115.953 44.7554 114.834 44.7554 113.525C44.7554 111.935 45.385 110.617 46.6441 109.57C47.9031 108.523 49.5204 108 51.4959 108C54.1334 108 55.9678 108.383 56.9989 109.149L56.0383 111.679C55.6042 111.397 54.9421 111.126 54.052 110.864C53.162 110.603 52.3371 110.472 51.5773 110.472C50.4702 110.472 49.5964 110.753 48.956 111.315C48.3265 111.877 48.0117 112.599 48.0117 113.481C48.0117 114.024 48.1257 114.519 48.3536 114.964C48.5815 115.41 48.8963 115.784 49.2979 116.084C49.7104 116.384 50.5461 116.806 51.8052 117.349L53.759 118.178C55.3871 118.866 56.5268 119.69 57.178 120.649C57.8401 121.599 58.1712 122.811 58.1712 124.284C58.1712 125.884 57.4494 127.241 56.0058 128.355C54.573 129.47 52.6518 130.027 50.2422 130.027C48.1257 130.027 46.3184 129.582 44.8206 128.69Z" fill="#FCA91B"/>
<path d="M70.6426 110.981V129.664H67.3863V110.981H59.7993V108.363H78.5715V110.981H70.6426Z" fill="#FCA91B"/>
<path d="M81.8929 129.664V108.363H85.1491V129.664H81.8929Z" fill="#FCA91B"/>
<path d="M103.759 129.664L97.0344 119.864L93.8596 123.892V129.664H90.6033V108.363H93.8596V119.952L102.717 108.363H106.347L99.2161 117.596L107.357 129.664H103.759Z" fill="#FCA91B"/>
<path d="M5.18143 145.506L4.90716 144.379H4.84786C4.68478 144.602 4.52171 144.794 4.35863 144.958C4.19555 145.116 4.01765 145.247 3.82492 145.35C3.63219 145.454 3.41722 145.531 3.18002 145.58C2.94281 145.63 2.66855 145.654 2.35722 145.654C2.01624 145.654 1.70243 145.605 1.41581 145.506C1.12919 145.412 0.879632 145.266 0.667137 145.069C0.459583 144.866 0.296505 144.614 0.177903 144.313C0.059301 144.006 0 143.645 0 143.23C0 142.42 0.284151 141.797 0.852453 141.362C1.4257 140.928 2.29544 140.69 3.4617 140.651L4.82562 140.599V140.087C4.82562 139.756 4.78856 139.48 4.71443 139.257C4.64525 139.035 4.54147 138.857 4.4031 138.723C4.26968 138.585 4.10166 138.486 3.89904 138.427C3.70137 138.368 3.47405 138.338 3.21708 138.338C2.80692 138.338 2.42393 138.397 2.06812 138.516C1.71726 138.635 1.37875 138.778 1.05259 138.946L0.578185 137.93C0.943875 137.733 1.35157 137.565 1.80127 137.426C2.25097 137.288 2.72291 137.219 3.21708 137.219C3.72114 137.219 4.15602 137.271 4.52171 137.374C4.89234 137.473 5.19625 137.634 5.43346 137.856C5.6756 138.074 5.85598 138.353 5.97458 138.694C6.09318 139.035 6.15248 139.447 6.15248 139.932V145.506H5.18143ZM2.70561 144.565C3.00706 144.565 3.28627 144.518 3.54324 144.424C3.80021 144.33 4.02259 144.189 4.21037 144.001C4.39816 143.809 4.54394 143.569 4.64772 143.282C4.75644 142.991 4.8108 142.65 4.8108 142.259V141.525L3.75079 141.577C3.30603 141.597 2.93293 141.647 2.63148 141.726C2.33004 141.805 2.08789 141.916 1.90505 142.059C1.72714 142.198 1.59866 142.368 1.51959 142.571C1.44052 142.768 1.40099 142.993 1.40099 143.245C1.40099 143.7 1.51959 144.033 1.75679 144.246C1.99894 144.458 2.31521 144.565 2.70561 144.565Z" fill="white"/>
<path d="M18.9971 144.416H18.9378C18.8291 144.584 18.7006 144.745 18.5523 144.898C18.409 145.046 18.241 145.177 18.0483 145.291C17.8605 145.405 17.648 145.494 17.4108 145.558C17.1736 145.622 16.9067 145.654 16.6102 145.654C16.1506 145.654 15.7306 145.565 15.3501 145.387C14.9696 145.21 14.6434 144.945 14.3716 144.594C14.0998 144.238 13.8898 143.799 13.7415 143.275C13.5933 142.751 13.5192 142.143 13.5192 141.451C13.5192 140.755 13.5933 140.144 13.7415 139.62C13.8898 139.092 14.0998 138.649 14.3716 138.294C14.6434 137.938 14.9696 137.671 15.3501 137.493C15.7306 137.31 16.1506 137.219 16.6102 137.219C16.9018 137.219 17.1662 137.251 17.4034 137.315C17.6406 137.379 17.8531 137.466 18.0409 137.575C18.2336 137.683 18.4041 137.809 18.5523 137.953C18.7006 138.096 18.8291 138.247 18.9378 138.405H19.0267C19.0119 138.237 18.9971 138.076 18.9823 137.923C18.9724 137.794 18.9625 137.663 18.9526 137.53C18.9427 137.392 18.9378 137.283 18.9378 137.204V133.972H20.2869V145.506H19.1972L18.9971 144.416ZM16.8697 144.535C17.2452 144.535 17.5615 144.478 17.8185 144.364C18.0804 144.251 18.2904 144.078 18.4486 143.846C18.6116 143.613 18.7302 143.324 18.8044 142.978C18.8834 142.627 18.9279 142.22 18.9378 141.755V141.451C18.9378 140.952 18.9032 140.51 18.834 140.124C18.7698 139.734 18.6561 139.408 18.493 139.146C18.3349 138.879 18.1224 138.679 17.8555 138.546C17.5887 138.407 17.2551 138.338 16.8548 138.338C16.1877 138.338 15.696 138.607 15.3797 139.146C15.0684 139.685 14.9127 140.458 14.9127 141.466C14.9127 142.499 15.0684 143.27 15.3797 143.779C15.696 144.283 16.1926 144.535 16.8697 144.535Z" fill="white"/>
<path d="M29.6698 145.506L26.8901 137.367H28.2836L29.7587 141.896C29.8131 142.059 29.8773 142.269 29.9515 142.526C30.0256 142.783 30.0997 143.045 30.1739 143.312C30.248 143.579 30.3147 143.831 30.374 144.068C30.4382 144.305 30.4802 144.486 30.5 144.609H30.5519C30.5766 144.486 30.6186 144.305 30.6779 144.068C30.7372 143.831 30.8039 143.579 30.8781 143.312C30.9522 143.045 31.0263 142.783 31.1004 142.526C31.1746 142.269 31.2388 142.059 31.2932 141.896L32.7683 137.367H34.1618L31.3821 145.506H29.6698Z" fill="white"/>
<path d="M43.9895 145.654C43.4459 145.654 42.9493 145.563 42.4996 145.38C42.0499 145.197 41.662 144.93 41.3358 144.579C41.0146 144.229 40.765 143.794 40.5871 143.275C40.4092 142.756 40.3203 142.163 40.3203 141.496C40.3203 140.824 40.4018 140.223 40.5649 139.695C40.728 139.166 40.9578 138.719 41.2543 138.353C41.5508 137.982 41.9041 137.701 42.3143 137.508C42.7294 137.315 43.1865 137.219 43.6856 137.219C44.1748 137.219 44.6147 137.308 45.0051 137.486C45.3954 137.659 45.7265 137.906 45.9983 138.227C46.2701 138.543 46.4777 138.926 46.621 139.376C46.7693 139.821 46.8434 140.315 46.8434 140.858V141.696H41.7138C41.7385 142.65 41.9387 143.351 42.3143 143.801C42.6948 144.251 43.2581 144.476 44.0043 144.476C44.2564 144.476 44.4886 144.463 44.7011 144.439C44.9186 144.414 45.1261 144.379 45.3238 144.335C45.5264 144.285 45.7216 144.226 45.9094 144.157C46.0972 144.083 46.2874 144.001 46.4802 143.912V145.113C46.2825 145.207 46.0873 145.289 45.8946 145.358C45.7068 145.427 45.5116 145.484 45.309 145.528C45.1113 145.573 44.9037 145.605 44.6863 145.625C44.4738 145.644 44.2415 145.654 43.9895 145.654ZM43.656 138.338C43.0926 138.338 42.6454 138.531 42.3143 138.916C41.9881 139.302 41.7979 139.863 41.7435 140.599H45.3905C45.3905 140.263 45.3559 139.956 45.2867 139.68C45.2225 139.398 45.1187 139.158 44.9754 138.961C44.837 138.763 44.6591 138.61 44.4417 138.501C44.2243 138.392 43.9623 138.338 43.656 138.338Z" fill="white"/>
<path d="M59.2951 145.506V140.265C59.2951 139.623 59.1642 139.141 58.9022 138.82C58.6453 138.499 58.2401 138.338 57.6866 138.338C57.2863 138.338 56.9503 138.402 56.6785 138.531C56.4067 138.659 56.1868 138.849 56.0187 139.102C55.8557 139.354 55.7371 139.662 55.6629 140.028C55.5937 140.394 55.5592 140.814 55.5592 141.288V145.506H54.2101V137.367H55.3071L55.4999 138.464H55.574C55.6975 138.252 55.8433 138.069 56.0113 137.916C56.1843 137.757 56.3721 137.626 56.5747 137.523C56.7773 137.419 56.9923 137.342 57.2196 137.293C57.4469 137.243 57.6792 137.219 57.9164 137.219C58.8207 137.219 59.5002 137.456 59.9548 137.93C60.4144 138.4 60.6442 139.153 60.6442 140.191V145.506H59.2951Z" fill="white"/>
<path d="M70.9241 144.55C71.013 144.55 71.1118 144.545 71.2206 144.535C71.3342 144.525 71.4429 144.513 71.5467 144.498C71.6505 144.483 71.7444 144.466 71.8284 144.446C71.9174 144.426 71.9841 144.409 72.0285 144.394V145.417C71.9643 145.447 71.8828 145.476 71.7839 145.506C71.6851 145.536 71.5764 145.56 71.4578 145.58C71.3392 145.605 71.2156 145.622 71.0871 145.632C70.9586 145.647 70.8326 145.654 70.7091 145.654C70.4027 145.654 70.1185 145.615 69.8566 145.536C69.5947 145.457 69.3674 145.321 69.1747 145.128C68.9869 144.935 68.8386 144.676 68.7299 144.35C68.6212 144.019 68.5668 143.603 68.5668 143.104V138.383H67.4179V137.782L68.5668 137.204L69.145 135.499H69.9233V137.367H71.9692V138.383H69.9233V143.104C69.9233 143.584 69.9999 143.944 70.1531 144.187C70.3113 144.429 70.5682 144.55 70.9241 144.55Z" fill="white"/>
<path d="M84.1912 145.506L83.991 144.416H83.9169C83.7934 144.629 83.6451 144.814 83.4722 144.972C83.3041 145.126 83.1188 145.254 82.9162 145.358C82.7136 145.457 82.4986 145.531 82.2713 145.58C82.044 145.63 81.8117 145.654 81.5745 145.654C81.1248 145.654 80.7295 145.597 80.3885 145.484C80.0475 145.37 79.7634 145.192 79.536 144.95C79.3087 144.708 79.1358 144.399 79.0172 144.024C78.9035 143.648 78.8467 143.201 78.8467 142.682V137.367H80.1958V142.608C80.1958 143.25 80.3267 143.732 80.5886 144.053C80.8506 144.374 81.2558 144.535 81.8043 144.535C82.2046 144.535 82.5406 144.471 82.8124 144.342C83.0842 144.214 83.3017 144.026 83.4647 143.779C83.6328 143.527 83.7514 143.218 83.8205 142.852C83.8947 142.487 83.9317 142.067 83.9317 141.592V137.367H85.2808V145.506H84.1912Z" fill="white"/>
<path d="M96.6948 137.219C96.8381 137.219 96.9987 137.226 97.1766 137.241C97.3545 137.251 97.5077 137.268 97.6362 137.293L97.4583 138.538C97.3199 138.513 97.1766 138.494 97.0284 138.479C96.8851 138.459 96.7492 138.449 96.6207 138.449C96.3094 138.449 96.0252 138.513 95.7682 138.642C95.5113 138.765 95.2889 138.946 95.1011 139.183C94.9183 139.415 94.7749 139.697 94.6712 140.028C94.5723 140.354 94.5229 140.717 94.5229 141.118V145.506H93.1738V137.367H94.2709L94.434 138.857H94.4933C94.6168 138.644 94.7478 138.439 94.8861 138.242C95.0294 138.044 95.1876 137.871 95.3605 137.723C95.5384 137.57 95.7361 137.449 95.9535 137.36C96.171 137.266 96.4181 137.219 96.6948 137.219Z" fill="white"/>
<path d="M107.768 145.654C107.224 145.654 106.728 145.563 106.278 145.38C105.828 145.197 105.44 144.93 105.114 144.579C104.793 144.229 104.543 143.794 104.365 143.275C104.187 142.756 104.099 142.163 104.099 141.496C104.099 140.824 104.18 140.223 104.343 139.695C104.506 139.166 104.736 138.719 105.033 138.353C105.329 137.982 105.682 137.701 106.093 137.508C106.508 137.315 106.965 137.219 107.464 137.219C107.953 137.219 108.393 137.308 108.783 137.486C109.174 137.659 109.505 137.906 109.777 138.227C110.048 138.543 110.256 138.926 110.399 139.376C110.548 139.821 110.622 140.315 110.622 140.858V141.696H105.492C105.517 142.65 105.717 143.351 106.093 143.801C106.473 144.251 107.036 144.476 107.783 144.476C108.035 144.476 108.267 144.463 108.479 144.439C108.697 144.414 108.904 144.379 109.102 144.335C109.305 144.285 109.5 144.226 109.688 144.157C109.875 144.083 110.066 144.001 110.258 143.912V145.113C110.061 145.207 109.866 145.289 109.673 145.358C109.485 145.427 109.29 145.484 109.087 145.528C108.89 145.573 108.682 145.605 108.465 145.625C108.252 145.644 108.02 145.654 107.768 145.654ZM107.434 138.338C106.871 138.338 106.424 138.531 106.093 138.916C105.766 139.302 105.576 139.863 105.522 140.599H109.169C109.169 140.263 109.134 139.956 109.065 139.68C109.001 139.398 108.897 139.158 108.754 138.961C108.615 138.763 108.437 138.61 108.22 138.501C108.003 138.392 107.741 138.338 107.434 138.338Z" fill="white"/>
<path d="M122.858 143.275C122.858 143.67 122.787 144.016 122.643 144.313C122.5 144.609 122.293 144.859 122.021 145.061C121.754 145.259 121.43 145.407 121.05 145.506C120.669 145.605 120.242 145.654 119.767 145.654C119.229 145.654 118.767 145.61 118.381 145.521C117.996 145.437 117.657 145.311 117.366 145.143V143.912C117.519 143.991 117.689 144.07 117.877 144.15C118.065 144.224 118.263 144.29 118.47 144.35C118.678 144.409 118.89 144.458 119.108 144.498C119.33 144.533 119.55 144.55 119.767 144.55C120.089 144.55 120.36 144.523 120.583 144.468C120.81 144.414 120.993 144.337 121.131 144.238C121.275 144.135 121.378 144.011 121.443 143.868C121.507 143.72 121.539 143.557 121.539 143.379C121.539 143.225 121.514 143.087 121.465 142.964C121.415 142.84 121.324 142.719 121.191 142.6C121.062 142.477 120.884 142.353 120.657 142.23C120.43 142.106 120.138 141.968 119.782 141.815C119.426 141.661 119.105 141.511 118.819 141.362C118.537 141.214 118.297 141.049 118.1 140.866C117.902 140.683 117.749 140.473 117.64 140.236C117.536 139.994 117.484 139.707 117.484 139.376C117.484 139.03 117.551 138.723 117.684 138.457C117.823 138.185 118.016 137.958 118.263 137.775C118.51 137.592 118.806 137.453 119.152 137.36C119.498 137.266 119.883 137.219 120.308 137.219C120.788 137.219 121.225 137.271 121.621 137.374C122.021 137.478 122.399 137.614 122.755 137.782L122.288 138.872C121.966 138.728 121.635 138.605 121.294 138.501C120.958 138.392 120.615 138.338 120.264 138.338C119.76 138.338 119.387 138.422 119.145 138.59C118.903 138.753 118.781 138.988 118.781 139.294C118.781 139.467 118.809 139.618 118.863 139.746C118.922 139.875 119.021 139.996 119.16 140.11C119.298 140.223 119.483 140.339 119.715 140.458C119.948 140.572 120.237 140.7 120.583 140.843C120.939 140.992 121.255 141.14 121.532 141.288C121.813 141.437 122.053 141.605 122.251 141.792C122.448 141.975 122.599 142.185 122.703 142.422C122.807 142.66 122.858 142.944 122.858 143.275Z" fill="white"/>
<path d="M143.996 145.506L143.722 144.379H143.663C143.5 144.602 143.337 144.794 143.173 144.958C143.01 145.116 142.833 145.247 142.64 145.35C142.447 145.454 142.232 145.531 141.995 145.58C141.758 145.63 141.483 145.654 141.172 145.654C140.831 145.654 140.517 145.605 140.231 145.506C139.944 145.412 139.694 145.266 139.482 145.069C139.274 144.866 139.111 144.614 138.993 144.313C138.874 144.006 138.815 143.645 138.815 143.23C138.815 142.42 139.099 141.797 139.667 141.362C140.241 140.928 141.11 140.69 142.277 140.651L143.64 140.599V140.087C143.64 139.756 143.603 139.48 143.529 139.257C143.46 139.035 143.356 138.857 143.218 138.723C143.085 138.585 142.917 138.486 142.714 138.427C142.516 138.368 142.289 138.338 142.032 138.338C141.622 138.338 141.239 138.397 140.883 138.516C140.532 138.635 140.194 138.778 139.867 138.946L139.393 137.93C139.759 137.733 140.166 137.565 140.616 137.426C141.066 137.288 141.538 137.219 142.032 137.219C142.536 137.219 142.971 137.271 143.337 137.374C143.707 137.473 144.011 137.634 144.248 137.856C144.49 138.074 144.671 138.353 144.789 138.694C144.908 139.035 144.967 139.447 144.967 139.932V145.506H143.996ZM141.52 144.565C141.822 144.565 142.101 144.518 142.358 144.424C142.615 144.33 142.837 144.189 143.025 144.001C143.213 143.809 143.359 143.569 143.463 143.282C143.571 142.991 143.626 142.65 143.626 142.259V141.525L142.566 141.577C142.121 141.597 141.748 141.647 141.446 141.726C141.145 141.805 140.903 141.916 140.72 142.059C140.542 142.198 140.414 142.368 140.334 142.571C140.255 142.768 140.216 142.993 140.216 143.245C140.216 143.7 140.334 144.033 140.572 144.246C140.814 144.458 141.13 144.565 141.52 144.565Z" fill="white"/>
<path d="M157.871 145.506V140.265C157.871 139.623 157.74 139.141 157.478 138.82C157.221 138.499 156.816 138.338 156.263 138.338C155.862 138.338 155.526 138.402 155.255 138.531C154.983 138.659 154.763 138.849 154.595 139.102C154.432 139.354 154.313 139.662 154.239 140.028C154.17 140.394 154.135 140.814 154.135 141.288V145.506H152.786V137.367H153.883L154.076 138.464H154.15C154.274 138.252 154.419 138.069 154.587 137.916C154.76 137.757 154.948 137.626 155.151 137.523C155.353 137.419 155.568 137.342 155.796 137.293C156.023 137.243 156.255 137.219 156.493 137.219C157.397 137.219 158.076 137.456 158.531 137.93C158.991 138.4 159.22 139.153 159.22 140.191V145.506H157.871Z" fill="white"/>
<path d="M172.065 144.416H172.006C171.897 144.584 171.768 144.745 171.62 144.898C171.477 145.046 171.309 145.177 171.116 145.291C170.928 145.405 170.716 145.494 170.479 145.558C170.241 145.622 169.975 145.654 169.678 145.654C169.219 145.654 168.798 145.565 168.418 145.387C168.037 145.21 167.711 144.945 167.439 144.594C167.168 144.238 166.958 143.799 166.809 143.275C166.661 142.751 166.587 142.143 166.587 141.451C166.587 140.755 166.661 140.144 166.809 139.62C166.958 139.092 167.168 138.649 167.439 138.294C167.711 137.938 168.037 137.671 168.418 137.493C168.798 137.31 169.219 137.219 169.678 137.219C169.97 137.219 170.234 137.251 170.471 137.315C170.708 137.379 170.921 137.466 171.109 137.575C171.301 137.683 171.472 137.809 171.62 137.953C171.768 138.096 171.897 138.247 172.006 138.405H172.095C172.08 138.237 172.065 138.076 172.05 137.923C172.04 137.794 172.03 137.663 172.02 137.53C172.011 137.392 172.006 137.283 172.006 137.204V133.972H173.355V145.506H172.265L172.065 144.416ZM169.938 144.535C170.313 144.535 170.629 144.478 170.886 144.364C171.148 144.251 171.358 144.078 171.516 143.846C171.68 143.613 171.798 143.324 171.872 142.978C171.951 142.627 171.996 142.22 172.006 141.755V141.451C172.006 140.952 171.971 140.51 171.902 140.124C171.838 139.734 171.724 139.408 171.561 139.146C171.403 138.879 171.19 138.679 170.923 138.546C170.657 138.407 170.323 138.338 169.923 138.338C169.256 138.338 168.764 138.607 168.448 139.146C168.136 139.685 167.981 140.458 167.981 141.466C167.981 142.499 168.136 143.27 168.448 143.779C168.764 144.283 169.261 144.535 169.938 144.535Z" fill="white"/>
<path d="M195.59 145.506V140.265C195.59 139.623 195.459 139.141 195.197 138.82C194.94 138.499 194.535 138.338 193.981 138.338C193.581 138.338 193.245 138.402 192.973 138.531C192.701 138.659 192.481 138.849 192.313 139.102C192.15 139.354 192.032 139.662 191.957 140.028C191.888 140.394 191.854 140.814 191.854 141.288V145.506H190.505V133.972H191.854V137.397L191.794 138.464H191.869C191.992 138.252 192.138 138.069 192.306 137.916C192.479 137.757 192.667 137.626 192.869 137.523C193.072 137.419 193.287 137.342 193.514 137.293C193.741 137.243 193.974 137.219 194.211 137.219C195.115 137.219 195.795 137.456 196.249 137.93C196.709 138.4 196.939 139.153 196.939 140.191V145.506H195.59Z" fill="white"/>
<path d="M211.392 141.422C211.392 142.099 211.308 142.702 211.14 143.23C210.977 143.754 210.74 144.196 210.428 144.557C210.122 144.913 209.749 145.185 209.309 145.373C208.869 145.56 208.375 145.654 207.826 145.654C207.317 145.654 206.848 145.56 206.418 145.373C205.988 145.185 205.615 144.913 205.299 144.557C204.987 144.196 204.743 143.754 204.565 143.23C204.392 142.702 204.305 142.099 204.305 141.422C204.305 140.75 204.387 140.154 204.55 139.635C204.718 139.111 204.955 138.672 205.262 138.316C205.568 137.955 205.941 137.683 206.381 137.5C206.826 137.313 207.322 137.219 207.871 137.219C208.38 137.219 208.849 137.313 209.279 137.5C209.709 137.683 210.08 137.955 210.391 138.316C210.707 138.672 210.952 139.111 211.125 139.635C211.303 140.154 211.392 140.75 211.392 141.422ZM205.699 141.422C205.699 142.455 205.867 143.233 206.203 143.757C206.544 144.276 207.095 144.535 207.856 144.535C208.617 144.535 209.163 144.276 209.494 143.757C209.83 143.233 209.998 142.455 209.998 141.422C209.998 140.389 209.828 139.618 209.487 139.109C209.151 138.595 208.602 138.338 207.841 138.338C207.08 138.338 206.532 138.595 206.196 139.109C205.865 139.618 205.699 140.389 205.699 141.422Z" fill="white"/>
<path d="M220.182 145.506H218.833V133.972H220.182V145.506Z" fill="white"/>
<path d="M229.424 145.506H228.075V137.367H229.424V145.506ZM227.971 135.165C227.971 134.869 228.045 134.654 228.193 134.521C228.347 134.387 228.534 134.32 228.757 134.32C228.865 134.32 228.967 134.338 229.061 134.372C229.16 134.402 229.244 134.451 229.313 134.521C229.387 134.59 229.444 134.679 229.483 134.787C229.528 134.891 229.55 135.017 229.55 135.165C229.55 135.452 229.471 135.667 229.313 135.81C229.16 135.949 228.974 136.018 228.757 136.018C228.534 136.018 228.347 135.949 228.193 135.81C228.045 135.672 227.971 135.457 227.971 135.165Z" fill="white"/>
<path d="M242.343 144.416H242.283C242.175 144.584 242.046 144.745 241.898 144.898C241.755 145.046 241.587 145.177 241.394 145.291C241.206 145.405 240.994 145.494 240.756 145.558C240.519 145.622 240.252 145.654 239.956 145.654C239.496 145.654 239.076 145.565 238.696 145.387C238.315 145.21 237.989 144.945 237.717 144.594C237.445 144.238 237.235 143.799 237.087 143.275C236.939 142.751 236.865 142.143 236.865 141.451C236.865 140.755 236.939 140.144 237.087 139.62C237.235 139.092 237.445 138.649 237.717 138.294C237.989 137.938 238.315 137.671 238.696 137.493C239.076 137.31 239.496 137.219 239.956 137.219C240.247 137.219 240.512 137.251 240.749 137.315C240.986 137.379 241.199 137.466 241.386 137.575C241.579 137.683 241.75 137.809 241.898 137.953C242.046 138.096 242.175 138.247 242.283 138.405H242.372C242.357 138.237 242.343 138.076 242.328 137.923C242.318 137.794 242.308 137.663 242.298 137.53C242.288 137.392 242.283 137.283 242.283 137.204V133.972H243.632V145.506H242.543L242.343 144.416ZM240.215 144.535C240.591 144.535 240.907 144.478 241.164 144.364C241.426 144.251 241.636 144.078 241.794 143.846C241.957 143.613 242.076 143.324 242.15 142.978C242.229 142.627 242.273 142.22 242.283 141.755V141.451C242.283 140.952 242.249 140.51 242.18 140.124C242.115 139.734 242.002 139.408 241.839 139.146C241.68 138.879 241.468 138.679 241.201 138.546C240.934 138.407 240.601 138.338 240.2 138.338C239.533 138.338 239.042 138.607 238.725 139.146C238.414 139.685 238.258 140.458 238.258 141.466C238.258 142.499 238.414 143.27 238.725 143.779C239.042 144.283 239.538 144.535 240.215 144.535Z" fill="white"/>
<path d="M256.114 145.506L255.84 144.379H255.78C255.617 144.602 255.454 144.794 255.291 144.958C255.128 145.116 254.95 145.247 254.757 145.35C254.565 145.454 254.35 145.531 254.112 145.58C253.875 145.63 253.601 145.654 253.29 145.654C252.949 145.654 252.635 145.605 252.348 145.506C252.062 145.412 251.812 145.266 251.6 145.069C251.392 144.866 251.229 144.614 251.11 144.313C250.992 144.006 250.932 143.645 250.932 143.23C250.932 142.42 251.217 141.797 251.785 141.362C252.358 140.928 253.228 140.69 254.394 140.651L255.758 140.599V140.087C255.758 139.756 255.721 139.48 255.647 139.257C255.578 139.035 255.474 138.857 255.335 138.723C255.202 138.585 255.034 138.486 254.831 138.427C254.634 138.368 254.406 138.338 254.149 138.338C253.739 138.338 253.356 138.397 253.001 138.516C252.65 138.635 252.311 138.778 251.985 138.946L251.511 137.93C251.876 137.733 252.284 137.565 252.734 137.426C253.183 137.288 253.655 137.219 254.149 137.219C254.654 137.219 255.088 137.271 255.454 137.374C255.825 137.473 256.129 137.634 256.366 137.856C256.608 138.074 256.788 138.353 256.907 138.694C257.026 139.035 257.085 139.447 257.085 139.932V145.506H256.114ZM253.638 144.565C253.939 144.565 254.219 144.518 254.476 144.424C254.733 144.33 254.955 144.189 255.143 144.001C255.331 143.809 255.476 143.569 255.58 143.282C255.689 142.991 255.743 142.65 255.743 142.259V141.525L254.683 141.577C254.238 141.597 253.865 141.647 253.564 141.726C253.262 141.805 253.02 141.916 252.837 142.059C252.66 142.198 252.531 142.368 252.452 142.571C252.373 142.768 252.333 142.993 252.333 143.245C252.333 143.7 252.452 144.033 252.689 144.246C252.931 144.458 253.248 144.565 253.638 144.565Z" fill="white"/>
<path d="M263.688 137.367H265.089L266.683 141.911C266.752 142.109 266.821 142.316 266.89 142.534C266.964 142.751 267.031 142.968 267.09 143.186C267.155 143.403 267.209 143.613 267.254 143.816C267.298 144.019 267.33 144.206 267.35 144.379H267.394C267.419 144.256 267.459 144.088 267.513 143.875C267.567 143.663 267.627 143.438 267.691 143.201C267.76 142.959 267.829 142.721 267.898 142.489C267.973 142.257 268.037 142.059 268.091 141.896L269.566 137.367H270.96L267.743 146.566C267.604 146.966 267.454 147.325 267.291 147.641C267.132 147.962 266.947 148.234 266.735 148.456C266.522 148.679 266.273 148.849 265.986 148.968C265.699 149.091 265.358 149.153 264.963 149.153C264.706 149.153 264.484 149.138 264.296 149.109C264.108 149.084 263.948 149.057 263.814 149.027V147.952C263.918 147.977 264.049 147.997 264.207 148.012C264.365 148.031 264.531 148.041 264.704 148.041C264.941 148.041 265.146 148.012 265.319 147.952C265.492 147.898 265.643 147.816 265.771 147.708C265.899 147.599 266.008 147.465 266.097 147.307C266.191 147.149 266.275 146.969 266.349 146.766L266.772 145.58L263.688 137.367Z" fill="white"/>
<path d="M282.515 143.275C282.515 143.67 282.443 144.016 282.3 144.313C282.156 144.609 281.949 144.859 281.677 145.061C281.41 145.259 281.086 145.407 280.706 145.506C280.325 145.605 279.898 145.654 279.424 145.654C278.885 145.654 278.423 145.61 278.037 145.521C277.652 145.437 277.313 145.311 277.022 145.143V143.912C277.175 143.991 277.346 144.07 277.533 144.15C277.721 144.224 277.919 144.29 278.126 144.35C278.334 144.409 278.546 144.458 278.764 144.498C278.986 144.533 279.206 144.55 279.424 144.55C279.745 144.55 280.017 144.523 280.239 144.468C280.466 144.414 280.649 144.337 280.788 144.238C280.931 144.135 281.035 144.011 281.099 143.868C281.163 143.72 281.195 143.557 281.195 143.379C281.195 143.225 281.171 143.087 281.121 142.964C281.072 142.84 280.98 142.719 280.847 142.6C280.718 142.477 280.54 142.353 280.313 142.23C280.086 142.106 279.794 141.968 279.438 141.815C279.083 141.661 278.761 141.511 278.475 141.362C278.193 141.214 277.953 141.049 277.756 140.866C277.558 140.683 277.405 140.473 277.296 140.236C277.192 139.994 277.141 139.707 277.141 139.376C277.141 139.03 277.207 138.723 277.341 138.457C277.479 138.185 277.672 137.958 277.919 137.775C278.166 137.592 278.462 137.453 278.808 137.36C279.154 137.266 279.54 137.219 279.965 137.219C280.444 137.219 280.881 137.271 281.277 137.374C281.677 137.478 282.055 137.614 282.411 137.782L281.944 138.872C281.623 138.728 281.292 138.605 280.951 138.501C280.615 138.392 280.271 138.338 279.92 138.338C279.416 138.338 279.043 138.422 278.801 138.59C278.559 138.753 278.438 138.988 278.438 139.294C278.438 139.467 278.465 139.618 278.519 139.746C278.579 139.875 278.677 139.996 278.816 140.11C278.954 140.223 279.139 140.339 279.372 140.458C279.604 140.572 279.893 140.7 280.239 140.843C280.595 140.992 280.911 141.14 281.188 141.288C281.469 141.437 281.709 141.605 281.907 141.792C282.104 141.975 282.255 142.185 282.359 142.422C282.463 142.66 282.515 142.944 282.515 143.275Z" fill="white"/>
<path d="M140.898 110.551V129.537H138.802V114.376L131.439 129.537H129.913L122.549 114.431V129.537H120.454V110.551H122.669L130.661 127.006L138.653 110.551H140.898Z" fill="#FCA91B"/>
<path d="M155.049 129.73C153.114 129.73 151.358 129.317 149.781 128.492C148.205 127.648 146.958 126.483 146.04 124.997C145.142 123.493 144.693 121.796 144.693 119.907C144.693 118.017 145.142 116.33 146.04 114.844C146.958 113.34 148.205 112.175 149.781 111.349C151.358 110.506 153.114 110.084 155.049 110.084C157.005 110.084 158.771 110.506 160.347 111.349C161.924 112.175 163.161 113.34 164.059 114.844C164.957 116.33 165.406 118.017 165.406 119.907C165.406 121.796 164.957 123.493 164.059 124.997C163.161 126.483 161.924 127.648 160.347 128.492C158.771 129.317 157.005 129.73 155.049 129.73ZM155.049 128.051C156.606 128.051 158.003 127.721 159.24 127.061C160.477 126.4 161.455 125.456 162.173 124.227C162.891 122.979 163.251 121.539 163.251 119.907C163.251 118.274 162.891 116.843 162.173 115.614C161.455 114.385 160.477 113.441 159.24 112.78C158.003 112.12 156.606 111.79 155.049 111.79C153.493 111.79 152.096 112.12 150.859 112.78C149.622 113.441 148.644 114.385 147.925 115.614C147.207 116.843 146.848 118.274 146.848 119.907C146.848 121.539 147.207 122.979 147.925 124.227C148.644 125.456 149.622 126.4 150.859 127.061C152.096 127.721 153.493 128.051 155.049 128.051Z" fill="#FCA91B"/>
<path d="M171.245 110.304V122.411C171.245 124.318 171.734 125.731 172.712 126.648C173.709 127.565 175.066 128.024 176.782 128.024C178.498 128.024 179.835 127.574 180.793 126.676C181.771 125.758 182.26 124.337 182.26 122.411V110.304H184.355V122.383C184.355 124.823 183.647 126.657 182.23 127.886C180.833 129.115 179.007 129.73 176.752 129.73C174.498 129.73 172.662 129.115 171.245 127.886C169.848 126.657 169.15 124.823 169.15 122.383V110.304H171.245Z" fill="#FCA91B"/>
<path d="M204.803 129.537H202.707L191.124 113.358V129.537H189.029V110.304H191.124L202.707 126.455V110.304H204.803V129.537Z" fill="#FCA91B"/>
<path d="M221.79 110.304V111.9H215.984V129.537H213.888V111.9H208.052V110.304H221.79Z" fill="#FCA91B"/>
<path d="M237.221 124.97H227.703L225.877 129.537H223.662L231.295 110.551H233.659L241.262 129.537H239.047L237.221 124.97ZM236.593 123.374L232.462 112.973L228.331 123.374H236.593Z" fill="#FCA91B"/>
<path d="M246.72 110.304V129.537H244.625V110.304H246.72Z" fill="#FCA91B"/>
<path d="M267.239 129.537H265.143L253.56 113.358V129.537H251.465V110.304H253.56L265.143 126.455V110.304H267.239V129.537Z" fill="#FCA91B"/>
<path d="M278.33 129.73C276.953 129.73 275.736 129.51 274.678 129.069C273.641 128.629 272.822 128.015 272.224 127.226C271.625 126.437 271.306 125.557 271.266 124.584H273.481C273.581 125.52 274.03 126.345 274.828 127.061C275.626 127.758 276.793 128.106 278.33 128.106C279.747 128.106 280.864 127.776 281.682 127.116C282.52 126.437 282.939 125.584 282.939 124.557C282.939 123.731 282.71 123.071 282.251 122.576C281.792 122.062 281.223 121.686 280.545 121.448C279.866 121.191 278.928 120.916 277.731 120.622C276.334 120.274 275.227 119.934 274.409 119.604C273.591 119.274 272.892 118.76 272.314 118.063C271.735 117.366 271.445 116.421 271.445 115.229C271.445 114.239 271.725 113.358 272.284 112.588C272.842 111.799 273.631 111.184 274.648 110.744C275.666 110.304 276.833 110.084 278.15 110.084C280.086 110.084 281.642 110.524 282.82 111.404C284.017 112.267 284.705 113.386 284.885 114.761H282.61C282.47 113.973 282.001 113.275 281.203 112.67C280.405 112.046 279.328 111.735 277.971 111.735C276.714 111.735 275.666 112.046 274.828 112.67C273.99 113.275 273.571 114.11 273.571 115.174C273.571 115.981 273.8 116.632 274.259 117.128C274.718 117.623 275.287 117.999 275.965 118.256C276.664 118.513 277.601 118.788 278.779 119.081C280.136 119.43 281.233 119.778 282.071 120.127C282.909 120.457 283.618 120.971 284.196 121.668C284.775 122.365 285.065 123.3 285.065 124.474C285.065 125.373 284.805 126.226 284.286 127.033C283.767 127.84 282.999 128.492 281.982 128.987C280.964 129.482 279.747 129.73 278.33 129.73Z" fill="#FCA91B"/>
</svg>
